M48
;DRILL file {KiCad (5.0.0-rc2-178-g3c7b91b96)} date 08/09/18 18:01:14
;FORMAT={-:-/ absolute / inch / decimal}
FMAT,2
INCH,TZ
T1C0.0157
T2C0.0386
T3C0.0394
T4C0.0902
%
G90
G05
M72
T1
X4.5Y-3.05
X4.55Y-2.75
X4.65Y-2.575
T2
X5.8785Y-3.0925
X5.9716Y-3.1245
X6.046Y-3.1502
X6.1391Y-3.1822
T3
X6.7Y-2.95
X6.7Y-3.05
X4.425Y-2.65
X4.425Y-2.75
X4.8Y-2.95
X4.9Y-2.95
X5.Y-2.95
X5.1Y-2.95
X4.8Y-2.65
X4.9Y-2.65
X5.Y-2.65
X5.1Y-2.65
X4.3Y-2.55
X4.3Y-2.65
X4.3Y-2.75
X4.3Y-2.85
X4.3Y-2.95
X4.3Y-3.05
X4.3Y-3.15
X4.3Y-3.25
T4
X5.799Y-2.9522
X6.2881Y-3.1207
T0
M30
