solid OpenSCAD_Model
  facet normal 1 0 1.22461e-016
    outer loop
      vertex -7.34764e-016 75 6
      vertex -7.34764e-016 69 6
      vertex -2.44921e-016 75 2
    endloop
  endfacet
  facet normal 1 -0 1.22461e-016
    outer loop
      vertex -2.44921e-016 75 2
      vertex 0 90 0
      vertex -2.44921e-016 90 2
    endloop
  endfacet
  facet normal 1 -0 1.22461e-016
    outer loop
      vertex -2.44921e-016 69 2
      vertex -2.44921e-016 75 2
      vertex -7.34764e-016 69 6
    endloop
  endfacet
  facet normal 1 0 1.22461e-016
    outer loop
      vertex 0 69 0
      vertex -2.44921e-016 75 2
      vertex -2.44921e-016 69 2
    endloop
  endfacet
  facet normal 1 0 1.22461e-016
    outer loop
      vertex -2.44921e-016 75 2
      vertex 0 69 0
      vertex 0 90 0
    endloop
  endfacet
  facet normal 1.22461e-016 0 -1
    outer loop
      vertex -6 27 -7.34764e-016
      vertex -10 30 -1.22461e-015
      vertex -6 30 -7.34764e-016
    endloop
  endfacet
  facet normal 1.22461e-016 0 -1
    outer loop
      vertex -10 30 -1.22461e-015
      vertex -15 27 -1.83691e-015
      vertex -10 46 -1.22461e-015
    endloop
  endfacet
  facet normal 1.22461e-016 0 -1
    outer loop
      vertex -15 27 -1.83691e-015
      vertex -10 30 -1.22461e-015
      vertex -6 27 -7.34764e-016
    endloop
  endfacet
  facet normal 1.22461e-016 0 -1
    outer loop
      vertex -6 46 -7.34764e-016
      vertex -10 46 -1.22461e-015
      vertex -6 69 -7.34764e-016
    endloop
  endfacet
  facet normal 1.22461e-016 0 -1
    outer loop
      vertex 0 69 0
      vertex -5 75 -6.12303e-016
      vertex 0 90 0
    endloop
  endfacet
  facet normal 1.22461e-016 0 -1
    outer loop
      vertex -6 69 -7.34764e-016
      vertex -5 75 -6.12303e-016
      vertex 0 69 0
    endloop
  endfacet
  facet normal 1.22461e-016 0 -1
    outer loop
      vertex -21 66 -2.57167e-015
      vertex -6 69 -7.34764e-016
      vertex -10 46 -1.22461e-015
    endloop
  endfacet
  facet normal 1.22461e-016 0 -1
    outer loop
      vertex -38 66 -4.6535e-015
      vertex -10 46 -1.22461e-015
      vertex -15 27 -1.83691e-015
    endloop
  endfacet
  facet normal 1.22461e-016 0 -1
    outer loop
      vertex -15 75 -1.83691e-015
      vertex -6 69 -7.34764e-016
      vertex -21 66 -2.57167e-015
    endloop
  endfacet
  facet normal 1.22461e-016 0 -1
    outer loop
      vertex 0 90 0
      vertex -5 75 -6.12303e-016
      vertex -5 90 -6.12303e-016
    endloop
  endfacet
  facet normal 1.22461e-016 0 -1
    outer loop
      vertex -48 8 -5.87811e-015
      vertex -25 15 -3.06152e-015
      vertex -25 0 -3.06152e-015
    endloop
  endfacet
  facet normal 1.22461e-016 0 -1
    outer loop
      vertex -48 69 -5.87811e-015
      vertex -38 66 -4.6535e-015
      vertex -48 8 -5.87811e-015
    endloop
  endfacet
  facet normal 1.22461e-016 0 -1
    outer loop
      vertex -25 15 -3.06152e-015
      vertex -48 8 -5.87811e-015
      vertex -38 66 -4.6535e-015
    endloop
  endfacet
  facet normal 1.22461e-016 0 -1
    outer loop
      vertex -55 0 -6.73533e-015
      vertex -48 8 -5.87811e-015
      vertex -25 0 -3.06152e-015
    endloop
  endfacet
  facet normal 1.22461e-016 0 -1
    outer loop
      vertex -48 8 -5.87811e-015
      vertex -55 0 -6.73533e-015
      vertex -55 8 -6.73533e-015
    endloop
  endfacet
  facet normal 1.22461e-016 0 -1
    outer loop
      vertex -25 15 -3.06152e-015
      vertex -15 27 -1.83691e-015
      vertex -15 15 -1.83691e-015
    endloop
  endfacet
  facet normal 1.22461e-016 0 -1
    outer loop
      vertex -6 69 -7.34764e-016
      vertex -15 75 -1.83691e-015
      vertex -5 75 -6.12303e-016
    endloop
  endfacet
  facet normal 1.22461e-016 0 -1
    outer loop
      vertex -21 90 -2.57167e-015
      vertex -15 75 -1.83691e-015
      vertex -21 66 -2.57167e-015
    endloop
  endfacet
  facet normal 1.22461e-016 0 -1
    outer loop
      vertex -38 66 -4.6535e-015
      vertex -15 27 -1.83691e-015
      vertex -25 15 -3.06152e-015
    endloop
  endfacet
  facet normal 1.22461e-016 0 -1
    outer loop
      vertex -10 46 -1.22461e-015
      vertex -38 66 -4.6535e-015
      vertex -21 66 -2.57167e-015
    endloop
  endfacet
  facet normal 1.22461e-016 0 -1
    outer loop
      vertex -15 75 -1.83691e-015
      vertex -21 90 -2.57167e-015
      vertex -15 90 -1.83691e-015
    endloop
  endfacet
  facet normal 1.22461e-016 0 -1
    outer loop
      vertex -38 66 -4.6535e-015
      vertex -48 69 -5.87811e-015
      vertex -38 90 -4.6535e-015
    endloop
  endfacet
  facet normal 1.22461e-016 0 -1
    outer loop
      vertex -55 90 -6.73533e-015
      vertex -48 69 -5.87811e-015
      vertex -55 69 -6.73533e-015
    endloop
  endfacet
  facet normal 1.22461e-016 0 -1
    outer loop
      vertex -48 69 -5.87811e-015
      vertex -55 90 -6.73533e-015
      vertex -38 90 -4.6535e-015
    endloop
  endfacet
  facet normal -1 0 0
    outer loop
      vertex -55 90 -6.73533e-015
      vertex -55 76 2
      vertex -55 90 2
    endloop
  endfacet
  facet normal -1 0 0
    outer loop
      vertex -55 69 -6.73533e-015
      vertex -55 76 2
      vertex -55 90 -6.73533e-015
    endloop
  endfacet
  facet normal -1 0 0
    outer loop
      vertex -55 69 2
      vertex -55 76 2
      vertex -55 69 -6.73533e-015
    endloop
  endfacet
  facet normal -1 0 0
    outer loop
      vertex -55 76 2
      vertex -55 69 2
      vertex -55 76 6
    endloop
  endfacet
  facet normal -1 -0 0
    outer loop
      vertex -55 76 6
      vertex -55 69 2
      vertex -55 69 6
    endloop
  endfacet
  facet normal -1 0 0
    outer loop
      vertex -55 0 -6.73533e-015
      vertex -55 8 2
      vertex -55 8 -6.73533e-015
    endloop
  endfacet
  facet normal -1 0 0
    outer loop
      vertex -55 0 6
      vertex -55 8 2
      vertex -55 0 -6.73533e-015
    endloop
  endfacet
  facet normal -1 0 0
    outer loop
      vertex -55 8 2
      vertex -55 0 6
      vertex -55 8 6
    endloop
  endfacet
  facet normal -0 0 1
    outer loop
      vertex -48 76 2
      vertex -38 66 2
      vertex -38 90 2
    endloop
  endfacet
  facet normal 0 0 1
    outer loop
      vertex -38 66 2
      vertex -48 76 2
      vertex -48 69 2
    endloop
  endfacet
  facet normal -0 0 1
    outer loop
      vertex -55 90 2
      vertex -48 76 2
      vertex -38 90 2
    endloop
  endfacet
  facet normal 0 0 1
    outer loop
      vertex -48 76 2
      vertex -55 90 2
      vertex -55 76 2
    endloop
  endfacet
  facet normal 0 0 1
    outer loop
      vertex -14 75 2
      vertex -15 75 2
      vertex -14 69 2
    endloop
  endfacet
  facet normal 0 0 1
    outer loop
      vertex -6 69 2
      vertex -10 46 2
      vertex -6 46 2
    endloop
  endfacet
  facet normal -0 0 1
    outer loop
      vertex -21 66 2
      vertex -10 46 2
      vertex -14 69 2
    endloop
  endfacet
  facet normal -0 0 1
    outer loop
      vertex -14 69 2
      vertex -10 46 2
      vertex -6 69 2
    endloop
  endfacet
  facet normal 0 0 1
    outer loop
      vertex -6 30 2
      vertex -8 29 2
      vertex -6 29 2
    endloop
  endfacet
  facet normal -0 0 1
    outer loop
      vertex -10 30 2
      vertex -8 29 2
      vertex -6 30 2
    endloop
  endfacet
  facet normal 0 0 1
    outer loop
      vertex -10 30 2
      vertex -8 27 2
      vertex -8 29 2
    endloop
  endfacet
  facet normal 0 0 1
    outer loop
      vertex -21 66 2
      vertex -14 69 2
      vertex -15 75 2
    endloop
  endfacet
  facet normal 0 0 1
    outer loop
      vertex -10 30 2
      vertex -15 27 2
      vertex -8 27 2
    endloop
  endfacet
  facet normal -0 0 1
    outer loop
      vertex -38 66 2
      vertex -10 46 2
      vertex -21 66 2
    endloop
  endfacet
  facet normal -0 0 1
    outer loop
      vertex -21 90 2
      vertex -15 75 2
      vertex -15 90 2
    endloop
  endfacet
  facet normal 0 0 1
    outer loop
      vertex -10 46 2
      vertex -15 27 2
      vertex -10 30 2
    endloop
  endfacet
  facet normal 0 0 1
    outer loop
      vertex -10 46 2
      vertex -38 66 2
      vertex -15 27 2
    endloop
  endfacet
  facet normal 0 0 1
    outer loop
      vertex -15 75 2
      vertex -21 90 2
      vertex -21 66 2
    endloop
  endfacet
  facet normal 0 0 1
    outer loop
      vertex -15 27 2
      vertex -17 17 2
      vertex -15 17 2
    endloop
  endfacet
  facet normal 0 0 1
    outer loop
      vertex -15 27 2
      vertex -25 15 2
      vertex -17 17 2
    endloop
  endfacet
  facet normal 0 0 1
    outer loop
      vertex -17 17 2
      vertex -25 15 2
      vertex -17 15 2
    endloop
  endfacet
  facet normal 0 0 1
    outer loop
      vertex -25 15 2
      vertex -30 7 2
      vertex -25 7 2
    endloop
  endfacet
  facet normal 0 0 1
    outer loop
      vertex -15 27 2
      vertex -38 66 2
      vertex -25 15 2
    endloop
  endfacet
  facet normal 0 0 1
    outer loop
      vertex -45 8 2
      vertex -25 15 2
      vertex -38 66 2
    endloop
  endfacet
  facet normal 0 0 1
    outer loop
      vertex -25 15 2
      vertex -45 8 2
      vertex -30 7 2
    endloop
  endfacet
  facet normal 0 0 1
    outer loop
      vertex -45 0 2
      vertex -30 7 2
      vertex -45 8 2
    endloop
  endfacet
  facet normal 0 0 1
    outer loop
      vertex -30 7 2
      vertex -45 0 2
      vertex -30 0 2
    endloop
  endfacet
  facet normal 0 0 1
    outer loop
      vertex -48 8 2
      vertex -38 66 2
      vertex -48 69 2
    endloop
  endfacet
  facet normal 0 0 1
    outer loop
      vertex -38 66 2
      vertex -48 8 2
      vertex -45 8 2
    endloop
  endfacet
  facet normal -0 0 1
    outer loop
      vertex -5 90 2
      vertex -2.44921e-016 75 2
      vertex -2.44921e-016 90 2
    endloop
  endfacet
  facet normal 0 0 1
    outer loop
      vertex -2.44921e-016 75 2
      vertex -5 90 2
      vertex -5 75 2
    endloop
  endfacet
  facet normal 0 -1 0
    outer loop
      vertex -55 0 6
      vertex -45 0 2
      vertex -45 0 6
    endloop
  endfacet
  facet normal 0 -1 0
    outer loop
      vertex -25 0 -3.06152e-015
      vertex -30 0 2
      vertex -45 0 2
    endloop
  endfacet
  facet normal 0 -1 0
    outer loop
      vertex -30 0 2
      vertex -25 0 -3.06152e-015
      vertex -25 0 2
    endloop
  endfacet
  facet normal 0 -1 -0
    outer loop
      vertex -45 0 2
      vertex -55 0 -6.73533e-015
      vertex -25 0 -3.06152e-015
    endloop
  endfacet
  facet normal 0 -1 0
    outer loop
      vertex -55 0 -6.73533e-015
      vertex -45 0 2
      vertex -55 0 6
    endloop
  endfacet
  facet normal 0 -1 0
    outer loop
      vertex -30 0 2
      vertex -25 0 6
      vertex -30 0 6
    endloop
  endfacet
  facet normal 0 -1 -0
    outer loop
      vertex -25 0 6
      vertex -30 0 2
      vertex -25 0 2
    endloop
  endfacet
  facet normal 0 1 -0
    outer loop
      vertex -38 90 -4.6535e-015
      vertex -55 90 2
      vertex -38 90 2
    endloop
  endfacet
  facet normal 0 1 0
    outer loop
      vertex -55 90 2
      vertex -38 90 -4.6535e-015
      vertex -55 90 -6.73533e-015
    endloop
  endfacet
  facet normal 0 1 0
    outer loop
      vertex 0 90 0
      vertex -5 90 2
      vertex -2.44921e-016 90 2
    endloop
  endfacet
  facet normal 0 1 0
    outer loop
      vertex -5 90 2
      vertex 0 90 0
      vertex -5 90 -6.12303e-016
    endloop
  endfacet
  facet normal 0 1 -0
    outer loop
      vertex -15 90 -1.83691e-015
      vertex -21 90 2
      vertex -15 90 2
    endloop
  endfacet
  facet normal 0 1 0
    outer loop
      vertex -21 90 2
      vertex -15 90 -1.83691e-015
      vertex -21 90 -2.57167e-015
    endloop
  endfacet
  facet normal -1 0 0
    outer loop
      vertex -5 75 -6.12303e-016
      vertex -5 90 2
      vertex -5 90 -6.12303e-016
    endloop
  endfacet
  facet normal -1 -0 0
    outer loop
      vertex -5 90 2
      vertex -5 75 -6.12303e-016
      vertex -5 75 2
    endloop
  endfacet
  facet normal 1 -0 0
    outer loop
      vertex -15 75 2
      vertex -15 90 -1.83691e-015
      vertex -15 90 2
    endloop
  endfacet
  facet normal 1 0 0
    outer loop
      vertex -15 90 -1.83691e-015
      vertex -15 75 2
      vertex -15 75 -1.83691e-015
    endloop
  endfacet
  facet normal 0 1 -0
    outer loop
      vertex -5 75 -6.12303e-016
      vertex -14 75 2
      vertex -5 75 2
    endloop
  endfacet
  facet normal 0 1 0
    outer loop
      vertex -15 75 -1.83691e-015
      vertex -14 75 2
      vertex -5 75 -6.12303e-016
    endloop
  endfacet
  facet normal 0 1 0
    outer loop
      vertex -14 75 2
      vertex -15 75 -1.83691e-015
      vertex -15 75 2
    endloop
  endfacet
  facet normal -1 0 0
    outer loop
      vertex -21 66 -2.57167e-015
      vertex -21 90 2
      vertex -21 90 -2.57167e-015
    endloop
  endfacet
  facet normal -1 -0 0
    outer loop
      vertex -21 90 2
      vertex -21 66 -2.57167e-015
      vertex -21 66 2
    endloop
  endfacet
  facet normal 1 -0 0
    outer loop
      vertex -38 66 2
      vertex -38 90 -4.6535e-015
      vertex -38 90 2
    endloop
  endfacet
  facet normal 1 0 0
    outer loop
      vertex -38 90 -4.6535e-015
      vertex -38 66 2
      vertex -38 66 -4.6535e-015
    endloop
  endfacet
  facet normal 0 1 -0
    outer loop
      vertex -21 66 -2.57167e-015
      vertex -38 66 2
      vertex -21 66 2
    endloop
  endfacet
  facet normal 0 1 0
    outer loop
      vertex -38 66 2
      vertex -21 66 -2.57167e-015
      vertex -38 66 -4.6535e-015
    endloop
  endfacet
  facet normal 1 -0 0
    outer loop
      vertex -6 29 2
      vertex -6 30 -7.34764e-016
      vertex -6 30 2
    endloop
  endfacet
  facet normal 1 0 0
    outer loop
      vertex -6 27 -7.34764e-016
      vertex -6 29 2
      vertex -6 27 2
    endloop
  endfacet
  facet normal 1 0 0
    outer loop
      vertex -6 29 2
      vertex -6 27 -7.34764e-016
      vertex -6 30 -7.34764e-016
    endloop
  endfacet
  facet normal 1 -0 0
    outer loop
      vertex -6 46 2
      vertex -6 69 -7.34764e-016
      vertex -6 69 2
    endloop
  endfacet
  facet normal 1 0 0
    outer loop
      vertex -6 69 -7.34764e-016
      vertex -6 46 2
      vertex -6 46 -7.34764e-016
    endloop
  endfacet
  facet normal 0 -1 0
    outer loop
      vertex -6 69 2
      vertex 0 69 0
      vertex -2.44921e-016 69 2
    endloop
  endfacet
  facet normal -0 -1 0
    outer loop
      vertex 0 69 0
      vertex -6 69 2
      vertex -6 69 -7.34764e-016
    endloop
  endfacet
  facet normal -1 0 0
    outer loop
      vertex -48 8 -5.87811e-015
      vertex -48 69 2
      vertex -48 69 -5.87811e-015
    endloop
  endfacet
  facet normal -1 -0 0
    outer loop
      vertex -48 69 2
      vertex -48 8 -5.87811e-015
      vertex -48 8 2
    endloop
  endfacet
  facet normal 0 1 -0
    outer loop
      vertex -48 8 -5.87811e-015
      vertex -55 8 2
      vertex -48 8 2
    endloop
  endfacet
  facet normal 0 1 0
    outer loop
      vertex -55 8 2
      vertex -48 8 -5.87811e-015
      vertex -55 8 -6.73533e-015
    endloop
  endfacet
  facet normal 0 -1 0
    outer loop
      vertex -55 69 2
      vertex -48 69 -5.87811e-015
      vertex -48 69 2
    endloop
  endfacet
  facet normal -0 -1 0
    outer loop
      vertex -48 69 -5.87811e-015
      vertex -55 69 2
      vertex -55 69 -6.73533e-015
    endloop
  endfacet
  facet normal 1 -0 0
    outer loop
      vertex -25 7 2
      vertex -25 15 -3.06152e-015
      vertex -25 15 2
    endloop
  endfacet
  facet normal 1 0 0
    outer loop
      vertex -25 0 -3.06152e-015
      vertex -25 7 2
      vertex -25 0 2
    endloop
  endfacet
  facet normal 1 0 0
    outer loop
      vertex -25 7 2
      vertex -25 0 -3.06152e-015
      vertex -25 15 -3.06152e-015
    endloop
  endfacet
  facet normal 0 -1 0
    outer loop
      vertex -25 15 -3.06152e-015
      vertex -17 15 2
      vertex -25 15 2
    endloop
  endfacet
  facet normal 0 -1 0
    outer loop
      vertex -17 15 2
      vertex -15 15 -1.83691e-015
      vertex -15 15 2
    endloop
  endfacet
  facet normal 0 -1 -0
    outer loop
      vertex -17 15 2
      vertex -25 15 -3.06152e-015
      vertex -15 15 -1.83691e-015
    endloop
  endfacet
  facet normal 1 -0 0
    outer loop
      vertex -10 30 2
      vertex -10 46 -1.22461e-015
      vertex -10 46 2
    endloop
  endfacet
  facet normal 1 0 0
    outer loop
      vertex -10 46 -1.22461e-015
      vertex -10 30 2
      vertex -10 30 -1.22461e-015
    endloop
  endfacet
  facet normal 0 1 -0
    outer loop
      vertex -6 30 -7.34764e-016
      vertex -10 30 2
      vertex -6 30 2
    endloop
  endfacet
  facet normal 0 1 0
    outer loop
      vertex -10 30 2
      vertex -6 30 -7.34764e-016
      vertex -10 30 -1.22461e-015
    endloop
  endfacet
  facet normal 0 -1 0
    outer loop
      vertex -10 46 2
      vertex -6 46 -7.34764e-016
      vertex -6 46 2
    endloop
  endfacet
  facet normal -0 -1 0
    outer loop
      vertex -6 46 -7.34764e-016
      vertex -10 46 2
      vertex -10 46 -1.22461e-015
    endloop
  endfacet
  facet normal 1 -0 0
    outer loop
      vertex -15 17 2
      vertex -15 27 -1.83691e-015
      vertex -15 27 2
    endloop
  endfacet
  facet normal 1 0 0
    outer loop
      vertex -15 15 -1.83691e-015
      vertex -15 17 2
      vertex -15 15 2
    endloop
  endfacet
  facet normal 1 0 0
    outer loop
      vertex -15 17 2
      vertex -15 15 -1.83691e-015
      vertex -15 27 -1.83691e-015
    endloop
  endfacet
  facet normal 0 -1 0
    outer loop
      vertex -15 27 -1.83691e-015
      vertex -8 27 2
      vertex -15 27 2
    endloop
  endfacet
  facet normal 0 -1 0
    outer loop
      vertex -8 27 2
      vertex -6 27 -7.34764e-016
      vertex -6 27 2
    endloop
  endfacet
  facet normal 0 -1 -0
    outer loop
      vertex -8 27 2
      vertex -15 27 -1.83691e-015
      vertex -6 27 -7.34764e-016
    endloop
  endfacet
  facet normal 1 -0 0
    outer loop
      vertex -45 0 6
      vertex -45 8 2
      vertex -45 8 6
    endloop
  endfacet
  facet normal 1 0 0
    outer loop
      vertex -45 8 2
      vertex -45 0 6
      vertex -45 0 2
    endloop
  endfacet
  facet normal 0 1 0
    outer loop
      vertex -48 8 2
      vertex -45 8 6
      vertex -45 8 2
    endloop
  endfacet
  facet normal 0 1 0
    outer loop
      vertex -45 8 6
      vertex -48 8 2
      vertex -55 8 6
    endloop
  endfacet
  facet normal 0 1 0
    outer loop
      vertex -55 8 6
      vertex -48 8 2
      vertex -55 8 2
    endloop
  endfacet
  facet normal 0 0 1
    outer loop
      vertex -48 5 6
      vertex -45 8 6
      vertex -48 6.6 6
    endloop
  endfacet
  facet normal 0 0 1
    outer loop
      vertex -45 8 6
      vertex -49.6 6.6 6
      vertex -48 6.6 6
    endloop
  endfacet
  facet normal 0 0 1
    outer loop
      vertex -49.6 6.6 6
      vertex -55 8 6
      vertex -49.6 5 6
    endloop
  endfacet
  facet normal -0 0 1
    outer loop
      vertex -55 8 6
      vertex -49.6 6.6 6
      vertex -45 8 6
    endloop
  endfacet
  facet normal 0 0 1
    outer loop
      vertex -45 8 6
      vertex -48 5 6
      vertex -45 0 6
    endloop
  endfacet
  facet normal -0 0 1
    outer loop
      vertex -49.6 5 6
      vertex -45 0 6
      vertex -48 5 6
    endloop
  endfacet
  facet normal 0 0 1
    outer loop
      vertex -55 0 6
      vertex -49.6 5 6
      vertex -55 8 6
    endloop
  endfacet
  facet normal 0 0 1
    outer loop
      vertex -49.6 5 6
      vertex -55 0 6
      vertex -45 0 6
    endloop
  endfacet
  facet normal 1 -0 0
    outer loop
      vertex -48 69 6
      vertex -48 76 2
      vertex -48 76 6
    endloop
  endfacet
  facet normal 1 0 0
    outer loop
      vertex -48 76 2
      vertex -48 69 6
      vertex -48 69 2
    endloop
  endfacet
  facet normal 0 0 1
    outer loop
      vertex -50 72 6
      vertex -48 76 6
      vertex -50 73.6 6
    endloop
  endfacet
  facet normal 0 0 1
    outer loop
      vertex -48 76 6
      vertex -51.6 73.6 6
      vertex -50 73.6 6
    endloop
  endfacet
  facet normal 0 0 1
    outer loop
      vertex -51.6 73.6 6
      vertex -55 76 6
      vertex -51.6 72 6
    endloop
  endfacet
  facet normal -0 0 1
    outer loop
      vertex -55 76 6
      vertex -51.6 73.6 6
      vertex -48 76 6
    endloop
  endfacet
  facet normal 0 0 1
    outer loop
      vertex -48 76 6
      vertex -50 72 6
      vertex -48 69 6
    endloop
  endfacet
  facet normal -0 0 1
    outer loop
      vertex -51.6 72 6
      vertex -48 69 6
      vertex -50 72 6
    endloop
  endfacet
  facet normal 0 0 1
    outer loop
      vertex -51.6 72 6
      vertex -55 69 6
      vertex -48 69 6
    endloop
  endfacet
  facet normal 0 0 1
    outer loop
      vertex -55 69 6
      vertex -51.6 72 6
      vertex -55 76 6
    endloop
  endfacet
  facet normal 0 -1 0
    outer loop
      vertex -55 69 2
      vertex -48 69 6
      vertex -55 69 6
    endloop
  endfacet
  facet normal 0 -1 -0
    outer loop
      vertex -48 69 6
      vertex -55 69 2
      vertex -48 69 2
    endloop
  endfacet
  facet normal 0 1 -0
    outer loop
      vertex -48 76 2
      vertex -55 76 6
      vertex -48 76 6
    endloop
  endfacet
  facet normal 0 1 0
    outer loop
      vertex -55 76 6
      vertex -48 76 2
      vertex -55 76 2
    endloop
  endfacet
  facet normal -1 0 0
    outer loop
      vertex -14 69 2
      vertex -14 75 6
      vertex -14 75 2
    endloop
  endfacet
  facet normal -1 -0 0
    outer loop
      vertex -14 75 6
      vertex -14 69 2
      vertex -14 69 6
    endloop
  endfacet
  facet normal 0 1 0
    outer loop
      vertex -5 75 2
      vertex -7.34764e-016 75 6
      vertex -2.44921e-016 75 2
    endloop
  endfacet
  facet normal 0 1 0
    outer loop
      vertex -7.34764e-016 75 6
      vertex -5 75 2
      vertex -14 75 6
    endloop
  endfacet
  facet normal 0 1 0
    outer loop
      vertex -14 75 6
      vertex -5 75 2
      vertex -14 75 2
    endloop
  endfacet
  facet normal -0 0 1
    outer loop
      vertex -14 75 6
      vertex -7.34764e-016 69 6
      vertex -7.34764e-016 75 6
    endloop
  endfacet
  facet normal 0 0 1
    outer loop
      vertex -7.34764e-016 69 6
      vertex -14 75 6
      vertex -14 69 6
    endloop
  endfacet
  facet normal 0 -1 0
    outer loop
      vertex -6 69 2
      vertex -14 69 6
      vertex -14 69 2
    endloop
  endfacet
  facet normal 0 -1 0
    outer loop
      vertex -14 69 6
      vertex -6 69 2
      vertex -7.34764e-016 69 6
    endloop
  endfacet
  facet normal 0 -1 -0
    outer loop
      vertex -7.34764e-016 69 6
      vertex -6 69 2
      vertex -2.44921e-016 69 2
    endloop
  endfacet
  facet normal 1 -0 0
    outer loop
      vertex -25 0 6
      vertex -25 7 2
      vertex -25 7 6
    endloop
  endfacet
  facet normal 1 0 0
    outer loop
      vertex -25 7 2
      vertex -25 0 6
      vertex -25 0 2
    endloop
  endfacet
  facet normal -1 0 0
    outer loop
      vertex -30 0 2
      vertex -30 7 6
      vertex -30 7 2
    endloop
  endfacet
  facet normal -1 -0 0
    outer loop
      vertex -30 7 6
      vertex -30 0 2
      vertex -30 0 6
    endloop
  endfacet
  facet normal 0 1 -0
    outer loop
      vertex -25 7 2
      vertex -30 7 6
      vertex -25 7 6
    endloop
  endfacet
  facet normal 0 1 0
    outer loop
      vertex -30 7 6
      vertex -25 7 2
      vertex -30 7 2
    endloop
  endfacet
  facet normal -0 0 1
    outer loop
      vertex -30 7 6
      vertex -25 0 6
      vertex -25 7 6
    endloop
  endfacet
  facet normal 0 0 1
    outer loop
      vertex -25 0 6
      vertex -30 7 6
      vertex -30 0 6
    endloop
  endfacet
  facet normal 1 -0 0
    outer loop
      vertex -15 15 6
      vertex -15 17 2
      vertex -15 17 6
    endloop
  endfacet
  facet normal 1 0 0
    outer loop
      vertex -15 17 2
      vertex -15 15 6
      vertex -15 15 2
    endloop
  endfacet
  facet normal -1 0 0
    outer loop
      vertex -17 15 2
      vertex -17 17 6
      vertex -17 17 2
    endloop
  endfacet
  facet normal -1 -0 0
    outer loop
      vertex -17 17 6
      vertex -17 15 2
      vertex -17 15 6
    endloop
  endfacet
  facet normal 0 1 -0
    outer loop
      vertex -15 17 2
      vertex -17 17 6
      vertex -15 17 6
    endloop
  endfacet
  facet normal 0 1 0
    outer loop
      vertex -17 17 6
      vertex -15 17 2
      vertex -17 17 2
    endloop
  endfacet
  facet normal -0 0 1
    outer loop
      vertex -17 17 6
      vertex -15 15 6
      vertex -15 17 6
    endloop
  endfacet
  facet normal 0 0 1
    outer loop
      vertex -15 15 6
      vertex -17 17 6
      vertex -17 15 6
    endloop
  endfacet
  facet normal 0 -1 0
    outer loop
      vertex -17 15 2
      vertex -15 15 6
      vertex -17 15 6
    endloop
  endfacet
  facet normal 0 -1 -0
    outer loop
      vertex -15 15 6
      vertex -17 15 2
      vertex -15 15 2
    endloop
  endfacet
  facet normal 1 -0 0
    outer loop
      vertex -6 27 6
      vertex -6 29 2
      vertex -6 29 6
    endloop
  endfacet
  facet normal 1 0 0
    outer loop
      vertex -6 29 2
      vertex -6 27 6
      vertex -6 27 2
    endloop
  endfacet
  facet normal -1 0 0
    outer loop
      vertex -8 27 2
      vertex -8 29 6
      vertex -8 29 2
    endloop
  endfacet
  facet normal -1 -0 0
    outer loop
      vertex -8 29 6
      vertex -8 27 2
      vertex -8 27 6
    endloop
  endfacet
  facet normal -0 0 1
    outer loop
      vertex -8 29 6
      vertex -6 27 6
      vertex -6 29 6
    endloop
  endfacet
  facet normal 0 0 1
    outer loop
      vertex -6 27 6
      vertex -8 29 6
      vertex -8 27 6
    endloop
  endfacet
  facet normal 0 -1 0
    outer loop
      vertex -8 27 2
      vertex -6 27 6
      vertex -8 27 6
    endloop
  endfacet
  facet normal 0 -1 -0
    outer loop
      vertex -6 27 6
      vertex -8 27 2
      vertex -6 27 2
    endloop
  endfacet
  facet normal 0 1 -0
    outer loop
      vertex -6 29 2
      vertex -8 29 6
      vertex -6 29 6
    endloop
  endfacet
  facet normal 0 1 0
    outer loop
      vertex -8 29 6
      vertex -6 29 2
      vertex -8 29 2
    endloop
  endfacet
  facet normal 1 -0 0
    outer loop
      vertex -48 5 8
      vertex -48 6.6 6
      vertex -48 6.6 8
    endloop
  endfacet
  facet normal 1 0 0
    outer loop
      vertex -48 6.6 6
      vertex -48 5 8
      vertex -48 5 6
    endloop
  endfacet
  facet normal -1 0 0
    outer loop
      vertex -49.6 5 6
      vertex -49.6 6.6 8
      vertex -49.6 6.6 6
    endloop
  endfacet
  facet normal -1 -0 0
    outer loop
      vertex -49.6 6.6 8
      vertex -49.6 5 6
      vertex -49.6 5 8
    endloop
  endfacet
  facet normal 0 1 -0
    outer loop
      vertex -48 6.6 6
      vertex -49.6 6.6 8
      vertex -48 6.6 8
    endloop
  endfacet
  facet normal 0 1 0
    outer loop
      vertex -49.6 6.6 8
      vertex -48 6.6 6
      vertex -49.6 6.6 6
    endloop
  endfacet
  facet normal -0 0 1
    outer loop
      vertex -49.6 6.6 8
      vertex -48 5 8
      vertex -48 6.6 8
    endloop
  endfacet
  facet normal 0 0 1
    outer loop
      vertex -48 5 8
      vertex -49.6 6.6 8
      vertex -49.6 5 8
    endloop
  endfacet
  facet normal 0 -1 0
    outer loop
      vertex -49.6 5 6
      vertex -48 5 8
      vertex -49.6 5 8
    endloop
  endfacet
  facet normal 0 -1 -0
    outer loop
      vertex -48 5 8
      vertex -49.6 5 6
      vertex -48 5 6
    endloop
  endfacet
  facet normal 1 -0 0
    outer loop
      vertex -50 72 8
      vertex -50 73.6 6
      vertex -50 73.6 8
    endloop
  endfacet
  facet normal 1 0 0
    outer loop
      vertex -50 73.6 6
      vertex -50 72 8
      vertex -50 72 6
    endloop
  endfacet
  facet normal -1 0 0
    outer loop
      vertex -51.6 72 6
      vertex -51.6 73.6 8
      vertex -51.6 73.6 6
    endloop
  endfacet
  facet normal -1 -0 0
    outer loop
      vertex -51.6 73.6 8
      vertex -51.6 72 6
      vertex -51.6 72 8
    endloop
  endfacet
  facet normal -0 0 1
    outer loop
      vertex -51.6 73.6 8
      vertex -50 72 8
      vertex -50 73.6 8
    endloop
  endfacet
  facet normal 0 0 1
    outer loop
      vertex -50 72 8
      vertex -51.6 73.6 8
      vertex -51.6 72 8
    endloop
  endfacet
  facet normal 0 -1 0
    outer loop
      vertex -51.6 72 6
      vertex -50 72 8
      vertex -51.6 72 8
    endloop
  endfacet
  facet normal 0 -1 -0
    outer loop
      vertex -50 72 8
      vertex -51.6 72 6
      vertex -50 72 6
    endloop
  endfacet
  facet normal 0 1 -0
    outer loop
      vertex -50 73.6 6
      vertex -51.6 73.6 8
      vertex -50 73.6 8
    endloop
  endfacet
  facet normal 0 1 0
    outer loop
      vertex -51.6 73.6 8
      vertex -50 73.6 6
      vertex -51.6 73.6 6
    endloop
  endfacet
endsolid OpenSCAD_Model
