solid OpenSCAD_Model
  facet normal -2.22045e-016 0 -1
    outer loop
      vertex 0 0 0
      vertex -3.3 15.9 7.32747e-016
      vertex 0 31.8 0
    endloop
  endfacet
  facet normal -2.22045e-016 0 -1
    outer loop
      vertex 0 0 0
      vertex -3.55349 13.4882 7.89033e-016
      vertex -3.3 15.9 7.32747e-016
    endloop
  endfacet
  facet normal -2.22045e-016 0 -1
    outer loop
      vertex 0 0 0
      vertex -4.30287 11.1819 9.5543e-016
      vertex -3.55349 13.4882 7.89033e-016
    endloop
  endfacet
  facet normal -2.22045e-016 0 -1
    outer loop
      vertex 0 0 0
      vertex -5.5154 9.08169 1.22467e-015
      vertex -4.30287 11.1819 9.5543e-016
    endloop
  endfacet
  facet normal -2.22045e-016 0 -1
    outer loop
      vertex 0 0 0
      vertex -7.13808 7.27952 1.58497e-015
      vertex -5.5154 9.08169 1.22467e-015
    endloop
  endfacet
  facet normal -2.22045e-016 0 -1
    outer loop
      vertex 0 0 0
      vertex -9.1 5.8541 2.02061e-015
      vertex -7.13808 7.27952 1.58497e-015
    endloop
  endfacet
  facet normal -2.22045e-016 0 -1
    outer loop
      vertex 0 0 0
      vertex -11.3154 4.86774 2.51252e-015
      vertex -9.1 5.8541 2.02061e-015
    endloop
  endfacet
  facet normal -2.22045e-016 0 -1
    outer loop
      vertex 0 0 0
      vertex -13.6875 4.36355 3.03923e-015
      vertex -11.3154 4.86774 2.51252e-015
    endloop
  endfacet
  facet normal -2.22045e-016 0 -1
    outer loop
      vertex -28.8 0 6.39488e-015
      vertex -13.6875 4.36355 3.03923e-015
      vertex 0 0 0
    endloop
  endfacet
  facet normal -2.22045e-016 0 -1
    outer loop
      vertex -13.6875 4.36355 3.03923e-015
      vertex -28.8 0 6.39488e-015
      vertex -16.1125 4.36355 3.5777e-015
    endloop
  endfacet
  facet normal -2.22045e-016 0 -1
    outer loop
      vertex -26.2465 13.4882 5.8279e-015
      vertex -28.8 0 6.39488e-015
      vertex -26.5 15.9 5.88418e-015
    endloop
  endfacet
  facet normal -2.22045e-016 0 -1
    outer loop
      vertex -25.4971 11.1819 5.6615e-015
      vertex -28.8 0 6.39488e-015
      vertex -26.2465 13.4882 5.8279e-015
    endloop
  endfacet
  facet normal -2.22045e-016 0 -1
    outer loop
      vertex -24.2846 9.08169 5.39226e-015
      vertex -28.8 0 6.39488e-015
      vertex -25.4971 11.1819 5.6615e-015
    endloop
  endfacet
  facet normal -2.22045e-016 0 -1
    outer loop
      vertex -22.6619 7.27952 5.03196e-015
      vertex -28.8 0 6.39488e-015
      vertex -24.2846 9.08169 5.39226e-015
    endloop
  endfacet
  facet normal -2.22045e-016 0 -1
    outer loop
      vertex -20.7 5.8541 4.59632e-015
      vertex -28.8 0 6.39488e-015
      vertex -22.6619 7.27952 5.03196e-015
    endloop
  endfacet
  facet normal -2.22045e-016 0 -1
    outer loop
      vertex -18.4846 4.86774 4.1044e-015
      vertex -28.8 0 6.39488e-015
      vertex -20.7 5.8541 4.59632e-015
    endloop
  endfacet
  facet normal -2.22045e-016 0 -1
    outer loop
      vertex -16.1125 4.36355 3.5777e-015
      vertex -28.8 0 6.39488e-015
      vertex -18.4846 4.86774 4.1044e-015
    endloop
  endfacet
  facet normal -2.22045e-016 0 -1
    outer loop
      vertex -3.55349 18.3118 7.89033e-016
      vertex 0 31.8 0
      vertex -3.3 15.9 7.32747e-016
    endloop
  endfacet
  facet normal -2.22045e-016 0 -1
    outer loop
      vertex -4.30287 20.6181 9.5543e-016
      vertex 0 31.8 0
      vertex -3.55349 18.3118 7.89033e-016
    endloop
  endfacet
  facet normal -2.22045e-016 0 -1
    outer loop
      vertex -5.5154 22.7183 1.22467e-015
      vertex 0 31.8 0
      vertex -4.30287 20.6181 9.5543e-016
    endloop
  endfacet
  facet normal -2.22045e-016 0 -1
    outer loop
      vertex -7.13808 24.5205 1.58497e-015
      vertex 0 31.8 0
      vertex -5.5154 22.7183 1.22467e-015
    endloop
  endfacet
  facet normal -2.22045e-016 0 -1
    outer loop
      vertex -9.1 25.9459 2.02061e-015
      vertex 0 31.8 0
      vertex -7.13808 24.5205 1.58497e-015
    endloop
  endfacet
  facet normal -2.22045e-016 0 -1
    outer loop
      vertex -11.3154 26.9323 2.51252e-015
      vertex 0 31.8 0
      vertex -9.1 25.9459 2.02061e-015
    endloop
  endfacet
  facet normal -2.22045e-016 0 -1
    outer loop
      vertex -13.6875 27.4365 3.03923e-015
      vertex 0 31.8 0
      vertex -11.3154 26.9323 2.51252e-015
    endloop
  endfacet
  facet normal -2.22045e-016 0 -1
    outer loop
      vertex -28.8 31.8 6.39488e-015
      vertex -13.6875 27.4365 3.03923e-015
      vertex -16.1125 27.4365 3.5777e-015
    endloop
  endfacet
  facet normal -2.22045e-016 0 -1
    outer loop
      vertex -28.8 31.8 6.39488e-015
      vertex -16.1125 27.4365 3.5777e-015
      vertex -18.4846 26.9323 4.1044e-015
    endloop
  endfacet
  facet normal -2.22045e-016 -0 -1
    outer loop
      vertex -28.8 31.8 6.39488e-015
      vertex -26.5 15.9 5.88418e-015
      vertex -28.8 0 6.39488e-015
    endloop
  endfacet
  facet normal -2.22045e-016 0 -1
    outer loop
      vertex -13.6875 27.4365 3.03923e-015
      vertex -28.8 31.8 6.39488e-015
      vertex 0 31.8 0
    endloop
  endfacet
  facet normal -2.22045e-016 0 -1
    outer loop
      vertex -20.7 25.9459 4.59632e-015
      vertex -28.8 31.8 6.39488e-015
      vertex -18.4846 26.9323 4.1044e-015
    endloop
  endfacet
  facet normal -2.22045e-016 0 -1
    outer loop
      vertex -22.6619 24.5205 5.03196e-015
      vertex -28.8 31.8 6.39488e-015
      vertex -20.7 25.9459 4.59632e-015
    endloop
  endfacet
  facet normal -2.22045e-016 0 -1
    outer loop
      vertex -24.2846 22.7183 5.39226e-015
      vertex -28.8 31.8 6.39488e-015
      vertex -22.6619 24.5205 5.03196e-015
    endloop
  endfacet
  facet normal -2.22045e-016 0 -1
    outer loop
      vertex -25.4971 20.6181 5.6615e-015
      vertex -28.8 31.8 6.39488e-015
      vertex -24.2846 22.7183 5.39226e-015
    endloop
  endfacet
  facet normal -2.22045e-016 0 -1
    outer loop
      vertex -26.2465 18.3118 5.8279e-015
      vertex -28.8 31.8 6.39488e-015
      vertex -25.4971 20.6181 5.6615e-015
    endloop
  endfacet
  facet normal -2.22045e-016 0 -1
    outer loop
      vertex -26.5 15.9 5.88418e-015
      vertex -28.8 31.8 6.39488e-015
      vertex -26.2465 18.3118 5.8279e-015
    endloop
  endfacet
  facet normal -1 0 0
    outer loop
      vertex -28.8 0 6.39488e-015
      vertex -28.8 31.8 7.8
      vertex -28.8 31.8 6.39488e-015
    endloop
  endfacet
  facet normal -1 -0 0
    outer loop
      vertex -28.8 31.8 7.8
      vertex -28.8 0 6.39488e-015
      vertex -28.8 0 7.8
    endloop
  endfacet
  facet normal 0 0 1
    outer loop
      vertex -26.5 4.5 7.8
      vertex -23.331 6.53638 7.8
      vertex -25.0936 8.49391 7.8
    endloop
  endfacet
  facet normal 0 0 1
    outer loop
      vertex -26.5 4.5 7.8
      vertex -25.0936 8.49391 7.8
      vertex -26.4107 10.7751 7.8
    endloop
  endfacet
  facet normal 0 0 1
    outer loop
      vertex -23.331 6.53638 7.8
      vertex -26.5 4.5 7.8
      vertex -23.9 4.5 7.8
    endloop
  endfacet
  facet normal 0 0 1
    outer loop
      vertex -26.4107 10.7751 7.8
      vertex -28.8 0 7.8
      vertex -26.5 4.5 7.8
    endloop
  endfacet
  facet normal 0 0 1
    outer loop
      vertex -28.8 0 7.8
      vertex -26.4107 10.7751 7.8
      vertex -27.2247 13.2803 7.8
    endloop
  endfacet
  facet normal 0 0 1
    outer loop
      vertex -21.2 26.8119 7.8
      vertex -24 27.4 7.8
      vertex -23.331 25.2636 7.8
    endloop
  endfacet
  facet normal -0 0 1
    outer loop
      vertex -26.4 27.4 7.8
      vertex -23.331 25.2636 7.8
      vertex -24 27.4 7.8
    endloop
  endfacet
  facet normal 0 0 1
    outer loop
      vertex -23.331 25.2636 7.8
      vertex -26.4 27.4 7.8
      vertex -25.0936 23.3061 7.8
    endloop
  endfacet
  facet normal 0 0 1
    outer loop
      vertex -25.0936 23.3061 7.8
      vertex -26.4 27.4 7.8
      vertex -26.4107 21.0249 7.8
    endloop
  endfacet
  facet normal 0 0 1
    outer loop
      vertex -2 6.3 7.8
      vertex -4.70639 8.49391 7.8
      vertex -4.5 4.4 7.8
    endloop
  endfacet
  facet normal -0 0 1
    outer loop
      vertex -6.46895 6.53638 7.8
      vertex -4.5 4.4 7.8
      vertex -4.70639 8.49391 7.8
    endloop
  endfacet
  facet normal 0 0 1
    outer loop
      vertex -6.46895 6.53638 7.8
      vertex -6.9 4.4 7.8
      vertex -4.5 4.4 7.8
    endloop
  endfacet
  facet normal 0 0 1
    outer loop
      vertex -6.9 4.4 7.8
      vertex -8.6 4.98808 7.8
      vertex -6.9 2 7.8
    endloop
  endfacet
  facet normal -0 0 1
    outer loop
      vertex -8.6 4.98808 7.8
      vertex -6.9 4.4 7.8
      vertex -6.46895 6.53638 7.8
    endloop
  endfacet
  facet normal 0 0 1
    outer loop
      vertex 1.73195e-015 31.8 7.8
      vertex -2 30.3 7.8
      vertex 1.73195e-015 30.3 7.8
    endloop
  endfacet
  facet normal -0 0 1
    outer loop
      vertex -4.4 27.3 7.8
      vertex -2 25.5 7.8
      vertex -2 30.3 7.8
    endloop
  endfacet
  facet normal 0 0 1
    outer loop
      vertex -4.70639 23.3061 7.8
      vertex -2 25.5 7.8
      vertex -4.4 27.3 7.8
    endloop
  endfacet
  facet normal 0 -0 1
    outer loop
      vertex -2.57534 18.5197 7.8
      vertex -2 22.3 7.8
      vertex -3.38933 21.0249 7.8
    endloop
  endfacet
  facet normal 0 -0 1
    outer loop
      vertex -2.3 15.9 7.8
      vertex -2 17.5 7.8
      vertex -2.57534 18.5197 7.8
    endloop
  endfacet
  facet normal 0 0 1
    outer loop
      vertex -2.57534 13.2803 7.8
      vertex -2 14.3 7.8
      vertex -2.3 15.9 7.8
    endloop
  endfacet
  facet normal 0 0 1
    outer loop
      vertex -2 14.3 7.8
      vertex -2.57534 13.2803 7.8
      vertex -2 9.5 7.8
    endloop
  endfacet
  facet normal -0 0 1
    outer loop
      vertex -3.38933 10.7751 7.8
      vertex -2 9.5 7.8
      vertex -2.57534 13.2803 7.8
    endloop
  endfacet
  facet normal 0 0 1
    outer loop
      vertex -2 17.5 7.8
      vertex -2.3 15.9 7.8
      vertex -2 14.3 7.8
    endloop
  endfacet
  facet normal 0 0 1
    outer loop
      vertex -2 22.3 7.8
      vertex -2.57534 18.5197 7.8
      vertex -2 17.5 7.8
    endloop
  endfacet
  facet normal 0 0 1
    outer loop
      vertex -4.4 27.3 7.8
      vertex -2 30.3 7.8
      vertex -4.4 29.9 7.8
    endloop
  endfacet
  facet normal 0 0 1
    outer loop
      vertex 1.73195e-015 31.8 7.8
      vertex -4.4 29.9 7.8
      vertex -2 30.3 7.8
    endloop
  endfacet
  facet normal 0 0 1
    outer loop
      vertex 1.73195e-015 31.8 7.8
      vertex -7 29.9 7.8
      vertex -4.4 29.9 7.8
    endloop
  endfacet
  facet normal 0 0 1
    outer loop
      vertex -7 29.9 7.8
      vertex -8.6 26.8119 7.8
      vertex -7 27.3 7.8
    endloop
  endfacet
  facet normal 0 0 1
    outer loop
      vertex -7 29.9 7.8
      vertex -11.0064 27.8833 7.8
      vertex -8.6 26.8119 7.8
    endloop
  endfacet
  facet normal 0 0 1
    outer loop
      vertex -7 29.9 7.8
      vertex -13.5829 28.431 7.8
      vertex -11.0064 27.8833 7.8
    endloop
  endfacet
  facet normal -0 0 1
    outer loop
      vertex -28.8 31.8 7.8
      vertex -7 29.9 7.8
      vertex 1.73195e-015 31.8 7.8
    endloop
  endfacet
  facet normal 0 -0 1
    outer loop
      vertex -24 29.8 7.8
      vertex -7 29.9 7.8
      vertex -28.8 31.8 7.8
    endloop
  endfacet
  facet normal -0 0 1
    outer loop
      vertex -24 27.4 7.8
      vertex -21.2 26.8119 7.8
      vertex -24 29.8 7.8
    endloop
  endfacet
  facet normal 0 0 1
    outer loop
      vertex -18.7936 27.8833 7.8
      vertex -24 29.8 7.8
      vertex -21.2 26.8119 7.8
    endloop
  endfacet
  facet normal 0 0 1
    outer loop
      vertex -16.2171 28.431 7.8
      vertex -24 29.8 7.8
      vertex -18.7936 27.8833 7.8
    endloop
  endfacet
  facet normal 0 0 1
    outer loop
      vertex -7 29.9 7.8
      vertex -16.2171 28.431 7.8
      vertex -13.5829 28.431 7.8
    endloop
  endfacet
  facet normal 0 0 1
    outer loop
      vertex -7 29.9 7.8
      vertex -24 29.8 7.8
      vertex -16.2171 28.431 7.8
    endloop
  endfacet
  facet normal 0 0 1
    outer loop
      vertex -28.8 31.8 7.8
      vertex -26.4 27.4 7.8
      vertex -26.4 29.8 7.8
    endloop
  endfacet
  facet normal 0 0 1
    outer loop
      vertex -26.4 27.4 7.8
      vertex -28.8 31.8 7.8
      vertex -26.4107 21.0249 7.8
    endloop
  endfacet
  facet normal 0 0 1
    outer loop
      vertex -26.4107 21.0249 7.8
      vertex -28.8 31.8 7.8
      vertex -27.2247 18.5197 7.8
    endloop
  endfacet
  facet normal 0 0 1
    outer loop
      vertex -27.2247 18.5197 7.8
      vertex -28.8 31.8 7.8
      vertex -27.5 15.9 7.8
    endloop
  endfacet
  facet normal 0 0 1
    outer loop
      vertex -24 29.8 7.8
      vertex -28.8 31.8 7.8
      vertex -26.4 29.8 7.8
    endloop
  endfacet
  facet normal -0 0 1
    outer loop
      vertex -2 25.5 7.8
      vertex 1.73195e-015 22.3 7.8
      vertex 1.73195e-015 25.5 7.8
    endloop
  endfacet
  facet normal 0 0 1
    outer loop
      vertex 1.73195e-015 22.3 7.8
      vertex -2 25.5 7.8
      vertex -2 22.3 7.8
    endloop
  endfacet
  facet normal -0 0 1
    outer loop
      vertex -2 17.5 7.8
      vertex 1.73195e-015 14.3 7.8
      vertex 1.73195e-015 17.5 7.8
    endloop
  endfacet
  facet normal 0 0 1
    outer loop
      vertex 1.73195e-015 14.3 7.8
      vertex -2 17.5 7.8
      vertex -2 14.3 7.8
    endloop
  endfacet
  facet normal -0 0 1
    outer loop
      vertex -2 9.5 7.8
      vertex 1.73195e-015 6.3 7.8
      vertex 1.73195e-015 9.5 7.8
    endloop
  endfacet
  facet normal 0 0 1
    outer loop
      vertex 1.73195e-015 6.3 7.8
      vertex -2 9.5 7.8
      vertex -2 6.3 7.8
    endloop
  endfacet
  facet normal -0 0 1
    outer loop
      vertex -2 1.5 7.8
      vertex 1.73195e-015 0 7.8
      vertex 1.73195e-015 1.5 7.8
    endloop
  endfacet
  facet normal 0 0 1
    outer loop
      vertex -4.70639 8.49391 7.8
      vertex -2 9.5 7.8
      vertex -3.38933 10.7751 7.8
    endloop
  endfacet
  facet normal 0 0 1
    outer loop
      vertex -2 9.5 7.8
      vertex -4.70639 8.49391 7.8
      vertex -2 6.3 7.8
    endloop
  endfacet
  facet normal 0 0 1
    outer loop
      vertex -2 6.3 7.8
      vertex -4.5 4.4 7.8
      vertex -2 1.5 7.8
    endloop
  endfacet
  facet normal -0 0 1
    outer loop
      vertex -4.5 2 7.8
      vertex -2 1.5 7.8
      vertex -4.5 4.4 7.8
    endloop
  endfacet
  facet normal 0 0 1
    outer loop
      vertex -4.5 2 7.8
      vertex 1.73195e-015 0 7.8
      vertex -2 1.5 7.8
    endloop
  endfacet
  facet normal -0 0 1
    outer loop
      vertex -6.9 2 7.8
      vertex 1.73195e-015 0 7.8
      vertex -4.5 2 7.8
    endloop
  endfacet
  facet normal -0 0 1
    outer loop
      vertex -11.0064 3.91669 7.8
      vertex -6.9 2 7.8
      vertex -8.6 4.98808 7.8
    endloop
  endfacet
  facet normal -0 0 1
    outer loop
      vertex -13.5829 3.36902 7.8
      vertex -6.9 2 7.8
      vertex -11.0064 3.91669 7.8
    endloop
  endfacet
  facet normal -0 0 1
    outer loop
      vertex -16.2171 3.36902 7.8
      vertex -6.9 2 7.8
      vertex -13.5829 3.36902 7.8
    endloop
  endfacet
  facet normal 0 0 1
    outer loop
      vertex -6.9 2 7.8
      vertex -16.2171 3.36902 7.8
      vertex -23.9 1.9 7.8
    endloop
  endfacet
  facet normal 0 0 1
    outer loop
      vertex -23.9 4.5 7.8
      vertex -21.2 4.98808 7.8
      vertex -23.331 6.53638 7.8
    endloop
  endfacet
  facet normal 0 0 1
    outer loop
      vertex -23.9 1.9 7.8
      vertex -21.2 4.98808 7.8
      vertex -23.9 4.5 7.8
    endloop
  endfacet
  facet normal 0 0 1
    outer loop
      vertex -21.2 4.98808 7.8
      vertex -23.9 1.9 7.8
      vertex -18.7936 3.91669 7.8
    endloop
  endfacet
  facet normal 0 0 1
    outer loop
      vertex -18.7936 3.91669 7.8
      vertex -23.9 1.9 7.8
      vertex -16.2171 3.36902 7.8
    endloop
  endfacet
  facet normal 0 0 1
    outer loop
      vertex -28.8 0 7.8
      vertex -6.9 2 7.8
      vertex -23.9 1.9 7.8
    endloop
  endfacet
  facet normal 0 0 1
    outer loop
      vertex -28.8 0 7.8
      vertex -23.9 1.9 7.8
      vertex -26.5 1.9 7.8
    endloop
  endfacet
  facet normal 0 0 1
    outer loop
      vertex -28.8 0 7.8
      vertex -27.2247 13.2803 7.8
      vertex -27.5 15.9 7.8
    endloop
  endfacet
  facet normal 0 0 1
    outer loop
      vertex -28.8 0 7.8
      vertex -27.5 15.9 7.8
      vertex -28.8 31.8 7.8
    endloop
  endfacet
  facet normal 0 0 1
    outer loop
      vertex -6.9 2 7.8
      vertex -28.8 0 7.8
      vertex 1.73195e-015 0 7.8
    endloop
  endfacet
  facet normal 0 0 1
    outer loop
      vertex -26.5 4.5 7.8
      vertex -28.8 0 7.8
      vertex -26.5 1.9 7.8
    endloop
  endfacet
  facet normal 0 0 1
    outer loop
      vertex -2 25.5 7.8
      vertex -4.70639 23.3061 7.8
      vertex -2 22.3 7.8
    endloop
  endfacet
  facet normal 0 0 1
    outer loop
      vertex -2 22.3 7.8
      vertex -4.70639 23.3061 7.8
      vertex -3.38933 21.0249 7.8
    endloop
  endfacet
  facet normal 0 0 1
    outer loop
      vertex -4.4 27.3 7.8
      vertex -6.46895 25.2636 7.8
      vertex -4.70639 23.3061 7.8
    endloop
  endfacet
  facet normal -0 0 1
    outer loop
      vertex -7 27.3 7.8
      vertex -6.46895 25.2636 7.8
      vertex -4.4 27.3 7.8
    endloop
  endfacet
  facet normal 0 0 1
    outer loop
      vertex -6.46895 25.2636 7.8
      vertex -7 27.3 7.8
      vertex -8.6 26.8119 7.8
    endloop
  endfacet
  facet normal 0 1 0
    outer loop
      vertex 1.73195e-015 31.8 7.8
      vertex -28.8 31.8 6.39488e-015
      vertex -28.8 31.8 7.8
    endloop
  endfacet
  facet normal -0 1 0
    outer loop
      vertex -28.8 31.8 6.39488e-015
      vertex 1.73195e-015 31.8 7.8
      vertex 0 31.8 0
    endloop
  endfacet
  facet normal 1 0 -2.22045e-016
    outer loop
      vertex 1.73195e-015 1.5 7.8
      vertex 1.73195e-015 0 7.8
      vertex 3.10862e-016 1.5 1.4
    endloop
  endfacet
  facet normal 1 0 -2.22045e-016
    outer loop
      vertex 1.73195e-015 9.5 7.8
      vertex 1.73195e-015 6.3 7.8
      vertex 3.10862e-016 9.5 1.4
    endloop
  endfacet
  facet normal 1 0 -2.22045e-016
    outer loop
      vertex 1.73195e-015 17.5 7.8
      vertex 1.73195e-015 14.3 7.8
      vertex 3.10862e-016 17.5 1.4
    endloop
  endfacet
  facet normal 1 0 -2.22045e-016
    outer loop
      vertex 1.73195e-015 25.5 7.8
      vertex 1.73195e-015 22.3 7.8
      vertex 3.10862e-016 25.5 1.4
    endloop
  endfacet
  facet normal 1 0 -2.22045e-016
    outer loop
      vertex 3.10862e-016 30.3 1.4
      vertex 1.73195e-015 31.8 7.8
      vertex 1.73195e-015 30.3 7.8
    endloop
  endfacet
  facet normal 1 0 -2.22045e-016
    outer loop
      vertex 1.73195e-015 31.8 7.8
      vertex 3.10862e-016 30.3 1.4
      vertex 0 31.8 0
    endloop
  endfacet
  facet normal 1 0 -2.22045e-016
    outer loop
      vertex 3.10862e-016 25.5 1.4
      vertex 0 31.8 0
      vertex 3.10862e-016 30.3 1.4
    endloop
  endfacet
  facet normal 1 0 -2.22045e-016
    outer loop
      vertex 3.10862e-016 22.3 1.4
      vertex 3.10862e-016 25.5 1.4
      vertex 1.73195e-015 22.3 7.8
    endloop
  endfacet
  facet normal 1 0 -2.22045e-016
    outer loop
      vertex 3.10862e-016 22.3 1.4
      vertex 0 31.8 0
      vertex 3.10862e-016 25.5 1.4
    endloop
  endfacet
  facet normal 1 0 -2.22045e-016
    outer loop
      vertex 3.10862e-016 17.5 1.4
      vertex 0 31.8 0
      vertex 3.10862e-016 22.3 1.4
    endloop
  endfacet
  facet normal 1 0 -2.22045e-016
    outer loop
      vertex 3.10862e-016 14.3 1.4
      vertex 3.10862e-016 17.5 1.4
      vertex 1.73195e-015 14.3 7.8
    endloop
  endfacet
  facet normal 1 0 -2.22045e-016
    outer loop
      vertex 3.10862e-016 14.3 1.4
      vertex 0 31.8 0
      vertex 3.10862e-016 17.5 1.4
    endloop
  endfacet
  facet normal 1 0 -2.22045e-016
    outer loop
      vertex 0 0 0
      vertex 3.10862e-016 14.3 1.4
      vertex 3.10862e-016 9.5 1.4
    endloop
  endfacet
  facet normal 1 0 -2.22045e-016
    outer loop
      vertex 3.10862e-016 6.3 1.4
      vertex 3.10862e-016 9.5 1.4
      vertex 1.73195e-015 6.3 7.8
    endloop
  endfacet
  facet normal 1 0 -2.22045e-016
    outer loop
      vertex 0 0 0
      vertex 3.10862e-016 9.5 1.4
      vertex 3.10862e-016 6.3 1.4
    endloop
  endfacet
  facet normal 1 0 -2.22045e-016
    outer loop
      vertex 0 0 0
      vertex 3.10862e-016 6.3 1.4
      vertex 3.10862e-016 1.5 1.4
    endloop
  endfacet
  facet normal 1 0 -2.22045e-016
    outer loop
      vertex 3.10862e-016 14.3 1.4
      vertex 0 0 0
      vertex 0 31.8 0
    endloop
  endfacet
  facet normal 1 0 -2.22045e-016
    outer loop
      vertex 0 0 0
      vertex 3.10862e-016 1.5 1.4
      vertex 1.73195e-015 0 7.8
    endloop
  endfacet
  facet normal 0 -1 0
    outer loop
      vertex -28.8 0 6.39488e-015
      vertex 1.73195e-015 0 7.8
      vertex -28.8 0 7.8
    endloop
  endfacet
  facet normal 0 -1 0
    outer loop
      vertex 1.73195e-015 0 7.8
      vertex -28.8 0 6.39488e-015
      vertex 0 0 0
    endloop
  endfacet
  facet normal -1 0 0
    outer loop
      vertex -26.4 27.4 7.8
      vertex -26.4 29.8 9.8
      vertex -26.4 29.8 7.8
    endloop
  endfacet
  facet normal -1 -0 0
    outer loop
      vertex -26.4 29.8 9.8
      vertex -26.4 27.4 7.8
      vertex -26.4 27.4 9.8
    endloop
  endfacet
  facet normal -0 0 1
    outer loop
      vertex -26.4 29.8 9.8
      vertex -24 27.4 9.8
      vertex -24 29.8 9.8
    endloop
  endfacet
  facet normal 0 0 1
    outer loop
      vertex -24 27.4 9.8
      vertex -26.4 29.8 9.8
      vertex -26.4 27.4 9.8
    endloop
  endfacet
  facet normal 1 -0 0
    outer loop
      vertex -24 27.4 9.8
      vertex -24 29.8 7.8
      vertex -24 29.8 9.8
    endloop
  endfacet
  facet normal 1 0 0
    outer loop
      vertex -24 29.8 7.8
      vertex -24 27.4 9.8
      vertex -24 27.4 7.8
    endloop
  endfacet
  facet normal 0 -1 0
    outer loop
      vertex -26.4 27.4 7.8
      vertex -24 27.4 9.8
      vertex -26.4 27.4 9.8
    endloop
  endfacet
  facet normal 0 -1 -0
    outer loop
      vertex -24 27.4 9.8
      vertex -26.4 27.4 7.8
      vertex -24 27.4 7.8
    endloop
  endfacet
  facet normal 0 1 -0
    outer loop
      vertex -24 29.8 7.8
      vertex -26.4 29.8 9.8
      vertex -24 29.8 9.8
    endloop
  endfacet
  facet normal 0 1 0
    outer loop
      vertex -26.4 29.8 9.8
      vertex -24 29.8 7.8
      vertex -26.4 29.8 7.8
    endloop
  endfacet
  facet normal -1 0 0
    outer loop
      vertex -6.9 2 7.8
      vertex -6.9 4.4 9.8
      vertex -6.9 4.4 7.8
    endloop
  endfacet
  facet normal -1 -0 0
    outer loop
      vertex -6.9 4.4 9.8
      vertex -6.9 2 7.8
      vertex -6.9 2 9.8
    endloop
  endfacet
  facet normal -0 0 1
    outer loop
      vertex -6.9 4.4 9.8
      vertex -4.5 2 9.8
      vertex -4.5 4.4 9.8
    endloop
  endfacet
  facet normal 0 0 1
    outer loop
      vertex -4.5 2 9.8
      vertex -6.9 4.4 9.8
      vertex -6.9 2 9.8
    endloop
  endfacet
  facet normal 1 -0 0
    outer loop
      vertex -4.5 2 9.8
      vertex -4.5 4.4 7.8
      vertex -4.5 4.4 9.8
    endloop
  endfacet
  facet normal 1 0 0
    outer loop
      vertex -4.5 4.4 7.8
      vertex -4.5 2 9.8
      vertex -4.5 2 7.8
    endloop
  endfacet
  facet normal 0 -1 0
    outer loop
      vertex -6.9 2 7.8
      vertex -4.5 2 9.8
      vertex -6.9 2 9.8
    endloop
  endfacet
  facet normal 0 -1 -0
    outer loop
      vertex -4.5 2 9.8
      vertex -6.9 2 7.8
      vertex -4.5 2 7.8
    endloop
  endfacet
  facet normal 0 1 -0
    outer loop
      vertex -4.5 4.4 7.8
      vertex -6.9 4.4 9.8
      vertex -4.5 4.4 9.8
    endloop
  endfacet
  facet normal 0 1 0
    outer loop
      vertex -6.9 4.4 9.8
      vertex -4.5 4.4 7.8
      vertex -6.9 4.4 7.8
    endloop
  endfacet
  facet normal -0 0 1
    outer loop
      vertex -2 6.3 1.4
      vertex 3.10862e-016 1.5 1.4
      vertex 3.10862e-016 6.3 1.4
    endloop
  endfacet
  facet normal 0 0 1
    outer loop
      vertex 3.10862e-016 1.5 1.4
      vertex -2 6.3 1.4
      vertex -2 1.5 1.4
    endloop
  endfacet
  facet normal 1 -0 0
    outer loop
      vertex -2 1.5 7.8
      vertex -2 6.3 1.4
      vertex -2 6.3 7.8
    endloop
  endfacet
  facet normal 1 0 0
    outer loop
      vertex -2 6.3 1.4
      vertex -2 1.5 7.8
      vertex -2 1.5 1.4
    endloop
  endfacet
  facet normal 0 -1 0
    outer loop
      vertex -2 6.3 1.4
      vertex 1.73195e-015 6.3 7.8
      vertex -2 6.3 7.8
    endloop
  endfacet
  facet normal 0 -1 0
    outer loop
      vertex 1.73195e-015 6.3 7.8
      vertex -2 6.3 1.4
      vertex 3.10862e-016 6.3 1.4
    endloop
  endfacet
  facet normal 0 1 -0
    outer loop
      vertex 3.10862e-016 1.5 1.4
      vertex -2 1.5 7.8
      vertex 1.73195e-015 1.5 7.8
    endloop
  endfacet
  facet normal 0 1 0
    outer loop
      vertex -2 1.5 7.8
      vertex 3.10862e-016 1.5 1.4
      vertex -2 1.5 1.4
    endloop
  endfacet
  facet normal -0 0 1
    outer loop
      vertex -2 14.3 1.4
      vertex 3.10862e-016 9.5 1.4
      vertex 3.10862e-016 14.3 1.4
    endloop
  endfacet
  facet normal 0 0 1
    outer loop
      vertex 3.10862e-016 9.5 1.4
      vertex -2 14.3 1.4
      vertex -2 9.5 1.4
    endloop
  endfacet
  facet normal 1 -0 0
    outer loop
      vertex -2 9.5 7.8
      vertex -2 14.3 1.4
      vertex -2 14.3 7.8
    endloop
  endfacet
  facet normal 1 0 0
    outer loop
      vertex -2 14.3 1.4
      vertex -2 9.5 7.8
      vertex -2 9.5 1.4
    endloop
  endfacet
  facet normal 0 -1 0
    outer loop
      vertex -2 14.3 1.4
      vertex 1.73195e-015 14.3 7.8
      vertex -2 14.3 7.8
    endloop
  endfacet
  facet normal 0 -1 0
    outer loop
      vertex 1.73195e-015 14.3 7.8
      vertex -2 14.3 1.4
      vertex 3.10862e-016 14.3 1.4
    endloop
  endfacet
  facet normal 0 1 -0
    outer loop
      vertex 3.10862e-016 9.5 1.4
      vertex -2 9.5 7.8
      vertex 1.73195e-015 9.5 7.8
    endloop
  endfacet
  facet normal 0 1 0
    outer loop
      vertex -2 9.5 7.8
      vertex 3.10862e-016 9.5 1.4
      vertex -2 9.5 1.4
    endloop
  endfacet
  facet normal -0 0 1
    outer loop
      vertex -2 22.3 1.4
      vertex 3.10862e-016 17.5 1.4
      vertex 3.10862e-016 22.3 1.4
    endloop
  endfacet
  facet normal 0 0 1
    outer loop
      vertex 3.10862e-016 17.5 1.4
      vertex -2 22.3 1.4
      vertex -2 17.5 1.4
    endloop
  endfacet
  facet normal 1 -0 0
    outer loop
      vertex -2 17.5 7.8
      vertex -2 22.3 1.4
      vertex -2 22.3 7.8
    endloop
  endfacet
  facet normal 1 0 0
    outer loop
      vertex -2 22.3 1.4
      vertex -2 17.5 7.8
      vertex -2 17.5 1.4
    endloop
  endfacet
  facet normal 0 1 -0
    outer loop
      vertex 3.10862e-016 17.5 1.4
      vertex -2 17.5 7.8
      vertex 1.73195e-015 17.5 7.8
    endloop
  endfacet
  facet normal 0 1 0
    outer loop
      vertex -2 17.5 7.8
      vertex 3.10862e-016 17.5 1.4
      vertex -2 17.5 1.4
    endloop
  endfacet
  facet normal 0 -1 0
    outer loop
      vertex -2 22.3 1.4
      vertex 1.73195e-015 22.3 7.8
      vertex -2 22.3 7.8
    endloop
  endfacet
  facet normal 0 -1 0
    outer loop
      vertex 1.73195e-015 22.3 7.8
      vertex -2 22.3 1.4
      vertex 3.10862e-016 22.3 1.4
    endloop
  endfacet
  facet normal -0 0 1
    outer loop
      vertex -2 30.3 1.4
      vertex 3.10862e-016 25.5 1.4
      vertex 3.10862e-016 30.3 1.4
    endloop
  endfacet
  facet normal 0 0 1
    outer loop
      vertex 3.10862e-016 25.5 1.4
      vertex -2 30.3 1.4
      vertex -2 25.5 1.4
    endloop
  endfacet
  facet normal 1 -0 0
    outer loop
      vertex -2 25.5 7.8
      vertex -2 30.3 1.4
      vertex -2 30.3 7.8
    endloop
  endfacet
  facet normal 1 0 0
    outer loop
      vertex -2 30.3 1.4
      vertex -2 25.5 7.8
      vertex -2 25.5 1.4
    endloop
  endfacet
  facet normal 0 1 -0
    outer loop
      vertex 3.10862e-016 25.5 1.4
      vertex -2 25.5 7.8
      vertex 1.73195e-015 25.5 7.8
    endloop
  endfacet
  facet normal 0 1 0
    outer loop
      vertex -2 25.5 7.8
      vertex 3.10862e-016 25.5 1.4
      vertex -2 25.5 1.4
    endloop
  endfacet
  facet normal 0 -1 0
    outer loop
      vertex -2 30.3 1.4
      vertex 1.73195e-015 30.3 7.8
      vertex -2 30.3 7.8
    endloop
  endfacet
  facet normal 0 -1 0
    outer loop
      vertex 1.73195e-015 30.3 7.8
      vertex -2 30.3 1.4
      vertex 3.10862e-016 30.3 1.4
    endloop
  endfacet
  facet normal -0 0 1
    outer loop
      vertex -7 29.9 5.7
      vertex -4.4 27.3 5.7
      vertex -4.4 29.9 5.7
    endloop
  endfacet
  facet normal 0 0 1
    outer loop
      vertex -4.4 27.3 5.7
      vertex -7 29.9 5.7
      vertex -7 27.3 5.7
    endloop
  endfacet
  facet normal 1 -0 0
    outer loop
      vertex -7 27.3 7.8
      vertex -7 29.9 5.7
      vertex -7 29.9 7.8
    endloop
  endfacet
  facet normal 1 0 0
    outer loop
      vertex -7 29.9 5.7
      vertex -7 27.3 7.8
      vertex -7 27.3 5.7
    endloop
  endfacet
  facet normal 0 -1 0
    outer loop
      vertex -7 29.9 5.7
      vertex -4.4 29.9 7.8
      vertex -7 29.9 7.8
    endloop
  endfacet
  facet normal 0 -1 -0
    outer loop
      vertex -4.4 29.9 7.8
      vertex -7 29.9 5.7
      vertex -4.4 29.9 5.7
    endloop
  endfacet
  facet normal -1 0 0
    outer loop
      vertex -4.4 27.3 5.7
      vertex -4.4 29.9 7.8
      vertex -4.4 29.9 5.7
    endloop
  endfacet
  facet normal -1 -0 0
    outer loop
      vertex -4.4 29.9 7.8
      vertex -4.4 27.3 5.7
      vertex -4.4 27.3 7.8
    endloop
  endfacet
  facet normal 0 1 -0
    outer loop
      vertex -4.4 27.3 5.7
      vertex -7 27.3 7.8
      vertex -4.4 27.3 7.8
    endloop
  endfacet
  facet normal 0 1 0
    outer loop
      vertex -7 27.3 7.8
      vertex -4.4 27.3 5.7
      vertex -7 27.3 5.7
    endloop
  endfacet
  facet normal -0 0 1
    outer loop
      vertex -26.5 4.5 5.7
      vertex -23.9 1.9 5.7
      vertex -23.9 4.5 5.7
    endloop
  endfacet
  facet normal 0 0 1
    outer loop
      vertex -23.9 1.9 5.7
      vertex -26.5 4.5 5.7
      vertex -26.5 1.9 5.7
    endloop
  endfacet
  facet normal 1 -0 0
    outer loop
      vertex -26.5 1.9 7.8
      vertex -26.5 4.5 5.7
      vertex -26.5 4.5 7.8
    endloop
  endfacet
  facet normal 1 0 0
    outer loop
      vertex -26.5 4.5 5.7
      vertex -26.5 1.9 7.8
      vertex -26.5 1.9 5.7
    endloop
  endfacet
  facet normal 0 -1 0
    outer loop
      vertex -26.5 4.5 5.7
      vertex -23.9 4.5 7.8
      vertex -26.5 4.5 7.8
    endloop
  endfacet
  facet normal 0 -1 -0
    outer loop
      vertex -23.9 4.5 7.8
      vertex -26.5 4.5 5.7
      vertex -23.9 4.5 5.7
    endloop
  endfacet
  facet normal -1 0 0
    outer loop
      vertex -23.9 1.9 5.7
      vertex -23.9 4.5 7.8
      vertex -23.9 4.5 5.7
    endloop
  endfacet
  facet normal -1 -0 0
    outer loop
      vertex -23.9 4.5 7.8
      vertex -23.9 1.9 5.7
      vertex -23.9 1.9 7.8
    endloop
  endfacet
  facet normal 0 1 -0
    outer loop
      vertex -23.9 1.9 5.7
      vertex -26.5 1.9 7.8
      vertex -23.9 1.9 7.8
    endloop
  endfacet
  facet normal 0 1 0
    outer loop
      vertex -26.5 1.9 7.8
      vertex -23.9 1.9 5.7
      vertex -26.5 1.9 5.7
    endloop
  endfacet
  facet normal -0.994522 -0.104528 0
    outer loop
      vertex -2.3 15.9 6.65
      vertex -2.57534 18.5197 7.8
      vertex -2.57534 18.5197 6.65
    endloop
  endfacet
  facet normal -0.994522 -0.104528 0
    outer loop
      vertex -2.57534 18.5197 7.8
      vertex -2.3 15.9 6.65
      vertex -2.3 15.9 7.8
    endloop
  endfacet
  facet normal 0.994522 -0.104529 0
    outer loop
      vertex -27.5 15.9 7.8
      vertex -27.2247 18.5197 6.65
      vertex -27.2247 18.5197 7.8
    endloop
  endfacet
  facet normal 0.994522 -0.104529 0
    outer loop
      vertex -27.2247 18.5197 6.65
      vertex -27.5 15.9 7.8
      vertex -27.5 15.9 6.65
    endloop
  endfacet
  facet normal 0 1 -0
    outer loop
      vertex -13.5829 3.36902 6.65
      vertex -16.2171 3.36902 7.8
      vertex -13.5829 3.36902 7.8
    endloop
  endfacet
  facet normal 0 1 0
    outer loop
      vertex -16.2171 3.36902 7.8
      vertex -13.5829 3.36902 6.65
      vertex -16.2171 3.36902 6.65
    endloop
  endfacet
  facet normal -0.406737 -0.913545 0
    outer loop
      vertex -11.0064 27.8833 6.65
      vertex -8.6 26.8119 7.8
      vertex -11.0064 27.8833 7.8
    endloop
  endfacet
  facet normal -0.406737 -0.913545 -0
    outer loop
      vertex -8.6 26.8119 7.8
      vertex -11.0064 27.8833 6.65
      vertex -8.6 26.8119 6.65
    endloop
  endfacet
  facet normal 0.743145 -0.669131 0
    outer loop
      vertex -25.0936 23.3061 7.8
      vertex -23.331 25.2636 6.65
      vertex -23.331 25.2636 7.8
    endloop
  endfacet
  facet normal 0.743145 -0.669131 0
    outer loop
      vertex -23.331 25.2636 6.65
      vertex -25.0936 23.3061 7.8
      vertex -25.0936 23.3061 6.65
    endloop
  endfacet
  facet normal 0.866026 -0.5 0
    outer loop
      vertex -26.4107 21.0249 7.8
      vertex -25.0936 23.3061 6.65
      vertex -25.0936 23.3061 7.8
    endloop
  endfacet
  facet normal 0.866026 -0.5 0
    outer loop
      vertex -25.0936 23.3061 6.65
      vertex -26.4107 21.0249 7.8
      vertex -26.4107 21.0249 6.65
    endloop
  endfacet
  facet normal 0.406737 -0.913545 0
    outer loop
      vertex -21.2 26.8119 6.65
      vertex -18.7936 27.8833 7.8
      vertex -21.2 26.8119 7.8
    endloop
  endfacet
  facet normal 0.406737 -0.913545 0
    outer loop
      vertex -18.7936 27.8833 7.8
      vertex -21.2 26.8119 6.65
      vertex -18.7936 27.8833 6.65
    endloop
  endfacet
  facet normal -0.951056 -0.309017 0
    outer loop
      vertex -2.57534 18.5197 6.65
      vertex -3.38933 21.0249 7.8
      vertex -3.38933 21.0249 6.65
    endloop
  endfacet
  facet normal -0.951056 -0.309017 0
    outer loop
      vertex -3.38933 21.0249 7.8
      vertex -2.57534 18.5197 6.65
      vertex -2.57534 18.5197 7.8
    endloop
  endfacet
  facet normal -0.743145 -0.669131 0
    outer loop
      vertex -4.70639 23.3061 6.65
      vertex -6.46895 25.2636 7.8
      vertex -6.46895 25.2636 6.65
    endloop
  endfacet
  facet normal -0.743145 -0.669131 0
    outer loop
      vertex -6.46895 25.2636 7.8
      vertex -4.70639 23.3061 6.65
      vertex -4.70639 23.3061 7.8
    endloop
  endfacet
  facet normal -0.207911 -0.978148 0
    outer loop
      vertex -13.5829 28.431 6.65
      vertex -11.0064 27.8833 7.8
      vertex -13.5829 28.431 7.8
    endloop
  endfacet
  facet normal -0.207911 -0.978148 -0
    outer loop
      vertex -11.0064 27.8833 7.8
      vertex -13.5829 28.431 6.65
      vertex -11.0064 27.8833 6.65
    endloop
  endfacet
  facet normal 0.951056 -0.309017 0
    outer loop
      vertex -27.2247 18.5197 7.8
      vertex -26.4107 21.0249 6.65
      vertex -26.4107 21.0249 7.8
    endloop
  endfacet
  facet normal 0.951056 -0.309017 0
    outer loop
      vertex -26.4107 21.0249 6.65
      vertex -27.2247 18.5197 7.8
      vertex -27.2247 18.5197 6.65
    endloop
  endfacet
  facet normal 0.587785 -0.809017 0
    outer loop
      vertex -23.331 25.2636 6.65
      vertex -21.2 26.8119 7.8
      vertex -23.331 25.2636 7.8
    endloop
  endfacet
  facet normal 0.587785 -0.809017 0
    outer loop
      vertex -21.2 26.8119 7.8
      vertex -23.331 25.2636 6.65
      vertex -21.2 26.8119 6.65
    endloop
  endfacet
  facet normal 0.207911 -0.978148 0
    outer loop
      vertex -18.7936 27.8833 6.65
      vertex -16.2171 28.431 7.8
      vertex -18.7936 27.8833 7.8
    endloop
  endfacet
  facet normal 0.207911 -0.978148 0
    outer loop
      vertex -16.2171 28.431 7.8
      vertex -18.7936 27.8833 6.65
      vertex -16.2171 28.431 6.65
    endloop
  endfacet
  facet normal -0.994522 0.104528 0
    outer loop
      vertex -2.57534 13.2803 6.65
      vertex -2.3 15.9 7.8
      vertex -2.3 15.9 6.65
    endloop
  endfacet
  facet normal -0.994522 0.104528 0
    outer loop
      vertex -2.3 15.9 7.8
      vertex -2.57534 13.2803 6.65
      vertex -2.57534 13.2803 7.8
    endloop
  endfacet
  facet normal 0.866025 0.5 0
    outer loop
      vertex -25.0936 8.49391 7.8
      vertex -26.4107 10.7751 6.65
      vertex -26.4107 10.7751 7.8
    endloop
  endfacet
  facet normal 0.866025 0.5 0
    outer loop
      vertex -26.4107 10.7751 6.65
      vertex -25.0936 8.49391 7.8
      vertex -25.0936 8.49391 6.65
    endloop
  endfacet
  facet normal -0.207912 0.978148 0
    outer loop
      vertex -11.0064 3.91669 6.65
      vertex -13.5829 3.36902 7.8
      vertex -11.0064 3.91669 7.8
    endloop
  endfacet
  facet normal -0.207912 0.978148 0
    outer loop
      vertex -13.5829 3.36902 7.8
      vertex -11.0064 3.91669 6.65
      vertex -13.5829 3.36902 6.65
    endloop
  endfacet
  facet normal 0 0 1
    outer loop
      vertex -3.3 15.9 6.65
      vertex -2.3 15.9 6.65
      vertex -2.57534 18.5197 6.65
    endloop
  endfacet
  facet normal 0 0 1
    outer loop
      vertex -2.3 15.9 6.65
      vertex -3.3 15.9 6.65
      vertex -2.57534 13.2803 6.65
    endloop
  endfacet
  facet normal 0 0 1
    outer loop
      vertex -3.55349 18.3118 6.65
      vertex -2.57534 18.5197 6.65
      vertex -3.38933 21.0249 6.65
    endloop
  endfacet
  facet normal 0 0 1
    outer loop
      vertex -2.57534 18.5197 6.65
      vertex -3.55349 18.3118 6.65
      vertex -3.3 15.9 6.65
    endloop
  endfacet
  facet normal 0 0 1
    outer loop
      vertex -3.38933 21.0249 6.65
      vertex -4.30287 20.6181 6.65
      vertex -3.55349 18.3118 6.65
    endloop
  endfacet
  facet normal 0 0 1
    outer loop
      vertex -4.70639 23.3061 6.65
      vertex -4.30287 20.6181 6.65
      vertex -3.38933 21.0249 6.65
    endloop
  endfacet
  facet normal 0 0 1
    outer loop
      vertex -4.70639 23.3061 6.65
      vertex -5.5154 22.7183 6.65
      vertex -4.30287 20.6181 6.65
    endloop
  endfacet
  facet normal 0 0 1
    outer loop
      vertex -6.46895 25.2636 6.65
      vertex -5.5154 22.7183 6.65
      vertex -4.70639 23.3061 6.65
    endloop
  endfacet
  facet normal 0 0 1
    outer loop
      vertex -6.46895 25.2636 6.65
      vertex -7.13808 24.5205 6.65
      vertex -5.5154 22.7183 6.65
    endloop
  endfacet
  facet normal 0 0 1
    outer loop
      vertex -8.6 26.8119 6.65
      vertex -7.13808 24.5205 6.65
      vertex -6.46895 25.2636 6.65
    endloop
  endfacet
  facet normal 0 0 1
    outer loop
      vertex -8.6 26.8119 6.65
      vertex -9.1 25.9459 6.65
      vertex -7.13808 24.5205 6.65
    endloop
  endfacet
  facet normal 0 0 1
    outer loop
      vertex -11.0064 27.8833 6.65
      vertex -9.1 25.9459 6.65
      vertex -8.6 26.8119 6.65
    endloop
  endfacet
  facet normal 0 0 1
    outer loop
      vertex -11.0064 27.8833 6.65
      vertex -11.3154 26.9323 6.65
      vertex -9.1 25.9459 6.65
    endloop
  endfacet
  facet normal 0 0 1
    outer loop
      vertex -13.5829 28.431 6.65
      vertex -11.3154 26.9323 6.65
      vertex -11.0064 27.8833 6.65
    endloop
  endfacet
  facet normal 0 0 1
    outer loop
      vertex -13.5829 28.431 6.65
      vertex -13.6875 27.4365 6.65
      vertex -11.3154 26.9323 6.65
    endloop
  endfacet
  facet normal 0 0 1
    outer loop
      vertex -13.5829 28.431 6.65
      vertex -16.1125 27.4365 6.65
      vertex -13.6875 27.4365 6.65
    endloop
  endfacet
  facet normal -0 0 1
    outer loop
      vertex -16.2171 28.431 6.65
      vertex -16.1125 27.4365 6.65
      vertex -13.5829 28.431 6.65
    endloop
  endfacet
  facet normal 0 0 1
    outer loop
      vertex -16.2171 28.431 6.65
      vertex -18.4846 26.9323 6.65
      vertex -16.1125 27.4365 6.65
    endloop
  endfacet
  facet normal -0 0 1
    outer loop
      vertex -18.7936 27.8833 6.65
      vertex -18.4846 26.9323 6.65
      vertex -16.2171 28.431 6.65
    endloop
  endfacet
  facet normal 0 0 1
    outer loop
      vertex -18.7936 27.8833 6.65
      vertex -20.7 25.9459 6.65
      vertex -18.4846 26.9323 6.65
    endloop
  endfacet
  facet normal -0 0 1
    outer loop
      vertex -21.2 26.8119 6.65
      vertex -20.7 25.9459 6.65
      vertex -18.7936 27.8833 6.65
    endloop
  endfacet
  facet normal 0 0 1
    outer loop
      vertex -21.2 26.8119 6.65
      vertex -22.6619 24.5205 6.65
      vertex -20.7 25.9459 6.65
    endloop
  endfacet
  facet normal -0 0 1
    outer loop
      vertex -23.331 25.2636 6.65
      vertex -22.6619 24.5205 6.65
      vertex -21.2 26.8119 6.65
    endloop
  endfacet
  facet normal 0 0 1
    outer loop
      vertex -23.331 25.2636 6.65
      vertex -24.2846 22.7183 6.65
      vertex -22.6619 24.5205 6.65
    endloop
  endfacet
  facet normal -0 0 1
    outer loop
      vertex -25.0936 23.3061 6.65
      vertex -24.2846 22.7183 6.65
      vertex -23.331 25.2636 6.65
    endloop
  endfacet
  facet normal 0 0 1
    outer loop
      vertex -25.0936 23.3061 6.65
      vertex -25.4971 20.6181 6.65
      vertex -24.2846 22.7183 6.65
    endloop
  endfacet
  facet normal -0 0 1
    outer loop
      vertex -26.4107 21.0249 6.65
      vertex -25.4971 20.6181 6.65
      vertex -25.0936 23.3061 6.65
    endloop
  endfacet
  facet normal 0 0 1
    outer loop
      vertex -25.4971 20.6181 6.65
      vertex -26.4107 21.0249 6.65
      vertex -26.2465 18.3118 6.65
    endloop
  endfacet
  facet normal -0 0 1
    outer loop
      vertex -27.2247 18.5197 6.65
      vertex -26.2465 18.3118 6.65
      vertex -26.4107 21.0249 6.65
    endloop
  endfacet
  facet normal 0 0 1
    outer loop
      vertex -26.2465 18.3118 6.65
      vertex -27.2247 18.5197 6.65
      vertex -26.5 15.9 6.65
    endloop
  endfacet
  facet normal -0 0 1
    outer loop
      vertex -3.55349 13.4882 6.65
      vertex -2.57534 13.2803 6.65
      vertex -3.3 15.9 6.65
    endloop
  endfacet
  facet normal 0 0 1
    outer loop
      vertex -2.57534 13.2803 6.65
      vertex -3.55349 13.4882 6.65
      vertex -3.38933 10.7751 6.65
    endloop
  endfacet
  facet normal -0 0 1
    outer loop
      vertex -4.30287 11.1819 6.65
      vertex -3.38933 10.7751 6.65
      vertex -3.55349 13.4882 6.65
    endloop
  endfacet
  facet normal 0 0 1
    outer loop
      vertex -4.30287 11.1819 6.65
      vertex -4.70639 8.49391 6.65
      vertex -3.38933 10.7751 6.65
    endloop
  endfacet
  facet normal -0 0 1
    outer loop
      vertex -5.5154 9.08169 6.65
      vertex -4.70639 8.49391 6.65
      vertex -4.30287 11.1819 6.65
    endloop
  endfacet
  facet normal 0 0 1
    outer loop
      vertex -5.5154 9.08169 6.65
      vertex -6.46895 6.53638 6.65
      vertex -4.70639 8.49391 6.65
    endloop
  endfacet
  facet normal -0 0 1
    outer loop
      vertex -7.13808 7.27952 6.65
      vertex -6.46895 6.53638 6.65
      vertex -5.5154 9.08169 6.65
    endloop
  endfacet
  facet normal 0 0 1
    outer loop
      vertex -7.13808 7.27952 6.65
      vertex -8.6 4.98808 6.65
      vertex -6.46895 6.53638 6.65
    endloop
  endfacet
  facet normal -0 0 1
    outer loop
      vertex -9.1 5.8541 6.65
      vertex -8.6 4.98808 6.65
      vertex -7.13808 7.27952 6.65
    endloop
  endfacet
  facet normal 0 0 1
    outer loop
      vertex -9.1 5.8541 6.65
      vertex -11.0064 3.91669 6.65
      vertex -8.6 4.98808 6.65
    endloop
  endfacet
  facet normal -0 0 1
    outer loop
      vertex -11.3154 4.86774 6.65
      vertex -11.0064 3.91669 6.65
      vertex -9.1 5.8541 6.65
    endloop
  endfacet
  facet normal 0 0 1
    outer loop
      vertex -11.3154 4.86774 6.65
      vertex -13.5829 3.36902 6.65
      vertex -11.0064 3.91669 6.65
    endloop
  endfacet
  facet normal -0 0 1
    outer loop
      vertex -13.6875 4.36355 6.65
      vertex -13.5829 3.36902 6.65
      vertex -11.3154 4.86774 6.65
    endloop
  endfacet
  facet normal -0 0 1
    outer loop
      vertex -16.1125 4.36355 6.65
      vertex -13.5829 3.36902 6.65
      vertex -13.6875 4.36355 6.65
    endloop
  endfacet
  facet normal 0 0 1
    outer loop
      vertex -16.1125 4.36355 6.65
      vertex -16.2171 3.36902 6.65
      vertex -13.5829 3.36902 6.65
    endloop
  endfacet
  facet normal 0 0 1
    outer loop
      vertex -18.4846 4.86774 6.65
      vertex -16.2171 3.36902 6.65
      vertex -16.1125 4.36355 6.65
    endloop
  endfacet
  facet normal 0 0 1
    outer loop
      vertex -18.4846 4.86774 6.65
      vertex -18.7936 3.91669 6.65
      vertex -16.2171 3.36902 6.65
    endloop
  endfacet
  facet normal 0 0 1
    outer loop
      vertex -20.7 5.8541 6.65
      vertex -18.7936 3.91669 6.65
      vertex -18.4846 4.86774 6.65
    endloop
  endfacet
  facet normal 0 0 1
    outer loop
      vertex -20.7 5.8541 6.65
      vertex -21.2 4.98808 6.65
      vertex -18.7936 3.91669 6.65
    endloop
  endfacet
  facet normal 0 0 1
    outer loop
      vertex -22.6619 7.27952 6.65
      vertex -21.2 4.98808 6.65
      vertex -20.7 5.8541 6.65
    endloop
  endfacet
  facet normal 0 0 1
    outer loop
      vertex -22.6619 7.27952 6.65
      vertex -23.331 6.53638 6.65
      vertex -21.2 4.98808 6.65
    endloop
  endfacet
  facet normal 0 0 1
    outer loop
      vertex -24.2846 9.08169 6.65
      vertex -23.331 6.53638 6.65
      vertex -22.6619 7.27952 6.65
    endloop
  endfacet
  facet normal 0 0 1
    outer loop
      vertex -24.2846 9.08169 6.65
      vertex -25.0936 8.49391 6.65
      vertex -23.331 6.53638 6.65
    endloop
  endfacet
  facet normal 0 0 1
    outer loop
      vertex -25.4971 11.1819 6.65
      vertex -25.0936 8.49391 6.65
      vertex -24.2846 9.08169 6.65
    endloop
  endfacet
  facet normal 0 0 1
    outer loop
      vertex -26.4107 10.7751 6.65
      vertex -25.4971 11.1819 6.65
      vertex -26.2465 13.4882 6.65
    endloop
  endfacet
  facet normal 0 0 1
    outer loop
      vertex -25.4971 11.1819 6.65
      vertex -26.4107 10.7751 6.65
      vertex -25.0936 8.49391 6.65
    endloop
  endfacet
  facet normal 0 0 1
    outer loop
      vertex -27.2247 13.2803 6.65
      vertex -26.2465 13.4882 6.65
      vertex -26.5 15.9 6.65
    endloop
  endfacet
  facet normal 0 0 1
    outer loop
      vertex -27.5 15.9 6.65
      vertex -26.5 15.9 6.65
      vertex -27.2247 18.5197 6.65
    endloop
  endfacet
  facet normal 0 0 1
    outer loop
      vertex -26.2465 13.4882 6.65
      vertex -27.2247 13.2803 6.65
      vertex -26.4107 10.7751 6.65
    endloop
  endfacet
  facet normal 0 0 1
    outer loop
      vertex -26.5 15.9 6.65
      vertex -27.5 15.9 6.65
      vertex -27.2247 13.2803 6.65
    endloop
  endfacet
  facet normal -0.866026 -0.5 0
    outer loop
      vertex -3.38933 21.0249 6.65
      vertex -4.70639 23.3061 7.8
      vertex -4.70639 23.3061 6.65
    endloop
  endfacet
  facet normal -0.866026 -0.5 0
    outer loop
      vertex -4.70639 23.3061 7.8
      vertex -3.38933 21.0249 6.65
      vertex -3.38933 21.0249 7.8
    endloop
  endfacet
  facet normal -0.587785 -0.809017 0
    outer loop
      vertex -8.6 26.8119 6.65
      vertex -6.46895 25.2636 7.8
      vertex -8.6 26.8119 7.8
    endloop
  endfacet
  facet normal -0.587785 -0.809017 -0
    outer loop
      vertex -6.46895 25.2636 7.8
      vertex -8.6 26.8119 6.65
      vertex -6.46895 25.2636 6.65
    endloop
  endfacet
  facet normal 0 -1 0
    outer loop
      vertex -16.2171 28.431 6.65
      vertex -13.5829 28.431 7.8
      vertex -16.2171 28.431 7.8
    endloop
  endfacet
  facet normal 0 -1 -0
    outer loop
      vertex -13.5829 28.431 7.8
      vertex -16.2171 28.431 6.65
      vertex -13.5829 28.431 6.65
    endloop
  endfacet
  facet normal -0.866025 0.5 0
    outer loop
      vertex -4.70639 8.49391 6.65
      vertex -3.38933 10.7751 7.8
      vertex -3.38933 10.7751 6.65
    endloop
  endfacet
  facet normal -0.866025 0.5 0
    outer loop
      vertex -3.38933 10.7751 7.8
      vertex -4.70639 8.49391 6.65
      vertex -4.70639 8.49391 7.8
    endloop
  endfacet
  facet normal -0.587785 0.809017 0
    outer loop
      vertex -6.46895 6.53638 6.65
      vertex -8.6 4.98808 7.8
      vertex -6.46895 6.53638 7.8
    endloop
  endfacet
  facet normal -0.587785 0.809017 0
    outer loop
      vertex -8.6 4.98808 7.8
      vertex -6.46895 6.53638 6.65
      vertex -8.6 4.98808 6.65
    endloop
  endfacet
  facet normal -0.406737 0.913545 0
    outer loop
      vertex -8.6 4.98808 6.65
      vertex -11.0064 3.91669 7.8
      vertex -8.6 4.98808 7.8
    endloop
  endfacet
  facet normal -0.406737 0.913545 0
    outer loop
      vertex -11.0064 3.91669 7.8
      vertex -8.6 4.98808 6.65
      vertex -11.0064 3.91669 6.65
    endloop
  endfacet
  facet normal -0.951056 0.309017 0
    outer loop
      vertex -3.38933 10.7751 6.65
      vertex -2.57534 13.2803 7.8
      vertex -2.57534 13.2803 6.65
    endloop
  endfacet
  facet normal -0.951056 0.309017 0
    outer loop
      vertex -2.57534 13.2803 7.8
      vertex -3.38933 10.7751 6.65
      vertex -3.38933 10.7751 7.8
    endloop
  endfacet
  facet normal 0.207912 0.978148 -0
    outer loop
      vertex -16.2171 3.36902 6.65
      vertex -18.7936 3.91669 7.8
      vertex -16.2171 3.36902 7.8
    endloop
  endfacet
  facet normal 0.207912 0.978148 0
    outer loop
      vertex -18.7936 3.91669 7.8
      vertex -16.2171 3.36902 6.65
      vertex -18.7936 3.91669 6.65
    endloop
  endfacet
  facet normal 0.743145 0.669131 0
    outer loop
      vertex -23.331 6.53638 7.8
      vertex -25.0936 8.49391 6.65
      vertex -25.0936 8.49391 7.8
    endloop
  endfacet
  facet normal 0.743145 0.669131 0
    outer loop
      vertex -25.0936 8.49391 6.65
      vertex -23.331 6.53638 7.8
      vertex -23.331 6.53638 6.65
    endloop
  endfacet
  facet normal 0.951056 0.309017 0
    outer loop
      vertex -26.4107 10.7751 7.8
      vertex -27.2247 13.2803 6.65
      vertex -27.2247 13.2803 7.8
    endloop
  endfacet
  facet normal 0.951056 0.309017 0
    outer loop
      vertex -27.2247 13.2803 6.65
      vertex -26.4107 10.7751 7.8
      vertex -26.4107 10.7751 6.65
    endloop
  endfacet
  facet normal 0.994522 0.104529 0
    outer loop
      vertex -27.2247 13.2803 7.8
      vertex -27.5 15.9 6.65
      vertex -27.5 15.9 7.8
    endloop
  endfacet
  facet normal 0.994522 0.104529 0
    outer loop
      vertex -27.5 15.9 6.65
      vertex -27.2247 13.2803 7.8
      vertex -27.2247 13.2803 6.65
    endloop
  endfacet
  facet normal -0.743145 0.669131 0
    outer loop
      vertex -6.46895 6.53638 6.65
      vertex -4.70639 8.49391 7.8
      vertex -4.70639 8.49391 6.65
    endloop
  endfacet
  facet normal -0.743145 0.669131 0
    outer loop
      vertex -4.70639 8.49391 7.8
      vertex -6.46895 6.53638 6.65
      vertex -6.46895 6.53638 7.8
    endloop
  endfacet
  facet normal 0.406737 0.913545 -0
    outer loop
      vertex -18.7936 3.91669 6.65
      vertex -21.2 4.98808 7.8
      vertex -18.7936 3.91669 7.8
    endloop
  endfacet
  facet normal 0.406737 0.913545 0
    outer loop
      vertex -21.2 4.98808 7.8
      vertex -18.7936 3.91669 6.65
      vertex -21.2 4.98808 6.65
    endloop
  endfacet
  facet normal 0.587785 0.809017 -0
    outer loop
      vertex -21.2 4.98808 6.65
      vertex -23.331 6.53638 7.8
      vertex -21.2 4.98808 7.8
    endloop
  endfacet
  facet normal 0.587785 0.809017 0
    outer loop
      vertex -23.331 6.53638 7.8
      vertex -21.2 4.98808 6.65
      vertex -23.331 6.53638 6.65
    endloop
  endfacet
  facet normal -0.994522 -0.104529 0
    outer loop
      vertex -3.3 15.9 7.32747e-016
      vertex -3.55349 18.3118 6.65
      vertex -3.55349 18.3118 7.89033e-016
    endloop
  endfacet
  facet normal -0.994522 -0.104529 0
    outer loop
      vertex -3.55349 18.3118 6.65
      vertex -3.3 15.9 7.32747e-016
      vertex -3.3 15.9 6.65
    endloop
  endfacet
  facet normal 0.994522 -0.104529 0
    outer loop
      vertex -26.5 15.9 6.65
      vertex -26.2465 18.3118 5.8279e-015
      vertex -26.2465 18.3118 6.65
    endloop
  endfacet
  facet normal 0.994522 -0.104529 0
    outer loop
      vertex -26.2465 18.3118 5.8279e-015
      vertex -26.5 15.9 6.65
      vertex -26.5 15.9 5.88418e-015
    endloop
  endfacet
  facet normal 0.587785 -0.809017 0
    outer loop
      vertex -22.6619 24.5205 5.03196e-015
      vertex -20.7 25.9459 6.65
      vertex -22.6619 24.5205 6.65
    endloop
  endfacet
  facet normal 0.587786 -0.809017 -1.68588e-007
    outer loop
      vertex -20.7 25.9459 6.65
      vertex -22.6619 24.5205 5.03196e-015
      vertex -20.7 25.9459 4.59632e-015
    endloop
  endfacet
  facet normal 0.743145 0.66913 0
    outer loop
      vertex -22.6619 7.27952 6.65
      vertex -24.2846 9.08169 5.39226e-015
      vertex -24.2846 9.08169 6.65
    endloop
  endfacet
  facet normal 0.743145 0.66913 0
    outer loop
      vertex -24.2846 9.08169 5.39226e-015
      vertex -22.6619 7.27952 6.65
      vertex -22.6619 7.27952 5.03196e-015
    endloop
  endfacet
  facet normal 0 1 0
    outer loop
      vertex -13.6875 4.36355 6.65
      vertex -16.1125 4.36355 3.5777e-015
      vertex -16.1125 4.36355 6.65
    endloop
  endfacet
  facet normal -0 1 0
    outer loop
      vertex -16.1125 4.36355 3.5777e-015
      vertex -13.6875 4.36355 6.65
      vertex -13.6875 4.36355 3.03923e-015
    endloop
  endfacet
  facet normal 0.406737 -0.913545 -1.1666e-007
    outer loop
      vertex -20.7 25.9459 4.59632e-015
      vertex -18.4846 26.9323 6.65
      vertex -20.7 25.9459 6.65
    endloop
  endfacet
  facet normal 0.406736 -0.913546 0
    outer loop
      vertex -18.4846 26.9323 6.65
      vertex -20.7 25.9459 4.59632e-015
      vertex -18.4846 26.9323 4.1044e-015
    endloop
  endfacet
  facet normal -0.951057 0.309017 0
    outer loop
      vertex -4.30287 11.1819 9.5543e-016
      vertex -3.55349 13.4882 6.65
      vertex -3.55349 13.4882 7.89033e-016
    endloop
  endfacet
  facet normal -0.951057 0.309017 0
    outer loop
      vertex -3.55349 13.4882 6.65
      vertex -4.30287 11.1819 9.5543e-016
      vertex -4.30287 11.1819 6.65
    endloop
  endfacet
  facet normal -0.951057 -0.309017 0
    outer loop
      vertex -3.55349 18.3118 7.89033e-016
      vertex -4.30287 20.6181 6.65
      vertex -4.30287 20.6181 9.5543e-016
    endloop
  endfacet
  facet normal -0.951057 -0.309017 0
    outer loop
      vertex -4.30287 20.6181 6.65
      vertex -3.55349 18.3118 7.89033e-016
      vertex -3.55349 18.3118 6.65
    endloop
  endfacet
  facet normal -0.743145 -0.66913 0
    outer loop
      vertex -5.5154 22.7183 1.22467e-015
      vertex -7.13808 24.5205 6.65
      vertex -7.13808 24.5205 1.58497e-015
    endloop
  endfacet
  facet normal -0.743145 -0.66913 0
    outer loop
      vertex -7.13808 24.5205 6.65
      vertex -5.5154 22.7183 1.22467e-015
      vertex -5.5154 22.7183 6.65
    endloop
  endfacet
  facet normal 0 -1 0
    outer loop
      vertex -16.1125 27.4365 3.5777e-015
      vertex -13.6875 27.4365 6.65
      vertex -16.1125 27.4365 6.65
    endloop
  endfacet
  facet normal 0 -1 -0
    outer loop
      vertex -13.6875 27.4365 6.65
      vertex -16.1125 27.4365 3.5777e-015
      vertex -13.6875 27.4365 3.03923e-015
    endloop
  endfacet
  facet normal -0.406737 -0.913545 0
    outer loop
      vertex -11.3154 26.9323 2.51252e-015
      vertex -9.1 25.9459 6.65
      vertex -11.3154 26.9323 6.65
    endloop
  endfacet
  facet normal -0.406737 -0.913545 -0
    outer loop
      vertex -9.1 25.9459 6.65
      vertex -11.3154 26.9323 2.51252e-015
      vertex -9.1 25.9459 2.02061e-015
    endloop
  endfacet
  facet normal 0.866025 -0.5 0
    outer loop
      vertex -25.4971 20.6181 6.65
      vertex -24.2846 22.7183 5.39226e-015
      vertex -24.2846 22.7183 6.65
    endloop
  endfacet
  facet normal 0.866025 -0.500001 -2.48393e-007
    outer loop
      vertex -24.2846 22.7183 5.39226e-015
      vertex -25.4971 20.6181 6.65
      vertex -25.4971 20.6181 5.6615e-015
    endloop
  endfacet
  facet normal 0.743145 -0.66913 0
    outer loop
      vertex -24.2846 22.7183 6.65
      vertex -22.6619 24.5205 5.03196e-015
      vertex -22.6619 24.5205 6.65
    endloop
  endfacet
  facet normal 0.743145 -0.66913 0
    outer loop
      vertex -22.6619 24.5205 5.03196e-015
      vertex -24.2846 22.7183 6.65
      vertex -24.2846 22.7183 5.39226e-015
    endloop
  endfacet
  facet normal 0.951056 -0.309017 -2.72781e-007
    outer loop
      vertex -26.2465 18.3118 6.65
      vertex -25.4971 20.6181 5.6615e-015
      vertex -25.4971 20.6181 6.65
    endloop
  endfacet
  facet normal 0.951057 -0.309017 0
    outer loop
      vertex -25.4971 20.6181 5.6615e-015
      vertex -26.2465 18.3118 6.65
      vertex -26.2465 18.3118 5.8279e-015
    endloop
  endfacet
  facet normal 0.207912 -0.978147 0
    outer loop
      vertex -18.4846 26.9323 4.1044e-015
      vertex -16.1125 27.4365 6.65
      vertex -18.4846 26.9323 6.65
    endloop
  endfacet
  facet normal 0.207912 -0.978147 0
    outer loop
      vertex -16.1125 27.4365 6.65
      vertex -18.4846 26.9323 4.1044e-015
      vertex -16.1125 27.4365 3.5777e-015
    endloop
  endfacet
  facet normal -0.994522 0.104529 0
    outer loop
      vertex -3.55349 13.4882 7.89033e-016
      vertex -3.3 15.9 6.65
      vertex -3.3 15.9 7.32747e-016
    endloop
  endfacet
  facet normal -0.994522 0.104529 0
    outer loop
      vertex -3.3 15.9 6.65
      vertex -3.55349 13.4882 7.89033e-016
      vertex -3.55349 13.4882 6.65
    endloop
  endfacet
  facet normal 0.951056 0.309017 0
    outer loop
      vertex -25.4971 11.1819 6.65
      vertex -26.2465 13.4882 5.8279e-015
      vertex -26.2465 13.4882 6.65
    endloop
  endfacet
  facet normal 0.951057 0.309017 -2.72781e-007
    outer loop
      vertex -26.2465 13.4882 5.8279e-015
      vertex -25.4971 11.1819 6.65
      vertex -25.4971 11.1819 5.6615e-015
    endloop
  endfacet
  facet normal -0.866025 -0.5 0
    outer loop
      vertex -4.30287 20.6181 9.5543e-016
      vertex -5.5154 22.7183 6.65
      vertex -5.5154 22.7183 1.22467e-015
    endloop
  endfacet
  facet normal -0.866025 -0.5 0
    outer loop
      vertex -5.5154 22.7183 6.65
      vertex -4.30287 20.6181 9.5543e-016
      vertex -4.30287 20.6181 6.65
    endloop
  endfacet
  facet normal -0.587785 -0.809017 0
    outer loop
      vertex -9.1 25.9459 2.02061e-015
      vertex -7.13808 24.5205 6.65
      vertex -9.1 25.9459 6.65
    endloop
  endfacet
  facet normal -0.587785 -0.809017 -0
    outer loop
      vertex -7.13808 24.5205 6.65
      vertex -9.1 25.9459 2.02061e-015
      vertex -7.13808 24.5205 1.58497e-015
    endloop
  endfacet
  facet normal -0.207912 -0.978147 0
    outer loop
      vertex -13.6875 27.4365 3.03923e-015
      vertex -11.3154 26.9323 6.65
      vertex -13.6875 27.4365 6.65
    endloop
  endfacet
  facet normal -0.207912 -0.978147 -0
    outer loop
      vertex -11.3154 26.9323 6.65
      vertex -13.6875 27.4365 3.03923e-015
      vertex -11.3154 26.9323 2.51252e-015
    endloop
  endfacet
  facet normal -0.866025 0.5 0
    outer loop
      vertex -5.5154 9.08169 1.22467e-015
      vertex -4.30287 11.1819 6.65
      vertex -4.30287 11.1819 9.5543e-016
    endloop
  endfacet
  facet normal -0.866025 0.5 0
    outer loop
      vertex -4.30287 11.1819 6.65
      vertex -5.5154 9.08169 1.22467e-015
      vertex -5.5154 9.08169 6.65
    endloop
  endfacet
  facet normal 0.207912 0.978148 0
    outer loop
      vertex -16.1125 4.36355 6.65
      vertex -18.4846 4.86774 4.1044e-015
      vertex -18.4846 4.86774 6.65
    endloop
  endfacet
  facet normal 0.207912 0.978148 0
    outer loop
      vertex -18.4846 4.86774 4.1044e-015
      vertex -16.1125 4.36355 6.65
      vertex -16.1125 4.36355 3.5777e-015
    endloop
  endfacet
  facet normal 0.406737 0.913545 -1.1666e-007
    outer loop
      vertex -18.4846 4.86774 6.65
      vertex -20.7 5.8541 4.59632e-015
      vertex -20.7 5.8541 6.65
    endloop
  endfacet
  facet normal 0.406737 0.913545 0
    outer loop
      vertex -20.7 5.8541 4.59632e-015
      vertex -18.4846 4.86774 6.65
      vertex -18.4846 4.86774 4.1044e-015
    endloop
  endfacet
  facet normal 0.587785 0.809017 0
    outer loop
      vertex -20.7 5.8541 6.65
      vertex -22.6619 7.27952 5.03196e-015
      vertex -22.6619 7.27952 6.65
    endloop
  endfacet
  facet normal 0.587785 0.809017 -1.68588e-007
    outer loop
      vertex -22.6619 7.27952 5.03196e-015
      vertex -20.7 5.8541 6.65
      vertex -20.7 5.8541 4.59632e-015
    endloop
  endfacet
  facet normal 0.866025 0.5 -2.48393e-007
    outer loop
      vertex -24.2846 9.08169 6.65
      vertex -25.4971 11.1819 5.6615e-015
      vertex -25.4971 11.1819 6.65
    endloop
  endfacet
  facet normal 0.866025 0.500001 0
    outer loop
      vertex -25.4971 11.1819 5.6615e-015
      vertex -24.2846 9.08169 6.65
      vertex -24.2846 9.08169 5.39226e-015
    endloop
  endfacet
  facet normal 0.994522 0.104529 0
    outer loop
      vertex -26.2465 13.4882 6.65
      vertex -26.5 15.9 5.88418e-015
      vertex -26.5 15.9 6.65
    endloop
  endfacet
  facet normal 0.994522 0.104529 0
    outer loop
      vertex -26.5 15.9 5.88418e-015
      vertex -26.2465 13.4882 6.65
      vertex -26.2465 13.4882 5.8279e-015
    endloop
  endfacet
  facet normal -0.587785 0.809017 0
    outer loop
      vertex -7.13808 7.27952 6.65
      vertex -9.1 5.8541 2.02061e-015
      vertex -9.1 5.8541 6.65
    endloop
  endfacet
  facet normal -0.587785 0.809017 0
    outer loop
      vertex -9.1 5.8541 2.02061e-015
      vertex -7.13808 7.27952 6.65
      vertex -7.13808 7.27952 1.58497e-015
    endloop
  endfacet
  facet normal -0.406737 0.913545 0
    outer loop
      vertex -9.1 5.8541 6.65
      vertex -11.3154 4.86774 2.51252e-015
      vertex -11.3154 4.86774 6.65
    endloop
  endfacet
  facet normal -0.406737 0.913545 0
    outer loop
      vertex -11.3154 4.86774 2.51252e-015
      vertex -9.1 5.8541 6.65
      vertex -9.1 5.8541 2.02061e-015
    endloop
  endfacet
  facet normal -0.207912 0.978148 0
    outer loop
      vertex -11.3154 4.86774 6.65
      vertex -13.6875 4.36355 3.03923e-015
      vertex -13.6875 4.36355 6.65
    endloop
  endfacet
  facet normal -0.207912 0.978148 0
    outer loop
      vertex -13.6875 4.36355 3.03923e-015
      vertex -11.3154 4.86774 6.65
      vertex -11.3154 4.86774 2.51252e-015
    endloop
  endfacet
  facet normal -0.743145 0.66913 0
    outer loop
      vertex -7.13808 7.27952 1.58497e-015
      vertex -5.5154 9.08169 6.65
      vertex -5.5154 9.08169 1.22467e-015
    endloop
  endfacet
  facet normal -0.743145 0.66913 0
    outer loop
      vertex -5.5154 9.08169 6.65
      vertex -7.13808 7.27952 1.58497e-015
      vertex -7.13808 7.27952 6.65
    endloop
  endfacet
endsolid OpenSCAD_Model
