solid OpenSCAD_Model
  facet normal -1 0 0
    outer loop
      vertex 0 1.4 0
      vertex 0 10 51.2
      vertex 0 10 0
    endloop
  endfacet
  facet normal -1 -0 0
    outer loop
      vertex 0 10 51.2
      vertex 0 1.4 0
      vertex 0 1.4 51.2
    endloop
  endfacet
  facet normal -1 0 0
    outer loop
      vertex 0 20.8 0
      vertex 0 24.4 51.2
      vertex 0 24.4 0
    endloop
  endfacet
  facet normal -1 -0 0
    outer loop
      vertex 0 24.4 51.2
      vertex 0 20.8 0
      vertex 0 20.8 51.2
    endloop
  endfacet
  facet normal 0 0 1
    outer loop
      vertex 0 1.4 51.2
      vertex 0.799999 5.5 51.2
      vertex 0 10 51.2
    endloop
  endfacet
  facet normal 0 0 1
    outer loop
      vertex 0.799999 5.5 51.2
      vertex 0 1.4 51.2
      vertex 0.4 1.4 51.2
    endloop
  endfacet
  facet normal 0 0 1
    outer loop
      vertex 4 24.8 51.2
      vertex 1.8 23.3 51.2
      vertex 4 24.5 51.2
    endloop
  endfacet
  facet normal -0 0 1
    outer loop
      vertex 0.599999 10 51.2
      vertex 1.8 7.5 51.2
      vertex 1.8 23.3 51.2
    endloop
  endfacet
  facet normal 0 0 1
    outer loop
      vertex 1.8 7.5 51.2
      vertex 0.599999 10 51.2
      vertex 0.799999 7.5 51.2
    endloop
  endfacet
  facet normal 0 0 1
    outer loop
      vertex 0.599999 10 51.2
      vertex 1.8 23.3 51.2
      vertex 0.599999 20.8 51.2
    endloop
  endfacet
  facet normal -0 0 1
    outer loop
      vertex 0.4 24.8 51.2
      vertex 1.8 23.3 51.2
      vertex 4 24.8 51.2
    endloop
  endfacet
  facet normal -0 0 1
    outer loop
      vertex 0.4 24.4 51.2
      vertex 1.8 23.3 51.2
      vertex 0.4 24.8 51.2
    endloop
  endfacet
  facet normal -0 0 1
    outer loop
      vertex 0 24.4 51.2
      vertex 1.8 23.3 51.2
      vertex 0.4 24.4 51.2
    endloop
  endfacet
  facet normal 0 0 1
    outer loop
      vertex 1.8 23.3 51.2
      vertex 0 24.4 51.2
      vertex 0 20.8 51.2
    endloop
  endfacet
  facet normal 0 0 1
    outer loop
      vertex 1.8 23.3 51.2
      vertex 0 20.8 51.2
      vertex 0.599999 20.8 51.2
    endloop
  endfacet
  facet normal -0 0 1
    outer loop
      vertex 14.8 1.5 51.2
      vertex 20.8 0.299999 51.2
      vertex 23 1.5 51.2
    endloop
  endfacet
  facet normal 0 0 1
    outer loop
      vertex 20.8 0.299999 51.2
      vertex 14.8 1.5 51.2
      vertex 14.8 0.299999 51.2
    endloop
  endfacet
  facet normal 0 0 1
    outer loop
      vertex 23 23.3 51.2
      vertex 24.4 24.4 51.2
      vertex 24.4 24.8 51.2
    endloop
  endfacet
  facet normal 0 0 1
    outer loop
      vertex 23 7.5 51.2
      vertex 24.2 10 51.2
      vertex 24.2 20.8 51.2
    endloop
  endfacet
  facet normal 0 0 1
    outer loop
      vertex 23 7.5 51.2
      vertex 24.2 20.8 51.2
      vertex 23 23.3 51.2
    endloop
  endfacet
  facet normal 0 0 1
    outer loop
      vertex 24.4 24.4 51.2
      vertex 23 23.3 51.2
      vertex 24.2 20.8 51.2
    endloop
  endfacet
  facet normal -0 0 1
    outer loop
      vertex 20.8 24.8 51.2
      vertex 23 23.3 51.2
      vertex 24.4 24.8 51.2
    endloop
  endfacet
  facet normal -0 0 1
    outer loop
      vertex 20.8 24.5 51.2
      vertex 23 23.3 51.2
      vertex 20.8 24.8 51.2
    endloop
  endfacet
  facet normal -0 0 1
    outer loop
      vertex 4 24.5 51.2
      vertex 23 23.3 51.2
      vertex 20.8 24.5 51.2
    endloop
  endfacet
  facet normal 0 0 1
    outer loop
      vertex 23 23.3 51.2
      vertex 4 24.5 51.2
      vertex 1.8 23.3 51.2
    endloop
  endfacet
  facet normal -0 0 1
    outer loop
      vertex 24.4 24.4 51.2
      vertex 24.8 20.8 51.2
      vertex 24.8 24.4 51.2
    endloop
  endfacet
  facet normal 0 0 1
    outer loop
      vertex 24.8 20.8 51.2
      vertex 24.4 24.4 51.2
      vertex 24.2 20.8 51.2
    endloop
  endfacet
  facet normal -0 0 1
    outer loop
      vertex 24 5.5 51.2
      vertex 24.8 1.4 51.2
      vertex 24.8 10 51.2
    endloop
  endfacet
  facet normal 0 0 1
    outer loop
      vertex 24 7.5 51.2
      vertex 24.8 10 51.2
      vertex 24.2 10 51.2
    endloop
  endfacet
  facet normal 0 0 1
    outer loop
      vertex 24.8 1.4 51.2
      vertex 24 5.5 51.2
      vertex 24.4 1.4 51.2
    endloop
  endfacet
  facet normal 0 0 1
    outer loop
      vertex 24.8 10 51.2
      vertex 24 7.5 51.2
      vertex 24 5.5 51.2
    endloop
  endfacet
  facet normal -0 0 1
    outer loop
      vertex 23 1.5 51.2
      vertex 24.4 1.4 51.2
      vertex 24 5.5 51.2
    endloop
  endfacet
  facet normal 0 0 1
    outer loop
      vertex 23 1.5 51.2
      vertex 24 5.5 51.2
      vertex 23 5.5 51.2
    endloop
  endfacet
  facet normal 0 0 1
    outer loop
      vertex 24.4 1.4 51.2
      vertex 23 1.5 51.2
      vertex 24.4 0 51.2
    endloop
  endfacet
  facet normal 0 0 1
    outer loop
      vertex 20.8 0 51.2
      vertex 23 1.5 51.2
      vertex 20.8 0.299999 51.2
    endloop
  endfacet
  facet normal 0 0 1
    outer loop
      vertex 23 1.5 51.2
      vertex 20.8 0 51.2
      vertex 24.4 0 51.2
    endloop
  endfacet
  facet normal 0 0 1
    outer loop
      vertex 24.2 10 51.2
      vertex 23 7.5 51.2
      vertex 24 7.5 51.2
    endloop
  endfacet
  facet normal 0 0 1
    outer loop
      vertex 1.8 5.5 51.2
      vertex 0.799999 5.5 51.2
      vertex 1.8 1.5 51.2
    endloop
  endfacet
  facet normal 0 0 1
    outer loop
      vertex 10 1.5 51.2
      vertex 4 0.299999 51.2
      vertex 10 0.299999 51.2
    endloop
  endfacet
  facet normal -0 0 1
    outer loop
      vertex 1.8 1.5 51.2
      vertex 4 0.299999 51.2
      vertex 10 1.5 51.2
    endloop
  endfacet
  facet normal 0 0 1
    outer loop
      vertex 1.8 1.5 51.2
      vertex 4 0 51.2
      vertex 4 0.299999 51.2
    endloop
  endfacet
  facet normal -0 0 1
    outer loop
      vertex 0 10 51.2
      vertex 0.799999 7.5 51.2
      vertex 0.599999 10 51.2
    endloop
  endfacet
  facet normal 0 0 1
    outer loop
      vertex 0.799999 7.5 51.2
      vertex 0 10 51.2
      vertex 0.799999 5.5 51.2
    endloop
  endfacet
  facet normal 0 0 1
    outer loop
      vertex 0.4 1.4 51.2
      vertex 1.8 1.5 51.2
      vertex 0.799999 5.5 51.2
    endloop
  endfacet
  facet normal 0 0 1
    outer loop
      vertex 0.4 0 51.2
      vertex 1.8 1.5 51.2
      vertex 0.4 1.4 51.2
    endloop
  endfacet
  facet normal 0 0 1
    outer loop
      vertex 1.8 1.5 51.2
      vertex 0.4 0 51.2
      vertex 4 0 51.2
    endloop
  endfacet
  facet normal 1 -0 0
    outer loop
      vertex 24.8 1.4 51.2
      vertex 24.8 10 0
      vertex 24.8 10 51.2
    endloop
  endfacet
  facet normal 1 0 0
    outer loop
      vertex 24.8 10 0
      vertex 24.8 1.4 51.2
      vertex 24.8 1.4 0
    endloop
  endfacet
  facet normal 1 -0 0
    outer loop
      vertex 24.8 20.8 51.2
      vertex 24.8 24.4 0
      vertex 24.8 24.4 51.2
    endloop
  endfacet
  facet normal 1 0 0
    outer loop
      vertex 24.8 24.4 0
      vertex 24.8 20.8 51.2
      vertex 24.8 20.8 0
    endloop
  endfacet
  facet normal 0 1 -0
    outer loop
      vertex 24.4 24.8 0
      vertex 20.8 24.8 51.2
      vertex 24.4 24.8 51.2
    endloop
  endfacet
  facet normal 0 1 0
    outer loop
      vertex 20.8 24.8 51.2
      vertex 24.4 24.8 0
      vertex 20.8 24.8 0
    endloop
  endfacet
  facet normal 0 1 -0
    outer loop
      vertex 4 24.8 0
      vertex 0.4 24.8 51.2
      vertex 4 24.8 51.2
    endloop
  endfacet
  facet normal 0 1 0
    outer loop
      vertex 0.4 24.8 51.2
      vertex 4 24.8 0
      vertex 0.4 24.8 0
    endloop
  endfacet
  facet normal 0 0 -1
    outer loop
      vertex 20.8 0.299999 0
      vertex 24.4 1.4 0
      vertex 24.4 0 0
    endloop
  endfacet
  facet normal -0 0 -1
    outer loop
      vertex 24.4 1.4 0
      vertex 20.8 0.299999 0
      vertex 24.2 10 0
    endloop
  endfacet
  facet normal 0 0 -1
    outer loop
      vertex 20.8 0.299999 0
      vertex 24.4 0 0
      vertex 20.8 0 0
    endloop
  endfacet
  facet normal 0 0 -1
    outer loop
      vertex 24.4 1.4 0
      vertex 24.8 10 0
      vertex 24.8 1.4 0
    endloop
  endfacet
  facet normal -0 0 -1
    outer loop
      vertex 24.8 10 0
      vertex 24.4 1.4 0
      vertex 24.2 10 0
    endloop
  endfacet
  facet normal 0 0 -1
    outer loop
      vertex 24.8 20.8 0
      vertex 24.4 24.4 0
      vertex 24.8 24.4 0
    endloop
  endfacet
  facet normal 0 0 -1
    outer loop
      vertex 24.2 20.8 0
      vertex 24.4 24.4 0
      vertex 24.8 20.8 0
    endloop
  endfacet
  facet normal 0 0 -1
    outer loop
      vertex 20.8 24.5 0
      vertex 24.4 24.4 0
      vertex 24.2 20.8 0
    endloop
  endfacet
  facet normal 0 0 -1
    outer loop
      vertex 0.599999 10 0
      vertex 24.2 10 0
      vertex 20.8 0.299999 0
    endloop
  endfacet
  facet normal 0 0 -1
    outer loop
      vertex 0.599999 10 0
      vertex 20.8 0.299999 0
      vertex 4 0.299999 0
    endloop
  endfacet
  facet normal 0 0 -1
    outer loop
      vertex 24.4 24.4 0
      vertex 20.8 24.5 0
      vertex 24.4 24.8 0
    endloop
  endfacet
  facet normal -0 0 -1
    outer loop
      vertex 24.4 24.8 0
      vertex 20.8 24.5 0
      vertex 20.8 24.8 0
    endloop
  endfacet
  facet normal 0 0 -1
    outer loop
      vertex 0 20.8 0
      vertex 0.4 24.4 0
      vertex 0.599999 20.8 0
    endloop
  endfacet
  facet normal -0 0 -1
    outer loop
      vertex 0.4 24.4 0
      vertex 0 20.8 0
      vertex 0 24.4 0
    endloop
  endfacet
  facet normal 0 0 -1
    outer loop
      vertex 0.4 0 0
      vertex 4 0.299999 0
      vertex 4 0 0
    endloop
  endfacet
  facet normal -0 -0 -1
    outer loop
      vertex 20.8 24.5 0
      vertex 24.2 10 0
      vertex 4 24.5 0
    endloop
  endfacet
  facet normal 0 0 -1
    outer loop
      vertex 0.599999 20.8 0
      vertex 4 24.5 0
      vertex 0.599999 10 0
    endloop
  endfacet
  facet normal -0 0 -1
    outer loop
      vertex 4 0.299999 0
      vertex 0.4 0 0
      vertex 0.4 1.4 0
    endloop
  endfacet
  facet normal 0 0 -1
    outer loop
      vertex 4 0.299999 0
      vertex 0.4 1.4 0
      vertex 0.599999 10 0
    endloop
  endfacet
  facet normal 0 0 -1
    outer loop
      vertex 0 10 0
      vertex 0.4 1.4 0
      vertex 0 1.4 0
    endloop
  endfacet
  facet normal 0 0 -1
    outer loop
      vertex 0.4 1.4 0
      vertex 0 10 0
      vertex 0.599999 10 0
    endloop
  endfacet
  facet normal 0 -0 -1
    outer loop
      vertex 4 24.5 0
      vertex 24.2 10 0
      vertex 0.599999 10 0
    endloop
  endfacet
  facet normal 0 0 -1
    outer loop
      vertex 24.2 10 0
      vertex 20.8 24.5 0
      vertex 24.2 20.8 0
    endloop
  endfacet
  facet normal 0 0 -1
    outer loop
      vertex 0.4 24.4 0
      vertex 4 24.5 0
      vertex 0.599999 20.8 0
    endloop
  endfacet
  facet normal 0 0 -1
    outer loop
      vertex 0.4 24.8 0
      vertex 4 24.5 0
      vertex 0.4 24.4 0
    endloop
  endfacet
  facet normal 0 0 -1
    outer loop
      vertex 4 24.5 0
      vertex 0.4 24.8 0
      vertex 4 24.8 0
    endloop
  endfacet
  facet normal 0 -1 0
    outer loop
      vertex 0.4 0 0
      vertex 4 0 51.2
      vertex 0.4 0 51.2
    endloop
  endfacet
  facet normal 0 -1 -0
    outer loop
      vertex 4 0 51.2
      vertex 0.4 0 0
      vertex 4 0 0
    endloop
  endfacet
  facet normal 0 -1 0
    outer loop
      vertex 20.8 0 0
      vertex 24.4 0 51.2
      vertex 20.8 0 51.2
    endloop
  endfacet
  facet normal 0 -1 -0
    outer loop
      vertex 24.4 0 51.2
      vertex 20.8 0 0
      vertex 24.4 0 0
    endloop
  endfacet
  facet normal -1 0 0
    outer loop
      vertex 10 0.299999 51.2
      vertex 10 1.5 56.2
      vertex 10 1.5 51.2
    endloop
  endfacet
  facet normal -1 -0 0
    outer loop
      vertex 10 1.5 56.2
      vertex 10 0.299999 51.2
      vertex 10 0.299999 56.2
    endloop
  endfacet
  facet normal -0 0 1
    outer loop
      vertex 10 1.5 56.2
      vertex 14.8 0.299999 56.2
      vertex 14.8 1.5 56.2
    endloop
  endfacet
  facet normal 0 0 1
    outer loop
      vertex 14.8 0.299999 56.2
      vertex 10 1.5 56.2
      vertex 10 0.299999 56.2
    endloop
  endfacet
  facet normal 1 -0 0
    outer loop
      vertex 14.8 0.299999 56.2
      vertex 14.8 1.5 51.2
      vertex 14.8 1.5 56.2
    endloop
  endfacet
  facet normal 1 0 0
    outer loop
      vertex 14.8 1.5 51.2
      vertex 14.8 0.299999 56.2
      vertex 14.8 0.299999 51.2
    endloop
  endfacet
  facet normal 0 1 -0
    outer loop
      vertex 14.8 1.5 51.2
      vertex 10 1.5 56.2
      vertex 14.8 1.5 56.2
    endloop
  endfacet
  facet normal 0 1 0
    outer loop
      vertex 10 1.5 56.2
      vertex 14.8 1.5 51.2
      vertex 10 1.5 51.2
    endloop
  endfacet
  facet normal 0 -1 0
    outer loop
      vertex 4 0.299999 0
      vertex 10 0.299999 51.2
      vertex 4 0.299999 51.2
    endloop
  endfacet
  facet normal 0 -1 -0
    outer loop
      vertex 10 0.299999 51.2
      vertex 4 0.299999 0
      vertex 14.8 0.299999 51.2
    endloop
  endfacet
  facet normal 0 -1 0
    outer loop
      vertex 20.8 0.299999 0
      vertex 14.8 0.299999 51.2
      vertex 4 0.299999 0
    endloop
  endfacet
  facet normal 0 -1 0
    outer loop
      vertex 14.8 0.299999 51.2
      vertex 20.8 0.299999 0
      vertex 20.8 0.299999 51.2
    endloop
  endfacet
  facet normal 0 -1 0
    outer loop
      vertex 10 0.299999 51.2
      vertex 14.8 0.299999 56.2
      vertex 10 0.299999 56.2
    endloop
  endfacet
  facet normal 0 -1 -0
    outer loop
      vertex 14.8 0.299999 56.2
      vertex 10 0.299999 51.2
      vertex 14.8 0.299999 51.2
    endloop
  endfacet
  facet normal 1 -0 0
    outer loop
      vertex 1.8 1.5 51.2
      vertex 1.8 5.5 1
      vertex 1.8 5.5 51.2
    endloop
  endfacet
  facet normal 1 0 0
    outer loop
      vertex 1.8 5.5 1
      vertex 1.8 1.5 51.2
      vertex 1.8 1.5 1
    endloop
  endfacet
  facet normal 1 -0 0
    outer loop
      vertex 1.8 7.5 51.2
      vertex 1.8 23.3 1
      vertex 1.8 23.3 51.2
    endloop
  endfacet
  facet normal 1 0 0
    outer loop
      vertex 1.8 23.3 1
      vertex 1.8 7.5 51.2
      vertex 1.8 7.5 1
    endloop
  endfacet
  facet normal -1 0 0
    outer loop
      vertex 23 1.5 1
      vertex 23 5.5 51.2
      vertex 23 5.5 1
    endloop
  endfacet
  facet normal -1 -0 0
    outer loop
      vertex 23 5.5 51.2
      vertex 23 1.5 1
      vertex 23 1.5 51.2
    endloop
  endfacet
  facet normal -1 0 0
    outer loop
      vertex 23 7.5 1
      vertex 23 23.3 51.2
      vertex 23 23.3 1
    endloop
  endfacet
  facet normal -1 -0 0
    outer loop
      vertex 23 23.3 51.2
      vertex 23 7.5 1
      vertex 23 7.5 51.2
    endloop
  endfacet
  facet normal -0 0 1
    outer loop
      vertex 0.799999 7.5 1
      vertex 1.8 5.5 1
      vertex 1.8 7.5 1
    endloop
  endfacet
  facet normal 0 0 1
    outer loop
      vertex 1.8 5.5 1
      vertex 0.799999 7.5 1
      vertex 0.799999 5.5 1
    endloop
  endfacet
  facet normal 0 0 1
    outer loop
      vertex 1.8 7.5 1
      vertex 23 7.5 1
      vertex 23 23.3 1
    endloop
  endfacet
  facet normal 0 0 1
    outer loop
      vertex 23 7.5 1
      vertex 1.8 7.5 1
      vertex 23 5.5 1
    endloop
  endfacet
  facet normal 0 0 1
    outer loop
      vertex 1.8 7.5 1
      vertex 23 23.3 1
      vertex 1.8 23.3 1
    endloop
  endfacet
  facet normal 0 0 1
    outer loop
      vertex 1.8 5.5 1
      vertex 23 5.5 1
      vertex 1.8 7.5 1
    endloop
  endfacet
  facet normal 0 0 1
    outer loop
      vertex 23 5.5 1
      vertex 1.8 5.5 1
      vertex 23 1.5 1
    endloop
  endfacet
  facet normal 0 0 1
    outer loop
      vertex 23 1.5 1
      vertex 1.8 5.5 1
      vertex 1.8 1.5 1
    endloop
  endfacet
  facet normal -0 0 1
    outer loop
      vertex 23 7.5 1
      vertex 24 5.5 1
      vertex 24 7.5 1
    endloop
  endfacet
  facet normal 0 0 1
    outer loop
      vertex 24 5.5 1
      vertex 23 7.5 1
      vertex 23 5.5 1
    endloop
  endfacet
  facet normal 0 1 -0
    outer loop
      vertex 23 1.5 1
      vertex 14.8 1.5 51.2
      vertex 23 1.5 51.2
    endloop
  endfacet
  facet normal 0 1 0
    outer loop
      vertex 14.8 1.5 51.2
      vertex 23 1.5 1
      vertex 10 1.5 51.2
    endloop
  endfacet
  facet normal 0 1 0
    outer loop
      vertex 1.8 1.5 1
      vertex 10 1.5 51.2
      vertex 23 1.5 1
    endloop
  endfacet
  facet normal 0 1 0
    outer loop
      vertex 10 1.5 51.2
      vertex 1.8 1.5 1
      vertex 1.8 1.5 51.2
    endloop
  endfacet
  facet normal 0 -1 0
    outer loop
      vertex 1.8 23.3 51.2
      vertex 14.7729 23.3 42.3532
      vertex 23 23.3 51.2
    endloop
  endfacet
  facet normal 0 -1 0
    outer loop
      vertex 1.8 23.3 51.2
      vertex 13.2729 23.3 41.2634
      vertex 14.7729 23.3 42.3532
    endloop
  endfacet
  facet normal 0 -1 0
    outer loop
      vertex 1.8 23.3 51.2
      vertex 12.7 23.3 39.5
      vertex 13.2729 23.3 41.2634
    endloop
  endfacet
  facet normal 0 -1 0
    outer loop
      vertex 1.8 23.3 51.2
      vertex 13.2729 23.3 37.7366
      vertex 12.7 23.3 39.5
    endloop
  endfacet
  facet normal 0 -1 0
    outer loop
      vertex 23 23.3 1
      vertex 14.7729 23.3 36.6468
      vertex 1.8 23.3 1
    endloop
  endfacet
  facet normal 0 -1 -0
    outer loop
      vertex 13.2729 23.3 37.7366
      vertex 1.8 23.3 1
      vertex 14.7729 23.3 36.6468
    endloop
  endfacet
  facet normal 0 -1 0
    outer loop
      vertex 1.8 23.3 1
      vertex 13.2729 23.3 37.7366
      vertex 1.8 23.3 51.2
    endloop
  endfacet
  facet normal 0 -1 0
    outer loop
      vertex 16.6271 23.3 42.3532
      vertex 23 23.3 51.2
      vertex 14.7729 23.3 42.3532
    endloop
  endfacet
  facet normal 0 -1 0
    outer loop
      vertex 18.1271 23.3 41.2634
      vertex 23 23.3 51.2
      vertex 16.6271 23.3 42.3532
    endloop
  endfacet
  facet normal 0 -1 0
    outer loop
      vertex 18.7 23.3 39.5
      vertex 23 23.3 51.2
      vertex 18.1271 23.3 41.2634
    endloop
  endfacet
  facet normal 0 -1 0
    outer loop
      vertex 23 23.3 1
      vertex 18.7 23.3 39.5
      vertex 18.1271 23.3 37.7366
    endloop
  endfacet
  facet normal 0 -1 0
    outer loop
      vertex 14.7729 23.3 36.6468
      vertex 23 23.3 1
      vertex 16.6271 23.3 36.6468
    endloop
  endfacet
  facet normal 0 -1 0
    outer loop
      vertex 18.7 23.3 39.5
      vertex 23 23.3 1
      vertex 23 23.3 51.2
    endloop
  endfacet
  facet normal 0 -1 0
    outer loop
      vertex 16.6271 23.3 36.6468
      vertex 23 23.3 1
      vertex 18.1271 23.3 37.7366
    endloop
  endfacet
  facet normal 1 -0 0
    outer loop
      vertex 0.799999 5.5 51.2
      vertex 0.799999 7.5 1
      vertex 0.799999 7.5 51.2
    endloop
  endfacet
  facet normal 1 0 0
    outer loop
      vertex 0.799999 7.5 1
      vertex 0.799999 5.5 51.2
      vertex 0.799999 5.5 1
    endloop
  endfacet
  facet normal -1 0 0
    outer loop
      vertex 24 5.5 1
      vertex 24 7.5 51.2
      vertex 24 7.5 1
    endloop
  endfacet
  facet normal -1 -0 0
    outer loop
      vertex 24 7.5 51.2
      vertex 24 5.5 1
      vertex 24 5.5 51.2
    endloop
  endfacet
  facet normal 0 1 -0
    outer loop
      vertex 1.8 5.5 1
      vertex 0.799999 5.5 51.2
      vertex 1.8 5.5 51.2
    endloop
  endfacet
  facet normal 0 1 0
    outer loop
      vertex 0.799999 5.5 51.2
      vertex 1.8 5.5 1
      vertex 0.799999 5.5 1
    endloop
  endfacet
  facet normal 0 1 -0
    outer loop
      vertex 24 5.5 1
      vertex 23 5.5 51.2
      vertex 24 5.5 51.2
    endloop
  endfacet
  facet normal 0 1 0
    outer loop
      vertex 23 5.5 51.2
      vertex 24 5.5 1
      vertex 23 5.5 1
    endloop
  endfacet
  facet normal 0 -1 0
    outer loop
      vertex 23 7.5 1
      vertex 24 7.5 51.2
      vertex 23 7.5 51.2
    endloop
  endfacet
  facet normal 0 -1 -0
    outer loop
      vertex 24 7.5 51.2
      vertex 23 7.5 1
      vertex 24 7.5 1
    endloop
  endfacet
  facet normal 0 -1 0
    outer loop
      vertex 0.799999 7.5 1
      vertex 1.8 7.5 51.2
      vertex 0.799999 7.5 51.2
    endloop
  endfacet
  facet normal 0 -1 -0
    outer loop
      vertex 1.8 7.5 51.2
      vertex 0.799999 7.5 1
      vertex 1.8 7.5 1
    endloop
  endfacet
  facet normal 1 -0 0
    outer loop
      vertex 4 0 51.2
      vertex 4 0.299999 0
      vertex 4 0.299999 51.2
    endloop
  endfacet
  facet normal 1 0 0
    outer loop
      vertex 4 0.299999 0
      vertex 4 0 51.2
      vertex 4 0 0
    endloop
  endfacet
  facet normal -1 0 0
    outer loop
      vertex 20.8 0 0
      vertex 20.8 0.299999 51.2
      vertex 20.8 0.299999 0
    endloop
  endfacet
  facet normal -1 -0 0
    outer loop
      vertex 20.8 0.299999 51.2
      vertex 20.8 0 0
      vertex 20.8 0 51.2
    endloop
  endfacet
  facet normal 1 -0 0
    outer loop
      vertex 4 24.5 51.2
      vertex 4 24.8 0
      vertex 4 24.8 51.2
    endloop
  endfacet
  facet normal 1 0 0
    outer loop
      vertex 4 24.8 0
      vertex 4 24.5 51.2
      vertex 4 24.5 0
    endloop
  endfacet
  facet normal -1 0 0
    outer loop
      vertex 20.8 24.5 0
      vertex 20.8 24.8 51.2
      vertex 20.8 24.8 0
    endloop
  endfacet
  facet normal -1 -0 0
    outer loop
      vertex 20.8 24.8 51.2
      vertex 20.8 24.5 0
      vertex 20.8 24.5 51.2
    endloop
  endfacet
  facet normal 0 1 0
    outer loop
      vertex 14.7729 24.5 42.3532
      vertex 20.8 24.5 51.2
      vertex 16.6271 24.5 42.3532
    endloop
  endfacet
  facet normal 0 1 0
    outer loop
      vertex 20.8 24.5 51.2
      vertex 18.1271 24.5 41.2634
      vertex 16.6271 24.5 42.3532
    endloop
  endfacet
  facet normal 0 1 0
    outer loop
      vertex 20.8 24.5 51.2
      vertex 18.7 24.5 39.5
      vertex 18.1271 24.5 41.2634
    endloop
  endfacet
  facet normal 0 1 0
    outer loop
      vertex 16.6271 24.5 36.6468
      vertex 20.8 24.5 0
      vertex 14.7729 24.5 36.6468
    endloop
  endfacet
  facet normal 0 1 0
    outer loop
      vertex 18.1271 24.5 37.7366
      vertex 20.8 24.5 0
      vertex 16.6271 24.5 36.6468
    endloop
  endfacet
  facet normal 0 1 0
    outer loop
      vertex 18.7 24.5 39.5
      vertex 20.8 24.5 0
      vertex 18.1271 24.5 37.7366
    endloop
  endfacet
  facet normal 0 1 -0
    outer loop
      vertex 20.8 24.5 0
      vertex 18.7 24.5 39.5
      vertex 20.8 24.5 51.2
    endloop
  endfacet
  facet normal 0 1 0
    outer loop
      vertex 20.8 24.5 51.2
      vertex 14.7729 24.5 42.3532
      vertex 4 24.5 51.2
    endloop
  endfacet
  facet normal 0 1 -0
    outer loop
      vertex 13.2729 24.5 41.2634
      vertex 4 24.5 51.2
      vertex 14.7729 24.5 42.3532
    endloop
  endfacet
  facet normal 0 1 -0
    outer loop
      vertex 12.7 24.5 39.5
      vertex 4 24.5 51.2
      vertex 13.2729 24.5 41.2634
    endloop
  endfacet
  facet normal 0 1 0
    outer loop
      vertex 13.2729 24.5 37.7366
      vertex 4 24.5 51.2
      vertex 12.7 24.5 39.5
    endloop
  endfacet
  facet normal 0 1 0
    outer loop
      vertex 4 24.5 0
      vertex 14.7729 24.5 36.6468
      vertex 20.8 24.5 0
    endloop
  endfacet
  facet normal 0 1 0
    outer loop
      vertex 14.7729 24.5 36.6468
      vertex 4 24.5 0
      vertex 13.2729 24.5 37.7366
    endloop
  endfacet
  facet normal 0 1 0
    outer loop
      vertex 13.2729 24.5 37.7366
      vertex 4 24.5 0
      vertex 4 24.5 51.2
    endloop
  endfacet
  facet normal -1 0 0
    outer loop
      vertex 0.599999 10 0
      vertex 0.599999 20.8 51.2
      vertex 0.599999 20.8 0
    endloop
  endfacet
  facet normal -1 -0 0
    outer loop
      vertex 0.599999 20.8 51.2
      vertex 0.599999 10 0
      vertex 0.599999 10 51.2
    endloop
  endfacet
  facet normal 0 -1 0
    outer loop
      vertex 0 20.8 0
      vertex 0.599999 20.8 51.2
      vertex 0 20.8 51.2
    endloop
  endfacet
  facet normal 0 -1 -0
    outer loop
      vertex 0.599999 20.8 51.2
      vertex 0 20.8 0
      vertex 0.599999 20.8 0
    endloop
  endfacet
  facet normal 0 1 -0
    outer loop
      vertex 0.599999 10 0
      vertex 0 10 51.2
      vertex 0.599999 10 51.2
    endloop
  endfacet
  facet normal 0 1 0
    outer loop
      vertex 0 10 51.2
      vertex 0.599999 10 0
      vertex 0 10 0
    endloop
  endfacet
  facet normal 1 -0 0
    outer loop
      vertex 24.2 10 51.2
      vertex 24.2 20.8 0
      vertex 24.2 20.8 51.2
    endloop
  endfacet
  facet normal 1 0 0
    outer loop
      vertex 24.2 20.8 0
      vertex 24.2 10 51.2
      vertex 24.2 10 0
    endloop
  endfacet
  facet normal 0 -1 0
    outer loop
      vertex 24.2 20.8 0
      vertex 24.8 20.8 51.2
      vertex 24.2 20.8 51.2
    endloop
  endfacet
  facet normal 0 -1 -0
    outer loop
      vertex 24.8 20.8 51.2
      vertex 24.2 20.8 0
      vertex 24.8 20.8 0
    endloop
  endfacet
  facet normal 0 1 -0
    outer loop
      vertex 24.8 10 0
      vertex 24.2 10 51.2
      vertex 24.8 10 51.2
    endloop
  endfacet
  facet normal 0 1 0
    outer loop
      vertex 24.2 10 51.2
      vertex 24.8 10 0
      vertex 24.2 10 0
    endloop
  endfacet
  facet normal -1 0 0
    outer loop
      vertex 0.4 0 0
      vertex 0.4 1.4 51.2
      vertex 0.4 1.4 0
    endloop
  endfacet
  facet normal -1 -0 0
    outer loop
      vertex 0.4 1.4 51.2
      vertex 0.4 0 0
      vertex 0.4 0 51.2
    endloop
  endfacet
  facet normal 0 -1 0
    outer loop
      vertex 0 1.4 0
      vertex 0.4 1.4 51.2
      vertex 0 1.4 51.2
    endloop
  endfacet
  facet normal 0 -1 -0
    outer loop
      vertex 0.4 1.4 51.2
      vertex 0 1.4 0
      vertex 0.4 1.4 0
    endloop
  endfacet
  facet normal 1 -0 0
    outer loop
      vertex 24.4 0 51.2
      vertex 24.4 1.4 0
      vertex 24.4 1.4 51.2
    endloop
  endfacet
  facet normal 1 0 0
    outer loop
      vertex 24.4 1.4 0
      vertex 24.4 0 51.2
      vertex 24.4 0 0
    endloop
  endfacet
  facet normal 0 -1 0
    outer loop
      vertex 24.4 1.4 0
      vertex 24.8 1.4 51.2
      vertex 24.4 1.4 51.2
    endloop
  endfacet
  facet normal 0 -1 -0
    outer loop
      vertex 24.8 1.4 51.2
      vertex 24.4 1.4 0
      vertex 24.8 1.4 0
    endloop
  endfacet
  facet normal -1 0 0
    outer loop
      vertex 0.4 24.4 0
      vertex 0.4 24.8 51.2
      vertex 0.4 24.8 0
    endloop
  endfacet
  facet normal -1 -0 0
    outer loop
      vertex 0.4 24.8 51.2
      vertex 0.4 24.4 0
      vertex 0.4 24.4 51.2
    endloop
  endfacet
  facet normal 0 1 -0
    outer loop
      vertex 0.4 24.4 0
      vertex 0 24.4 51.2
      vertex 0.4 24.4 51.2
    endloop
  endfacet
  facet normal 0 1 0
    outer loop
      vertex 0 24.4 51.2
      vertex 0.4 24.4 0
      vertex 0 24.4 0
    endloop
  endfacet
  facet normal 1 -0 0
    outer loop
      vertex 24.4 24.4 51.2
      vertex 24.4 24.8 0
      vertex 24.4 24.8 51.2
    endloop
  endfacet
  facet normal 1 0 0
    outer loop
      vertex 24.4 24.8 0
      vertex 24.4 24.4 51.2
      vertex 24.4 24.4 0
    endloop
  endfacet
  facet normal 0 1 -0
    outer loop
      vertex 24.8 24.4 0
      vertex 24.4 24.4 51.2
      vertex 24.8 24.4 51.2
    endloop
  endfacet
  facet normal 0 1 0
    outer loop
      vertex 24.4 24.4 51.2
      vertex 24.8 24.4 0
      vertex 24.4 24.4 0
    endloop
  endfacet
  facet normal -0.951056 0 0.309018
    outer loop
      vertex 18.1271 23.3 37.7366
      vertex 18.7 24.5 39.5
      vertex 18.1271 24.5 37.7366
    endloop
  endfacet
  facet normal -0.951056 0 0.309018
    outer loop
      vertex 18.7 24.5 39.5
      vertex 18.1271 23.3 37.7366
      vertex 18.7 23.3 39.5
    endloop
  endfacet
  facet normal -0 0 1
    outer loop
      vertex 14.7729 24.5 36.6468
      vertex 16.6271 23.3 36.6468
      vertex 16.6271 24.5 36.6468
    endloop
  endfacet
  facet normal 0 0 1
    outer loop
      vertex 16.6271 23.3 36.6468
      vertex 14.7729 24.5 36.6468
      vertex 14.7729 23.3 36.6468
    endloop
  endfacet
  facet normal -0.587786 0 0.809016
    outer loop
      vertex 16.6271 24.5 36.6468
      vertex 18.1271 23.3 37.7366
      vertex 18.1271 24.5 37.7366
    endloop
  endfacet
  facet normal -0.587786 0 0.809016
    outer loop
      vertex 18.1271 23.3 37.7366
      vertex 16.6271 24.5 36.6468
      vertex 16.6271 23.3 36.6468
    endloop
  endfacet
  facet normal 0.587786 0 0.809016
    outer loop
      vertex 13.2729 24.5 37.7366
      vertex 14.7729 23.3 36.6468
      vertex 14.7729 24.5 36.6468
    endloop
  endfacet
  facet normal 0.587786 0 0.809016
    outer loop
      vertex 14.7729 23.3 36.6468
      vertex 13.2729 24.5 37.7366
      vertex 13.2729 23.3 37.7366
    endloop
  endfacet
  facet normal -0.587785 0 -0.809017
    outer loop
      vertex 16.6271 23.3 42.3532
      vertex 18.1271 24.5 41.2634
      vertex 18.1271 23.3 41.2634
    endloop
  endfacet
  facet normal -0.587785 0 -0.809017
    outer loop
      vertex 18.1271 24.5 41.2634
      vertex 16.6271 23.3 42.3532
      vertex 16.6271 24.5 42.3532
    endloop
  endfacet
  facet normal 0.587785 0 -0.809017
    outer loop
      vertex 13.2729 23.3 41.2634
      vertex 14.7729 24.5 42.3532
      vertex 14.7729 23.3 42.3532
    endloop
  endfacet
  facet normal 0.587785 0 -0.809017
    outer loop
      vertex 14.7729 24.5 42.3532
      vertex 13.2729 23.3 41.2634
      vertex 13.2729 24.5 41.2634
    endloop
  endfacet
  facet normal 0.951057 -0 0.309017
    outer loop
      vertex 12.7 23.3 39.5
      vertex 13.2729 24.5 37.7366
      vertex 12.7 24.5 39.5
    endloop
  endfacet
  facet normal 0.951057 0 0.309017
    outer loop
      vertex 13.2729 24.5 37.7366
      vertex 12.7 23.3 39.5
      vertex 13.2729 23.3 37.7366
    endloop
  endfacet
  facet normal -0.951056 0 -0.309018
    outer loop
      vertex 18.7 23.3 39.5
      vertex 18.1271 24.5 41.2634
      vertex 18.7 24.5 39.5
    endloop
  endfacet
  facet normal -0.951056 -0 -0.309018
    outer loop
      vertex 18.1271 24.5 41.2634
      vertex 18.7 23.3 39.5
      vertex 18.1271 23.3 41.2634
    endloop
  endfacet
  facet normal 0 0 -1
    outer loop
      vertex 14.7729 23.3 42.3532
      vertex 16.6271 24.5 42.3532
      vertex 16.6271 23.3 42.3532
    endloop
  endfacet
  facet normal -0 0 -1
    outer loop
      vertex 16.6271 24.5 42.3532
      vertex 14.7729 23.3 42.3532
      vertex 14.7729 24.5 42.3532
    endloop
  endfacet
  facet normal 0.951057 0 -0.309017
    outer loop
      vertex 13.2729 23.3 41.2634
      vertex 12.7 24.5 39.5
      vertex 13.2729 24.5 41.2634
    endloop
  endfacet
  facet normal 0.951057 0 -0.309017
    outer loop
      vertex 12.7 24.5 39.5
      vertex 13.2729 23.3 41.2634
      vertex 12.7 23.3 39.5
    endloop
  endfacet
endsolid OpenSCAD_Model
