solid OpenSCAD_Model
  facet normal -1 0 0
    outer loop
      vertex 0 86.9 0
      vertex 0 8 34.5
      vertex 0 86.9 34.5
    endloop
  endfacet
  facet normal -1 0 0
    outer loop
      vertex 0 0 0
      vertex 0 8 34.5
      vertex 0 86.9 0
    endloop
  endfacet
  facet normal -1 0 0
    outer loop
      vertex 0 0 49.2
      vertex 0 8 34.5
      vertex 0 0 0
    endloop
  endfacet
  facet normal -1 0 0
    outer loop
      vertex 0 8 34.5
      vertex 0 0 49.2
      vertex 0 8 49.2
    endloop
  endfacet
  facet normal 0 0 1
    outer loop
      vertex 73.2 86.9 34.5
      vertex 72 85.7 34.5
      vertex 73.2 8 34.5
    endloop
  endfacet
  facet normal -0 0 1
    outer loop
      vertex 68 86.9 34.5
      vertex 72 85.7 34.5
      vertex 73.2 86.9 34.5
    endloop
  endfacet
  facet normal 0 0 1
    outer loop
      vertex 72 85.7 34.5
      vertex 68 86.9 34.5
      vertex 68 85.7 34.5
    endloop
  endfacet
  facet normal 0 0 1
    outer loop
      vertex 73.2 8 34.5
      vertex 72 85.7 34.5
      vertex 72 8 34.5
    endloop
  endfacet
  facet normal 0 0 1
    outer loop
      vertex 62 86.9 34.5
      vertex 1.2 85.7 34.5
      vertex 62 85.7 34.5
    endloop
  endfacet
  facet normal -0 0 1
    outer loop
      vertex 0 86.9 34.5
      vertex 1.2 85.7 34.5
      vertex 62 86.9 34.5
    endloop
  endfacet
  facet normal 0 0 1
    outer loop
      vertex 0 8 34.5
      vertex 1.2 85.7 34.5
      vertex 0 86.9 34.5
    endloop
  endfacet
  facet normal 0 0 1
    outer loop
      vertex 1.2 85.7 34.5
      vertex 0 8 34.5
      vertex 1.2 8 34.5
    endloop
  endfacet
  facet normal -0 0 1
    outer loop
      vertex 1.2 1.2 34.5
      vertex 71.8 1.1 34.5
      vertex 71.8 1.2 34.5
    endloop
  endfacet
  facet normal 0 0 1
    outer loop
      vertex 71.8 1.1 34.5
      vertex 1.2 1.2 34.5
      vertex 1.2 1.1 34.5
    endloop
  endfacet
  facet normal 1 0 0
    outer loop
      vertex 73.2 8 49.2
      vertex 73.2 0 49.2
      vertex 73.2 8 34.5
    endloop
  endfacet
  facet normal 1 -0 0
    outer loop
      vertex 73.2 8 34.5
      vertex 73.2 86.9 0
      vertex 73.2 86.9 34.5
    endloop
  endfacet
  facet normal 1 0 0
    outer loop
      vertex 73.2 8 34.5
      vertex 73.2 0 0
      vertex 73.2 86.9 0
    endloop
  endfacet
  facet normal 1 0 0
    outer loop
      vertex 73.2 0 0
      vertex 73.2 8 34.5
      vertex 73.2 0 49.2
    endloop
  endfacet
  facet normal 0 0 -1
    outer loop
      vertex 0 0 0
      vertex 73.2 86.9 0
      vertex 73.2 0 0
    endloop
  endfacet
  facet normal -0 0 -1
    outer loop
      vertex 73.2 86.9 0
      vertex 0 0 0
      vertex 0 86.9 0
    endloop
  endfacet
  facet normal 0 -1 0
    outer loop
      vertex 0 0 0
      vertex 73.2 0 49.2
      vertex 0 0 49.2
    endloop
  endfacet
  facet normal 0 -1 -0
    outer loop
      vertex 73.2 0 49.2
      vertex 0 0 0
      vertex 73.2 0 0
    endloop
  endfacet
  facet normal 0 1 0
    outer loop
      vertex 73.2 86.9 34.5
      vertex 68 86.9 26.2
      vertex 68 86.9 34.5
    endloop
  endfacet
  facet normal 0 1 0
    outer loop
      vertex 68 86.9 26.2
      vertex 73.2 86.9 0
      vertex 62 86.9 26.2
    endloop
  endfacet
  facet normal 0 1 -0
    outer loop
      vertex 73.2 86.9 0
      vertex 68 86.9 26.2
      vertex 73.2 86.9 34.5
    endloop
  endfacet
  facet normal 0 1 -0
    outer loop
      vertex 62 86.9 26.2
      vertex 0 86.9 34.5
      vertex 62 86.9 34.5
    endloop
  endfacet
  facet normal 0 1 0
    outer loop
      vertex 0 86.9 0
      vertex 62 86.9 26.2
      vertex 73.2 86.9 0
    endloop
  endfacet
  facet normal 0 1 0
    outer loop
      vertex 62 86.9 26.2
      vertex 0 86.9 0
      vertex 0 86.9 34.5
    endloop
  endfacet
  facet normal 1 0 0
    outer loop
      vertex 1.2 6.5 49.2
      vertex 1.2 1.2 34.5
      vertex 1.2 6.5 24
    endloop
  endfacet
  facet normal 1 -0 0
    outer loop
      vertex 1.2 1.1 49.2
      vertex 1.2 1.2 34.5
      vertex 1.2 6.5 49.2
    endloop
  endfacet
  facet normal 1 0 0
    outer loop
      vertex 1.2 1.2 34.5
      vertex 1.2 1.1 49.2
      vertex 1.2 1.1 34.5
    endloop
  endfacet
  facet normal 1 0 0
    outer loop
      vertex 1.2 6.5 24
      vertex 1.2 1.2 34.5
      vertex 1.2 1.2 24
    endloop
  endfacet
  facet normal 1 0 0
    outer loop
      vertex 1.2 85.7 34.5
      vertex 1.2 83.8 33
      vertex 1.2 85.7 33
    endloop
  endfacet
  facet normal 1 0 0
    outer loop
      vertex 1.2 83.8 33
      vertex 1.2 10 32
      vertex 1.2 83.8 29
    endloop
  endfacet
  facet normal 1 -0 0
    outer loop
      vertex 1.2 8 34.5
      vertex 1.2 83.8 33
      vertex 1.2 85.7 34.5
    endloop
  endfacet
  facet normal 1 0 0
    outer loop
      vertex 1.2 83.8 33
      vertex 1.2 8 34.5
      vertex 1.2 10 32
    endloop
  endfacet
  facet normal 1 0 0
    outer loop
      vertex 1.2 10 32
      vertex 1.2 8 34.5
      vertex 1.2 8 32
    endloop
  endfacet
  facet normal 1 -0 0
    outer loop
      vertex 1.2 83.8 29
      vertex 1.2 85.7 1.2
      vertex 1.2 85.7 29
    endloop
  endfacet
  facet normal 1 0 0
    outer loop
      vertex 1.2 10 25.9986
      vertex 1.2 83.8 29
      vertex 1.2 10 32
    endloop
  endfacet
  facet normal 1 0 0
    outer loop
      vertex 1.2 83.8 29
      vertex 1.2 10 25.9986
      vertex 1.2 85.7 1.2
    endloop
  endfacet
  facet normal 1 0 0
    outer loop
      vertex 1.2 1.2 1.2
      vertex 1.2 10 25.9986
      vertex 1.2 1.2 17.1986
    endloop
  endfacet
  facet normal 1 0 0
    outer loop
      vertex 1.2 10 25.9986
      vertex 1.2 1.2 1.2
      vertex 1.2 85.7 1.2
    endloop
  endfacet
  facet normal -1 0 0
    outer loop
      vertex 72 85.7 1.2
      vertex 72 83.8 29
      vertex 72 85.7 29
    endloop
  endfacet
  facet normal -1 0 0
    outer loop
      vertex 72 8 34.5
      vertex 72 83.8 29
      vertex 72 8 24
    endloop
  endfacet
  facet normal -1 0 0
    outer loop
      vertex 72 85.7 1.2
      vertex 72 8 24
      vertex 72 83.8 29
    endloop
  endfacet
  facet normal -1 0 0
    outer loop
      vertex 72 1.2 1.2
      vertex 72 8 24
      vertex 72 85.7 1.2
    endloop
  endfacet
  facet normal -1 -0 0
    outer loop
      vertex 72 8 24
      vertex 72 1.2 1.2
      vertex 72 1.2 24
    endloop
  endfacet
  facet normal -1 0 0
    outer loop
      vertex 72 83.8 33
      vertex 72 85.7 34.5
      vertex 72 85.7 33
    endloop
  endfacet
  facet normal -1 0 0
    outer loop
      vertex 72 83.8 29
      vertex 72 8 34.5
      vertex 72 83.8 33
    endloop
  endfacet
  facet normal -1 0 0
    outer loop
      vertex 72 83.8 33
      vertex 72 8 34.5
      vertex 72 85.7 34.5
    endloop
  endfacet
  facet normal 0 -1 0
    outer loop
      vertex 68 85.7 33
      vertex 72 85.7 34.5
      vertex 68 85.7 34.5
    endloop
  endfacet
  facet normal 0 -1 -0
    outer loop
      vertex 72 85.7 34.5
      vertex 68 85.7 33
      vertex 72 85.7 33
    endloop
  endfacet
  facet normal 0 -1 0
    outer loop
      vertex 1.2 85.7 1.2
      vertex 50 85.7 29
      vertex 1.2 85.7 29
    endloop
  endfacet
  facet normal 0 -1 0
    outer loop
      vertex 50 85.7 29
      vertex 72 85.7 1.2
      vertex 62 85.7 26.2
    endloop
  endfacet
  facet normal 0 -1 0
    outer loop
      vertex 72 85.7 1.2
      vertex 50 85.7 29
      vertex 1.2 85.7 1.2
    endloop
  endfacet
  facet normal 0 -1 0
    outer loop
      vertex 50 85.7 33
      vertex 1.2 85.7 34.5
      vertex 1.2 85.7 33
    endloop
  endfacet
  facet normal 0 -1 0
    outer loop
      vertex 1.2 85.7 34.5
      vertex 50 85.7 33
      vertex 62 85.7 34.5
    endloop
  endfacet
  facet normal 0 -1 0
    outer loop
      vertex 50 85.7 29
      vertex 62 85.7 34.5
      vertex 50 85.7 33
    endloop
  endfacet
  facet normal 0 -1 -0
    outer loop
      vertex 62 85.7 34.5
      vertex 50 85.7 29
      vertex 62 85.7 26.2
    endloop
  endfacet
  facet normal 0 -1 0
    outer loop
      vertex 68 85.7 26.2
      vertex 72 85.7 29
      vertex 68 85.7 29
    endloop
  endfacet
  facet normal 0 -1 0
    outer loop
      vertex 68 85.7 26.2
      vertex 72 85.7 1.2
      vertex 72 85.7 29
    endloop
  endfacet
  facet normal 0 -1 0
    outer loop
      vertex 62 85.7 26.2
      vertex 72 85.7 1.2
      vertex 68 85.7 26.2
    endloop
  endfacet
  facet normal -0 0 1
    outer loop
      vertex 1.2 85.7 1.2
      vertex 72 1.2 1.2
      vertex 72 85.7 1.2
    endloop
  endfacet
  facet normal 0 0 1
    outer loop
      vertex 72 1.2 1.2
      vertex 1.2 85.7 1.2
      vertex 1.2 1.2 1.2
    endloop
  endfacet
  facet normal 0 1 -0
    outer loop
      vertex 15 1.2 17.1986
      vertex 10 1.2 24
      vertex 15 1.2 24
    endloop
  endfacet
  facet normal 0 1 0
    outer loop
      vertex 10 1.2 24
      vertex 15 1.2 17.1986
      vertex 10 1.2 17.1986
    endloop
  endfacet
  facet normal 0 1 -0
    outer loop
      vertex 28 1.2 17.1986
      vertex 20 1.2 24
      vertex 28 1.2 24
    endloop
  endfacet
  facet normal 0 1 0
    outer loop
      vertex 20 1.2 24
      vertex 28 1.2 17.1986
      vertex 20 1.2 17.1986
    endloop
  endfacet
  facet normal 0 1 -0
    outer loop
      vertex 50 1.2 17.1986
      vertex 42 1.2 24
      vertex 50 1.2 24
    endloop
  endfacet
  facet normal 0 1 0
    outer loop
      vertex 42 1.2 24
      vertex 50 1.2 17.1986
      vertex 42 1.2 17.1986
    endloop
  endfacet
  facet normal 0 1 -0
    outer loop
      vertex 60 1.2 17.1986
      vertex 55 1.2 24
      vertex 60 1.2 24
    endloop
  endfacet
  facet normal 0 1 0
    outer loop
      vertex 55 1.2 24
      vertex 60 1.2 17.1986
      vertex 55 1.2 17.1986
    endloop
  endfacet
  facet normal 0 1 0
    outer loop
      vertex 70 1.2 24
      vertex 71.8 1.2 34.5
      vertex 71.8 1.2 24
    endloop
  endfacet
  facet normal 0 1 0
    outer loop
      vertex 60 1.2 24
      vertex 71.8 1.2 34.5
      vertex 70 1.2 24
    endloop
  endfacet
  facet normal 0 1 0
    outer loop
      vertex 55 1.2 24
      vertex 71.8 1.2 34.5
      vertex 60 1.2 24
    endloop
  endfacet
  facet normal 0 1 0
    outer loop
      vertex 50 1.2 24
      vertex 71.8 1.2 34.5
      vertex 55 1.2 24
    endloop
  endfacet
  facet normal 0 1 0
    outer loop
      vertex 42 1.2 24
      vertex 71.8 1.2 34.5
      vertex 50 1.2 24
    endloop
  endfacet
  facet normal 0 1 0
    outer loop
      vertex 71.8 1.2 34.5
      vertex 42 1.2 24
      vertex 1.2 1.2 34.5
    endloop
  endfacet
  facet normal 0 1 -0
    outer loop
      vertex 28 1.2 24
      vertex 1.2 1.2 34.5
      vertex 42 1.2 24
    endloop
  endfacet
  facet normal 0 1 -0
    outer loop
      vertex 20 1.2 24
      vertex 1.2 1.2 34.5
      vertex 28 1.2 24
    endloop
  endfacet
  facet normal 0 1 -0
    outer loop
      vertex 15 1.2 24
      vertex 1.2 1.2 34.5
      vertex 20 1.2 24
    endloop
  endfacet
  facet normal 0 1 -0
    outer loop
      vertex 10 1.2 24
      vertex 1.2 1.2 34.5
      vertex 15 1.2 24
    endloop
  endfacet
  facet normal 0 1 0
    outer loop
      vertex 1.2 1.2 34.5
      vertex 10 1.2 24
      vertex 1.2 1.2 24
    endloop
  endfacet
  facet normal 0 1 0
    outer loop
      vertex 70 1.2 17.1986
      vertex 71.8 1.2 24
      vertex 72 1.2 24
    endloop
  endfacet
  facet normal 0 1 0
    outer loop
      vertex 71.8 1.2 24
      vertex 70 1.2 17.1986
      vertex 70 1.2 24
    endloop
  endfacet
  facet normal 0 1 0
    outer loop
      vertex 72 1.2 1.2
      vertex 60 1.2 17.1986
      vertex 70 1.2 17.1986
    endloop
  endfacet
  facet normal 0 1 0
    outer loop
      vertex 60 1.2 17.1986
      vertex 72 1.2 1.2
      vertex 55 1.2 17.1986
    endloop
  endfacet
  facet normal 0 1 0
    outer loop
      vertex 55 1.2 17.1986
      vertex 72 1.2 1.2
      vertex 50 1.2 17.1986
    endloop
  endfacet
  facet normal 0 1 0
    outer loop
      vertex 50 1.2 17.1986
      vertex 72 1.2 1.2
      vertex 42 1.2 17.1986
    endloop
  endfacet
  facet normal 0 1 0
    outer loop
      vertex 1.2 1.2 1.2
      vertex 42 1.2 17.1986
      vertex 72 1.2 1.2
    endloop
  endfacet
  facet normal 0 1 0
    outer loop
      vertex 42 1.2 17.1986
      vertex 1.2 1.2 1.2
      vertex 28 1.2 17.1986
    endloop
  endfacet
  facet normal 0 1 0
    outer loop
      vertex 28 1.2 17.1986
      vertex 1.2 1.2 1.2
      vertex 20 1.2 17.1986
    endloop
  endfacet
  facet normal 0 1 0
    outer loop
      vertex 20 1.2 17.1986
      vertex 1.2 1.2 1.2
      vertex 15 1.2 17.1986
    endloop
  endfacet
  facet normal 0 1 -0
    outer loop
      vertex 72 1.2 1.2
      vertex 70 1.2 17.1986
      vertex 72 1.2 24
    endloop
  endfacet
  facet normal 0 1 0
    outer loop
      vertex 15 1.2 17.1986
      vertex 1.2 1.2 1.2
      vertex 10 1.2 17.1986
    endloop
  endfacet
  facet normal 0 1 0
    outer loop
      vertex 10 1.2 17.1986
      vertex 1.2 1.2 1.2
      vertex 1.2 1.2 17.1986
    endloop
  endfacet
  facet normal 1 -0 0
    outer loop
      vertex 62 85.7 34.5
      vertex 62 86.9 26.2
      vertex 62 86.9 34.5
    endloop
  endfacet
  facet normal 1 0 0
    outer loop
      vertex 62 86.9 26.2
      vertex 62 85.7 34.5
      vertex 62 85.7 26.2
    endloop
  endfacet
  facet normal -1 0 0
    outer loop
      vertex 68 85.7 29
      vertex 68 85.8 33
      vertex 68 85.8 29
    endloop
  endfacet
  facet normal -1 0 0
    outer loop
      vertex 68 85.7 29
      vertex 68 85.7 33
      vertex 68 85.8 33
    endloop
  endfacet
  facet normal -1 0 0
    outer loop
      vertex 68 83.8 29
      vertex 68 85.7 33
      vertex 68 85.7 29
    endloop
  endfacet
  facet normal -1 -0 0
    outer loop
      vertex 68 85.7 33
      vertex 68 83.8 29
      vertex 68 83.8 33
    endloop
  endfacet
  facet normal -1 0 0
    outer loop
      vertex 68 86.9 26.2
      vertex 68 85.8 29
      vertex 68 86.9 34.5
    endloop
  endfacet
  facet normal -1 0 0
    outer loop
      vertex 68 85.7 26.2
      vertex 68 85.8 29
      vertex 68 86.9 26.2
    endloop
  endfacet
  facet normal -1 -0 0
    outer loop
      vertex 68 85.8 29
      vertex 68 85.7 26.2
      vertex 68 85.7 29
    endloop
  endfacet
  facet normal -1 0 0
    outer loop
      vertex 68 85.8 33
      vertex 68 86.9 34.5
      vertex 68 85.8 29
    endloop
  endfacet
  facet normal -1 0 0
    outer loop
      vertex 68 85.7 34.5
      vertex 68 85.8 33
      vertex 68 85.7 33
    endloop
  endfacet
  facet normal -1 0 0
    outer loop
      vertex 68 85.8 33
      vertex 68 85.7 34.5
      vertex 68 86.9 34.5
    endloop
  endfacet
  facet normal -0 0 1
    outer loop
      vertex 62 86.9 26.2
      vertex 68 85.7 26.2
      vertex 68 86.9 26.2
    endloop
  endfacet
  facet normal 0 0 1
    outer loop
      vertex 68 85.7 26.2
      vertex 62 86.9 26.2
      vertex 62 85.7 26.2
    endloop
  endfacet
  facet normal -1 0 0
    outer loop
      vertex 30 4 1.2
      vertex 30 5.2 6.2
      vertex 30 5.2 1.2
    endloop
  endfacet
  facet normal -1 -0 0
    outer loop
      vertex 30 5.2 6.2
      vertex 30 4 1.2
      vertex 30 4 6.2
    endloop
  endfacet
  facet normal -0 0 1
    outer loop
      vertex 30 5.2 6.2
      vertex 50.5 4 6.2
      vertex 50.5 5.2 6.2
    endloop
  endfacet
  facet normal 0 0 1
    outer loop
      vertex 50.5 4 6.2
      vertex 30 5.2 6.2
      vertex 30 4 6.2
    endloop
  endfacet
  facet normal 1 -0 0
    outer loop
      vertex 50.5 4 6.2
      vertex 50.5 5.2 1.2
      vertex 50.5 5.2 6.2
    endloop
  endfacet
  facet normal 1 0 0
    outer loop
      vertex 50.5 5.2 1.2
      vertex 50.5 4 6.2
      vertex 50.5 4 1.2
    endloop
  endfacet
  facet normal 0 1 -0
    outer loop
      vertex 50.5 5.2 1.2
      vertex 30 5.2 6.2
      vertex 50.5 5.2 6.2
    endloop
  endfacet
  facet normal 0 1 0
    outer loop
      vertex 30 5.2 6.2
      vertex 50.5 5.2 1.2
      vertex 30 5.2 1.2
    endloop
  endfacet
  facet normal 0 0 -1
    outer loop
      vertex 30 4 1.2
      vertex 50.5 5.2 1.2
      vertex 50.5 4 1.2
    endloop
  endfacet
  facet normal -0 0 -1
    outer loop
      vertex 50.5 5.2 1.2
      vertex 30 4 1.2
      vertex 30 5.2 1.2
    endloop
  endfacet
  facet normal 0 -1 0
    outer loop
      vertex 30 4 1.2
      vertex 50.5 4 6.2
      vertex 30 4 6.2
    endloop
  endfacet
  facet normal 0 -1 -0
    outer loop
      vertex 50.5 4 6.2
      vertex 30 4 1.2
      vertex 50.5 4 1.2
    endloop
  endfacet
  facet normal -1 0 0
    outer loop
      vertex 30 72.7 1.2
      vertex 30 73.9 6.2
      vertex 30 73.9 1.2
    endloop
  endfacet
  facet normal -1 -0 0
    outer loop
      vertex 30 73.9 6.2
      vertex 30 72.7 1.2
      vertex 30 72.7 6.2
    endloop
  endfacet
  facet normal -0 0 1
    outer loop
      vertex 30 73.9 6.2
      vertex 45.5 72.7 6.2
      vertex 45.5 73.9 6.2
    endloop
  endfacet
  facet normal 0 0 1
    outer loop
      vertex 45.5 72.7 6.2
      vertex 30 73.9 6.2
      vertex 30 72.7 6.2
    endloop
  endfacet
  facet normal 1 -0 0
    outer loop
      vertex 45.5 72.7 6.2
      vertex 45.5 73.9 1.2
      vertex 45.5 73.9 6.2
    endloop
  endfacet
  facet normal 1 0 0
    outer loop
      vertex 45.5 73.9 1.2
      vertex 45.5 72.7 6.2
      vertex 45.5 72.7 1.2
    endloop
  endfacet
  facet normal 0 0 -1
    outer loop
      vertex 30 72.7 1.2
      vertex 45.5 73.9 1.2
      vertex 45.5 72.7 1.2
    endloop
  endfacet
  facet normal -0 0 -1
    outer loop
      vertex 45.5 73.9 1.2
      vertex 30 72.7 1.2
      vertex 30 73.9 1.2
    endloop
  endfacet
  facet normal 0 -1 0
    outer loop
      vertex 30 72.7 1.2
      vertex 45.5 72.7 6.2
      vertex 30 72.7 6.2
    endloop
  endfacet
  facet normal 0 -1 -0
    outer loop
      vertex 45.5 72.7 6.2
      vertex 30 72.7 1.2
      vertex 45.5 72.7 1.2
    endloop
  endfacet
  facet normal 0 1 -0
    outer loop
      vertex 45.5 73.9 1.2
      vertex 30 73.9 6.2
      vertex 45.5 73.9 6.2
    endloop
  endfacet
  facet normal 0 1 0
    outer loop
      vertex 30 73.9 6.2
      vertex 45.5 73.9 1.2
      vertex 30 73.9 1.2
    endloop
  endfacet
  facet normal -0 0 1
    outer loop
      vertex 1.2 10 32
      vertex 10 8 32
      vertex 10 10 32
    endloop
  endfacet
  facet normal 0 0 1
    outer loop
      vertex 10 8 32
      vertex 1.2 10 32
      vertex 1.2 8 32
    endloop
  endfacet
  facet normal 1 -0 0
    outer loop
      vertex 10 8 32
      vertex 10 10 25.9986
      vertex 10 10 32
    endloop
  endfacet
  facet normal 1 0 0
    outer loop
      vertex 10 8 24
      vertex 10 10 25.9986
      vertex 10 8 32
    endloop
  endfacet
  facet normal 1 0 0
    outer loop
      vertex 10 1.2 17.1986
      vertex 10 6.5 24
      vertex 10 1.2 24
    endloop
  endfacet
  facet normal 1 -0 0
    outer loop
      vertex 10 8 24
      vertex 10 1.2 17.1986
      vertex 10 10 25.9986
    endloop
  endfacet
  facet normal 1 -0 0
    outer loop
      vertex 10 6.5 24
      vertex 10 1.2 17.1986
      vertex 10 8 24
    endloop
  endfacet
  facet normal 0 1 -0
    outer loop
      vertex 10 10 25.9986
      vertex 1.2 10 32
      vertex 10 10 32
    endloop
  endfacet
  facet normal 0 1 0
    outer loop
      vertex 1.2 10 32
      vertex 10 10 25.9986
      vertex 1.2 10 25.9986
    endloop
  endfacet
  facet normal -1 0 0
    outer loop
      vertex 15 8 32
      vertex 15 10 25.9986
      vertex 15 8 24
    endloop
  endfacet
  facet normal -1 0 0
    outer loop
      vertex 15 1.2 17.1986
      vertex 15 8 24
      vertex 15 10 25.9986
    endloop
  endfacet
  facet normal -1 0 0
    outer loop
      vertex 15 1.2 17.1986
      vertex 15 6.5 24
      vertex 15 8 24
    endloop
  endfacet
  facet normal -1 -0 0
    outer loop
      vertex 15 6.5 24
      vertex 15 1.2 17.1986
      vertex 15 1.2 24
    endloop
  endfacet
  facet normal -1 0 0
    outer loop
      vertex 15 10 25.9986
      vertex 15 8 32
      vertex 15 10 32
    endloop
  endfacet
  facet normal -0 0 1
    outer loop
      vertex 15 10 32
      vertex 20 8 32
      vertex 20 10 32
    endloop
  endfacet
  facet normal 0 0 1
    outer loop
      vertex 20 8 32
      vertex 15 10 32
      vertex 15 8 32
    endloop
  endfacet
  facet normal 1 -0 0
    outer loop
      vertex 20 8 32
      vertex 20 10 25.9986
      vertex 20 10 32
    endloop
  endfacet
  facet normal 1 0 0
    outer loop
      vertex 20 8 24
      vertex 20 10 25.9986
      vertex 20 8 32
    endloop
  endfacet
  facet normal 1 0 0
    outer loop
      vertex 20 1.2 17.1986
      vertex 20 6.5 24
      vertex 20 1.2 24
    endloop
  endfacet
  facet normal 1 -0 0
    outer loop
      vertex 20 8 24
      vertex 20 1.2 17.1986
      vertex 20 10 25.9986
    endloop
  endfacet
  facet normal 1 -0 0
    outer loop
      vertex 20 6.5 24
      vertex 20 1.2 17.1986
      vertex 20 8 24
    endloop
  endfacet
  facet normal 0 1 -0
    outer loop
      vertex 20 10 25.9986
      vertex 15 10 32
      vertex 20 10 32
    endloop
  endfacet
  facet normal 0 1 0
    outer loop
      vertex 15 10 32
      vertex 20 10 25.9986
      vertex 15 10 25.9986
    endloop
  endfacet
  facet normal -1 0 0
    outer loop
      vertex 28 8 32
      vertex 28 10 25.9986
      vertex 28 8 24
    endloop
  endfacet
  facet normal -1 0 0
    outer loop
      vertex 28 1.2 17.1986
      vertex 28 8 24
      vertex 28 10 25.9986
    endloop
  endfacet
  facet normal -1 0 0
    outer loop
      vertex 28 1.2 17.1986
      vertex 28 6.5 24
      vertex 28 8 24
    endloop
  endfacet
  facet normal -1 -0 0
    outer loop
      vertex 28 6.5 24
      vertex 28 1.2 17.1986
      vertex 28 1.2 24
    endloop
  endfacet
  facet normal -1 0 0
    outer loop
      vertex 28 10 25.9986
      vertex 28 8 32
      vertex 28 10 32
    endloop
  endfacet
  facet normal -0 0 1
    outer loop
      vertex 28 10 32
      vertex 42 8 32
      vertex 42 10 32
    endloop
  endfacet
  facet normal 0 0 1
    outer loop
      vertex 42 8 32
      vertex 28 10 32
      vertex 28 8 32
    endloop
  endfacet
  facet normal 1 -0 0
    outer loop
      vertex 42 8 32
      vertex 42 10 25.9986
      vertex 42 10 32
    endloop
  endfacet
  facet normal 1 0 0
    outer loop
      vertex 42 8 24
      vertex 42 10 25.9986
      vertex 42 8 32
    endloop
  endfacet
  facet normal 1 0 0
    outer loop
      vertex 42 1.2 17.1986
      vertex 42 6.5 24
      vertex 42 1.2 24
    endloop
  endfacet
  facet normal 1 -0 0
    outer loop
      vertex 42 8 24
      vertex 42 1.2 17.1986
      vertex 42 10 25.9986
    endloop
  endfacet
  facet normal 1 -0 0
    outer loop
      vertex 42 6.5 24
      vertex 42 1.2 17.1986
      vertex 42 8 24
    endloop
  endfacet
  facet normal 0 1 -0
    outer loop
      vertex 42 10 25.9986
      vertex 28 10 32
      vertex 42 10 32
    endloop
  endfacet
  facet normal 0 1 0
    outer loop
      vertex 28 10 32
      vertex 42 10 25.9986
      vertex 28 10 25.9986
    endloop
  endfacet
  facet normal -1 0 0
    outer loop
      vertex 60 8 32
      vertex 60 10 25.9986
      vertex 60 8 24
    endloop
  endfacet
  facet normal -1 0 0
    outer loop
      vertex 60 1.2 17.1986
      vertex 60 8 24
      vertex 60 10 25.9986
    endloop
  endfacet
  facet normal -1 0 0
    outer loop
      vertex 60 1.2 17.1986
      vertex 60 6.5 24
      vertex 60 8 24
    endloop
  endfacet
  facet normal -1 -0 0
    outer loop
      vertex 60 6.5 24
      vertex 60 1.2 17.1986
      vertex 60 1.2 24
    endloop
  endfacet
  facet normal -1 0 0
    outer loop
      vertex 60 10 25.9986
      vertex 60 8 32
      vertex 60 10 32
    endloop
  endfacet
  facet normal -0 0 1
    outer loop
      vertex 60 10 32
      vertex 70 8 32
      vertex 70 10 32
    endloop
  endfacet
  facet normal 0 0 1
    outer loop
      vertex 70 8 32
      vertex 60 10 32
      vertex 60 8 32
    endloop
  endfacet
  facet normal 1 -0 0
    outer loop
      vertex 70 8 32
      vertex 70 10 25.9986
      vertex 70 10 32
    endloop
  endfacet
  facet normal 1 0 0
    outer loop
      vertex 70 8 24
      vertex 70 10 25.9986
      vertex 70 8 32
    endloop
  endfacet
  facet normal 1 0 0
    outer loop
      vertex 70 1.2 17.1986
      vertex 70 6.5 24
      vertex 70 1.2 24
    endloop
  endfacet
  facet normal 1 -0 0
    outer loop
      vertex 70 8 24
      vertex 70 1.2 17.1986
      vertex 70 10 25.9986
    endloop
  endfacet
  facet normal 1 -0 0
    outer loop
      vertex 70 6.5 24
      vertex 70 1.2 17.1986
      vertex 70 8 24
    endloop
  endfacet
  facet normal 0 1 -0
    outer loop
      vertex 70 10 25.9986
      vertex 60 10 32
      vertex 70 10 32
    endloop
  endfacet
  facet normal 0 1 0
    outer loop
      vertex 60 10 32
      vertex 70 10 25.9986
      vertex 60 10 25.9986
    endloop
  endfacet
  facet normal -1 0 0
    outer loop
      vertex 50 8 32
      vertex 50 10 25.9986
      vertex 50 8 24
    endloop
  endfacet
  facet normal -1 0 0
    outer loop
      vertex 50 1.2 17.1986
      vertex 50 8 24
      vertex 50 10 25.9986
    endloop
  endfacet
  facet normal -1 0 0
    outer loop
      vertex 50 1.2 17.1986
      vertex 50 6.5 24
      vertex 50 8 24
    endloop
  endfacet
  facet normal -1 -0 0
    outer loop
      vertex 50 6.5 24
      vertex 50 1.2 17.1986
      vertex 50 1.2 24
    endloop
  endfacet
  facet normal -1 0 0
    outer loop
      vertex 50 10 25.9986
      vertex 50 8 32
      vertex 50 10 32
    endloop
  endfacet
  facet normal -0 0 1
    outer loop
      vertex 50 10 32
      vertex 55 8 32
      vertex 55 10 32
    endloop
  endfacet
  facet normal 0 0 1
    outer loop
      vertex 55 8 32
      vertex 50 10 32
      vertex 50 8 32
    endloop
  endfacet
  facet normal 1 -0 0
    outer loop
      vertex 55 8 32
      vertex 55 10 25.9986
      vertex 55 10 32
    endloop
  endfacet
  facet normal 1 0 0
    outer loop
      vertex 55 8 24
      vertex 55 10 25.9986
      vertex 55 8 32
    endloop
  endfacet
  facet normal 1 0 0
    outer loop
      vertex 55 1.2 17.1986
      vertex 55 6.5 24
      vertex 55 1.2 24
    endloop
  endfacet
  facet normal 1 -0 0
    outer loop
      vertex 55 8 24
      vertex 55 1.2 17.1986
      vertex 55 10 25.9986
    endloop
  endfacet
  facet normal 1 -0 0
    outer loop
      vertex 55 6.5 24
      vertex 55 1.2 17.1986
      vertex 55 8 24
    endloop
  endfacet
  facet normal 0 1 -0
    outer loop
      vertex 55 10 25.9986
      vertex 50 10 32
      vertex 55 10 32
    endloop
  endfacet
  facet normal 0 1 0
    outer loop
      vertex 50 10 32
      vertex 55 10 25.9986
      vertex 50 10 25.9986
    endloop
  endfacet
  facet normal 0 0.707107 -0.707107
    outer loop
      vertex 10 1.2 17.1986
      vertex 1.2 10 25.9986
      vertex 10 10 25.9986
    endloop
  endfacet
  facet normal 0 0.707107 -0.707107
    outer loop
      vertex 1.2 10 25.9986
      vertex 10 1.2 17.1986
      vertex 1.2 1.2 17.1986
    endloop
  endfacet
  facet normal 0 0.707107 -0.707107
    outer loop
      vertex 20 1.2 17.1986
      vertex 15 10 25.9986
      vertex 20 10 25.9986
    endloop
  endfacet
  facet normal 0 0.707107 -0.707107
    outer loop
      vertex 15 10 25.9986
      vertex 20 1.2 17.1986
      vertex 15 1.2 17.1986
    endloop
  endfacet
  facet normal 0 0.707107 -0.707107
    outer loop
      vertex 42 1.2 17.1986
      vertex 28 10 25.9986
      vertex 42 10 25.9986
    endloop
  endfacet
  facet normal 0 0.707107 -0.707107
    outer loop
      vertex 28 10 25.9986
      vertex 42 1.2 17.1986
      vertex 28 1.2 17.1986
    endloop
  endfacet
  facet normal 0 0.707107 -0.707107
    outer loop
      vertex 55 1.2 17.1986
      vertex 50 10 25.9986
      vertex 55 10 25.9986
    endloop
  endfacet
  facet normal 0 0.707107 -0.707107
    outer loop
      vertex 50 10 25.9986
      vertex 55 1.2 17.1986
      vertex 50 1.2 17.1986
    endloop
  endfacet
  facet normal 0 0.707107 -0.707107
    outer loop
      vertex 70 1.2 17.1986
      vertex 60 10 25.9986
      vertex 70 10 25.9986
    endloop
  endfacet
  facet normal 0 0.707107 -0.707107
    outer loop
      vertex 60 10 25.9986
      vertex 70 1.2 17.1986
      vertex 60 1.2 17.1986
    endloop
  endfacet
  facet normal 0 0 1
    outer loop
      vertex 73.2 8 49.2
      vertex 71.8 6.5 49.2
      vertex 73.2 0 49.2
    endloop
  endfacet
  facet normal -0 0 1
    outer loop
      vertex 0 8 49.2
      vertex 71.8 6.5 49.2
      vertex 73.2 8 49.2
    endloop
  endfacet
  facet normal 0 0 1
    outer loop
      vertex 0 0 49.2
      vertex 1.2 6.5 49.2
      vertex 0 8 49.2
    endloop
  endfacet
  facet normal 0 0 1
    outer loop
      vertex 71.8 6.5 49.2
      vertex 0 8 49.2
      vertex 1.2 6.5 49.2
    endloop
  endfacet
  facet normal -0 0 1
    outer loop
      vertex 71.8 1.1 49.2
      vertex 73.2 0 49.2
      vertex 71.8 6.5 49.2
    endloop
  endfacet
  facet normal 0 0 1
    outer loop
      vertex 0 0 49.2
      vertex 71.8 1.1 49.2
      vertex 1.2 1.1 49.2
    endloop
  endfacet
  facet normal 0 0 1
    outer loop
      vertex 71.8 1.1 49.2
      vertex 0 0 49.2
      vertex 73.2 0 49.2
    endloop
  endfacet
  facet normal 0 0 1
    outer loop
      vertex 1.2 6.5 49.2
      vertex 0 0 49.2
      vertex 1.2 1.1 49.2
    endloop
  endfacet
  facet normal 0 0 -1
    outer loop
      vertex 10 6.5 24
      vertex 15 8 24
      vertex 15 6.5 24
    endloop
  endfacet
  facet normal -0 0 -1
    outer loop
      vertex 15 8 24
      vertex 10 6.5 24
      vertex 10 8 24
    endloop
  endfacet
  facet normal 0 0 -1
    outer loop
      vertex 20 6.5 24
      vertex 28 8 24
      vertex 28 6.5 24
    endloop
  endfacet
  facet normal -0 0 -1
    outer loop
      vertex 28 8 24
      vertex 20 6.5 24
      vertex 20 8 24
    endloop
  endfacet
  facet normal 0 0 -1
    outer loop
      vertex 42 6.5 24
      vertex 50 8 24
      vertex 50 6.5 24
    endloop
  endfacet
  facet normal -0 0 -1
    outer loop
      vertex 50 8 24
      vertex 42 6.5 24
      vertex 42 8 24
    endloop
  endfacet
  facet normal 0 0 -1
    outer loop
      vertex 55 6.5 24
      vertex 60 8 24
      vertex 60 6.5 24
    endloop
  endfacet
  facet normal -0 0 -1
    outer loop
      vertex 60 8 24
      vertex 55 6.5 24
      vertex 55 8 24
    endloop
  endfacet
  facet normal 0 0 -1
    outer loop
      vertex 71.8 6.5 24
      vertex 72 1.2 24
      vertex 71.8 1.2 24
    endloop
  endfacet
  facet normal 0 0 -1
    outer loop
      vertex 72 1.2 24
      vertex 71.8 6.5 24
      vertex 72 8 24
    endloop
  endfacet
  facet normal 0 0 -1
    outer loop
      vertex 70 8 24
      vertex 71.8 6.5 24
      vertex 70 6.5 24
    endloop
  endfacet
  facet normal 0 0 -1
    outer loop
      vertex 71.8 6.5 24
      vertex 70 8 24
      vertex 72 8 24
    endloop
  endfacet
  facet normal -0 0 1
    outer loop
      vertex 1.2 6.5 24
      vertex 10 1.2 24
      vertex 10 6.5 24
    endloop
  endfacet
  facet normal 0 0 1
    outer loop
      vertex 10 1.2 24
      vertex 1.2 6.5 24
      vertex 1.2 1.2 24
    endloop
  endfacet
  facet normal -0 0 1
    outer loop
      vertex 15 6.5 24
      vertex 20 1.2 24
      vertex 20 6.5 24
    endloop
  endfacet
  facet normal 0 0 1
    outer loop
      vertex 20 1.2 24
      vertex 15 6.5 24
      vertex 15 1.2 24
    endloop
  endfacet
  facet normal -0 0 1
    outer loop
      vertex 28 6.5 24
      vertex 42 1.2 24
      vertex 42 6.5 24
    endloop
  endfacet
  facet normal 0 0 1
    outer loop
      vertex 42 1.2 24
      vertex 28 6.5 24
      vertex 28 1.2 24
    endloop
  endfacet
  facet normal -0 0 1
    outer loop
      vertex 50 6.5 24
      vertex 55 1.2 24
      vertex 55 6.5 24
    endloop
  endfacet
  facet normal 0 0 1
    outer loop
      vertex 55 1.2 24
      vertex 50 6.5 24
      vertex 50 1.2 24
    endloop
  endfacet
  facet normal -0 0 1
    outer loop
      vertex 60 6.5 24
      vertex 70 1.2 24
      vertex 70 6.5 24
    endloop
  endfacet
  facet normal 0 0 1
    outer loop
      vertex 70 1.2 24
      vertex 60 6.5 24
      vertex 60 1.2 24
    endloop
  endfacet
  facet normal 0 1 -0
    outer loop
      vertex 15 8 24
      vertex 10 8 32
      vertex 15 8 32
    endloop
  endfacet
  facet normal 0 1 0
    outer loop
      vertex 10 8 32
      vertex 15 8 24
      vertex 10 8 24
    endloop
  endfacet
  facet normal 0 1 -0
    outer loop
      vertex 28 8 24
      vertex 20 8 32
      vertex 28 8 32
    endloop
  endfacet
  facet normal 0 1 0
    outer loop
      vertex 20 8 32
      vertex 28 8 24
      vertex 20 8 24
    endloop
  endfacet
  facet normal 0 1 -0
    outer loop
      vertex 50 8 24
      vertex 42 8 32
      vertex 50 8 32
    endloop
  endfacet
  facet normal 0 1 0
    outer loop
      vertex 42 8 32
      vertex 50 8 24
      vertex 42 8 24
    endloop
  endfacet
  facet normal 0 1 -0
    outer loop
      vertex 60 8 24
      vertex 55 8 32
      vertex 60 8 32
    endloop
  endfacet
  facet normal 0 1 0
    outer loop
      vertex 55 8 32
      vertex 60 8 24
      vertex 55 8 24
    endloop
  endfacet
  facet normal 0 1 0
    outer loop
      vertex 55 8 32
      vertex 73.2 8 49.2
      vertex 60 8 32
    endloop
  endfacet
  facet normal 0 1 -0
    outer loop
      vertex 72 8 24
      vertex 70 8 32
      vertex 72 8 34.5
    endloop
  endfacet
  facet normal 0 1 0
    outer loop
      vertex 70 8 32
      vertex 72 8 24
      vertex 70 8 24
    endloop
  endfacet
  facet normal 0 1 0
    outer loop
      vertex 72 8 34.5
      vertex 73.2 8 49.2
      vertex 73.2 8 34.5
    endloop
  endfacet
  facet normal 0 1 0
    outer loop
      vertex 60 8 32
      vertex 72 8 34.5
      vertex 70 8 32
    endloop
  endfacet
  facet normal 0 1 -0
    outer loop
      vertex 72 8 34.5
      vertex 60 8 32
      vertex 73.2 8 49.2
    endloop
  endfacet
  facet normal 0 1 0
    outer loop
      vertex 0 8 49.2
      vertex 1.2 8 34.5
      vertex 0 8 34.5
    endloop
  endfacet
  facet normal 0 1 0
    outer loop
      vertex 50 8 32
      vertex 73.2 8 49.2
      vertex 55 8 32
    endloop
  endfacet
  facet normal 0 1 0
    outer loop
      vertex 42 8 32
      vertex 73.2 8 49.2
      vertex 50 8 32
    endloop
  endfacet
  facet normal 0 1 0
    outer loop
      vertex 73.2 8 49.2
      vertex 42 8 32
      vertex 0 8 49.2
    endloop
  endfacet
  facet normal 0 1 -0
    outer loop
      vertex 28 8 32
      vertex 0 8 49.2
      vertex 42 8 32
    endloop
  endfacet
  facet normal 0 1 -0
    outer loop
      vertex 20 8 32
      vertex 0 8 49.2
      vertex 28 8 32
    endloop
  endfacet
  facet normal 0 1 -0
    outer loop
      vertex 15 8 32
      vertex 0 8 49.2
      vertex 20 8 32
    endloop
  endfacet
  facet normal 0 1 -0
    outer loop
      vertex 10 8 32
      vertex 0 8 49.2
      vertex 15 8 32
    endloop
  endfacet
  facet normal 0 1 0
    outer loop
      vertex 0 8 49.2
      vertex 10 8 32
      vertex 1.2 8 34.5
    endloop
  endfacet
  facet normal 0 1 0
    outer loop
      vertex 1.2 8 34.5
      vertex 10 8 32
      vertex 1.2 8 32
    endloop
  endfacet
  facet normal -1 0 0
    outer loop
      vertex 71.8 1.2 34.5
      vertex 71.8 6.5 24
      vertex 71.8 1.2 24
    endloop
  endfacet
  facet normal -1 0 0
    outer loop
      vertex 71.8 6.5 24
      vertex 71.8 1.2 34.5
      vertex 71.8 6.5 49.2
    endloop
  endfacet
  facet normal -1 0 0
    outer loop
      vertex 71.8 1.1 49.2
      vertex 71.8 1.2 34.5
      vertex 71.8 1.1 34.5
    endloop
  endfacet
  facet normal -1 0 0
    outer loop
      vertex 71.8 1.2 34.5
      vertex 71.8 1.1 49.2
      vertex 71.8 6.5 49.2
    endloop
  endfacet
  facet normal 0 -1 0
    outer loop
      vertex 10 6.5 24
      vertex 1.2 6.5 49.2
      vertex 1.2 6.5 24
    endloop
  endfacet
  facet normal 0 -1 0
    outer loop
      vertex 15 6.5 24
      vertex 1.2 6.5 49.2
      vertex 10 6.5 24
    endloop
  endfacet
  facet normal 0 -1 0
    outer loop
      vertex 20 6.5 24
      vertex 1.2 6.5 49.2
      vertex 15 6.5 24
    endloop
  endfacet
  facet normal 0 -1 0
    outer loop
      vertex 28 6.5 24
      vertex 1.2 6.5 49.2
      vertex 20 6.5 24
    endloop
  endfacet
  facet normal 0 -1 0
    outer loop
      vertex 42 6.5 24
      vertex 1.2 6.5 49.2
      vertex 28 6.5 24
    endloop
  endfacet
  facet normal 0 -1 0
    outer loop
      vertex 1.2 6.5 49.2
      vertex 42 6.5 24
      vertex 71.8 6.5 49.2
    endloop
  endfacet
  facet normal 0 -1 0
    outer loop
      vertex 50 6.5 24
      vertex 71.8 6.5 49.2
      vertex 42 6.5 24
    endloop
  endfacet
  facet normal 0 -1 0
    outer loop
      vertex 55 6.5 24
      vertex 71.8 6.5 49.2
      vertex 50 6.5 24
    endloop
  endfacet
  facet normal 0 -1 0
    outer loop
      vertex 60 6.5 24
      vertex 71.8 6.5 49.2
      vertex 55 6.5 24
    endloop
  endfacet
  facet normal 0 -1 0
    outer loop
      vertex 70 6.5 24
      vertex 71.8 6.5 49.2
      vertex 60 6.5 24
    endloop
  endfacet
  facet normal 0 -1 -0
    outer loop
      vertex 71.8 6.5 49.2
      vertex 70 6.5 24
      vertex 71.8 6.5 24
    endloop
  endfacet
  facet normal 0 1 -0
    outer loop
      vertex 71.8 1.1 34.5
      vertex 1.2 1.1 49.2
      vertex 71.8 1.1 49.2
    endloop
  endfacet
  facet normal 0 1 0
    outer loop
      vertex 1.2 1.1 49.2
      vertex 71.8 1.1 34.5
      vertex 1.2 1.1 34.5
    endloop
  endfacet
  facet normal -0 0 1
    outer loop
      vertex 1.2 85.7 33
      vertex 50 83.8 33
      vertex 50 85.7 33
    endloop
  endfacet
  facet normal 0 0 1
    outer loop
      vertex 50 83.8 33
      vertex 1.2 85.7 33
      vertex 1.2 83.8 33
    endloop
  endfacet
  facet normal 1 -0 0
    outer loop
      vertex 50 83.8 33
      vertex 50 85.7 29
      vertex 50 85.7 33
    endloop
  endfacet
  facet normal 1 0 0
    outer loop
      vertex 50 85.7 29
      vertex 50 83.8 33
      vertex 50 83.8 29
    endloop
  endfacet
  facet normal 0 0 -1
    outer loop
      vertex 1.2 83.8 29
      vertex 50 85.7 29
      vertex 50 83.8 29
    endloop
  endfacet
  facet normal -0 0 -1
    outer loop
      vertex 50 85.7 29
      vertex 1.2 83.8 29
      vertex 1.2 85.7 29
    endloop
  endfacet
  facet normal 0 -1 0
    outer loop
      vertex 1.2 83.8 29
      vertex 50 83.8 33
      vertex 1.2 83.8 33
    endloop
  endfacet
  facet normal 0 -1 -0
    outer loop
      vertex 50 83.8 33
      vertex 1.2 83.8 29
      vertex 50 83.8 29
    endloop
  endfacet
  facet normal -0 0 1
    outer loop
      vertex 68 85.7 33
      vertex 72 83.8 33
      vertex 72 85.7 33
    endloop
  endfacet
  facet normal 0 0 1
    outer loop
      vertex 72 83.8 33
      vertex 68 85.7 33
      vertex 68 83.8 33
    endloop
  endfacet
  facet normal 0 0 -1
    outer loop
      vertex 68 83.8 29
      vertex 72 85.7 29
      vertex 72 83.8 29
    endloop
  endfacet
  facet normal -0 0 -1
    outer loop
      vertex 72 85.7 29
      vertex 68 83.8 29
      vertex 68 85.7 29
    endloop
  endfacet
  facet normal 0 -1 0
    outer loop
      vertex 68 83.8 29
      vertex 72 83.8 33
      vertex 68 83.8 33
    endloop
  endfacet
  facet normal 0 -1 -0
    outer loop
      vertex 72 83.8 33
      vertex 68 83.8 29
      vertex 72 83.8 29
    endloop
  endfacet
endsolid OpenSCAD_Model
