solid OpenSCAD_Model
  facet normal -2.22045e-016 0 -1
    outer loop
      vertex -67.5 32.7 1.4988e-014
      vertex -37 37.9 8.21565e-015
      vertex -37 32.7 8.21565e-015
    endloop
  endfacet
  facet normal -2.22045e-016 0 -1
    outer loop
      vertex -37 37.9 8.21565e-015
      vertex -67.5 32.7 1.4988e-014
      vertex -67.5 37.9 1.4988e-014
    endloop
  endfacet
  facet normal -2.22045e-016 0 -1
    outer loop
      vertex -37 -7.3 8.21565e-015
      vertex -26 0.299999 5.77316e-015
      vertex -26 -12 5.77316e-015
    endloop
  endfacet
  facet normal -2.22045e-016 0 -1
    outer loop
      vertex -26 0.299999 5.77316e-015
      vertex -37 32.7 8.21565e-015
      vertex -26 70.3 5.77316e-015
    endloop
  endfacet
  facet normal -2.22045e-016 0 -1
    outer loop
      vertex -26 0.299999 5.77316e-015
      vertex -37 -7.3 8.21565e-015
      vertex -37 32.7 8.21565e-015
    endloop
  endfacet
  facet normal -2.22045e-016 0 -1
    outer loop
      vertex -75 -12 1.66533e-014
      vertex -37 -7.3 8.21565e-015
      vertex -26 -12 5.77316e-015
    endloop
  endfacet
  facet normal -2.22045e-016 0 -1
    outer loop
      vertex -75 -12 1.66533e-014
      vertex -67.5 32.7 1.4988e-014
      vertex -67.5 -7.3 1.4988e-014
    endloop
  endfacet
  facet normal -2.22045e-016 0 -1
    outer loop
      vertex -67.5 32.7 1.4988e-014
      vertex -75 -12 1.66533e-014
      vertex -67.5 37.9 1.4988e-014
    endloop
  endfacet
  facet normal -2.22045e-016 -0 -1
    outer loop
      vertex -75 82.5 1.66533e-014
      vertex -67.5 37.9 1.4988e-014
      vertex -75 -12 1.66533e-014
    endloop
  endfacet
  facet normal -2.22045e-016 0 -1
    outer loop
      vertex -37 -7.3 8.21565e-015
      vertex -75 -12 1.66533e-014
      vertex -67.5 -7.3 1.4988e-014
    endloop
  endfacet
  facet normal -2.22045e-016 0 -1
    outer loop
      vertex -26 0.299999 5.77316e-015
      vertex -12 70.3 2.66454e-015
      vertex -12 0.299999 2.66454e-015
    endloop
  endfacet
  facet normal -2.22045e-016 0 -1
    outer loop
      vertex -12 70.3 2.66454e-015
      vertex -26 0.299999 5.77316e-015
      vertex -26 70.3 5.77316e-015
    endloop
  endfacet
  facet normal -2.22045e-016 -0 -1
    outer loop
      vertex -37 37.9 8.21565e-015
      vertex -26 70.3 5.77316e-015
      vertex -37 32.7 8.21565e-015
    endloop
  endfacet
  facet normal -2.22045e-016 -0 -1
    outer loop
      vertex -37 77.9 8.21565e-015
      vertex -26 70.3 5.77316e-015
      vertex -37 37.9 8.21565e-015
    endloop
  endfacet
  facet normal -2.22045e-016 0 -1
    outer loop
      vertex -26 70.3 5.77316e-015
      vertex -37 77.9 8.21565e-015
      vertex -26 82.5 5.77316e-015
    endloop
  endfacet
  facet normal -2.22045e-016 0 -1
    outer loop
      vertex -75 82.5 1.66533e-014
      vertex -37 77.9 8.21565e-015
      vertex -67.5 77.9 1.4988e-014
    endloop
  endfacet
  facet normal -2.22045e-016 0 -1
    outer loop
      vertex -37 77.9 8.21565e-015
      vertex -75 82.5 1.66533e-014
      vertex -26 82.5 5.77316e-015
    endloop
  endfacet
  facet normal -2.22045e-016 0 -1
    outer loop
      vertex -67.5 37.9 1.4988e-014
      vertex -75 82.5 1.66533e-014
      vertex -67.5 77.9 1.4988e-014
    endloop
  endfacet
  facet normal 0 0 1
    outer loop
      vertex -26 0.299999 2.5
      vertex -30.5 -5.5 2.5
      vertex -27.9 -5.5 2.5
    endloop
  endfacet
  facet normal 0 0 1
    outer loop
      vertex -34 -8.8 2.5
      vertex -30.5 -5.5 2.5
      vertex -34 5.7 2.5
    endloop
  endfacet
  facet normal 0 0 1
    outer loop
      vertex -26 0.299999 2.5
      vertex -34 5.7 2.5
      vertex -30.5 -5.5 2.5
    endloop
  endfacet
  facet normal 0 0 1
    outer loop
      vertex -12 7.7 2.5
      vertex -18.5 4.4 2.5
      vertex -12 0.299999 2.5
    endloop
  endfacet
  facet normal -0 0 1
    outer loop
      vertex -27 7.7 2.5
      vertex -18.5 4.4 2.5
      vertex -12 7.7 2.5
    endloop
  endfacet
  facet normal 0 0 1
    outer loop
      vertex -20.9 4.4 2.5
      vertex -26 0.299999 2.5
      vertex -20.9 2 2.5
    endloop
  endfacet
  facet normal 0 0 1
    outer loop
      vertex -18.5 4.4 2.5
      vertex -27 7.7 2.5
      vertex -20.9 4.4 2.5
    endloop
  endfacet
  facet normal -0 0 1
    outer loop
      vertex -27 5.7 2.5
      vertex -20.9 4.4 2.5
      vertex -27 7.7 2.5
    endloop
  endfacet
  facet normal 0 0 1
    outer loop
      vertex -20.9 4.4 2.5
      vertex -27 5.7 2.5
      vertex -26 0.299999 2.5
    endloop
  endfacet
  facet normal -0 0 1
    outer loop
      vertex -34 5.7 2.5
      vertex -26 0.299999 2.5
      vertex -27 5.7 2.5
    endloop
  endfacet
  facet normal 0 0 1
    outer loop
      vertex -26 0.299999 2.5
      vertex -27.9 -5.5 2.5
      vertex -26 -12 2.5
    endloop
  endfacet
  facet normal -0 0 1
    outer loop
      vertex -27.9 -8.1 2.5
      vertex -26 -12 2.5
      vertex -27.9 -5.5 2.5
    endloop
  endfacet
  facet normal -0 0 1
    outer loop
      vertex -30.5 -8.1 2.5
      vertex -26 -12 2.5
      vertex -27.9 -8.1 2.5
    endloop
  endfacet
  facet normal 0 0 1
    outer loop
      vertex -30.5 -5.5 2.5
      vertex -34 -8.8 2.5
      vertex -30.5 -8.1 2.5
    endloop
  endfacet
  facet normal -0 0 1
    outer loop
      vertex -34 -8.8 2.5
      vertex -26 -12 2.5
      vertex -30.5 -8.1 2.5
    endloop
  endfacet
  facet normal 0 0 1
    outer loop
      vertex -44 -9.8 2.5
      vertex -34 -8.8 2.5
      vertex -44 -8.8 2.5
    endloop
  endfacet
  facet normal 0 0 1
    outer loop
      vertex -34 -8.8 2.5
      vertex -44 -9.8 2.5
      vertex -26 -12 2.5
    endloop
  endfacet
  facet normal 0 0 1
    outer loop
      vertex -75 -12 2.5
      vertex -44 -9.8 2.5
      vertex -59 -9.8 2.5
    endloop
  endfacet
  facet normal 0 0 1
    outer loop
      vertex -70.9 14.5 2.5
      vertex -69 34.2 2.5
      vertex -70.9 31.9 2.5
    endloop
  endfacet
  facet normal 0 0 1
    outer loop
      vertex -69 34.2 2.5
      vertex -70.9 14.5 2.5
      vertex -69 -8.8 2.5
    endloop
  endfacet
  facet normal -0 0 1
    outer loop
      vertex -70.9 11.9 2.5
      vertex -69 -8.8 2.5
      vertex -70.9 14.5 2.5
    endloop
  endfacet
  facet normal -0 0 1
    outer loop
      vertex -70.9 -5.5 2.5
      vertex -69 -8.8 2.5
      vertex -70.9 11.9 2.5
    endloop
  endfacet
  facet normal -0 0 1
    outer loop
      vertex -70.9 -8.1 2.5
      vertex -69 -8.8 2.5
      vertex -70.9 -5.5 2.5
    endloop
  endfacet
  facet normal 0 0 1
    outer loop
      vertex -75 -12 2.5
      vertex -70.9 -8.1 2.5
      vertex -73.5 -8.1 2.5
    endloop
  endfacet
  facet normal 0 0 1
    outer loop
      vertex -44 -9.8 2.5
      vertex -75 -12 2.5
      vertex -26 -12 2.5
    endloop
  endfacet
  facet normal 0 0 1
    outer loop
      vertex -69 -8.8 2.5
      vertex -75 -12 2.5
      vertex -59 -9.8 2.5
    endloop
  endfacet
  facet normal 0 0 1
    outer loop
      vertex -70.9 -8.1 2.5
      vertex -75 -12 2.5
      vertex -69 -8.8 2.5
    endloop
  endfacet
  facet normal 0 0 1
    outer loop
      vertex -73.5 -5.5 2.5
      vertex -75 -12 2.5
      vertex -73.5 -8.1 2.5
    endloop
  endfacet
  facet normal -0 0 1
    outer loop
      vertex -18.5 2 2.5
      vertex -12 0.299999 2.5
      vertex -18.5 4.4 2.5
    endloop
  endfacet
  facet normal 0 0 1
    outer loop
      vertex -26 0.299999 2.5
      vertex -18.5 2 2.5
      vertex -20.9 2 2.5
    endloop
  endfacet
  facet normal 0 0 1
    outer loop
      vertex -18.5 2 2.5
      vertex -26 0.299999 2.5
      vertex -12 0.299999 2.5
    endloop
  endfacet
  facet normal -0 0 1
    outer loop
      vertex -73.4 56.2 2.5
      vertex -71 38.6 2.5
      vertex -71 56.2 2.5
    endloop
  endfacet
  facet normal 0 0 1
    outer loop
      vertex -71 38.6 2.5
      vertex -73.4 56.2 2.5
      vertex -73.4 38.6 2.5
    endloop
  endfacet
  facet normal -0 0 1
    outer loop
      vertex -73.4 76.2 2.5
      vertex -71 58.6 2.5
      vertex -71 76.2 2.5
    endloop
  endfacet
  facet normal 0 0 1
    outer loop
      vertex -71 58.6 2.5
      vertex -73.4 76.2 2.5
      vertex -73.4 58.6 2.5
    endloop
  endfacet
  facet normal -0 0 1
    outer loop
      vertex -73.5 11.9 2.5
      vertex -70.9 -5.5 2.5
      vertex -70.9 11.9 2.5
    endloop
  endfacet
  facet normal 0 0 1
    outer loop
      vertex -70.9 -5.5 2.5
      vertex -73.5 11.9 2.5
      vertex -73.5 -5.5 2.5
    endloop
  endfacet
  facet normal -0 0 1
    outer loop
      vertex -73.5 31.9 2.5
      vertex -70.9 14.5 2.5
      vertex -70.9 31.9 2.5
    endloop
  endfacet
  facet normal 0 0 1
    outer loop
      vertex -70.9 14.5 2.5
      vertex -73.5 31.9 2.5
      vertex -73.5 14.5 2.5
    endloop
  endfacet
  facet normal -0 0 1
    outer loop
      vertex -28 76.2 2.5
      vertex -26 70.3 2.5
      vertex -26 82.5 2.5
    endloop
  endfacet
  facet normal 0 0 1
    outer loop
      vertex -28 76.2 2.5
      vertex -26 82.5 2.5
      vertex -28 78.6 2.5
    endloop
  endfacet
  facet normal 0 0 1
    outer loop
      vertex -26 82.5 2.5
      vertex -30.4 78.6 2.5
      vertex -28 78.6 2.5
    endloop
  endfacet
  facet normal 0 0 1
    outer loop
      vertex -30.4 78.6 2.5
      vertex -34 79.4 2.5
      vertex -30.4 76.2 2.5
    endloop
  endfacet
  facet normal 0 0 1
    outer loop
      vertex -26 82.5 2.5
      vertex -34 79.4 2.5
      vertex -30.4 78.6 2.5
    endloop
  endfacet
  facet normal 0 0 1
    outer loop
      vertex -26 82.5 2.5
      vertex -44 80.4 2.5
      vertex -34 79.4 2.5
    endloop
  endfacet
  facet normal -0 0 1
    outer loop
      vertex -75 82.5 2.5
      vertex -44 80.4 2.5
      vertex -26 82.5 2.5
    endloop
  endfacet
  facet normal 0 0 1
    outer loop
      vertex -59 80.4 2.5
      vertex -69 79.4 2.5
      vertex -59 79.4 2.5
    endloop
  endfacet
  facet normal -0 0 1
    outer loop
      vertex -71 56.2 2.5
      vertex -69 36.4 2.5
      vertex -69 79.4 2.5
    endloop
  endfacet
  facet normal -0 0 1
    outer loop
      vertex -71 38.6 2.5
      vertex -69 36.4 2.5
      vertex -71 56.2 2.5
    endloop
  endfacet
  facet normal 0 0 1
    outer loop
      vertex -70.9 31.9 2.5
      vertex -69 34.2 2.5
      vertex -70.9 34.5 2.5
    endloop
  endfacet
  facet normal 0 0 1
    outer loop
      vertex -71 76.2 2.5
      vertex -69 79.4 2.5
      vertex -71 78.6 2.5
    endloop
  endfacet
  facet normal 0 0 1
    outer loop
      vertex -75 82.5 2.5
      vertex -71 78.6 2.5
      vertex -69 79.4 2.5
    endloop
  endfacet
  facet normal 0 0 1
    outer loop
      vertex -75 82.5 2.5
      vertex -73.4 76.2 2.5
      vertex -73.4 78.6 2.5
    endloop
  endfacet
  facet normal 0 0 1
    outer loop
      vertex -73.4 76.2 2.5
      vertex -75 82.5 2.5
      vertex -73.4 58.6 2.5
    endloop
  endfacet
  facet normal 0 0 1
    outer loop
      vertex -73.4 58.6 2.5
      vertex -75 82.5 2.5
      vertex -73.4 56.2 2.5
    endloop
  endfacet
  facet normal 0 0 1
    outer loop
      vertex -73.4 56.2 2.5
      vertex -75 82.5 2.5
      vertex -73.4 38.6 2.5
    endloop
  endfacet
  facet normal 0 -0 1
    outer loop
      vertex -73.5 34.5 2.5
      vertex -73.4 38.6 2.5
      vertex -75 82.5 2.5
    endloop
  endfacet
  facet normal 0 0 1
    outer loop
      vertex -75 -12 2.5
      vertex -73.5 31.9 2.5
      vertex -73.5 34.5 2.5
    endloop
  endfacet
  facet normal 0 0 1
    outer loop
      vertex -75 -12 2.5
      vertex -73.5 34.5 2.5
      vertex -75 82.5 2.5
    endloop
  endfacet
  facet normal 0 0 1
    outer loop
      vertex -73.5 31.9 2.5
      vertex -75 -12 2.5
      vertex -73.5 14.5 2.5
    endloop
  endfacet
  facet normal 0 0 1
    outer loop
      vertex -73.5 14.5 2.5
      vertex -75 -12 2.5
      vertex -73.5 11.9 2.5
    endloop
  endfacet
  facet normal 0 0 1
    outer loop
      vertex -73.5 11.9 2.5
      vertex -75 -12 2.5
      vertex -73.5 -5.5 2.5
    endloop
  endfacet
  facet normal 0 0 1
    outer loop
      vertex -73.4 38.6 2.5
      vertex -73.5 34.5 2.5
      vertex -73.4 36.2 2.5
    endloop
  endfacet
  facet normal 0 0 1
    outer loop
      vertex -71 78.6 2.5
      vertex -75 82.5 2.5
      vertex -73.4 78.6 2.5
    endloop
  endfacet
  facet normal 0 0 1
    outer loop
      vertex -59 80.4 2.5
      vertex -75 82.5 2.5
      vertex -69 79.4 2.5
    endloop
  endfacet
  facet normal 0 0 1
    outer loop
      vertex -44 80.4 2.5
      vertex -75 82.5 2.5
      vertex -59 80.4 2.5
    endloop
  endfacet
  facet normal -0 0 1
    outer loop
      vertex -30.4 76.2 2.5
      vertex -26 70.3 2.5
      vertex -28 76.2 2.5
    endloop
  endfacet
  facet normal 0 0 1
    outer loop
      vertex -34 64.9 2.5
      vertex -26 70.3 2.5
      vertex -30.4 76.2 2.5
    endloop
  endfacet
  facet normal 0 0 1
    outer loop
      vertex -34 64.9 2.5
      vertex -30.4 76.2 2.5
      vertex -34 79.4 2.5
    endloop
  endfacet
  facet normal 0 0 1
    outer loop
      vertex -26 70.3 2.5
      vertex -34 64.9 2.5
      vertex -27 64.9 2.5
    endloop
  endfacet
  facet normal 0 0 1
    outer loop
      vertex -34 79.4 2.5
      vertex -44 80.4 2.5
      vertex -44 79.4 2.5
    endloop
  endfacet
  facet normal -0 0 1
    outer loop
      vertex -69 36.4 2.5
      vertex -34 34.2 2.5
      vertex -34 36.4 2.5
    endloop
  endfacet
  facet normal 0 0 1
    outer loop
      vertex -34 34.2 2.5
      vertex -69 36.4 2.5
      vertex -69 34.2 2.5
    endloop
  endfacet
  facet normal 0 0 1
    outer loop
      vertex -59 -8.8 2.5
      vertex -69 -8.8 2.5
      vertex -59 -9.8 2.5
    endloop
  endfacet
  facet normal 0 0 1
    outer loop
      vertex -71 58.6 2.5
      vertex -69 79.4 2.5
      vertex -71 76.2 2.5
    endloop
  endfacet
  facet normal 0 0 1
    outer loop
      vertex -71 56.2 2.5
      vertex -69 79.4 2.5
      vertex -71 58.6 2.5
    endloop
  endfacet
  facet normal 0 0 1
    outer loop
      vertex -71 36.2 2.5
      vertex -69 36.4 2.5
      vertex -71 38.6 2.5
    endloop
  endfacet
  facet normal 0 -0 1
    outer loop
      vertex -70.9 34.5 2.5
      vertex -69 36.4 2.5
      vertex -71 36.2 2.5
    endloop
  endfacet
  facet normal 0 0 1
    outer loop
      vertex -69 36.4 2.5
      vertex -70.9 34.5 2.5
      vertex -69 34.2 2.5
    endloop
  endfacet
  facet normal -0 0 1
    outer loop
      vertex -73.4 36.2 2.5
      vertex -70.9 34.5 2.5
      vertex -71 36.2 2.5
    endloop
  endfacet
  facet normal 0 0 1
    outer loop
      vertex -70.9 34.5 2.5
      vertex -73.4 36.2 2.5
      vertex -73.5 34.5 2.5
    endloop
  endfacet
  facet normal 0 0 1
    outer loop
      vertex -21 36.1 2.5
      vertex -28 36.2 2.5
      vertex -27.9 34.5 2.5
    endloop
  endfacet
  facet normal -0 0 1
    outer loop
      vertex -30.4 36.2 2.5
      vertex -27.9 34.5 2.5
      vertex -28 36.2 2.5
    endloop
  endfacet
  facet normal 0 0 1
    outer loop
      vertex -27.9 34.5 2.5
      vertex -30.4 36.2 2.5
      vertex -30.5 34.5 2.5
    endloop
  endfacet
  facet normal 0 0 1
    outer loop
      vertex -18.4 36.1 2.5
      vertex -20.9 34.4 2.5
      vertex -18.5 34.4 2.5
    endloop
  endfacet
  facet normal -0 0 1
    outer loop
      vertex -27.9 34.5 2.5
      vertex -20.9 34.4 2.5
      vertex -21 36.1 2.5
    endloop
  endfacet
  facet normal -0 0 1
    outer loop
      vertex -21 36.1 2.5
      vertex -20.9 34.4 2.5
      vertex -18.4 36.1 2.5
    endloop
  endfacet
  facet normal 0 0 1
    outer loop
      vertex -18.4 36.1 2.5
      vertex -12 40.9 2.5
      vertex -18.4 38.7 2.5
    endloop
  endfacet
  facet normal 0 0 1
    outer loop
      vertex -12 40.9 2.5
      vertex -21 38.7 2.5
      vertex -18.4 38.7 2.5
    endloop
  endfacet
  facet normal -0 0 1
    outer loop
      vertex -28 38.6 2.5
      vertex -21 36.1 2.5
      vertex -21 38.7 2.5
    endloop
  endfacet
  facet normal -0 0 1
    outer loop
      vertex -28 36.2 2.5
      vertex -21 36.1 2.5
      vertex -28 38.6 2.5
    endloop
  endfacet
  facet normal -0 0 1
    outer loop
      vertex -34 40.9 2.5
      vertex -21 38.7 2.5
      vertex -12 40.9 2.5
    endloop
  endfacet
  facet normal 0 0 1
    outer loop
      vertex -21 38.7 2.5
      vertex -34 40.9 2.5
      vertex -28 38.6 2.5
    endloop
  endfacet
  facet normal -0 0 1
    outer loop
      vertex -34 36.4 2.5
      vertex -30.4 36.2 2.5
      vertex -30.4 38.6 2.5
    endloop
  endfacet
  facet normal 0 0 1
    outer loop
      vertex -30.4 36.2 2.5
      vertex -34 36.4 2.5
      vertex -30.5 34.5 2.5
    endloop
  endfacet
  facet normal 0 0 1
    outer loop
      vertex -34 36.4 2.5
      vertex -30.4 38.6 2.5
      vertex -34 40.9 2.5
    endloop
  endfacet
  facet normal 0 0 1
    outer loop
      vertex -28 38.6 2.5
      vertex -34 40.9 2.5
      vertex -30.4 38.6 2.5
    endloop
  endfacet
  facet normal 0 0 1
    outer loop
      vertex -12 40.9 2.5
      vertex -18.4 36.1 2.5
      vertex -12 29.7 2.5
    endloop
  endfacet
  facet normal -0 0 1
    outer loop
      vertex -18.5 34.4 2.5
      vertex -12 29.7 2.5
      vertex -18.4 36.1 2.5
    endloop
  endfacet
  facet normal -0 0 1
    outer loop
      vertex -18.5 32 2.5
      vertex -12 29.7 2.5
      vertex -18.5 34.4 2.5
    endloop
  endfacet
  facet normal -0 0 1
    outer loop
      vertex -20.9 32 2.5
      vertex -12 29.7 2.5
      vertex -18.5 32 2.5
    endloop
  endfacet
  facet normal 0 0 1
    outer loop
      vertex -20.9 34.4 2.5
      vertex -27.9 34.5 2.5
      vertex -20.9 32 2.5
    endloop
  endfacet
  facet normal 0 0 1
    outer loop
      vertex -27.9 31.9 2.5
      vertex -20.9 32 2.5
      vertex -27.9 34.5 2.5
    endloop
  endfacet
  facet normal 0 0 1
    outer loop
      vertex -34 29.7 2.5
      vertex -20.9 32 2.5
      vertex -27.9 31.9 2.5
    endloop
  endfacet
  facet normal 0 0 1
    outer loop
      vertex -34 29.7 2.5
      vertex -27.9 31.9 2.5
      vertex -30.5 31.9 2.5
    endloop
  endfacet
  facet normal 0 0 1
    outer loop
      vertex -34 34.2 2.5
      vertex -30.5 34.5 2.5
      vertex -34 36.4 2.5
    endloop
  endfacet
  facet normal 0 0 1
    outer loop
      vertex -30.5 34.5 2.5
      vertex -34 34.2 2.5
      vertex -30.5 31.9 2.5
    endloop
  endfacet
  facet normal 0 0 1
    outer loop
      vertex -20.9 32 2.5
      vertex -34 29.7 2.5
      vertex -12 29.7 2.5
    endloop
  endfacet
  facet normal 0 0 1
    outer loop
      vertex -34 29.7 2.5
      vertex -30.5 31.9 2.5
      vertex -34 34.2 2.5
    endloop
  endfacet
  facet normal 0 0 1
    outer loop
      vertex -18.4 66.1 2.5
      vertex -12 70.3 2.5
      vertex -18.4 68.7 2.5
    endloop
  endfacet
  facet normal -0 0 1
    outer loop
      vertex -26 70.3 2.5
      vertex -18.4 68.7 2.5
      vertex -12 70.3 2.5
    endloop
  endfacet
  facet normal 0 0 1
    outer loop
      vertex -21 68.7 2.5
      vertex -26 70.3 2.5
      vertex -21 66.1 2.5
    endloop
  endfacet
  facet normal 0 0 1
    outer loop
      vertex -18.4 68.7 2.5
      vertex -26 70.3 2.5
      vertex -21 68.7 2.5
    endloop
  endfacet
  facet normal 0 0 1
    outer loop
      vertex -12 70.3 2.5
      vertex -18.4 66.1 2.5
      vertex -12 62.9 2.5
    endloop
  endfacet
  facet normal 0 0 1
    outer loop
      vertex -27 62.9 2.5
      vertex -18.4 66.1 2.5
      vertex -21 66.1 2.5
    endloop
  endfacet
  facet normal 0 0 1
    outer loop
      vertex -27 64.9 2.5
      vertex -21 66.1 2.5
      vertex -26 70.3 2.5
    endloop
  endfacet
  facet normal 0 0 1
    outer loop
      vertex -27 62.9 2.5
      vertex -21 66.1 2.5
      vertex -27 64.9 2.5
    endloop
  endfacet
  facet normal 0 0 1
    outer loop
      vertex -18.4 66.1 2.5
      vertex -27 62.9 2.5
      vertex -12 62.9 2.5
    endloop
  endfacet
  facet normal -0 0 1
    outer loop
      vertex -27 21.7 2.5
      vertex -12 19.7 2.5
      vertex -12 21.7 2.5
    endloop
  endfacet
  facet normal 0 0 1
    outer loop
      vertex -12 19.7 2.5
      vertex -27 21.7 2.5
      vertex -27 19.7 2.5
    endloop
  endfacet
  facet normal -0 0 1
    outer loop
      vertex -27 50.9 2.5
      vertex -12 48.9 2.5
      vertex -12 50.9 2.5
    endloop
  endfacet
  facet normal 0 0 1
    outer loop
      vertex -12 48.9 2.5
      vertex -27 50.9 2.5
      vertex -27 48.9 2.5
    endloop
  endfacet
  facet normal 0 1 0
    outer loop
      vertex -12 70.3 2.5
      vertex -26 70.3 5.77316e-015
      vertex -26 70.3 2.5
    endloop
  endfacet
  facet normal -0 1 0
    outer loop
      vertex -26 70.3 5.77316e-015
      vertex -12 70.3 2.5
      vertex -12 70.3 2.66454e-015
    endloop
  endfacet
  facet normal 1 0 0
    outer loop
      vertex -12 7.7 2.5
      vertex -12 0.299999 2.5
      vertex -12 7.7 1.2
    endloop
  endfacet
  facet normal 1 0 0
    outer loop
      vertex -12 21.7 2.5
      vertex -12 19.7 2.5
      vertex -12 21.7 1.2
    endloop
  endfacet
  facet normal 1 0 0
    outer loop
      vertex -12 40.9 2.5
      vertex -12 29.7 2.5
      vertex -12 40.9 1.2
    endloop
  endfacet
  facet normal 1 0 0
    outer loop
      vertex -12 50.9 2.5
      vertex -12 48.9 2.5
      vertex -12 50.9 1.2
    endloop
  endfacet
  facet normal 1 0 0
    outer loop
      vertex -12 62.9 1.2
      vertex -12 70.3 2.5
      vertex -12 62.9 2.5
    endloop
  endfacet
  facet normal 1 0 0
    outer loop
      vertex -12 70.3 2.5
      vertex -12 62.9 1.2
      vertex -12 70.3 2.66454e-015
    endloop
  endfacet
  facet normal 1 -0 0
    outer loop
      vertex -12 50.9 1.2
      vertex -12 70.3 2.66454e-015
      vertex -12 62.9 1.2
    endloop
  endfacet
  facet normal 1 0 0
    outer loop
      vertex -12 48.9 1.2
      vertex -12 50.9 1.2
      vertex -12 48.9 2.5
    endloop
  endfacet
  facet normal 1 -0 0
    outer loop
      vertex -12 48.9 1.2
      vertex -12 70.3 2.66454e-015
      vertex -12 50.9 1.2
    endloop
  endfacet
  facet normal 1 -0 0
    outer loop
      vertex -12 40.9 1.2
      vertex -12 70.3 2.66454e-015
      vertex -12 48.9 1.2
    endloop
  endfacet
  facet normal 1 0 0
    outer loop
      vertex -12 29.7 1.2
      vertex -12 40.9 1.2
      vertex -12 29.7 2.5
    endloop
  endfacet
  facet normal 1 -0 0
    outer loop
      vertex -12 29.7 1.2
      vertex -12 70.3 2.66454e-015
      vertex -12 40.9 1.2
    endloop
  endfacet
  facet normal 1 0 0
    outer loop
      vertex -12 0.299999 2.66454e-015
      vertex -12 29.7 1.2
      vertex -12 21.7 1.2
    endloop
  endfacet
  facet normal 1 0 0
    outer loop
      vertex -12 19.7 1.2
      vertex -12 21.7 1.2
      vertex -12 19.7 2.5
    endloop
  endfacet
  facet normal 1 0 0
    outer loop
      vertex -12 0.299999 2.66454e-015
      vertex -12 21.7 1.2
      vertex -12 19.7 1.2
    endloop
  endfacet
  facet normal 1 0 0
    outer loop
      vertex -12 0.299999 2.66454e-015
      vertex -12 19.7 1.2
      vertex -12 7.7 1.2
    endloop
  endfacet
  facet normal 1 0 0
    outer loop
      vertex -12 29.7 1.2
      vertex -12 0.299999 2.66454e-015
      vertex -12 70.3 2.66454e-015
    endloop
  endfacet
  facet normal 1 0 0
    outer loop
      vertex -12 0.299999 2.66454e-015
      vertex -12 7.7 1.2
      vertex -12 0.299999 2.5
    endloop
  endfacet
  facet normal 0 -1 0
    outer loop
      vertex -26 0.299999 5.77316e-015
      vertex -12 0.299999 2.5
      vertex -26 0.299999 2.5
    endloop
  endfacet
  facet normal 0 -1 -0
    outer loop
      vertex -12 0.299999 2.5
      vertex -26 0.299999 5.77316e-015
      vertex -12 0.299999 2.66454e-015
    endloop
  endfacet
  facet normal -1 0 0
    outer loop
      vertex -75 -12 1.66533e-014
      vertex -75 82.5 2.5
      vertex -75 82.5 1.66533e-014
    endloop
  endfacet
  facet normal -1 -0 0
    outer loop
      vertex -75 82.5 2.5
      vertex -75 -12 1.66533e-014
      vertex -75 -12 2.5
    endloop
  endfacet
  facet normal 0 1 0
    outer loop
      vertex -26 82.5 2.5
      vertex -75 82.5 1.66533e-014
      vertex -75 82.5 2.5
    endloop
  endfacet
  facet normal -0 1 0
    outer loop
      vertex -75 82.5 1.66533e-014
      vertex -26 82.5 2.5
      vertex -26 82.5 5.77316e-015
    endloop
  endfacet
  facet normal 1 -0 0
    outer loop
      vertex -26 70.3 2.5
      vertex -26 82.5 5.77316e-015
      vertex -26 82.5 2.5
    endloop
  endfacet
  facet normal 1 0 0
    outer loop
      vertex -26 82.5 5.77316e-015
      vertex -26 70.3 2.5
      vertex -26 70.3 5.77316e-015
    endloop
  endfacet
  facet normal 1 -0 0
    outer loop
      vertex -26 -12 2.5
      vertex -26 0.299999 5.77316e-015
      vertex -26 0.299999 2.5
    endloop
  endfacet
  facet normal 1 0 0
    outer loop
      vertex -26 0.299999 5.77316e-015
      vertex -26 -12 2.5
      vertex -26 -12 5.77316e-015
    endloop
  endfacet
  facet normal 0 -1 0
    outer loop
      vertex -75 -12 1.66533e-014
      vertex -26 -12 2.5
      vertex -75 -12 2.5
    endloop
  endfacet
  facet normal 0 -1 -0
    outer loop
      vertex -26 -12 2.5
      vertex -75 -12 1.66533e-014
      vertex -26 -12 5.77316e-015
    endloop
  endfacet
  facet normal -1 0 0
    outer loop
      vertex -73.4 76.2 2.5
      vertex -73.4 78.6 3.7
      vertex -73.4 78.6 2.5
    endloop
  endfacet
  facet normal -1 -0 0
    outer loop
      vertex -73.4 78.6 3.7
      vertex -73.4 76.2 2.5
      vertex -73.4 76.2 3.7
    endloop
  endfacet
  facet normal -0 0 1
    outer loop
      vertex -73.4 78.6 3.7
      vertex -71 76.2 3.7
      vertex -71 78.6 3.7
    endloop
  endfacet
  facet normal 0 0 1
    outer loop
      vertex -71 76.2 3.7
      vertex -73.4 78.6 3.7
      vertex -73.4 76.2 3.7
    endloop
  endfacet
  facet normal 1 -0 0
    outer loop
      vertex -71 76.2 3.7
      vertex -71 78.6 2.5
      vertex -71 78.6 3.7
    endloop
  endfacet
  facet normal 1 0 0
    outer loop
      vertex -71 78.6 2.5
      vertex -71 76.2 3.7
      vertex -71 76.2 2.5
    endloop
  endfacet
  facet normal 0 -1 0
    outer loop
      vertex -73.4 76.2 2.5
      vertex -71 76.2 3.7
      vertex -73.4 76.2 3.7
    endloop
  endfacet
  facet normal 0 -1 -0
    outer loop
      vertex -71 76.2 3.7
      vertex -73.4 76.2 2.5
      vertex -71 76.2 2.5
    endloop
  endfacet
  facet normal 0 1 -0
    outer loop
      vertex -71 78.6 2.5
      vertex -73.4 78.6 3.7
      vertex -71 78.6 3.7
    endloop
  endfacet
  facet normal 0 1 0
    outer loop
      vertex -73.4 78.6 3.7
      vertex -71 78.6 2.5
      vertex -73.4 78.6 2.5
    endloop
  endfacet
  facet normal -1 0 0
    outer loop
      vertex -73.4 56.2 2.5
      vertex -73.4 58.6 3.7
      vertex -73.4 58.6 2.5
    endloop
  endfacet
  facet normal -1 -0 0
    outer loop
      vertex -73.4 58.6 3.7
      vertex -73.4 56.2 2.5
      vertex -73.4 56.2 3.7
    endloop
  endfacet
  facet normal -0 0 1
    outer loop
      vertex -73.4 58.6 3.7
      vertex -71 56.2 3.7
      vertex -71 58.6 3.7
    endloop
  endfacet
  facet normal 0 0 1
    outer loop
      vertex -71 56.2 3.7
      vertex -73.4 58.6 3.7
      vertex -73.4 56.2 3.7
    endloop
  endfacet
  facet normal 0 1 -0
    outer loop
      vertex -71 58.6 2.5
      vertex -73.4 58.6 3.7
      vertex -71 58.6 3.7
    endloop
  endfacet
  facet normal 0 1 0
    outer loop
      vertex -73.4 58.6 3.7
      vertex -71 58.6 2.5
      vertex -73.4 58.6 2.5
    endloop
  endfacet
  facet normal 1 -0 0
    outer loop
      vertex -71 56.2 3.7
      vertex -71 58.6 2.5
      vertex -71 58.6 3.7
    endloop
  endfacet
  facet normal 1 0 0
    outer loop
      vertex -71 58.6 2.5
      vertex -71 56.2 3.7
      vertex -71 56.2 2.5
    endloop
  endfacet
  facet normal 0 -1 0
    outer loop
      vertex -73.4 56.2 2.5
      vertex -71 56.2 3.7
      vertex -73.4 56.2 3.7
    endloop
  endfacet
  facet normal 0 -1 -0
    outer loop
      vertex -71 56.2 3.7
      vertex -73.4 56.2 2.5
      vertex -71 56.2 2.5
    endloop
  endfacet
  facet normal -1 0 0
    outer loop
      vertex -30.4 76.2 2.5
      vertex -30.4 78.6 3.7
      vertex -30.4 78.6 2.5
    endloop
  endfacet
  facet normal -1 -0 0
    outer loop
      vertex -30.4 78.6 3.7
      vertex -30.4 76.2 2.5
      vertex -30.4 76.2 3.7
    endloop
  endfacet
  facet normal -0 0 1
    outer loop
      vertex -30.4 78.6 3.7
      vertex -28 76.2 3.7
      vertex -28 78.6 3.7
    endloop
  endfacet
  facet normal 0 0 1
    outer loop
      vertex -28 76.2 3.7
      vertex -30.4 78.6 3.7
      vertex -30.4 76.2 3.7
    endloop
  endfacet
  facet normal 0 1 -0
    outer loop
      vertex -28 78.6 2.5
      vertex -30.4 78.6 3.7
      vertex -28 78.6 3.7
    endloop
  endfacet
  facet normal 0 1 0
    outer loop
      vertex -30.4 78.6 3.7
      vertex -28 78.6 2.5
      vertex -30.4 78.6 2.5
    endloop
  endfacet
  facet normal 1 -0 0
    outer loop
      vertex -28 76.2 3.7
      vertex -28 78.6 2.5
      vertex -28 78.6 3.7
    endloop
  endfacet
  facet normal 1 0 0
    outer loop
      vertex -28 78.6 2.5
      vertex -28 76.2 3.7
      vertex -28 76.2 2.5
    endloop
  endfacet
  facet normal 0 -1 0
    outer loop
      vertex -30.4 76.2 2.5
      vertex -28 76.2 3.7
      vertex -30.4 76.2 3.7
    endloop
  endfacet
  facet normal 0 -1 -0
    outer loop
      vertex -28 76.2 3.7
      vertex -30.4 76.2 2.5
      vertex -28 76.2 2.5
    endloop
  endfacet
  facet normal -1 0 0
    outer loop
      vertex -20.9 2 2.5
      vertex -20.9 4.4 3.7
      vertex -20.9 4.4 2.5
    endloop
  endfacet
  facet normal -1 -0 0
    outer loop
      vertex -20.9 4.4 3.7
      vertex -20.9 2 2.5
      vertex -20.9 2 3.7
    endloop
  endfacet
  facet normal -0 0 1
    outer loop
      vertex -20.9 4.4 3.7
      vertex -18.5 2 3.7
      vertex -18.5 4.4 3.7
    endloop
  endfacet
  facet normal 0 0 1
    outer loop
      vertex -18.5 2 3.7
      vertex -20.9 4.4 3.7
      vertex -20.9 2 3.7
    endloop
  endfacet
  facet normal 0 1 -0
    outer loop
      vertex -18.5 4.4 2.5
      vertex -20.9 4.4 3.7
      vertex -18.5 4.4 3.7
    endloop
  endfacet
  facet normal 0 1 0
    outer loop
      vertex -20.9 4.4 3.7
      vertex -18.5 4.4 2.5
      vertex -20.9 4.4 2.5
    endloop
  endfacet
  facet normal 1 -0 0
    outer loop
      vertex -18.5 2 3.7
      vertex -18.5 4.4 2.5
      vertex -18.5 4.4 3.7
    endloop
  endfacet
  facet normal 1 0 0
    outer loop
      vertex -18.5 4.4 2.5
      vertex -18.5 2 3.7
      vertex -18.5 2 2.5
    endloop
  endfacet
  facet normal 0 -1 0
    outer loop
      vertex -20.9 2 2.5
      vertex -18.5 2 3.7
      vertex -20.9 2 3.7
    endloop
  endfacet
  facet normal 0 -1 -0
    outer loop
      vertex -18.5 2 3.7
      vertex -20.9 2 2.5
      vertex -18.5 2 2.5
    endloop
  endfacet
  facet normal -1 0 0
    outer loop
      vertex -73.4 36.2 2.5
      vertex -73.4 38.6 3.7
      vertex -73.4 38.6 2.5
    endloop
  endfacet
  facet normal -1 -0 0
    outer loop
      vertex -73.4 38.6 3.7
      vertex -73.4 36.2 2.5
      vertex -73.4 36.2 3.7
    endloop
  endfacet
  facet normal -0 0 1
    outer loop
      vertex -73.4 38.6 3.7
      vertex -71 36.2 3.7
      vertex -71 38.6 3.7
    endloop
  endfacet
  facet normal 0 0 1
    outer loop
      vertex -71 36.2 3.7
      vertex -73.4 38.6 3.7
      vertex -73.4 36.2 3.7
    endloop
  endfacet
  facet normal 1 -0 0
    outer loop
      vertex -71 36.2 3.7
      vertex -71 38.6 2.5
      vertex -71 38.6 3.7
    endloop
  endfacet
  facet normal 1 0 0
    outer loop
      vertex -71 38.6 2.5
      vertex -71 36.2 3.7
      vertex -71 36.2 2.5
    endloop
  endfacet
  facet normal 0 -1 0
    outer loop
      vertex -73.4 36.2 2.5
      vertex -71 36.2 3.7
      vertex -73.4 36.2 3.7
    endloop
  endfacet
  facet normal 0 -1 -0
    outer loop
      vertex -71 36.2 3.7
      vertex -73.4 36.2 2.5
      vertex -71 36.2 2.5
    endloop
  endfacet
  facet normal 0 1 -0
    outer loop
      vertex -71 38.6 2.5
      vertex -73.4 38.6 3.7
      vertex -71 38.6 3.7
    endloop
  endfacet
  facet normal 0 1 0
    outer loop
      vertex -73.4 38.6 3.7
      vertex -71 38.6 2.5
      vertex -73.4 38.6 2.5
    endloop
  endfacet
  facet normal -1 0 0
    outer loop
      vertex -30.4 36.2 2.5
      vertex -30.4 38.6 3.7
      vertex -30.4 38.6 2.5
    endloop
  endfacet
  facet normal -1 -0 0
    outer loop
      vertex -30.4 38.6 3.7
      vertex -30.4 36.2 2.5
      vertex -30.4 36.2 3.7
    endloop
  endfacet
  facet normal -0 0 1
    outer loop
      vertex -30.4 38.6 3.7
      vertex -28 36.2 3.7
      vertex -28 38.6 3.7
    endloop
  endfacet
  facet normal 0 0 1
    outer loop
      vertex -28 36.2 3.7
      vertex -30.4 38.6 3.7
      vertex -30.4 36.2 3.7
    endloop
  endfacet
  facet normal 1 -0 0
    outer loop
      vertex -28 36.2 3.7
      vertex -28 38.6 2.5
      vertex -28 38.6 3.7
    endloop
  endfacet
  facet normal 1 0 0
    outer loop
      vertex -28 38.6 2.5
      vertex -28 36.2 3.7
      vertex -28 36.2 2.5
    endloop
  endfacet
  facet normal 0 -1 0
    outer loop
      vertex -30.4 36.2 2.5
      vertex -28 36.2 3.7
      vertex -30.4 36.2 3.7
    endloop
  endfacet
  facet normal 0 -1 -0
    outer loop
      vertex -28 36.2 3.7
      vertex -30.4 36.2 2.5
      vertex -28 36.2 2.5
    endloop
  endfacet
  facet normal 0 1 -0
    outer loop
      vertex -28 38.6 2.5
      vertex -30.4 38.6 3.7
      vertex -28 38.6 3.7
    endloop
  endfacet
  facet normal 0 1 0
    outer loop
      vertex -30.4 38.6 3.7
      vertex -28 38.6 2.5
      vertex -30.4 38.6 2.5
    endloop
  endfacet
  facet normal -1 0 0
    outer loop
      vertex -20.9 32 2.5
      vertex -20.9 34.4 3.7
      vertex -20.9 34.4 2.5
    endloop
  endfacet
  facet normal -1 -0 0
    outer loop
      vertex -20.9 34.4 3.7
      vertex -20.9 32 2.5
      vertex -20.9 32 3.7
    endloop
  endfacet
  facet normal -0 0 1
    outer loop
      vertex -20.9 34.4 3.7
      vertex -18.5 32 3.7
      vertex -18.5 34.4 3.7
    endloop
  endfacet
  facet normal 0 0 1
    outer loop
      vertex -18.5 32 3.7
      vertex -20.9 34.4 3.7
      vertex -20.9 32 3.7
    endloop
  endfacet
  facet normal 0 1 -0
    outer loop
      vertex -18.5 34.4 2.5
      vertex -20.9 34.4 3.7
      vertex -18.5 34.4 3.7
    endloop
  endfacet
  facet normal 0 1 0
    outer loop
      vertex -20.9 34.4 3.7
      vertex -18.5 34.4 2.5
      vertex -20.9 34.4 2.5
    endloop
  endfacet
  facet normal 1 -0 0
    outer loop
      vertex -18.5 32 3.7
      vertex -18.5 34.4 2.5
      vertex -18.5 34.4 3.7
    endloop
  endfacet
  facet normal 1 0 0
    outer loop
      vertex -18.5 34.4 2.5
      vertex -18.5 32 3.7
      vertex -18.5 32 2.5
    endloop
  endfacet
  facet normal 0 -1 0
    outer loop
      vertex -20.9 32 2.5
      vertex -18.5 32 3.7
      vertex -20.9 32 3.7
    endloop
  endfacet
  facet normal 0 -1 -0
    outer loop
      vertex -18.5 32 3.7
      vertex -20.9 32 2.5
      vertex -18.5 32 2.5
    endloop
  endfacet
  facet normal 0 0 1
    outer loop
      vertex -44 80.4 1
      vertex -59 80.4 1
      vertex -44 79.4 1
    endloop
  endfacet
  facet normal -0 0 1
    outer loop
      vertex -37 77.9 1
      vertex -34 64.9 1
      vertex -34 79.4 1
    endloop
  endfacet
  facet normal 0 0 1
    outer loop
      vertex -37 37.9 1
      vertex -34 64.9 1
      vertex -37 77.9 1
    endloop
  endfacet
  facet normal 0 0 1
    outer loop
      vertex -34 64.9 1
      vertex -37 37.9 1
      vertex -34 40.9 1
    endloop
  endfacet
  facet normal -0 0 1
    outer loop
      vertex -44 79.4 1
      vertex -37 77.9 1
      vertex -34 79.4 1
    endloop
  endfacet
  facet normal 0 0 1
    outer loop
      vertex -59 79.4 1
      vertex -44 79.4 1
      vertex -59 80.4 1
    endloop
  endfacet
  facet normal 0 0 1
    outer loop
      vertex -44 79.4 1
      vertex -59 79.4 1
      vertex -37 77.9 1
    endloop
  endfacet
  facet normal 0 0 1
    outer loop
      vertex -59 79.4 1
      vertex -67.5 77.9 1
      vertex -37 77.9 1
    endloop
  endfacet
  facet normal 0 0 1
    outer loop
      vertex -67.5 77.9 1
      vertex -69 79.4 1
      vertex -67.5 37.9 1
    endloop
  endfacet
  facet normal -0 0 1
    outer loop
      vertex -69 79.4 1
      vertex -67.5 77.9 1
      vertex -59 79.4 1
    endloop
  endfacet
  facet normal -0 0 1
    outer loop
      vertex -34 64.9 1
      vertex -27 40.9 1
      vertex -27 64.9 1
    endloop
  endfacet
  facet normal 0 0 1
    outer loop
      vertex -27 40.9 1
      vertex -34 64.9 1
      vertex -34 40.9 1
    endloop
  endfacet
  facet normal 0 0 1
    outer loop
      vertex -34 40.9 1
      vertex -37 37.9 1
      vertex -34 36.4 1
    endloop
  endfacet
  facet normal 0 0 1
    outer loop
      vertex -69 36.4 1
      vertex -37 37.9 1
      vertex -67.5 37.9 1
    endloop
  endfacet
  facet normal 0 0 1
    outer loop
      vertex -37 37.9 1
      vertex -69 36.4 1
      vertex -34 36.4 1
    endloop
  endfacet
  facet normal 0 0 1
    outer loop
      vertex -69 36.4 1
      vertex -67.5 37.9 1
      vertex -69 79.4 1
    endloop
  endfacet
  facet normal 1 -0 0
    outer loop
      vertex -69 36.4 2.5
      vertex -69 79.4 1
      vertex -69 79.4 2.5
    endloop
  endfacet
  facet normal 1 0 0
    outer loop
      vertex -69 79.4 1
      vertex -69 36.4 2.5
      vertex -69 36.4 1
    endloop
  endfacet
  facet normal 0 -1 0
    outer loop
      vertex -69 79.4 1
      vertex -59 79.4 2.5
      vertex -69 79.4 2.5
    endloop
  endfacet
  facet normal 0 -1 -0
    outer loop
      vertex -59 79.4 2.5
      vertex -69 79.4 1
      vertex -59 79.4 1
    endloop
  endfacet
  facet normal 0 -1 0
    outer loop
      vertex -44 79.4 1
      vertex -34 79.4 2.5
      vertex -44 79.4 2.5
    endloop
  endfacet
  facet normal 0 -1 -0
    outer loop
      vertex -34 79.4 2.5
      vertex -44 79.4 1
      vertex -34 79.4 1
    endloop
  endfacet
  facet normal -1 0 0
    outer loop
      vertex -34 64.9 1
      vertex -34 79.4 2.5
      vertex -34 79.4 1
    endloop
  endfacet
  facet normal -1 -0 0
    outer loop
      vertex -34 79.4 2.5
      vertex -34 64.9 1
      vertex -34 64.9 2.5
    endloop
  endfacet
  facet normal -1 0 0
    outer loop
      vertex -34 36.4 1
      vertex -34 40.9 2.5
      vertex -34 40.9 1
    endloop
  endfacet
  facet normal -1 -0 0
    outer loop
      vertex -34 40.9 2.5
      vertex -34 36.4 1
      vertex -34 36.4 2.5
    endloop
  endfacet
  facet normal 0 1 -0
    outer loop
      vertex -34 36.4 1
      vertex -69 36.4 2.5
      vertex -34 36.4 2.5
    endloop
  endfacet
  facet normal 0 1 0
    outer loop
      vertex -69 36.4 2.5
      vertex -34 36.4 1
      vertex -69 36.4 1
    endloop
  endfacet
  facet normal 1 -0 0
    outer loop
      vertex -59 79.4 2.5
      vertex -59 80.4 1
      vertex -59 80.4 2.5
    endloop
  endfacet
  facet normal 1 0 0
    outer loop
      vertex -59 80.4 1
      vertex -59 79.4 2.5
      vertex -59 79.4 1
    endloop
  endfacet
  facet normal -1 0 0
    outer loop
      vertex -44 79.4 1
      vertex -44 80.4 2.5
      vertex -44 80.4 1
    endloop
  endfacet
  facet normal -1 -0 0
    outer loop
      vertex -44 80.4 2.5
      vertex -44 79.4 1
      vertex -44 79.4 2.5
    endloop
  endfacet
  facet normal 0 -1 0
    outer loop
      vertex -59 80.4 1
      vertex -44 80.4 2.5
      vertex -59 80.4 2.5
    endloop
  endfacet
  facet normal 0 -1 -0
    outer loop
      vertex -44 80.4 2.5
      vertex -59 80.4 1
      vertex -44 80.4 1
    endloop
  endfacet
  facet normal 0 -1 0
    outer loop
      vertex -34 64.9 1
      vertex -27 64.9 2.5
      vertex -34 64.9 2.5
    endloop
  endfacet
  facet normal 0 -1 -0
    outer loop
      vertex -27 64.9 2.5
      vertex -34 64.9 1
      vertex -27 64.9 1
    endloop
  endfacet
  facet normal -1 0 0
    outer loop
      vertex -27 64.9 1
      vertex -27 62.9 1.2
      vertex -27 64.9 2.5
    endloop
  endfacet
  facet normal -1 0 0
    outer loop
      vertex -27 64.9 1
      vertex -27 50.9 1.2
      vertex -27 62.9 1.2
    endloop
  endfacet
  facet normal -1 0 0
    outer loop
      vertex -27 50.9 1.2
      vertex -27 48.9 1.2
      vertex -27 50.9 2.5
    endloop
  endfacet
  facet normal -1 0 0
    outer loop
      vertex -27 40.9 1
      vertex -27 50.9 1.2
      vertex -27 64.9 1
    endloop
  endfacet
  facet normal -1 -0 0
    outer loop
      vertex -27 50.9 1.2
      vertex -27 40.9 1
      vertex -27 48.9 1.2
    endloop
  endfacet
  facet normal -1 -0 0
    outer loop
      vertex -27 48.9 1.2
      vertex -27 40.9 1
      vertex -27 40.9 1.2
    endloop
  endfacet
  facet normal -1 -0 0
    outer loop
      vertex -27 64.9 2.5
      vertex -27 62.9 1.2
      vertex -27 62.9 2.5
    endloop
  endfacet
  facet normal -1 -0 0
    outer loop
      vertex -27 50.9 2.5
      vertex -27 48.9 1.2
      vertex -27 48.9 2.5
    endloop
  endfacet
  facet normal 0 1 0
    outer loop
      vertex -27 40.9 1.2
      vertex -12 40.9 2.5
      vertex -12 40.9 1.2
    endloop
  endfacet
  facet normal 0 1 0
    outer loop
      vertex -12 40.9 2.5
      vertex -27 40.9 1.2
      vertex -34 40.9 2.5
    endloop
  endfacet
  facet normal 0 1 0
    outer loop
      vertex -34 40.9 1
      vertex -27 40.9 1.2
      vertex -27 40.9 1
    endloop
  endfacet
  facet normal 0 1 0
    outer loop
      vertex -27 40.9 1.2
      vertex -34 40.9 1
      vertex -34 40.9 2.5
    endloop
  endfacet
  facet normal -0 0 1
    outer loop
      vertex -27 48.9 1.2
      vertex -12 40.9 1.2
      vertex -12 48.9 1.2
    endloop
  endfacet
  facet normal 0 0 1
    outer loop
      vertex -12 40.9 1.2
      vertex -27 48.9 1.2
      vertex -27 40.9 1.2
    endloop
  endfacet
  facet normal 0 -1 0
    outer loop
      vertex -27 48.9 1.2
      vertex -12 48.9 2.5
      vertex -27 48.9 2.5
    endloop
  endfacet
  facet normal 0 -1 -0
    outer loop
      vertex -12 48.9 2.5
      vertex -27 48.9 1.2
      vertex -12 48.9 1.2
    endloop
  endfacet
  facet normal -0 0 1
    outer loop
      vertex -27 62.9 1.2
      vertex -12 50.9 1.2
      vertex -12 62.9 1.2
    endloop
  endfacet
  facet normal 0 0 1
    outer loop
      vertex -12 50.9 1.2
      vertex -27 62.9 1.2
      vertex -27 50.9 1.2
    endloop
  endfacet
  facet normal 0 1 -0
    outer loop
      vertex -12 50.9 1.2
      vertex -27 50.9 2.5
      vertex -12 50.9 2.5
    endloop
  endfacet
  facet normal 0 1 0
    outer loop
      vertex -27 50.9 2.5
      vertex -12 50.9 1.2
      vertex -27 50.9 1.2
    endloop
  endfacet
  facet normal 0 -1 0
    outer loop
      vertex -27 62.9 1.2
      vertex -12 62.9 2.5
      vertex -27 62.9 2.5
    endloop
  endfacet
  facet normal 0 -1 -0
    outer loop
      vertex -12 62.9 2.5
      vertex -27 62.9 1.2
      vertex -12 62.9 1.2
    endloop
  endfacet
  facet normal 1 -0 0
    outer loop
      vertex -67.5 37.9 1
      vertex -67.5 77.9 1.4988e-014
      vertex -67.5 77.9 1
    endloop
  endfacet
  facet normal 1 0 0
    outer loop
      vertex -67.5 77.9 1.4988e-014
      vertex -67.5 37.9 1
      vertex -67.5 37.9 1.4988e-014
    endloop
  endfacet
  facet normal -1 0 0
    outer loop
      vertex -37 37.9 8.21565e-015
      vertex -37 77.9 1
      vertex -37 77.9 8.21565e-015
    endloop
  endfacet
  facet normal -1 -0 0
    outer loop
      vertex -37 77.9 1
      vertex -37 37.9 8.21565e-015
      vertex -37 37.9 1
    endloop
  endfacet
  facet normal 0 1 0
    outer loop
      vertex -37 37.9 1
      vertex -67.5 37.9 1.4988e-014
      vertex -67.5 37.9 1
    endloop
  endfacet
  facet normal -0 1 0
    outer loop
      vertex -67.5 37.9 1.4988e-014
      vertex -37 37.9 1
      vertex -37 37.9 8.21565e-015
    endloop
  endfacet
  facet normal 0 -1 0
    outer loop
      vertex -67.5 77.9 1.4988e-014
      vertex -37 77.9 1
      vertex -67.5 77.9 1
    endloop
  endfacet
  facet normal 0 -1 -0
    outer loop
      vertex -37 77.9 1
      vertex -67.5 77.9 1.4988e-014
      vertex -37 77.9 8.21565e-015
    endloop
  endfacet
  facet normal -0 0 1
    outer loop
      vertex -37 32.7 1
      vertex -34 29.7 1
      vertex -34 34.2 1
    endloop
  endfacet
  facet normal 0 0 1
    outer loop
      vertex -34 29.7 1
      vertex -37 32.7 1
      vertex -34 5.7 1
    endloop
  endfacet
  facet normal 0 0 1
    outer loop
      vertex -37 -7.3 1
      vertex -34 5.7 1
      vertex -37 32.7 1
    endloop
  endfacet
  facet normal -0 0 1
    outer loop
      vertex -69 34.2 1
      vertex -37 32.7 1
      vertex -34 34.2 1
    endloop
  endfacet
  facet normal 0 0 1
    outer loop
      vertex -67.5 32.7 1
      vertex -69 34.2 1
      vertex -67.5 -7.3 1
    endloop
  endfacet
  facet normal 0 0 1
    outer loop
      vertex -37 32.7 1
      vertex -69 34.2 1
      vertex -67.5 32.7 1
    endloop
  endfacet
  facet normal -0 0 1
    outer loop
      vertex -34 29.7 1
      vertex -27 5.7 1
      vertex -27 29.7 1
    endloop
  endfacet
  facet normal 0 0 1
    outer loop
      vertex -27 5.7 1
      vertex -34 29.7 1
      vertex -34 5.7 1
    endloop
  endfacet
  facet normal 0 0 1
    outer loop
      vertex -34 5.7 1
      vertex -37 -7.3 1
      vertex -34 -8.8 1
    endloop
  endfacet
  facet normal 0 0 1
    outer loop
      vertex -37 -7.3 1
      vertex -44 -8.8 1
      vertex -34 -8.8 1
    endloop
  endfacet
  facet normal 0 0 1
    outer loop
      vertex -44 -8.8 1
      vertex -59 -8.8 1
      vertex -44 -9.8 1
    endloop
  endfacet
  facet normal 0 0 1
    outer loop
      vertex -37 -7.3 1
      vertex -59 -8.8 1
      vertex -44 -8.8 1
    endloop
  endfacet
  facet normal -0 0 1
    outer loop
      vertex -67.5 -7.3 1
      vertex -59 -8.8 1
      vertex -37 -7.3 1
    endloop
  endfacet
  facet normal 0 0 1
    outer loop
      vertex -67.5 -7.3 1
      vertex -69 -8.8 1
      vertex -59 -8.8 1
    endloop
  endfacet
  facet normal 0 0 1
    outer loop
      vertex -69 -8.8 1
      vertex -67.5 -7.3 1
      vertex -69 34.2 1
    endloop
  endfacet
  facet normal 0 0 1
    outer loop
      vertex -44 -9.8 1
      vertex -59 -8.8 1
      vertex -59 -9.8 1
    endloop
  endfacet
  facet normal 1 -0 0
    outer loop
      vertex -69 -8.8 2.5
      vertex -69 34.2 1
      vertex -69 34.2 2.5
    endloop
  endfacet
  facet normal 1 0 0
    outer loop
      vertex -69 34.2 1
      vertex -69 -8.8 2.5
      vertex -69 -8.8 1
    endloop
  endfacet
  facet normal 0 1 -0
    outer loop
      vertex -59 -8.8 1
      vertex -69 -8.8 2.5
      vertex -59 -8.8 2.5
    endloop
  endfacet
  facet normal 0 1 0
    outer loop
      vertex -69 -8.8 2.5
      vertex -59 -8.8 1
      vertex -69 -8.8 1
    endloop
  endfacet
  facet normal 0 1 -0
    outer loop
      vertex -34 -8.8 1
      vertex -44 -8.8 2.5
      vertex -34 -8.8 2.5
    endloop
  endfacet
  facet normal 0 1 0
    outer loop
      vertex -44 -8.8 2.5
      vertex -34 -8.8 1
      vertex -44 -8.8 1
    endloop
  endfacet
  facet normal -1 0 0
    outer loop
      vertex -34 -8.8 1
      vertex -34 5.7 2.5
      vertex -34 5.7 1
    endloop
  endfacet
  facet normal -1 -0 0
    outer loop
      vertex -34 5.7 2.5
      vertex -34 -8.8 1
      vertex -34 -8.8 2.5
    endloop
  endfacet
  facet normal -1 0 0
    outer loop
      vertex -34 29.7 1
      vertex -34 34.2 2.5
      vertex -34 34.2 1
    endloop
  endfacet
  facet normal -1 -0 0
    outer loop
      vertex -34 34.2 2.5
      vertex -34 29.7 1
      vertex -34 29.7 2.5
    endloop
  endfacet
  facet normal 0 -1 0
    outer loop
      vertex -69 34.2 1
      vertex -34 34.2 2.5
      vertex -69 34.2 2.5
    endloop
  endfacet
  facet normal 0 -1 -0
    outer loop
      vertex -34 34.2 2.5
      vertex -69 34.2 1
      vertex -34 34.2 1
    endloop
  endfacet
  facet normal 1 -0 0
    outer loop
      vertex -59 -9.8 2.5
      vertex -59 -8.8 1
      vertex -59 -8.8 2.5
    endloop
  endfacet
  facet normal 1 0 0
    outer loop
      vertex -59 -8.8 1
      vertex -59 -9.8 2.5
      vertex -59 -9.8 1
    endloop
  endfacet
  facet normal -1 0 0
    outer loop
      vertex -44 -9.8 1
      vertex -44 -8.8 2.5
      vertex -44 -8.8 1
    endloop
  endfacet
  facet normal -1 -0 0
    outer loop
      vertex -44 -8.8 2.5
      vertex -44 -9.8 1
      vertex -44 -9.8 2.5
    endloop
  endfacet
  facet normal 0 1 -0
    outer loop
      vertex -44 -9.8 1
      vertex -59 -9.8 2.5
      vertex -44 -9.8 2.5
    endloop
  endfacet
  facet normal 0 1 0
    outer loop
      vertex -59 -9.8 2.5
      vertex -44 -9.8 1
      vertex -59 -9.8 1
    endloop
  endfacet
  facet normal 0 1 -0
    outer loop
      vertex -27 5.7 1
      vertex -34 5.7 2.5
      vertex -27 5.7 2.5
    endloop
  endfacet
  facet normal 0 1 0
    outer loop
      vertex -34 5.7 2.5
      vertex -27 5.7 1
      vertex -34 5.7 1
    endloop
  endfacet
  facet normal -1 0 0
    outer loop
      vertex -27 29.7 1
      vertex -27 21.7 1.2
      vertex -27 29.7 1.2
    endloop
  endfacet
  facet normal -1 0 0
    outer loop
      vertex -27 21.7 1.2
      vertex -27 19.7 1.2
      vertex -27 21.7 2.5
    endloop
  endfacet
  facet normal -1 0 0
    outer loop
      vertex -27 29.7 1
      vertex -27 19.7 1.2
      vertex -27 21.7 1.2
    endloop
  endfacet
  facet normal -1 0 0
    outer loop
      vertex -27 5.7 1
      vertex -27 19.7 1.2
      vertex -27 29.7 1
    endloop
  endfacet
  facet normal -1 -0 0
    outer loop
      vertex -27 19.7 1.2
      vertex -27 5.7 1
      vertex -27 7.7 1.2
    endloop
  endfacet
  facet normal -1 0 0
    outer loop
      vertex -27 5.7 2.5
      vertex -27 7.7 1.2
      vertex -27 5.7 1
    endloop
  endfacet
  facet normal -1 0 0
    outer loop
      vertex -27 7.7 1.2
      vertex -27 5.7 2.5
      vertex -27 7.7 2.5
    endloop
  endfacet
  facet normal -1 -0 0
    outer loop
      vertex -27 21.7 2.5
      vertex -27 19.7 1.2
      vertex -27 19.7 2.5
    endloop
  endfacet
  facet normal 0 -1 0
    outer loop
      vertex -34 29.7 2.5
      vertex -27 29.7 1.2
      vertex -12 29.7 2.5
    endloop
  endfacet
  facet normal 0 -1 0
    outer loop
      vertex -34 29.7 1
      vertex -27 29.7 1.2
      vertex -34 29.7 2.5
    endloop
  endfacet
  facet normal 0 -1 -0
    outer loop
      vertex -27 29.7 1.2
      vertex -34 29.7 1
      vertex -27 29.7 1
    endloop
  endfacet
  facet normal 0 -1 -0
    outer loop
      vertex -12 29.7 2.5
      vertex -27 29.7 1.2
      vertex -12 29.7 1.2
    endloop
  endfacet
  facet normal -0 0 1
    outer loop
      vertex -27 29.7 1.2
      vertex -12 21.7 1.2
      vertex -12 29.7 1.2
    endloop
  endfacet
  facet normal 0 0 1
    outer loop
      vertex -12 21.7 1.2
      vertex -27 29.7 1.2
      vertex -27 21.7 1.2
    endloop
  endfacet
  facet normal 0 1 -0
    outer loop
      vertex -12 21.7 1.2
      vertex -27 21.7 2.5
      vertex -12 21.7 2.5
    endloop
  endfacet
  facet normal 0 1 0
    outer loop
      vertex -27 21.7 2.5
      vertex -12 21.7 1.2
      vertex -27 21.7 1.2
    endloop
  endfacet
  facet normal -0 0 1
    outer loop
      vertex -27 19.7 1.2
      vertex -12 7.7 1.2
      vertex -12 19.7 1.2
    endloop
  endfacet
  facet normal 0 0 1
    outer loop
      vertex -12 7.7 1.2
      vertex -27 19.7 1.2
      vertex -27 7.7 1.2
    endloop
  endfacet
  facet normal 0 -1 0
    outer loop
      vertex -27 19.7 1.2
      vertex -12 19.7 2.5
      vertex -27 19.7 2.5
    endloop
  endfacet
  facet normal 0 -1 -0
    outer loop
      vertex -12 19.7 2.5
      vertex -27 19.7 1.2
      vertex -12 19.7 1.2
    endloop
  endfacet
  facet normal 0 1 -0
    outer loop
      vertex -12 7.7 1.2
      vertex -27 7.7 2.5
      vertex -12 7.7 2.5
    endloop
  endfacet
  facet normal 0 1 0
    outer loop
      vertex -27 7.7 2.5
      vertex -12 7.7 1.2
      vertex -27 7.7 1.2
    endloop
  endfacet
  facet normal 1 -0 0
    outer loop
      vertex -67.5 -7.3 1
      vertex -67.5 32.7 1.4988e-014
      vertex -67.5 32.7 1
    endloop
  endfacet
  facet normal 1 0 0
    outer loop
      vertex -67.5 32.7 1.4988e-014
      vertex -67.5 -7.3 1
      vertex -67.5 -7.3 1.4988e-014
    endloop
  endfacet
  facet normal -1 0 0
    outer loop
      vertex -37 -7.3 8.21565e-015
      vertex -37 32.7 1
      vertex -37 32.7 8.21565e-015
    endloop
  endfacet
  facet normal -1 -0 0
    outer loop
      vertex -37 32.7 1
      vertex -37 -7.3 8.21565e-015
      vertex -37 -7.3 1
    endloop
  endfacet
  facet normal 0 -1 0
    outer loop
      vertex -67.5 32.7 1.4988e-014
      vertex -37 32.7 1
      vertex -67.5 32.7 1
    endloop
  endfacet
  facet normal 0 -1 -0
    outer loop
      vertex -37 32.7 1
      vertex -67.5 32.7 1.4988e-014
      vertex -37 32.7 8.21565e-015
    endloop
  endfacet
  facet normal 0 1 0
    outer loop
      vertex -37 -7.3 1
      vertex -67.5 -7.3 1.4988e-014
      vertex -67.5 -7.3 1
    endloop
  endfacet
  facet normal -0 1 0
    outer loop
      vertex -67.5 -7.3 1.4988e-014
      vertex -37 -7.3 1
      vertex -37 -7.3 8.21565e-015
    endloop
  endfacet
  facet normal -0 0 1
    outer loop
      vertex -73.5 -5.5 1.2
      vertex -70.9 -8.1 1.2
      vertex -70.9 -5.5 1.2
    endloop
  endfacet
  facet normal 0 0 1
    outer loop
      vertex -70.9 -8.1 1.2
      vertex -73.5 -5.5 1.2
      vertex -73.5 -8.1 1.2
    endloop
  endfacet
  facet normal 1 -0 0
    outer loop
      vertex -73.5 -8.1 2.5
      vertex -73.5 -5.5 1.2
      vertex -73.5 -5.5 2.5
    endloop
  endfacet
  facet normal 1 0 0
    outer loop
      vertex -73.5 -5.5 1.2
      vertex -73.5 -8.1 2.5
      vertex -73.5 -8.1 1.2
    endloop
  endfacet
  facet normal -1 0 0
    outer loop
      vertex -70.9 -8.1 1.2
      vertex -70.9 -5.5 2.5
      vertex -70.9 -5.5 1.2
    endloop
  endfacet
  facet normal -1 -0 0
    outer loop
      vertex -70.9 -5.5 2.5
      vertex -70.9 -8.1 1.2
      vertex -70.9 -8.1 2.5
    endloop
  endfacet
  facet normal 0 1 -0
    outer loop
      vertex -70.9 -8.1 1.2
      vertex -73.5 -8.1 2.5
      vertex -70.9 -8.1 2.5
    endloop
  endfacet
  facet normal 0 1 0
    outer loop
      vertex -73.5 -8.1 2.5
      vertex -70.9 -8.1 1.2
      vertex -73.5 -8.1 1.2
    endloop
  endfacet
  facet normal 0 -1 0
    outer loop
      vertex -73.5 -5.5 1.2
      vertex -70.9 -5.5 2.5
      vertex -73.5 -5.5 2.5
    endloop
  endfacet
  facet normal 0 -1 -0
    outer loop
      vertex -70.9 -5.5 2.5
      vertex -73.5 -5.5 1.2
      vertex -70.9 -5.5 1.2
    endloop
  endfacet
  facet normal -0 0 1
    outer loop
      vertex -73.5 14.5 1.2
      vertex -70.9 11.9 1.2
      vertex -70.9 14.5 1.2
    endloop
  endfacet
  facet normal 0 0 1
    outer loop
      vertex -70.9 11.9 1.2
      vertex -73.5 14.5 1.2
      vertex -73.5 11.9 1.2
    endloop
  endfacet
  facet normal 1 -0 0
    outer loop
      vertex -73.5 11.9 2.5
      vertex -73.5 14.5 1.2
      vertex -73.5 14.5 2.5
    endloop
  endfacet
  facet normal 1 0 0
    outer loop
      vertex -73.5 14.5 1.2
      vertex -73.5 11.9 2.5
      vertex -73.5 11.9 1.2
    endloop
  endfacet
  facet normal -1 0 0
    outer loop
      vertex -70.9 11.9 1.2
      vertex -70.9 14.5 2.5
      vertex -70.9 14.5 1.2
    endloop
  endfacet
  facet normal -1 -0 0
    outer loop
      vertex -70.9 14.5 2.5
      vertex -70.9 11.9 1.2
      vertex -70.9 11.9 2.5
    endloop
  endfacet
  facet normal 0 1 -0
    outer loop
      vertex -70.9 11.9 1.2
      vertex -73.5 11.9 2.5
      vertex -70.9 11.9 2.5
    endloop
  endfacet
  facet normal 0 1 0
    outer loop
      vertex -73.5 11.9 2.5
      vertex -70.9 11.9 1.2
      vertex -73.5 11.9 1.2
    endloop
  endfacet
  facet normal 0 -1 0
    outer loop
      vertex -73.5 14.5 1.2
      vertex -70.9 14.5 2.5
      vertex -73.5 14.5 2.5
    endloop
  endfacet
  facet normal 0 -1 -0
    outer loop
      vertex -70.9 14.5 2.5
      vertex -73.5 14.5 1.2
      vertex -70.9 14.5 1.2
    endloop
  endfacet
  facet normal -0 0 1
    outer loop
      vertex -30.5 -5.5 1.2
      vertex -27.9 -8.1 1.2
      vertex -27.9 -5.5 1.2
    endloop
  endfacet
  facet normal 0 0 1
    outer loop
      vertex -27.9 -8.1 1.2
      vertex -30.5 -5.5 1.2
      vertex -30.5 -8.1 1.2
    endloop
  endfacet
  facet normal 1 -0 0
    outer loop
      vertex -30.5 -8.1 2.5
      vertex -30.5 -5.5 1.2
      vertex -30.5 -5.5 2.5
    endloop
  endfacet
  facet normal 1 0 0
    outer loop
      vertex -30.5 -5.5 1.2
      vertex -30.5 -8.1 2.5
      vertex -30.5 -8.1 1.2
    endloop
  endfacet
  facet normal 0 -1 0
    outer loop
      vertex -30.5 -5.5 1.2
      vertex -27.9 -5.5 2.5
      vertex -30.5 -5.5 2.5
    endloop
  endfacet
  facet normal 0 -1 -0
    outer loop
      vertex -27.9 -5.5 2.5
      vertex -30.5 -5.5 1.2
      vertex -27.9 -5.5 1.2
    endloop
  endfacet
  facet normal -1 0 0
    outer loop
      vertex -27.9 -8.1 1.2
      vertex -27.9 -5.5 2.5
      vertex -27.9 -5.5 1.2
    endloop
  endfacet
  facet normal -1 -0 0
    outer loop
      vertex -27.9 -5.5 2.5
      vertex -27.9 -8.1 1.2
      vertex -27.9 -8.1 2.5
    endloop
  endfacet
  facet normal 0 1 -0
    outer loop
      vertex -27.9 -8.1 1.2
      vertex -30.5 -8.1 2.5
      vertex -27.9 -8.1 2.5
    endloop
  endfacet
  facet normal 0 1 0
    outer loop
      vertex -30.5 -8.1 2.5
      vertex -27.9 -8.1 1.2
      vertex -30.5 -8.1 1.2
    endloop
  endfacet
  facet normal -0 0 1
    outer loop
      vertex -21 68.7 1.2
      vertex -18.4 66.1 1.2
      vertex -18.4 68.7 1.2
    endloop
  endfacet
  facet normal 0 0 1
    outer loop
      vertex -18.4 66.1 1.2
      vertex -21 68.7 1.2
      vertex -21 66.1 1.2
    endloop
  endfacet
  facet normal 1 -0 0
    outer loop
      vertex -21 66.1 2.5
      vertex -21 68.7 1.2
      vertex -21 68.7 2.5
    endloop
  endfacet
  facet normal 1 0 0
    outer loop
      vertex -21 68.7 1.2
      vertex -21 66.1 2.5
      vertex -21 66.1 1.2
    endloop
  endfacet
  facet normal 0 -1 0
    outer loop
      vertex -21 68.7 1.2
      vertex -18.4 68.7 2.5
      vertex -21 68.7 2.5
    endloop
  endfacet
  facet normal 0 -1 -0
    outer loop
      vertex -18.4 68.7 2.5
      vertex -21 68.7 1.2
      vertex -18.4 68.7 1.2
    endloop
  endfacet
  facet normal -1 0 0
    outer loop
      vertex -18.4 66.1 1.2
      vertex -18.4 68.7 2.5
      vertex -18.4 68.7 1.2
    endloop
  endfacet
  facet normal -1 -0 0
    outer loop
      vertex -18.4 68.7 2.5
      vertex -18.4 66.1 1.2
      vertex -18.4 66.1 2.5
    endloop
  endfacet
  facet normal 0 1 -0
    outer loop
      vertex -18.4 66.1 1.2
      vertex -21 66.1 2.5
      vertex -18.4 66.1 2.5
    endloop
  endfacet
  facet normal 0 1 0
    outer loop
      vertex -21 66.1 2.5
      vertex -18.4 66.1 1.2
      vertex -21 66.1 1.2
    endloop
  endfacet
  facet normal -0 0 1
    outer loop
      vertex -73.5 34.5 1.2
      vertex -70.9 31.9 1.2
      vertex -70.9 34.5 1.2
    endloop
  endfacet
  facet normal 0 0 1
    outer loop
      vertex -70.9 31.9 1.2
      vertex -73.5 34.5 1.2
      vertex -73.5 31.9 1.2
    endloop
  endfacet
  facet normal 1 -0 0
    outer loop
      vertex -73.5 31.9 2.5
      vertex -73.5 34.5 1.2
      vertex -73.5 34.5 2.5
    endloop
  endfacet
  facet normal 1 0 0
    outer loop
      vertex -73.5 34.5 1.2
      vertex -73.5 31.9 2.5
      vertex -73.5 31.9 1.2
    endloop
  endfacet
  facet normal -1 0 0
    outer loop
      vertex -70.9 31.9 1.2
      vertex -70.9 34.5 2.5
      vertex -70.9 34.5 1.2
    endloop
  endfacet
  facet normal -1 -0 0
    outer loop
      vertex -70.9 34.5 2.5
      vertex -70.9 31.9 1.2
      vertex -70.9 31.9 2.5
    endloop
  endfacet
  facet normal 0 1 -0
    outer loop
      vertex -70.9 31.9 1.2
      vertex -73.5 31.9 2.5
      vertex -70.9 31.9 2.5
    endloop
  endfacet
  facet normal 0 1 0
    outer loop
      vertex -73.5 31.9 2.5
      vertex -70.9 31.9 1.2
      vertex -73.5 31.9 1.2
    endloop
  endfacet
  facet normal 0 -1 0
    outer loop
      vertex -73.5 34.5 1.2
      vertex -70.9 34.5 2.5
      vertex -73.5 34.5 2.5
    endloop
  endfacet
  facet normal 0 -1 -0
    outer loop
      vertex -70.9 34.5 2.5
      vertex -73.5 34.5 1.2
      vertex -70.9 34.5 1.2
    endloop
  endfacet
  facet normal -0 0 1
    outer loop
      vertex -30.5 34.5 1.2
      vertex -27.9 31.9 1.2
      vertex -27.9 34.5 1.2
    endloop
  endfacet
  facet normal 0 0 1
    outer loop
      vertex -27.9 31.9 1.2
      vertex -30.5 34.5 1.2
      vertex -30.5 31.9 1.2
    endloop
  endfacet
  facet normal 1 -0 0
    outer loop
      vertex -30.5 31.9 2.5
      vertex -30.5 34.5 1.2
      vertex -30.5 34.5 2.5
    endloop
  endfacet
  facet normal 1 0 0
    outer loop
      vertex -30.5 34.5 1.2
      vertex -30.5 31.9 2.5
      vertex -30.5 31.9 1.2
    endloop
  endfacet
  facet normal 0 -1 0
    outer loop
      vertex -30.5 34.5 1.2
      vertex -27.9 34.5 2.5
      vertex -30.5 34.5 2.5
    endloop
  endfacet
  facet normal 0 -1 -0
    outer loop
      vertex -27.9 34.5 2.5
      vertex -30.5 34.5 1.2
      vertex -27.9 34.5 1.2
    endloop
  endfacet
  facet normal -1 0 0
    outer loop
      vertex -27.9 31.9 1.2
      vertex -27.9 34.5 2.5
      vertex -27.9 34.5 1.2
    endloop
  endfacet
  facet normal -1 -0 0
    outer loop
      vertex -27.9 34.5 2.5
      vertex -27.9 31.9 1.2
      vertex -27.9 31.9 2.5
    endloop
  endfacet
  facet normal 0 1 -0
    outer loop
      vertex -27.9 31.9 1.2
      vertex -30.5 31.9 2.5
      vertex -27.9 31.9 2.5
    endloop
  endfacet
  facet normal 0 1 0
    outer loop
      vertex -30.5 31.9 2.5
      vertex -27.9 31.9 1.2
      vertex -30.5 31.9 1.2
    endloop
  endfacet
  facet normal -0 0 1
    outer loop
      vertex -21 38.7 1.2
      vertex -18.4 36.1 1.2
      vertex -18.4 38.7 1.2
    endloop
  endfacet
  facet normal 0 0 1
    outer loop
      vertex -18.4 36.1 1.2
      vertex -21 38.7 1.2
      vertex -21 36.1 1.2
    endloop
  endfacet
  facet normal 1 -0 0
    outer loop
      vertex -21 36.1 2.5
      vertex -21 38.7 1.2
      vertex -21 38.7 2.5
    endloop
  endfacet
  facet normal 1 0 0
    outer loop
      vertex -21 38.7 1.2
      vertex -21 36.1 2.5
      vertex -21 36.1 1.2
    endloop
  endfacet
  facet normal -1 0 0
    outer loop
      vertex -18.4 36.1 1.2
      vertex -18.4 38.7 2.5
      vertex -18.4 38.7 1.2
    endloop
  endfacet
  facet normal -1 -0 0
    outer loop
      vertex -18.4 38.7 2.5
      vertex -18.4 36.1 1.2
      vertex -18.4 36.1 2.5
    endloop
  endfacet
  facet normal 0 1 -0
    outer loop
      vertex -18.4 36.1 1.2
      vertex -21 36.1 2.5
      vertex -18.4 36.1 2.5
    endloop
  endfacet
  facet normal 0 1 0
    outer loop
      vertex -21 36.1 2.5
      vertex -18.4 36.1 1.2
      vertex -21 36.1 1.2
    endloop
  endfacet
  facet normal 0 -1 0
    outer loop
      vertex -21 38.7 1.2
      vertex -18.4 38.7 2.5
      vertex -21 38.7 2.5
    endloop
  endfacet
  facet normal 0 -1 -0
    outer loop
      vertex -18.4 38.7 2.5
      vertex -21 38.7 1.2
      vertex -18.4 38.7 1.2
    endloop
  endfacet
endsolid OpenSCAD_Model
