solid OpenSCAD_Model
  facet normal -1 0 0
    outer loop
      vertex 8.8 75.7 15
      vertex 8.8 77.3 24.7
      vertex 8.8 77.3 15
    endloop
  endfacet
  facet normal -1 -0 0
    outer loop
      vertex 8.8 77.3 24.7
      vertex 8.8 75.7 15
      vertex 8.8 75.7 24.7
    endloop
  endfacet
  facet normal 0 0 -1
    outer loop
      vertex 13.6 75.7 23.1
      vertex 18.8 77.3 23.1
      vertex 18.8 75.7 23.1
    endloop
  endfacet
  facet normal -0 0 -1
    outer loop
      vertex 18.8 77.3 23.1
      vertex 13.6 75.7 23.1
      vertex 13.6 77.3 23.1
    endloop
  endfacet
  facet normal 1 -0 0
    outer loop
      vertex 13.6 75.7 23.1
      vertex 13.6 77.3 15
      vertex 13.6 77.3 23.1
    endloop
  endfacet
  facet normal 1 0 0
    outer loop
      vertex 13.6 77.3 15
      vertex 13.6 75.7 23.1
      vertex 13.6 75.7 15
    endloop
  endfacet
  facet normal 0 1 0
    outer loop
      vertex 26.6 77.3 24.7
      vertex 18.8 77.3 23.1
      vertex 8.8 77.3 24.7
    endloop
  endfacet
  facet normal 0 1 -0
    outer loop
      vertex 26.6 77.3 15
      vertex 18.8 77.3 23.1
      vertex 26.6 77.3 24.7
    endloop
  endfacet
  facet normal 0 1 0
    outer loop
      vertex 18.8 77.3 23.1
      vertex 26.6 77.3 15
      vertex 18.8 77.3 15
    endloop
  endfacet
  facet normal 0 1 -0
    outer loop
      vertex 13.6 77.3 23.1
      vertex 8.8 77.3 24.7
      vertex 18.8 77.3 23.1
    endloop
  endfacet
  facet normal 0 1 0
    outer loop
      vertex 8.8 77.3 15
      vertex 13.6 77.3 23.1
      vertex 13.6 77.3 15
    endloop
  endfacet
  facet normal 0 1 0
    outer loop
      vertex 13.6 77.3 23.1
      vertex 8.8 77.3 15
      vertex 8.8 77.3 24.7
    endloop
  endfacet
  facet normal 0 0 1
    outer loop
      vertex 8.8 77.3 15
      vertex 1.6 75.7 15
      vertex 8.8 75.7 15
    endloop
  endfacet
  facet normal -0 0 1
    outer loop
      vertex 0 77.3 15
      vertex 1.6 75.7 15
      vertex 8.8 77.3 15
    endloop
  endfacet
  facet normal 0 0 1
    outer loop
      vertex 0 72.3 15
      vertex 1.6 75.7 15
      vertex 0 77.3 15
    endloop
  endfacet
  facet normal 0 0 1
    outer loop
      vertex 1.6 75.7 15
      vertex 0 72.3 15
      vertex 1.6 72.3 15
    endloop
  endfacet
  facet normal -0 0 1
    outer loop
      vertex 13.6 77.3 15
      vertex 18.8 75.7 15
      vertex 18.8 77.3 15
    endloop
  endfacet
  facet normal 0 0 1
    outer loop
      vertex 18.8 75.7 15
      vertex 13.6 77.3 15
      vertex 13.6 75.7 15
    endloop
  endfacet
  facet normal -0 0 1
    outer loop
      vertex 26.6 77.3 15
      vertex 40.8 75.7 15
      vertex 40.8 77.3 15
    endloop
  endfacet
  facet normal 0 0 1
    outer loop
      vertex 40.8 75.7 15
      vertex 26.6 77.3 15
      vertex 26.6 75.7 15
    endloop
  endfacet
  facet normal -0 0 1
    outer loop
      vertex 48.6 77.3 15
      vertex 53.8 75.7 15
      vertex 53.8 77.3 15
    endloop
  endfacet
  facet normal 0 0 1
    outer loop
      vertex 53.8 75.7 15
      vertex 48.6 77.3 15
      vertex 48.6 75.7 15
    endloop
  endfacet
  facet normal 0 0 1
    outer loop
      vertex 70.6 77.3 15
      vertex 69 75.7 15
      vertex 70.6 72.3 15
    endloop
  endfacet
  facet normal -0 0 1
    outer loop
      vertex 58.6 77.3 15
      vertex 69 75.7 15
      vertex 70.6 77.3 15
    endloop
  endfacet
  facet normal 0 0 1
    outer loop
      vertex 69 75.7 15
      vertex 58.6 77.3 15
      vertex 58.6 75.7 15
    endloop
  endfacet
  facet normal 0 0 1
    outer loop
      vertex 70.6 72.3 15
      vertex 69 75.7 15
      vertex 69 72.3 15
    endloop
  endfacet
  facet normal 0 0 0
    outer loop
      vertex 8.8 75.7 15
      vertex 1.6 75.7 15
      vertex 69 75.7 15
    endloop
  endfacet
  facet normal 0 0 0
    outer loop
      vertex 26.6 75.7 15
      vertex 18.8 75.7 15
      vertex 13.6 75.7 15
    endloop
  endfacet
  facet normal 0 0 0
    outer loop
      vertex 13.6 75.7 15
      vertex 8.8 75.7 15
      vertex 69 75.7 15
    endloop
  endfacet
  facet normal 0 0 0
    outer loop
      vertex 69 75.7 15
      vertex 58.6 75.7 15
      vertex 53.8 75.7 15
    endloop
  endfacet
  facet normal 0 0 0
    outer loop
      vertex 53.8 75.7 15
      vertex 48.6 75.7 15
      vertex 40.8 75.7 15
    endloop
  endfacet
  facet normal 0 0 0
    outer loop
      vertex 40.8 75.7 15
      vertex 26.6 75.7 15
      vertex 13.6 75.7 15
    endloop
  endfacet
  facet normal 0 0 0
    outer loop
      vertex 40.8 75.7 15
      vertex 13.6 75.7 15
      vertex 69 75.7 15
    endloop
  endfacet
  facet normal 0 0 0
    outer loop
      vertex 53.8 75.7 15
      vertex 40.8 75.7 15
      vertex 69 75.7 15
    endloop
  endfacet
  facet normal 0 0 1
    outer loop
      vertex 1.6 5 15
      vertex 0 5 15
      vertex 1.6 1.6 15
    endloop
  endfacet
  facet normal -0 0 1
    outer loop
      vertex 1.6 1.6 15
      vertex 50 0 15
      vertex 50 1.6 15
    endloop
  endfacet
  facet normal 0 0 1
    outer loop
      vertex 1.6 1.6 15
      vertex 0 0 15
      vertex 50 0 15
    endloop
  endfacet
  facet normal 0 0 1
    outer loop
      vertex 0 0 15
      vertex 1.6 1.6 15
      vertex 0 5 15
    endloop
  endfacet
  facet normal 0 0 1
    outer loop
      vertex 69 1.6 15
      vertex 70.6 5 15
      vertex 69 5 15
    endloop
  endfacet
  facet normal 0 0 1
    outer loop
      vertex 70.6 5 15
      vertex 69 1.6 15
      vertex 70.6 0 15
    endloop
  endfacet
  facet normal 0 0 1
    outer loop
      vertex 58 0 15
      vertex 69 1.6 15
      vertex 58 1.6 15
    endloop
  endfacet
  facet normal 0 0 1
    outer loop
      vertex 69 1.6 15
      vertex 58 0 15
      vertex 70.6 0 15
    endloop
  endfacet
  facet normal 0 -1 0
    outer loop
      vertex 18.8 75.7 23.1
      vertex 8.8 75.7 24.7
      vertex 13.6 75.7 23.1
    endloop
  endfacet
  facet normal 0 -1 0
    outer loop
      vertex 8.8 75.7 15
      vertex 13.6 75.7 23.1
      vertex 8.8 75.7 24.7
    endloop
  endfacet
  facet normal 0 -1 -0
    outer loop
      vertex 13.6 75.7 23.1
      vertex 8.8 75.7 15
      vertex 13.6 75.7 15
    endloop
  endfacet
  facet normal 0 -1 0
    outer loop
      vertex 8.8 75.7 24.7
      vertex 18.8 75.7 23.1
      vertex 26.6 75.7 24.7
    endloop
  endfacet
  facet normal 0 -1 0
    outer loop
      vertex 26.6 75.7 15
      vertex 18.8 75.7 23.1
      vertex 18.8 75.7 15
    endloop
  endfacet
  facet normal 0 -1 0
    outer loop
      vertex 18.8 75.7 23.1
      vertex 26.6 75.7 15
      vertex 26.6 75.7 24.7
    endloop
  endfacet
  facet normal -1 0 0
    outer loop
      vertex 18.8 75.7 15
      vertex 18.8 77.3 23.1
      vertex 18.8 77.3 15
    endloop
  endfacet
  facet normal -1 -0 0
    outer loop
      vertex 18.8 77.3 23.1
      vertex 18.8 75.7 15
      vertex 18.8 75.7 23.1
    endloop
  endfacet
  facet normal 1 -0 0
    outer loop
      vertex 26.6 75.7 24.7
      vertex 26.6 77.3 15
      vertex 26.6 77.3 24.7
    endloop
  endfacet
  facet normal 1 0 0
    outer loop
      vertex 26.6 77.3 15
      vertex 26.6 75.7 24.7
      vertex 26.6 75.7 15
    endloop
  endfacet
  facet normal -1 0 0
    outer loop
      vertex 40.8 75.7 15
      vertex 40.8 77.3 24.7
      vertex 40.8 77.3 15
    endloop
  endfacet
  facet normal -1 -0 0
    outer loop
      vertex 40.8 77.3 24.7
      vertex 40.8 75.7 15
      vertex 40.8 75.7 24.7
    endloop
  endfacet
  facet normal 0 0 -1
    outer loop
      vertex 48.6 75.7 23.1
      vertex 53.8 77.3 23.1
      vertex 53.8 75.7 23.1
    endloop
  endfacet
  facet normal -0 0 -1
    outer loop
      vertex 53.8 77.3 23.1
      vertex 48.6 75.7 23.1
      vertex 48.6 77.3 23.1
    endloop
  endfacet
  facet normal 1 -0 0
    outer loop
      vertex 48.6 75.7 23.1
      vertex 48.6 77.3 15
      vertex 48.6 77.3 23.1
    endloop
  endfacet
  facet normal 1 0 0
    outer loop
      vertex 48.6 77.3 15
      vertex 48.6 75.7 23.1
      vertex 48.6 75.7 15
    endloop
  endfacet
  facet normal 0 1 0
    outer loop
      vertex 48.6 77.3 23.1
      vertex 58.6 77.3 24.7
      vertex 53.8 77.3 23.1
    endloop
  endfacet
  facet normal 0 1 -0
    outer loop
      vertex 58.6 77.3 15
      vertex 53.8 77.3 23.1
      vertex 58.6 77.3 24.7
    endloop
  endfacet
  facet normal 0 1 0
    outer loop
      vertex 53.8 77.3 23.1
      vertex 58.6 77.3 15
      vertex 53.8 77.3 15
    endloop
  endfacet
  facet normal 0 1 0
    outer loop
      vertex 58.6 77.3 24.7
      vertex 48.6 77.3 23.1
      vertex 40.8 77.3 24.7
    endloop
  endfacet
  facet normal 0 1 0
    outer loop
      vertex 40.8 77.3 15
      vertex 48.6 77.3 23.1
      vertex 48.6 77.3 15
    endloop
  endfacet
  facet normal 0 1 0
    outer loop
      vertex 48.6 77.3 23.1
      vertex 40.8 77.3 15
      vertex 40.8 77.3 24.7
    endloop
  endfacet
  facet normal 0 -1 0
    outer loop
      vertex 40.8 75.7 24.7
      vertex 48.6 75.7 23.1
      vertex 58.6 75.7 24.7
    endloop
  endfacet
  facet normal 0 -1 0
    outer loop
      vertex 40.8 75.7 15
      vertex 48.6 75.7 23.1
      vertex 40.8 75.7 24.7
    endloop
  endfacet
  facet normal 0 -1 -0
    outer loop
      vertex 48.6 75.7 23.1
      vertex 40.8 75.7 15
      vertex 48.6 75.7 15
    endloop
  endfacet
  facet normal 0 -1 0
    outer loop
      vertex 53.8 75.7 23.1
      vertex 58.6 75.7 24.7
      vertex 48.6 75.7 23.1
    endloop
  endfacet
  facet normal 0 -1 0
    outer loop
      vertex 58.6 75.7 15
      vertex 53.8 75.7 23.1
      vertex 53.8 75.7 15
    endloop
  endfacet
  facet normal 0 -1 0
    outer loop
      vertex 53.8 75.7 23.1
      vertex 58.6 75.7 15
      vertex 58.6 75.7 24.7
    endloop
  endfacet
  facet normal -1 0 0
    outer loop
      vertex 53.8 75.7 15
      vertex 53.8 77.3 23.1
      vertex 53.8 77.3 15
    endloop
  endfacet
  facet normal -1 -0 0
    outer loop
      vertex 53.8 77.3 23.1
      vertex 53.8 75.7 15
      vertex 53.8 75.7 23.1
    endloop
  endfacet
  facet normal 1 -0 0
    outer loop
      vertex 58.6 75.7 24.7
      vertex 58.6 77.3 15
      vertex 58.6 77.3 24.7
    endloop
  endfacet
  facet normal 1 0 0
    outer loop
      vertex 58.6 77.3 15
      vertex 58.6 75.7 24.7
      vertex 58.6 75.7 15
    endloop
  endfacet
  facet normal -0 0 1
    outer loop
      vertex 8.8 77.3 24.7
      vertex 26.6 75.7 24.7
      vertex 26.6 77.3 24.7
    endloop
  endfacet
  facet normal 0 0 1
    outer loop
      vertex 26.6 75.7 24.7
      vertex 8.8 77.3 24.7
      vertex 8.8 75.7 24.7
    endloop
  endfacet
  facet normal -0 0 1
    outer loop
      vertex 40.8 77.3 24.7
      vertex 58.6 75.7 24.7
      vertex 58.6 77.3 24.7
    endloop
  endfacet
  facet normal 0 0 1
    outer loop
      vertex 58.6 75.7 24.7
      vertex 40.8 77.3 24.7
      vertex 40.8 75.7 24.7
    endloop
  endfacet
  facet normal -1 0 0
    outer loop
      vertex 50 0 15
      vertex 50 1.6 23
      vertex 50 1.6 15
    endloop
  endfacet
  facet normal -1 -0 0
    outer loop
      vertex 50 1.6 23
      vertex 50 0 15
      vertex 50 0 23
    endloop
  endfacet
  facet normal -0 0 1
    outer loop
      vertex 50 1.6 23
      vertex 58 0 23
      vertex 58 1.6 23
    endloop
  endfacet
  facet normal 0 0 1
    outer loop
      vertex 58 0 23
      vertex 50 1.6 23
      vertex 50 0 23
    endloop
  endfacet
  facet normal 1 -0 0
    outer loop
      vertex 58 0 23
      vertex 58 1.6 15
      vertex 58 1.6 23
    endloop
  endfacet
  facet normal 1 0 0
    outer loop
      vertex 58 1.6 15
      vertex 58 0 23
      vertex 58 0 15
    endloop
  endfacet
  facet normal 0 -1 0
    outer loop
      vertex 0 0 0
      vertex 50 0 15
      vertex 0 0 15
    endloop
  endfacet
  facet normal 0 -1 0
    outer loop
      vertex 70.6 0 0
      vertex 50 0 15
      vertex 0 0 0
    endloop
  endfacet
  facet normal 0 -1 0
    outer loop
      vertex 50 0 15
      vertex 70.6 0 0
      vertex 58 0 15
    endloop
  endfacet
  facet normal 0 -1 0
    outer loop
      vertex 58 0 15
      vertex 70.6 0 0
      vertex 70.6 0 15
    endloop
  endfacet
  facet normal 0 -1 0
    outer loop
      vertex 50 0 15
      vertex 58 0 23
      vertex 50 0 23
    endloop
  endfacet
  facet normal 0 -1 -0
    outer loop
      vertex 58 0 23
      vertex 50 0 15
      vertex 58 0 15
    endloop
  endfacet
  facet normal 0 1 -0
    outer loop
      vertex 69 1.6 1.5
      vertex 58 1.6 15
      vertex 69 1.6 15
    endloop
  endfacet
  facet normal 0 1 0
    outer loop
      vertex 58 1.6 15
      vertex 69 1.6 1.5
      vertex 50 1.6 15
    endloop
  endfacet
  facet normal 0 1 0
    outer loop
      vertex 1.6 1.6 1.5
      vertex 50 1.6 15
      vertex 69 1.6 1.5
    endloop
  endfacet
  facet normal 0 1 0
    outer loop
      vertex 50 1.6 15
      vertex 1.6 1.6 1.5
      vertex 1.6 1.6 15
    endloop
  endfacet
  facet normal 0 1 -0
    outer loop
      vertex 58 1.6 15
      vertex 50 1.6 23
      vertex 58 1.6 23
    endloop
  endfacet
  facet normal 0 1 0
    outer loop
      vertex 50 1.6 23
      vertex 58 1.6 15
      vertex 50 1.6 15
    endloop
  endfacet
  facet normal -1 0 0
    outer loop
      vertex 0 77.3 0
      vertex 0 72.3 15
      vertex 0 77.3 15
    endloop
  endfacet
  facet normal -1 0 0
    outer loop
      vertex 0 72.3 15
      vertex 0 5 15
      vertex 0 72.3 18
    endloop
  endfacet
  facet normal -1 0 0
    outer loop
      vertex 0 77.3 0
      vertex 0 5 15
      vertex 0 72.3 15
    endloop
  endfacet
  facet normal -1 0 0
    outer loop
      vertex 0 0 0
      vertex 0 5 15
      vertex 0 77.3 0
    endloop
  endfacet
  facet normal -1 -0 0
    outer loop
      vertex 0 5 15
      vertex 0 0 0
      vertex 0 0 15
    endloop
  endfacet
  facet normal -1 -0 0
    outer loop
      vertex 0 72.3 18
      vertex 0 5 15
      vertex 0 5 18
    endloop
  endfacet
  facet normal -0 0 1
    outer loop
      vertex 3.2 30 1.5
      vertex 5 24 1.5
      vertex 5 30 1.5
    endloop
  endfacet
  facet normal 0 0 1
    outer loop
      vertex 5 24 1.5
      vertex 3.2 30 1.5
      vertex 3.2 24 1.5
    endloop
  endfacet
  facet normal -0 0 1
    outer loop
      vertex 3.2 44 1.5
      vertex 5 38 1.5
      vertex 5 44 1.5
    endloop
  endfacet
  facet normal 0 0 1
    outer loop
      vertex 5 38 1.5
      vertex 3.2 44 1.5
      vertex 3.2 38 1.5
    endloop
  endfacet
  facet normal -0 0 1
    outer loop
      vertex 3.2 58 1.5
      vertex 5 52 1.5
      vertex 5 58 1.5
    endloop
  endfacet
  facet normal 0 0 1
    outer loop
      vertex 5 52 1.5
      vertex 3.2 58 1.5
      vertex 3.2 52 1.5
    endloop
  endfacet
  facet normal -0 0 1
    outer loop
      vertex 18.8 30 1.5
      vertex 20.6 24 1.5
      vertex 20.6 30 1.5
    endloop
  endfacet
  facet normal 0 0 1
    outer loop
      vertex 20.6 24 1.5
      vertex 18.8 30 1.5
      vertex 18.8 24 1.5
    endloop
  endfacet
  facet normal -0 0 1
    outer loop
      vertex 18.8 44 1.5
      vertex 20.6 38 1.5
      vertex 20.6 44 1.5
    endloop
  endfacet
  facet normal 0 0 1
    outer loop
      vertex 20.6 38 1.5
      vertex 18.8 44 1.5
      vertex 18.8 38 1.5
    endloop
  endfacet
  facet normal -0 0 1
    outer loop
      vertex 18.8 58 1.5
      vertex 20.6 52 1.5
      vertex 20.6 58 1.5
    endloop
  endfacet
  facet normal 0 0 1
    outer loop
      vertex 20.6 52 1.5
      vertex 18.8 58 1.5
      vertex 18.8 52 1.5
    endloop
  endfacet
  facet normal -0 0 1
    outer loop
      vertex 34.4 30 1.5
      vertex 36.2 24 1.5
      vertex 36.2 30 1.5
    endloop
  endfacet
  facet normal 0 0 1
    outer loop
      vertex 36.2 24 1.5
      vertex 34.4 30 1.5
      vertex 34.4 24 1.5
    endloop
  endfacet
  facet normal -0 0 1
    outer loop
      vertex 34.4 44 1.5
      vertex 36.2 38 1.5
      vertex 36.2 44 1.5
    endloop
  endfacet
  facet normal 0 0 1
    outer loop
      vertex 36.2 38 1.5
      vertex 34.4 44 1.5
      vertex 34.4 38 1.5
    endloop
  endfacet
  facet normal -0 0 1
    outer loop
      vertex 34.4 58 1.5
      vertex 36.2 52 1.5
      vertex 36.2 58 1.5
    endloop
  endfacet
  facet normal 0 0 1
    outer loop
      vertex 36.2 52 1.5
      vertex 34.4 58 1.5
      vertex 34.4 52 1.5
    endloop
  endfacet
  facet normal -0 0 1
    outer loop
      vertex 50 30 1.5
      vertex 51.8 24 1.5
      vertex 51.8 30 1.5
    endloop
  endfacet
  facet normal 0 0 1
    outer loop
      vertex 51.8 24 1.5
      vertex 50 30 1.5
      vertex 50 24 1.5
    endloop
  endfacet
  facet normal -0 0 1
    outer loop
      vertex 50 44 1.5
      vertex 51.8 38 1.5
      vertex 51.8 44 1.5
    endloop
  endfacet
  facet normal 0 0 1
    outer loop
      vertex 51.8 38 1.5
      vertex 50 44 1.5
      vertex 50 38 1.5
    endloop
  endfacet
  facet normal -0 0 1
    outer loop
      vertex 50 58 1.5
      vertex 51.8 52 1.5
      vertex 51.8 58 1.5
    endloop
  endfacet
  facet normal 0 0 1
    outer loop
      vertex 51.8 52 1.5
      vertex 50 58 1.5
      vertex 50 52 1.5
    endloop
  endfacet
  facet normal -0 0 1
    outer loop
      vertex 65.6 30 1.5
      vertex 67.4 24 1.5
      vertex 67.4 30 1.5
    endloop
  endfacet
  facet normal 0 0 1
    outer loop
      vertex 67.4 24 1.5
      vertex 65.6 30 1.5
      vertex 65.6 24 1.5
    endloop
  endfacet
  facet normal -0 0 1
    outer loop
      vertex 65.6 44 1.5
      vertex 67.4 38 1.5
      vertex 67.4 44 1.5
    endloop
  endfacet
  facet normal 0 0 1
    outer loop
      vertex 67.4 38 1.5
      vertex 65.6 44 1.5
      vertex 65.6 38 1.5
    endloop
  endfacet
  facet normal -0 0 1
    outer loop
      vertex 65.6 58 1.5
      vertex 67.4 52 1.5
      vertex 67.4 58 1.5
    endloop
  endfacet
  facet normal 0 0 1
    outer loop
      vertex 67.4 52 1.5
      vertex 65.6 58 1.5
      vertex 65.6 52 1.5
    endloop
  endfacet
  facet normal 0 0 1
    outer loop
      vertex 67.4 58 1.5
      vertex 69 75.7 1.5
      vertex 67.4 66 1.5
    endloop
  endfacet
  facet normal 0 0 1
    outer loop
      vertex 69 75.7 1.5
      vertex 65.6 66 1.5
      vertex 67.4 66 1.5
    endloop
  endfacet
  facet normal 0 0 1
    outer loop
      vertex 51.8 58 1.5
      vertex 65.6 58 1.5
      vertex 65.6 66 1.5
    endloop
  endfacet
  facet normal 0 0 1
    outer loop
      vertex 65.6 58 1.5
      vertex 51.8 58 1.5
      vertex 65.6 52 1.5
    endloop
  endfacet
  facet normal 0 0 1
    outer loop
      vertex 65.6 52 1.5
      vertex 51.8 52 1.5
      vertex 65.6 44 1.5
    endloop
  endfacet
  facet normal 0 0 1
    outer loop
      vertex 51.8 44 1.5
      vertex 65.6 44 1.5
      vertex 51.8 52 1.5
    endloop
  endfacet
  facet normal 0 0 1
    outer loop
      vertex 51.8 38 1.5
      vertex 65.6 38 1.5
      vertex 51.8 44 1.5
    endloop
  endfacet
  facet normal 0 0 1
    outer loop
      vertex 65.6 38 1.5
      vertex 51.8 38 1.5
      vertex 65.6 30 1.5
    endloop
  endfacet
  facet normal 0 0 1
    outer loop
      vertex 51.8 58 1.5
      vertex 65.6 66 1.5
      vertex 51.8 66 1.5
    endloop
  endfacet
  facet normal 0 0 1
    outer loop
      vertex 69 75.7 1.5
      vertex 51.8 66 1.5
      vertex 65.6 66 1.5
    endloop
  endfacet
  facet normal 0 0 1
    outer loop
      vertex 69 75.7 1.5
      vertex 50 66 1.5
      vertex 51.8 66 1.5
    endloop
  endfacet
  facet normal 0 0 1
    outer loop
      vertex 36.2 58 1.5
      vertex 50 58 1.5
      vertex 50 66 1.5
    endloop
  endfacet
  facet normal 0 0 1
    outer loop
      vertex 50 58 1.5
      vertex 36.2 58 1.5
      vertex 50 52 1.5
    endloop
  endfacet
  facet normal 0 0 1
    outer loop
      vertex 50 52 1.5
      vertex 36.2 52 1.5
      vertex 50 44 1.5
    endloop
  endfacet
  facet normal 0 0 1
    outer loop
      vertex 36.2 44 1.5
      vertex 50 44 1.5
      vertex 36.2 52 1.5
    endloop
  endfacet
  facet normal 0 0 1
    outer loop
      vertex 36.2 38 1.5
      vertex 50 38 1.5
      vertex 36.2 44 1.5
    endloop
  endfacet
  facet normal 0 0 1
    outer loop
      vertex 50 38 1.5
      vertex 36.2 38 1.5
      vertex 50 30 1.5
    endloop
  endfacet
  facet normal 0 0 1
    outer loop
      vertex 36.2 58 1.5
      vertex 50 66 1.5
      vertex 36.2 66 1.5
    endloop
  endfacet
  facet normal 0 0 1
    outer loop
      vertex 69 75.7 1.5
      vertex 36.2 66 1.5
      vertex 50 66 1.5
    endloop
  endfacet
  facet normal 0 0 1
    outer loop
      vertex 69 75.7 1.5
      vertex 34.4 66 1.5
      vertex 36.2 66 1.5
    endloop
  endfacet
  facet normal 0 0 1
    outer loop
      vertex 20.6 58 1.5
      vertex 34.4 58 1.5
      vertex 34.4 66 1.5
    endloop
  endfacet
  facet normal 0 0 1
    outer loop
      vertex 34.4 58 1.5
      vertex 20.6 58 1.5
      vertex 34.4 52 1.5
    endloop
  endfacet
  facet normal 0 0 1
    outer loop
      vertex 34.4 52 1.5
      vertex 20.6 52 1.5
      vertex 34.4 44 1.5
    endloop
  endfacet
  facet normal 0 0 1
    outer loop
      vertex 20.6 44 1.5
      vertex 34.4 44 1.5
      vertex 20.6 52 1.5
    endloop
  endfacet
  facet normal 0 0 1
    outer loop
      vertex 20.6 38 1.5
      vertex 34.4 38 1.5
      vertex 20.6 44 1.5
    endloop
  endfacet
  facet normal 0 0 1
    outer loop
      vertex 34.4 38 1.5
      vertex 20.6 38 1.5
      vertex 34.4 30 1.5
    endloop
  endfacet
  facet normal 0 0 1
    outer loop
      vertex 20.6 58 1.5
      vertex 34.4 66 1.5
      vertex 20.6 66 1.5
    endloop
  endfacet
  facet normal -0 0 1
    outer loop
      vertex 1.6 75.7 1.5
      vertex 34.4 66 1.5
      vertex 69 75.7 1.5
    endloop
  endfacet
  facet normal 0 0 1
    outer loop
      vertex 34.4 66 1.5
      vertex 1.6 75.7 1.5
      vertex 20.6 66 1.5
    endloop
  endfacet
  facet normal 0 0 1
    outer loop
      vertex 5 58 1.5
      vertex 18.8 58 1.5
      vertex 18.8 66 1.5
    endloop
  endfacet
  facet normal 0 0 1
    outer loop
      vertex 18.8 58 1.5
      vertex 5 58 1.5
      vertex 18.8 52 1.5
    endloop
  endfacet
  facet normal 0 0 1
    outer loop
      vertex 18.8 52 1.5
      vertex 5 52 1.5
      vertex 18.8 44 1.5
    endloop
  endfacet
  facet normal 0 0 1
    outer loop
      vertex 5 44 1.5
      vertex 18.8 44 1.5
      vertex 5 52 1.5
    endloop
  endfacet
  facet normal 0 0 1
    outer loop
      vertex 5 38 1.5
      vertex 18.8 38 1.5
      vertex 5 44 1.5
    endloop
  endfacet
  facet normal 0 0 1
    outer loop
      vertex 18.8 38 1.5
      vertex 5 38 1.5
      vertex 18.8 30 1.5
    endloop
  endfacet
  facet normal 0 0 1
    outer loop
      vertex 5 58 1.5
      vertex 18.8 66 1.5
      vertex 5 66 1.5
    endloop
  endfacet
  facet normal 0 0 1
    outer loop
      vertex 20.6 66 1.5
      vertex 1.6 75.7 1.5
      vertex 18.8 66 1.5
    endloop
  endfacet
  facet normal 0 0 1
    outer loop
      vertex 18.8 66 1.5
      vertex 1.6 75.7 1.5
      vertex 5 66 1.5
    endloop
  endfacet
  facet normal 0 0 1
    outer loop
      vertex 1.6 75.7 1.5
      vertex 3.2 58 1.5
      vertex 3.2 66 1.5
    endloop
  endfacet
  facet normal 0 0 1
    outer loop
      vertex 3.2 58 1.5
      vertex 1.6 75.7 1.5
      vertex 3.2 52 1.5
    endloop
  endfacet
  facet normal 0 0 1
    outer loop
      vertex 3.2 52 1.5
      vertex 1.6 75.7 1.5
      vertex 3.2 44 1.5
    endloop
  endfacet
  facet normal 0 0 1
    outer loop
      vertex 3.2 44 1.5
      vertex 1.6 75.7 1.5
      vertex 3.2 38 1.5
    endloop
  endfacet
  facet normal 0 0 1
    outer loop
      vertex 1.6 1.6 1.5
      vertex 3.2 38 1.5
      vertex 1.6 75.7 1.5
    endloop
  endfacet
  facet normal 0 0 1
    outer loop
      vertex 3.2 38 1.5
      vertex 1.6 1.6 1.5
      vertex 3.2 30 1.5
    endloop
  endfacet
  facet normal 0 0 1
    outer loop
      vertex 3.2 30 1.5
      vertex 1.6 1.6 1.5
      vertex 3.2 24 1.5
    endloop
  endfacet
  facet normal 0 0 1
    outer loop
      vertex 5 66 1.5
      vertex 1.6 75.7 1.5
      vertex 3.2 66 1.5
    endloop
  endfacet
  facet normal 0 0 1
    outer loop
      vertex 67.4 52 1.5
      vertex 69 75.7 1.5
      vertex 67.4 58 1.5
    endloop
  endfacet
  facet normal 0 0 1
    outer loop
      vertex 67.4 44 1.5
      vertex 69 75.7 1.5
      vertex 67.4 52 1.5
    endloop
  endfacet
  facet normal 0 0 1
    outer loop
      vertex 69 75.7 1.5
      vertex 67.4 44 1.5
      vertex 69 1.6 1.5
    endloop
  endfacet
  facet normal -0 0 1
    outer loop
      vertex 67.4 38 1.5
      vertex 69 1.6 1.5
      vertex 67.4 44 1.5
    endloop
  endfacet
  facet normal -0 0 1
    outer loop
      vertex 67.4 30 1.5
      vertex 69 1.6 1.5
      vertex 67.4 38 1.5
    endloop
  endfacet
  facet normal -0 0 1
    outer loop
      vertex 67.4 24 1.5
      vertex 69 1.6 1.5
      vertex 67.4 30 1.5
    endloop
  endfacet
  facet normal -0 0 1
    outer loop
      vertex 67.4 16 1.5
      vertex 69 1.6 1.5
      vertex 67.4 24 1.5
    endloop
  endfacet
  facet normal -0 0 1
    outer loop
      vertex 65.6 16 1.5
      vertex 69 1.6 1.5
      vertex 67.4 16 1.5
    endloop
  endfacet
  facet normal 0 0 1
    outer loop
      vertex 65.6 52 1.5
      vertex 51.8 58 1.5
      vertex 51.8 52 1.5
    endloop
  endfacet
  facet normal 0 0 1
    outer loop
      vertex 65.6 44 1.5
      vertex 51.8 44 1.5
      vertex 65.6 38 1.5
    endloop
  endfacet
  facet normal 0 0 1
    outer loop
      vertex 51.8 30 1.5
      vertex 65.6 30 1.5
      vertex 51.8 38 1.5
    endloop
  endfacet
  facet normal 0 0 1
    outer loop
      vertex 65.6 30 1.5
      vertex 51.8 30 1.5
      vertex 65.6 24 1.5
    endloop
  endfacet
  facet normal 0 0 1
    outer loop
      vertex 51.8 24 1.5
      vertex 65.6 24 1.5
      vertex 51.8 30 1.5
    endloop
  endfacet
  facet normal 0 0 1
    outer loop
      vertex 65.6 24 1.5
      vertex 51.8 24 1.5
      vertex 65.6 16 1.5
    endloop
  endfacet
  facet normal 0 0 1
    outer loop
      vertex 51.8 16 1.5
      vertex 65.6 16 1.5
      vertex 51.8 24 1.5
    endloop
  endfacet
  facet normal 0 0 1
    outer loop
      vertex 65.6 16 1.5
      vertex 51.8 16 1.5
      vertex 69 1.6 1.5
    endloop
  endfacet
  facet normal -0 0 1
    outer loop
      vertex 50 16 1.5
      vertex 69 1.6 1.5
      vertex 51.8 16 1.5
    endloop
  endfacet
  facet normal 0 0 1
    outer loop
      vertex 50 52 1.5
      vertex 36.2 58 1.5
      vertex 36.2 52 1.5
    endloop
  endfacet
  facet normal 0 0 1
    outer loop
      vertex 50 44 1.5
      vertex 36.2 44 1.5
      vertex 50 38 1.5
    endloop
  endfacet
  facet normal 0 0 1
    outer loop
      vertex 36.2 30 1.5
      vertex 50 30 1.5
      vertex 36.2 38 1.5
    endloop
  endfacet
  facet normal 0 0 1
    outer loop
      vertex 50 30 1.5
      vertex 36.2 30 1.5
      vertex 50 24 1.5
    endloop
  endfacet
  facet normal 0 0 1
    outer loop
      vertex 36.2 24 1.5
      vertex 50 24 1.5
      vertex 36.2 30 1.5
    endloop
  endfacet
  facet normal 0 0 1
    outer loop
      vertex 50 24 1.5
      vertex 36.2 24 1.5
      vertex 50 16 1.5
    endloop
  endfacet
  facet normal 0 0 1
    outer loop
      vertex 36.2 16 1.5
      vertex 50 16 1.5
      vertex 36.2 24 1.5
    endloop
  endfacet
  facet normal 0 0 1
    outer loop
      vertex 50 16 1.5
      vertex 36.2 16 1.5
      vertex 69 1.6 1.5
    endloop
  endfacet
  facet normal -0 0 1
    outer loop
      vertex 34.4 16 1.5
      vertex 69 1.6 1.5
      vertex 36.2 16 1.5
    endloop
  endfacet
  facet normal 0 0 1
    outer loop
      vertex 34.4 52 1.5
      vertex 20.6 58 1.5
      vertex 20.6 52 1.5
    endloop
  endfacet
  facet normal 0 0 1
    outer loop
      vertex 34.4 44 1.5
      vertex 20.6 44 1.5
      vertex 34.4 38 1.5
    endloop
  endfacet
  facet normal 0 0 1
    outer loop
      vertex 20.6 30 1.5
      vertex 34.4 30 1.5
      vertex 20.6 38 1.5
    endloop
  endfacet
  facet normal 0 0 1
    outer loop
      vertex 34.4 30 1.5
      vertex 20.6 30 1.5
      vertex 34.4 24 1.5
    endloop
  endfacet
  facet normal 0 0 1
    outer loop
      vertex 20.6 24 1.5
      vertex 34.4 24 1.5
      vertex 20.6 30 1.5
    endloop
  endfacet
  facet normal 0 0 1
    outer loop
      vertex 34.4 24 1.5
      vertex 20.6 24 1.5
      vertex 34.4 16 1.5
    endloop
  endfacet
  facet normal 0 0 1
    outer loop
      vertex 20.6 16 1.5
      vertex 34.4 16 1.5
      vertex 20.6 24 1.5
    endloop
  endfacet
  facet normal 0 0 1
    outer loop
      vertex 1.6 1.6 1.5
      vertex 34.4 16 1.5
      vertex 20.6 16 1.5
    endloop
  endfacet
  facet normal 0 0 1
    outer loop
      vertex 1.6 1.6 1.5
      vertex 20.6 16 1.5
      vertex 18.8 16 1.5
    endloop
  endfacet
  facet normal 0 0 1
    outer loop
      vertex 18.8 52 1.5
      vertex 5 58 1.5
      vertex 5 52 1.5
    endloop
  endfacet
  facet normal 0 0 1
    outer loop
      vertex 18.8 44 1.5
      vertex 5 44 1.5
      vertex 18.8 38 1.5
    endloop
  endfacet
  facet normal 0 0 1
    outer loop
      vertex 5 30 1.5
      vertex 18.8 30 1.5
      vertex 5 38 1.5
    endloop
  endfacet
  facet normal 0 0 1
    outer loop
      vertex 18.8 30 1.5
      vertex 5 30 1.5
      vertex 18.8 24 1.5
    endloop
  endfacet
  facet normal 0 0 1
    outer loop
      vertex 5 24 1.5
      vertex 18.8 24 1.5
      vertex 5 30 1.5
    endloop
  endfacet
  facet normal 0 0 1
    outer loop
      vertex 18.8 24 1.5
      vertex 5 24 1.5
      vertex 18.8 16 1.5
    endloop
  endfacet
  facet normal 0 0 1
    outer loop
      vertex 5 16 1.5
      vertex 18.8 16 1.5
      vertex 5 24 1.5
    endloop
  endfacet
  facet normal 0 0 1
    outer loop
      vertex 1.6 1.6 1.5
      vertex 18.8 16 1.5
      vertex 5 16 1.5
    endloop
  endfacet
  facet normal 0 0 1
    outer loop
      vertex 1.6 1.6 1.5
      vertex 5 16 1.5
      vertex 3.2 16 1.5
    endloop
  endfacet
  facet normal 0 0 1
    outer loop
      vertex 34.4 16 1.5
      vertex 1.6 1.6 1.5
      vertex 69 1.6 1.5
    endloop
  endfacet
  facet normal 0 0 1
    outer loop
      vertex 3.2 24 1.5
      vertex 1.6 1.6 1.5
      vertex 3.2 16 1.5
    endloop
  endfacet
  facet normal 1 0 0
    outer loop
      vertex 70.6 72.3 18
      vertex 70.6 5 18
      vertex 70.6 72.3 15
    endloop
  endfacet
  facet normal 1 -0 0
    outer loop
      vertex 70.6 72.3 15
      vertex 70.6 77.3 0
      vertex 70.6 77.3 15
    endloop
  endfacet
  facet normal 1 0 0
    outer loop
      vertex 70.6 5 15
      vertex 70.6 72.3 15
      vertex 70.6 5 18
    endloop
  endfacet
  facet normal 1 0 0
    outer loop
      vertex 70.6 72.3 15
      vertex 70.6 5 15
      vertex 70.6 77.3 0
    endloop
  endfacet
  facet normal 1 0 0
    outer loop
      vertex 70.6 0 0
      vertex 70.6 5 15
      vertex 70.6 0 15
    endloop
  endfacet
  facet normal 1 0 0
    outer loop
      vertex 70.6 5 15
      vertex 70.6 0 0
      vertex 70.6 77.3 0
    endloop
  endfacet
  facet normal 0 1 -0
    outer loop
      vertex 70.6 77.3 0
      vertex 58.6 77.3 15
      vertex 70.6 77.3 15
    endloop
  endfacet
  facet normal 0 1 0
    outer loop
      vertex 58.6 77.3 15
      vertex 70.6 77.3 0
      vertex 53.8 77.3 15
    endloop
  endfacet
  facet normal 0 1 0
    outer loop
      vertex 53.8 77.3 15
      vertex 70.6 77.3 0
      vertex 48.6 77.3 15
    endloop
  endfacet
  facet normal 0 1 0
    outer loop
      vertex 48.6 77.3 15
      vertex 70.6 77.3 0
      vertex 40.8 77.3 15
    endloop
  endfacet
  facet normal 0 1 0
    outer loop
      vertex 0 77.3 0
      vertex 40.8 77.3 15
      vertex 70.6 77.3 0
    endloop
  endfacet
  facet normal 0 1 0
    outer loop
      vertex 40.8 77.3 15
      vertex 0 77.3 0
      vertex 26.6 77.3 15
    endloop
  endfacet
  facet normal 0 1 0
    outer loop
      vertex 26.6 77.3 15
      vertex 0 77.3 0
      vertex 18.8 77.3 15
    endloop
  endfacet
  facet normal 0 1 0
    outer loop
      vertex 18.8 77.3 15
      vertex 0 77.3 0
      vertex 13.6 77.3 15
    endloop
  endfacet
  facet normal 0 1 0
    outer loop
      vertex 13.6 77.3 15
      vertex 0 77.3 0
      vertex 8.8 77.3 15
    endloop
  endfacet
  facet normal 0 1 0
    outer loop
      vertex 8.8 77.3 15
      vertex 0 77.3 0
      vertex 0 77.3 15
    endloop
  endfacet
  facet normal 0 0 -1
    outer loop
      vertex 3.2 52 0
      vertex 5 58 0
      vertex 5 52 0
    endloop
  endfacet
  facet normal -0 0 -1
    outer loop
      vertex 5 58 0
      vertex 3.2 52 0
      vertex 3.2 58 0
    endloop
  endfacet
  facet normal 0 0 -1
    outer loop
      vertex 3.2 38 0
      vertex 5 44 0
      vertex 5 38 0
    endloop
  endfacet
  facet normal -0 0 -1
    outer loop
      vertex 5 44 0
      vertex 3.2 38 0
      vertex 3.2 44 0
    endloop
  endfacet
  facet normal 0 0 -1
    outer loop
      vertex 3.2 24 0
      vertex 5 30 0
      vertex 5 24 0
    endloop
  endfacet
  facet normal -0 0 -1
    outer loop
      vertex 5 30 0
      vertex 3.2 24 0
      vertex 3.2 30 0
    endloop
  endfacet
  facet normal 0 0 -1
    outer loop
      vertex 18.8 52 0
      vertex 20.6 58 0
      vertex 20.6 52 0
    endloop
  endfacet
  facet normal -0 0 -1
    outer loop
      vertex 20.6 58 0
      vertex 18.8 52 0
      vertex 18.8 58 0
    endloop
  endfacet
  facet normal 0 0 -1
    outer loop
      vertex 18.8 38 0
      vertex 20.6 44 0
      vertex 20.6 38 0
    endloop
  endfacet
  facet normal -0 0 -1
    outer loop
      vertex 20.6 44 0
      vertex 18.8 38 0
      vertex 18.8 44 0
    endloop
  endfacet
  facet normal 0 0 -1
    outer loop
      vertex 18.8 24 0
      vertex 20.6 30 0
      vertex 20.6 24 0
    endloop
  endfacet
  facet normal -0 0 -1
    outer loop
      vertex 20.6 30 0
      vertex 18.8 24 0
      vertex 18.8 30 0
    endloop
  endfacet
  facet normal 0 0 -1
    outer loop
      vertex 34.4 52 0
      vertex 36.2 58 0
      vertex 36.2 52 0
    endloop
  endfacet
  facet normal -0 0 -1
    outer loop
      vertex 36.2 58 0
      vertex 34.4 52 0
      vertex 34.4 58 0
    endloop
  endfacet
  facet normal 0 0 -1
    outer loop
      vertex 34.4 38 0
      vertex 36.2 44 0
      vertex 36.2 38 0
    endloop
  endfacet
  facet normal -0 0 -1
    outer loop
      vertex 36.2 44 0
      vertex 34.4 38 0
      vertex 34.4 44 0
    endloop
  endfacet
  facet normal 0 0 -1
    outer loop
      vertex 34.4 24 0
      vertex 36.2 30 0
      vertex 36.2 24 0
    endloop
  endfacet
  facet normal -0 0 -1
    outer loop
      vertex 36.2 30 0
      vertex 34.4 24 0
      vertex 34.4 30 0
    endloop
  endfacet
  facet normal 0 0 -1
    outer loop
      vertex 50 52 0
      vertex 51.8 58 0
      vertex 51.8 52 0
    endloop
  endfacet
  facet normal -0 0 -1
    outer loop
      vertex 51.8 58 0
      vertex 50 52 0
      vertex 50 58 0
    endloop
  endfacet
  facet normal 0 0 -1
    outer loop
      vertex 50 38 0
      vertex 51.8 44 0
      vertex 51.8 38 0
    endloop
  endfacet
  facet normal -0 0 -1
    outer loop
      vertex 51.8 44 0
      vertex 50 38 0
      vertex 50 44 0
    endloop
  endfacet
  facet normal 0 0 -1
    outer loop
      vertex 50 24 0
      vertex 51.8 30 0
      vertex 51.8 24 0
    endloop
  endfacet
  facet normal -0 0 -1
    outer loop
      vertex 51.8 30 0
      vertex 50 24 0
      vertex 50 30 0
    endloop
  endfacet
  facet normal 0 0 -1
    outer loop
      vertex 65.6 52 0
      vertex 67.4 58 0
      vertex 67.4 52 0
    endloop
  endfacet
  facet normal -0 0 -1
    outer loop
      vertex 67.4 58 0
      vertex 65.6 52 0
      vertex 65.6 58 0
    endloop
  endfacet
  facet normal 0 0 -1
    outer loop
      vertex 65.6 38 0
      vertex 67.4 44 0
      vertex 67.4 38 0
    endloop
  endfacet
  facet normal -0 0 -1
    outer loop
      vertex 67.4 44 0
      vertex 65.6 38 0
      vertex 65.6 44 0
    endloop
  endfacet
  facet normal 0 0 -1
    outer loop
      vertex 65.6 24 0
      vertex 67.4 30 0
      vertex 67.4 24 0
    endloop
  endfacet
  facet normal -0 0 -1
    outer loop
      vertex 67.4 30 0
      vertex 65.6 24 0
      vertex 65.6 30 0
    endloop
  endfacet
  facet normal 0 0 -1
    outer loop
      vertex 67.4 24 0
      vertex 70.6 0 0
      vertex 67.4 16 0
    endloop
  endfacet
  facet normal 0 0 -1
    outer loop
      vertex 70.6 0 0
      vertex 65.6 16 0
      vertex 67.4 16 0
    endloop
  endfacet
  facet normal 0 0 -1
    outer loop
      vertex 51.8 24 0
      vertex 65.6 24 0
      vertex 65.6 16 0
    endloop
  endfacet
  facet normal 0 0 -1
    outer loop
      vertex 65.6 24 0
      vertex 51.8 24 0
      vertex 65.6 30 0
    endloop
  endfacet
  facet normal 0 0 -1
    outer loop
      vertex 65.6 30 0
      vertex 51.8 30 0
      vertex 65.6 38 0
    endloop
  endfacet
  facet normal 0 0 -1
    outer loop
      vertex 51.8 38 0
      vertex 65.6 38 0
      vertex 51.8 30 0
    endloop
  endfacet
  facet normal 0 0 -1
    outer loop
      vertex 51.8 44 0
      vertex 65.6 44 0
      vertex 51.8 38 0
    endloop
  endfacet
  facet normal 0 0 -1
    outer loop
      vertex 65.6 44 0
      vertex 51.8 44 0
      vertex 65.6 52 0
    endloop
  endfacet
  facet normal 0 0 -1
    outer loop
      vertex 51.8 24 0
      vertex 65.6 16 0
      vertex 51.8 16 0
    endloop
  endfacet
  facet normal 0 0 -1
    outer loop
      vertex 70.6 0 0
      vertex 51.8 16 0
      vertex 65.6 16 0
    endloop
  endfacet
  facet normal 0 0 -1
    outer loop
      vertex 70.6 0 0
      vertex 50 16 0
      vertex 51.8 16 0
    endloop
  endfacet
  facet normal 0 0 -1
    outer loop
      vertex 36.2 24 0
      vertex 50 24 0
      vertex 50 16 0
    endloop
  endfacet
  facet normal 0 0 -1
    outer loop
      vertex 50 24 0
      vertex 36.2 24 0
      vertex 50 30 0
    endloop
  endfacet
  facet normal 0 0 -1
    outer loop
      vertex 50 30 0
      vertex 36.2 30 0
      vertex 50 38 0
    endloop
  endfacet
  facet normal 0 0 -1
    outer loop
      vertex 36.2 38 0
      vertex 50 38 0
      vertex 36.2 30 0
    endloop
  endfacet
  facet normal 0 0 -1
    outer loop
      vertex 36.2 44 0
      vertex 50 44 0
      vertex 36.2 38 0
    endloop
  endfacet
  facet normal 0 0 -1
    outer loop
      vertex 50 44 0
      vertex 36.2 44 0
      vertex 50 52 0
    endloop
  endfacet
  facet normal 0 0 -1
    outer loop
      vertex 36.2 24 0
      vertex 50 16 0
      vertex 36.2 16 0
    endloop
  endfacet
  facet normal 0 0 -1
    outer loop
      vertex 70.6 0 0
      vertex 36.2 16 0
      vertex 50 16 0
    endloop
  endfacet
  facet normal 0 0 -1
    outer loop
      vertex 70.6 0 0
      vertex 34.4 16 0
      vertex 36.2 16 0
    endloop
  endfacet
  facet normal 0 0 -1
    outer loop
      vertex 20.6 24 0
      vertex 34.4 24 0
      vertex 34.4 16 0
    endloop
  endfacet
  facet normal 0 0 -1
    outer loop
      vertex 34.4 24 0
      vertex 20.6 24 0
      vertex 34.4 30 0
    endloop
  endfacet
  facet normal 0 0 -1
    outer loop
      vertex 34.4 30 0
      vertex 20.6 30 0
      vertex 34.4 38 0
    endloop
  endfacet
  facet normal 0 0 -1
    outer loop
      vertex 20.6 38 0
      vertex 34.4 38 0
      vertex 20.6 30 0
    endloop
  endfacet
  facet normal 0 0 -1
    outer loop
      vertex 20.6 44 0
      vertex 34.4 44 0
      vertex 20.6 38 0
    endloop
  endfacet
  facet normal 0 0 -1
    outer loop
      vertex 34.4 44 0
      vertex 20.6 44 0
      vertex 34.4 52 0
    endloop
  endfacet
  facet normal 0 0 -1
    outer loop
      vertex 20.6 24 0
      vertex 34.4 16 0
      vertex 20.6 16 0
    endloop
  endfacet
  facet normal 0 0 -1
    outer loop
      vertex 0 0 0
      vertex 34.4 16 0
      vertex 70.6 0 0
    endloop
  endfacet
  facet normal -0 0 -1
    outer loop
      vertex 34.4 16 0
      vertex 0 0 0
      vertex 20.6 16 0
    endloop
  endfacet
  facet normal 0 0 -1
    outer loop
      vertex 5 24 0
      vertex 18.8 24 0
      vertex 18.8 16 0
    endloop
  endfacet
  facet normal 0 0 -1
    outer loop
      vertex 18.8 24 0
      vertex 5 24 0
      vertex 18.8 30 0
    endloop
  endfacet
  facet normal 0 0 -1
    outer loop
      vertex 18.8 30 0
      vertex 5 30 0
      vertex 18.8 38 0
    endloop
  endfacet
  facet normal 0 0 -1
    outer loop
      vertex 5 38 0
      vertex 18.8 38 0
      vertex 5 30 0
    endloop
  endfacet
  facet normal 0 0 -1
    outer loop
      vertex 5 44 0
      vertex 18.8 44 0
      vertex 5 38 0
    endloop
  endfacet
  facet normal 0 0 -1
    outer loop
      vertex 18.8 44 0
      vertex 5 44 0
      vertex 18.8 52 0
    endloop
  endfacet
  facet normal 0 0 -1
    outer loop
      vertex 5 24 0
      vertex 18.8 16 0
      vertex 5 16 0
    endloop
  endfacet
  facet normal -0 0 -1
    outer loop
      vertex 20.6 16 0
      vertex 0 0 0
      vertex 18.8 16 0
    endloop
  endfacet
  facet normal -0 0 -1
    outer loop
      vertex 18.8 16 0
      vertex 0 0 0
      vertex 5 16 0
    endloop
  endfacet
  facet normal 0 0 -1
    outer loop
      vertex 0 0 0
      vertex 3.2 24 0
      vertex 3.2 16 0
    endloop
  endfacet
  facet normal -0 0 -1
    outer loop
      vertex 3.2 24 0
      vertex 0 0 0
      vertex 3.2 30 0
    endloop
  endfacet
  facet normal -0 0 -1
    outer loop
      vertex 3.2 30 0
      vertex 0 0 0
      vertex 3.2 38 0
    endloop
  endfacet
  facet normal 0 0 -1
    outer loop
      vertex 0 77.3 0
      vertex 3.2 38 0
      vertex 0 0 0
    endloop
  endfacet
  facet normal 0 0 -1
    outer loop
      vertex 3.2 38 0
      vertex 0 77.3 0
      vertex 3.2 44 0
    endloop
  endfacet
  facet normal 0 0 -1
    outer loop
      vertex 3.2 44 0
      vertex 0 77.3 0
      vertex 3.2 52 0
    endloop
  endfacet
  facet normal 0 0 -1
    outer loop
      vertex 3.2 52 0
      vertex 0 77.3 0
      vertex 3.2 58 0
    endloop
  endfacet
  facet normal -0 0 -1
    outer loop
      vertex 5 16 0
      vertex 0 0 0
      vertex 3.2 16 0
    endloop
  endfacet
  facet normal 0 0 -1
    outer loop
      vertex 67.4 30 0
      vertex 70.6 0 0
      vertex 67.4 24 0
    endloop
  endfacet
  facet normal 0 0 -1
    outer loop
      vertex 67.4 38 0
      vertex 70.6 0 0
      vertex 67.4 30 0
    endloop
  endfacet
  facet normal 0 0 -1
    outer loop
      vertex 70.6 0 0
      vertex 67.4 38 0
      vertex 70.6 77.3 0
    endloop
  endfacet
  facet normal 0 0 -1
    outer loop
      vertex 67.4 44 0
      vertex 70.6 77.3 0
      vertex 67.4 38 0
    endloop
  endfacet
  facet normal 0 0 -1
    outer loop
      vertex 67.4 52 0
      vertex 70.6 77.3 0
      vertex 67.4 44 0
    endloop
  endfacet
  facet normal 0 0 -1
    outer loop
      vertex 67.4 58 0
      vertex 70.6 77.3 0
      vertex 67.4 52 0
    endloop
  endfacet
  facet normal 0 0 -1
    outer loop
      vertex 67.4 66 0
      vertex 70.6 77.3 0
      vertex 67.4 58 0
    endloop
  endfacet
  facet normal 0 0 -1
    outer loop
      vertex 65.6 66 0
      vertex 70.6 77.3 0
      vertex 67.4 66 0
    endloop
  endfacet
  facet normal -0 0 -1
    outer loop
      vertex 65.6 30 0
      vertex 51.8 24 0
      vertex 51.8 30 0
    endloop
  endfacet
  facet normal 0 0 -1
    outer loop
      vertex 65.6 38 0
      vertex 51.8 38 0
      vertex 65.6 44 0
    endloop
  endfacet
  facet normal 0 0 -1
    outer loop
      vertex 51.8 52 0
      vertex 65.6 52 0
      vertex 51.8 44 0
    endloop
  endfacet
  facet normal 0 0 -1
    outer loop
      vertex 65.6 52 0
      vertex 51.8 52 0
      vertex 65.6 58 0
    endloop
  endfacet
  facet normal 0 0 -1
    outer loop
      vertex 51.8 58 0
      vertex 65.6 58 0
      vertex 51.8 52 0
    endloop
  endfacet
  facet normal 0 0 -1
    outer loop
      vertex 65.6 58 0
      vertex 51.8 58 0
      vertex 65.6 66 0
    endloop
  endfacet
  facet normal 0 0 -1
    outer loop
      vertex 51.8 66 0
      vertex 65.6 66 0
      vertex 51.8 58 0
    endloop
  endfacet
  facet normal 0 0 -1
    outer loop
      vertex 65.6 66 0
      vertex 51.8 66 0
      vertex 70.6 77.3 0
    endloop
  endfacet
  facet normal 0 0 -1
    outer loop
      vertex 50 66 0
      vertex 70.6 77.3 0
      vertex 51.8 66 0
    endloop
  endfacet
  facet normal -0 0 -1
    outer loop
      vertex 50 30 0
      vertex 36.2 24 0
      vertex 36.2 30 0
    endloop
  endfacet
  facet normal 0 0 -1
    outer loop
      vertex 50 38 0
      vertex 36.2 38 0
      vertex 50 44 0
    endloop
  endfacet
  facet normal 0 0 -1
    outer loop
      vertex 36.2 52 0
      vertex 50 52 0
      vertex 36.2 44 0
    endloop
  endfacet
  facet normal 0 0 -1
    outer loop
      vertex 50 52 0
      vertex 36.2 52 0
      vertex 50 58 0
    endloop
  endfacet
  facet normal 0 0 -1
    outer loop
      vertex 36.2 58 0
      vertex 50 58 0
      vertex 36.2 52 0
    endloop
  endfacet
  facet normal 0 0 -1
    outer loop
      vertex 50 58 0
      vertex 36.2 58 0
      vertex 50 66 0
    endloop
  endfacet
  facet normal 0 0 -1
    outer loop
      vertex 36.2 66 0
      vertex 50 66 0
      vertex 36.2 58 0
    endloop
  endfacet
  facet normal 0 0 -1
    outer loop
      vertex 36.2 66 0
      vertex 70.6 77.3 0
      vertex 50 66 0
    endloop
  endfacet
  facet normal 0 0 -1
    outer loop
      vertex 34.4 66 0
      vertex 70.6 77.3 0
      vertex 36.2 66 0
    endloop
  endfacet
  facet normal -0 0 -1
    outer loop
      vertex 34.4 30 0
      vertex 20.6 24 0
      vertex 20.6 30 0
    endloop
  endfacet
  facet normal 0 0 -1
    outer loop
      vertex 34.4 38 0
      vertex 20.6 38 0
      vertex 34.4 44 0
    endloop
  endfacet
  facet normal 0 0 -1
    outer loop
      vertex 20.6 52 0
      vertex 34.4 52 0
      vertex 20.6 44 0
    endloop
  endfacet
  facet normal 0 0 -1
    outer loop
      vertex 34.4 52 0
      vertex 20.6 52 0
      vertex 34.4 58 0
    endloop
  endfacet
  facet normal 0 0 -1
    outer loop
      vertex 20.6 58 0
      vertex 34.4 58 0
      vertex 20.6 52 0
    endloop
  endfacet
  facet normal 0 0 -1
    outer loop
      vertex 34.4 58 0
      vertex 20.6 58 0
      vertex 34.4 66 0
    endloop
  endfacet
  facet normal 0 0 -1
    outer loop
      vertex 20.6 66 0
      vertex 34.4 66 0
      vertex 20.6 58 0
    endloop
  endfacet
  facet normal 0 0 -1
    outer loop
      vertex 0 77.3 0
      vertex 34.4 66 0
      vertex 20.6 66 0
    endloop
  endfacet
  facet normal 0 0 -1
    outer loop
      vertex 0 77.3 0
      vertex 20.6 66 0
      vertex 18.8 66 0
    endloop
  endfacet
  facet normal -0 0 -1
    outer loop
      vertex 18.8 30 0
      vertex 5 24 0
      vertex 5 30 0
    endloop
  endfacet
  facet normal 0 0 -1
    outer loop
      vertex 18.8 38 0
      vertex 5 38 0
      vertex 18.8 44 0
    endloop
  endfacet
  facet normal 0 0 -1
    outer loop
      vertex 5 52 0
      vertex 18.8 52 0
      vertex 5 44 0
    endloop
  endfacet
  facet normal 0 0 -1
    outer loop
      vertex 18.8 52 0
      vertex 5 52 0
      vertex 18.8 58 0
    endloop
  endfacet
  facet normal 0 0 -1
    outer loop
      vertex 5 58 0
      vertex 18.8 58 0
      vertex 5 52 0
    endloop
  endfacet
  facet normal 0 0 -1
    outer loop
      vertex 18.8 58 0
      vertex 5 58 0
      vertex 18.8 66 0
    endloop
  endfacet
  facet normal 0 0 -1
    outer loop
      vertex 5 66 0
      vertex 18.8 66 0
      vertex 5 58 0
    endloop
  endfacet
  facet normal 0 0 -1
    outer loop
      vertex 0 77.3 0
      vertex 18.8 66 0
      vertex 5 66 0
    endloop
  endfacet
  facet normal 0 0 -1
    outer loop
      vertex 0 77.3 0
      vertex 5 66 0
      vertex 3.2 66 0
    endloop
  endfacet
  facet normal 0 0 -1
    outer loop
      vertex 34.4 66 0
      vertex 0 77.3 0
      vertex 70.6 77.3 0
    endloop
  endfacet
  facet normal 0 0 -1
    outer loop
      vertex 3.2 58 0
      vertex 0 77.3 0
      vertex 3.2 66 0
    endloop
  endfacet
  facet normal 0 -1 0
    outer loop
      vertex 1.6 75.7 1.5
      vertex 69 75.7 15
      vertex 1.6 75.7 15
    endloop
  endfacet
  facet normal 0 -1 -0
    outer loop
      vertex 69 75.7 15
      vertex 1.6 75.7 1.5
      vertex 69 75.7 1.5
    endloop
  endfacet
  facet normal 1 0 0
    outer loop
      vertex 1.6 72.3 18
      vertex 1.6 5 18
      vertex 1.6 72.3 15
    endloop
  endfacet
  facet normal 1 -0 0
    outer loop
      vertex 1.6 72.3 15
      vertex 1.6 75.7 1.5
      vertex 1.6 75.7 15
    endloop
  endfacet
  facet normal 1 0 0
    outer loop
      vertex 1.6 5 15
      vertex 1.6 72.3 15
      vertex 1.6 5 18
    endloop
  endfacet
  facet normal 1 0 0
    outer loop
      vertex 1.6 72.3 15
      vertex 1.6 5 15
      vertex 1.6 75.7 1.5
    endloop
  endfacet
  facet normal 1 0 0
    outer loop
      vertex 1.6 1.6 1.5
      vertex 1.6 5 15
      vertex 1.6 1.6 15
    endloop
  endfacet
  facet normal 1 0 0
    outer loop
      vertex 1.6 5 15
      vertex 1.6 1.6 1.5
      vertex 1.6 75.7 1.5
    endloop
  endfacet
  facet normal -1 0 0
    outer loop
      vertex 69 75.7 1.5
      vertex 69 72.3 15
      vertex 69 75.7 15
    endloop
  endfacet
  facet normal -1 0 0
    outer loop
      vertex 69 72.3 15
      vertex 69 5 15
      vertex 69 72.3 18
    endloop
  endfacet
  facet normal -1 0 0
    outer loop
      vertex 69 75.7 1.5
      vertex 69 5 15
      vertex 69 72.3 15
    endloop
  endfacet
  facet normal -1 0 0
    outer loop
      vertex 69 1.6 1.5
      vertex 69 5 15
      vertex 69 75.7 1.5
    endloop
  endfacet
  facet normal -1 -0 0
    outer loop
      vertex 69 5 15
      vertex 69 1.6 1.5
      vertex 69 1.6 15
    endloop
  endfacet
  facet normal -1 -0 0
    outer loop
      vertex 69 72.3 18
      vertex 69 5 15
      vertex 69 5 18
    endloop
  endfacet
  facet normal -0 0 1
    outer loop
      vertex 0 72.3 18
      vertex 1.6 5 18
      vertex 1.6 72.3 18
    endloop
  endfacet
  facet normal 0 0 1
    outer loop
      vertex 1.6 5 18
      vertex 0 72.3 18
      vertex 0 5 18
    endloop
  endfacet
  facet normal 0 1 -0
    outer loop
      vertex 1.6 72.3 15
      vertex 0 72.3 18
      vertex 1.6 72.3 18
    endloop
  endfacet
  facet normal 0 1 0
    outer loop
      vertex 0 72.3 18
      vertex 1.6 72.3 15
      vertex 0 72.3 15
    endloop
  endfacet
  facet normal 0 -1 0
    outer loop
      vertex 0 5 15
      vertex 1.6 5 18
      vertex 0 5 18
    endloop
  endfacet
  facet normal 0 -1 -0
    outer loop
      vertex 1.6 5 18
      vertex 0 5 15
      vertex 1.6 5 15
    endloop
  endfacet
  facet normal -0 0 1
    outer loop
      vertex 69 72.3 18
      vertex 70.6 5 18
      vertex 70.6 72.3 18
    endloop
  endfacet
  facet normal 0 0 1
    outer loop
      vertex 70.6 5 18
      vertex 69 72.3 18
      vertex 69 5 18
    endloop
  endfacet
  facet normal 0 1 -0
    outer loop
      vertex 70.6 72.3 15
      vertex 69 72.3 18
      vertex 70.6 72.3 18
    endloop
  endfacet
  facet normal 0 1 0
    outer loop
      vertex 69 72.3 18
      vertex 70.6 72.3 15
      vertex 69 72.3 15
    endloop
  endfacet
  facet normal 0 -1 0
    outer loop
      vertex 69 5 15
      vertex 70.6 5 18
      vertex 69 5 18
    endloop
  endfacet
  facet normal 0 -1 -0
    outer loop
      vertex 70.6 5 18
      vertex 69 5 15
      vertex 70.6 5 15
    endloop
  endfacet
  facet normal 1 -0 0
    outer loop
      vertex 3.2 16 1.5
      vertex 3.2 24 0
      vertex 3.2 24 1.5
    endloop
  endfacet
  facet normal 1 0 0
    outer loop
      vertex 3.2 24 0
      vertex 3.2 16 1.5
      vertex 3.2 16 0
    endloop
  endfacet
  facet normal -1 0 0
    outer loop
      vertex 5 16 0
      vertex 5 24 1.5
      vertex 5 24 0
    endloop
  endfacet
  facet normal -1 -0 0
    outer loop
      vertex 5 24 1.5
      vertex 5 16 0
      vertex 5 16 1.5
    endloop
  endfacet
  facet normal 0 1 -0
    outer loop
      vertex 5 16 0
      vertex 3.2 16 1.5
      vertex 5 16 1.5
    endloop
  endfacet
  facet normal 0 1 0
    outer loop
      vertex 3.2 16 1.5
      vertex 5 16 0
      vertex 3.2 16 0
    endloop
  endfacet
  facet normal 0 -1 0
    outer loop
      vertex 3.2 24 0
      vertex 5 24 1.5
      vertex 3.2 24 1.5
    endloop
  endfacet
  facet normal 0 -1 -0
    outer loop
      vertex 5 24 1.5
      vertex 3.2 24 0
      vertex 5 24 0
    endloop
  endfacet
  facet normal 1 -0 0
    outer loop
      vertex 3.2 30 1.5
      vertex 3.2 38 0
      vertex 3.2 38 1.5
    endloop
  endfacet
  facet normal 1 0 0
    outer loop
      vertex 3.2 38 0
      vertex 3.2 30 1.5
      vertex 3.2 30 0
    endloop
  endfacet
  facet normal -1 0 0
    outer loop
      vertex 5 30 0
      vertex 5 38 1.5
      vertex 5 38 0
    endloop
  endfacet
  facet normal -1 -0 0
    outer loop
      vertex 5 38 1.5
      vertex 5 30 0
      vertex 5 30 1.5
    endloop
  endfacet
  facet normal 0 -1 0
    outer loop
      vertex 3.2 38 0
      vertex 5 38 1.5
      vertex 3.2 38 1.5
    endloop
  endfacet
  facet normal 0 -1 -0
    outer loop
      vertex 5 38 1.5
      vertex 3.2 38 0
      vertex 5 38 0
    endloop
  endfacet
  facet normal 0 1 -0
    outer loop
      vertex 5 30 0
      vertex 3.2 30 1.5
      vertex 5 30 1.5
    endloop
  endfacet
  facet normal 0 1 0
    outer loop
      vertex 3.2 30 1.5
      vertex 5 30 0
      vertex 3.2 30 0
    endloop
  endfacet
  facet normal 1 -0 0
    outer loop
      vertex 3.2 44 1.5
      vertex 3.2 52 0
      vertex 3.2 52 1.5
    endloop
  endfacet
  facet normal 1 0 0
    outer loop
      vertex 3.2 52 0
      vertex 3.2 44 1.5
      vertex 3.2 44 0
    endloop
  endfacet
  facet normal -1 0 0
    outer loop
      vertex 5 44 0
      vertex 5 52 1.5
      vertex 5 52 0
    endloop
  endfacet
  facet normal -1 -0 0
    outer loop
      vertex 5 52 1.5
      vertex 5 44 0
      vertex 5 44 1.5
    endloop
  endfacet
  facet normal 0 -1 0
    outer loop
      vertex 3.2 52 0
      vertex 5 52 1.5
      vertex 3.2 52 1.5
    endloop
  endfacet
  facet normal 0 -1 -0
    outer loop
      vertex 5 52 1.5
      vertex 3.2 52 0
      vertex 5 52 0
    endloop
  endfacet
  facet normal 0 1 -0
    outer loop
      vertex 5 44 0
      vertex 3.2 44 1.5
      vertex 5 44 1.5
    endloop
  endfacet
  facet normal 0 1 0
    outer loop
      vertex 3.2 44 1.5
      vertex 5 44 0
      vertex 3.2 44 0
    endloop
  endfacet
  facet normal 1 -0 0
    outer loop
      vertex 3.2 58 1.5
      vertex 3.2 66 0
      vertex 3.2 66 1.5
    endloop
  endfacet
  facet normal 1 0 0
    outer loop
      vertex 3.2 66 0
      vertex 3.2 58 1.5
      vertex 3.2 58 0
    endloop
  endfacet
  facet normal -1 0 0
    outer loop
      vertex 5 58 0
      vertex 5 66 1.5
      vertex 5 66 0
    endloop
  endfacet
  facet normal -1 -0 0
    outer loop
      vertex 5 66 1.5
      vertex 5 58 0
      vertex 5 58 1.5
    endloop
  endfacet
  facet normal 0 -1 0
    outer loop
      vertex 3.2 66 0
      vertex 5 66 1.5
      vertex 3.2 66 1.5
    endloop
  endfacet
  facet normal 0 -1 -0
    outer loop
      vertex 5 66 1.5
      vertex 3.2 66 0
      vertex 5 66 0
    endloop
  endfacet
  facet normal 0 1 -0
    outer loop
      vertex 5 58 0
      vertex 3.2 58 1.5
      vertex 5 58 1.5
    endloop
  endfacet
  facet normal 0 1 0
    outer loop
      vertex 3.2 58 1.5
      vertex 5 58 0
      vertex 3.2 58 0
    endloop
  endfacet
  facet normal 1 -0 0
    outer loop
      vertex 18.8 16 1.5
      vertex 18.8 24 0
      vertex 18.8 24 1.5
    endloop
  endfacet
  facet normal 1 0 0
    outer loop
      vertex 18.8 24 0
      vertex 18.8 16 1.5
      vertex 18.8 16 0
    endloop
  endfacet
  facet normal -1 0 0
    outer loop
      vertex 20.6 16 0
      vertex 20.6 24 1.5
      vertex 20.6 24 0
    endloop
  endfacet
  facet normal -1 -0 0
    outer loop
      vertex 20.6 24 1.5
      vertex 20.6 16 0
      vertex 20.6 16 1.5
    endloop
  endfacet
  facet normal 0 -1 0
    outer loop
      vertex 18.8 24 0
      vertex 20.6 24 1.5
      vertex 18.8 24 1.5
    endloop
  endfacet
  facet normal 0 -1 -0
    outer loop
      vertex 20.6 24 1.5
      vertex 18.8 24 0
      vertex 20.6 24 0
    endloop
  endfacet
  facet normal 0 1 -0
    outer loop
      vertex 20.6 16 0
      vertex 18.8 16 1.5
      vertex 20.6 16 1.5
    endloop
  endfacet
  facet normal 0 1 0
    outer loop
      vertex 18.8 16 1.5
      vertex 20.6 16 0
      vertex 18.8 16 0
    endloop
  endfacet
  facet normal 1 -0 0
    outer loop
      vertex 18.8 30 1.5
      vertex 18.8 38 0
      vertex 18.8 38 1.5
    endloop
  endfacet
  facet normal 1 0 0
    outer loop
      vertex 18.8 38 0
      vertex 18.8 30 1.5
      vertex 18.8 30 0
    endloop
  endfacet
  facet normal -1 0 0
    outer loop
      vertex 20.6 30 0
      vertex 20.6 38 1.5
      vertex 20.6 38 0
    endloop
  endfacet
  facet normal -1 -0 0
    outer loop
      vertex 20.6 38 1.5
      vertex 20.6 30 0
      vertex 20.6 30 1.5
    endloop
  endfacet
  facet normal 0 -1 0
    outer loop
      vertex 18.8 38 0
      vertex 20.6 38 1.5
      vertex 18.8 38 1.5
    endloop
  endfacet
  facet normal 0 -1 -0
    outer loop
      vertex 20.6 38 1.5
      vertex 18.8 38 0
      vertex 20.6 38 0
    endloop
  endfacet
  facet normal 0 1 -0
    outer loop
      vertex 20.6 30 0
      vertex 18.8 30 1.5
      vertex 20.6 30 1.5
    endloop
  endfacet
  facet normal 0 1 0
    outer loop
      vertex 18.8 30 1.5
      vertex 20.6 30 0
      vertex 18.8 30 0
    endloop
  endfacet
  facet normal 1 -0 0
    outer loop
      vertex 18.8 44 1.5
      vertex 18.8 52 0
      vertex 18.8 52 1.5
    endloop
  endfacet
  facet normal 1 0 0
    outer loop
      vertex 18.8 52 0
      vertex 18.8 44 1.5
      vertex 18.8 44 0
    endloop
  endfacet
  facet normal -1 0 0
    outer loop
      vertex 20.6 44 0
      vertex 20.6 52 1.5
      vertex 20.6 52 0
    endloop
  endfacet
  facet normal -1 -0 0
    outer loop
      vertex 20.6 52 1.5
      vertex 20.6 44 0
      vertex 20.6 44 1.5
    endloop
  endfacet
  facet normal 0 -1 0
    outer loop
      vertex 18.8 52 0
      vertex 20.6 52 1.5
      vertex 18.8 52 1.5
    endloop
  endfacet
  facet normal 0 -1 -0
    outer loop
      vertex 20.6 52 1.5
      vertex 18.8 52 0
      vertex 20.6 52 0
    endloop
  endfacet
  facet normal 0 1 -0
    outer loop
      vertex 20.6 44 0
      vertex 18.8 44 1.5
      vertex 20.6 44 1.5
    endloop
  endfacet
  facet normal 0 1 0
    outer loop
      vertex 18.8 44 1.5
      vertex 20.6 44 0
      vertex 18.8 44 0
    endloop
  endfacet
  facet normal 1 -0 0
    outer loop
      vertex 18.8 58 1.5
      vertex 18.8 66 0
      vertex 18.8 66 1.5
    endloop
  endfacet
  facet normal 1 0 0
    outer loop
      vertex 18.8 66 0
      vertex 18.8 58 1.5
      vertex 18.8 58 0
    endloop
  endfacet
  facet normal -1 0 0
    outer loop
      vertex 20.6 58 0
      vertex 20.6 66 1.5
      vertex 20.6 66 0
    endloop
  endfacet
  facet normal -1 -0 0
    outer loop
      vertex 20.6 66 1.5
      vertex 20.6 58 0
      vertex 20.6 58 1.5
    endloop
  endfacet
  facet normal 0 -1 0
    outer loop
      vertex 18.8 66 0
      vertex 20.6 66 1.5
      vertex 18.8 66 1.5
    endloop
  endfacet
  facet normal 0 -1 -0
    outer loop
      vertex 20.6 66 1.5
      vertex 18.8 66 0
      vertex 20.6 66 0
    endloop
  endfacet
  facet normal 0 1 -0
    outer loop
      vertex 20.6 58 0
      vertex 18.8 58 1.5
      vertex 20.6 58 1.5
    endloop
  endfacet
  facet normal 0 1 0
    outer loop
      vertex 18.8 58 1.5
      vertex 20.6 58 0
      vertex 18.8 58 0
    endloop
  endfacet
  facet normal 1 -0 0
    outer loop
      vertex 34.4 16 1.5
      vertex 34.4 24 0
      vertex 34.4 24 1.5
    endloop
  endfacet
  facet normal 1 0 0
    outer loop
      vertex 34.4 24 0
      vertex 34.4 16 1.5
      vertex 34.4 16 0
    endloop
  endfacet
  facet normal -1 0 0
    outer loop
      vertex 36.2 16 0
      vertex 36.2 24 1.5
      vertex 36.2 24 0
    endloop
  endfacet
  facet normal -1 -0 0
    outer loop
      vertex 36.2 24 1.5
      vertex 36.2 16 0
      vertex 36.2 16 1.5
    endloop
  endfacet
  facet normal 0 1 -0
    outer loop
      vertex 36.2 16 0
      vertex 34.4 16 1.5
      vertex 36.2 16 1.5
    endloop
  endfacet
  facet normal 0 1 0
    outer loop
      vertex 34.4 16 1.5
      vertex 36.2 16 0
      vertex 34.4 16 0
    endloop
  endfacet
  facet normal 0 -1 0
    outer loop
      vertex 34.4 24 0
      vertex 36.2 24 1.5
      vertex 34.4 24 1.5
    endloop
  endfacet
  facet normal 0 -1 -0
    outer loop
      vertex 36.2 24 1.5
      vertex 34.4 24 0
      vertex 36.2 24 0
    endloop
  endfacet
  facet normal 1 -0 0
    outer loop
      vertex 34.4 30 1.5
      vertex 34.4 38 0
      vertex 34.4 38 1.5
    endloop
  endfacet
  facet normal 1 0 0
    outer loop
      vertex 34.4 38 0
      vertex 34.4 30 1.5
      vertex 34.4 30 0
    endloop
  endfacet
  facet normal -1 0 0
    outer loop
      vertex 36.2 30 0
      vertex 36.2 38 1.5
      vertex 36.2 38 0
    endloop
  endfacet
  facet normal -1 -0 0
    outer loop
      vertex 36.2 38 1.5
      vertex 36.2 30 0
      vertex 36.2 30 1.5
    endloop
  endfacet
  facet normal 0 -1 0
    outer loop
      vertex 34.4 38 0
      vertex 36.2 38 1.5
      vertex 34.4 38 1.5
    endloop
  endfacet
  facet normal 0 -1 -0
    outer loop
      vertex 36.2 38 1.5
      vertex 34.4 38 0
      vertex 36.2 38 0
    endloop
  endfacet
  facet normal 0 1 -0
    outer loop
      vertex 36.2 30 0
      vertex 34.4 30 1.5
      vertex 36.2 30 1.5
    endloop
  endfacet
  facet normal 0 1 0
    outer loop
      vertex 34.4 30 1.5
      vertex 36.2 30 0
      vertex 34.4 30 0
    endloop
  endfacet
  facet normal 1 -0 0
    outer loop
      vertex 34.4 44 1.5
      vertex 34.4 52 0
      vertex 34.4 52 1.5
    endloop
  endfacet
  facet normal 1 0 0
    outer loop
      vertex 34.4 52 0
      vertex 34.4 44 1.5
      vertex 34.4 44 0
    endloop
  endfacet
  facet normal -1 0 0
    outer loop
      vertex 36.2 44 0
      vertex 36.2 52 1.5
      vertex 36.2 52 0
    endloop
  endfacet
  facet normal -1 -0 0
    outer loop
      vertex 36.2 52 1.5
      vertex 36.2 44 0
      vertex 36.2 44 1.5
    endloop
  endfacet
  facet normal 0 1 -0
    outer loop
      vertex 36.2 44 0
      vertex 34.4 44 1.5
      vertex 36.2 44 1.5
    endloop
  endfacet
  facet normal 0 1 0
    outer loop
      vertex 34.4 44 1.5
      vertex 36.2 44 0
      vertex 34.4 44 0
    endloop
  endfacet
  facet normal 0 -1 0
    outer loop
      vertex 34.4 52 0
      vertex 36.2 52 1.5
      vertex 34.4 52 1.5
    endloop
  endfacet
  facet normal 0 -1 -0
    outer loop
      vertex 36.2 52 1.5
      vertex 34.4 52 0
      vertex 36.2 52 0
    endloop
  endfacet
  facet normal 1 -0 0
    outer loop
      vertex 34.4 58 1.5
      vertex 34.4 66 0
      vertex 34.4 66 1.5
    endloop
  endfacet
  facet normal 1 0 0
    outer loop
      vertex 34.4 66 0
      vertex 34.4 58 1.5
      vertex 34.4 58 0
    endloop
  endfacet
  facet normal -1 0 0
    outer loop
      vertex 36.2 58 0
      vertex 36.2 66 1.5
      vertex 36.2 66 0
    endloop
  endfacet
  facet normal -1 -0 0
    outer loop
      vertex 36.2 66 1.5
      vertex 36.2 58 0
      vertex 36.2 58 1.5
    endloop
  endfacet
  facet normal 0 1 -0
    outer loop
      vertex 36.2 58 0
      vertex 34.4 58 1.5
      vertex 36.2 58 1.5
    endloop
  endfacet
  facet normal 0 1 0
    outer loop
      vertex 34.4 58 1.5
      vertex 36.2 58 0
      vertex 34.4 58 0
    endloop
  endfacet
  facet normal 0 -1 0
    outer loop
      vertex 34.4 66 0
      vertex 36.2 66 1.5
      vertex 34.4 66 1.5
    endloop
  endfacet
  facet normal 0 -1 -0
    outer loop
      vertex 36.2 66 1.5
      vertex 34.4 66 0
      vertex 36.2 66 0
    endloop
  endfacet
  facet normal 1 -0 0
    outer loop
      vertex 50 16 1.5
      vertex 50 24 0
      vertex 50 24 1.5
    endloop
  endfacet
  facet normal 1 0 0
    outer loop
      vertex 50 24 0
      vertex 50 16 1.5
      vertex 50 16 0
    endloop
  endfacet
  facet normal -1 0 0
    outer loop
      vertex 51.8 16 0
      vertex 51.8 24 1.5
      vertex 51.8 24 0
    endloop
  endfacet
  facet normal -1 -0 0
    outer loop
      vertex 51.8 24 1.5
      vertex 51.8 16 0
      vertex 51.8 16 1.5
    endloop
  endfacet
  facet normal 0 -1 0
    outer loop
      vertex 50 24 0
      vertex 51.8 24 1.5
      vertex 50 24 1.5
    endloop
  endfacet
  facet normal 0 -1 -0
    outer loop
      vertex 51.8 24 1.5
      vertex 50 24 0
      vertex 51.8 24 0
    endloop
  endfacet
  facet normal 0 1 -0
    outer loop
      vertex 51.8 16 0
      vertex 50 16 1.5
      vertex 51.8 16 1.5
    endloop
  endfacet
  facet normal 0 1 0
    outer loop
      vertex 50 16 1.5
      vertex 51.8 16 0
      vertex 50 16 0
    endloop
  endfacet
  facet normal 1 -0 0
    outer loop
      vertex 50 30 1.5
      vertex 50 38 0
      vertex 50 38 1.5
    endloop
  endfacet
  facet normal 1 0 0
    outer loop
      vertex 50 38 0
      vertex 50 30 1.5
      vertex 50 30 0
    endloop
  endfacet
  facet normal -1 0 0
    outer loop
      vertex 51.8 30 0
      vertex 51.8 38 1.5
      vertex 51.8 38 0
    endloop
  endfacet
  facet normal -1 -0 0
    outer loop
      vertex 51.8 38 1.5
      vertex 51.8 30 0
      vertex 51.8 30 1.5
    endloop
  endfacet
  facet normal 0 -1 0
    outer loop
      vertex 50 38 0
      vertex 51.8 38 1.5
      vertex 50 38 1.5
    endloop
  endfacet
  facet normal 0 -1 -0
    outer loop
      vertex 51.8 38 1.5
      vertex 50 38 0
      vertex 51.8 38 0
    endloop
  endfacet
  facet normal 0 1 -0
    outer loop
      vertex 51.8 30 0
      vertex 50 30 1.5
      vertex 51.8 30 1.5
    endloop
  endfacet
  facet normal 0 1 0
    outer loop
      vertex 50 30 1.5
      vertex 51.8 30 0
      vertex 50 30 0
    endloop
  endfacet
  facet normal 1 -0 0
    outer loop
      vertex 50 44 1.5
      vertex 50 52 0
      vertex 50 52 1.5
    endloop
  endfacet
  facet normal 1 0 0
    outer loop
      vertex 50 52 0
      vertex 50 44 1.5
      vertex 50 44 0
    endloop
  endfacet
  facet normal -1 0 0
    outer loop
      vertex 51.8 44 0
      vertex 51.8 52 1.5
      vertex 51.8 52 0
    endloop
  endfacet
  facet normal -1 -0 0
    outer loop
      vertex 51.8 52 1.5
      vertex 51.8 44 0
      vertex 51.8 44 1.5
    endloop
  endfacet
  facet normal 0 -1 0
    outer loop
      vertex 50 52 0
      vertex 51.8 52 1.5
      vertex 50 52 1.5
    endloop
  endfacet
  facet normal 0 -1 -0
    outer loop
      vertex 51.8 52 1.5
      vertex 50 52 0
      vertex 51.8 52 0
    endloop
  endfacet
  facet normal 0 1 -0
    outer loop
      vertex 51.8 44 0
      vertex 50 44 1.5
      vertex 51.8 44 1.5
    endloop
  endfacet
  facet normal 0 1 0
    outer loop
      vertex 50 44 1.5
      vertex 51.8 44 0
      vertex 50 44 0
    endloop
  endfacet
  facet normal 1 -0 0
    outer loop
      vertex 50 58 1.5
      vertex 50 66 0
      vertex 50 66 1.5
    endloop
  endfacet
  facet normal 1 0 0
    outer loop
      vertex 50 66 0
      vertex 50 58 1.5
      vertex 50 58 0
    endloop
  endfacet
  facet normal -1 0 0
    outer loop
      vertex 51.8 58 0
      vertex 51.8 66 1.5
      vertex 51.8 66 0
    endloop
  endfacet
  facet normal -1 -0 0
    outer loop
      vertex 51.8 66 1.5
      vertex 51.8 58 0
      vertex 51.8 58 1.5
    endloop
  endfacet
  facet normal 0 1 -0
    outer loop
      vertex 51.8 58 0
      vertex 50 58 1.5
      vertex 51.8 58 1.5
    endloop
  endfacet
  facet normal 0 1 0
    outer loop
      vertex 50 58 1.5
      vertex 51.8 58 0
      vertex 50 58 0
    endloop
  endfacet
  facet normal 0 -1 0
    outer loop
      vertex 50 66 0
      vertex 51.8 66 1.5
      vertex 50 66 1.5
    endloop
  endfacet
  facet normal 0 -1 -0
    outer loop
      vertex 51.8 66 1.5
      vertex 50 66 0
      vertex 51.8 66 0
    endloop
  endfacet
  facet normal 1 -0 0
    outer loop
      vertex 65.6 16 1.5
      vertex 65.6 24 0
      vertex 65.6 24 1.5
    endloop
  endfacet
  facet normal 1 0 0
    outer loop
      vertex 65.6 24 0
      vertex 65.6 16 1.5
      vertex 65.6 16 0
    endloop
  endfacet
  facet normal -1 0 0
    outer loop
      vertex 67.4 16 0
      vertex 67.4 24 1.5
      vertex 67.4 24 0
    endloop
  endfacet
  facet normal -1 -0 0
    outer loop
      vertex 67.4 24 1.5
      vertex 67.4 16 0
      vertex 67.4 16 1.5
    endloop
  endfacet
  facet normal 0 -1 0
    outer loop
      vertex 65.6 24 0
      vertex 67.4 24 1.5
      vertex 65.6 24 1.5
    endloop
  endfacet
  facet normal 0 -1 -0
    outer loop
      vertex 67.4 24 1.5
      vertex 65.6 24 0
      vertex 67.4 24 0
    endloop
  endfacet
  facet normal 0 1 -0
    outer loop
      vertex 67.4 16 0
      vertex 65.6 16 1.5
      vertex 67.4 16 1.5
    endloop
  endfacet
  facet normal 0 1 0
    outer loop
      vertex 65.6 16 1.5
      vertex 67.4 16 0
      vertex 65.6 16 0
    endloop
  endfacet
  facet normal 1 -0 0
    outer loop
      vertex 65.6 30 1.5
      vertex 65.6 38 0
      vertex 65.6 38 1.5
    endloop
  endfacet
  facet normal 1 0 0
    outer loop
      vertex 65.6 38 0
      vertex 65.6 30 1.5
      vertex 65.6 30 0
    endloop
  endfacet
  facet normal -1 0 0
    outer loop
      vertex 67.4 30 0
      vertex 67.4 38 1.5
      vertex 67.4 38 0
    endloop
  endfacet
  facet normal -1 -0 0
    outer loop
      vertex 67.4 38 1.5
      vertex 67.4 30 0
      vertex 67.4 30 1.5
    endloop
  endfacet
  facet normal 0 -1 0
    outer loop
      vertex 65.6 38 0
      vertex 67.4 38 1.5
      vertex 65.6 38 1.5
    endloop
  endfacet
  facet normal 0 -1 -0
    outer loop
      vertex 67.4 38 1.5
      vertex 65.6 38 0
      vertex 67.4 38 0
    endloop
  endfacet
  facet normal 0 1 -0
    outer loop
      vertex 67.4 30 0
      vertex 65.6 30 1.5
      vertex 67.4 30 1.5
    endloop
  endfacet
  facet normal 0 1 0
    outer loop
      vertex 65.6 30 1.5
      vertex 67.4 30 0
      vertex 65.6 30 0
    endloop
  endfacet
  facet normal 1 -0 0
    outer loop
      vertex 65.6 44 1.5
      vertex 65.6 52 0
      vertex 65.6 52 1.5
    endloop
  endfacet
  facet normal 1 0 0
    outer loop
      vertex 65.6 52 0
      vertex 65.6 44 1.5
      vertex 65.6 44 0
    endloop
  endfacet
  facet normal -1 0 0
    outer loop
      vertex 67.4 44 0
      vertex 67.4 52 1.5
      vertex 67.4 52 0
    endloop
  endfacet
  facet normal -1 -0 0
    outer loop
      vertex 67.4 52 1.5
      vertex 67.4 44 0
      vertex 67.4 44 1.5
    endloop
  endfacet
  facet normal 0 -1 0
    outer loop
      vertex 65.6 52 0
      vertex 67.4 52 1.5
      vertex 65.6 52 1.5
    endloop
  endfacet
  facet normal 0 -1 -0
    outer loop
      vertex 67.4 52 1.5
      vertex 65.6 52 0
      vertex 67.4 52 0
    endloop
  endfacet
  facet normal 0 1 -0
    outer loop
      vertex 67.4 44 0
      vertex 65.6 44 1.5
      vertex 67.4 44 1.5
    endloop
  endfacet
  facet normal 0 1 0
    outer loop
      vertex 65.6 44 1.5
      vertex 67.4 44 0
      vertex 65.6 44 0
    endloop
  endfacet
  facet normal 1 -0 0
    outer loop
      vertex 65.6 58 1.5
      vertex 65.6 66 0
      vertex 65.6 66 1.5
    endloop
  endfacet
  facet normal 1 0 0
    outer loop
      vertex 65.6 66 0
      vertex 65.6 58 1.5
      vertex 65.6 58 0
    endloop
  endfacet
  facet normal -1 0 0
    outer loop
      vertex 67.4 58 0
      vertex 67.4 66 1.5
      vertex 67.4 66 0
    endloop
  endfacet
  facet normal -1 -0 0
    outer loop
      vertex 67.4 66 1.5
      vertex 67.4 58 0
      vertex 67.4 58 1.5
    endloop
  endfacet
  facet normal 0 -1 0
    outer loop
      vertex 65.6 66 0
      vertex 67.4 66 1.5
      vertex 65.6 66 1.5
    endloop
  endfacet
  facet normal 0 -1 -0
    outer loop
      vertex 67.4 66 1.5
      vertex 65.6 66 0
      vertex 67.4 66 0
    endloop
  endfacet
  facet normal 0 1 -0
    outer loop
      vertex 67.4 58 0
      vertex 65.6 58 1.5
      vertex 67.4 58 1.5
    endloop
  endfacet
  facet normal 0 1 0
    outer loop
      vertex 65.6 58 1.5
      vertex 67.4 58 0
      vertex 65.6 58 0
    endloop
  endfacet
endsolid OpenSCAD_Model
