G04 #@! TF.GenerationSoftware,KiCad,Pcbnew,(5.0.0-rc2-178-g3c7b91b96)*
G04 #@! TF.CreationDate,2018-10-30T10:49:57+01:00*
G04 #@! TF.ProjectId,pcb4,706362342E6B696361645F7063620000,1*
G04 #@! TF.SameCoordinates,Original*
G04 #@! TF.FileFunction,Copper,L4,Bot,Signal*
G04 #@! TF.FilePolarity,Positive*
%FSLAX46Y46*%
G04 Gerber Fmt 4.6, Leading zero omitted, Abs format (unit mm)*
G04 Created by KiCad (PCBNEW (5.0.0-rc2-178-g3c7b91b96)) date 10/30/18 10:49:57*
%MOMM*%
%LPD*%
G01*
G04 APERTURE LIST*
G04 #@! TA.AperFunction,SMDPad,CuDef*
%ADD10R,1.200000X0.600000*%
G04 #@! TD*
G04 #@! TA.AperFunction,SMDPad,CuDef*
%ADD11R,0.600000X1.200000*%
G04 #@! TD*
G04 #@! TA.AperFunction,ComponentPad*
%ADD12O,1.700000X1.700000*%
G04 #@! TD*
G04 #@! TA.AperFunction,ComponentPad*
%ADD13R,1.700000X1.700000*%
G04 #@! TD*
G04 #@! TA.AperFunction,Conductor*
%ADD14C,0.100000*%
G04 #@! TD*
G04 #@! TA.AperFunction,SMDPad,CuDef*
%ADD15C,0.950000*%
G04 #@! TD*
G04 #@! TA.AperFunction,SMDPad,CuDef*
%ADD16R,2.600000X1.600000*%
G04 #@! TD*
G04 #@! TA.AperFunction,SMDPad,CuDef*
%ADD17R,1.800000X1.750000*%
G04 #@! TD*
G04 #@! TA.AperFunction,ComponentPad*
%ADD18R,1.800000X1.800000*%
G04 #@! TD*
G04 #@! TA.AperFunction,ComponentPad*
%ADD19C,1.800000*%
G04 #@! TD*
G04 #@! TA.AperFunction,ViaPad*
%ADD20C,0.800000*%
G04 #@! TD*
G04 #@! TA.AperFunction,Conductor*
%ADD21C,0.250000*%
G04 #@! TD*
G04 #@! TA.AperFunction,Conductor*
%ADD22C,0.400000*%
G04 #@! TD*
G04 APERTURE END LIST*
D10*
G04 #@! TO.P,U2,1*
G04 #@! TO.N,+3V3*
X103380000Y-94580000D03*
G04 #@! TO.P,U2,2*
G04 #@! TO.N,Net-(C7-Pad1)*
X103380000Y-95380000D03*
G04 #@! TO.P,U2,3*
G04 #@! TO.N,Net-(C8-Pad1)*
X103380000Y-96180000D03*
G04 #@! TO.P,U2,4*
G04 #@! TO.N,/NRST*
X103380000Y-96980000D03*
G04 #@! TO.P,U2,5*
G04 #@! TO.N,Net-(C5-Pad2)*
X103380000Y-97780000D03*
G04 #@! TO.P,U2,6*
G04 #@! TO.N,/EINK_DC*
X103380000Y-98580000D03*
G04 #@! TO.P,U2,7*
G04 #@! TO.N,/EINK_CS*
X103380000Y-99380000D03*
G04 #@! TO.P,U2,8*
G04 #@! TO.N,/VCPTX*
X103380000Y-100180000D03*
D11*
G04 #@! TO.P,U2,9*
G04 #@! TO.N,/ADC_CS*
X101930000Y-101630000D03*
G04 #@! TO.P,U2,10*
G04 #@! TO.N,/EINK_RST*
X101130000Y-101630000D03*
G04 #@! TO.P,U2,11*
G04 #@! TO.N,/ADC_CLK*
X100330000Y-101630000D03*
G04 #@! TO.P,U2,12*
G04 #@! TO.N,/ADC_DIN*
X99530000Y-101630000D03*
G04 #@! TO.P,U2,13*
G04 #@! TO.N,/EINK_DOUT*
X98730000Y-101630000D03*
G04 #@! TO.P,U2,14*
G04 #@! TO.N,Net-(U2-Pad14)*
X97930000Y-101630000D03*
G04 #@! TO.P,U2,15*
G04 #@! TO.N,Net-(U2-Pad15)*
X97130000Y-101630000D03*
G04 #@! TO.P,U2,16*
G04 #@! TO.N,GNDD*
X96330000Y-101630000D03*
D10*
G04 #@! TO.P,U2,17*
G04 #@! TO.N,+3V3*
X94880000Y-100180000D03*
G04 #@! TO.P,U2,18*
G04 #@! TO.N,/EINK_BUSY*
X94880000Y-99380000D03*
G04 #@! TO.P,U2,19*
G04 #@! TO.N,Net-(U2-Pad19)*
X94880000Y-98580000D03*
G04 #@! TO.P,U2,20*
G04 #@! TO.N,Net-(U2-Pad20)*
X94880000Y-97780000D03*
G04 #@! TO.P,U2,21*
G04 #@! TO.N,Net-(U2-Pad21)*
X94880000Y-96980000D03*
G04 #@! TO.P,U2,22*
G04 #@! TO.N,Net-(U2-Pad22)*
X94880000Y-96180000D03*
G04 #@! TO.P,U2,23*
G04 #@! TO.N,/SWDIO*
X94880000Y-95380000D03*
G04 #@! TO.P,U2,24*
G04 #@! TO.N,/SWCLK*
X94880000Y-94580000D03*
D11*
G04 #@! TO.P,U2,25*
G04 #@! TO.N,/VCPRX*
X96330000Y-93130000D03*
G04 #@! TO.P,U2,26*
G04 #@! TO.N,Net-(U2-Pad26)*
X97130000Y-93130000D03*
G04 #@! TO.P,U2,27*
G04 #@! TO.N,Net-(U2-Pad27)*
X97930000Y-93130000D03*
G04 #@! TO.P,U2,28*
G04 #@! TO.N,Net-(U2-Pad28)*
X98730000Y-93130000D03*
G04 #@! TO.P,U2,29*
G04 #@! TO.N,/PB6*
X99530000Y-93130000D03*
G04 #@! TO.P,U2,30*
G04 #@! TO.N,/PB7*
X100330000Y-93130000D03*
G04 #@! TO.P,U2,31*
G04 #@! TO.N,Net-(R1-Pad2)*
X101130000Y-93130000D03*
G04 #@! TO.P,U2,32*
G04 #@! TO.N,GNDD*
X101930000Y-93130000D03*
G04 #@! TD*
D12*
G04 #@! TO.P,J7,4*
G04 #@! TO.N,GNDD*
X78105000Y-93580000D03*
G04 #@! TO.P,J7,3*
G04 #@! TO.N,Net-(J7-Pad3)*
X80645000Y-93580000D03*
G04 #@! TO.P,J7,2*
G04 #@! TO.N,GNDD*
X83185000Y-93580000D03*
D13*
G04 #@! TO.P,J7,1*
G04 #@! TO.N,Net-(J7-Pad1)*
X85725000Y-93580000D03*
G04 #@! TD*
G04 #@! TO.P,J4,1*
G04 #@! TO.N,+3V3*
X73660000Y-100470000D03*
D12*
G04 #@! TO.P,J4,2*
G04 #@! TO.N,/SWCLK*
X76200000Y-100470000D03*
G04 #@! TO.P,J4,3*
G04 #@! TO.N,GNDD*
X78740000Y-100470000D03*
G04 #@! TO.P,J4,4*
G04 #@! TO.N,/SWDIO*
X81280000Y-100470000D03*
G04 #@! TD*
D14*
G04 #@! TO.N,+5V*
G04 #@! TO.C,R17*
G36*
X93415779Y-92506144D02*
X93438834Y-92509563D01*
X93461443Y-92515227D01*
X93483387Y-92523079D01*
X93504457Y-92533044D01*
X93524448Y-92545026D01*
X93543168Y-92558910D01*
X93560438Y-92574562D01*
X93576090Y-92591832D01*
X93589974Y-92610552D01*
X93601956Y-92630543D01*
X93611921Y-92651613D01*
X93619773Y-92673557D01*
X93625437Y-92696166D01*
X93628856Y-92719221D01*
X93630000Y-92742500D01*
X93630000Y-93217500D01*
X93628856Y-93240779D01*
X93625437Y-93263834D01*
X93619773Y-93286443D01*
X93611921Y-93308387D01*
X93601956Y-93329457D01*
X93589974Y-93349448D01*
X93576090Y-93368168D01*
X93560438Y-93385438D01*
X93543168Y-93401090D01*
X93524448Y-93414974D01*
X93504457Y-93426956D01*
X93483387Y-93436921D01*
X93461443Y-93444773D01*
X93438834Y-93450437D01*
X93415779Y-93453856D01*
X93392500Y-93455000D01*
X92817500Y-93455000D01*
X92794221Y-93453856D01*
X92771166Y-93450437D01*
X92748557Y-93444773D01*
X92726613Y-93436921D01*
X92705543Y-93426956D01*
X92685552Y-93414974D01*
X92666832Y-93401090D01*
X92649562Y-93385438D01*
X92633910Y-93368168D01*
X92620026Y-93349448D01*
X92608044Y-93329457D01*
X92598079Y-93308387D01*
X92590227Y-93286443D01*
X92584563Y-93263834D01*
X92581144Y-93240779D01*
X92580000Y-93217500D01*
X92580000Y-92742500D01*
X92581144Y-92719221D01*
X92584563Y-92696166D01*
X92590227Y-92673557D01*
X92598079Y-92651613D01*
X92608044Y-92630543D01*
X92620026Y-92610552D01*
X92633910Y-92591832D01*
X92649562Y-92574562D01*
X92666832Y-92558910D01*
X92685552Y-92545026D01*
X92705543Y-92533044D01*
X92726613Y-92523079D01*
X92748557Y-92515227D01*
X92771166Y-92509563D01*
X92794221Y-92506144D01*
X92817500Y-92505000D01*
X93392500Y-92505000D01*
X93415779Y-92506144D01*
X93415779Y-92506144D01*
G37*
D15*
G04 #@! TD*
G04 #@! TO.P,R17,2*
G04 #@! TO.N,+5V*
X93105000Y-92980000D03*
D14*
G04 #@! TO.N,Net-(R17-Pad1)*
G04 #@! TO.C,R17*
G36*
X91665779Y-92506144D02*
X91688834Y-92509563D01*
X91711443Y-92515227D01*
X91733387Y-92523079D01*
X91754457Y-92533044D01*
X91774448Y-92545026D01*
X91793168Y-92558910D01*
X91810438Y-92574562D01*
X91826090Y-92591832D01*
X91839974Y-92610552D01*
X91851956Y-92630543D01*
X91861921Y-92651613D01*
X91869773Y-92673557D01*
X91875437Y-92696166D01*
X91878856Y-92719221D01*
X91880000Y-92742500D01*
X91880000Y-93217500D01*
X91878856Y-93240779D01*
X91875437Y-93263834D01*
X91869773Y-93286443D01*
X91861921Y-93308387D01*
X91851956Y-93329457D01*
X91839974Y-93349448D01*
X91826090Y-93368168D01*
X91810438Y-93385438D01*
X91793168Y-93401090D01*
X91774448Y-93414974D01*
X91754457Y-93426956D01*
X91733387Y-93436921D01*
X91711443Y-93444773D01*
X91688834Y-93450437D01*
X91665779Y-93453856D01*
X91642500Y-93455000D01*
X91067500Y-93455000D01*
X91044221Y-93453856D01*
X91021166Y-93450437D01*
X90998557Y-93444773D01*
X90976613Y-93436921D01*
X90955543Y-93426956D01*
X90935552Y-93414974D01*
X90916832Y-93401090D01*
X90899562Y-93385438D01*
X90883910Y-93368168D01*
X90870026Y-93349448D01*
X90858044Y-93329457D01*
X90848079Y-93308387D01*
X90840227Y-93286443D01*
X90834563Y-93263834D01*
X90831144Y-93240779D01*
X90830000Y-93217500D01*
X90830000Y-92742500D01*
X90831144Y-92719221D01*
X90834563Y-92696166D01*
X90840227Y-92673557D01*
X90848079Y-92651613D01*
X90858044Y-92630543D01*
X90870026Y-92610552D01*
X90883910Y-92591832D01*
X90899562Y-92574562D01*
X90916832Y-92558910D01*
X90935552Y-92545026D01*
X90955543Y-92533044D01*
X90976613Y-92523079D01*
X90998557Y-92515227D01*
X91021166Y-92509563D01*
X91044221Y-92506144D01*
X91067500Y-92505000D01*
X91642500Y-92505000D01*
X91665779Y-92506144D01*
X91665779Y-92506144D01*
G37*
D15*
G04 #@! TD*
G04 #@! TO.P,R17,1*
G04 #@! TO.N,Net-(R17-Pad1)*
X91355000Y-92980000D03*
D14*
G04 #@! TO.N,GNDD*
G04 #@! TO.C,R18*
G36*
X89465779Y-94506144D02*
X89488834Y-94509563D01*
X89511443Y-94515227D01*
X89533387Y-94523079D01*
X89554457Y-94533044D01*
X89574448Y-94545026D01*
X89593168Y-94558910D01*
X89610438Y-94574562D01*
X89626090Y-94591832D01*
X89639974Y-94610552D01*
X89651956Y-94630543D01*
X89661921Y-94651613D01*
X89669773Y-94673557D01*
X89675437Y-94696166D01*
X89678856Y-94719221D01*
X89680000Y-94742500D01*
X89680000Y-95217500D01*
X89678856Y-95240779D01*
X89675437Y-95263834D01*
X89669773Y-95286443D01*
X89661921Y-95308387D01*
X89651956Y-95329457D01*
X89639974Y-95349448D01*
X89626090Y-95368168D01*
X89610438Y-95385438D01*
X89593168Y-95401090D01*
X89574448Y-95414974D01*
X89554457Y-95426956D01*
X89533387Y-95436921D01*
X89511443Y-95444773D01*
X89488834Y-95450437D01*
X89465779Y-95453856D01*
X89442500Y-95455000D01*
X88867500Y-95455000D01*
X88844221Y-95453856D01*
X88821166Y-95450437D01*
X88798557Y-95444773D01*
X88776613Y-95436921D01*
X88755543Y-95426956D01*
X88735552Y-95414974D01*
X88716832Y-95401090D01*
X88699562Y-95385438D01*
X88683910Y-95368168D01*
X88670026Y-95349448D01*
X88658044Y-95329457D01*
X88648079Y-95308387D01*
X88640227Y-95286443D01*
X88634563Y-95263834D01*
X88631144Y-95240779D01*
X88630000Y-95217500D01*
X88630000Y-94742500D01*
X88631144Y-94719221D01*
X88634563Y-94696166D01*
X88640227Y-94673557D01*
X88648079Y-94651613D01*
X88658044Y-94630543D01*
X88670026Y-94610552D01*
X88683910Y-94591832D01*
X88699562Y-94574562D01*
X88716832Y-94558910D01*
X88735552Y-94545026D01*
X88755543Y-94533044D01*
X88776613Y-94523079D01*
X88798557Y-94515227D01*
X88821166Y-94509563D01*
X88844221Y-94506144D01*
X88867500Y-94505000D01*
X89442500Y-94505000D01*
X89465779Y-94506144D01*
X89465779Y-94506144D01*
G37*
D15*
G04 #@! TD*
G04 #@! TO.P,R18,1*
G04 #@! TO.N,GNDD*
X89155000Y-94980000D03*
D14*
G04 #@! TO.N,Net-(R17-Pad1)*
G04 #@! TO.C,R18*
G36*
X91215779Y-94506144D02*
X91238834Y-94509563D01*
X91261443Y-94515227D01*
X91283387Y-94523079D01*
X91304457Y-94533044D01*
X91324448Y-94545026D01*
X91343168Y-94558910D01*
X91360438Y-94574562D01*
X91376090Y-94591832D01*
X91389974Y-94610552D01*
X91401956Y-94630543D01*
X91411921Y-94651613D01*
X91419773Y-94673557D01*
X91425437Y-94696166D01*
X91428856Y-94719221D01*
X91430000Y-94742500D01*
X91430000Y-95217500D01*
X91428856Y-95240779D01*
X91425437Y-95263834D01*
X91419773Y-95286443D01*
X91411921Y-95308387D01*
X91401956Y-95329457D01*
X91389974Y-95349448D01*
X91376090Y-95368168D01*
X91360438Y-95385438D01*
X91343168Y-95401090D01*
X91324448Y-95414974D01*
X91304457Y-95426956D01*
X91283387Y-95436921D01*
X91261443Y-95444773D01*
X91238834Y-95450437D01*
X91215779Y-95453856D01*
X91192500Y-95455000D01*
X90617500Y-95455000D01*
X90594221Y-95453856D01*
X90571166Y-95450437D01*
X90548557Y-95444773D01*
X90526613Y-95436921D01*
X90505543Y-95426956D01*
X90485552Y-95414974D01*
X90466832Y-95401090D01*
X90449562Y-95385438D01*
X90433910Y-95368168D01*
X90420026Y-95349448D01*
X90408044Y-95329457D01*
X90398079Y-95308387D01*
X90390227Y-95286443D01*
X90384563Y-95263834D01*
X90381144Y-95240779D01*
X90380000Y-95217500D01*
X90380000Y-94742500D01*
X90381144Y-94719221D01*
X90384563Y-94696166D01*
X90390227Y-94673557D01*
X90398079Y-94651613D01*
X90408044Y-94630543D01*
X90420026Y-94610552D01*
X90433910Y-94591832D01*
X90449562Y-94574562D01*
X90466832Y-94558910D01*
X90485552Y-94545026D01*
X90505543Y-94533044D01*
X90526613Y-94523079D01*
X90548557Y-94515227D01*
X90571166Y-94509563D01*
X90594221Y-94506144D01*
X90617500Y-94505000D01*
X91192500Y-94505000D01*
X91215779Y-94506144D01*
X91215779Y-94506144D01*
G37*
D15*
G04 #@! TD*
G04 #@! TO.P,R18,2*
G04 #@! TO.N,Net-(R17-Pad1)*
X90905000Y-94980000D03*
D13*
G04 #@! TO.P,J1,1*
G04 #@! TO.N,GNDA*
X64135000Y-85660000D03*
D12*
G04 #@! TO.P,J1,2*
G04 #@! TO.N,+4V*
X64135000Y-88200000D03*
G04 #@! TD*
G04 #@! TO.P,J2,2*
G04 #@! TO.N,+5V*
X64135000Y-93280000D03*
D13*
G04 #@! TO.P,J2,1*
G04 #@! TO.N,GNDD*
X64135000Y-90740000D03*
G04 #@! TD*
G04 #@! TO.P,J5,1*
G04 #@! TO.N,/VCPRX*
X86360000Y-100470000D03*
D12*
G04 #@! TO.P,J5,2*
G04 #@! TO.N,/VCPTX*
X83820000Y-100470000D03*
G04 #@! TD*
D13*
G04 #@! TO.P,J6,1*
G04 #@! TO.N,/PB7*
X110230000Y-91680000D03*
D12*
G04 #@! TO.P,J6,2*
G04 #@! TO.N,/PB6*
X110230000Y-89140000D03*
G04 #@! TO.P,J6,3*
G04 #@! TO.N,GNDD*
X110230000Y-86600000D03*
G04 #@! TO.P,J6,4*
G04 #@! TO.N,/NRST*
X110230000Y-84060000D03*
G04 #@! TD*
D13*
G04 #@! TO.P,J3,1*
G04 #@! TO.N,/EINK_BUSY*
X73630000Y-97680000D03*
D12*
G04 #@! TO.P,J3,2*
G04 #@! TO.N,/EINK_RST*
X76170000Y-97680000D03*
G04 #@! TO.P,J3,3*
G04 #@! TO.N,/EINK_DC*
X78710000Y-97680000D03*
G04 #@! TO.P,J3,4*
G04 #@! TO.N,/EINK_CS*
X81250000Y-97680000D03*
G04 #@! TO.P,J3,5*
G04 #@! TO.N,/ADC_CLK*
X83790000Y-97680000D03*
G04 #@! TO.P,J3,6*
G04 #@! TO.N,/EINK_DOUT*
X86330000Y-97680000D03*
G04 #@! TO.P,J3,7*
G04 #@! TO.N,GNDD*
X88870000Y-97680000D03*
G04 #@! TO.P,J3,8*
G04 #@! TO.N,+3V3*
X91410000Y-97680000D03*
G04 #@! TD*
D16*
G04 #@! TO.P,C2,2*
G04 #@! TO.N,GNDD*
X64930000Y-99480000D03*
G04 #@! TO.P,C2,1*
G04 #@! TO.N,+3V3*
X68530000Y-99480000D03*
G04 #@! TD*
G04 #@! TO.P,C1,1*
G04 #@! TO.N,+5V*
X67930000Y-94680000D03*
G04 #@! TO.P,C1,2*
G04 #@! TO.N,GNDD*
X71530000Y-94680000D03*
G04 #@! TD*
D14*
G04 #@! TO.N,GNDA*
G04 #@! TO.C,C10*
G36*
X70690779Y-84261144D02*
X70713834Y-84264563D01*
X70736443Y-84270227D01*
X70758387Y-84278079D01*
X70779457Y-84288044D01*
X70799448Y-84300026D01*
X70818168Y-84313910D01*
X70835438Y-84329562D01*
X70851090Y-84346832D01*
X70864974Y-84365552D01*
X70876956Y-84385543D01*
X70886921Y-84406613D01*
X70894773Y-84428557D01*
X70900437Y-84451166D01*
X70903856Y-84474221D01*
X70905000Y-84497500D01*
X70905000Y-85072500D01*
X70903856Y-85095779D01*
X70900437Y-85118834D01*
X70894773Y-85141443D01*
X70886921Y-85163387D01*
X70876956Y-85184457D01*
X70864974Y-85204448D01*
X70851090Y-85223168D01*
X70835438Y-85240438D01*
X70818168Y-85256090D01*
X70799448Y-85269974D01*
X70779457Y-85281956D01*
X70758387Y-85291921D01*
X70736443Y-85299773D01*
X70713834Y-85305437D01*
X70690779Y-85308856D01*
X70667500Y-85310000D01*
X70192500Y-85310000D01*
X70169221Y-85308856D01*
X70146166Y-85305437D01*
X70123557Y-85299773D01*
X70101613Y-85291921D01*
X70080543Y-85281956D01*
X70060552Y-85269974D01*
X70041832Y-85256090D01*
X70024562Y-85240438D01*
X70008910Y-85223168D01*
X69995026Y-85204448D01*
X69983044Y-85184457D01*
X69973079Y-85163387D01*
X69965227Y-85141443D01*
X69959563Y-85118834D01*
X69956144Y-85095779D01*
X69955000Y-85072500D01*
X69955000Y-84497500D01*
X69956144Y-84474221D01*
X69959563Y-84451166D01*
X69965227Y-84428557D01*
X69973079Y-84406613D01*
X69983044Y-84385543D01*
X69995026Y-84365552D01*
X70008910Y-84346832D01*
X70024562Y-84329562D01*
X70041832Y-84313910D01*
X70060552Y-84300026D01*
X70080543Y-84288044D01*
X70101613Y-84278079D01*
X70123557Y-84270227D01*
X70146166Y-84264563D01*
X70169221Y-84261144D01*
X70192500Y-84260000D01*
X70667500Y-84260000D01*
X70690779Y-84261144D01*
X70690779Y-84261144D01*
G37*
D15*
G04 #@! TD*
G04 #@! TO.P,C10,2*
G04 #@! TO.N,GNDA*
X70430000Y-84785000D03*
D14*
G04 #@! TO.N,+2V5*
G04 #@! TO.C,C10*
G36*
X70690779Y-86011144D02*
X70713834Y-86014563D01*
X70736443Y-86020227D01*
X70758387Y-86028079D01*
X70779457Y-86038044D01*
X70799448Y-86050026D01*
X70818168Y-86063910D01*
X70835438Y-86079562D01*
X70851090Y-86096832D01*
X70864974Y-86115552D01*
X70876956Y-86135543D01*
X70886921Y-86156613D01*
X70894773Y-86178557D01*
X70900437Y-86201166D01*
X70903856Y-86224221D01*
X70905000Y-86247500D01*
X70905000Y-86822500D01*
X70903856Y-86845779D01*
X70900437Y-86868834D01*
X70894773Y-86891443D01*
X70886921Y-86913387D01*
X70876956Y-86934457D01*
X70864974Y-86954448D01*
X70851090Y-86973168D01*
X70835438Y-86990438D01*
X70818168Y-87006090D01*
X70799448Y-87019974D01*
X70779457Y-87031956D01*
X70758387Y-87041921D01*
X70736443Y-87049773D01*
X70713834Y-87055437D01*
X70690779Y-87058856D01*
X70667500Y-87060000D01*
X70192500Y-87060000D01*
X70169221Y-87058856D01*
X70146166Y-87055437D01*
X70123557Y-87049773D01*
X70101613Y-87041921D01*
X70080543Y-87031956D01*
X70060552Y-87019974D01*
X70041832Y-87006090D01*
X70024562Y-86990438D01*
X70008910Y-86973168D01*
X69995026Y-86954448D01*
X69983044Y-86934457D01*
X69973079Y-86913387D01*
X69965227Y-86891443D01*
X69959563Y-86868834D01*
X69956144Y-86845779D01*
X69955000Y-86822500D01*
X69955000Y-86247500D01*
X69956144Y-86224221D01*
X69959563Y-86201166D01*
X69965227Y-86178557D01*
X69973079Y-86156613D01*
X69983044Y-86135543D01*
X69995026Y-86115552D01*
X70008910Y-86096832D01*
X70024562Y-86079562D01*
X70041832Y-86063910D01*
X70060552Y-86050026D01*
X70080543Y-86038044D01*
X70101613Y-86028079D01*
X70123557Y-86020227D01*
X70146166Y-86014563D01*
X70169221Y-86011144D01*
X70192500Y-86010000D01*
X70667500Y-86010000D01*
X70690779Y-86011144D01*
X70690779Y-86011144D01*
G37*
D15*
G04 #@! TD*
G04 #@! TO.P,C10,1*
G04 #@! TO.N,+2V5*
X70430000Y-86535000D03*
D14*
G04 #@! TO.N,GNDD*
G04 #@! TO.C,C8*
G36*
X111415779Y-97806144D02*
X111438834Y-97809563D01*
X111461443Y-97815227D01*
X111483387Y-97823079D01*
X111504457Y-97833044D01*
X111524448Y-97845026D01*
X111543168Y-97858910D01*
X111560438Y-97874562D01*
X111576090Y-97891832D01*
X111589974Y-97910552D01*
X111601956Y-97930543D01*
X111611921Y-97951613D01*
X111619773Y-97973557D01*
X111625437Y-97996166D01*
X111628856Y-98019221D01*
X111630000Y-98042500D01*
X111630000Y-98517500D01*
X111628856Y-98540779D01*
X111625437Y-98563834D01*
X111619773Y-98586443D01*
X111611921Y-98608387D01*
X111601956Y-98629457D01*
X111589974Y-98649448D01*
X111576090Y-98668168D01*
X111560438Y-98685438D01*
X111543168Y-98701090D01*
X111524448Y-98714974D01*
X111504457Y-98726956D01*
X111483387Y-98736921D01*
X111461443Y-98744773D01*
X111438834Y-98750437D01*
X111415779Y-98753856D01*
X111392500Y-98755000D01*
X110817500Y-98755000D01*
X110794221Y-98753856D01*
X110771166Y-98750437D01*
X110748557Y-98744773D01*
X110726613Y-98736921D01*
X110705543Y-98726956D01*
X110685552Y-98714974D01*
X110666832Y-98701090D01*
X110649562Y-98685438D01*
X110633910Y-98668168D01*
X110620026Y-98649448D01*
X110608044Y-98629457D01*
X110598079Y-98608387D01*
X110590227Y-98586443D01*
X110584563Y-98563834D01*
X110581144Y-98540779D01*
X110580000Y-98517500D01*
X110580000Y-98042500D01*
X110581144Y-98019221D01*
X110584563Y-97996166D01*
X110590227Y-97973557D01*
X110598079Y-97951613D01*
X110608044Y-97930543D01*
X110620026Y-97910552D01*
X110633910Y-97891832D01*
X110649562Y-97874562D01*
X110666832Y-97858910D01*
X110685552Y-97845026D01*
X110705543Y-97833044D01*
X110726613Y-97823079D01*
X110748557Y-97815227D01*
X110771166Y-97809563D01*
X110794221Y-97806144D01*
X110817500Y-97805000D01*
X111392500Y-97805000D01*
X111415779Y-97806144D01*
X111415779Y-97806144D01*
G37*
D15*
G04 #@! TD*
G04 #@! TO.P,C8,2*
G04 #@! TO.N,GNDD*
X111105000Y-98280000D03*
D14*
G04 #@! TO.N,Net-(C8-Pad1)*
G04 #@! TO.C,C8*
G36*
X109665779Y-97806144D02*
X109688834Y-97809563D01*
X109711443Y-97815227D01*
X109733387Y-97823079D01*
X109754457Y-97833044D01*
X109774448Y-97845026D01*
X109793168Y-97858910D01*
X109810438Y-97874562D01*
X109826090Y-97891832D01*
X109839974Y-97910552D01*
X109851956Y-97930543D01*
X109861921Y-97951613D01*
X109869773Y-97973557D01*
X109875437Y-97996166D01*
X109878856Y-98019221D01*
X109880000Y-98042500D01*
X109880000Y-98517500D01*
X109878856Y-98540779D01*
X109875437Y-98563834D01*
X109869773Y-98586443D01*
X109861921Y-98608387D01*
X109851956Y-98629457D01*
X109839974Y-98649448D01*
X109826090Y-98668168D01*
X109810438Y-98685438D01*
X109793168Y-98701090D01*
X109774448Y-98714974D01*
X109754457Y-98726956D01*
X109733387Y-98736921D01*
X109711443Y-98744773D01*
X109688834Y-98750437D01*
X109665779Y-98753856D01*
X109642500Y-98755000D01*
X109067500Y-98755000D01*
X109044221Y-98753856D01*
X109021166Y-98750437D01*
X108998557Y-98744773D01*
X108976613Y-98736921D01*
X108955543Y-98726956D01*
X108935552Y-98714974D01*
X108916832Y-98701090D01*
X108899562Y-98685438D01*
X108883910Y-98668168D01*
X108870026Y-98649448D01*
X108858044Y-98629457D01*
X108848079Y-98608387D01*
X108840227Y-98586443D01*
X108834563Y-98563834D01*
X108831144Y-98540779D01*
X108830000Y-98517500D01*
X108830000Y-98042500D01*
X108831144Y-98019221D01*
X108834563Y-97996166D01*
X108840227Y-97973557D01*
X108848079Y-97951613D01*
X108858044Y-97930543D01*
X108870026Y-97910552D01*
X108883910Y-97891832D01*
X108899562Y-97874562D01*
X108916832Y-97858910D01*
X108935552Y-97845026D01*
X108955543Y-97833044D01*
X108976613Y-97823079D01*
X108998557Y-97815227D01*
X109021166Y-97809563D01*
X109044221Y-97806144D01*
X109067500Y-97805000D01*
X109642500Y-97805000D01*
X109665779Y-97806144D01*
X109665779Y-97806144D01*
G37*
D15*
G04 #@! TD*
G04 #@! TO.P,C8,1*
G04 #@! TO.N,Net-(C8-Pad1)*
X109355000Y-98280000D03*
D14*
G04 #@! TO.N,Net-(C7-Pad1)*
G04 #@! TO.C,C7*
G36*
X109665779Y-94806144D02*
X109688834Y-94809563D01*
X109711443Y-94815227D01*
X109733387Y-94823079D01*
X109754457Y-94833044D01*
X109774448Y-94845026D01*
X109793168Y-94858910D01*
X109810438Y-94874562D01*
X109826090Y-94891832D01*
X109839974Y-94910552D01*
X109851956Y-94930543D01*
X109861921Y-94951613D01*
X109869773Y-94973557D01*
X109875437Y-94996166D01*
X109878856Y-95019221D01*
X109880000Y-95042500D01*
X109880000Y-95517500D01*
X109878856Y-95540779D01*
X109875437Y-95563834D01*
X109869773Y-95586443D01*
X109861921Y-95608387D01*
X109851956Y-95629457D01*
X109839974Y-95649448D01*
X109826090Y-95668168D01*
X109810438Y-95685438D01*
X109793168Y-95701090D01*
X109774448Y-95714974D01*
X109754457Y-95726956D01*
X109733387Y-95736921D01*
X109711443Y-95744773D01*
X109688834Y-95750437D01*
X109665779Y-95753856D01*
X109642500Y-95755000D01*
X109067500Y-95755000D01*
X109044221Y-95753856D01*
X109021166Y-95750437D01*
X108998557Y-95744773D01*
X108976613Y-95736921D01*
X108955543Y-95726956D01*
X108935552Y-95714974D01*
X108916832Y-95701090D01*
X108899562Y-95685438D01*
X108883910Y-95668168D01*
X108870026Y-95649448D01*
X108858044Y-95629457D01*
X108848079Y-95608387D01*
X108840227Y-95586443D01*
X108834563Y-95563834D01*
X108831144Y-95540779D01*
X108830000Y-95517500D01*
X108830000Y-95042500D01*
X108831144Y-95019221D01*
X108834563Y-94996166D01*
X108840227Y-94973557D01*
X108848079Y-94951613D01*
X108858044Y-94930543D01*
X108870026Y-94910552D01*
X108883910Y-94891832D01*
X108899562Y-94874562D01*
X108916832Y-94858910D01*
X108935552Y-94845026D01*
X108955543Y-94833044D01*
X108976613Y-94823079D01*
X108998557Y-94815227D01*
X109021166Y-94809563D01*
X109044221Y-94806144D01*
X109067500Y-94805000D01*
X109642500Y-94805000D01*
X109665779Y-94806144D01*
X109665779Y-94806144D01*
G37*
D15*
G04 #@! TD*
G04 #@! TO.P,C7,1*
G04 #@! TO.N,Net-(C7-Pad1)*
X109355000Y-95280000D03*
D14*
G04 #@! TO.N,GNDD*
G04 #@! TO.C,C7*
G36*
X111415779Y-94806144D02*
X111438834Y-94809563D01*
X111461443Y-94815227D01*
X111483387Y-94823079D01*
X111504457Y-94833044D01*
X111524448Y-94845026D01*
X111543168Y-94858910D01*
X111560438Y-94874562D01*
X111576090Y-94891832D01*
X111589974Y-94910552D01*
X111601956Y-94930543D01*
X111611921Y-94951613D01*
X111619773Y-94973557D01*
X111625437Y-94996166D01*
X111628856Y-95019221D01*
X111630000Y-95042500D01*
X111630000Y-95517500D01*
X111628856Y-95540779D01*
X111625437Y-95563834D01*
X111619773Y-95586443D01*
X111611921Y-95608387D01*
X111601956Y-95629457D01*
X111589974Y-95649448D01*
X111576090Y-95668168D01*
X111560438Y-95685438D01*
X111543168Y-95701090D01*
X111524448Y-95714974D01*
X111504457Y-95726956D01*
X111483387Y-95736921D01*
X111461443Y-95744773D01*
X111438834Y-95750437D01*
X111415779Y-95753856D01*
X111392500Y-95755000D01*
X110817500Y-95755000D01*
X110794221Y-95753856D01*
X110771166Y-95750437D01*
X110748557Y-95744773D01*
X110726613Y-95736921D01*
X110705543Y-95726956D01*
X110685552Y-95714974D01*
X110666832Y-95701090D01*
X110649562Y-95685438D01*
X110633910Y-95668168D01*
X110620026Y-95649448D01*
X110608044Y-95629457D01*
X110598079Y-95608387D01*
X110590227Y-95586443D01*
X110584563Y-95563834D01*
X110581144Y-95540779D01*
X110580000Y-95517500D01*
X110580000Y-95042500D01*
X110581144Y-95019221D01*
X110584563Y-94996166D01*
X110590227Y-94973557D01*
X110598079Y-94951613D01*
X110608044Y-94930543D01*
X110620026Y-94910552D01*
X110633910Y-94891832D01*
X110649562Y-94874562D01*
X110666832Y-94858910D01*
X110685552Y-94845026D01*
X110705543Y-94833044D01*
X110726613Y-94823079D01*
X110748557Y-94815227D01*
X110771166Y-94809563D01*
X110794221Y-94806144D01*
X110817500Y-94805000D01*
X111392500Y-94805000D01*
X111415779Y-94806144D01*
X111415779Y-94806144D01*
G37*
D15*
G04 #@! TD*
G04 #@! TO.P,C7,2*
G04 #@! TO.N,GNDD*
X111105000Y-95280000D03*
D14*
G04 #@! TO.N,GNDD*
G04 #@! TO.C,C5*
G36*
X105390779Y-101031144D02*
X105413834Y-101034563D01*
X105436443Y-101040227D01*
X105458387Y-101048079D01*
X105479457Y-101058044D01*
X105499448Y-101070026D01*
X105518168Y-101083910D01*
X105535438Y-101099562D01*
X105551090Y-101116832D01*
X105564974Y-101135552D01*
X105576956Y-101155543D01*
X105586921Y-101176613D01*
X105594773Y-101198557D01*
X105600437Y-101221166D01*
X105603856Y-101244221D01*
X105605000Y-101267500D01*
X105605000Y-101842500D01*
X105603856Y-101865779D01*
X105600437Y-101888834D01*
X105594773Y-101911443D01*
X105586921Y-101933387D01*
X105576956Y-101954457D01*
X105564974Y-101974448D01*
X105551090Y-101993168D01*
X105535438Y-102010438D01*
X105518168Y-102026090D01*
X105499448Y-102039974D01*
X105479457Y-102051956D01*
X105458387Y-102061921D01*
X105436443Y-102069773D01*
X105413834Y-102075437D01*
X105390779Y-102078856D01*
X105367500Y-102080000D01*
X104892500Y-102080000D01*
X104869221Y-102078856D01*
X104846166Y-102075437D01*
X104823557Y-102069773D01*
X104801613Y-102061921D01*
X104780543Y-102051956D01*
X104760552Y-102039974D01*
X104741832Y-102026090D01*
X104724562Y-102010438D01*
X104708910Y-101993168D01*
X104695026Y-101974448D01*
X104683044Y-101954457D01*
X104673079Y-101933387D01*
X104665227Y-101911443D01*
X104659563Y-101888834D01*
X104656144Y-101865779D01*
X104655000Y-101842500D01*
X104655000Y-101267500D01*
X104656144Y-101244221D01*
X104659563Y-101221166D01*
X104665227Y-101198557D01*
X104673079Y-101176613D01*
X104683044Y-101155543D01*
X104695026Y-101135552D01*
X104708910Y-101116832D01*
X104724562Y-101099562D01*
X104741832Y-101083910D01*
X104760552Y-101070026D01*
X104780543Y-101058044D01*
X104801613Y-101048079D01*
X104823557Y-101040227D01*
X104846166Y-101034563D01*
X104869221Y-101031144D01*
X104892500Y-101030000D01*
X105367500Y-101030000D01*
X105390779Y-101031144D01*
X105390779Y-101031144D01*
G37*
D15*
G04 #@! TD*
G04 #@! TO.P,C5,1*
G04 #@! TO.N,GNDD*
X105130000Y-101555000D03*
D14*
G04 #@! TO.N,Net-(C5-Pad2)*
G04 #@! TO.C,C5*
G36*
X105390779Y-99281144D02*
X105413834Y-99284563D01*
X105436443Y-99290227D01*
X105458387Y-99298079D01*
X105479457Y-99308044D01*
X105499448Y-99320026D01*
X105518168Y-99333910D01*
X105535438Y-99349562D01*
X105551090Y-99366832D01*
X105564974Y-99385552D01*
X105576956Y-99405543D01*
X105586921Y-99426613D01*
X105594773Y-99448557D01*
X105600437Y-99471166D01*
X105603856Y-99494221D01*
X105605000Y-99517500D01*
X105605000Y-100092500D01*
X105603856Y-100115779D01*
X105600437Y-100138834D01*
X105594773Y-100161443D01*
X105586921Y-100183387D01*
X105576956Y-100204457D01*
X105564974Y-100224448D01*
X105551090Y-100243168D01*
X105535438Y-100260438D01*
X105518168Y-100276090D01*
X105499448Y-100289974D01*
X105479457Y-100301956D01*
X105458387Y-100311921D01*
X105436443Y-100319773D01*
X105413834Y-100325437D01*
X105390779Y-100328856D01*
X105367500Y-100330000D01*
X104892500Y-100330000D01*
X104869221Y-100328856D01*
X104846166Y-100325437D01*
X104823557Y-100319773D01*
X104801613Y-100311921D01*
X104780543Y-100301956D01*
X104760552Y-100289974D01*
X104741832Y-100276090D01*
X104724562Y-100260438D01*
X104708910Y-100243168D01*
X104695026Y-100224448D01*
X104683044Y-100204457D01*
X104673079Y-100183387D01*
X104665227Y-100161443D01*
X104659563Y-100138834D01*
X104656144Y-100115779D01*
X104655000Y-100092500D01*
X104655000Y-99517500D01*
X104656144Y-99494221D01*
X104659563Y-99471166D01*
X104665227Y-99448557D01*
X104673079Y-99426613D01*
X104683044Y-99405543D01*
X104695026Y-99385552D01*
X104708910Y-99366832D01*
X104724562Y-99349562D01*
X104741832Y-99333910D01*
X104760552Y-99320026D01*
X104780543Y-99308044D01*
X104801613Y-99298079D01*
X104823557Y-99290227D01*
X104846166Y-99284563D01*
X104869221Y-99281144D01*
X104892500Y-99280000D01*
X105367500Y-99280000D01*
X105390779Y-99281144D01*
X105390779Y-99281144D01*
G37*
D15*
G04 #@! TD*
G04 #@! TO.P,C5,2*
G04 #@! TO.N,Net-(C5-Pad2)*
X105130000Y-99805000D03*
D14*
G04 #@! TO.N,+3V3*
G04 #@! TO.C,C4*
G36*
X92565779Y-101106144D02*
X92588834Y-101109563D01*
X92611443Y-101115227D01*
X92633387Y-101123079D01*
X92654457Y-101133044D01*
X92674448Y-101145026D01*
X92693168Y-101158910D01*
X92710438Y-101174562D01*
X92726090Y-101191832D01*
X92739974Y-101210552D01*
X92751956Y-101230543D01*
X92761921Y-101251613D01*
X92769773Y-101273557D01*
X92775437Y-101296166D01*
X92778856Y-101319221D01*
X92780000Y-101342500D01*
X92780000Y-101817500D01*
X92778856Y-101840779D01*
X92775437Y-101863834D01*
X92769773Y-101886443D01*
X92761921Y-101908387D01*
X92751956Y-101929457D01*
X92739974Y-101949448D01*
X92726090Y-101968168D01*
X92710438Y-101985438D01*
X92693168Y-102001090D01*
X92674448Y-102014974D01*
X92654457Y-102026956D01*
X92633387Y-102036921D01*
X92611443Y-102044773D01*
X92588834Y-102050437D01*
X92565779Y-102053856D01*
X92542500Y-102055000D01*
X91967500Y-102055000D01*
X91944221Y-102053856D01*
X91921166Y-102050437D01*
X91898557Y-102044773D01*
X91876613Y-102036921D01*
X91855543Y-102026956D01*
X91835552Y-102014974D01*
X91816832Y-102001090D01*
X91799562Y-101985438D01*
X91783910Y-101968168D01*
X91770026Y-101949448D01*
X91758044Y-101929457D01*
X91748079Y-101908387D01*
X91740227Y-101886443D01*
X91734563Y-101863834D01*
X91731144Y-101840779D01*
X91730000Y-101817500D01*
X91730000Y-101342500D01*
X91731144Y-101319221D01*
X91734563Y-101296166D01*
X91740227Y-101273557D01*
X91748079Y-101251613D01*
X91758044Y-101230543D01*
X91770026Y-101210552D01*
X91783910Y-101191832D01*
X91799562Y-101174562D01*
X91816832Y-101158910D01*
X91835552Y-101145026D01*
X91855543Y-101133044D01*
X91876613Y-101123079D01*
X91898557Y-101115227D01*
X91921166Y-101109563D01*
X91944221Y-101106144D01*
X91967500Y-101105000D01*
X92542500Y-101105000D01*
X92565779Y-101106144D01*
X92565779Y-101106144D01*
G37*
D15*
G04 #@! TD*
G04 #@! TO.P,C4,2*
G04 #@! TO.N,+3V3*
X92255000Y-101580000D03*
D14*
G04 #@! TO.N,GNDD*
G04 #@! TO.C,C4*
G36*
X94315779Y-101106144D02*
X94338834Y-101109563D01*
X94361443Y-101115227D01*
X94383387Y-101123079D01*
X94404457Y-101133044D01*
X94424448Y-101145026D01*
X94443168Y-101158910D01*
X94460438Y-101174562D01*
X94476090Y-101191832D01*
X94489974Y-101210552D01*
X94501956Y-101230543D01*
X94511921Y-101251613D01*
X94519773Y-101273557D01*
X94525437Y-101296166D01*
X94528856Y-101319221D01*
X94530000Y-101342500D01*
X94530000Y-101817500D01*
X94528856Y-101840779D01*
X94525437Y-101863834D01*
X94519773Y-101886443D01*
X94511921Y-101908387D01*
X94501956Y-101929457D01*
X94489974Y-101949448D01*
X94476090Y-101968168D01*
X94460438Y-101985438D01*
X94443168Y-102001090D01*
X94424448Y-102014974D01*
X94404457Y-102026956D01*
X94383387Y-102036921D01*
X94361443Y-102044773D01*
X94338834Y-102050437D01*
X94315779Y-102053856D01*
X94292500Y-102055000D01*
X93717500Y-102055000D01*
X93694221Y-102053856D01*
X93671166Y-102050437D01*
X93648557Y-102044773D01*
X93626613Y-102036921D01*
X93605543Y-102026956D01*
X93585552Y-102014974D01*
X93566832Y-102001090D01*
X93549562Y-101985438D01*
X93533910Y-101968168D01*
X93520026Y-101949448D01*
X93508044Y-101929457D01*
X93498079Y-101908387D01*
X93490227Y-101886443D01*
X93484563Y-101863834D01*
X93481144Y-101840779D01*
X93480000Y-101817500D01*
X93480000Y-101342500D01*
X93481144Y-101319221D01*
X93484563Y-101296166D01*
X93490227Y-101273557D01*
X93498079Y-101251613D01*
X93508044Y-101230543D01*
X93520026Y-101210552D01*
X93533910Y-101191832D01*
X93549562Y-101174562D01*
X93566832Y-101158910D01*
X93585552Y-101145026D01*
X93605543Y-101133044D01*
X93626613Y-101123079D01*
X93648557Y-101115227D01*
X93671166Y-101109563D01*
X93694221Y-101106144D01*
X93717500Y-101105000D01*
X94292500Y-101105000D01*
X94315779Y-101106144D01*
X94315779Y-101106144D01*
G37*
D15*
G04 #@! TD*
G04 #@! TO.P,C4,1*
G04 #@! TO.N,GNDD*
X94005000Y-101580000D03*
D14*
G04 #@! TO.N,GNDD*
G04 #@! TO.C,C3*
G36*
X106315779Y-92706144D02*
X106338834Y-92709563D01*
X106361443Y-92715227D01*
X106383387Y-92723079D01*
X106404457Y-92733044D01*
X106424448Y-92745026D01*
X106443168Y-92758910D01*
X106460438Y-92774562D01*
X106476090Y-92791832D01*
X106489974Y-92810552D01*
X106501956Y-92830543D01*
X106511921Y-92851613D01*
X106519773Y-92873557D01*
X106525437Y-92896166D01*
X106528856Y-92919221D01*
X106530000Y-92942500D01*
X106530000Y-93417500D01*
X106528856Y-93440779D01*
X106525437Y-93463834D01*
X106519773Y-93486443D01*
X106511921Y-93508387D01*
X106501956Y-93529457D01*
X106489974Y-93549448D01*
X106476090Y-93568168D01*
X106460438Y-93585438D01*
X106443168Y-93601090D01*
X106424448Y-93614974D01*
X106404457Y-93626956D01*
X106383387Y-93636921D01*
X106361443Y-93644773D01*
X106338834Y-93650437D01*
X106315779Y-93653856D01*
X106292500Y-93655000D01*
X105717500Y-93655000D01*
X105694221Y-93653856D01*
X105671166Y-93650437D01*
X105648557Y-93644773D01*
X105626613Y-93636921D01*
X105605543Y-93626956D01*
X105585552Y-93614974D01*
X105566832Y-93601090D01*
X105549562Y-93585438D01*
X105533910Y-93568168D01*
X105520026Y-93549448D01*
X105508044Y-93529457D01*
X105498079Y-93508387D01*
X105490227Y-93486443D01*
X105484563Y-93463834D01*
X105481144Y-93440779D01*
X105480000Y-93417500D01*
X105480000Y-92942500D01*
X105481144Y-92919221D01*
X105484563Y-92896166D01*
X105490227Y-92873557D01*
X105498079Y-92851613D01*
X105508044Y-92830543D01*
X105520026Y-92810552D01*
X105533910Y-92791832D01*
X105549562Y-92774562D01*
X105566832Y-92758910D01*
X105585552Y-92745026D01*
X105605543Y-92733044D01*
X105626613Y-92723079D01*
X105648557Y-92715227D01*
X105671166Y-92709563D01*
X105694221Y-92706144D01*
X105717500Y-92705000D01*
X106292500Y-92705000D01*
X106315779Y-92706144D01*
X106315779Y-92706144D01*
G37*
D15*
G04 #@! TD*
G04 #@! TO.P,C3,1*
G04 #@! TO.N,GNDD*
X106005000Y-93180000D03*
D14*
G04 #@! TO.N,+3V3*
G04 #@! TO.C,C3*
G36*
X104565779Y-92706144D02*
X104588834Y-92709563D01*
X104611443Y-92715227D01*
X104633387Y-92723079D01*
X104654457Y-92733044D01*
X104674448Y-92745026D01*
X104693168Y-92758910D01*
X104710438Y-92774562D01*
X104726090Y-92791832D01*
X104739974Y-92810552D01*
X104751956Y-92830543D01*
X104761921Y-92851613D01*
X104769773Y-92873557D01*
X104775437Y-92896166D01*
X104778856Y-92919221D01*
X104780000Y-92942500D01*
X104780000Y-93417500D01*
X104778856Y-93440779D01*
X104775437Y-93463834D01*
X104769773Y-93486443D01*
X104761921Y-93508387D01*
X104751956Y-93529457D01*
X104739974Y-93549448D01*
X104726090Y-93568168D01*
X104710438Y-93585438D01*
X104693168Y-93601090D01*
X104674448Y-93614974D01*
X104654457Y-93626956D01*
X104633387Y-93636921D01*
X104611443Y-93644773D01*
X104588834Y-93650437D01*
X104565779Y-93653856D01*
X104542500Y-93655000D01*
X103967500Y-93655000D01*
X103944221Y-93653856D01*
X103921166Y-93650437D01*
X103898557Y-93644773D01*
X103876613Y-93636921D01*
X103855543Y-93626956D01*
X103835552Y-93614974D01*
X103816832Y-93601090D01*
X103799562Y-93585438D01*
X103783910Y-93568168D01*
X103770026Y-93549448D01*
X103758044Y-93529457D01*
X103748079Y-93508387D01*
X103740227Y-93486443D01*
X103734563Y-93463834D01*
X103731144Y-93440779D01*
X103730000Y-93417500D01*
X103730000Y-92942500D01*
X103731144Y-92919221D01*
X103734563Y-92896166D01*
X103740227Y-92873557D01*
X103748079Y-92851613D01*
X103758044Y-92830543D01*
X103770026Y-92810552D01*
X103783910Y-92791832D01*
X103799562Y-92774562D01*
X103816832Y-92758910D01*
X103835552Y-92745026D01*
X103855543Y-92733044D01*
X103876613Y-92723079D01*
X103898557Y-92715227D01*
X103921166Y-92709563D01*
X103944221Y-92706144D01*
X103967500Y-92705000D01*
X104542500Y-92705000D01*
X104565779Y-92706144D01*
X104565779Y-92706144D01*
G37*
D15*
G04 #@! TD*
G04 #@! TO.P,C3,2*
G04 #@! TO.N,+3V3*
X104255000Y-93180000D03*
D17*
G04 #@! TO.P,Y1,1*
G04 #@! TO.N,Net-(C7-Pad1)*
X107230000Y-95155000D03*
G04 #@! TO.P,Y1,2*
G04 #@! TO.N,Net-(C8-Pad1)*
X107230000Y-98405000D03*
G04 #@! TD*
D14*
G04 #@! TO.N,Net-(C5-Pad2)*
G04 #@! TO.C,L1*
G36*
X107265779Y-100206144D02*
X107288834Y-100209563D01*
X107311443Y-100215227D01*
X107333387Y-100223079D01*
X107354457Y-100233044D01*
X107374448Y-100245026D01*
X107393168Y-100258910D01*
X107410438Y-100274562D01*
X107426090Y-100291832D01*
X107439974Y-100310552D01*
X107451956Y-100330543D01*
X107461921Y-100351613D01*
X107469773Y-100373557D01*
X107475437Y-100396166D01*
X107478856Y-100419221D01*
X107480000Y-100442500D01*
X107480000Y-100917500D01*
X107478856Y-100940779D01*
X107475437Y-100963834D01*
X107469773Y-100986443D01*
X107461921Y-101008387D01*
X107451956Y-101029457D01*
X107439974Y-101049448D01*
X107426090Y-101068168D01*
X107410438Y-101085438D01*
X107393168Y-101101090D01*
X107374448Y-101114974D01*
X107354457Y-101126956D01*
X107333387Y-101136921D01*
X107311443Y-101144773D01*
X107288834Y-101150437D01*
X107265779Y-101153856D01*
X107242500Y-101155000D01*
X106667500Y-101155000D01*
X106644221Y-101153856D01*
X106621166Y-101150437D01*
X106598557Y-101144773D01*
X106576613Y-101136921D01*
X106555543Y-101126956D01*
X106535552Y-101114974D01*
X106516832Y-101101090D01*
X106499562Y-101085438D01*
X106483910Y-101068168D01*
X106470026Y-101049448D01*
X106458044Y-101029457D01*
X106448079Y-101008387D01*
X106440227Y-100986443D01*
X106434563Y-100963834D01*
X106431144Y-100940779D01*
X106430000Y-100917500D01*
X106430000Y-100442500D01*
X106431144Y-100419221D01*
X106434563Y-100396166D01*
X106440227Y-100373557D01*
X106448079Y-100351613D01*
X106458044Y-100330543D01*
X106470026Y-100310552D01*
X106483910Y-100291832D01*
X106499562Y-100274562D01*
X106516832Y-100258910D01*
X106535552Y-100245026D01*
X106555543Y-100233044D01*
X106576613Y-100223079D01*
X106598557Y-100215227D01*
X106621166Y-100209563D01*
X106644221Y-100206144D01*
X106667500Y-100205000D01*
X107242500Y-100205000D01*
X107265779Y-100206144D01*
X107265779Y-100206144D01*
G37*
D15*
G04 #@! TD*
G04 #@! TO.P,L1,1*
G04 #@! TO.N,Net-(C5-Pad2)*
X106955000Y-100680000D03*
D14*
G04 #@! TO.N,+3V3*
G04 #@! TO.C,L1*
G36*
X109015779Y-100206144D02*
X109038834Y-100209563D01*
X109061443Y-100215227D01*
X109083387Y-100223079D01*
X109104457Y-100233044D01*
X109124448Y-100245026D01*
X109143168Y-100258910D01*
X109160438Y-100274562D01*
X109176090Y-100291832D01*
X109189974Y-100310552D01*
X109201956Y-100330543D01*
X109211921Y-100351613D01*
X109219773Y-100373557D01*
X109225437Y-100396166D01*
X109228856Y-100419221D01*
X109230000Y-100442500D01*
X109230000Y-100917500D01*
X109228856Y-100940779D01*
X109225437Y-100963834D01*
X109219773Y-100986443D01*
X109211921Y-101008387D01*
X109201956Y-101029457D01*
X109189974Y-101049448D01*
X109176090Y-101068168D01*
X109160438Y-101085438D01*
X109143168Y-101101090D01*
X109124448Y-101114974D01*
X109104457Y-101126956D01*
X109083387Y-101136921D01*
X109061443Y-101144773D01*
X109038834Y-101150437D01*
X109015779Y-101153856D01*
X108992500Y-101155000D01*
X108417500Y-101155000D01*
X108394221Y-101153856D01*
X108371166Y-101150437D01*
X108348557Y-101144773D01*
X108326613Y-101136921D01*
X108305543Y-101126956D01*
X108285552Y-101114974D01*
X108266832Y-101101090D01*
X108249562Y-101085438D01*
X108233910Y-101068168D01*
X108220026Y-101049448D01*
X108208044Y-101029457D01*
X108198079Y-101008387D01*
X108190227Y-100986443D01*
X108184563Y-100963834D01*
X108181144Y-100940779D01*
X108180000Y-100917500D01*
X108180000Y-100442500D01*
X108181144Y-100419221D01*
X108184563Y-100396166D01*
X108190227Y-100373557D01*
X108198079Y-100351613D01*
X108208044Y-100330543D01*
X108220026Y-100310552D01*
X108233910Y-100291832D01*
X108249562Y-100274562D01*
X108266832Y-100258910D01*
X108285552Y-100245026D01*
X108305543Y-100233044D01*
X108326613Y-100223079D01*
X108348557Y-100215227D01*
X108371166Y-100209563D01*
X108394221Y-100206144D01*
X108417500Y-100205000D01*
X108992500Y-100205000D01*
X109015779Y-100206144D01*
X109015779Y-100206144D01*
G37*
D15*
G04 #@! TD*
G04 #@! TO.P,L1,2*
G04 #@! TO.N,+3V3*
X108705000Y-100680000D03*
D18*
G04 #@! TO.P,Q1,1*
G04 #@! TO.N,Net-(Q1-Pad1)*
X73930000Y-87480000D03*
D19*
G04 #@! TO.P,Q1,2*
G04 #@! TO.N,GNDA*
X73930000Y-90020000D03*
G04 #@! TD*
D20*
G04 #@! TO.N,Net-(R1-Pad2)*
X101530000Y-94680000D03*
G04 #@! TO.N,GNDD*
X71230000Y-93180000D03*
X94930000Y-102480000D03*
X106630000Y-102180000D03*
X108430000Y-93180000D03*
X110830000Y-96780000D03*
X110230000Y-101430000D03*
X69130000Y-101280000D03*
X64930000Y-100980000D03*
X99030000Y-91580000D03*
G04 #@! TO.N,+2V5*
X88330000Y-86280000D03*
X80230000Y-87480000D03*
X68230000Y-86880000D03*
X76460000Y-91270000D03*
G04 #@! TO.N,+4V*
X83230000Y-82080000D03*
X91930000Y-81780000D03*
X107230000Y-81780000D03*
X101230000Y-81780000D03*
G04 #@! TO.N,GNDA*
X85030000Y-82080000D03*
X88330000Y-81780000D03*
X90130000Y-81780000D03*
X103030000Y-81780000D03*
X105430000Y-81780000D03*
X75730000Y-89280000D03*
X103030000Y-87180000D03*
X98830000Y-88680000D03*
X87730000Y-87930000D03*
X67630000Y-90180000D03*
X72390000Y-84644000D03*
X80860000Y-90470000D03*
X101430000Y-89980000D03*
G04 #@! TO.N,+3V3*
X90730000Y-102480000D03*
X105130000Y-94380000D03*
X108730000Y-102180000D03*
X66730000Y-97380000D03*
X69130000Y-97680000D03*
X67030000Y-101280000D03*
G04 #@! TO.N,+5V*
X68830000Y-96180000D03*
X95030000Y-92980000D03*
G04 #@! TO.N,/NRST*
X110230000Y-100080000D03*
G04 #@! TO.N,/VCPTX*
X96540000Y-100070000D03*
G04 #@! TO.N,/EINK_CS*
X100630000Y-95580000D03*
G04 #@! TO.N,/ADC_DIN*
X99130000Y-99780000D03*
G04 #@! TO.N,/ADC_CLK*
X99730000Y-98077752D03*
X88540000Y-100170000D03*
G04 #@! TO.N,/ADC_CS*
X103780000Y-102180000D03*
G04 #@! TO.N,/EINK_DC*
X101680000Y-96180000D03*
G04 #@! TO.N,/EINK_RST*
X100780000Y-100080000D03*
G04 #@! TO.N,/EINK_DOUT*
X98540000Y-98670000D03*
G04 #@! TO.N,Net-(R17-Pad1)*
X89995685Y-93580000D03*
G04 #@! TO.N,Net-(U2-Pad20)*
X96740000Y-94770000D03*
G04 #@! TO.N,Net-(U2-Pad19)*
X96740000Y-95870000D03*
G04 #@! TD*
D21*
G04 #@! TO.N,Net-(R1-Pad2)*
X101130000Y-94280000D02*
X101530000Y-94680000D01*
X101130000Y-93130000D02*
X101130000Y-94280000D01*
D22*
G04 #@! TO.N,GNDD*
X71530000Y-93480000D02*
X71230000Y-93180000D01*
X71530000Y-94680000D02*
X71530000Y-93480000D01*
D21*
X96330000Y-101630000D02*
X95780000Y-101630000D01*
X94930000Y-102480000D02*
X94905000Y-102480000D01*
X105105000Y-101580000D02*
X105130000Y-101555000D01*
X108130000Y-92880000D02*
X108430000Y-93180000D01*
X106005000Y-92880000D02*
X108130000Y-92880000D01*
X111105000Y-98280000D02*
X111105000Y-97055000D01*
X111105000Y-97055000D02*
X110830000Y-96780000D01*
X111105000Y-96505000D02*
X110830000Y-96780000D01*
X111105000Y-95280000D02*
X111105000Y-96505000D01*
X106005000Y-101555000D02*
X106630000Y-102180000D01*
X105130000Y-101555000D02*
X106005000Y-101555000D01*
X102480000Y-93130000D02*
X101930000Y-93130000D01*
X103230010Y-92379990D02*
X102480000Y-93130000D01*
X105779990Y-92379990D02*
X103230010Y-92379990D01*
X106005000Y-92605000D02*
X105779990Y-92379990D01*
X106005000Y-93180000D02*
X106005000Y-92605000D01*
X95780000Y-101630000D02*
X95430000Y-101280000D01*
X95430000Y-101280000D02*
X94305000Y-101280000D01*
X94055000Y-101630000D02*
X94005000Y-101580000D01*
X94305000Y-101280000D02*
X94005000Y-101580000D01*
X94905000Y-102480000D02*
X94005000Y-101580000D01*
D22*
X64930000Y-99480000D02*
X64930000Y-100980000D01*
D21*
X108995685Y-93180000D02*
X108430000Y-93180000D01*
X111015002Y-93180000D02*
X108995685Y-93180000D01*
X111405001Y-92790001D02*
X111015002Y-93180000D01*
X111405001Y-87775001D02*
X111405001Y-92790001D01*
X110230000Y-86600000D02*
X111405001Y-87775001D01*
X84585000Y-94980000D02*
X83185000Y-93580000D01*
X89155000Y-94980000D02*
X84585000Y-94980000D01*
D22*
G04 #@! TO.N,+2V5*
X81430000Y-86280000D02*
X80230000Y-87480000D01*
X88330000Y-86280000D02*
X81430000Y-86280000D01*
X80230000Y-87580000D02*
X80230000Y-87480000D01*
X80230000Y-87500000D02*
X80230000Y-87480000D01*
X76460000Y-91270000D02*
X80230000Y-87500000D01*
X68629999Y-87279999D02*
X68230000Y-86880000D01*
X72670001Y-91320001D02*
X68629999Y-87279999D01*
X74554001Y-91320001D02*
X72670001Y-91320001D01*
X74604002Y-91270000D02*
X74554001Y-91320001D01*
X76460000Y-91270000D02*
X74604002Y-91270000D01*
X68575000Y-86535000D02*
X68230000Y-86880000D01*
X70430000Y-86535000D02*
X68575000Y-86535000D01*
G04 #@! TO.N,GNDA*
X72249000Y-84785000D02*
X72390000Y-84644000D01*
X70430000Y-84785000D02*
X72249000Y-84785000D01*
G04 #@! TO.N,+3V3*
X68530000Y-99480000D02*
X68530000Y-99780000D01*
D21*
X103380000Y-94055000D02*
X104255000Y-93180000D01*
X103380000Y-94580000D02*
X103380000Y-94055000D01*
X105130000Y-94055000D02*
X104255000Y-93180000D01*
X105130000Y-94380000D02*
X105130000Y-94055000D01*
X108705000Y-102155000D02*
X108730000Y-102180000D01*
X108705000Y-100680000D02*
X108705000Y-102155000D01*
X92255000Y-101580000D02*
X91630000Y-101580000D01*
X94880000Y-100180000D02*
X93655000Y-100180000D01*
X91630000Y-101580000D02*
X90730000Y-102480000D01*
X92255000Y-101580000D02*
X93655000Y-100180000D01*
D22*
X68530000Y-99780000D02*
X67030000Y-101280000D01*
G04 #@! TO.N,+5V*
X67930000Y-94680000D02*
X67930000Y-95280000D01*
X67930000Y-95280000D02*
X68830000Y-96180000D01*
X65535000Y-94680000D02*
X64135000Y-93280000D01*
X67930000Y-94680000D02*
X65535000Y-94680000D01*
D21*
X93105000Y-92580000D02*
X92675510Y-92580000D01*
D22*
X95030000Y-92980000D02*
X93105000Y-92980000D01*
X92605928Y-92480928D02*
X93105000Y-92980000D01*
X68830000Y-96180000D02*
X77355002Y-96180000D01*
X77355002Y-96180000D02*
X79355001Y-94180001D01*
X79355001Y-94180001D02*
X79355001Y-93019997D01*
X79355001Y-93019997D02*
X80294998Y-92080000D01*
X80294998Y-92080000D02*
X92205000Y-92080000D01*
X92205000Y-92080000D02*
X92605928Y-92480928D01*
D21*
G04 #@! TO.N,Net-(C7-Pad1)*
X107355000Y-95280000D02*
X107230000Y-95155000D01*
X109355000Y-95280000D02*
X107355000Y-95280000D01*
X106080000Y-95155000D02*
X107230000Y-95155000D01*
X105655000Y-95580000D02*
X106080000Y-95155000D01*
X104530000Y-95580000D02*
X105655000Y-95580000D01*
X103380000Y-95380000D02*
X104330000Y-95380000D01*
X104330000Y-95380000D02*
X104530000Y-95580000D01*
G04 #@! TO.N,Net-(C8-Pad1)*
X107205000Y-98405000D02*
X107230000Y-98405000D01*
X106080000Y-97280000D02*
X107205000Y-98405000D01*
X106080000Y-97255000D02*
X106080000Y-97280000D01*
X105005000Y-96180000D02*
X106080000Y-97255000D01*
X103380000Y-96180000D02*
X105005000Y-96180000D01*
X107355000Y-98280000D02*
X107230000Y-98405000D01*
X109355000Y-98280000D02*
X107355000Y-98280000D01*
G04 #@! TO.N,/NRST*
X104230000Y-96980000D02*
X106004999Y-98754999D01*
X103380000Y-96980000D02*
X104230000Y-96980000D01*
X106004999Y-99540001D02*
X106344988Y-99879990D01*
X106004999Y-98754999D02*
X106004999Y-99540001D01*
X106344988Y-99879990D02*
X110029990Y-99879990D01*
X110029990Y-99879990D02*
X110230000Y-100080000D01*
G04 #@! TO.N,Net-(C5-Pad2)*
X105130000Y-99180000D02*
X105130000Y-99805000D01*
X105130000Y-98680000D02*
X105130000Y-99180000D01*
X104230000Y-97780000D02*
X105130000Y-98680000D01*
X103380000Y-97780000D02*
X104230000Y-97780000D01*
X105130000Y-99805000D02*
X105480000Y-99805000D01*
X106005000Y-100680000D02*
X105130000Y-99805000D01*
X106955000Y-100680000D02*
X106005000Y-100680000D01*
G04 #@! TO.N,/VCPTX*
X102694998Y-100180000D02*
X101530000Y-99015002D01*
X103380000Y-100180000D02*
X102694998Y-100180000D01*
X96540000Y-98916998D02*
X96540000Y-100070000D01*
X101530000Y-98804750D02*
X101530000Y-99015002D01*
X100078001Y-97352751D02*
X101530000Y-98804750D01*
X98104247Y-97352751D02*
X100078001Y-97352751D01*
X96540000Y-98916998D02*
X98104247Y-97352751D01*
G04 #@! TO.N,/SWDIO*
X94030000Y-95380000D02*
X94880000Y-95380000D01*
X93190010Y-96219990D02*
X94030000Y-95380000D01*
X93190010Y-98275402D02*
X93190010Y-96219990D01*
X81280000Y-100470000D02*
X81280000Y-101672081D01*
X81280000Y-101672081D02*
X81702930Y-102095011D01*
X88733991Y-102095011D02*
X89634011Y-101194991D01*
X81702930Y-102095011D02*
X88733991Y-102095011D01*
X89634011Y-101194991D02*
X90270421Y-101194991D01*
X90270421Y-101194991D02*
X93190010Y-98275402D01*
G04 #@! TO.N,/SWCLK*
X77375001Y-99294999D02*
X77049999Y-99620001D01*
X81844001Y-99294999D02*
X77375001Y-99294999D01*
X82455001Y-99905999D02*
X81844001Y-99294999D01*
X83315001Y-101645001D02*
X82455001Y-100785001D01*
X77049999Y-99620001D02*
X76200000Y-100470000D01*
X82455001Y-100785001D02*
X82455001Y-99905999D01*
X88138001Y-101645001D02*
X83315001Y-101645001D01*
X90613002Y-99170000D02*
X88138001Y-101645001D01*
X91659002Y-99170000D02*
X90613002Y-99170000D01*
X92740000Y-98089002D02*
X91659002Y-99170000D01*
X92740000Y-95870000D02*
X92740000Y-98089002D01*
X94030000Y-94580000D02*
X92740000Y-95870000D01*
X94880000Y-94580000D02*
X94030000Y-94580000D01*
G04 #@! TO.N,/VCPRX*
X95505001Y-93954999D02*
X96330000Y-93130000D01*
X91803590Y-96170000D02*
X94018591Y-93954999D01*
X94018591Y-93954999D02*
X95505001Y-93954999D01*
X88235510Y-96170000D02*
X91803590Y-96170000D01*
X87900511Y-96504999D02*
X88235510Y-96170000D01*
X83225999Y-96504999D02*
X87900511Y-96504999D01*
X85943590Y-100470000D02*
X84768589Y-99294999D01*
X86360000Y-100470000D02*
X85943590Y-100470000D01*
X84768589Y-99294999D02*
X83255999Y-99294999D01*
X83255999Y-99294999D02*
X82440000Y-98479000D01*
X82440000Y-98479000D02*
X82440000Y-97290998D01*
X82440000Y-97290998D02*
X83225999Y-96504999D01*
G04 #@! TO.N,/PB6*
X107890030Y-91479970D02*
X110230000Y-89140000D01*
X102780030Y-91479970D02*
X107890030Y-91479970D01*
X102580000Y-91680000D02*
X102780030Y-91479970D01*
X100130000Y-91680000D02*
X102580000Y-91680000D01*
X99530000Y-92280000D02*
X100130000Y-91680000D01*
X99530000Y-93130000D02*
X99530000Y-92280000D01*
G04 #@! TO.N,/PB7*
X100330000Y-93130000D02*
X100330000Y-92280000D01*
X108479960Y-91680000D02*
X110230000Y-91680000D01*
X108229980Y-91929980D02*
X108479960Y-91680000D01*
X103043610Y-91929980D02*
X108229980Y-91929980D01*
X102843590Y-92130000D02*
X103043610Y-91929980D01*
X100480000Y-92130000D02*
X102843590Y-92130000D01*
X100330000Y-92280000D02*
X100480000Y-92130000D01*
G04 #@! TO.N,/EINK_CS*
X102630000Y-99380000D02*
X103380000Y-99380000D01*
X101979990Y-98729990D02*
X102630000Y-99380000D01*
X101979990Y-97729990D02*
X101979990Y-98729990D01*
X100630000Y-96380000D02*
X101979990Y-97729990D01*
X100630000Y-95580000D02*
X100630000Y-96380000D01*
G04 #@! TO.N,/ADC_DIN*
X99130000Y-99780000D02*
X99530000Y-99880000D01*
X99530000Y-99880000D02*
X99530000Y-101630000D01*
G04 #@! TO.N,/ADC_CLK*
X100330000Y-101630000D02*
X100330000Y-100703002D01*
X100330000Y-100703002D02*
X99980010Y-100353012D01*
X99980010Y-98229126D02*
X99828636Y-98077752D01*
X99730000Y-98643437D02*
X99730000Y-98077752D01*
X99980010Y-98893447D02*
X99730000Y-98643437D01*
X99980010Y-100353012D02*
X99980010Y-98893447D01*
X84965001Y-98855001D02*
X83790000Y-97680000D01*
X87225001Y-98855001D02*
X88540000Y-100170000D01*
X84965001Y-98855001D02*
X87225001Y-98855001D01*
G04 #@! TO.N,/ADC_CS*
X101930000Y-101630000D02*
X102480000Y-102180000D01*
X102480000Y-102180000D02*
X103780000Y-102180000D01*
G04 #@! TO.N,/EINK_DC*
X103380000Y-98580000D02*
X102530000Y-98580000D01*
X102530000Y-98580000D02*
X102430000Y-98480000D01*
X102430000Y-98480000D02*
X102430000Y-96930000D01*
X102430000Y-96930000D02*
X101680000Y-96180000D01*
G04 #@! TO.N,/EINK_RST*
X101130000Y-101630000D02*
X101130000Y-100430000D01*
X101130000Y-100430000D02*
X100780000Y-100080000D01*
G04 #@! TO.N,/EINK_DOUT*
X98730000Y-101630000D02*
X98730000Y-100453002D01*
X98730000Y-100453002D02*
X98404999Y-100128001D01*
X98404999Y-100128001D02*
X98404999Y-98555001D01*
X98404999Y-98555001D02*
X98425001Y-98555001D01*
X98425001Y-98555001D02*
X98540000Y-98670000D01*
G04 #@! TO.N,/EINK_BUSY*
X90456821Y-101645001D02*
X92371832Y-99729990D01*
X90064999Y-101645001D02*
X90456821Y-101645001D01*
X72530000Y-97680000D02*
X72484999Y-97725001D01*
X92371832Y-99729990D02*
X93680010Y-99729990D01*
X73630000Y-97680000D02*
X72530000Y-97680000D01*
X93680010Y-99729990D02*
X94030000Y-99380000D01*
X72484999Y-97725001D02*
X72484999Y-101580001D01*
X72484999Y-101580001D02*
X73450019Y-102545021D01*
X73450019Y-102545021D02*
X89164979Y-102545021D01*
X94030000Y-99380000D02*
X94880000Y-99380000D01*
X89164979Y-102545021D02*
X90064999Y-101645001D01*
G04 #@! TO.N,Net-(R17-Pad1)*
X90905000Y-94980000D02*
X90830000Y-94980000D01*
X90905000Y-94489315D02*
X89995685Y-93580000D01*
X90905000Y-94980000D02*
X90905000Y-94489315D01*
X90595685Y-92980000D02*
X89995685Y-93580000D01*
X91355000Y-92980000D02*
X90595685Y-92980000D01*
G04 #@! TO.N,Net-(U2-Pad20)*
X95889991Y-95620009D02*
X96740000Y-94770000D01*
X95889991Y-97620009D02*
X95889991Y-95620009D01*
X94880000Y-97780000D02*
X95730000Y-97780000D01*
X95730000Y-97780000D02*
X95889991Y-97620009D01*
G04 #@! TO.N,Net-(U2-Pad19)*
X96340001Y-97669999D02*
X96340001Y-97969999D01*
X96340001Y-97969999D02*
X95730000Y-98580000D01*
X95730000Y-98580000D02*
X94880000Y-98580000D01*
X96740000Y-97270000D02*
X96740000Y-95870000D01*
X96340001Y-97669999D02*
X96740000Y-97270000D01*
G04 #@! TD*
M02*
