G04 #@! TF.GenerationSoftware,KiCad,Pcbnew,(5.0.0-rc2-178-g3c7b91b96)*
G04 #@! TF.CreationDate,2018-10-30T10:49:57+01:00*
G04 #@! TF.ProjectId,pcb4,706362342E6B696361645F7063620000,1*
G04 #@! TF.SameCoordinates,Original*
G04 #@! TF.FileFunction,Soldermask,Bot*
G04 #@! TF.FilePolarity,Negative*
%FSLAX46Y46*%
G04 Gerber Fmt 4.6, Leading zero omitted, Abs format (unit mm)*
G04 Created by KiCad (PCBNEW (5.0.0-rc2-178-g3c7b91b96)) date 10/30/18 10:49:57*
%MOMM*%
%LPD*%
G01*
G04 APERTURE LIST*
%ADD10R,1.600000X1.000000*%
%ADD11R,1.000000X1.600000*%
%ADD12O,2.100000X2.100000*%
%ADD13R,2.100000X2.100000*%
%ADD14C,0.100000*%
%ADD15C,1.350000*%
%ADD16R,3.000000X2.000000*%
%ADD17R,2.200000X2.150000*%
%ADD18R,2.200000X2.200000*%
%ADD19C,2.200000*%
G04 APERTURE END LIST*
D10*
G04 #@! TO.C,U2*
X103380000Y-94580000D03*
X103380000Y-95380000D03*
X103380000Y-96180000D03*
X103380000Y-96980000D03*
X103380000Y-97780000D03*
X103380000Y-98580000D03*
X103380000Y-99380000D03*
X103380000Y-100180000D03*
D11*
X101930000Y-101630000D03*
X101130000Y-101630000D03*
X100330000Y-101630000D03*
X99530000Y-101630000D03*
X98730000Y-101630000D03*
X97930000Y-101630000D03*
X97130000Y-101630000D03*
X96330000Y-101630000D03*
D10*
X94880000Y-100180000D03*
X94880000Y-99380000D03*
X94880000Y-98580000D03*
X94880000Y-97780000D03*
X94880000Y-96980000D03*
X94880000Y-96180000D03*
X94880000Y-95380000D03*
X94880000Y-94580000D03*
D11*
X96330000Y-93130000D03*
X97130000Y-93130000D03*
X97930000Y-93130000D03*
X98730000Y-93130000D03*
X99530000Y-93130000D03*
X100330000Y-93130000D03*
X101130000Y-93130000D03*
X101930000Y-93130000D03*
G04 #@! TD*
D12*
G04 #@! TO.C,J7*
X78105000Y-93580000D03*
X80645000Y-93580000D03*
X83185000Y-93580000D03*
D13*
X85725000Y-93580000D03*
G04 #@! TD*
G04 #@! TO.C,J4*
X73660000Y-100470000D03*
D12*
X76200000Y-100470000D03*
X78740000Y-100470000D03*
X81280000Y-100470000D03*
G04 #@! TD*
D14*
G04 #@! TO.C,R17*
G36*
X93525581Y-92306625D02*
X93558343Y-92311485D01*
X93590471Y-92319533D01*
X93621656Y-92330691D01*
X93651596Y-92344852D01*
X93680005Y-92361879D01*
X93706608Y-92381609D01*
X93731149Y-92403851D01*
X93753391Y-92428392D01*
X93773121Y-92454995D01*
X93790148Y-92483404D01*
X93804309Y-92513344D01*
X93815467Y-92544529D01*
X93823515Y-92576657D01*
X93828375Y-92609419D01*
X93830000Y-92642500D01*
X93830000Y-93317500D01*
X93828375Y-93350581D01*
X93823515Y-93383343D01*
X93815467Y-93415471D01*
X93804309Y-93446656D01*
X93790148Y-93476596D01*
X93773121Y-93505005D01*
X93753391Y-93531608D01*
X93731149Y-93556149D01*
X93706608Y-93578391D01*
X93680005Y-93598121D01*
X93651596Y-93615148D01*
X93621656Y-93629309D01*
X93590471Y-93640467D01*
X93558343Y-93648515D01*
X93525581Y-93653375D01*
X93492500Y-93655000D01*
X92717500Y-93655000D01*
X92684419Y-93653375D01*
X92651657Y-93648515D01*
X92619529Y-93640467D01*
X92588344Y-93629309D01*
X92558404Y-93615148D01*
X92529995Y-93598121D01*
X92503392Y-93578391D01*
X92478851Y-93556149D01*
X92456609Y-93531608D01*
X92436879Y-93505005D01*
X92419852Y-93476596D01*
X92405691Y-93446656D01*
X92394533Y-93415471D01*
X92386485Y-93383343D01*
X92381625Y-93350581D01*
X92380000Y-93317500D01*
X92380000Y-92642500D01*
X92381625Y-92609419D01*
X92386485Y-92576657D01*
X92394533Y-92544529D01*
X92405691Y-92513344D01*
X92419852Y-92483404D01*
X92436879Y-92454995D01*
X92456609Y-92428392D01*
X92478851Y-92403851D01*
X92503392Y-92381609D01*
X92529995Y-92361879D01*
X92558404Y-92344852D01*
X92588344Y-92330691D01*
X92619529Y-92319533D01*
X92651657Y-92311485D01*
X92684419Y-92306625D01*
X92717500Y-92305000D01*
X93492500Y-92305000D01*
X93525581Y-92306625D01*
X93525581Y-92306625D01*
G37*
D15*
X93105000Y-92980000D03*
D14*
G36*
X91775581Y-92306625D02*
X91808343Y-92311485D01*
X91840471Y-92319533D01*
X91871656Y-92330691D01*
X91901596Y-92344852D01*
X91930005Y-92361879D01*
X91956608Y-92381609D01*
X91981149Y-92403851D01*
X92003391Y-92428392D01*
X92023121Y-92454995D01*
X92040148Y-92483404D01*
X92054309Y-92513344D01*
X92065467Y-92544529D01*
X92073515Y-92576657D01*
X92078375Y-92609419D01*
X92080000Y-92642500D01*
X92080000Y-93317500D01*
X92078375Y-93350581D01*
X92073515Y-93383343D01*
X92065467Y-93415471D01*
X92054309Y-93446656D01*
X92040148Y-93476596D01*
X92023121Y-93505005D01*
X92003391Y-93531608D01*
X91981149Y-93556149D01*
X91956608Y-93578391D01*
X91930005Y-93598121D01*
X91901596Y-93615148D01*
X91871656Y-93629309D01*
X91840471Y-93640467D01*
X91808343Y-93648515D01*
X91775581Y-93653375D01*
X91742500Y-93655000D01*
X90967500Y-93655000D01*
X90934419Y-93653375D01*
X90901657Y-93648515D01*
X90869529Y-93640467D01*
X90838344Y-93629309D01*
X90808404Y-93615148D01*
X90779995Y-93598121D01*
X90753392Y-93578391D01*
X90728851Y-93556149D01*
X90706609Y-93531608D01*
X90686879Y-93505005D01*
X90669852Y-93476596D01*
X90655691Y-93446656D01*
X90644533Y-93415471D01*
X90636485Y-93383343D01*
X90631625Y-93350581D01*
X90630000Y-93317500D01*
X90630000Y-92642500D01*
X90631625Y-92609419D01*
X90636485Y-92576657D01*
X90644533Y-92544529D01*
X90655691Y-92513344D01*
X90669852Y-92483404D01*
X90686879Y-92454995D01*
X90706609Y-92428392D01*
X90728851Y-92403851D01*
X90753392Y-92381609D01*
X90779995Y-92361879D01*
X90808404Y-92344852D01*
X90838344Y-92330691D01*
X90869529Y-92319533D01*
X90901657Y-92311485D01*
X90934419Y-92306625D01*
X90967500Y-92305000D01*
X91742500Y-92305000D01*
X91775581Y-92306625D01*
X91775581Y-92306625D01*
G37*
D15*
X91355000Y-92980000D03*
G04 #@! TD*
D14*
G04 #@! TO.C,R18*
G36*
X89575581Y-94306625D02*
X89608343Y-94311485D01*
X89640471Y-94319533D01*
X89671656Y-94330691D01*
X89701596Y-94344852D01*
X89730005Y-94361879D01*
X89756608Y-94381609D01*
X89781149Y-94403851D01*
X89803391Y-94428392D01*
X89823121Y-94454995D01*
X89840148Y-94483404D01*
X89854309Y-94513344D01*
X89865467Y-94544529D01*
X89873515Y-94576657D01*
X89878375Y-94609419D01*
X89880000Y-94642500D01*
X89880000Y-95317500D01*
X89878375Y-95350581D01*
X89873515Y-95383343D01*
X89865467Y-95415471D01*
X89854309Y-95446656D01*
X89840148Y-95476596D01*
X89823121Y-95505005D01*
X89803391Y-95531608D01*
X89781149Y-95556149D01*
X89756608Y-95578391D01*
X89730005Y-95598121D01*
X89701596Y-95615148D01*
X89671656Y-95629309D01*
X89640471Y-95640467D01*
X89608343Y-95648515D01*
X89575581Y-95653375D01*
X89542500Y-95655000D01*
X88767500Y-95655000D01*
X88734419Y-95653375D01*
X88701657Y-95648515D01*
X88669529Y-95640467D01*
X88638344Y-95629309D01*
X88608404Y-95615148D01*
X88579995Y-95598121D01*
X88553392Y-95578391D01*
X88528851Y-95556149D01*
X88506609Y-95531608D01*
X88486879Y-95505005D01*
X88469852Y-95476596D01*
X88455691Y-95446656D01*
X88444533Y-95415471D01*
X88436485Y-95383343D01*
X88431625Y-95350581D01*
X88430000Y-95317500D01*
X88430000Y-94642500D01*
X88431625Y-94609419D01*
X88436485Y-94576657D01*
X88444533Y-94544529D01*
X88455691Y-94513344D01*
X88469852Y-94483404D01*
X88486879Y-94454995D01*
X88506609Y-94428392D01*
X88528851Y-94403851D01*
X88553392Y-94381609D01*
X88579995Y-94361879D01*
X88608404Y-94344852D01*
X88638344Y-94330691D01*
X88669529Y-94319533D01*
X88701657Y-94311485D01*
X88734419Y-94306625D01*
X88767500Y-94305000D01*
X89542500Y-94305000D01*
X89575581Y-94306625D01*
X89575581Y-94306625D01*
G37*
D15*
X89155000Y-94980000D03*
D14*
G36*
X91325581Y-94306625D02*
X91358343Y-94311485D01*
X91390471Y-94319533D01*
X91421656Y-94330691D01*
X91451596Y-94344852D01*
X91480005Y-94361879D01*
X91506608Y-94381609D01*
X91531149Y-94403851D01*
X91553391Y-94428392D01*
X91573121Y-94454995D01*
X91590148Y-94483404D01*
X91604309Y-94513344D01*
X91615467Y-94544529D01*
X91623515Y-94576657D01*
X91628375Y-94609419D01*
X91630000Y-94642500D01*
X91630000Y-95317500D01*
X91628375Y-95350581D01*
X91623515Y-95383343D01*
X91615467Y-95415471D01*
X91604309Y-95446656D01*
X91590148Y-95476596D01*
X91573121Y-95505005D01*
X91553391Y-95531608D01*
X91531149Y-95556149D01*
X91506608Y-95578391D01*
X91480005Y-95598121D01*
X91451596Y-95615148D01*
X91421656Y-95629309D01*
X91390471Y-95640467D01*
X91358343Y-95648515D01*
X91325581Y-95653375D01*
X91292500Y-95655000D01*
X90517500Y-95655000D01*
X90484419Y-95653375D01*
X90451657Y-95648515D01*
X90419529Y-95640467D01*
X90388344Y-95629309D01*
X90358404Y-95615148D01*
X90329995Y-95598121D01*
X90303392Y-95578391D01*
X90278851Y-95556149D01*
X90256609Y-95531608D01*
X90236879Y-95505005D01*
X90219852Y-95476596D01*
X90205691Y-95446656D01*
X90194533Y-95415471D01*
X90186485Y-95383343D01*
X90181625Y-95350581D01*
X90180000Y-95317500D01*
X90180000Y-94642500D01*
X90181625Y-94609419D01*
X90186485Y-94576657D01*
X90194533Y-94544529D01*
X90205691Y-94513344D01*
X90219852Y-94483404D01*
X90236879Y-94454995D01*
X90256609Y-94428392D01*
X90278851Y-94403851D01*
X90303392Y-94381609D01*
X90329995Y-94361879D01*
X90358404Y-94344852D01*
X90388344Y-94330691D01*
X90419529Y-94319533D01*
X90451657Y-94311485D01*
X90484419Y-94306625D01*
X90517500Y-94305000D01*
X91292500Y-94305000D01*
X91325581Y-94306625D01*
X91325581Y-94306625D01*
G37*
D15*
X90905000Y-94980000D03*
G04 #@! TD*
D13*
G04 #@! TO.C,J1*
X64135000Y-85660000D03*
D12*
X64135000Y-88200000D03*
G04 #@! TD*
G04 #@! TO.C,J2*
X64135000Y-93280000D03*
D13*
X64135000Y-90740000D03*
G04 #@! TD*
G04 #@! TO.C,J5*
X86360000Y-100470000D03*
D12*
X83820000Y-100470000D03*
G04 #@! TD*
D13*
G04 #@! TO.C,J6*
X110230000Y-91680000D03*
D12*
X110230000Y-89140000D03*
X110230000Y-86600000D03*
X110230000Y-84060000D03*
G04 #@! TD*
D13*
G04 #@! TO.C,J3*
X73630000Y-97680000D03*
D12*
X76170000Y-97680000D03*
X78710000Y-97680000D03*
X81250000Y-97680000D03*
X83790000Y-97680000D03*
X86330000Y-97680000D03*
X88870000Y-97680000D03*
X91410000Y-97680000D03*
G04 #@! TD*
D16*
G04 #@! TO.C,C2*
X64930000Y-99480000D03*
X68530000Y-99480000D03*
G04 #@! TD*
G04 #@! TO.C,C1*
X67930000Y-94680000D03*
X71530000Y-94680000D03*
G04 #@! TD*
D14*
G04 #@! TO.C,C10*
G36*
X70800581Y-84061625D02*
X70833343Y-84066485D01*
X70865471Y-84074533D01*
X70896656Y-84085691D01*
X70926596Y-84099852D01*
X70955005Y-84116879D01*
X70981608Y-84136609D01*
X71006149Y-84158851D01*
X71028391Y-84183392D01*
X71048121Y-84209995D01*
X71065148Y-84238404D01*
X71079309Y-84268344D01*
X71090467Y-84299529D01*
X71098515Y-84331657D01*
X71103375Y-84364419D01*
X71105000Y-84397500D01*
X71105000Y-85172500D01*
X71103375Y-85205581D01*
X71098515Y-85238343D01*
X71090467Y-85270471D01*
X71079309Y-85301656D01*
X71065148Y-85331596D01*
X71048121Y-85360005D01*
X71028391Y-85386608D01*
X71006149Y-85411149D01*
X70981608Y-85433391D01*
X70955005Y-85453121D01*
X70926596Y-85470148D01*
X70896656Y-85484309D01*
X70865471Y-85495467D01*
X70833343Y-85503515D01*
X70800581Y-85508375D01*
X70767500Y-85510000D01*
X70092500Y-85510000D01*
X70059419Y-85508375D01*
X70026657Y-85503515D01*
X69994529Y-85495467D01*
X69963344Y-85484309D01*
X69933404Y-85470148D01*
X69904995Y-85453121D01*
X69878392Y-85433391D01*
X69853851Y-85411149D01*
X69831609Y-85386608D01*
X69811879Y-85360005D01*
X69794852Y-85331596D01*
X69780691Y-85301656D01*
X69769533Y-85270471D01*
X69761485Y-85238343D01*
X69756625Y-85205581D01*
X69755000Y-85172500D01*
X69755000Y-84397500D01*
X69756625Y-84364419D01*
X69761485Y-84331657D01*
X69769533Y-84299529D01*
X69780691Y-84268344D01*
X69794852Y-84238404D01*
X69811879Y-84209995D01*
X69831609Y-84183392D01*
X69853851Y-84158851D01*
X69878392Y-84136609D01*
X69904995Y-84116879D01*
X69933404Y-84099852D01*
X69963344Y-84085691D01*
X69994529Y-84074533D01*
X70026657Y-84066485D01*
X70059419Y-84061625D01*
X70092500Y-84060000D01*
X70767500Y-84060000D01*
X70800581Y-84061625D01*
X70800581Y-84061625D01*
G37*
D15*
X70430000Y-84785000D03*
D14*
G36*
X70800581Y-85811625D02*
X70833343Y-85816485D01*
X70865471Y-85824533D01*
X70896656Y-85835691D01*
X70926596Y-85849852D01*
X70955005Y-85866879D01*
X70981608Y-85886609D01*
X71006149Y-85908851D01*
X71028391Y-85933392D01*
X71048121Y-85959995D01*
X71065148Y-85988404D01*
X71079309Y-86018344D01*
X71090467Y-86049529D01*
X71098515Y-86081657D01*
X71103375Y-86114419D01*
X71105000Y-86147500D01*
X71105000Y-86922500D01*
X71103375Y-86955581D01*
X71098515Y-86988343D01*
X71090467Y-87020471D01*
X71079309Y-87051656D01*
X71065148Y-87081596D01*
X71048121Y-87110005D01*
X71028391Y-87136608D01*
X71006149Y-87161149D01*
X70981608Y-87183391D01*
X70955005Y-87203121D01*
X70926596Y-87220148D01*
X70896656Y-87234309D01*
X70865471Y-87245467D01*
X70833343Y-87253515D01*
X70800581Y-87258375D01*
X70767500Y-87260000D01*
X70092500Y-87260000D01*
X70059419Y-87258375D01*
X70026657Y-87253515D01*
X69994529Y-87245467D01*
X69963344Y-87234309D01*
X69933404Y-87220148D01*
X69904995Y-87203121D01*
X69878392Y-87183391D01*
X69853851Y-87161149D01*
X69831609Y-87136608D01*
X69811879Y-87110005D01*
X69794852Y-87081596D01*
X69780691Y-87051656D01*
X69769533Y-87020471D01*
X69761485Y-86988343D01*
X69756625Y-86955581D01*
X69755000Y-86922500D01*
X69755000Y-86147500D01*
X69756625Y-86114419D01*
X69761485Y-86081657D01*
X69769533Y-86049529D01*
X69780691Y-86018344D01*
X69794852Y-85988404D01*
X69811879Y-85959995D01*
X69831609Y-85933392D01*
X69853851Y-85908851D01*
X69878392Y-85886609D01*
X69904995Y-85866879D01*
X69933404Y-85849852D01*
X69963344Y-85835691D01*
X69994529Y-85824533D01*
X70026657Y-85816485D01*
X70059419Y-85811625D01*
X70092500Y-85810000D01*
X70767500Y-85810000D01*
X70800581Y-85811625D01*
X70800581Y-85811625D01*
G37*
D15*
X70430000Y-86535000D03*
G04 #@! TD*
D14*
G04 #@! TO.C,C8*
G36*
X111525581Y-97606625D02*
X111558343Y-97611485D01*
X111590471Y-97619533D01*
X111621656Y-97630691D01*
X111651596Y-97644852D01*
X111680005Y-97661879D01*
X111706608Y-97681609D01*
X111731149Y-97703851D01*
X111753391Y-97728392D01*
X111773121Y-97754995D01*
X111790148Y-97783404D01*
X111804309Y-97813344D01*
X111815467Y-97844529D01*
X111823515Y-97876657D01*
X111828375Y-97909419D01*
X111830000Y-97942500D01*
X111830000Y-98617500D01*
X111828375Y-98650581D01*
X111823515Y-98683343D01*
X111815467Y-98715471D01*
X111804309Y-98746656D01*
X111790148Y-98776596D01*
X111773121Y-98805005D01*
X111753391Y-98831608D01*
X111731149Y-98856149D01*
X111706608Y-98878391D01*
X111680005Y-98898121D01*
X111651596Y-98915148D01*
X111621656Y-98929309D01*
X111590471Y-98940467D01*
X111558343Y-98948515D01*
X111525581Y-98953375D01*
X111492500Y-98955000D01*
X110717500Y-98955000D01*
X110684419Y-98953375D01*
X110651657Y-98948515D01*
X110619529Y-98940467D01*
X110588344Y-98929309D01*
X110558404Y-98915148D01*
X110529995Y-98898121D01*
X110503392Y-98878391D01*
X110478851Y-98856149D01*
X110456609Y-98831608D01*
X110436879Y-98805005D01*
X110419852Y-98776596D01*
X110405691Y-98746656D01*
X110394533Y-98715471D01*
X110386485Y-98683343D01*
X110381625Y-98650581D01*
X110380000Y-98617500D01*
X110380000Y-97942500D01*
X110381625Y-97909419D01*
X110386485Y-97876657D01*
X110394533Y-97844529D01*
X110405691Y-97813344D01*
X110419852Y-97783404D01*
X110436879Y-97754995D01*
X110456609Y-97728392D01*
X110478851Y-97703851D01*
X110503392Y-97681609D01*
X110529995Y-97661879D01*
X110558404Y-97644852D01*
X110588344Y-97630691D01*
X110619529Y-97619533D01*
X110651657Y-97611485D01*
X110684419Y-97606625D01*
X110717500Y-97605000D01*
X111492500Y-97605000D01*
X111525581Y-97606625D01*
X111525581Y-97606625D01*
G37*
D15*
X111105000Y-98280000D03*
D14*
G36*
X109775581Y-97606625D02*
X109808343Y-97611485D01*
X109840471Y-97619533D01*
X109871656Y-97630691D01*
X109901596Y-97644852D01*
X109930005Y-97661879D01*
X109956608Y-97681609D01*
X109981149Y-97703851D01*
X110003391Y-97728392D01*
X110023121Y-97754995D01*
X110040148Y-97783404D01*
X110054309Y-97813344D01*
X110065467Y-97844529D01*
X110073515Y-97876657D01*
X110078375Y-97909419D01*
X110080000Y-97942500D01*
X110080000Y-98617500D01*
X110078375Y-98650581D01*
X110073515Y-98683343D01*
X110065467Y-98715471D01*
X110054309Y-98746656D01*
X110040148Y-98776596D01*
X110023121Y-98805005D01*
X110003391Y-98831608D01*
X109981149Y-98856149D01*
X109956608Y-98878391D01*
X109930005Y-98898121D01*
X109901596Y-98915148D01*
X109871656Y-98929309D01*
X109840471Y-98940467D01*
X109808343Y-98948515D01*
X109775581Y-98953375D01*
X109742500Y-98955000D01*
X108967500Y-98955000D01*
X108934419Y-98953375D01*
X108901657Y-98948515D01*
X108869529Y-98940467D01*
X108838344Y-98929309D01*
X108808404Y-98915148D01*
X108779995Y-98898121D01*
X108753392Y-98878391D01*
X108728851Y-98856149D01*
X108706609Y-98831608D01*
X108686879Y-98805005D01*
X108669852Y-98776596D01*
X108655691Y-98746656D01*
X108644533Y-98715471D01*
X108636485Y-98683343D01*
X108631625Y-98650581D01*
X108630000Y-98617500D01*
X108630000Y-97942500D01*
X108631625Y-97909419D01*
X108636485Y-97876657D01*
X108644533Y-97844529D01*
X108655691Y-97813344D01*
X108669852Y-97783404D01*
X108686879Y-97754995D01*
X108706609Y-97728392D01*
X108728851Y-97703851D01*
X108753392Y-97681609D01*
X108779995Y-97661879D01*
X108808404Y-97644852D01*
X108838344Y-97630691D01*
X108869529Y-97619533D01*
X108901657Y-97611485D01*
X108934419Y-97606625D01*
X108967500Y-97605000D01*
X109742500Y-97605000D01*
X109775581Y-97606625D01*
X109775581Y-97606625D01*
G37*
D15*
X109355000Y-98280000D03*
G04 #@! TD*
D14*
G04 #@! TO.C,C7*
G36*
X109775581Y-94606625D02*
X109808343Y-94611485D01*
X109840471Y-94619533D01*
X109871656Y-94630691D01*
X109901596Y-94644852D01*
X109930005Y-94661879D01*
X109956608Y-94681609D01*
X109981149Y-94703851D01*
X110003391Y-94728392D01*
X110023121Y-94754995D01*
X110040148Y-94783404D01*
X110054309Y-94813344D01*
X110065467Y-94844529D01*
X110073515Y-94876657D01*
X110078375Y-94909419D01*
X110080000Y-94942500D01*
X110080000Y-95617500D01*
X110078375Y-95650581D01*
X110073515Y-95683343D01*
X110065467Y-95715471D01*
X110054309Y-95746656D01*
X110040148Y-95776596D01*
X110023121Y-95805005D01*
X110003391Y-95831608D01*
X109981149Y-95856149D01*
X109956608Y-95878391D01*
X109930005Y-95898121D01*
X109901596Y-95915148D01*
X109871656Y-95929309D01*
X109840471Y-95940467D01*
X109808343Y-95948515D01*
X109775581Y-95953375D01*
X109742500Y-95955000D01*
X108967500Y-95955000D01*
X108934419Y-95953375D01*
X108901657Y-95948515D01*
X108869529Y-95940467D01*
X108838344Y-95929309D01*
X108808404Y-95915148D01*
X108779995Y-95898121D01*
X108753392Y-95878391D01*
X108728851Y-95856149D01*
X108706609Y-95831608D01*
X108686879Y-95805005D01*
X108669852Y-95776596D01*
X108655691Y-95746656D01*
X108644533Y-95715471D01*
X108636485Y-95683343D01*
X108631625Y-95650581D01*
X108630000Y-95617500D01*
X108630000Y-94942500D01*
X108631625Y-94909419D01*
X108636485Y-94876657D01*
X108644533Y-94844529D01*
X108655691Y-94813344D01*
X108669852Y-94783404D01*
X108686879Y-94754995D01*
X108706609Y-94728392D01*
X108728851Y-94703851D01*
X108753392Y-94681609D01*
X108779995Y-94661879D01*
X108808404Y-94644852D01*
X108838344Y-94630691D01*
X108869529Y-94619533D01*
X108901657Y-94611485D01*
X108934419Y-94606625D01*
X108967500Y-94605000D01*
X109742500Y-94605000D01*
X109775581Y-94606625D01*
X109775581Y-94606625D01*
G37*
D15*
X109355000Y-95280000D03*
D14*
G36*
X111525581Y-94606625D02*
X111558343Y-94611485D01*
X111590471Y-94619533D01*
X111621656Y-94630691D01*
X111651596Y-94644852D01*
X111680005Y-94661879D01*
X111706608Y-94681609D01*
X111731149Y-94703851D01*
X111753391Y-94728392D01*
X111773121Y-94754995D01*
X111790148Y-94783404D01*
X111804309Y-94813344D01*
X111815467Y-94844529D01*
X111823515Y-94876657D01*
X111828375Y-94909419D01*
X111830000Y-94942500D01*
X111830000Y-95617500D01*
X111828375Y-95650581D01*
X111823515Y-95683343D01*
X111815467Y-95715471D01*
X111804309Y-95746656D01*
X111790148Y-95776596D01*
X111773121Y-95805005D01*
X111753391Y-95831608D01*
X111731149Y-95856149D01*
X111706608Y-95878391D01*
X111680005Y-95898121D01*
X111651596Y-95915148D01*
X111621656Y-95929309D01*
X111590471Y-95940467D01*
X111558343Y-95948515D01*
X111525581Y-95953375D01*
X111492500Y-95955000D01*
X110717500Y-95955000D01*
X110684419Y-95953375D01*
X110651657Y-95948515D01*
X110619529Y-95940467D01*
X110588344Y-95929309D01*
X110558404Y-95915148D01*
X110529995Y-95898121D01*
X110503392Y-95878391D01*
X110478851Y-95856149D01*
X110456609Y-95831608D01*
X110436879Y-95805005D01*
X110419852Y-95776596D01*
X110405691Y-95746656D01*
X110394533Y-95715471D01*
X110386485Y-95683343D01*
X110381625Y-95650581D01*
X110380000Y-95617500D01*
X110380000Y-94942500D01*
X110381625Y-94909419D01*
X110386485Y-94876657D01*
X110394533Y-94844529D01*
X110405691Y-94813344D01*
X110419852Y-94783404D01*
X110436879Y-94754995D01*
X110456609Y-94728392D01*
X110478851Y-94703851D01*
X110503392Y-94681609D01*
X110529995Y-94661879D01*
X110558404Y-94644852D01*
X110588344Y-94630691D01*
X110619529Y-94619533D01*
X110651657Y-94611485D01*
X110684419Y-94606625D01*
X110717500Y-94605000D01*
X111492500Y-94605000D01*
X111525581Y-94606625D01*
X111525581Y-94606625D01*
G37*
D15*
X111105000Y-95280000D03*
G04 #@! TD*
D14*
G04 #@! TO.C,C5*
G36*
X105500581Y-100831625D02*
X105533343Y-100836485D01*
X105565471Y-100844533D01*
X105596656Y-100855691D01*
X105626596Y-100869852D01*
X105655005Y-100886879D01*
X105681608Y-100906609D01*
X105706149Y-100928851D01*
X105728391Y-100953392D01*
X105748121Y-100979995D01*
X105765148Y-101008404D01*
X105779309Y-101038344D01*
X105790467Y-101069529D01*
X105798515Y-101101657D01*
X105803375Y-101134419D01*
X105805000Y-101167500D01*
X105805000Y-101942500D01*
X105803375Y-101975581D01*
X105798515Y-102008343D01*
X105790467Y-102040471D01*
X105779309Y-102071656D01*
X105765148Y-102101596D01*
X105748121Y-102130005D01*
X105728391Y-102156608D01*
X105706149Y-102181149D01*
X105681608Y-102203391D01*
X105655005Y-102223121D01*
X105626596Y-102240148D01*
X105596656Y-102254309D01*
X105565471Y-102265467D01*
X105533343Y-102273515D01*
X105500581Y-102278375D01*
X105467500Y-102280000D01*
X104792500Y-102280000D01*
X104759419Y-102278375D01*
X104726657Y-102273515D01*
X104694529Y-102265467D01*
X104663344Y-102254309D01*
X104633404Y-102240148D01*
X104604995Y-102223121D01*
X104578392Y-102203391D01*
X104553851Y-102181149D01*
X104531609Y-102156608D01*
X104511879Y-102130005D01*
X104494852Y-102101596D01*
X104480691Y-102071656D01*
X104469533Y-102040471D01*
X104461485Y-102008343D01*
X104456625Y-101975581D01*
X104455000Y-101942500D01*
X104455000Y-101167500D01*
X104456625Y-101134419D01*
X104461485Y-101101657D01*
X104469533Y-101069529D01*
X104480691Y-101038344D01*
X104494852Y-101008404D01*
X104511879Y-100979995D01*
X104531609Y-100953392D01*
X104553851Y-100928851D01*
X104578392Y-100906609D01*
X104604995Y-100886879D01*
X104633404Y-100869852D01*
X104663344Y-100855691D01*
X104694529Y-100844533D01*
X104726657Y-100836485D01*
X104759419Y-100831625D01*
X104792500Y-100830000D01*
X105467500Y-100830000D01*
X105500581Y-100831625D01*
X105500581Y-100831625D01*
G37*
D15*
X105130000Y-101555000D03*
D14*
G36*
X105500581Y-99081625D02*
X105533343Y-99086485D01*
X105565471Y-99094533D01*
X105596656Y-99105691D01*
X105626596Y-99119852D01*
X105655005Y-99136879D01*
X105681608Y-99156609D01*
X105706149Y-99178851D01*
X105728391Y-99203392D01*
X105748121Y-99229995D01*
X105765148Y-99258404D01*
X105779309Y-99288344D01*
X105790467Y-99319529D01*
X105798515Y-99351657D01*
X105803375Y-99384419D01*
X105805000Y-99417500D01*
X105805000Y-100192500D01*
X105803375Y-100225581D01*
X105798515Y-100258343D01*
X105790467Y-100290471D01*
X105779309Y-100321656D01*
X105765148Y-100351596D01*
X105748121Y-100380005D01*
X105728391Y-100406608D01*
X105706149Y-100431149D01*
X105681608Y-100453391D01*
X105655005Y-100473121D01*
X105626596Y-100490148D01*
X105596656Y-100504309D01*
X105565471Y-100515467D01*
X105533343Y-100523515D01*
X105500581Y-100528375D01*
X105467500Y-100530000D01*
X104792500Y-100530000D01*
X104759419Y-100528375D01*
X104726657Y-100523515D01*
X104694529Y-100515467D01*
X104663344Y-100504309D01*
X104633404Y-100490148D01*
X104604995Y-100473121D01*
X104578392Y-100453391D01*
X104553851Y-100431149D01*
X104531609Y-100406608D01*
X104511879Y-100380005D01*
X104494852Y-100351596D01*
X104480691Y-100321656D01*
X104469533Y-100290471D01*
X104461485Y-100258343D01*
X104456625Y-100225581D01*
X104455000Y-100192500D01*
X104455000Y-99417500D01*
X104456625Y-99384419D01*
X104461485Y-99351657D01*
X104469533Y-99319529D01*
X104480691Y-99288344D01*
X104494852Y-99258404D01*
X104511879Y-99229995D01*
X104531609Y-99203392D01*
X104553851Y-99178851D01*
X104578392Y-99156609D01*
X104604995Y-99136879D01*
X104633404Y-99119852D01*
X104663344Y-99105691D01*
X104694529Y-99094533D01*
X104726657Y-99086485D01*
X104759419Y-99081625D01*
X104792500Y-99080000D01*
X105467500Y-99080000D01*
X105500581Y-99081625D01*
X105500581Y-99081625D01*
G37*
D15*
X105130000Y-99805000D03*
G04 #@! TD*
D14*
G04 #@! TO.C,C4*
G36*
X92675581Y-100906625D02*
X92708343Y-100911485D01*
X92740471Y-100919533D01*
X92771656Y-100930691D01*
X92801596Y-100944852D01*
X92830005Y-100961879D01*
X92856608Y-100981609D01*
X92881149Y-101003851D01*
X92903391Y-101028392D01*
X92923121Y-101054995D01*
X92940148Y-101083404D01*
X92954309Y-101113344D01*
X92965467Y-101144529D01*
X92973515Y-101176657D01*
X92978375Y-101209419D01*
X92980000Y-101242500D01*
X92980000Y-101917500D01*
X92978375Y-101950581D01*
X92973515Y-101983343D01*
X92965467Y-102015471D01*
X92954309Y-102046656D01*
X92940148Y-102076596D01*
X92923121Y-102105005D01*
X92903391Y-102131608D01*
X92881149Y-102156149D01*
X92856608Y-102178391D01*
X92830005Y-102198121D01*
X92801596Y-102215148D01*
X92771656Y-102229309D01*
X92740471Y-102240467D01*
X92708343Y-102248515D01*
X92675581Y-102253375D01*
X92642500Y-102255000D01*
X91867500Y-102255000D01*
X91834419Y-102253375D01*
X91801657Y-102248515D01*
X91769529Y-102240467D01*
X91738344Y-102229309D01*
X91708404Y-102215148D01*
X91679995Y-102198121D01*
X91653392Y-102178391D01*
X91628851Y-102156149D01*
X91606609Y-102131608D01*
X91586879Y-102105005D01*
X91569852Y-102076596D01*
X91555691Y-102046656D01*
X91544533Y-102015471D01*
X91536485Y-101983343D01*
X91531625Y-101950581D01*
X91530000Y-101917500D01*
X91530000Y-101242500D01*
X91531625Y-101209419D01*
X91536485Y-101176657D01*
X91544533Y-101144529D01*
X91555691Y-101113344D01*
X91569852Y-101083404D01*
X91586879Y-101054995D01*
X91606609Y-101028392D01*
X91628851Y-101003851D01*
X91653392Y-100981609D01*
X91679995Y-100961879D01*
X91708404Y-100944852D01*
X91738344Y-100930691D01*
X91769529Y-100919533D01*
X91801657Y-100911485D01*
X91834419Y-100906625D01*
X91867500Y-100905000D01*
X92642500Y-100905000D01*
X92675581Y-100906625D01*
X92675581Y-100906625D01*
G37*
D15*
X92255000Y-101580000D03*
D14*
G36*
X94425581Y-100906625D02*
X94458343Y-100911485D01*
X94490471Y-100919533D01*
X94521656Y-100930691D01*
X94551596Y-100944852D01*
X94580005Y-100961879D01*
X94606608Y-100981609D01*
X94631149Y-101003851D01*
X94653391Y-101028392D01*
X94673121Y-101054995D01*
X94690148Y-101083404D01*
X94704309Y-101113344D01*
X94715467Y-101144529D01*
X94723515Y-101176657D01*
X94728375Y-101209419D01*
X94730000Y-101242500D01*
X94730000Y-101917500D01*
X94728375Y-101950581D01*
X94723515Y-101983343D01*
X94715467Y-102015471D01*
X94704309Y-102046656D01*
X94690148Y-102076596D01*
X94673121Y-102105005D01*
X94653391Y-102131608D01*
X94631149Y-102156149D01*
X94606608Y-102178391D01*
X94580005Y-102198121D01*
X94551596Y-102215148D01*
X94521656Y-102229309D01*
X94490471Y-102240467D01*
X94458343Y-102248515D01*
X94425581Y-102253375D01*
X94392500Y-102255000D01*
X93617500Y-102255000D01*
X93584419Y-102253375D01*
X93551657Y-102248515D01*
X93519529Y-102240467D01*
X93488344Y-102229309D01*
X93458404Y-102215148D01*
X93429995Y-102198121D01*
X93403392Y-102178391D01*
X93378851Y-102156149D01*
X93356609Y-102131608D01*
X93336879Y-102105005D01*
X93319852Y-102076596D01*
X93305691Y-102046656D01*
X93294533Y-102015471D01*
X93286485Y-101983343D01*
X93281625Y-101950581D01*
X93280000Y-101917500D01*
X93280000Y-101242500D01*
X93281625Y-101209419D01*
X93286485Y-101176657D01*
X93294533Y-101144529D01*
X93305691Y-101113344D01*
X93319852Y-101083404D01*
X93336879Y-101054995D01*
X93356609Y-101028392D01*
X93378851Y-101003851D01*
X93403392Y-100981609D01*
X93429995Y-100961879D01*
X93458404Y-100944852D01*
X93488344Y-100930691D01*
X93519529Y-100919533D01*
X93551657Y-100911485D01*
X93584419Y-100906625D01*
X93617500Y-100905000D01*
X94392500Y-100905000D01*
X94425581Y-100906625D01*
X94425581Y-100906625D01*
G37*
D15*
X94005000Y-101580000D03*
G04 #@! TD*
D14*
G04 #@! TO.C,C3*
G36*
X106425581Y-92506625D02*
X106458343Y-92511485D01*
X106490471Y-92519533D01*
X106521656Y-92530691D01*
X106551596Y-92544852D01*
X106580005Y-92561879D01*
X106606608Y-92581609D01*
X106631149Y-92603851D01*
X106653391Y-92628392D01*
X106673121Y-92654995D01*
X106690148Y-92683404D01*
X106704309Y-92713344D01*
X106715467Y-92744529D01*
X106723515Y-92776657D01*
X106728375Y-92809419D01*
X106730000Y-92842500D01*
X106730000Y-93517500D01*
X106728375Y-93550581D01*
X106723515Y-93583343D01*
X106715467Y-93615471D01*
X106704309Y-93646656D01*
X106690148Y-93676596D01*
X106673121Y-93705005D01*
X106653391Y-93731608D01*
X106631149Y-93756149D01*
X106606608Y-93778391D01*
X106580005Y-93798121D01*
X106551596Y-93815148D01*
X106521656Y-93829309D01*
X106490471Y-93840467D01*
X106458343Y-93848515D01*
X106425581Y-93853375D01*
X106392500Y-93855000D01*
X105617500Y-93855000D01*
X105584419Y-93853375D01*
X105551657Y-93848515D01*
X105519529Y-93840467D01*
X105488344Y-93829309D01*
X105458404Y-93815148D01*
X105429995Y-93798121D01*
X105403392Y-93778391D01*
X105378851Y-93756149D01*
X105356609Y-93731608D01*
X105336879Y-93705005D01*
X105319852Y-93676596D01*
X105305691Y-93646656D01*
X105294533Y-93615471D01*
X105286485Y-93583343D01*
X105281625Y-93550581D01*
X105280000Y-93517500D01*
X105280000Y-92842500D01*
X105281625Y-92809419D01*
X105286485Y-92776657D01*
X105294533Y-92744529D01*
X105305691Y-92713344D01*
X105319852Y-92683404D01*
X105336879Y-92654995D01*
X105356609Y-92628392D01*
X105378851Y-92603851D01*
X105403392Y-92581609D01*
X105429995Y-92561879D01*
X105458404Y-92544852D01*
X105488344Y-92530691D01*
X105519529Y-92519533D01*
X105551657Y-92511485D01*
X105584419Y-92506625D01*
X105617500Y-92505000D01*
X106392500Y-92505000D01*
X106425581Y-92506625D01*
X106425581Y-92506625D01*
G37*
D15*
X106005000Y-93180000D03*
D14*
G36*
X104675581Y-92506625D02*
X104708343Y-92511485D01*
X104740471Y-92519533D01*
X104771656Y-92530691D01*
X104801596Y-92544852D01*
X104830005Y-92561879D01*
X104856608Y-92581609D01*
X104881149Y-92603851D01*
X104903391Y-92628392D01*
X104923121Y-92654995D01*
X104940148Y-92683404D01*
X104954309Y-92713344D01*
X104965467Y-92744529D01*
X104973515Y-92776657D01*
X104978375Y-92809419D01*
X104980000Y-92842500D01*
X104980000Y-93517500D01*
X104978375Y-93550581D01*
X104973515Y-93583343D01*
X104965467Y-93615471D01*
X104954309Y-93646656D01*
X104940148Y-93676596D01*
X104923121Y-93705005D01*
X104903391Y-93731608D01*
X104881149Y-93756149D01*
X104856608Y-93778391D01*
X104830005Y-93798121D01*
X104801596Y-93815148D01*
X104771656Y-93829309D01*
X104740471Y-93840467D01*
X104708343Y-93848515D01*
X104675581Y-93853375D01*
X104642500Y-93855000D01*
X103867500Y-93855000D01*
X103834419Y-93853375D01*
X103801657Y-93848515D01*
X103769529Y-93840467D01*
X103738344Y-93829309D01*
X103708404Y-93815148D01*
X103679995Y-93798121D01*
X103653392Y-93778391D01*
X103628851Y-93756149D01*
X103606609Y-93731608D01*
X103586879Y-93705005D01*
X103569852Y-93676596D01*
X103555691Y-93646656D01*
X103544533Y-93615471D01*
X103536485Y-93583343D01*
X103531625Y-93550581D01*
X103530000Y-93517500D01*
X103530000Y-92842500D01*
X103531625Y-92809419D01*
X103536485Y-92776657D01*
X103544533Y-92744529D01*
X103555691Y-92713344D01*
X103569852Y-92683404D01*
X103586879Y-92654995D01*
X103606609Y-92628392D01*
X103628851Y-92603851D01*
X103653392Y-92581609D01*
X103679995Y-92561879D01*
X103708404Y-92544852D01*
X103738344Y-92530691D01*
X103769529Y-92519533D01*
X103801657Y-92511485D01*
X103834419Y-92506625D01*
X103867500Y-92505000D01*
X104642500Y-92505000D01*
X104675581Y-92506625D01*
X104675581Y-92506625D01*
G37*
D15*
X104255000Y-93180000D03*
G04 #@! TD*
D17*
G04 #@! TO.C,Y1*
X107230000Y-95155000D03*
X107230000Y-98405000D03*
G04 #@! TD*
D14*
G04 #@! TO.C,L1*
G36*
X107375581Y-100006625D02*
X107408343Y-100011485D01*
X107440471Y-100019533D01*
X107471656Y-100030691D01*
X107501596Y-100044852D01*
X107530005Y-100061879D01*
X107556608Y-100081609D01*
X107581149Y-100103851D01*
X107603391Y-100128392D01*
X107623121Y-100154995D01*
X107640148Y-100183404D01*
X107654309Y-100213344D01*
X107665467Y-100244529D01*
X107673515Y-100276657D01*
X107678375Y-100309419D01*
X107680000Y-100342500D01*
X107680000Y-101017500D01*
X107678375Y-101050581D01*
X107673515Y-101083343D01*
X107665467Y-101115471D01*
X107654309Y-101146656D01*
X107640148Y-101176596D01*
X107623121Y-101205005D01*
X107603391Y-101231608D01*
X107581149Y-101256149D01*
X107556608Y-101278391D01*
X107530005Y-101298121D01*
X107501596Y-101315148D01*
X107471656Y-101329309D01*
X107440471Y-101340467D01*
X107408343Y-101348515D01*
X107375581Y-101353375D01*
X107342500Y-101355000D01*
X106567500Y-101355000D01*
X106534419Y-101353375D01*
X106501657Y-101348515D01*
X106469529Y-101340467D01*
X106438344Y-101329309D01*
X106408404Y-101315148D01*
X106379995Y-101298121D01*
X106353392Y-101278391D01*
X106328851Y-101256149D01*
X106306609Y-101231608D01*
X106286879Y-101205005D01*
X106269852Y-101176596D01*
X106255691Y-101146656D01*
X106244533Y-101115471D01*
X106236485Y-101083343D01*
X106231625Y-101050581D01*
X106230000Y-101017500D01*
X106230000Y-100342500D01*
X106231625Y-100309419D01*
X106236485Y-100276657D01*
X106244533Y-100244529D01*
X106255691Y-100213344D01*
X106269852Y-100183404D01*
X106286879Y-100154995D01*
X106306609Y-100128392D01*
X106328851Y-100103851D01*
X106353392Y-100081609D01*
X106379995Y-100061879D01*
X106408404Y-100044852D01*
X106438344Y-100030691D01*
X106469529Y-100019533D01*
X106501657Y-100011485D01*
X106534419Y-100006625D01*
X106567500Y-100005000D01*
X107342500Y-100005000D01*
X107375581Y-100006625D01*
X107375581Y-100006625D01*
G37*
D15*
X106955000Y-100680000D03*
D14*
G36*
X109125581Y-100006625D02*
X109158343Y-100011485D01*
X109190471Y-100019533D01*
X109221656Y-100030691D01*
X109251596Y-100044852D01*
X109280005Y-100061879D01*
X109306608Y-100081609D01*
X109331149Y-100103851D01*
X109353391Y-100128392D01*
X109373121Y-100154995D01*
X109390148Y-100183404D01*
X109404309Y-100213344D01*
X109415467Y-100244529D01*
X109423515Y-100276657D01*
X109428375Y-100309419D01*
X109430000Y-100342500D01*
X109430000Y-101017500D01*
X109428375Y-101050581D01*
X109423515Y-101083343D01*
X109415467Y-101115471D01*
X109404309Y-101146656D01*
X109390148Y-101176596D01*
X109373121Y-101205005D01*
X109353391Y-101231608D01*
X109331149Y-101256149D01*
X109306608Y-101278391D01*
X109280005Y-101298121D01*
X109251596Y-101315148D01*
X109221656Y-101329309D01*
X109190471Y-101340467D01*
X109158343Y-101348515D01*
X109125581Y-101353375D01*
X109092500Y-101355000D01*
X108317500Y-101355000D01*
X108284419Y-101353375D01*
X108251657Y-101348515D01*
X108219529Y-101340467D01*
X108188344Y-101329309D01*
X108158404Y-101315148D01*
X108129995Y-101298121D01*
X108103392Y-101278391D01*
X108078851Y-101256149D01*
X108056609Y-101231608D01*
X108036879Y-101205005D01*
X108019852Y-101176596D01*
X108005691Y-101146656D01*
X107994533Y-101115471D01*
X107986485Y-101083343D01*
X107981625Y-101050581D01*
X107980000Y-101017500D01*
X107980000Y-100342500D01*
X107981625Y-100309419D01*
X107986485Y-100276657D01*
X107994533Y-100244529D01*
X108005691Y-100213344D01*
X108019852Y-100183404D01*
X108036879Y-100154995D01*
X108056609Y-100128392D01*
X108078851Y-100103851D01*
X108103392Y-100081609D01*
X108129995Y-100061879D01*
X108158404Y-100044852D01*
X108188344Y-100030691D01*
X108219529Y-100019533D01*
X108251657Y-100011485D01*
X108284419Y-100006625D01*
X108317500Y-100005000D01*
X109092500Y-100005000D01*
X109125581Y-100006625D01*
X109125581Y-100006625D01*
G37*
D15*
X108705000Y-100680000D03*
G04 #@! TD*
D18*
G04 #@! TO.C,Q1*
X73930000Y-87480000D03*
D19*
X73930000Y-90020000D03*
G04 #@! TD*
M02*
