G04 #@! TF.GenerationSoftware,KiCad,Pcbnew,(5.0.0-rc2-178-g3c7b91b96)*
G04 #@! TF.CreationDate,2018-10-30T10:49:57+01:00*
G04 #@! TF.ProjectId,pcb4,706362342E6B696361645F7063620000,1*
G04 #@! TF.SameCoordinates,Original*
G04 #@! TF.FileFunction,Paste,Top*
G04 #@! TF.FilePolarity,Positive*
%FSLAX46Y46*%
G04 Gerber Fmt 4.6, Leading zero omitted, Abs format (unit mm)*
G04 Created by KiCad (PCBNEW (5.0.0-rc2-178-g3c7b91b96)) date 10/30/18 10:49:57*
%MOMM*%
%LPD*%
G01*
G04 APERTURE LIST*
%ADD10C,0.100000*%
%ADD11C,0.950000*%
%ADD12R,1.550000X0.600000*%
%ADD13R,0.600000X1.550000*%
%ADD14R,2.000000X3.800000*%
%ADD15R,2.000000X1.500000*%
G04 APERTURE END LIST*
D10*
G04 #@! TO.C,C25*
G36*
X97615779Y-91106144D02*
X97638834Y-91109563D01*
X97661443Y-91115227D01*
X97683387Y-91123079D01*
X97704457Y-91133044D01*
X97724448Y-91145026D01*
X97743168Y-91158910D01*
X97760438Y-91174562D01*
X97776090Y-91191832D01*
X97789974Y-91210552D01*
X97801956Y-91230543D01*
X97811921Y-91251613D01*
X97819773Y-91273557D01*
X97825437Y-91296166D01*
X97828856Y-91319221D01*
X97830000Y-91342500D01*
X97830000Y-91817500D01*
X97828856Y-91840779D01*
X97825437Y-91863834D01*
X97819773Y-91886443D01*
X97811921Y-91908387D01*
X97801956Y-91929457D01*
X97789974Y-91949448D01*
X97776090Y-91968168D01*
X97760438Y-91985438D01*
X97743168Y-92001090D01*
X97724448Y-92014974D01*
X97704457Y-92026956D01*
X97683387Y-92036921D01*
X97661443Y-92044773D01*
X97638834Y-92050437D01*
X97615779Y-92053856D01*
X97592500Y-92055000D01*
X97017500Y-92055000D01*
X96994221Y-92053856D01*
X96971166Y-92050437D01*
X96948557Y-92044773D01*
X96926613Y-92036921D01*
X96905543Y-92026956D01*
X96885552Y-92014974D01*
X96866832Y-92001090D01*
X96849562Y-91985438D01*
X96833910Y-91968168D01*
X96820026Y-91949448D01*
X96808044Y-91929457D01*
X96798079Y-91908387D01*
X96790227Y-91886443D01*
X96784563Y-91863834D01*
X96781144Y-91840779D01*
X96780000Y-91817500D01*
X96780000Y-91342500D01*
X96781144Y-91319221D01*
X96784563Y-91296166D01*
X96790227Y-91273557D01*
X96798079Y-91251613D01*
X96808044Y-91230543D01*
X96820026Y-91210552D01*
X96833910Y-91191832D01*
X96849562Y-91174562D01*
X96866832Y-91158910D01*
X96885552Y-91145026D01*
X96905543Y-91133044D01*
X96926613Y-91123079D01*
X96948557Y-91115227D01*
X96971166Y-91109563D01*
X96994221Y-91106144D01*
X97017500Y-91105000D01*
X97592500Y-91105000D01*
X97615779Y-91106144D01*
X97615779Y-91106144D01*
G37*
D11*
X97305000Y-91580000D03*
D10*
G36*
X95865779Y-91106144D02*
X95888834Y-91109563D01*
X95911443Y-91115227D01*
X95933387Y-91123079D01*
X95954457Y-91133044D01*
X95974448Y-91145026D01*
X95993168Y-91158910D01*
X96010438Y-91174562D01*
X96026090Y-91191832D01*
X96039974Y-91210552D01*
X96051956Y-91230543D01*
X96061921Y-91251613D01*
X96069773Y-91273557D01*
X96075437Y-91296166D01*
X96078856Y-91319221D01*
X96080000Y-91342500D01*
X96080000Y-91817500D01*
X96078856Y-91840779D01*
X96075437Y-91863834D01*
X96069773Y-91886443D01*
X96061921Y-91908387D01*
X96051956Y-91929457D01*
X96039974Y-91949448D01*
X96026090Y-91968168D01*
X96010438Y-91985438D01*
X95993168Y-92001090D01*
X95974448Y-92014974D01*
X95954457Y-92026956D01*
X95933387Y-92036921D01*
X95911443Y-92044773D01*
X95888834Y-92050437D01*
X95865779Y-92053856D01*
X95842500Y-92055000D01*
X95267500Y-92055000D01*
X95244221Y-92053856D01*
X95221166Y-92050437D01*
X95198557Y-92044773D01*
X95176613Y-92036921D01*
X95155543Y-92026956D01*
X95135552Y-92014974D01*
X95116832Y-92001090D01*
X95099562Y-91985438D01*
X95083910Y-91968168D01*
X95070026Y-91949448D01*
X95058044Y-91929457D01*
X95048079Y-91908387D01*
X95040227Y-91886443D01*
X95034563Y-91863834D01*
X95031144Y-91840779D01*
X95030000Y-91817500D01*
X95030000Y-91342500D01*
X95031144Y-91319221D01*
X95034563Y-91296166D01*
X95040227Y-91273557D01*
X95048079Y-91251613D01*
X95058044Y-91230543D01*
X95070026Y-91210552D01*
X95083910Y-91191832D01*
X95099562Y-91174562D01*
X95116832Y-91158910D01*
X95135552Y-91145026D01*
X95155543Y-91133044D01*
X95176613Y-91123079D01*
X95198557Y-91115227D01*
X95221166Y-91109563D01*
X95244221Y-91106144D01*
X95267500Y-91105000D01*
X95842500Y-91105000D01*
X95865779Y-91106144D01*
X95865779Y-91106144D01*
G37*
D11*
X95555000Y-91580000D03*
G04 #@! TD*
D12*
G04 #@! TO.C,U9*
X93430000Y-92275000D03*
X93430000Y-93545000D03*
X93430000Y-94815000D03*
X93430000Y-96085000D03*
X88030000Y-96085000D03*
X88030000Y-94815000D03*
X88030000Y-93545000D03*
X88030000Y-92275000D03*
G04 #@! TD*
D10*
G04 #@! TO.C,C12*
G36*
X90465779Y-82506144D02*
X90488834Y-82509563D01*
X90511443Y-82515227D01*
X90533387Y-82523079D01*
X90554457Y-82533044D01*
X90574448Y-82545026D01*
X90593168Y-82558910D01*
X90610438Y-82574562D01*
X90626090Y-82591832D01*
X90639974Y-82610552D01*
X90651956Y-82630543D01*
X90661921Y-82651613D01*
X90669773Y-82673557D01*
X90675437Y-82696166D01*
X90678856Y-82719221D01*
X90680000Y-82742500D01*
X90680000Y-83217500D01*
X90678856Y-83240779D01*
X90675437Y-83263834D01*
X90669773Y-83286443D01*
X90661921Y-83308387D01*
X90651956Y-83329457D01*
X90639974Y-83349448D01*
X90626090Y-83368168D01*
X90610438Y-83385438D01*
X90593168Y-83401090D01*
X90574448Y-83414974D01*
X90554457Y-83426956D01*
X90533387Y-83436921D01*
X90511443Y-83444773D01*
X90488834Y-83450437D01*
X90465779Y-83453856D01*
X90442500Y-83455000D01*
X89867500Y-83455000D01*
X89844221Y-83453856D01*
X89821166Y-83450437D01*
X89798557Y-83444773D01*
X89776613Y-83436921D01*
X89755543Y-83426956D01*
X89735552Y-83414974D01*
X89716832Y-83401090D01*
X89699562Y-83385438D01*
X89683910Y-83368168D01*
X89670026Y-83349448D01*
X89658044Y-83329457D01*
X89648079Y-83308387D01*
X89640227Y-83286443D01*
X89634563Y-83263834D01*
X89631144Y-83240779D01*
X89630000Y-83217500D01*
X89630000Y-82742500D01*
X89631144Y-82719221D01*
X89634563Y-82696166D01*
X89640227Y-82673557D01*
X89648079Y-82651613D01*
X89658044Y-82630543D01*
X89670026Y-82610552D01*
X89683910Y-82591832D01*
X89699562Y-82574562D01*
X89716832Y-82558910D01*
X89735552Y-82545026D01*
X89755543Y-82533044D01*
X89776613Y-82523079D01*
X89798557Y-82515227D01*
X89821166Y-82509563D01*
X89844221Y-82506144D01*
X89867500Y-82505000D01*
X90442500Y-82505000D01*
X90465779Y-82506144D01*
X90465779Y-82506144D01*
G37*
D11*
X90155000Y-82980000D03*
D10*
G36*
X92215779Y-82506144D02*
X92238834Y-82509563D01*
X92261443Y-82515227D01*
X92283387Y-82523079D01*
X92304457Y-82533044D01*
X92324448Y-82545026D01*
X92343168Y-82558910D01*
X92360438Y-82574562D01*
X92376090Y-82591832D01*
X92389974Y-82610552D01*
X92401956Y-82630543D01*
X92411921Y-82651613D01*
X92419773Y-82673557D01*
X92425437Y-82696166D01*
X92428856Y-82719221D01*
X92430000Y-82742500D01*
X92430000Y-83217500D01*
X92428856Y-83240779D01*
X92425437Y-83263834D01*
X92419773Y-83286443D01*
X92411921Y-83308387D01*
X92401956Y-83329457D01*
X92389974Y-83349448D01*
X92376090Y-83368168D01*
X92360438Y-83385438D01*
X92343168Y-83401090D01*
X92324448Y-83414974D01*
X92304457Y-83426956D01*
X92283387Y-83436921D01*
X92261443Y-83444773D01*
X92238834Y-83450437D01*
X92215779Y-83453856D01*
X92192500Y-83455000D01*
X91617500Y-83455000D01*
X91594221Y-83453856D01*
X91571166Y-83450437D01*
X91548557Y-83444773D01*
X91526613Y-83436921D01*
X91505543Y-83426956D01*
X91485552Y-83414974D01*
X91466832Y-83401090D01*
X91449562Y-83385438D01*
X91433910Y-83368168D01*
X91420026Y-83349448D01*
X91408044Y-83329457D01*
X91398079Y-83308387D01*
X91390227Y-83286443D01*
X91384563Y-83263834D01*
X91381144Y-83240779D01*
X91380000Y-83217500D01*
X91380000Y-82742500D01*
X91381144Y-82719221D01*
X91384563Y-82696166D01*
X91390227Y-82673557D01*
X91398079Y-82651613D01*
X91408044Y-82630543D01*
X91420026Y-82610552D01*
X91433910Y-82591832D01*
X91449562Y-82574562D01*
X91466832Y-82558910D01*
X91485552Y-82545026D01*
X91505543Y-82533044D01*
X91526613Y-82523079D01*
X91548557Y-82515227D01*
X91571166Y-82509563D01*
X91594221Y-82506144D01*
X91617500Y-82505000D01*
X92192500Y-82505000D01*
X92215779Y-82506144D01*
X92215779Y-82506144D01*
G37*
D11*
X91905000Y-82980000D03*
G04 #@! TD*
D10*
G04 #@! TO.C,C24*
G36*
X90465779Y-89706144D02*
X90488834Y-89709563D01*
X90511443Y-89715227D01*
X90533387Y-89723079D01*
X90554457Y-89733044D01*
X90574448Y-89745026D01*
X90593168Y-89758910D01*
X90610438Y-89774562D01*
X90626090Y-89791832D01*
X90639974Y-89810552D01*
X90651956Y-89830543D01*
X90661921Y-89851613D01*
X90669773Y-89873557D01*
X90675437Y-89896166D01*
X90678856Y-89919221D01*
X90680000Y-89942500D01*
X90680000Y-90417500D01*
X90678856Y-90440779D01*
X90675437Y-90463834D01*
X90669773Y-90486443D01*
X90661921Y-90508387D01*
X90651956Y-90529457D01*
X90639974Y-90549448D01*
X90626090Y-90568168D01*
X90610438Y-90585438D01*
X90593168Y-90601090D01*
X90574448Y-90614974D01*
X90554457Y-90626956D01*
X90533387Y-90636921D01*
X90511443Y-90644773D01*
X90488834Y-90650437D01*
X90465779Y-90653856D01*
X90442500Y-90655000D01*
X89867500Y-90655000D01*
X89844221Y-90653856D01*
X89821166Y-90650437D01*
X89798557Y-90644773D01*
X89776613Y-90636921D01*
X89755543Y-90626956D01*
X89735552Y-90614974D01*
X89716832Y-90601090D01*
X89699562Y-90585438D01*
X89683910Y-90568168D01*
X89670026Y-90549448D01*
X89658044Y-90529457D01*
X89648079Y-90508387D01*
X89640227Y-90486443D01*
X89634563Y-90463834D01*
X89631144Y-90440779D01*
X89630000Y-90417500D01*
X89630000Y-89942500D01*
X89631144Y-89919221D01*
X89634563Y-89896166D01*
X89640227Y-89873557D01*
X89648079Y-89851613D01*
X89658044Y-89830543D01*
X89670026Y-89810552D01*
X89683910Y-89791832D01*
X89699562Y-89774562D01*
X89716832Y-89758910D01*
X89735552Y-89745026D01*
X89755543Y-89733044D01*
X89776613Y-89723079D01*
X89798557Y-89715227D01*
X89821166Y-89709563D01*
X89844221Y-89706144D01*
X89867500Y-89705000D01*
X90442500Y-89705000D01*
X90465779Y-89706144D01*
X90465779Y-89706144D01*
G37*
D11*
X90155000Y-90180000D03*
D10*
G36*
X92215779Y-89706144D02*
X92238834Y-89709563D01*
X92261443Y-89715227D01*
X92283387Y-89723079D01*
X92304457Y-89733044D01*
X92324448Y-89745026D01*
X92343168Y-89758910D01*
X92360438Y-89774562D01*
X92376090Y-89791832D01*
X92389974Y-89810552D01*
X92401956Y-89830543D01*
X92411921Y-89851613D01*
X92419773Y-89873557D01*
X92425437Y-89896166D01*
X92428856Y-89919221D01*
X92430000Y-89942500D01*
X92430000Y-90417500D01*
X92428856Y-90440779D01*
X92425437Y-90463834D01*
X92419773Y-90486443D01*
X92411921Y-90508387D01*
X92401956Y-90529457D01*
X92389974Y-90549448D01*
X92376090Y-90568168D01*
X92360438Y-90585438D01*
X92343168Y-90601090D01*
X92324448Y-90614974D01*
X92304457Y-90626956D01*
X92283387Y-90636921D01*
X92261443Y-90644773D01*
X92238834Y-90650437D01*
X92215779Y-90653856D01*
X92192500Y-90655000D01*
X91617500Y-90655000D01*
X91594221Y-90653856D01*
X91571166Y-90650437D01*
X91548557Y-90644773D01*
X91526613Y-90636921D01*
X91505543Y-90626956D01*
X91485552Y-90614974D01*
X91466832Y-90601090D01*
X91449562Y-90585438D01*
X91433910Y-90568168D01*
X91420026Y-90549448D01*
X91408044Y-90529457D01*
X91398079Y-90508387D01*
X91390227Y-90486443D01*
X91384563Y-90463834D01*
X91381144Y-90440779D01*
X91380000Y-90417500D01*
X91380000Y-89942500D01*
X91381144Y-89919221D01*
X91384563Y-89896166D01*
X91390227Y-89873557D01*
X91398079Y-89851613D01*
X91408044Y-89830543D01*
X91420026Y-89810552D01*
X91433910Y-89791832D01*
X91449562Y-89774562D01*
X91466832Y-89758910D01*
X91485552Y-89745026D01*
X91505543Y-89733044D01*
X91526613Y-89723079D01*
X91548557Y-89715227D01*
X91571166Y-89709563D01*
X91594221Y-89706144D01*
X91617500Y-89705000D01*
X92192500Y-89705000D01*
X92215779Y-89706144D01*
X92215779Y-89706144D01*
G37*
D11*
X91905000Y-90180000D03*
G04 #@! TD*
D10*
G04 #@! TO.C,C23*
G36*
X90465779Y-84306144D02*
X90488834Y-84309563D01*
X90511443Y-84315227D01*
X90533387Y-84323079D01*
X90554457Y-84333044D01*
X90574448Y-84345026D01*
X90593168Y-84358910D01*
X90610438Y-84374562D01*
X90626090Y-84391832D01*
X90639974Y-84410552D01*
X90651956Y-84430543D01*
X90661921Y-84451613D01*
X90669773Y-84473557D01*
X90675437Y-84496166D01*
X90678856Y-84519221D01*
X90680000Y-84542500D01*
X90680000Y-85017500D01*
X90678856Y-85040779D01*
X90675437Y-85063834D01*
X90669773Y-85086443D01*
X90661921Y-85108387D01*
X90651956Y-85129457D01*
X90639974Y-85149448D01*
X90626090Y-85168168D01*
X90610438Y-85185438D01*
X90593168Y-85201090D01*
X90574448Y-85214974D01*
X90554457Y-85226956D01*
X90533387Y-85236921D01*
X90511443Y-85244773D01*
X90488834Y-85250437D01*
X90465779Y-85253856D01*
X90442500Y-85255000D01*
X89867500Y-85255000D01*
X89844221Y-85253856D01*
X89821166Y-85250437D01*
X89798557Y-85244773D01*
X89776613Y-85236921D01*
X89755543Y-85226956D01*
X89735552Y-85214974D01*
X89716832Y-85201090D01*
X89699562Y-85185438D01*
X89683910Y-85168168D01*
X89670026Y-85149448D01*
X89658044Y-85129457D01*
X89648079Y-85108387D01*
X89640227Y-85086443D01*
X89634563Y-85063834D01*
X89631144Y-85040779D01*
X89630000Y-85017500D01*
X89630000Y-84542500D01*
X89631144Y-84519221D01*
X89634563Y-84496166D01*
X89640227Y-84473557D01*
X89648079Y-84451613D01*
X89658044Y-84430543D01*
X89670026Y-84410552D01*
X89683910Y-84391832D01*
X89699562Y-84374562D01*
X89716832Y-84358910D01*
X89735552Y-84345026D01*
X89755543Y-84333044D01*
X89776613Y-84323079D01*
X89798557Y-84315227D01*
X89821166Y-84309563D01*
X89844221Y-84306144D01*
X89867500Y-84305000D01*
X90442500Y-84305000D01*
X90465779Y-84306144D01*
X90465779Y-84306144D01*
G37*
D11*
X90155000Y-84780000D03*
D10*
G36*
X92215779Y-84306144D02*
X92238834Y-84309563D01*
X92261443Y-84315227D01*
X92283387Y-84323079D01*
X92304457Y-84333044D01*
X92324448Y-84345026D01*
X92343168Y-84358910D01*
X92360438Y-84374562D01*
X92376090Y-84391832D01*
X92389974Y-84410552D01*
X92401956Y-84430543D01*
X92411921Y-84451613D01*
X92419773Y-84473557D01*
X92425437Y-84496166D01*
X92428856Y-84519221D01*
X92430000Y-84542500D01*
X92430000Y-85017500D01*
X92428856Y-85040779D01*
X92425437Y-85063834D01*
X92419773Y-85086443D01*
X92411921Y-85108387D01*
X92401956Y-85129457D01*
X92389974Y-85149448D01*
X92376090Y-85168168D01*
X92360438Y-85185438D01*
X92343168Y-85201090D01*
X92324448Y-85214974D01*
X92304457Y-85226956D01*
X92283387Y-85236921D01*
X92261443Y-85244773D01*
X92238834Y-85250437D01*
X92215779Y-85253856D01*
X92192500Y-85255000D01*
X91617500Y-85255000D01*
X91594221Y-85253856D01*
X91571166Y-85250437D01*
X91548557Y-85244773D01*
X91526613Y-85236921D01*
X91505543Y-85226956D01*
X91485552Y-85214974D01*
X91466832Y-85201090D01*
X91449562Y-85185438D01*
X91433910Y-85168168D01*
X91420026Y-85149448D01*
X91408044Y-85129457D01*
X91398079Y-85108387D01*
X91390227Y-85086443D01*
X91384563Y-85063834D01*
X91381144Y-85040779D01*
X91380000Y-85017500D01*
X91380000Y-84542500D01*
X91381144Y-84519221D01*
X91384563Y-84496166D01*
X91390227Y-84473557D01*
X91398079Y-84451613D01*
X91408044Y-84430543D01*
X91420026Y-84410552D01*
X91433910Y-84391832D01*
X91449562Y-84374562D01*
X91466832Y-84358910D01*
X91485552Y-84345026D01*
X91505543Y-84333044D01*
X91526613Y-84323079D01*
X91548557Y-84315227D01*
X91571166Y-84309563D01*
X91594221Y-84306144D01*
X91617500Y-84305000D01*
X92192500Y-84305000D01*
X92215779Y-84306144D01*
X92215779Y-84306144D01*
G37*
D11*
X91905000Y-84780000D03*
G04 #@! TD*
D10*
G04 #@! TO.C,C22*
G36*
X88315779Y-89706144D02*
X88338834Y-89709563D01*
X88361443Y-89715227D01*
X88383387Y-89723079D01*
X88404457Y-89733044D01*
X88424448Y-89745026D01*
X88443168Y-89758910D01*
X88460438Y-89774562D01*
X88476090Y-89791832D01*
X88489974Y-89810552D01*
X88501956Y-89830543D01*
X88511921Y-89851613D01*
X88519773Y-89873557D01*
X88525437Y-89896166D01*
X88528856Y-89919221D01*
X88530000Y-89942500D01*
X88530000Y-90417500D01*
X88528856Y-90440779D01*
X88525437Y-90463834D01*
X88519773Y-90486443D01*
X88511921Y-90508387D01*
X88501956Y-90529457D01*
X88489974Y-90549448D01*
X88476090Y-90568168D01*
X88460438Y-90585438D01*
X88443168Y-90601090D01*
X88424448Y-90614974D01*
X88404457Y-90626956D01*
X88383387Y-90636921D01*
X88361443Y-90644773D01*
X88338834Y-90650437D01*
X88315779Y-90653856D01*
X88292500Y-90655000D01*
X87717500Y-90655000D01*
X87694221Y-90653856D01*
X87671166Y-90650437D01*
X87648557Y-90644773D01*
X87626613Y-90636921D01*
X87605543Y-90626956D01*
X87585552Y-90614974D01*
X87566832Y-90601090D01*
X87549562Y-90585438D01*
X87533910Y-90568168D01*
X87520026Y-90549448D01*
X87508044Y-90529457D01*
X87498079Y-90508387D01*
X87490227Y-90486443D01*
X87484563Y-90463834D01*
X87481144Y-90440779D01*
X87480000Y-90417500D01*
X87480000Y-89942500D01*
X87481144Y-89919221D01*
X87484563Y-89896166D01*
X87490227Y-89873557D01*
X87498079Y-89851613D01*
X87508044Y-89830543D01*
X87520026Y-89810552D01*
X87533910Y-89791832D01*
X87549562Y-89774562D01*
X87566832Y-89758910D01*
X87585552Y-89745026D01*
X87605543Y-89733044D01*
X87626613Y-89723079D01*
X87648557Y-89715227D01*
X87671166Y-89709563D01*
X87694221Y-89706144D01*
X87717500Y-89705000D01*
X88292500Y-89705000D01*
X88315779Y-89706144D01*
X88315779Y-89706144D01*
G37*
D11*
X88005000Y-90180000D03*
D10*
G36*
X86565779Y-89706144D02*
X86588834Y-89709563D01*
X86611443Y-89715227D01*
X86633387Y-89723079D01*
X86654457Y-89733044D01*
X86674448Y-89745026D01*
X86693168Y-89758910D01*
X86710438Y-89774562D01*
X86726090Y-89791832D01*
X86739974Y-89810552D01*
X86751956Y-89830543D01*
X86761921Y-89851613D01*
X86769773Y-89873557D01*
X86775437Y-89896166D01*
X86778856Y-89919221D01*
X86780000Y-89942500D01*
X86780000Y-90417500D01*
X86778856Y-90440779D01*
X86775437Y-90463834D01*
X86769773Y-90486443D01*
X86761921Y-90508387D01*
X86751956Y-90529457D01*
X86739974Y-90549448D01*
X86726090Y-90568168D01*
X86710438Y-90585438D01*
X86693168Y-90601090D01*
X86674448Y-90614974D01*
X86654457Y-90626956D01*
X86633387Y-90636921D01*
X86611443Y-90644773D01*
X86588834Y-90650437D01*
X86565779Y-90653856D01*
X86542500Y-90655000D01*
X85967500Y-90655000D01*
X85944221Y-90653856D01*
X85921166Y-90650437D01*
X85898557Y-90644773D01*
X85876613Y-90636921D01*
X85855543Y-90626956D01*
X85835552Y-90614974D01*
X85816832Y-90601090D01*
X85799562Y-90585438D01*
X85783910Y-90568168D01*
X85770026Y-90549448D01*
X85758044Y-90529457D01*
X85748079Y-90508387D01*
X85740227Y-90486443D01*
X85734563Y-90463834D01*
X85731144Y-90440779D01*
X85730000Y-90417500D01*
X85730000Y-89942500D01*
X85731144Y-89919221D01*
X85734563Y-89896166D01*
X85740227Y-89873557D01*
X85748079Y-89851613D01*
X85758044Y-89830543D01*
X85770026Y-89810552D01*
X85783910Y-89791832D01*
X85799562Y-89774562D01*
X85816832Y-89758910D01*
X85835552Y-89745026D01*
X85855543Y-89733044D01*
X85876613Y-89723079D01*
X85898557Y-89715227D01*
X85921166Y-89709563D01*
X85944221Y-89706144D01*
X85967500Y-89705000D01*
X86542500Y-89705000D01*
X86565779Y-89706144D01*
X86565779Y-89706144D01*
G37*
D11*
X86255000Y-90180000D03*
G04 #@! TD*
D10*
G04 #@! TO.C,C21*
G36*
X86515779Y-84306144D02*
X86538834Y-84309563D01*
X86561443Y-84315227D01*
X86583387Y-84323079D01*
X86604457Y-84333044D01*
X86624448Y-84345026D01*
X86643168Y-84358910D01*
X86660438Y-84374562D01*
X86676090Y-84391832D01*
X86689974Y-84410552D01*
X86701956Y-84430543D01*
X86711921Y-84451613D01*
X86719773Y-84473557D01*
X86725437Y-84496166D01*
X86728856Y-84519221D01*
X86730000Y-84542500D01*
X86730000Y-85017500D01*
X86728856Y-85040779D01*
X86725437Y-85063834D01*
X86719773Y-85086443D01*
X86711921Y-85108387D01*
X86701956Y-85129457D01*
X86689974Y-85149448D01*
X86676090Y-85168168D01*
X86660438Y-85185438D01*
X86643168Y-85201090D01*
X86624448Y-85214974D01*
X86604457Y-85226956D01*
X86583387Y-85236921D01*
X86561443Y-85244773D01*
X86538834Y-85250437D01*
X86515779Y-85253856D01*
X86492500Y-85255000D01*
X85917500Y-85255000D01*
X85894221Y-85253856D01*
X85871166Y-85250437D01*
X85848557Y-85244773D01*
X85826613Y-85236921D01*
X85805543Y-85226956D01*
X85785552Y-85214974D01*
X85766832Y-85201090D01*
X85749562Y-85185438D01*
X85733910Y-85168168D01*
X85720026Y-85149448D01*
X85708044Y-85129457D01*
X85698079Y-85108387D01*
X85690227Y-85086443D01*
X85684563Y-85063834D01*
X85681144Y-85040779D01*
X85680000Y-85017500D01*
X85680000Y-84542500D01*
X85681144Y-84519221D01*
X85684563Y-84496166D01*
X85690227Y-84473557D01*
X85698079Y-84451613D01*
X85708044Y-84430543D01*
X85720026Y-84410552D01*
X85733910Y-84391832D01*
X85749562Y-84374562D01*
X85766832Y-84358910D01*
X85785552Y-84345026D01*
X85805543Y-84333044D01*
X85826613Y-84323079D01*
X85848557Y-84315227D01*
X85871166Y-84309563D01*
X85894221Y-84306144D01*
X85917500Y-84305000D01*
X86492500Y-84305000D01*
X86515779Y-84306144D01*
X86515779Y-84306144D01*
G37*
D11*
X86205000Y-84780000D03*
D10*
G36*
X84765779Y-84306144D02*
X84788834Y-84309563D01*
X84811443Y-84315227D01*
X84833387Y-84323079D01*
X84854457Y-84333044D01*
X84874448Y-84345026D01*
X84893168Y-84358910D01*
X84910438Y-84374562D01*
X84926090Y-84391832D01*
X84939974Y-84410552D01*
X84951956Y-84430543D01*
X84961921Y-84451613D01*
X84969773Y-84473557D01*
X84975437Y-84496166D01*
X84978856Y-84519221D01*
X84980000Y-84542500D01*
X84980000Y-85017500D01*
X84978856Y-85040779D01*
X84975437Y-85063834D01*
X84969773Y-85086443D01*
X84961921Y-85108387D01*
X84951956Y-85129457D01*
X84939974Y-85149448D01*
X84926090Y-85168168D01*
X84910438Y-85185438D01*
X84893168Y-85201090D01*
X84874448Y-85214974D01*
X84854457Y-85226956D01*
X84833387Y-85236921D01*
X84811443Y-85244773D01*
X84788834Y-85250437D01*
X84765779Y-85253856D01*
X84742500Y-85255000D01*
X84167500Y-85255000D01*
X84144221Y-85253856D01*
X84121166Y-85250437D01*
X84098557Y-85244773D01*
X84076613Y-85236921D01*
X84055543Y-85226956D01*
X84035552Y-85214974D01*
X84016832Y-85201090D01*
X83999562Y-85185438D01*
X83983910Y-85168168D01*
X83970026Y-85149448D01*
X83958044Y-85129457D01*
X83948079Y-85108387D01*
X83940227Y-85086443D01*
X83934563Y-85063834D01*
X83931144Y-85040779D01*
X83930000Y-85017500D01*
X83930000Y-84542500D01*
X83931144Y-84519221D01*
X83934563Y-84496166D01*
X83940227Y-84473557D01*
X83948079Y-84451613D01*
X83958044Y-84430543D01*
X83970026Y-84410552D01*
X83983910Y-84391832D01*
X83999562Y-84374562D01*
X84016832Y-84358910D01*
X84035552Y-84345026D01*
X84055543Y-84333044D01*
X84076613Y-84323079D01*
X84098557Y-84315227D01*
X84121166Y-84309563D01*
X84144221Y-84306144D01*
X84167500Y-84305000D01*
X84742500Y-84305000D01*
X84765779Y-84306144D01*
X84765779Y-84306144D01*
G37*
D11*
X84455000Y-84780000D03*
G04 #@! TD*
D10*
G04 #@! TO.C,C20*
G36*
X81715779Y-82506144D02*
X81738834Y-82509563D01*
X81761443Y-82515227D01*
X81783387Y-82523079D01*
X81804457Y-82533044D01*
X81824448Y-82545026D01*
X81843168Y-82558910D01*
X81860438Y-82574562D01*
X81876090Y-82591832D01*
X81889974Y-82610552D01*
X81901956Y-82630543D01*
X81911921Y-82651613D01*
X81919773Y-82673557D01*
X81925437Y-82696166D01*
X81928856Y-82719221D01*
X81930000Y-82742500D01*
X81930000Y-83217500D01*
X81928856Y-83240779D01*
X81925437Y-83263834D01*
X81919773Y-83286443D01*
X81911921Y-83308387D01*
X81901956Y-83329457D01*
X81889974Y-83349448D01*
X81876090Y-83368168D01*
X81860438Y-83385438D01*
X81843168Y-83401090D01*
X81824448Y-83414974D01*
X81804457Y-83426956D01*
X81783387Y-83436921D01*
X81761443Y-83444773D01*
X81738834Y-83450437D01*
X81715779Y-83453856D01*
X81692500Y-83455000D01*
X81117500Y-83455000D01*
X81094221Y-83453856D01*
X81071166Y-83450437D01*
X81048557Y-83444773D01*
X81026613Y-83436921D01*
X81005543Y-83426956D01*
X80985552Y-83414974D01*
X80966832Y-83401090D01*
X80949562Y-83385438D01*
X80933910Y-83368168D01*
X80920026Y-83349448D01*
X80908044Y-83329457D01*
X80898079Y-83308387D01*
X80890227Y-83286443D01*
X80884563Y-83263834D01*
X80881144Y-83240779D01*
X80880000Y-83217500D01*
X80880000Y-82742500D01*
X80881144Y-82719221D01*
X80884563Y-82696166D01*
X80890227Y-82673557D01*
X80898079Y-82651613D01*
X80908044Y-82630543D01*
X80920026Y-82610552D01*
X80933910Y-82591832D01*
X80949562Y-82574562D01*
X80966832Y-82558910D01*
X80985552Y-82545026D01*
X81005543Y-82533044D01*
X81026613Y-82523079D01*
X81048557Y-82515227D01*
X81071166Y-82509563D01*
X81094221Y-82506144D01*
X81117500Y-82505000D01*
X81692500Y-82505000D01*
X81715779Y-82506144D01*
X81715779Y-82506144D01*
G37*
D11*
X81405000Y-82980000D03*
D10*
G36*
X79965779Y-82506144D02*
X79988834Y-82509563D01*
X80011443Y-82515227D01*
X80033387Y-82523079D01*
X80054457Y-82533044D01*
X80074448Y-82545026D01*
X80093168Y-82558910D01*
X80110438Y-82574562D01*
X80126090Y-82591832D01*
X80139974Y-82610552D01*
X80151956Y-82630543D01*
X80161921Y-82651613D01*
X80169773Y-82673557D01*
X80175437Y-82696166D01*
X80178856Y-82719221D01*
X80180000Y-82742500D01*
X80180000Y-83217500D01*
X80178856Y-83240779D01*
X80175437Y-83263834D01*
X80169773Y-83286443D01*
X80161921Y-83308387D01*
X80151956Y-83329457D01*
X80139974Y-83349448D01*
X80126090Y-83368168D01*
X80110438Y-83385438D01*
X80093168Y-83401090D01*
X80074448Y-83414974D01*
X80054457Y-83426956D01*
X80033387Y-83436921D01*
X80011443Y-83444773D01*
X79988834Y-83450437D01*
X79965779Y-83453856D01*
X79942500Y-83455000D01*
X79367500Y-83455000D01*
X79344221Y-83453856D01*
X79321166Y-83450437D01*
X79298557Y-83444773D01*
X79276613Y-83436921D01*
X79255543Y-83426956D01*
X79235552Y-83414974D01*
X79216832Y-83401090D01*
X79199562Y-83385438D01*
X79183910Y-83368168D01*
X79170026Y-83349448D01*
X79158044Y-83329457D01*
X79148079Y-83308387D01*
X79140227Y-83286443D01*
X79134563Y-83263834D01*
X79131144Y-83240779D01*
X79130000Y-83217500D01*
X79130000Y-82742500D01*
X79131144Y-82719221D01*
X79134563Y-82696166D01*
X79140227Y-82673557D01*
X79148079Y-82651613D01*
X79158044Y-82630543D01*
X79170026Y-82610552D01*
X79183910Y-82591832D01*
X79199562Y-82574562D01*
X79216832Y-82558910D01*
X79235552Y-82545026D01*
X79255543Y-82533044D01*
X79276613Y-82523079D01*
X79298557Y-82515227D01*
X79321166Y-82509563D01*
X79344221Y-82506144D01*
X79367500Y-82505000D01*
X79942500Y-82505000D01*
X79965779Y-82506144D01*
X79965779Y-82506144D01*
G37*
D11*
X79655000Y-82980000D03*
G04 #@! TD*
D10*
G04 #@! TO.C,C19*
G36*
X88590779Y-82481144D02*
X88613834Y-82484563D01*
X88636443Y-82490227D01*
X88658387Y-82498079D01*
X88679457Y-82508044D01*
X88699448Y-82520026D01*
X88718168Y-82533910D01*
X88735438Y-82549562D01*
X88751090Y-82566832D01*
X88764974Y-82585552D01*
X88776956Y-82605543D01*
X88786921Y-82626613D01*
X88794773Y-82648557D01*
X88800437Y-82671166D01*
X88803856Y-82694221D01*
X88805000Y-82717500D01*
X88805000Y-83292500D01*
X88803856Y-83315779D01*
X88800437Y-83338834D01*
X88794773Y-83361443D01*
X88786921Y-83383387D01*
X88776956Y-83404457D01*
X88764974Y-83424448D01*
X88751090Y-83443168D01*
X88735438Y-83460438D01*
X88718168Y-83476090D01*
X88699448Y-83489974D01*
X88679457Y-83501956D01*
X88658387Y-83511921D01*
X88636443Y-83519773D01*
X88613834Y-83525437D01*
X88590779Y-83528856D01*
X88567500Y-83530000D01*
X88092500Y-83530000D01*
X88069221Y-83528856D01*
X88046166Y-83525437D01*
X88023557Y-83519773D01*
X88001613Y-83511921D01*
X87980543Y-83501956D01*
X87960552Y-83489974D01*
X87941832Y-83476090D01*
X87924562Y-83460438D01*
X87908910Y-83443168D01*
X87895026Y-83424448D01*
X87883044Y-83404457D01*
X87873079Y-83383387D01*
X87865227Y-83361443D01*
X87859563Y-83338834D01*
X87856144Y-83315779D01*
X87855000Y-83292500D01*
X87855000Y-82717500D01*
X87856144Y-82694221D01*
X87859563Y-82671166D01*
X87865227Y-82648557D01*
X87873079Y-82626613D01*
X87883044Y-82605543D01*
X87895026Y-82585552D01*
X87908910Y-82566832D01*
X87924562Y-82549562D01*
X87941832Y-82533910D01*
X87960552Y-82520026D01*
X87980543Y-82508044D01*
X88001613Y-82498079D01*
X88023557Y-82490227D01*
X88046166Y-82484563D01*
X88069221Y-82481144D01*
X88092500Y-82480000D01*
X88567500Y-82480000D01*
X88590779Y-82481144D01*
X88590779Y-82481144D01*
G37*
D11*
X88330000Y-83005000D03*
D10*
G36*
X88590779Y-84231144D02*
X88613834Y-84234563D01*
X88636443Y-84240227D01*
X88658387Y-84248079D01*
X88679457Y-84258044D01*
X88699448Y-84270026D01*
X88718168Y-84283910D01*
X88735438Y-84299562D01*
X88751090Y-84316832D01*
X88764974Y-84335552D01*
X88776956Y-84355543D01*
X88786921Y-84376613D01*
X88794773Y-84398557D01*
X88800437Y-84421166D01*
X88803856Y-84444221D01*
X88805000Y-84467500D01*
X88805000Y-85042500D01*
X88803856Y-85065779D01*
X88800437Y-85088834D01*
X88794773Y-85111443D01*
X88786921Y-85133387D01*
X88776956Y-85154457D01*
X88764974Y-85174448D01*
X88751090Y-85193168D01*
X88735438Y-85210438D01*
X88718168Y-85226090D01*
X88699448Y-85239974D01*
X88679457Y-85251956D01*
X88658387Y-85261921D01*
X88636443Y-85269773D01*
X88613834Y-85275437D01*
X88590779Y-85278856D01*
X88567500Y-85280000D01*
X88092500Y-85280000D01*
X88069221Y-85278856D01*
X88046166Y-85275437D01*
X88023557Y-85269773D01*
X88001613Y-85261921D01*
X87980543Y-85251956D01*
X87960552Y-85239974D01*
X87941832Y-85226090D01*
X87924562Y-85210438D01*
X87908910Y-85193168D01*
X87895026Y-85174448D01*
X87883044Y-85154457D01*
X87873079Y-85133387D01*
X87865227Y-85111443D01*
X87859563Y-85088834D01*
X87856144Y-85065779D01*
X87855000Y-85042500D01*
X87855000Y-84467500D01*
X87856144Y-84444221D01*
X87859563Y-84421166D01*
X87865227Y-84398557D01*
X87873079Y-84376613D01*
X87883044Y-84355543D01*
X87895026Y-84335552D01*
X87908910Y-84316832D01*
X87924562Y-84299562D01*
X87941832Y-84283910D01*
X87960552Y-84270026D01*
X87980543Y-84258044D01*
X88001613Y-84248079D01*
X88023557Y-84240227D01*
X88046166Y-84234563D01*
X88069221Y-84231144D01*
X88092500Y-84230000D01*
X88567500Y-84230000D01*
X88590779Y-84231144D01*
X88590779Y-84231144D01*
G37*
D11*
X88330000Y-84755000D03*
G04 #@! TD*
D10*
G04 #@! TO.C,C18*
G36*
X86515779Y-87906144D02*
X86538834Y-87909563D01*
X86561443Y-87915227D01*
X86583387Y-87923079D01*
X86604457Y-87933044D01*
X86624448Y-87945026D01*
X86643168Y-87958910D01*
X86660438Y-87974562D01*
X86676090Y-87991832D01*
X86689974Y-88010552D01*
X86701956Y-88030543D01*
X86711921Y-88051613D01*
X86719773Y-88073557D01*
X86725437Y-88096166D01*
X86728856Y-88119221D01*
X86730000Y-88142500D01*
X86730000Y-88617500D01*
X86728856Y-88640779D01*
X86725437Y-88663834D01*
X86719773Y-88686443D01*
X86711921Y-88708387D01*
X86701956Y-88729457D01*
X86689974Y-88749448D01*
X86676090Y-88768168D01*
X86660438Y-88785438D01*
X86643168Y-88801090D01*
X86624448Y-88814974D01*
X86604457Y-88826956D01*
X86583387Y-88836921D01*
X86561443Y-88844773D01*
X86538834Y-88850437D01*
X86515779Y-88853856D01*
X86492500Y-88855000D01*
X85917500Y-88855000D01*
X85894221Y-88853856D01*
X85871166Y-88850437D01*
X85848557Y-88844773D01*
X85826613Y-88836921D01*
X85805543Y-88826956D01*
X85785552Y-88814974D01*
X85766832Y-88801090D01*
X85749562Y-88785438D01*
X85733910Y-88768168D01*
X85720026Y-88749448D01*
X85708044Y-88729457D01*
X85698079Y-88708387D01*
X85690227Y-88686443D01*
X85684563Y-88663834D01*
X85681144Y-88640779D01*
X85680000Y-88617500D01*
X85680000Y-88142500D01*
X85681144Y-88119221D01*
X85684563Y-88096166D01*
X85690227Y-88073557D01*
X85698079Y-88051613D01*
X85708044Y-88030543D01*
X85720026Y-88010552D01*
X85733910Y-87991832D01*
X85749562Y-87974562D01*
X85766832Y-87958910D01*
X85785552Y-87945026D01*
X85805543Y-87933044D01*
X85826613Y-87923079D01*
X85848557Y-87915227D01*
X85871166Y-87909563D01*
X85894221Y-87906144D01*
X85917500Y-87905000D01*
X86492500Y-87905000D01*
X86515779Y-87906144D01*
X86515779Y-87906144D01*
G37*
D11*
X86205000Y-88380000D03*
D10*
G36*
X84765779Y-87906144D02*
X84788834Y-87909563D01*
X84811443Y-87915227D01*
X84833387Y-87923079D01*
X84854457Y-87933044D01*
X84874448Y-87945026D01*
X84893168Y-87958910D01*
X84910438Y-87974562D01*
X84926090Y-87991832D01*
X84939974Y-88010552D01*
X84951956Y-88030543D01*
X84961921Y-88051613D01*
X84969773Y-88073557D01*
X84975437Y-88096166D01*
X84978856Y-88119221D01*
X84980000Y-88142500D01*
X84980000Y-88617500D01*
X84978856Y-88640779D01*
X84975437Y-88663834D01*
X84969773Y-88686443D01*
X84961921Y-88708387D01*
X84951956Y-88729457D01*
X84939974Y-88749448D01*
X84926090Y-88768168D01*
X84910438Y-88785438D01*
X84893168Y-88801090D01*
X84874448Y-88814974D01*
X84854457Y-88826956D01*
X84833387Y-88836921D01*
X84811443Y-88844773D01*
X84788834Y-88850437D01*
X84765779Y-88853856D01*
X84742500Y-88855000D01*
X84167500Y-88855000D01*
X84144221Y-88853856D01*
X84121166Y-88850437D01*
X84098557Y-88844773D01*
X84076613Y-88836921D01*
X84055543Y-88826956D01*
X84035552Y-88814974D01*
X84016832Y-88801090D01*
X83999562Y-88785438D01*
X83983910Y-88768168D01*
X83970026Y-88749448D01*
X83958044Y-88729457D01*
X83948079Y-88708387D01*
X83940227Y-88686443D01*
X83934563Y-88663834D01*
X83931144Y-88640779D01*
X83930000Y-88617500D01*
X83930000Y-88142500D01*
X83931144Y-88119221D01*
X83934563Y-88096166D01*
X83940227Y-88073557D01*
X83948079Y-88051613D01*
X83958044Y-88030543D01*
X83970026Y-88010552D01*
X83983910Y-87991832D01*
X83999562Y-87974562D01*
X84016832Y-87958910D01*
X84035552Y-87945026D01*
X84055543Y-87933044D01*
X84076613Y-87923079D01*
X84098557Y-87915227D01*
X84121166Y-87909563D01*
X84144221Y-87906144D01*
X84167500Y-87905000D01*
X84742500Y-87905000D01*
X84765779Y-87906144D01*
X84765779Y-87906144D01*
G37*
D11*
X84455000Y-88380000D03*
G04 #@! TD*
D10*
G04 #@! TO.C,C17*
G36*
X79845779Y-89758144D02*
X79868834Y-89761563D01*
X79891443Y-89767227D01*
X79913387Y-89775079D01*
X79934457Y-89785044D01*
X79954448Y-89797026D01*
X79973168Y-89810910D01*
X79990438Y-89826562D01*
X80006090Y-89843832D01*
X80019974Y-89862552D01*
X80031956Y-89882543D01*
X80041921Y-89903613D01*
X80049773Y-89925557D01*
X80055437Y-89948166D01*
X80058856Y-89971221D01*
X80060000Y-89994500D01*
X80060000Y-90469500D01*
X80058856Y-90492779D01*
X80055437Y-90515834D01*
X80049773Y-90538443D01*
X80041921Y-90560387D01*
X80031956Y-90581457D01*
X80019974Y-90601448D01*
X80006090Y-90620168D01*
X79990438Y-90637438D01*
X79973168Y-90653090D01*
X79954448Y-90666974D01*
X79934457Y-90678956D01*
X79913387Y-90688921D01*
X79891443Y-90696773D01*
X79868834Y-90702437D01*
X79845779Y-90705856D01*
X79822500Y-90707000D01*
X79247500Y-90707000D01*
X79224221Y-90705856D01*
X79201166Y-90702437D01*
X79178557Y-90696773D01*
X79156613Y-90688921D01*
X79135543Y-90678956D01*
X79115552Y-90666974D01*
X79096832Y-90653090D01*
X79079562Y-90637438D01*
X79063910Y-90620168D01*
X79050026Y-90601448D01*
X79038044Y-90581457D01*
X79028079Y-90560387D01*
X79020227Y-90538443D01*
X79014563Y-90515834D01*
X79011144Y-90492779D01*
X79010000Y-90469500D01*
X79010000Y-89994500D01*
X79011144Y-89971221D01*
X79014563Y-89948166D01*
X79020227Y-89925557D01*
X79028079Y-89903613D01*
X79038044Y-89882543D01*
X79050026Y-89862552D01*
X79063910Y-89843832D01*
X79079562Y-89826562D01*
X79096832Y-89810910D01*
X79115552Y-89797026D01*
X79135543Y-89785044D01*
X79156613Y-89775079D01*
X79178557Y-89767227D01*
X79201166Y-89761563D01*
X79224221Y-89758144D01*
X79247500Y-89757000D01*
X79822500Y-89757000D01*
X79845779Y-89758144D01*
X79845779Y-89758144D01*
G37*
D11*
X79535000Y-90232000D03*
D10*
G36*
X78095779Y-89758144D02*
X78118834Y-89761563D01*
X78141443Y-89767227D01*
X78163387Y-89775079D01*
X78184457Y-89785044D01*
X78204448Y-89797026D01*
X78223168Y-89810910D01*
X78240438Y-89826562D01*
X78256090Y-89843832D01*
X78269974Y-89862552D01*
X78281956Y-89882543D01*
X78291921Y-89903613D01*
X78299773Y-89925557D01*
X78305437Y-89948166D01*
X78308856Y-89971221D01*
X78310000Y-89994500D01*
X78310000Y-90469500D01*
X78308856Y-90492779D01*
X78305437Y-90515834D01*
X78299773Y-90538443D01*
X78291921Y-90560387D01*
X78281956Y-90581457D01*
X78269974Y-90601448D01*
X78256090Y-90620168D01*
X78240438Y-90637438D01*
X78223168Y-90653090D01*
X78204448Y-90666974D01*
X78184457Y-90678956D01*
X78163387Y-90688921D01*
X78141443Y-90696773D01*
X78118834Y-90702437D01*
X78095779Y-90705856D01*
X78072500Y-90707000D01*
X77497500Y-90707000D01*
X77474221Y-90705856D01*
X77451166Y-90702437D01*
X77428557Y-90696773D01*
X77406613Y-90688921D01*
X77385543Y-90678956D01*
X77365552Y-90666974D01*
X77346832Y-90653090D01*
X77329562Y-90637438D01*
X77313910Y-90620168D01*
X77300026Y-90601448D01*
X77288044Y-90581457D01*
X77278079Y-90560387D01*
X77270227Y-90538443D01*
X77264563Y-90515834D01*
X77261144Y-90492779D01*
X77260000Y-90469500D01*
X77260000Y-89994500D01*
X77261144Y-89971221D01*
X77264563Y-89948166D01*
X77270227Y-89925557D01*
X77278079Y-89903613D01*
X77288044Y-89882543D01*
X77300026Y-89862552D01*
X77313910Y-89843832D01*
X77329562Y-89826562D01*
X77346832Y-89810910D01*
X77365552Y-89797026D01*
X77385543Y-89785044D01*
X77406613Y-89775079D01*
X77428557Y-89767227D01*
X77451166Y-89761563D01*
X77474221Y-89758144D01*
X77497500Y-89757000D01*
X78072500Y-89757000D01*
X78095779Y-89758144D01*
X78095779Y-89758144D01*
G37*
D11*
X77785000Y-90232000D03*
G04 #@! TD*
D10*
G04 #@! TO.C,C16*
G36*
X105765779Y-82506144D02*
X105788834Y-82509563D01*
X105811443Y-82515227D01*
X105833387Y-82523079D01*
X105854457Y-82533044D01*
X105874448Y-82545026D01*
X105893168Y-82558910D01*
X105910438Y-82574562D01*
X105926090Y-82591832D01*
X105939974Y-82610552D01*
X105951956Y-82630543D01*
X105961921Y-82651613D01*
X105969773Y-82673557D01*
X105975437Y-82696166D01*
X105978856Y-82719221D01*
X105980000Y-82742500D01*
X105980000Y-83217500D01*
X105978856Y-83240779D01*
X105975437Y-83263834D01*
X105969773Y-83286443D01*
X105961921Y-83308387D01*
X105951956Y-83329457D01*
X105939974Y-83349448D01*
X105926090Y-83368168D01*
X105910438Y-83385438D01*
X105893168Y-83401090D01*
X105874448Y-83414974D01*
X105854457Y-83426956D01*
X105833387Y-83436921D01*
X105811443Y-83444773D01*
X105788834Y-83450437D01*
X105765779Y-83453856D01*
X105742500Y-83455000D01*
X105167500Y-83455000D01*
X105144221Y-83453856D01*
X105121166Y-83450437D01*
X105098557Y-83444773D01*
X105076613Y-83436921D01*
X105055543Y-83426956D01*
X105035552Y-83414974D01*
X105016832Y-83401090D01*
X104999562Y-83385438D01*
X104983910Y-83368168D01*
X104970026Y-83349448D01*
X104958044Y-83329457D01*
X104948079Y-83308387D01*
X104940227Y-83286443D01*
X104934563Y-83263834D01*
X104931144Y-83240779D01*
X104930000Y-83217500D01*
X104930000Y-82742500D01*
X104931144Y-82719221D01*
X104934563Y-82696166D01*
X104940227Y-82673557D01*
X104948079Y-82651613D01*
X104958044Y-82630543D01*
X104970026Y-82610552D01*
X104983910Y-82591832D01*
X104999562Y-82574562D01*
X105016832Y-82558910D01*
X105035552Y-82545026D01*
X105055543Y-82533044D01*
X105076613Y-82523079D01*
X105098557Y-82515227D01*
X105121166Y-82509563D01*
X105144221Y-82506144D01*
X105167500Y-82505000D01*
X105742500Y-82505000D01*
X105765779Y-82506144D01*
X105765779Y-82506144D01*
G37*
D11*
X105455000Y-82980000D03*
D10*
G36*
X107515779Y-82506144D02*
X107538834Y-82509563D01*
X107561443Y-82515227D01*
X107583387Y-82523079D01*
X107604457Y-82533044D01*
X107624448Y-82545026D01*
X107643168Y-82558910D01*
X107660438Y-82574562D01*
X107676090Y-82591832D01*
X107689974Y-82610552D01*
X107701956Y-82630543D01*
X107711921Y-82651613D01*
X107719773Y-82673557D01*
X107725437Y-82696166D01*
X107728856Y-82719221D01*
X107730000Y-82742500D01*
X107730000Y-83217500D01*
X107728856Y-83240779D01*
X107725437Y-83263834D01*
X107719773Y-83286443D01*
X107711921Y-83308387D01*
X107701956Y-83329457D01*
X107689974Y-83349448D01*
X107676090Y-83368168D01*
X107660438Y-83385438D01*
X107643168Y-83401090D01*
X107624448Y-83414974D01*
X107604457Y-83426956D01*
X107583387Y-83436921D01*
X107561443Y-83444773D01*
X107538834Y-83450437D01*
X107515779Y-83453856D01*
X107492500Y-83455000D01*
X106917500Y-83455000D01*
X106894221Y-83453856D01*
X106871166Y-83450437D01*
X106848557Y-83444773D01*
X106826613Y-83436921D01*
X106805543Y-83426956D01*
X106785552Y-83414974D01*
X106766832Y-83401090D01*
X106749562Y-83385438D01*
X106733910Y-83368168D01*
X106720026Y-83349448D01*
X106708044Y-83329457D01*
X106698079Y-83308387D01*
X106690227Y-83286443D01*
X106684563Y-83263834D01*
X106681144Y-83240779D01*
X106680000Y-83217500D01*
X106680000Y-82742500D01*
X106681144Y-82719221D01*
X106684563Y-82696166D01*
X106690227Y-82673557D01*
X106698079Y-82651613D01*
X106708044Y-82630543D01*
X106720026Y-82610552D01*
X106733910Y-82591832D01*
X106749562Y-82574562D01*
X106766832Y-82558910D01*
X106785552Y-82545026D01*
X106805543Y-82533044D01*
X106826613Y-82523079D01*
X106848557Y-82515227D01*
X106871166Y-82509563D01*
X106894221Y-82506144D01*
X106917500Y-82505000D01*
X107492500Y-82505000D01*
X107515779Y-82506144D01*
X107515779Y-82506144D01*
G37*
D11*
X107205000Y-82980000D03*
G04 #@! TD*
D10*
G04 #@! TO.C,C11*
G36*
X83565779Y-82656144D02*
X83588834Y-82659563D01*
X83611443Y-82665227D01*
X83633387Y-82673079D01*
X83654457Y-82683044D01*
X83674448Y-82695026D01*
X83693168Y-82708910D01*
X83710438Y-82724562D01*
X83726090Y-82741832D01*
X83739974Y-82760552D01*
X83751956Y-82780543D01*
X83761921Y-82801613D01*
X83769773Y-82823557D01*
X83775437Y-82846166D01*
X83778856Y-82869221D01*
X83780000Y-82892500D01*
X83780000Y-83367500D01*
X83778856Y-83390779D01*
X83775437Y-83413834D01*
X83769773Y-83436443D01*
X83761921Y-83458387D01*
X83751956Y-83479457D01*
X83739974Y-83499448D01*
X83726090Y-83518168D01*
X83710438Y-83535438D01*
X83693168Y-83551090D01*
X83674448Y-83564974D01*
X83654457Y-83576956D01*
X83633387Y-83586921D01*
X83611443Y-83594773D01*
X83588834Y-83600437D01*
X83565779Y-83603856D01*
X83542500Y-83605000D01*
X82967500Y-83605000D01*
X82944221Y-83603856D01*
X82921166Y-83600437D01*
X82898557Y-83594773D01*
X82876613Y-83586921D01*
X82855543Y-83576956D01*
X82835552Y-83564974D01*
X82816832Y-83551090D01*
X82799562Y-83535438D01*
X82783910Y-83518168D01*
X82770026Y-83499448D01*
X82758044Y-83479457D01*
X82748079Y-83458387D01*
X82740227Y-83436443D01*
X82734563Y-83413834D01*
X82731144Y-83390779D01*
X82730000Y-83367500D01*
X82730000Y-82892500D01*
X82731144Y-82869221D01*
X82734563Y-82846166D01*
X82740227Y-82823557D01*
X82748079Y-82801613D01*
X82758044Y-82780543D01*
X82770026Y-82760552D01*
X82783910Y-82741832D01*
X82799562Y-82724562D01*
X82816832Y-82708910D01*
X82835552Y-82695026D01*
X82855543Y-82683044D01*
X82876613Y-82673079D01*
X82898557Y-82665227D01*
X82921166Y-82659563D01*
X82944221Y-82656144D01*
X82967500Y-82655000D01*
X83542500Y-82655000D01*
X83565779Y-82656144D01*
X83565779Y-82656144D01*
G37*
D11*
X83255000Y-83130000D03*
D10*
G36*
X85315779Y-82656144D02*
X85338834Y-82659563D01*
X85361443Y-82665227D01*
X85383387Y-82673079D01*
X85404457Y-82683044D01*
X85424448Y-82695026D01*
X85443168Y-82708910D01*
X85460438Y-82724562D01*
X85476090Y-82741832D01*
X85489974Y-82760552D01*
X85501956Y-82780543D01*
X85511921Y-82801613D01*
X85519773Y-82823557D01*
X85525437Y-82846166D01*
X85528856Y-82869221D01*
X85530000Y-82892500D01*
X85530000Y-83367500D01*
X85528856Y-83390779D01*
X85525437Y-83413834D01*
X85519773Y-83436443D01*
X85511921Y-83458387D01*
X85501956Y-83479457D01*
X85489974Y-83499448D01*
X85476090Y-83518168D01*
X85460438Y-83535438D01*
X85443168Y-83551090D01*
X85424448Y-83564974D01*
X85404457Y-83576956D01*
X85383387Y-83586921D01*
X85361443Y-83594773D01*
X85338834Y-83600437D01*
X85315779Y-83603856D01*
X85292500Y-83605000D01*
X84717500Y-83605000D01*
X84694221Y-83603856D01*
X84671166Y-83600437D01*
X84648557Y-83594773D01*
X84626613Y-83586921D01*
X84605543Y-83576956D01*
X84585552Y-83564974D01*
X84566832Y-83551090D01*
X84549562Y-83535438D01*
X84533910Y-83518168D01*
X84520026Y-83499448D01*
X84508044Y-83479457D01*
X84498079Y-83458387D01*
X84490227Y-83436443D01*
X84484563Y-83413834D01*
X84481144Y-83390779D01*
X84480000Y-83367500D01*
X84480000Y-82892500D01*
X84481144Y-82869221D01*
X84484563Y-82846166D01*
X84490227Y-82823557D01*
X84498079Y-82801613D01*
X84508044Y-82780543D01*
X84520026Y-82760552D01*
X84533910Y-82741832D01*
X84549562Y-82724562D01*
X84566832Y-82708910D01*
X84585552Y-82695026D01*
X84605543Y-82683044D01*
X84626613Y-82673079D01*
X84648557Y-82665227D01*
X84671166Y-82659563D01*
X84694221Y-82656144D01*
X84717500Y-82655000D01*
X85292500Y-82655000D01*
X85315779Y-82656144D01*
X85315779Y-82656144D01*
G37*
D11*
X85005000Y-83130000D03*
G04 #@! TD*
D10*
G04 #@! TO.C,C9*
G36*
X70915779Y-90306144D02*
X70938834Y-90309563D01*
X70961443Y-90315227D01*
X70983387Y-90323079D01*
X71004457Y-90333044D01*
X71024448Y-90345026D01*
X71043168Y-90358910D01*
X71060438Y-90374562D01*
X71076090Y-90391832D01*
X71089974Y-90410552D01*
X71101956Y-90430543D01*
X71111921Y-90451613D01*
X71119773Y-90473557D01*
X71125437Y-90496166D01*
X71128856Y-90519221D01*
X71130000Y-90542500D01*
X71130000Y-91017500D01*
X71128856Y-91040779D01*
X71125437Y-91063834D01*
X71119773Y-91086443D01*
X71111921Y-91108387D01*
X71101956Y-91129457D01*
X71089974Y-91149448D01*
X71076090Y-91168168D01*
X71060438Y-91185438D01*
X71043168Y-91201090D01*
X71024448Y-91214974D01*
X71004457Y-91226956D01*
X70983387Y-91236921D01*
X70961443Y-91244773D01*
X70938834Y-91250437D01*
X70915779Y-91253856D01*
X70892500Y-91255000D01*
X70317500Y-91255000D01*
X70294221Y-91253856D01*
X70271166Y-91250437D01*
X70248557Y-91244773D01*
X70226613Y-91236921D01*
X70205543Y-91226956D01*
X70185552Y-91214974D01*
X70166832Y-91201090D01*
X70149562Y-91185438D01*
X70133910Y-91168168D01*
X70120026Y-91149448D01*
X70108044Y-91129457D01*
X70098079Y-91108387D01*
X70090227Y-91086443D01*
X70084563Y-91063834D01*
X70081144Y-91040779D01*
X70080000Y-91017500D01*
X70080000Y-90542500D01*
X70081144Y-90519221D01*
X70084563Y-90496166D01*
X70090227Y-90473557D01*
X70098079Y-90451613D01*
X70108044Y-90430543D01*
X70120026Y-90410552D01*
X70133910Y-90391832D01*
X70149562Y-90374562D01*
X70166832Y-90358910D01*
X70185552Y-90345026D01*
X70205543Y-90333044D01*
X70226613Y-90323079D01*
X70248557Y-90315227D01*
X70271166Y-90309563D01*
X70294221Y-90306144D01*
X70317500Y-90305000D01*
X70892500Y-90305000D01*
X70915779Y-90306144D01*
X70915779Y-90306144D01*
G37*
D11*
X70605000Y-90780000D03*
D10*
G36*
X69165779Y-90306144D02*
X69188834Y-90309563D01*
X69211443Y-90315227D01*
X69233387Y-90323079D01*
X69254457Y-90333044D01*
X69274448Y-90345026D01*
X69293168Y-90358910D01*
X69310438Y-90374562D01*
X69326090Y-90391832D01*
X69339974Y-90410552D01*
X69351956Y-90430543D01*
X69361921Y-90451613D01*
X69369773Y-90473557D01*
X69375437Y-90496166D01*
X69378856Y-90519221D01*
X69380000Y-90542500D01*
X69380000Y-91017500D01*
X69378856Y-91040779D01*
X69375437Y-91063834D01*
X69369773Y-91086443D01*
X69361921Y-91108387D01*
X69351956Y-91129457D01*
X69339974Y-91149448D01*
X69326090Y-91168168D01*
X69310438Y-91185438D01*
X69293168Y-91201090D01*
X69274448Y-91214974D01*
X69254457Y-91226956D01*
X69233387Y-91236921D01*
X69211443Y-91244773D01*
X69188834Y-91250437D01*
X69165779Y-91253856D01*
X69142500Y-91255000D01*
X68567500Y-91255000D01*
X68544221Y-91253856D01*
X68521166Y-91250437D01*
X68498557Y-91244773D01*
X68476613Y-91236921D01*
X68455543Y-91226956D01*
X68435552Y-91214974D01*
X68416832Y-91201090D01*
X68399562Y-91185438D01*
X68383910Y-91168168D01*
X68370026Y-91149448D01*
X68358044Y-91129457D01*
X68348079Y-91108387D01*
X68340227Y-91086443D01*
X68334563Y-91063834D01*
X68331144Y-91040779D01*
X68330000Y-91017500D01*
X68330000Y-90542500D01*
X68331144Y-90519221D01*
X68334563Y-90496166D01*
X68340227Y-90473557D01*
X68348079Y-90451613D01*
X68358044Y-90430543D01*
X68370026Y-90410552D01*
X68383910Y-90391832D01*
X68399562Y-90374562D01*
X68416832Y-90358910D01*
X68435552Y-90345026D01*
X68455543Y-90333044D01*
X68476613Y-90323079D01*
X68498557Y-90315227D01*
X68521166Y-90309563D01*
X68544221Y-90306144D01*
X68567500Y-90305000D01*
X69142500Y-90305000D01*
X69165779Y-90306144D01*
X69165779Y-90306144D01*
G37*
D11*
X68855000Y-90780000D03*
G04 #@! TD*
D10*
G04 #@! TO.C,C6*
G36*
X108815779Y-99906144D02*
X108838834Y-99909563D01*
X108861443Y-99915227D01*
X108883387Y-99923079D01*
X108904457Y-99933044D01*
X108924448Y-99945026D01*
X108943168Y-99958910D01*
X108960438Y-99974562D01*
X108976090Y-99991832D01*
X108989974Y-100010552D01*
X109001956Y-100030543D01*
X109011921Y-100051613D01*
X109019773Y-100073557D01*
X109025437Y-100096166D01*
X109028856Y-100119221D01*
X109030000Y-100142500D01*
X109030000Y-100617500D01*
X109028856Y-100640779D01*
X109025437Y-100663834D01*
X109019773Y-100686443D01*
X109011921Y-100708387D01*
X109001956Y-100729457D01*
X108989974Y-100749448D01*
X108976090Y-100768168D01*
X108960438Y-100785438D01*
X108943168Y-100801090D01*
X108924448Y-100814974D01*
X108904457Y-100826956D01*
X108883387Y-100836921D01*
X108861443Y-100844773D01*
X108838834Y-100850437D01*
X108815779Y-100853856D01*
X108792500Y-100855000D01*
X108217500Y-100855000D01*
X108194221Y-100853856D01*
X108171166Y-100850437D01*
X108148557Y-100844773D01*
X108126613Y-100836921D01*
X108105543Y-100826956D01*
X108085552Y-100814974D01*
X108066832Y-100801090D01*
X108049562Y-100785438D01*
X108033910Y-100768168D01*
X108020026Y-100749448D01*
X108008044Y-100729457D01*
X107998079Y-100708387D01*
X107990227Y-100686443D01*
X107984563Y-100663834D01*
X107981144Y-100640779D01*
X107980000Y-100617500D01*
X107980000Y-100142500D01*
X107981144Y-100119221D01*
X107984563Y-100096166D01*
X107990227Y-100073557D01*
X107998079Y-100051613D01*
X108008044Y-100030543D01*
X108020026Y-100010552D01*
X108033910Y-99991832D01*
X108049562Y-99974562D01*
X108066832Y-99958910D01*
X108085552Y-99945026D01*
X108105543Y-99933044D01*
X108126613Y-99923079D01*
X108148557Y-99915227D01*
X108171166Y-99909563D01*
X108194221Y-99906144D01*
X108217500Y-99905000D01*
X108792500Y-99905000D01*
X108815779Y-99906144D01*
X108815779Y-99906144D01*
G37*
D11*
X108505000Y-100380000D03*
D10*
G36*
X107065779Y-99906144D02*
X107088834Y-99909563D01*
X107111443Y-99915227D01*
X107133387Y-99923079D01*
X107154457Y-99933044D01*
X107174448Y-99945026D01*
X107193168Y-99958910D01*
X107210438Y-99974562D01*
X107226090Y-99991832D01*
X107239974Y-100010552D01*
X107251956Y-100030543D01*
X107261921Y-100051613D01*
X107269773Y-100073557D01*
X107275437Y-100096166D01*
X107278856Y-100119221D01*
X107280000Y-100142500D01*
X107280000Y-100617500D01*
X107278856Y-100640779D01*
X107275437Y-100663834D01*
X107269773Y-100686443D01*
X107261921Y-100708387D01*
X107251956Y-100729457D01*
X107239974Y-100749448D01*
X107226090Y-100768168D01*
X107210438Y-100785438D01*
X107193168Y-100801090D01*
X107174448Y-100814974D01*
X107154457Y-100826956D01*
X107133387Y-100836921D01*
X107111443Y-100844773D01*
X107088834Y-100850437D01*
X107065779Y-100853856D01*
X107042500Y-100855000D01*
X106467500Y-100855000D01*
X106444221Y-100853856D01*
X106421166Y-100850437D01*
X106398557Y-100844773D01*
X106376613Y-100836921D01*
X106355543Y-100826956D01*
X106335552Y-100814974D01*
X106316832Y-100801090D01*
X106299562Y-100785438D01*
X106283910Y-100768168D01*
X106270026Y-100749448D01*
X106258044Y-100729457D01*
X106248079Y-100708387D01*
X106240227Y-100686443D01*
X106234563Y-100663834D01*
X106231144Y-100640779D01*
X106230000Y-100617500D01*
X106230000Y-100142500D01*
X106231144Y-100119221D01*
X106234563Y-100096166D01*
X106240227Y-100073557D01*
X106248079Y-100051613D01*
X106258044Y-100030543D01*
X106270026Y-100010552D01*
X106283910Y-99991832D01*
X106299562Y-99974562D01*
X106316832Y-99958910D01*
X106335552Y-99945026D01*
X106355543Y-99933044D01*
X106376613Y-99923079D01*
X106398557Y-99915227D01*
X106421166Y-99909563D01*
X106444221Y-99906144D01*
X106467500Y-99905000D01*
X107042500Y-99905000D01*
X107065779Y-99906144D01*
X107065779Y-99906144D01*
G37*
D11*
X106755000Y-100380000D03*
G04 #@! TD*
D10*
G04 #@! TO.C,C15*
G36*
X101565779Y-82506144D02*
X101588834Y-82509563D01*
X101611443Y-82515227D01*
X101633387Y-82523079D01*
X101654457Y-82533044D01*
X101674448Y-82545026D01*
X101693168Y-82558910D01*
X101710438Y-82574562D01*
X101726090Y-82591832D01*
X101739974Y-82610552D01*
X101751956Y-82630543D01*
X101761921Y-82651613D01*
X101769773Y-82673557D01*
X101775437Y-82696166D01*
X101778856Y-82719221D01*
X101780000Y-82742500D01*
X101780000Y-83217500D01*
X101778856Y-83240779D01*
X101775437Y-83263834D01*
X101769773Y-83286443D01*
X101761921Y-83308387D01*
X101751956Y-83329457D01*
X101739974Y-83349448D01*
X101726090Y-83368168D01*
X101710438Y-83385438D01*
X101693168Y-83401090D01*
X101674448Y-83414974D01*
X101654457Y-83426956D01*
X101633387Y-83436921D01*
X101611443Y-83444773D01*
X101588834Y-83450437D01*
X101565779Y-83453856D01*
X101542500Y-83455000D01*
X100967500Y-83455000D01*
X100944221Y-83453856D01*
X100921166Y-83450437D01*
X100898557Y-83444773D01*
X100876613Y-83436921D01*
X100855543Y-83426956D01*
X100835552Y-83414974D01*
X100816832Y-83401090D01*
X100799562Y-83385438D01*
X100783910Y-83368168D01*
X100770026Y-83349448D01*
X100758044Y-83329457D01*
X100748079Y-83308387D01*
X100740227Y-83286443D01*
X100734563Y-83263834D01*
X100731144Y-83240779D01*
X100730000Y-83217500D01*
X100730000Y-82742500D01*
X100731144Y-82719221D01*
X100734563Y-82696166D01*
X100740227Y-82673557D01*
X100748079Y-82651613D01*
X100758044Y-82630543D01*
X100770026Y-82610552D01*
X100783910Y-82591832D01*
X100799562Y-82574562D01*
X100816832Y-82558910D01*
X100835552Y-82545026D01*
X100855543Y-82533044D01*
X100876613Y-82523079D01*
X100898557Y-82515227D01*
X100921166Y-82509563D01*
X100944221Y-82506144D01*
X100967500Y-82505000D01*
X101542500Y-82505000D01*
X101565779Y-82506144D01*
X101565779Y-82506144D01*
G37*
D11*
X101255000Y-82980000D03*
D10*
G36*
X103315779Y-82506144D02*
X103338834Y-82509563D01*
X103361443Y-82515227D01*
X103383387Y-82523079D01*
X103404457Y-82533044D01*
X103424448Y-82545026D01*
X103443168Y-82558910D01*
X103460438Y-82574562D01*
X103476090Y-82591832D01*
X103489974Y-82610552D01*
X103501956Y-82630543D01*
X103511921Y-82651613D01*
X103519773Y-82673557D01*
X103525437Y-82696166D01*
X103528856Y-82719221D01*
X103530000Y-82742500D01*
X103530000Y-83217500D01*
X103528856Y-83240779D01*
X103525437Y-83263834D01*
X103519773Y-83286443D01*
X103511921Y-83308387D01*
X103501956Y-83329457D01*
X103489974Y-83349448D01*
X103476090Y-83368168D01*
X103460438Y-83385438D01*
X103443168Y-83401090D01*
X103424448Y-83414974D01*
X103404457Y-83426956D01*
X103383387Y-83436921D01*
X103361443Y-83444773D01*
X103338834Y-83450437D01*
X103315779Y-83453856D01*
X103292500Y-83455000D01*
X102717500Y-83455000D01*
X102694221Y-83453856D01*
X102671166Y-83450437D01*
X102648557Y-83444773D01*
X102626613Y-83436921D01*
X102605543Y-83426956D01*
X102585552Y-83414974D01*
X102566832Y-83401090D01*
X102549562Y-83385438D01*
X102533910Y-83368168D01*
X102520026Y-83349448D01*
X102508044Y-83329457D01*
X102498079Y-83308387D01*
X102490227Y-83286443D01*
X102484563Y-83263834D01*
X102481144Y-83240779D01*
X102480000Y-83217500D01*
X102480000Y-82742500D01*
X102481144Y-82719221D01*
X102484563Y-82696166D01*
X102490227Y-82673557D01*
X102498079Y-82651613D01*
X102508044Y-82630543D01*
X102520026Y-82610552D01*
X102533910Y-82591832D01*
X102549562Y-82574562D01*
X102566832Y-82558910D01*
X102585552Y-82545026D01*
X102605543Y-82533044D01*
X102626613Y-82523079D01*
X102648557Y-82515227D01*
X102671166Y-82509563D01*
X102694221Y-82506144D01*
X102717500Y-82505000D01*
X103292500Y-82505000D01*
X103315779Y-82506144D01*
X103315779Y-82506144D01*
G37*
D11*
X103005000Y-82980000D03*
G04 #@! TD*
D12*
G04 #@! TO.C,U6*
X106930000Y-84675000D03*
X106930000Y-85945000D03*
X106930000Y-87215000D03*
X106930000Y-88485000D03*
X101530000Y-88485000D03*
X101530000Y-87215000D03*
X101530000Y-85945000D03*
X101530000Y-84675000D03*
G04 #@! TD*
D13*
G04 #@! TO.C,U5*
X93925000Y-88680000D03*
X95195000Y-88680000D03*
X96465000Y-88680000D03*
X97735000Y-88680000D03*
X97735000Y-83280000D03*
X96465000Y-83280000D03*
X95195000Y-83280000D03*
X93925000Y-83280000D03*
G04 #@! TD*
D12*
G04 #@! TO.C,U4*
X82330000Y-84675000D03*
X82330000Y-85945000D03*
X82330000Y-87215000D03*
X82330000Y-88485000D03*
X76930000Y-88485000D03*
X76930000Y-87215000D03*
X76930000Y-85945000D03*
X76930000Y-84675000D03*
G04 #@! TD*
D13*
G04 #@! TO.C,U3*
X67225000Y-88680000D03*
X68495000Y-88680000D03*
X69765000Y-88680000D03*
X71035000Y-88680000D03*
X71035000Y-83280000D03*
X69765000Y-83280000D03*
X68495000Y-83280000D03*
X67225000Y-83280000D03*
G04 #@! TD*
D14*
G04 #@! TO.C,U1*
X64780000Y-97344000D03*
D15*
X71080000Y-97344000D03*
X71080000Y-95044000D03*
X71080000Y-99644000D03*
G04 #@! TD*
D10*
G04 #@! TO.C,R7*
G36*
X86515779Y-86106144D02*
X86538834Y-86109563D01*
X86561443Y-86115227D01*
X86583387Y-86123079D01*
X86604457Y-86133044D01*
X86624448Y-86145026D01*
X86643168Y-86158910D01*
X86660438Y-86174562D01*
X86676090Y-86191832D01*
X86689974Y-86210552D01*
X86701956Y-86230543D01*
X86711921Y-86251613D01*
X86719773Y-86273557D01*
X86725437Y-86296166D01*
X86728856Y-86319221D01*
X86730000Y-86342500D01*
X86730000Y-86817500D01*
X86728856Y-86840779D01*
X86725437Y-86863834D01*
X86719773Y-86886443D01*
X86711921Y-86908387D01*
X86701956Y-86929457D01*
X86689974Y-86949448D01*
X86676090Y-86968168D01*
X86660438Y-86985438D01*
X86643168Y-87001090D01*
X86624448Y-87014974D01*
X86604457Y-87026956D01*
X86583387Y-87036921D01*
X86561443Y-87044773D01*
X86538834Y-87050437D01*
X86515779Y-87053856D01*
X86492500Y-87055000D01*
X85917500Y-87055000D01*
X85894221Y-87053856D01*
X85871166Y-87050437D01*
X85848557Y-87044773D01*
X85826613Y-87036921D01*
X85805543Y-87026956D01*
X85785552Y-87014974D01*
X85766832Y-87001090D01*
X85749562Y-86985438D01*
X85733910Y-86968168D01*
X85720026Y-86949448D01*
X85708044Y-86929457D01*
X85698079Y-86908387D01*
X85690227Y-86886443D01*
X85684563Y-86863834D01*
X85681144Y-86840779D01*
X85680000Y-86817500D01*
X85680000Y-86342500D01*
X85681144Y-86319221D01*
X85684563Y-86296166D01*
X85690227Y-86273557D01*
X85698079Y-86251613D01*
X85708044Y-86230543D01*
X85720026Y-86210552D01*
X85733910Y-86191832D01*
X85749562Y-86174562D01*
X85766832Y-86158910D01*
X85785552Y-86145026D01*
X85805543Y-86133044D01*
X85826613Y-86123079D01*
X85848557Y-86115227D01*
X85871166Y-86109563D01*
X85894221Y-86106144D01*
X85917500Y-86105000D01*
X86492500Y-86105000D01*
X86515779Y-86106144D01*
X86515779Y-86106144D01*
G37*
D11*
X86205000Y-86580000D03*
D10*
G36*
X84765779Y-86106144D02*
X84788834Y-86109563D01*
X84811443Y-86115227D01*
X84833387Y-86123079D01*
X84854457Y-86133044D01*
X84874448Y-86145026D01*
X84893168Y-86158910D01*
X84910438Y-86174562D01*
X84926090Y-86191832D01*
X84939974Y-86210552D01*
X84951956Y-86230543D01*
X84961921Y-86251613D01*
X84969773Y-86273557D01*
X84975437Y-86296166D01*
X84978856Y-86319221D01*
X84980000Y-86342500D01*
X84980000Y-86817500D01*
X84978856Y-86840779D01*
X84975437Y-86863834D01*
X84969773Y-86886443D01*
X84961921Y-86908387D01*
X84951956Y-86929457D01*
X84939974Y-86949448D01*
X84926090Y-86968168D01*
X84910438Y-86985438D01*
X84893168Y-87001090D01*
X84874448Y-87014974D01*
X84854457Y-87026956D01*
X84833387Y-87036921D01*
X84811443Y-87044773D01*
X84788834Y-87050437D01*
X84765779Y-87053856D01*
X84742500Y-87055000D01*
X84167500Y-87055000D01*
X84144221Y-87053856D01*
X84121166Y-87050437D01*
X84098557Y-87044773D01*
X84076613Y-87036921D01*
X84055543Y-87026956D01*
X84035552Y-87014974D01*
X84016832Y-87001090D01*
X83999562Y-86985438D01*
X83983910Y-86968168D01*
X83970026Y-86949448D01*
X83958044Y-86929457D01*
X83948079Y-86908387D01*
X83940227Y-86886443D01*
X83934563Y-86863834D01*
X83931144Y-86840779D01*
X83930000Y-86817500D01*
X83930000Y-86342500D01*
X83931144Y-86319221D01*
X83934563Y-86296166D01*
X83940227Y-86273557D01*
X83948079Y-86251613D01*
X83958044Y-86230543D01*
X83970026Y-86210552D01*
X83983910Y-86191832D01*
X83999562Y-86174562D01*
X84016832Y-86158910D01*
X84035552Y-86145026D01*
X84055543Y-86133044D01*
X84076613Y-86123079D01*
X84098557Y-86115227D01*
X84121166Y-86109563D01*
X84144221Y-86106144D01*
X84167500Y-86105000D01*
X84742500Y-86105000D01*
X84765779Y-86106144D01*
X84765779Y-86106144D01*
G37*
D11*
X84455000Y-86580000D03*
G04 #@! TD*
D10*
G04 #@! TO.C,R16*
G36*
X99690779Y-86031144D02*
X99713834Y-86034563D01*
X99736443Y-86040227D01*
X99758387Y-86048079D01*
X99779457Y-86058044D01*
X99799448Y-86070026D01*
X99818168Y-86083910D01*
X99835438Y-86099562D01*
X99851090Y-86116832D01*
X99864974Y-86135552D01*
X99876956Y-86155543D01*
X99886921Y-86176613D01*
X99894773Y-86198557D01*
X99900437Y-86221166D01*
X99903856Y-86244221D01*
X99905000Y-86267500D01*
X99905000Y-86842500D01*
X99903856Y-86865779D01*
X99900437Y-86888834D01*
X99894773Y-86911443D01*
X99886921Y-86933387D01*
X99876956Y-86954457D01*
X99864974Y-86974448D01*
X99851090Y-86993168D01*
X99835438Y-87010438D01*
X99818168Y-87026090D01*
X99799448Y-87039974D01*
X99779457Y-87051956D01*
X99758387Y-87061921D01*
X99736443Y-87069773D01*
X99713834Y-87075437D01*
X99690779Y-87078856D01*
X99667500Y-87080000D01*
X99192500Y-87080000D01*
X99169221Y-87078856D01*
X99146166Y-87075437D01*
X99123557Y-87069773D01*
X99101613Y-87061921D01*
X99080543Y-87051956D01*
X99060552Y-87039974D01*
X99041832Y-87026090D01*
X99024562Y-87010438D01*
X99008910Y-86993168D01*
X98995026Y-86974448D01*
X98983044Y-86954457D01*
X98973079Y-86933387D01*
X98965227Y-86911443D01*
X98959563Y-86888834D01*
X98956144Y-86865779D01*
X98955000Y-86842500D01*
X98955000Y-86267500D01*
X98956144Y-86244221D01*
X98959563Y-86221166D01*
X98965227Y-86198557D01*
X98973079Y-86176613D01*
X98983044Y-86155543D01*
X98995026Y-86135552D01*
X99008910Y-86116832D01*
X99024562Y-86099562D01*
X99041832Y-86083910D01*
X99060552Y-86070026D01*
X99080543Y-86058044D01*
X99101613Y-86048079D01*
X99123557Y-86040227D01*
X99146166Y-86034563D01*
X99169221Y-86031144D01*
X99192500Y-86030000D01*
X99667500Y-86030000D01*
X99690779Y-86031144D01*
X99690779Y-86031144D01*
G37*
D11*
X99430000Y-86555000D03*
D10*
G36*
X99690779Y-84281144D02*
X99713834Y-84284563D01*
X99736443Y-84290227D01*
X99758387Y-84298079D01*
X99779457Y-84308044D01*
X99799448Y-84320026D01*
X99818168Y-84333910D01*
X99835438Y-84349562D01*
X99851090Y-84366832D01*
X99864974Y-84385552D01*
X99876956Y-84405543D01*
X99886921Y-84426613D01*
X99894773Y-84448557D01*
X99900437Y-84471166D01*
X99903856Y-84494221D01*
X99905000Y-84517500D01*
X99905000Y-85092500D01*
X99903856Y-85115779D01*
X99900437Y-85138834D01*
X99894773Y-85161443D01*
X99886921Y-85183387D01*
X99876956Y-85204457D01*
X99864974Y-85224448D01*
X99851090Y-85243168D01*
X99835438Y-85260438D01*
X99818168Y-85276090D01*
X99799448Y-85289974D01*
X99779457Y-85301956D01*
X99758387Y-85311921D01*
X99736443Y-85319773D01*
X99713834Y-85325437D01*
X99690779Y-85328856D01*
X99667500Y-85330000D01*
X99192500Y-85330000D01*
X99169221Y-85328856D01*
X99146166Y-85325437D01*
X99123557Y-85319773D01*
X99101613Y-85311921D01*
X99080543Y-85301956D01*
X99060552Y-85289974D01*
X99041832Y-85276090D01*
X99024562Y-85260438D01*
X99008910Y-85243168D01*
X98995026Y-85224448D01*
X98983044Y-85204457D01*
X98973079Y-85183387D01*
X98965227Y-85161443D01*
X98959563Y-85138834D01*
X98956144Y-85115779D01*
X98955000Y-85092500D01*
X98955000Y-84517500D01*
X98956144Y-84494221D01*
X98959563Y-84471166D01*
X98965227Y-84448557D01*
X98973079Y-84426613D01*
X98983044Y-84405543D01*
X98995026Y-84385552D01*
X99008910Y-84366832D01*
X99024562Y-84349562D01*
X99041832Y-84333910D01*
X99060552Y-84320026D01*
X99080543Y-84308044D01*
X99101613Y-84298079D01*
X99123557Y-84290227D01*
X99146166Y-84284563D01*
X99169221Y-84281144D01*
X99192500Y-84280000D01*
X99667500Y-84280000D01*
X99690779Y-84281144D01*
X99690779Y-84281144D01*
G37*
D11*
X99430000Y-84805000D03*
G04 #@! TD*
D10*
G04 #@! TO.C,R9*
G36*
X92215779Y-86106144D02*
X92238834Y-86109563D01*
X92261443Y-86115227D01*
X92283387Y-86123079D01*
X92304457Y-86133044D01*
X92324448Y-86145026D01*
X92343168Y-86158910D01*
X92360438Y-86174562D01*
X92376090Y-86191832D01*
X92389974Y-86210552D01*
X92401956Y-86230543D01*
X92411921Y-86251613D01*
X92419773Y-86273557D01*
X92425437Y-86296166D01*
X92428856Y-86319221D01*
X92430000Y-86342500D01*
X92430000Y-86817500D01*
X92428856Y-86840779D01*
X92425437Y-86863834D01*
X92419773Y-86886443D01*
X92411921Y-86908387D01*
X92401956Y-86929457D01*
X92389974Y-86949448D01*
X92376090Y-86968168D01*
X92360438Y-86985438D01*
X92343168Y-87001090D01*
X92324448Y-87014974D01*
X92304457Y-87026956D01*
X92283387Y-87036921D01*
X92261443Y-87044773D01*
X92238834Y-87050437D01*
X92215779Y-87053856D01*
X92192500Y-87055000D01*
X91617500Y-87055000D01*
X91594221Y-87053856D01*
X91571166Y-87050437D01*
X91548557Y-87044773D01*
X91526613Y-87036921D01*
X91505543Y-87026956D01*
X91485552Y-87014974D01*
X91466832Y-87001090D01*
X91449562Y-86985438D01*
X91433910Y-86968168D01*
X91420026Y-86949448D01*
X91408044Y-86929457D01*
X91398079Y-86908387D01*
X91390227Y-86886443D01*
X91384563Y-86863834D01*
X91381144Y-86840779D01*
X91380000Y-86817500D01*
X91380000Y-86342500D01*
X91381144Y-86319221D01*
X91384563Y-86296166D01*
X91390227Y-86273557D01*
X91398079Y-86251613D01*
X91408044Y-86230543D01*
X91420026Y-86210552D01*
X91433910Y-86191832D01*
X91449562Y-86174562D01*
X91466832Y-86158910D01*
X91485552Y-86145026D01*
X91505543Y-86133044D01*
X91526613Y-86123079D01*
X91548557Y-86115227D01*
X91571166Y-86109563D01*
X91594221Y-86106144D01*
X91617500Y-86105000D01*
X92192500Y-86105000D01*
X92215779Y-86106144D01*
X92215779Y-86106144D01*
G37*
D11*
X91905000Y-86580000D03*
D10*
G36*
X90465779Y-86106144D02*
X90488834Y-86109563D01*
X90511443Y-86115227D01*
X90533387Y-86123079D01*
X90554457Y-86133044D01*
X90574448Y-86145026D01*
X90593168Y-86158910D01*
X90610438Y-86174562D01*
X90626090Y-86191832D01*
X90639974Y-86210552D01*
X90651956Y-86230543D01*
X90661921Y-86251613D01*
X90669773Y-86273557D01*
X90675437Y-86296166D01*
X90678856Y-86319221D01*
X90680000Y-86342500D01*
X90680000Y-86817500D01*
X90678856Y-86840779D01*
X90675437Y-86863834D01*
X90669773Y-86886443D01*
X90661921Y-86908387D01*
X90651956Y-86929457D01*
X90639974Y-86949448D01*
X90626090Y-86968168D01*
X90610438Y-86985438D01*
X90593168Y-87001090D01*
X90574448Y-87014974D01*
X90554457Y-87026956D01*
X90533387Y-87036921D01*
X90511443Y-87044773D01*
X90488834Y-87050437D01*
X90465779Y-87053856D01*
X90442500Y-87055000D01*
X89867500Y-87055000D01*
X89844221Y-87053856D01*
X89821166Y-87050437D01*
X89798557Y-87044773D01*
X89776613Y-87036921D01*
X89755543Y-87026956D01*
X89735552Y-87014974D01*
X89716832Y-87001090D01*
X89699562Y-86985438D01*
X89683910Y-86968168D01*
X89670026Y-86949448D01*
X89658044Y-86929457D01*
X89648079Y-86908387D01*
X89640227Y-86886443D01*
X89634563Y-86863834D01*
X89631144Y-86840779D01*
X89630000Y-86817500D01*
X89630000Y-86342500D01*
X89631144Y-86319221D01*
X89634563Y-86296166D01*
X89640227Y-86273557D01*
X89648079Y-86251613D01*
X89658044Y-86230543D01*
X89670026Y-86210552D01*
X89683910Y-86191832D01*
X89699562Y-86174562D01*
X89716832Y-86158910D01*
X89735552Y-86145026D01*
X89755543Y-86133044D01*
X89776613Y-86123079D01*
X89798557Y-86115227D01*
X89821166Y-86109563D01*
X89844221Y-86106144D01*
X89867500Y-86105000D01*
X90442500Y-86105000D01*
X90465779Y-86106144D01*
X90465779Y-86106144D01*
G37*
D11*
X90155000Y-86580000D03*
G04 #@! TD*
D10*
G04 #@! TO.C,R1*
G36*
X101815779Y-92406144D02*
X101838834Y-92409563D01*
X101861443Y-92415227D01*
X101883387Y-92423079D01*
X101904457Y-92433044D01*
X101924448Y-92445026D01*
X101943168Y-92458910D01*
X101960438Y-92474562D01*
X101976090Y-92491832D01*
X101989974Y-92510552D01*
X102001956Y-92530543D01*
X102011921Y-92551613D01*
X102019773Y-92573557D01*
X102025437Y-92596166D01*
X102028856Y-92619221D01*
X102030000Y-92642500D01*
X102030000Y-93117500D01*
X102028856Y-93140779D01*
X102025437Y-93163834D01*
X102019773Y-93186443D01*
X102011921Y-93208387D01*
X102001956Y-93229457D01*
X101989974Y-93249448D01*
X101976090Y-93268168D01*
X101960438Y-93285438D01*
X101943168Y-93301090D01*
X101924448Y-93314974D01*
X101904457Y-93326956D01*
X101883387Y-93336921D01*
X101861443Y-93344773D01*
X101838834Y-93350437D01*
X101815779Y-93353856D01*
X101792500Y-93355000D01*
X101217500Y-93355000D01*
X101194221Y-93353856D01*
X101171166Y-93350437D01*
X101148557Y-93344773D01*
X101126613Y-93336921D01*
X101105543Y-93326956D01*
X101085552Y-93314974D01*
X101066832Y-93301090D01*
X101049562Y-93285438D01*
X101033910Y-93268168D01*
X101020026Y-93249448D01*
X101008044Y-93229457D01*
X100998079Y-93208387D01*
X100990227Y-93186443D01*
X100984563Y-93163834D01*
X100981144Y-93140779D01*
X100980000Y-93117500D01*
X100980000Y-92642500D01*
X100981144Y-92619221D01*
X100984563Y-92596166D01*
X100990227Y-92573557D01*
X100998079Y-92551613D01*
X101008044Y-92530543D01*
X101020026Y-92510552D01*
X101033910Y-92491832D01*
X101049562Y-92474562D01*
X101066832Y-92458910D01*
X101085552Y-92445026D01*
X101105543Y-92433044D01*
X101126613Y-92423079D01*
X101148557Y-92415227D01*
X101171166Y-92409563D01*
X101194221Y-92406144D01*
X101217500Y-92405000D01*
X101792500Y-92405000D01*
X101815779Y-92406144D01*
X101815779Y-92406144D01*
G37*
D11*
X101505000Y-92880000D03*
D10*
G36*
X100065779Y-92406144D02*
X100088834Y-92409563D01*
X100111443Y-92415227D01*
X100133387Y-92423079D01*
X100154457Y-92433044D01*
X100174448Y-92445026D01*
X100193168Y-92458910D01*
X100210438Y-92474562D01*
X100226090Y-92491832D01*
X100239974Y-92510552D01*
X100251956Y-92530543D01*
X100261921Y-92551613D01*
X100269773Y-92573557D01*
X100275437Y-92596166D01*
X100278856Y-92619221D01*
X100280000Y-92642500D01*
X100280000Y-93117500D01*
X100278856Y-93140779D01*
X100275437Y-93163834D01*
X100269773Y-93186443D01*
X100261921Y-93208387D01*
X100251956Y-93229457D01*
X100239974Y-93249448D01*
X100226090Y-93268168D01*
X100210438Y-93285438D01*
X100193168Y-93301090D01*
X100174448Y-93314974D01*
X100154457Y-93326956D01*
X100133387Y-93336921D01*
X100111443Y-93344773D01*
X100088834Y-93350437D01*
X100065779Y-93353856D01*
X100042500Y-93355000D01*
X99467500Y-93355000D01*
X99444221Y-93353856D01*
X99421166Y-93350437D01*
X99398557Y-93344773D01*
X99376613Y-93336921D01*
X99355543Y-93326956D01*
X99335552Y-93314974D01*
X99316832Y-93301090D01*
X99299562Y-93285438D01*
X99283910Y-93268168D01*
X99270026Y-93249448D01*
X99258044Y-93229457D01*
X99248079Y-93208387D01*
X99240227Y-93186443D01*
X99234563Y-93163834D01*
X99231144Y-93140779D01*
X99230000Y-93117500D01*
X99230000Y-92642500D01*
X99231144Y-92619221D01*
X99234563Y-92596166D01*
X99240227Y-92573557D01*
X99248079Y-92551613D01*
X99258044Y-92530543D01*
X99270026Y-92510552D01*
X99283910Y-92491832D01*
X99299562Y-92474562D01*
X99316832Y-92458910D01*
X99335552Y-92445026D01*
X99355543Y-92433044D01*
X99376613Y-92423079D01*
X99398557Y-92415227D01*
X99421166Y-92409563D01*
X99444221Y-92406144D01*
X99467500Y-92405000D01*
X100042500Y-92405000D01*
X100065779Y-92406144D01*
X100065779Y-92406144D01*
G37*
D11*
X99755000Y-92880000D03*
G04 #@! TD*
D10*
G04 #@! TO.C,R2*
G36*
X107190779Y-89831144D02*
X107213834Y-89834563D01*
X107236443Y-89840227D01*
X107258387Y-89848079D01*
X107279457Y-89858044D01*
X107299448Y-89870026D01*
X107318168Y-89883910D01*
X107335438Y-89899562D01*
X107351090Y-89916832D01*
X107364974Y-89935552D01*
X107376956Y-89955543D01*
X107386921Y-89976613D01*
X107394773Y-89998557D01*
X107400437Y-90021166D01*
X107403856Y-90044221D01*
X107405000Y-90067500D01*
X107405000Y-90642500D01*
X107403856Y-90665779D01*
X107400437Y-90688834D01*
X107394773Y-90711443D01*
X107386921Y-90733387D01*
X107376956Y-90754457D01*
X107364974Y-90774448D01*
X107351090Y-90793168D01*
X107335438Y-90810438D01*
X107318168Y-90826090D01*
X107299448Y-90839974D01*
X107279457Y-90851956D01*
X107258387Y-90861921D01*
X107236443Y-90869773D01*
X107213834Y-90875437D01*
X107190779Y-90878856D01*
X107167500Y-90880000D01*
X106692500Y-90880000D01*
X106669221Y-90878856D01*
X106646166Y-90875437D01*
X106623557Y-90869773D01*
X106601613Y-90861921D01*
X106580543Y-90851956D01*
X106560552Y-90839974D01*
X106541832Y-90826090D01*
X106524562Y-90810438D01*
X106508910Y-90793168D01*
X106495026Y-90774448D01*
X106483044Y-90754457D01*
X106473079Y-90733387D01*
X106465227Y-90711443D01*
X106459563Y-90688834D01*
X106456144Y-90665779D01*
X106455000Y-90642500D01*
X106455000Y-90067500D01*
X106456144Y-90044221D01*
X106459563Y-90021166D01*
X106465227Y-89998557D01*
X106473079Y-89976613D01*
X106483044Y-89955543D01*
X106495026Y-89935552D01*
X106508910Y-89916832D01*
X106524562Y-89899562D01*
X106541832Y-89883910D01*
X106560552Y-89870026D01*
X106580543Y-89858044D01*
X106601613Y-89848079D01*
X106623557Y-89840227D01*
X106646166Y-89834563D01*
X106669221Y-89831144D01*
X106692500Y-89830000D01*
X107167500Y-89830000D01*
X107190779Y-89831144D01*
X107190779Y-89831144D01*
G37*
D11*
X106930000Y-90355000D03*
D10*
G36*
X107190779Y-91581144D02*
X107213834Y-91584563D01*
X107236443Y-91590227D01*
X107258387Y-91598079D01*
X107279457Y-91608044D01*
X107299448Y-91620026D01*
X107318168Y-91633910D01*
X107335438Y-91649562D01*
X107351090Y-91666832D01*
X107364974Y-91685552D01*
X107376956Y-91705543D01*
X107386921Y-91726613D01*
X107394773Y-91748557D01*
X107400437Y-91771166D01*
X107403856Y-91794221D01*
X107405000Y-91817500D01*
X107405000Y-92392500D01*
X107403856Y-92415779D01*
X107400437Y-92438834D01*
X107394773Y-92461443D01*
X107386921Y-92483387D01*
X107376956Y-92504457D01*
X107364974Y-92524448D01*
X107351090Y-92543168D01*
X107335438Y-92560438D01*
X107318168Y-92576090D01*
X107299448Y-92589974D01*
X107279457Y-92601956D01*
X107258387Y-92611921D01*
X107236443Y-92619773D01*
X107213834Y-92625437D01*
X107190779Y-92628856D01*
X107167500Y-92630000D01*
X106692500Y-92630000D01*
X106669221Y-92628856D01*
X106646166Y-92625437D01*
X106623557Y-92619773D01*
X106601613Y-92611921D01*
X106580543Y-92601956D01*
X106560552Y-92589974D01*
X106541832Y-92576090D01*
X106524562Y-92560438D01*
X106508910Y-92543168D01*
X106495026Y-92524448D01*
X106483044Y-92504457D01*
X106473079Y-92483387D01*
X106465227Y-92461443D01*
X106459563Y-92438834D01*
X106456144Y-92415779D01*
X106455000Y-92392500D01*
X106455000Y-91817500D01*
X106456144Y-91794221D01*
X106459563Y-91771166D01*
X106465227Y-91748557D01*
X106473079Y-91726613D01*
X106483044Y-91705543D01*
X106495026Y-91685552D01*
X106508910Y-91666832D01*
X106524562Y-91649562D01*
X106541832Y-91633910D01*
X106560552Y-91620026D01*
X106580543Y-91608044D01*
X106601613Y-91598079D01*
X106623557Y-91590227D01*
X106646166Y-91584563D01*
X106669221Y-91581144D01*
X106692500Y-91580000D01*
X107167500Y-91580000D01*
X107190779Y-91581144D01*
X107190779Y-91581144D01*
G37*
D11*
X106930000Y-92105000D03*
G04 #@! TD*
D10*
G04 #@! TO.C,R3*
G36*
X103590779Y-91581144D02*
X103613834Y-91584563D01*
X103636443Y-91590227D01*
X103658387Y-91598079D01*
X103679457Y-91608044D01*
X103699448Y-91620026D01*
X103718168Y-91633910D01*
X103735438Y-91649562D01*
X103751090Y-91666832D01*
X103764974Y-91685552D01*
X103776956Y-91705543D01*
X103786921Y-91726613D01*
X103794773Y-91748557D01*
X103800437Y-91771166D01*
X103803856Y-91794221D01*
X103805000Y-91817500D01*
X103805000Y-92392500D01*
X103803856Y-92415779D01*
X103800437Y-92438834D01*
X103794773Y-92461443D01*
X103786921Y-92483387D01*
X103776956Y-92504457D01*
X103764974Y-92524448D01*
X103751090Y-92543168D01*
X103735438Y-92560438D01*
X103718168Y-92576090D01*
X103699448Y-92589974D01*
X103679457Y-92601956D01*
X103658387Y-92611921D01*
X103636443Y-92619773D01*
X103613834Y-92625437D01*
X103590779Y-92628856D01*
X103567500Y-92630000D01*
X103092500Y-92630000D01*
X103069221Y-92628856D01*
X103046166Y-92625437D01*
X103023557Y-92619773D01*
X103001613Y-92611921D01*
X102980543Y-92601956D01*
X102960552Y-92589974D01*
X102941832Y-92576090D01*
X102924562Y-92560438D01*
X102908910Y-92543168D01*
X102895026Y-92524448D01*
X102883044Y-92504457D01*
X102873079Y-92483387D01*
X102865227Y-92461443D01*
X102859563Y-92438834D01*
X102856144Y-92415779D01*
X102855000Y-92392500D01*
X102855000Y-91817500D01*
X102856144Y-91794221D01*
X102859563Y-91771166D01*
X102865227Y-91748557D01*
X102873079Y-91726613D01*
X102883044Y-91705543D01*
X102895026Y-91685552D01*
X102908910Y-91666832D01*
X102924562Y-91649562D01*
X102941832Y-91633910D01*
X102960552Y-91620026D01*
X102980543Y-91608044D01*
X103001613Y-91598079D01*
X103023557Y-91590227D01*
X103046166Y-91584563D01*
X103069221Y-91581144D01*
X103092500Y-91580000D01*
X103567500Y-91580000D01*
X103590779Y-91581144D01*
X103590779Y-91581144D01*
G37*
D11*
X103330000Y-92105000D03*
D10*
G36*
X103590779Y-89831144D02*
X103613834Y-89834563D01*
X103636443Y-89840227D01*
X103658387Y-89848079D01*
X103679457Y-89858044D01*
X103699448Y-89870026D01*
X103718168Y-89883910D01*
X103735438Y-89899562D01*
X103751090Y-89916832D01*
X103764974Y-89935552D01*
X103776956Y-89955543D01*
X103786921Y-89976613D01*
X103794773Y-89998557D01*
X103800437Y-90021166D01*
X103803856Y-90044221D01*
X103805000Y-90067500D01*
X103805000Y-90642500D01*
X103803856Y-90665779D01*
X103800437Y-90688834D01*
X103794773Y-90711443D01*
X103786921Y-90733387D01*
X103776956Y-90754457D01*
X103764974Y-90774448D01*
X103751090Y-90793168D01*
X103735438Y-90810438D01*
X103718168Y-90826090D01*
X103699448Y-90839974D01*
X103679457Y-90851956D01*
X103658387Y-90861921D01*
X103636443Y-90869773D01*
X103613834Y-90875437D01*
X103590779Y-90878856D01*
X103567500Y-90880000D01*
X103092500Y-90880000D01*
X103069221Y-90878856D01*
X103046166Y-90875437D01*
X103023557Y-90869773D01*
X103001613Y-90861921D01*
X102980543Y-90851956D01*
X102960552Y-90839974D01*
X102941832Y-90826090D01*
X102924562Y-90810438D01*
X102908910Y-90793168D01*
X102895026Y-90774448D01*
X102883044Y-90754457D01*
X102873079Y-90733387D01*
X102865227Y-90711443D01*
X102859563Y-90688834D01*
X102856144Y-90665779D01*
X102855000Y-90642500D01*
X102855000Y-90067500D01*
X102856144Y-90044221D01*
X102859563Y-90021166D01*
X102865227Y-89998557D01*
X102873079Y-89976613D01*
X102883044Y-89955543D01*
X102895026Y-89935552D01*
X102908910Y-89916832D01*
X102924562Y-89899562D01*
X102941832Y-89883910D01*
X102960552Y-89870026D01*
X102980543Y-89858044D01*
X103001613Y-89848079D01*
X103023557Y-89840227D01*
X103046166Y-89834563D01*
X103069221Y-89831144D01*
X103092500Y-89830000D01*
X103567500Y-89830000D01*
X103590779Y-89831144D01*
X103590779Y-89831144D01*
G37*
D11*
X103330000Y-90355000D03*
G04 #@! TD*
D10*
G04 #@! TO.C,R4*
G36*
X105390779Y-89831144D02*
X105413834Y-89834563D01*
X105436443Y-89840227D01*
X105458387Y-89848079D01*
X105479457Y-89858044D01*
X105499448Y-89870026D01*
X105518168Y-89883910D01*
X105535438Y-89899562D01*
X105551090Y-89916832D01*
X105564974Y-89935552D01*
X105576956Y-89955543D01*
X105586921Y-89976613D01*
X105594773Y-89998557D01*
X105600437Y-90021166D01*
X105603856Y-90044221D01*
X105605000Y-90067500D01*
X105605000Y-90642500D01*
X105603856Y-90665779D01*
X105600437Y-90688834D01*
X105594773Y-90711443D01*
X105586921Y-90733387D01*
X105576956Y-90754457D01*
X105564974Y-90774448D01*
X105551090Y-90793168D01*
X105535438Y-90810438D01*
X105518168Y-90826090D01*
X105499448Y-90839974D01*
X105479457Y-90851956D01*
X105458387Y-90861921D01*
X105436443Y-90869773D01*
X105413834Y-90875437D01*
X105390779Y-90878856D01*
X105367500Y-90880000D01*
X104892500Y-90880000D01*
X104869221Y-90878856D01*
X104846166Y-90875437D01*
X104823557Y-90869773D01*
X104801613Y-90861921D01*
X104780543Y-90851956D01*
X104760552Y-90839974D01*
X104741832Y-90826090D01*
X104724562Y-90810438D01*
X104708910Y-90793168D01*
X104695026Y-90774448D01*
X104683044Y-90754457D01*
X104673079Y-90733387D01*
X104665227Y-90711443D01*
X104659563Y-90688834D01*
X104656144Y-90665779D01*
X104655000Y-90642500D01*
X104655000Y-90067500D01*
X104656144Y-90044221D01*
X104659563Y-90021166D01*
X104665227Y-89998557D01*
X104673079Y-89976613D01*
X104683044Y-89955543D01*
X104695026Y-89935552D01*
X104708910Y-89916832D01*
X104724562Y-89899562D01*
X104741832Y-89883910D01*
X104760552Y-89870026D01*
X104780543Y-89858044D01*
X104801613Y-89848079D01*
X104823557Y-89840227D01*
X104846166Y-89834563D01*
X104869221Y-89831144D01*
X104892500Y-89830000D01*
X105367500Y-89830000D01*
X105390779Y-89831144D01*
X105390779Y-89831144D01*
G37*
D11*
X105130000Y-90355000D03*
D10*
G36*
X105390779Y-91581144D02*
X105413834Y-91584563D01*
X105436443Y-91590227D01*
X105458387Y-91598079D01*
X105479457Y-91608044D01*
X105499448Y-91620026D01*
X105518168Y-91633910D01*
X105535438Y-91649562D01*
X105551090Y-91666832D01*
X105564974Y-91685552D01*
X105576956Y-91705543D01*
X105586921Y-91726613D01*
X105594773Y-91748557D01*
X105600437Y-91771166D01*
X105603856Y-91794221D01*
X105605000Y-91817500D01*
X105605000Y-92392500D01*
X105603856Y-92415779D01*
X105600437Y-92438834D01*
X105594773Y-92461443D01*
X105586921Y-92483387D01*
X105576956Y-92504457D01*
X105564974Y-92524448D01*
X105551090Y-92543168D01*
X105535438Y-92560438D01*
X105518168Y-92576090D01*
X105499448Y-92589974D01*
X105479457Y-92601956D01*
X105458387Y-92611921D01*
X105436443Y-92619773D01*
X105413834Y-92625437D01*
X105390779Y-92628856D01*
X105367500Y-92630000D01*
X104892500Y-92630000D01*
X104869221Y-92628856D01*
X104846166Y-92625437D01*
X104823557Y-92619773D01*
X104801613Y-92611921D01*
X104780543Y-92601956D01*
X104760552Y-92589974D01*
X104741832Y-92576090D01*
X104724562Y-92560438D01*
X104708910Y-92543168D01*
X104695026Y-92524448D01*
X104683044Y-92504457D01*
X104673079Y-92483387D01*
X104665227Y-92461443D01*
X104659563Y-92438834D01*
X104656144Y-92415779D01*
X104655000Y-92392500D01*
X104655000Y-91817500D01*
X104656144Y-91794221D01*
X104659563Y-91771166D01*
X104665227Y-91748557D01*
X104673079Y-91726613D01*
X104683044Y-91705543D01*
X104695026Y-91685552D01*
X104708910Y-91666832D01*
X104724562Y-91649562D01*
X104741832Y-91633910D01*
X104760552Y-91620026D01*
X104780543Y-91608044D01*
X104801613Y-91598079D01*
X104823557Y-91590227D01*
X104846166Y-91584563D01*
X104869221Y-91581144D01*
X104892500Y-91580000D01*
X105367500Y-91580000D01*
X105390779Y-91581144D01*
X105390779Y-91581144D01*
G37*
D11*
X105130000Y-92105000D03*
G04 #@! TD*
D10*
G04 #@! TO.C,R5*
G36*
X74490779Y-83081144D02*
X74513834Y-83084563D01*
X74536443Y-83090227D01*
X74558387Y-83098079D01*
X74579457Y-83108044D01*
X74599448Y-83120026D01*
X74618168Y-83133910D01*
X74635438Y-83149562D01*
X74651090Y-83166832D01*
X74664974Y-83185552D01*
X74676956Y-83205543D01*
X74686921Y-83226613D01*
X74694773Y-83248557D01*
X74700437Y-83271166D01*
X74703856Y-83294221D01*
X74705000Y-83317500D01*
X74705000Y-83892500D01*
X74703856Y-83915779D01*
X74700437Y-83938834D01*
X74694773Y-83961443D01*
X74686921Y-83983387D01*
X74676956Y-84004457D01*
X74664974Y-84024448D01*
X74651090Y-84043168D01*
X74635438Y-84060438D01*
X74618168Y-84076090D01*
X74599448Y-84089974D01*
X74579457Y-84101956D01*
X74558387Y-84111921D01*
X74536443Y-84119773D01*
X74513834Y-84125437D01*
X74490779Y-84128856D01*
X74467500Y-84130000D01*
X73992500Y-84130000D01*
X73969221Y-84128856D01*
X73946166Y-84125437D01*
X73923557Y-84119773D01*
X73901613Y-84111921D01*
X73880543Y-84101956D01*
X73860552Y-84089974D01*
X73841832Y-84076090D01*
X73824562Y-84060438D01*
X73808910Y-84043168D01*
X73795026Y-84024448D01*
X73783044Y-84004457D01*
X73773079Y-83983387D01*
X73765227Y-83961443D01*
X73759563Y-83938834D01*
X73756144Y-83915779D01*
X73755000Y-83892500D01*
X73755000Y-83317500D01*
X73756144Y-83294221D01*
X73759563Y-83271166D01*
X73765227Y-83248557D01*
X73773079Y-83226613D01*
X73783044Y-83205543D01*
X73795026Y-83185552D01*
X73808910Y-83166832D01*
X73824562Y-83149562D01*
X73841832Y-83133910D01*
X73860552Y-83120026D01*
X73880543Y-83108044D01*
X73901613Y-83098079D01*
X73923557Y-83090227D01*
X73946166Y-83084563D01*
X73969221Y-83081144D01*
X73992500Y-83080000D01*
X74467500Y-83080000D01*
X74490779Y-83081144D01*
X74490779Y-83081144D01*
G37*
D11*
X74230000Y-83605000D03*
D10*
G36*
X74490779Y-84831144D02*
X74513834Y-84834563D01*
X74536443Y-84840227D01*
X74558387Y-84848079D01*
X74579457Y-84858044D01*
X74599448Y-84870026D01*
X74618168Y-84883910D01*
X74635438Y-84899562D01*
X74651090Y-84916832D01*
X74664974Y-84935552D01*
X74676956Y-84955543D01*
X74686921Y-84976613D01*
X74694773Y-84998557D01*
X74700437Y-85021166D01*
X74703856Y-85044221D01*
X74705000Y-85067500D01*
X74705000Y-85642500D01*
X74703856Y-85665779D01*
X74700437Y-85688834D01*
X74694773Y-85711443D01*
X74686921Y-85733387D01*
X74676956Y-85754457D01*
X74664974Y-85774448D01*
X74651090Y-85793168D01*
X74635438Y-85810438D01*
X74618168Y-85826090D01*
X74599448Y-85839974D01*
X74579457Y-85851956D01*
X74558387Y-85861921D01*
X74536443Y-85869773D01*
X74513834Y-85875437D01*
X74490779Y-85878856D01*
X74467500Y-85880000D01*
X73992500Y-85880000D01*
X73969221Y-85878856D01*
X73946166Y-85875437D01*
X73923557Y-85869773D01*
X73901613Y-85861921D01*
X73880543Y-85851956D01*
X73860552Y-85839974D01*
X73841832Y-85826090D01*
X73824562Y-85810438D01*
X73808910Y-85793168D01*
X73795026Y-85774448D01*
X73783044Y-85754457D01*
X73773079Y-85733387D01*
X73765227Y-85711443D01*
X73759563Y-85688834D01*
X73756144Y-85665779D01*
X73755000Y-85642500D01*
X73755000Y-85067500D01*
X73756144Y-85044221D01*
X73759563Y-85021166D01*
X73765227Y-84998557D01*
X73773079Y-84976613D01*
X73783044Y-84955543D01*
X73795026Y-84935552D01*
X73808910Y-84916832D01*
X73824562Y-84899562D01*
X73841832Y-84883910D01*
X73860552Y-84870026D01*
X73880543Y-84858044D01*
X73901613Y-84848079D01*
X73923557Y-84840227D01*
X73946166Y-84834563D01*
X73969221Y-84831144D01*
X73992500Y-84830000D01*
X74467500Y-84830000D01*
X74490779Y-84831144D01*
X74490779Y-84831144D01*
G37*
D11*
X74230000Y-85355000D03*
G04 #@! TD*
D10*
G04 #@! TO.C,R8*
G36*
X82987779Y-89706144D02*
X83010834Y-89709563D01*
X83033443Y-89715227D01*
X83055387Y-89723079D01*
X83076457Y-89733044D01*
X83096448Y-89745026D01*
X83115168Y-89758910D01*
X83132438Y-89774562D01*
X83148090Y-89791832D01*
X83161974Y-89810552D01*
X83173956Y-89830543D01*
X83183921Y-89851613D01*
X83191773Y-89873557D01*
X83197437Y-89896166D01*
X83200856Y-89919221D01*
X83202000Y-89942500D01*
X83202000Y-90417500D01*
X83200856Y-90440779D01*
X83197437Y-90463834D01*
X83191773Y-90486443D01*
X83183921Y-90508387D01*
X83173956Y-90529457D01*
X83161974Y-90549448D01*
X83148090Y-90568168D01*
X83132438Y-90585438D01*
X83115168Y-90601090D01*
X83096448Y-90614974D01*
X83076457Y-90626956D01*
X83055387Y-90636921D01*
X83033443Y-90644773D01*
X83010834Y-90650437D01*
X82987779Y-90653856D01*
X82964500Y-90655000D01*
X82389500Y-90655000D01*
X82366221Y-90653856D01*
X82343166Y-90650437D01*
X82320557Y-90644773D01*
X82298613Y-90636921D01*
X82277543Y-90626956D01*
X82257552Y-90614974D01*
X82238832Y-90601090D01*
X82221562Y-90585438D01*
X82205910Y-90568168D01*
X82192026Y-90549448D01*
X82180044Y-90529457D01*
X82170079Y-90508387D01*
X82162227Y-90486443D01*
X82156563Y-90463834D01*
X82153144Y-90440779D01*
X82152000Y-90417500D01*
X82152000Y-89942500D01*
X82153144Y-89919221D01*
X82156563Y-89896166D01*
X82162227Y-89873557D01*
X82170079Y-89851613D01*
X82180044Y-89830543D01*
X82192026Y-89810552D01*
X82205910Y-89791832D01*
X82221562Y-89774562D01*
X82238832Y-89758910D01*
X82257552Y-89745026D01*
X82277543Y-89733044D01*
X82298613Y-89723079D01*
X82320557Y-89715227D01*
X82343166Y-89709563D01*
X82366221Y-89706144D01*
X82389500Y-89705000D01*
X82964500Y-89705000D01*
X82987779Y-89706144D01*
X82987779Y-89706144D01*
G37*
D11*
X82677000Y-90180000D03*
D10*
G36*
X84737779Y-89706144D02*
X84760834Y-89709563D01*
X84783443Y-89715227D01*
X84805387Y-89723079D01*
X84826457Y-89733044D01*
X84846448Y-89745026D01*
X84865168Y-89758910D01*
X84882438Y-89774562D01*
X84898090Y-89791832D01*
X84911974Y-89810552D01*
X84923956Y-89830543D01*
X84933921Y-89851613D01*
X84941773Y-89873557D01*
X84947437Y-89896166D01*
X84950856Y-89919221D01*
X84952000Y-89942500D01*
X84952000Y-90417500D01*
X84950856Y-90440779D01*
X84947437Y-90463834D01*
X84941773Y-90486443D01*
X84933921Y-90508387D01*
X84923956Y-90529457D01*
X84911974Y-90549448D01*
X84898090Y-90568168D01*
X84882438Y-90585438D01*
X84865168Y-90601090D01*
X84846448Y-90614974D01*
X84826457Y-90626956D01*
X84805387Y-90636921D01*
X84783443Y-90644773D01*
X84760834Y-90650437D01*
X84737779Y-90653856D01*
X84714500Y-90655000D01*
X84139500Y-90655000D01*
X84116221Y-90653856D01*
X84093166Y-90650437D01*
X84070557Y-90644773D01*
X84048613Y-90636921D01*
X84027543Y-90626956D01*
X84007552Y-90614974D01*
X83988832Y-90601090D01*
X83971562Y-90585438D01*
X83955910Y-90568168D01*
X83942026Y-90549448D01*
X83930044Y-90529457D01*
X83920079Y-90508387D01*
X83912227Y-90486443D01*
X83906563Y-90463834D01*
X83903144Y-90440779D01*
X83902000Y-90417500D01*
X83902000Y-89942500D01*
X83903144Y-89919221D01*
X83906563Y-89896166D01*
X83912227Y-89873557D01*
X83920079Y-89851613D01*
X83930044Y-89830543D01*
X83942026Y-89810552D01*
X83955910Y-89791832D01*
X83971562Y-89774562D01*
X83988832Y-89758910D01*
X84007552Y-89745026D01*
X84027543Y-89733044D01*
X84048613Y-89723079D01*
X84070557Y-89715227D01*
X84093166Y-89709563D01*
X84116221Y-89706144D01*
X84139500Y-89705000D01*
X84714500Y-89705000D01*
X84737779Y-89706144D01*
X84737779Y-89706144D01*
G37*
D11*
X84427000Y-90180000D03*
G04 #@! TD*
D10*
G04 #@! TO.C,R15*
G36*
X92215779Y-87906144D02*
X92238834Y-87909563D01*
X92261443Y-87915227D01*
X92283387Y-87923079D01*
X92304457Y-87933044D01*
X92324448Y-87945026D01*
X92343168Y-87958910D01*
X92360438Y-87974562D01*
X92376090Y-87991832D01*
X92389974Y-88010552D01*
X92401956Y-88030543D01*
X92411921Y-88051613D01*
X92419773Y-88073557D01*
X92425437Y-88096166D01*
X92428856Y-88119221D01*
X92430000Y-88142500D01*
X92430000Y-88617500D01*
X92428856Y-88640779D01*
X92425437Y-88663834D01*
X92419773Y-88686443D01*
X92411921Y-88708387D01*
X92401956Y-88729457D01*
X92389974Y-88749448D01*
X92376090Y-88768168D01*
X92360438Y-88785438D01*
X92343168Y-88801090D01*
X92324448Y-88814974D01*
X92304457Y-88826956D01*
X92283387Y-88836921D01*
X92261443Y-88844773D01*
X92238834Y-88850437D01*
X92215779Y-88853856D01*
X92192500Y-88855000D01*
X91617500Y-88855000D01*
X91594221Y-88853856D01*
X91571166Y-88850437D01*
X91548557Y-88844773D01*
X91526613Y-88836921D01*
X91505543Y-88826956D01*
X91485552Y-88814974D01*
X91466832Y-88801090D01*
X91449562Y-88785438D01*
X91433910Y-88768168D01*
X91420026Y-88749448D01*
X91408044Y-88729457D01*
X91398079Y-88708387D01*
X91390227Y-88686443D01*
X91384563Y-88663834D01*
X91381144Y-88640779D01*
X91380000Y-88617500D01*
X91380000Y-88142500D01*
X91381144Y-88119221D01*
X91384563Y-88096166D01*
X91390227Y-88073557D01*
X91398079Y-88051613D01*
X91408044Y-88030543D01*
X91420026Y-88010552D01*
X91433910Y-87991832D01*
X91449562Y-87974562D01*
X91466832Y-87958910D01*
X91485552Y-87945026D01*
X91505543Y-87933044D01*
X91526613Y-87923079D01*
X91548557Y-87915227D01*
X91571166Y-87909563D01*
X91594221Y-87906144D01*
X91617500Y-87905000D01*
X92192500Y-87905000D01*
X92215779Y-87906144D01*
X92215779Y-87906144D01*
G37*
D11*
X91905000Y-88380000D03*
D10*
G36*
X90465779Y-87906144D02*
X90488834Y-87909563D01*
X90511443Y-87915227D01*
X90533387Y-87923079D01*
X90554457Y-87933044D01*
X90574448Y-87945026D01*
X90593168Y-87958910D01*
X90610438Y-87974562D01*
X90626090Y-87991832D01*
X90639974Y-88010552D01*
X90651956Y-88030543D01*
X90661921Y-88051613D01*
X90669773Y-88073557D01*
X90675437Y-88096166D01*
X90678856Y-88119221D01*
X90680000Y-88142500D01*
X90680000Y-88617500D01*
X90678856Y-88640779D01*
X90675437Y-88663834D01*
X90669773Y-88686443D01*
X90661921Y-88708387D01*
X90651956Y-88729457D01*
X90639974Y-88749448D01*
X90626090Y-88768168D01*
X90610438Y-88785438D01*
X90593168Y-88801090D01*
X90574448Y-88814974D01*
X90554457Y-88826956D01*
X90533387Y-88836921D01*
X90511443Y-88844773D01*
X90488834Y-88850437D01*
X90465779Y-88853856D01*
X90442500Y-88855000D01*
X89867500Y-88855000D01*
X89844221Y-88853856D01*
X89821166Y-88850437D01*
X89798557Y-88844773D01*
X89776613Y-88836921D01*
X89755543Y-88826956D01*
X89735552Y-88814974D01*
X89716832Y-88801090D01*
X89699562Y-88785438D01*
X89683910Y-88768168D01*
X89670026Y-88749448D01*
X89658044Y-88729457D01*
X89648079Y-88708387D01*
X89640227Y-88686443D01*
X89634563Y-88663834D01*
X89631144Y-88640779D01*
X89630000Y-88617500D01*
X89630000Y-88142500D01*
X89631144Y-88119221D01*
X89634563Y-88096166D01*
X89640227Y-88073557D01*
X89648079Y-88051613D01*
X89658044Y-88030543D01*
X89670026Y-88010552D01*
X89683910Y-87991832D01*
X89699562Y-87974562D01*
X89716832Y-87958910D01*
X89735552Y-87945026D01*
X89755543Y-87933044D01*
X89776613Y-87923079D01*
X89798557Y-87915227D01*
X89821166Y-87909563D01*
X89844221Y-87906144D01*
X89867500Y-87905000D01*
X90442500Y-87905000D01*
X90465779Y-87906144D01*
X90465779Y-87906144D01*
G37*
D11*
X90155000Y-88380000D03*
G04 #@! TD*
D10*
G04 #@! TO.C,R6*
G36*
X78115779Y-82506144D02*
X78138834Y-82509563D01*
X78161443Y-82515227D01*
X78183387Y-82523079D01*
X78204457Y-82533044D01*
X78224448Y-82545026D01*
X78243168Y-82558910D01*
X78260438Y-82574562D01*
X78276090Y-82591832D01*
X78289974Y-82610552D01*
X78301956Y-82630543D01*
X78311921Y-82651613D01*
X78319773Y-82673557D01*
X78325437Y-82696166D01*
X78328856Y-82719221D01*
X78330000Y-82742500D01*
X78330000Y-83217500D01*
X78328856Y-83240779D01*
X78325437Y-83263834D01*
X78319773Y-83286443D01*
X78311921Y-83308387D01*
X78301956Y-83329457D01*
X78289974Y-83349448D01*
X78276090Y-83368168D01*
X78260438Y-83385438D01*
X78243168Y-83401090D01*
X78224448Y-83414974D01*
X78204457Y-83426956D01*
X78183387Y-83436921D01*
X78161443Y-83444773D01*
X78138834Y-83450437D01*
X78115779Y-83453856D01*
X78092500Y-83455000D01*
X77517500Y-83455000D01*
X77494221Y-83453856D01*
X77471166Y-83450437D01*
X77448557Y-83444773D01*
X77426613Y-83436921D01*
X77405543Y-83426956D01*
X77385552Y-83414974D01*
X77366832Y-83401090D01*
X77349562Y-83385438D01*
X77333910Y-83368168D01*
X77320026Y-83349448D01*
X77308044Y-83329457D01*
X77298079Y-83308387D01*
X77290227Y-83286443D01*
X77284563Y-83263834D01*
X77281144Y-83240779D01*
X77280000Y-83217500D01*
X77280000Y-82742500D01*
X77281144Y-82719221D01*
X77284563Y-82696166D01*
X77290227Y-82673557D01*
X77298079Y-82651613D01*
X77308044Y-82630543D01*
X77320026Y-82610552D01*
X77333910Y-82591832D01*
X77349562Y-82574562D01*
X77366832Y-82558910D01*
X77385552Y-82545026D01*
X77405543Y-82533044D01*
X77426613Y-82523079D01*
X77448557Y-82515227D01*
X77471166Y-82509563D01*
X77494221Y-82506144D01*
X77517500Y-82505000D01*
X78092500Y-82505000D01*
X78115779Y-82506144D01*
X78115779Y-82506144D01*
G37*
D11*
X77805000Y-82980000D03*
D10*
G36*
X76365779Y-82506144D02*
X76388834Y-82509563D01*
X76411443Y-82515227D01*
X76433387Y-82523079D01*
X76454457Y-82533044D01*
X76474448Y-82545026D01*
X76493168Y-82558910D01*
X76510438Y-82574562D01*
X76526090Y-82591832D01*
X76539974Y-82610552D01*
X76551956Y-82630543D01*
X76561921Y-82651613D01*
X76569773Y-82673557D01*
X76575437Y-82696166D01*
X76578856Y-82719221D01*
X76580000Y-82742500D01*
X76580000Y-83217500D01*
X76578856Y-83240779D01*
X76575437Y-83263834D01*
X76569773Y-83286443D01*
X76561921Y-83308387D01*
X76551956Y-83329457D01*
X76539974Y-83349448D01*
X76526090Y-83368168D01*
X76510438Y-83385438D01*
X76493168Y-83401090D01*
X76474448Y-83414974D01*
X76454457Y-83426956D01*
X76433387Y-83436921D01*
X76411443Y-83444773D01*
X76388834Y-83450437D01*
X76365779Y-83453856D01*
X76342500Y-83455000D01*
X75767500Y-83455000D01*
X75744221Y-83453856D01*
X75721166Y-83450437D01*
X75698557Y-83444773D01*
X75676613Y-83436921D01*
X75655543Y-83426956D01*
X75635552Y-83414974D01*
X75616832Y-83401090D01*
X75599562Y-83385438D01*
X75583910Y-83368168D01*
X75570026Y-83349448D01*
X75558044Y-83329457D01*
X75548079Y-83308387D01*
X75540227Y-83286443D01*
X75534563Y-83263834D01*
X75531144Y-83240779D01*
X75530000Y-83217500D01*
X75530000Y-82742500D01*
X75531144Y-82719221D01*
X75534563Y-82696166D01*
X75540227Y-82673557D01*
X75548079Y-82651613D01*
X75558044Y-82630543D01*
X75570026Y-82610552D01*
X75583910Y-82591832D01*
X75599562Y-82574562D01*
X75616832Y-82558910D01*
X75635552Y-82545026D01*
X75655543Y-82533044D01*
X75676613Y-82523079D01*
X75698557Y-82515227D01*
X75721166Y-82509563D01*
X75744221Y-82506144D01*
X75767500Y-82505000D01*
X76342500Y-82505000D01*
X76365779Y-82506144D01*
X76365779Y-82506144D01*
G37*
D11*
X76055000Y-82980000D03*
G04 #@! TD*
M02*
