G04 #@! TF.GenerationSoftware,KiCad,Pcbnew,(5.0.0-rc2-178-g3c7b91b96)*
G04 #@! TF.CreationDate,2018-10-30T10:49:57+01:00*
G04 #@! TF.ProjectId,pcb4,706362342E6B696361645F7063620000,1*
G04 #@! TF.SameCoordinates,Original*
G04 #@! TF.FileFunction,Copper,L2,Inr,Plane*
G04 #@! TF.FilePolarity,Positive*
%FSLAX46Y46*%
G04 Gerber Fmt 4.6, Leading zero omitted, Abs format (unit mm)*
G04 Created by KiCad (PCBNEW (5.0.0-rc2-178-g3c7b91b96)) date 10/30/18 10:49:57*
%MOMM*%
%LPD*%
G01*
G04 APERTURE LIST*
G04 #@! TA.AperFunction,ViaPad*
%ADD10O,1.700000X1.700000*%
G04 #@! TD*
G04 #@! TA.AperFunction,ViaPad*
%ADD11R,1.700000X1.700000*%
G04 #@! TD*
G04 #@! TA.AperFunction,ViaPad*
%ADD12R,1.800000X1.800000*%
G04 #@! TD*
G04 #@! TA.AperFunction,ViaPad*
%ADD13C,1.800000*%
G04 #@! TD*
G04 #@! TA.AperFunction,ViaPad*
%ADD14C,0.800000*%
G04 #@! TD*
G04 #@! TA.AperFunction,Conductor*
%ADD15C,0.254000*%
G04 #@! TD*
G04 APERTURE END LIST*
D10*
G04 #@! TO.N,GNDD*
G04 #@! TO.C,J7*
X78105000Y-93580000D03*
G04 #@! TO.N,Net-(J7-Pad3)*
X80645000Y-93580000D03*
G04 #@! TO.N,GNDD*
X83185000Y-93580000D03*
D11*
G04 #@! TO.N,Net-(J7-Pad1)*
X85725000Y-93580000D03*
G04 #@! TD*
G04 #@! TO.N,+3V3*
G04 #@! TO.C,J4*
X73660000Y-100470000D03*
D10*
G04 #@! TO.N,/SWCLK*
X76200000Y-100470000D03*
G04 #@! TO.N,GNDD*
X78740000Y-100470000D03*
G04 #@! TO.N,/SWDIO*
X81280000Y-100470000D03*
G04 #@! TD*
D11*
G04 #@! TO.N,GNDA*
G04 #@! TO.C,J1*
X64135000Y-85660000D03*
D10*
G04 #@! TO.N,+4V*
X64135000Y-88200000D03*
G04 #@! TD*
G04 #@! TO.N,+5V*
G04 #@! TO.C,J2*
X64135000Y-93280000D03*
D11*
G04 #@! TO.N,GNDD*
X64135000Y-90740000D03*
G04 #@! TD*
G04 #@! TO.N,/VCPRX*
G04 #@! TO.C,J5*
X86360000Y-100470000D03*
D10*
G04 #@! TO.N,/VCPTX*
X83820000Y-100470000D03*
G04 #@! TD*
D11*
G04 #@! TO.N,/PB7*
G04 #@! TO.C,J6*
X110230000Y-91680000D03*
D10*
G04 #@! TO.N,/PB6*
X110230000Y-89140000D03*
G04 #@! TO.N,GNDD*
X110230000Y-86600000D03*
G04 #@! TO.N,/NRST*
X110230000Y-84060000D03*
G04 #@! TD*
D11*
G04 #@! TO.N,/EINK_BUSY*
G04 #@! TO.C,J3*
X73630000Y-97680000D03*
D10*
G04 #@! TO.N,/EINK_RST*
X76170000Y-97680000D03*
G04 #@! TO.N,/EINK_DC*
X78710000Y-97680000D03*
G04 #@! TO.N,/EINK_CS*
X81250000Y-97680000D03*
G04 #@! TO.N,/ADC_CLK*
X83790000Y-97680000D03*
G04 #@! TO.N,/EINK_DOUT*
X86330000Y-97680000D03*
G04 #@! TO.N,GNDD*
X88870000Y-97680000D03*
G04 #@! TO.N,+3V3*
X91410000Y-97680000D03*
G04 #@! TD*
D12*
G04 #@! TO.N,Net-(Q1-Pad1)*
G04 #@! TO.C,Q1*
X73930000Y-87480000D03*
D13*
G04 #@! TO.N,GNDA*
X73930000Y-90020000D03*
G04 #@! TD*
D14*
G04 #@! TO.N,Net-(R1-Pad2)*
X101530000Y-94680000D03*
G04 #@! TO.N,GNDD*
X71230000Y-93180000D03*
X94930000Y-102480000D03*
X106630000Y-102180000D03*
X108430000Y-93180000D03*
X110830000Y-96780000D03*
X110230000Y-101430000D03*
X69130000Y-101280000D03*
X64930000Y-100980000D03*
X99030000Y-91580000D03*
G04 #@! TO.N,+2V5*
X88330000Y-86280000D03*
X80230000Y-87480000D03*
X68230000Y-86880000D03*
X76460000Y-91270000D03*
G04 #@! TO.N,+4V*
X83230000Y-82080000D03*
X91930000Y-81780000D03*
X107230000Y-81780000D03*
X101230000Y-81780000D03*
G04 #@! TO.N,GNDA*
X85030000Y-82080000D03*
X88330000Y-81780000D03*
X90130000Y-81780000D03*
X103030000Y-81780000D03*
X105430000Y-81780000D03*
X75730000Y-89280000D03*
X103030000Y-87180000D03*
X98830000Y-88680000D03*
X87730000Y-87930000D03*
X67630000Y-90180000D03*
X72390000Y-84644000D03*
X80860000Y-90470000D03*
X101430000Y-89980000D03*
G04 #@! TO.N,+3V3*
X90730000Y-102480000D03*
X105130000Y-94380000D03*
X108730000Y-102180000D03*
X66730000Y-97380000D03*
X69130000Y-97680000D03*
X67030000Y-101280000D03*
G04 #@! TO.N,+5V*
X68830000Y-96180000D03*
X95030000Y-92980000D03*
G04 #@! TO.N,/NRST*
X110230000Y-100080000D03*
G04 #@! TO.N,/VCPTX*
X96540000Y-100070000D03*
G04 #@! TO.N,/EINK_CS*
X100630000Y-95580000D03*
G04 #@! TO.N,/ADC_DIN*
X99130000Y-99780000D03*
G04 #@! TO.N,/ADC_CLK*
X99730000Y-98077752D03*
X88540000Y-100170000D03*
G04 #@! TO.N,/ADC_CS*
X103780000Y-102180000D03*
G04 #@! TO.N,/EINK_DC*
X101680000Y-96180000D03*
G04 #@! TO.N,/EINK_RST*
X100780000Y-100080000D03*
G04 #@! TO.N,/EINK_DOUT*
X98540000Y-98670000D03*
G04 #@! TO.N,Net-(R17-Pad1)*
X89995685Y-93580000D03*
G04 #@! TO.N,Net-(U2-Pad20)*
X96740000Y-94770000D03*
G04 #@! TO.N,Net-(U2-Pad19)*
X96740000Y-95870000D03*
G04 #@! TD*
D15*
G04 #@! TO.N,GNDD*
G36*
X67936381Y-92665817D02*
X67976348Y-92695111D01*
X68030000Y-92707000D01*
X76905892Y-92707000D01*
X76663514Y-93223108D01*
X76784181Y-93453000D01*
X77978000Y-93453000D01*
X77978000Y-92259845D01*
X78232000Y-92259845D01*
X78232000Y-93453000D01*
X78252000Y-93453000D01*
X78252000Y-93707000D01*
X78232000Y-93707000D01*
X78232000Y-94900155D01*
X78461890Y-95021476D01*
X78871924Y-94851645D01*
X79300183Y-94461358D01*
X79361157Y-94331522D01*
X79574375Y-94650625D01*
X80065582Y-94978839D01*
X80498744Y-95065000D01*
X80791256Y-95065000D01*
X81224418Y-94978839D01*
X81715625Y-94650625D01*
X81928843Y-94331522D01*
X81989817Y-94461358D01*
X82418076Y-94851645D01*
X82828110Y-95021476D01*
X83058000Y-94900155D01*
X83058000Y-93707000D01*
X83038000Y-93707000D01*
X83038000Y-93453000D01*
X83058000Y-93453000D01*
X83058000Y-92259845D01*
X83312000Y-92259845D01*
X83312000Y-93453000D01*
X83332000Y-93453000D01*
X83332000Y-93707000D01*
X83312000Y-93707000D01*
X83312000Y-94900155D01*
X83541890Y-95021476D01*
X83951924Y-94851645D01*
X84256261Y-94574292D01*
X84276843Y-94677765D01*
X84417191Y-94887809D01*
X84627235Y-95028157D01*
X84875000Y-95077440D01*
X86575000Y-95077440D01*
X86822765Y-95028157D01*
X87032809Y-94887809D01*
X87173157Y-94677765D01*
X87222440Y-94430000D01*
X87222440Y-93374126D01*
X88960685Y-93374126D01*
X88960685Y-93785874D01*
X89118254Y-94166280D01*
X89409405Y-94457431D01*
X89789811Y-94615000D01*
X90201559Y-94615000D01*
X90324379Y-94564126D01*
X95705000Y-94564126D01*
X95705000Y-94975874D01*
X95847541Y-95320000D01*
X95705000Y-95664126D01*
X95705000Y-96075874D01*
X95862569Y-96456280D01*
X96153720Y-96747431D01*
X96534126Y-96905000D01*
X96945874Y-96905000D01*
X97326280Y-96747431D01*
X97617431Y-96456280D01*
X97775000Y-96075874D01*
X97775000Y-95664126D01*
X97654879Y-95374126D01*
X99595000Y-95374126D01*
X99595000Y-95785874D01*
X99752569Y-96166280D01*
X100043720Y-96457431D01*
X100424126Y-96615000D01*
X100739907Y-96615000D01*
X100802569Y-96766280D01*
X101093720Y-97057431D01*
X101474126Y-97215000D01*
X101885874Y-97215000D01*
X102266280Y-97057431D01*
X102557431Y-96766280D01*
X102715000Y-96385874D01*
X102715000Y-95974126D01*
X102557431Y-95593720D01*
X102318711Y-95355000D01*
X102407431Y-95266280D01*
X102565000Y-94885874D01*
X102565000Y-94474126D01*
X102440737Y-94174126D01*
X104095000Y-94174126D01*
X104095000Y-94585874D01*
X104252569Y-94966280D01*
X104543720Y-95257431D01*
X104924126Y-95415000D01*
X105335874Y-95415000D01*
X105716280Y-95257431D01*
X106007431Y-94966280D01*
X106165000Y-94585874D01*
X106165000Y-94174126D01*
X106007431Y-93793720D01*
X105716280Y-93502569D01*
X105335874Y-93345000D01*
X104924126Y-93345000D01*
X104543720Y-93502569D01*
X104252569Y-93793720D01*
X104095000Y-94174126D01*
X102440737Y-94174126D01*
X102407431Y-94093720D01*
X102116280Y-93802569D01*
X101735874Y-93645000D01*
X101324126Y-93645000D01*
X100943720Y-93802569D01*
X100652569Y-94093720D01*
X100495000Y-94474126D01*
X100495000Y-94545000D01*
X100424126Y-94545000D01*
X100043720Y-94702569D01*
X99752569Y-94993720D01*
X99595000Y-95374126D01*
X97654879Y-95374126D01*
X97632459Y-95320000D01*
X97775000Y-94975874D01*
X97775000Y-94564126D01*
X97617431Y-94183720D01*
X97326280Y-93892569D01*
X96945874Y-93735000D01*
X96534126Y-93735000D01*
X96153720Y-93892569D01*
X95862569Y-94183720D01*
X95705000Y-94564126D01*
X90324379Y-94564126D01*
X90581965Y-94457431D01*
X90873116Y-94166280D01*
X91030685Y-93785874D01*
X91030685Y-93374126D01*
X90873116Y-92993720D01*
X90653522Y-92774126D01*
X93995000Y-92774126D01*
X93995000Y-93185874D01*
X94152569Y-93566280D01*
X94443720Y-93857431D01*
X94824126Y-94015000D01*
X95235874Y-94015000D01*
X95616280Y-93857431D01*
X95907431Y-93566280D01*
X96065000Y-93185874D01*
X96065000Y-92774126D01*
X95907431Y-92393720D01*
X95616280Y-92102569D01*
X95235874Y-91945000D01*
X94824126Y-91945000D01*
X94443720Y-92102569D01*
X94152569Y-92393720D01*
X93995000Y-92774126D01*
X90653522Y-92774126D01*
X90581965Y-92702569D01*
X90201559Y-92545000D01*
X89789811Y-92545000D01*
X89409405Y-92702569D01*
X89118254Y-92993720D01*
X88960685Y-93374126D01*
X87222440Y-93374126D01*
X87222440Y-92730000D01*
X87173157Y-92482235D01*
X87032809Y-92272191D01*
X86822765Y-92131843D01*
X86575000Y-92082560D01*
X84875000Y-92082560D01*
X84627235Y-92131843D01*
X84417191Y-92272191D01*
X84276843Y-92482235D01*
X84256261Y-92585708D01*
X83951924Y-92308355D01*
X83541890Y-92138524D01*
X83312000Y-92259845D01*
X83058000Y-92259845D01*
X82828110Y-92138524D01*
X82418076Y-92308355D01*
X81989817Y-92698642D01*
X81928843Y-92828478D01*
X81715625Y-92509375D01*
X81224418Y-92181161D01*
X80791256Y-92095000D01*
X80498744Y-92095000D01*
X80065582Y-92181161D01*
X79574375Y-92509375D01*
X79361157Y-92828478D01*
X79300183Y-92698642D01*
X78871924Y-92308355D01*
X78461890Y-92138524D01*
X78232000Y-92259845D01*
X77978000Y-92259845D01*
X77815512Y-92174094D01*
X78082606Y-91907000D01*
X86830000Y-91907000D01*
X86886796Y-91893592D01*
X87259980Y-91707000D01*
X93630000Y-91707000D01*
X93678601Y-91697333D01*
X93719803Y-91669803D01*
X94282606Y-91107000D01*
X98991548Y-91107000D01*
X99559553Y-91485670D01*
X99630000Y-91507000D01*
X107830000Y-91507000D01*
X107878601Y-91497333D01*
X107909336Y-91479170D01*
X108734786Y-90818810D01*
X108732560Y-90830000D01*
X108732560Y-92530000D01*
X108781843Y-92777765D01*
X108922191Y-92987809D01*
X109132235Y-93128157D01*
X109380000Y-93177440D01*
X111080000Y-93177440D01*
X111327765Y-93128157D01*
X111537809Y-92987809D01*
X111620001Y-92864802D01*
X111620001Y-102670000D01*
X109647311Y-102670000D01*
X109765000Y-102385874D01*
X109765000Y-101974126D01*
X109607431Y-101593720D01*
X109316280Y-101302569D01*
X108935874Y-101145000D01*
X108524126Y-101145000D01*
X108143720Y-101302569D01*
X107852569Y-101593720D01*
X107695000Y-101974126D01*
X107695000Y-102385874D01*
X107812689Y-102670000D01*
X104697311Y-102670000D01*
X104815000Y-102385874D01*
X104815000Y-101974126D01*
X104657431Y-101593720D01*
X104366280Y-101302569D01*
X103985874Y-101145000D01*
X103574126Y-101145000D01*
X103193720Y-101302569D01*
X102902569Y-101593720D01*
X102745000Y-101974126D01*
X102745000Y-102385874D01*
X102862689Y-102670000D01*
X91765000Y-102670000D01*
X91765000Y-102274126D01*
X91607431Y-101893720D01*
X91316280Y-101602569D01*
X90935874Y-101445000D01*
X90524126Y-101445000D01*
X90143720Y-101602569D01*
X89852569Y-101893720D01*
X89695000Y-102274126D01*
X89695000Y-102670000D01*
X62940000Y-102670000D01*
X62940000Y-101074126D01*
X65995000Y-101074126D01*
X65995000Y-101485874D01*
X66152569Y-101866280D01*
X66443720Y-102157431D01*
X66824126Y-102315000D01*
X67235874Y-102315000D01*
X67616280Y-102157431D01*
X67907431Y-101866280D01*
X68065000Y-101485874D01*
X68065000Y-101074126D01*
X67907431Y-100693720D01*
X67616280Y-100402569D01*
X67235874Y-100245000D01*
X66824126Y-100245000D01*
X66443720Y-100402569D01*
X66152569Y-100693720D01*
X65995000Y-101074126D01*
X62940000Y-101074126D01*
X62940000Y-97174126D01*
X65695000Y-97174126D01*
X65695000Y-97585874D01*
X65852569Y-97966280D01*
X66143720Y-98257431D01*
X66524126Y-98415000D01*
X66935874Y-98415000D01*
X67316280Y-98257431D01*
X67607431Y-97966280D01*
X67765000Y-97585874D01*
X67765000Y-97174126D01*
X67607431Y-96793720D01*
X67316280Y-96502569D01*
X66935874Y-96345000D01*
X66524126Y-96345000D01*
X66143720Y-96502569D01*
X65852569Y-96793720D01*
X65695000Y-97174126D01*
X62940000Y-97174126D01*
X62940000Y-95974126D01*
X67795000Y-95974126D01*
X67795000Y-96385874D01*
X67952569Y-96766280D01*
X68243720Y-97057431D01*
X68275637Y-97070652D01*
X68252569Y-97093720D01*
X68095000Y-97474126D01*
X68095000Y-97885874D01*
X68252569Y-98266280D01*
X68543720Y-98557431D01*
X68924126Y-98715000D01*
X69335874Y-98715000D01*
X69716280Y-98557431D01*
X70007431Y-98266280D01*
X70165000Y-97885874D01*
X70165000Y-97474126D01*
X70007431Y-97093720D01*
X69743711Y-96830000D01*
X72132560Y-96830000D01*
X72132560Y-98530000D01*
X72181843Y-98777765D01*
X72322191Y-98987809D01*
X72467681Y-99085023D01*
X72352191Y-99162191D01*
X72211843Y-99372235D01*
X72162560Y-99620000D01*
X72162560Y-101320000D01*
X72211843Y-101567765D01*
X72352191Y-101777809D01*
X72562235Y-101918157D01*
X72810000Y-101967440D01*
X74510000Y-101967440D01*
X74757765Y-101918157D01*
X74967809Y-101777809D01*
X75108157Y-101567765D01*
X75117184Y-101522381D01*
X75129375Y-101540625D01*
X75620582Y-101868839D01*
X76053744Y-101955000D01*
X76346256Y-101955000D01*
X76779418Y-101868839D01*
X77270625Y-101540625D01*
X77483843Y-101221522D01*
X77544817Y-101351358D01*
X77973076Y-101741645D01*
X78383110Y-101911476D01*
X78613000Y-101790155D01*
X78613000Y-100597000D01*
X78593000Y-100597000D01*
X78593000Y-100343000D01*
X78613000Y-100343000D01*
X78613000Y-100323000D01*
X78867000Y-100323000D01*
X78867000Y-100343000D01*
X78887000Y-100343000D01*
X78887000Y-100597000D01*
X78867000Y-100597000D01*
X78867000Y-101790155D01*
X79096890Y-101911476D01*
X79506924Y-101741645D01*
X79935183Y-101351358D01*
X79996157Y-101221522D01*
X80209375Y-101540625D01*
X80700582Y-101868839D01*
X81133744Y-101955000D01*
X81426256Y-101955000D01*
X81859418Y-101868839D01*
X82350625Y-101540625D01*
X82550000Y-101242239D01*
X82749375Y-101540625D01*
X83240582Y-101868839D01*
X83673744Y-101955000D01*
X83966256Y-101955000D01*
X84399418Y-101868839D01*
X84890625Y-101540625D01*
X84902816Y-101522381D01*
X84911843Y-101567765D01*
X85052191Y-101777809D01*
X85262235Y-101918157D01*
X85510000Y-101967440D01*
X87210000Y-101967440D01*
X87457765Y-101918157D01*
X87667809Y-101777809D01*
X87808157Y-101567765D01*
X87857440Y-101320000D01*
X87857440Y-100951151D01*
X87953720Y-101047431D01*
X88334126Y-101205000D01*
X88745874Y-101205000D01*
X89126280Y-101047431D01*
X89417431Y-100756280D01*
X89575000Y-100375874D01*
X89575000Y-99964126D01*
X89533579Y-99864126D01*
X95505000Y-99864126D01*
X95505000Y-100275874D01*
X95662569Y-100656280D01*
X95953720Y-100947431D01*
X96334126Y-101105000D01*
X96745874Y-101105000D01*
X97126280Y-100947431D01*
X97417431Y-100656280D01*
X97575000Y-100275874D01*
X97575000Y-99864126D01*
X97417431Y-99483720D01*
X97126280Y-99192569D01*
X96745874Y-99035000D01*
X96334126Y-99035000D01*
X95953720Y-99192569D01*
X95662569Y-99483720D01*
X95505000Y-99864126D01*
X89533579Y-99864126D01*
X89417431Y-99583720D01*
X89126280Y-99292569D01*
X88745874Y-99135000D01*
X88334126Y-99135000D01*
X87953720Y-99292569D01*
X87819090Y-99427199D01*
X87808157Y-99372235D01*
X87667809Y-99162191D01*
X87457765Y-99021843D01*
X87210000Y-98972560D01*
X87068476Y-98972560D01*
X87400625Y-98750625D01*
X87613843Y-98431522D01*
X87674817Y-98561358D01*
X88103076Y-98951645D01*
X88513110Y-99121476D01*
X88743000Y-99000155D01*
X88743000Y-97807000D01*
X88723000Y-97807000D01*
X88723000Y-97553000D01*
X88743000Y-97553000D01*
X88743000Y-96359845D01*
X88997000Y-96359845D01*
X88997000Y-97553000D01*
X89017000Y-97553000D01*
X89017000Y-97807000D01*
X88997000Y-97807000D01*
X88997000Y-99000155D01*
X89226890Y-99121476D01*
X89636924Y-98951645D01*
X90065183Y-98561358D01*
X90126157Y-98431522D01*
X90339375Y-98750625D01*
X90830582Y-99078839D01*
X91263744Y-99165000D01*
X91556256Y-99165000D01*
X91989418Y-99078839D01*
X92480625Y-98750625D01*
X92672057Y-98464126D01*
X97505000Y-98464126D01*
X97505000Y-98875874D01*
X97662569Y-99256280D01*
X97953720Y-99547431D01*
X98095000Y-99605951D01*
X98095000Y-99985874D01*
X98252569Y-100366280D01*
X98543720Y-100657431D01*
X98924126Y-100815000D01*
X99335874Y-100815000D01*
X99716280Y-100657431D01*
X99845414Y-100528297D01*
X99902569Y-100666280D01*
X100193720Y-100957431D01*
X100574126Y-101115000D01*
X100985874Y-101115000D01*
X101366280Y-100957431D01*
X101657431Y-100666280D01*
X101815000Y-100285874D01*
X101815000Y-99874126D01*
X109195000Y-99874126D01*
X109195000Y-100285874D01*
X109352569Y-100666280D01*
X109643720Y-100957431D01*
X110024126Y-101115000D01*
X110435874Y-101115000D01*
X110816280Y-100957431D01*
X111107431Y-100666280D01*
X111265000Y-100285874D01*
X111265000Y-99874126D01*
X111107431Y-99493720D01*
X110816280Y-99202569D01*
X110435874Y-99045000D01*
X110024126Y-99045000D01*
X109643720Y-99202569D01*
X109352569Y-99493720D01*
X109195000Y-99874126D01*
X101815000Y-99874126D01*
X101657431Y-99493720D01*
X101366280Y-99202569D01*
X100985874Y-99045000D01*
X100574126Y-99045000D01*
X100193720Y-99202569D01*
X100064586Y-99331703D01*
X100007431Y-99193720D01*
X99926463Y-99112752D01*
X99935874Y-99112752D01*
X100316280Y-98955183D01*
X100607431Y-98664032D01*
X100765000Y-98283626D01*
X100765000Y-97871878D01*
X100607431Y-97491472D01*
X100316280Y-97200321D01*
X99935874Y-97042752D01*
X99524126Y-97042752D01*
X99143720Y-97200321D01*
X98852569Y-97491472D01*
X98786199Y-97651703D01*
X98745874Y-97635000D01*
X98334126Y-97635000D01*
X97953720Y-97792569D01*
X97662569Y-98083720D01*
X97505000Y-98464126D01*
X92672057Y-98464126D01*
X92808839Y-98259418D01*
X92924092Y-97680000D01*
X92808839Y-97100582D01*
X92480625Y-96609375D01*
X91989418Y-96281161D01*
X91556256Y-96195000D01*
X91263744Y-96195000D01*
X90830582Y-96281161D01*
X90339375Y-96609375D01*
X90126157Y-96928478D01*
X90065183Y-96798642D01*
X89636924Y-96408355D01*
X89226890Y-96238524D01*
X88997000Y-96359845D01*
X88743000Y-96359845D01*
X88513110Y-96238524D01*
X88103076Y-96408355D01*
X87674817Y-96798642D01*
X87613843Y-96928478D01*
X87400625Y-96609375D01*
X86909418Y-96281161D01*
X86476256Y-96195000D01*
X86183744Y-96195000D01*
X85750582Y-96281161D01*
X85259375Y-96609375D01*
X85060000Y-96907761D01*
X84860625Y-96609375D01*
X84369418Y-96281161D01*
X83936256Y-96195000D01*
X83643744Y-96195000D01*
X83210582Y-96281161D01*
X82719375Y-96609375D01*
X82520000Y-96907761D01*
X82320625Y-96609375D01*
X81829418Y-96281161D01*
X81396256Y-96195000D01*
X81103744Y-96195000D01*
X80670582Y-96281161D01*
X80179375Y-96609375D01*
X79980000Y-96907761D01*
X79780625Y-96609375D01*
X79289418Y-96281161D01*
X78856256Y-96195000D01*
X78563744Y-96195000D01*
X78130582Y-96281161D01*
X77639375Y-96609375D01*
X77440000Y-96907761D01*
X77240625Y-96609375D01*
X76749418Y-96281161D01*
X76316256Y-96195000D01*
X76023744Y-96195000D01*
X75590582Y-96281161D01*
X75099375Y-96609375D01*
X75087184Y-96627619D01*
X75078157Y-96582235D01*
X74937809Y-96372191D01*
X74727765Y-96231843D01*
X74480000Y-96182560D01*
X72780000Y-96182560D01*
X72532235Y-96231843D01*
X72322191Y-96372191D01*
X72181843Y-96582235D01*
X72132560Y-96830000D01*
X69743711Y-96830000D01*
X69716280Y-96802569D01*
X69684363Y-96789348D01*
X69707431Y-96766280D01*
X69865000Y-96385874D01*
X69865000Y-95974126D01*
X69707431Y-95593720D01*
X69416280Y-95302569D01*
X69035874Y-95145000D01*
X68624126Y-95145000D01*
X68243720Y-95302569D01*
X67952569Y-95593720D01*
X67795000Y-95974126D01*
X62940000Y-95974126D01*
X62940000Y-94164485D01*
X63064375Y-94350625D01*
X63555582Y-94678839D01*
X63988744Y-94765000D01*
X64281256Y-94765000D01*
X64714418Y-94678839D01*
X65205625Y-94350625D01*
X65482072Y-93936892D01*
X76663514Y-93936892D01*
X76909817Y-94461358D01*
X77338076Y-94851645D01*
X77748110Y-95021476D01*
X77978000Y-94900155D01*
X77978000Y-93707000D01*
X76784181Y-93707000D01*
X76663514Y-93936892D01*
X65482072Y-93936892D01*
X65533839Y-93859418D01*
X65649092Y-93280000D01*
X65533839Y-92700582D01*
X65205625Y-92209375D01*
X65183967Y-92194904D01*
X65344698Y-92128327D01*
X65523327Y-91949699D01*
X65620000Y-91716310D01*
X65620000Y-91025750D01*
X65461250Y-90867000D01*
X64262000Y-90867000D01*
X64262000Y-90887000D01*
X64008000Y-90887000D01*
X64008000Y-90867000D01*
X63988000Y-90867000D01*
X63988000Y-90613000D01*
X64008000Y-90613000D01*
X64008000Y-90593000D01*
X64262000Y-90593000D01*
X64262000Y-90613000D01*
X65461250Y-90613000D01*
X65620000Y-90454250D01*
X65620000Y-90307000D01*
X65774132Y-90307000D01*
X67936381Y-92665817D01*
X67936381Y-92665817D01*
G37*
X67936381Y-92665817D02*
X67976348Y-92695111D01*
X68030000Y-92707000D01*
X76905892Y-92707000D01*
X76663514Y-93223108D01*
X76784181Y-93453000D01*
X77978000Y-93453000D01*
X77978000Y-92259845D01*
X78232000Y-92259845D01*
X78232000Y-93453000D01*
X78252000Y-93453000D01*
X78252000Y-93707000D01*
X78232000Y-93707000D01*
X78232000Y-94900155D01*
X78461890Y-95021476D01*
X78871924Y-94851645D01*
X79300183Y-94461358D01*
X79361157Y-94331522D01*
X79574375Y-94650625D01*
X80065582Y-94978839D01*
X80498744Y-95065000D01*
X80791256Y-95065000D01*
X81224418Y-94978839D01*
X81715625Y-94650625D01*
X81928843Y-94331522D01*
X81989817Y-94461358D01*
X82418076Y-94851645D01*
X82828110Y-95021476D01*
X83058000Y-94900155D01*
X83058000Y-93707000D01*
X83038000Y-93707000D01*
X83038000Y-93453000D01*
X83058000Y-93453000D01*
X83058000Y-92259845D01*
X83312000Y-92259845D01*
X83312000Y-93453000D01*
X83332000Y-93453000D01*
X83332000Y-93707000D01*
X83312000Y-93707000D01*
X83312000Y-94900155D01*
X83541890Y-95021476D01*
X83951924Y-94851645D01*
X84256261Y-94574292D01*
X84276843Y-94677765D01*
X84417191Y-94887809D01*
X84627235Y-95028157D01*
X84875000Y-95077440D01*
X86575000Y-95077440D01*
X86822765Y-95028157D01*
X87032809Y-94887809D01*
X87173157Y-94677765D01*
X87222440Y-94430000D01*
X87222440Y-93374126D01*
X88960685Y-93374126D01*
X88960685Y-93785874D01*
X89118254Y-94166280D01*
X89409405Y-94457431D01*
X89789811Y-94615000D01*
X90201559Y-94615000D01*
X90324379Y-94564126D01*
X95705000Y-94564126D01*
X95705000Y-94975874D01*
X95847541Y-95320000D01*
X95705000Y-95664126D01*
X95705000Y-96075874D01*
X95862569Y-96456280D01*
X96153720Y-96747431D01*
X96534126Y-96905000D01*
X96945874Y-96905000D01*
X97326280Y-96747431D01*
X97617431Y-96456280D01*
X97775000Y-96075874D01*
X97775000Y-95664126D01*
X97654879Y-95374126D01*
X99595000Y-95374126D01*
X99595000Y-95785874D01*
X99752569Y-96166280D01*
X100043720Y-96457431D01*
X100424126Y-96615000D01*
X100739907Y-96615000D01*
X100802569Y-96766280D01*
X101093720Y-97057431D01*
X101474126Y-97215000D01*
X101885874Y-97215000D01*
X102266280Y-97057431D01*
X102557431Y-96766280D01*
X102715000Y-96385874D01*
X102715000Y-95974126D01*
X102557431Y-95593720D01*
X102318711Y-95355000D01*
X102407431Y-95266280D01*
X102565000Y-94885874D01*
X102565000Y-94474126D01*
X102440737Y-94174126D01*
X104095000Y-94174126D01*
X104095000Y-94585874D01*
X104252569Y-94966280D01*
X104543720Y-95257431D01*
X104924126Y-95415000D01*
X105335874Y-95415000D01*
X105716280Y-95257431D01*
X106007431Y-94966280D01*
X106165000Y-94585874D01*
X106165000Y-94174126D01*
X106007431Y-93793720D01*
X105716280Y-93502569D01*
X105335874Y-93345000D01*
X104924126Y-93345000D01*
X104543720Y-93502569D01*
X104252569Y-93793720D01*
X104095000Y-94174126D01*
X102440737Y-94174126D01*
X102407431Y-94093720D01*
X102116280Y-93802569D01*
X101735874Y-93645000D01*
X101324126Y-93645000D01*
X100943720Y-93802569D01*
X100652569Y-94093720D01*
X100495000Y-94474126D01*
X100495000Y-94545000D01*
X100424126Y-94545000D01*
X100043720Y-94702569D01*
X99752569Y-94993720D01*
X99595000Y-95374126D01*
X97654879Y-95374126D01*
X97632459Y-95320000D01*
X97775000Y-94975874D01*
X97775000Y-94564126D01*
X97617431Y-94183720D01*
X97326280Y-93892569D01*
X96945874Y-93735000D01*
X96534126Y-93735000D01*
X96153720Y-93892569D01*
X95862569Y-94183720D01*
X95705000Y-94564126D01*
X90324379Y-94564126D01*
X90581965Y-94457431D01*
X90873116Y-94166280D01*
X91030685Y-93785874D01*
X91030685Y-93374126D01*
X90873116Y-92993720D01*
X90653522Y-92774126D01*
X93995000Y-92774126D01*
X93995000Y-93185874D01*
X94152569Y-93566280D01*
X94443720Y-93857431D01*
X94824126Y-94015000D01*
X95235874Y-94015000D01*
X95616280Y-93857431D01*
X95907431Y-93566280D01*
X96065000Y-93185874D01*
X96065000Y-92774126D01*
X95907431Y-92393720D01*
X95616280Y-92102569D01*
X95235874Y-91945000D01*
X94824126Y-91945000D01*
X94443720Y-92102569D01*
X94152569Y-92393720D01*
X93995000Y-92774126D01*
X90653522Y-92774126D01*
X90581965Y-92702569D01*
X90201559Y-92545000D01*
X89789811Y-92545000D01*
X89409405Y-92702569D01*
X89118254Y-92993720D01*
X88960685Y-93374126D01*
X87222440Y-93374126D01*
X87222440Y-92730000D01*
X87173157Y-92482235D01*
X87032809Y-92272191D01*
X86822765Y-92131843D01*
X86575000Y-92082560D01*
X84875000Y-92082560D01*
X84627235Y-92131843D01*
X84417191Y-92272191D01*
X84276843Y-92482235D01*
X84256261Y-92585708D01*
X83951924Y-92308355D01*
X83541890Y-92138524D01*
X83312000Y-92259845D01*
X83058000Y-92259845D01*
X82828110Y-92138524D01*
X82418076Y-92308355D01*
X81989817Y-92698642D01*
X81928843Y-92828478D01*
X81715625Y-92509375D01*
X81224418Y-92181161D01*
X80791256Y-92095000D01*
X80498744Y-92095000D01*
X80065582Y-92181161D01*
X79574375Y-92509375D01*
X79361157Y-92828478D01*
X79300183Y-92698642D01*
X78871924Y-92308355D01*
X78461890Y-92138524D01*
X78232000Y-92259845D01*
X77978000Y-92259845D01*
X77815512Y-92174094D01*
X78082606Y-91907000D01*
X86830000Y-91907000D01*
X86886796Y-91893592D01*
X87259980Y-91707000D01*
X93630000Y-91707000D01*
X93678601Y-91697333D01*
X93719803Y-91669803D01*
X94282606Y-91107000D01*
X98991548Y-91107000D01*
X99559553Y-91485670D01*
X99630000Y-91507000D01*
X107830000Y-91507000D01*
X107878601Y-91497333D01*
X107909336Y-91479170D01*
X108734786Y-90818810D01*
X108732560Y-90830000D01*
X108732560Y-92530000D01*
X108781843Y-92777765D01*
X108922191Y-92987809D01*
X109132235Y-93128157D01*
X109380000Y-93177440D01*
X111080000Y-93177440D01*
X111327765Y-93128157D01*
X111537809Y-92987809D01*
X111620001Y-92864802D01*
X111620001Y-102670000D01*
X109647311Y-102670000D01*
X109765000Y-102385874D01*
X109765000Y-101974126D01*
X109607431Y-101593720D01*
X109316280Y-101302569D01*
X108935874Y-101145000D01*
X108524126Y-101145000D01*
X108143720Y-101302569D01*
X107852569Y-101593720D01*
X107695000Y-101974126D01*
X107695000Y-102385874D01*
X107812689Y-102670000D01*
X104697311Y-102670000D01*
X104815000Y-102385874D01*
X104815000Y-101974126D01*
X104657431Y-101593720D01*
X104366280Y-101302569D01*
X103985874Y-101145000D01*
X103574126Y-101145000D01*
X103193720Y-101302569D01*
X102902569Y-101593720D01*
X102745000Y-101974126D01*
X102745000Y-102385874D01*
X102862689Y-102670000D01*
X91765000Y-102670000D01*
X91765000Y-102274126D01*
X91607431Y-101893720D01*
X91316280Y-101602569D01*
X90935874Y-101445000D01*
X90524126Y-101445000D01*
X90143720Y-101602569D01*
X89852569Y-101893720D01*
X89695000Y-102274126D01*
X89695000Y-102670000D01*
X62940000Y-102670000D01*
X62940000Y-101074126D01*
X65995000Y-101074126D01*
X65995000Y-101485874D01*
X66152569Y-101866280D01*
X66443720Y-102157431D01*
X66824126Y-102315000D01*
X67235874Y-102315000D01*
X67616280Y-102157431D01*
X67907431Y-101866280D01*
X68065000Y-101485874D01*
X68065000Y-101074126D01*
X67907431Y-100693720D01*
X67616280Y-100402569D01*
X67235874Y-100245000D01*
X66824126Y-100245000D01*
X66443720Y-100402569D01*
X66152569Y-100693720D01*
X65995000Y-101074126D01*
X62940000Y-101074126D01*
X62940000Y-97174126D01*
X65695000Y-97174126D01*
X65695000Y-97585874D01*
X65852569Y-97966280D01*
X66143720Y-98257431D01*
X66524126Y-98415000D01*
X66935874Y-98415000D01*
X67316280Y-98257431D01*
X67607431Y-97966280D01*
X67765000Y-97585874D01*
X67765000Y-97174126D01*
X67607431Y-96793720D01*
X67316280Y-96502569D01*
X66935874Y-96345000D01*
X66524126Y-96345000D01*
X66143720Y-96502569D01*
X65852569Y-96793720D01*
X65695000Y-97174126D01*
X62940000Y-97174126D01*
X62940000Y-95974126D01*
X67795000Y-95974126D01*
X67795000Y-96385874D01*
X67952569Y-96766280D01*
X68243720Y-97057431D01*
X68275637Y-97070652D01*
X68252569Y-97093720D01*
X68095000Y-97474126D01*
X68095000Y-97885874D01*
X68252569Y-98266280D01*
X68543720Y-98557431D01*
X68924126Y-98715000D01*
X69335874Y-98715000D01*
X69716280Y-98557431D01*
X70007431Y-98266280D01*
X70165000Y-97885874D01*
X70165000Y-97474126D01*
X70007431Y-97093720D01*
X69743711Y-96830000D01*
X72132560Y-96830000D01*
X72132560Y-98530000D01*
X72181843Y-98777765D01*
X72322191Y-98987809D01*
X72467681Y-99085023D01*
X72352191Y-99162191D01*
X72211843Y-99372235D01*
X72162560Y-99620000D01*
X72162560Y-101320000D01*
X72211843Y-101567765D01*
X72352191Y-101777809D01*
X72562235Y-101918157D01*
X72810000Y-101967440D01*
X74510000Y-101967440D01*
X74757765Y-101918157D01*
X74967809Y-101777809D01*
X75108157Y-101567765D01*
X75117184Y-101522381D01*
X75129375Y-101540625D01*
X75620582Y-101868839D01*
X76053744Y-101955000D01*
X76346256Y-101955000D01*
X76779418Y-101868839D01*
X77270625Y-101540625D01*
X77483843Y-101221522D01*
X77544817Y-101351358D01*
X77973076Y-101741645D01*
X78383110Y-101911476D01*
X78613000Y-101790155D01*
X78613000Y-100597000D01*
X78593000Y-100597000D01*
X78593000Y-100343000D01*
X78613000Y-100343000D01*
X78613000Y-100323000D01*
X78867000Y-100323000D01*
X78867000Y-100343000D01*
X78887000Y-100343000D01*
X78887000Y-100597000D01*
X78867000Y-100597000D01*
X78867000Y-101790155D01*
X79096890Y-101911476D01*
X79506924Y-101741645D01*
X79935183Y-101351358D01*
X79996157Y-101221522D01*
X80209375Y-101540625D01*
X80700582Y-101868839D01*
X81133744Y-101955000D01*
X81426256Y-101955000D01*
X81859418Y-101868839D01*
X82350625Y-101540625D01*
X82550000Y-101242239D01*
X82749375Y-101540625D01*
X83240582Y-101868839D01*
X83673744Y-101955000D01*
X83966256Y-101955000D01*
X84399418Y-101868839D01*
X84890625Y-101540625D01*
X84902816Y-101522381D01*
X84911843Y-101567765D01*
X85052191Y-101777809D01*
X85262235Y-101918157D01*
X85510000Y-101967440D01*
X87210000Y-101967440D01*
X87457765Y-101918157D01*
X87667809Y-101777809D01*
X87808157Y-101567765D01*
X87857440Y-101320000D01*
X87857440Y-100951151D01*
X87953720Y-101047431D01*
X88334126Y-101205000D01*
X88745874Y-101205000D01*
X89126280Y-101047431D01*
X89417431Y-100756280D01*
X89575000Y-100375874D01*
X89575000Y-99964126D01*
X89533579Y-99864126D01*
X95505000Y-99864126D01*
X95505000Y-100275874D01*
X95662569Y-100656280D01*
X95953720Y-100947431D01*
X96334126Y-101105000D01*
X96745874Y-101105000D01*
X97126280Y-100947431D01*
X97417431Y-100656280D01*
X97575000Y-100275874D01*
X97575000Y-99864126D01*
X97417431Y-99483720D01*
X97126280Y-99192569D01*
X96745874Y-99035000D01*
X96334126Y-99035000D01*
X95953720Y-99192569D01*
X95662569Y-99483720D01*
X95505000Y-99864126D01*
X89533579Y-99864126D01*
X89417431Y-99583720D01*
X89126280Y-99292569D01*
X88745874Y-99135000D01*
X88334126Y-99135000D01*
X87953720Y-99292569D01*
X87819090Y-99427199D01*
X87808157Y-99372235D01*
X87667809Y-99162191D01*
X87457765Y-99021843D01*
X87210000Y-98972560D01*
X87068476Y-98972560D01*
X87400625Y-98750625D01*
X87613843Y-98431522D01*
X87674817Y-98561358D01*
X88103076Y-98951645D01*
X88513110Y-99121476D01*
X88743000Y-99000155D01*
X88743000Y-97807000D01*
X88723000Y-97807000D01*
X88723000Y-97553000D01*
X88743000Y-97553000D01*
X88743000Y-96359845D01*
X88997000Y-96359845D01*
X88997000Y-97553000D01*
X89017000Y-97553000D01*
X89017000Y-97807000D01*
X88997000Y-97807000D01*
X88997000Y-99000155D01*
X89226890Y-99121476D01*
X89636924Y-98951645D01*
X90065183Y-98561358D01*
X90126157Y-98431522D01*
X90339375Y-98750625D01*
X90830582Y-99078839D01*
X91263744Y-99165000D01*
X91556256Y-99165000D01*
X91989418Y-99078839D01*
X92480625Y-98750625D01*
X92672057Y-98464126D01*
X97505000Y-98464126D01*
X97505000Y-98875874D01*
X97662569Y-99256280D01*
X97953720Y-99547431D01*
X98095000Y-99605951D01*
X98095000Y-99985874D01*
X98252569Y-100366280D01*
X98543720Y-100657431D01*
X98924126Y-100815000D01*
X99335874Y-100815000D01*
X99716280Y-100657431D01*
X99845414Y-100528297D01*
X99902569Y-100666280D01*
X100193720Y-100957431D01*
X100574126Y-101115000D01*
X100985874Y-101115000D01*
X101366280Y-100957431D01*
X101657431Y-100666280D01*
X101815000Y-100285874D01*
X101815000Y-99874126D01*
X109195000Y-99874126D01*
X109195000Y-100285874D01*
X109352569Y-100666280D01*
X109643720Y-100957431D01*
X110024126Y-101115000D01*
X110435874Y-101115000D01*
X110816280Y-100957431D01*
X111107431Y-100666280D01*
X111265000Y-100285874D01*
X111265000Y-99874126D01*
X111107431Y-99493720D01*
X110816280Y-99202569D01*
X110435874Y-99045000D01*
X110024126Y-99045000D01*
X109643720Y-99202569D01*
X109352569Y-99493720D01*
X109195000Y-99874126D01*
X101815000Y-99874126D01*
X101657431Y-99493720D01*
X101366280Y-99202569D01*
X100985874Y-99045000D01*
X100574126Y-99045000D01*
X100193720Y-99202569D01*
X100064586Y-99331703D01*
X100007431Y-99193720D01*
X99926463Y-99112752D01*
X99935874Y-99112752D01*
X100316280Y-98955183D01*
X100607431Y-98664032D01*
X100765000Y-98283626D01*
X100765000Y-97871878D01*
X100607431Y-97491472D01*
X100316280Y-97200321D01*
X99935874Y-97042752D01*
X99524126Y-97042752D01*
X99143720Y-97200321D01*
X98852569Y-97491472D01*
X98786199Y-97651703D01*
X98745874Y-97635000D01*
X98334126Y-97635000D01*
X97953720Y-97792569D01*
X97662569Y-98083720D01*
X97505000Y-98464126D01*
X92672057Y-98464126D01*
X92808839Y-98259418D01*
X92924092Y-97680000D01*
X92808839Y-97100582D01*
X92480625Y-96609375D01*
X91989418Y-96281161D01*
X91556256Y-96195000D01*
X91263744Y-96195000D01*
X90830582Y-96281161D01*
X90339375Y-96609375D01*
X90126157Y-96928478D01*
X90065183Y-96798642D01*
X89636924Y-96408355D01*
X89226890Y-96238524D01*
X88997000Y-96359845D01*
X88743000Y-96359845D01*
X88513110Y-96238524D01*
X88103076Y-96408355D01*
X87674817Y-96798642D01*
X87613843Y-96928478D01*
X87400625Y-96609375D01*
X86909418Y-96281161D01*
X86476256Y-96195000D01*
X86183744Y-96195000D01*
X85750582Y-96281161D01*
X85259375Y-96609375D01*
X85060000Y-96907761D01*
X84860625Y-96609375D01*
X84369418Y-96281161D01*
X83936256Y-96195000D01*
X83643744Y-96195000D01*
X83210582Y-96281161D01*
X82719375Y-96609375D01*
X82520000Y-96907761D01*
X82320625Y-96609375D01*
X81829418Y-96281161D01*
X81396256Y-96195000D01*
X81103744Y-96195000D01*
X80670582Y-96281161D01*
X80179375Y-96609375D01*
X79980000Y-96907761D01*
X79780625Y-96609375D01*
X79289418Y-96281161D01*
X78856256Y-96195000D01*
X78563744Y-96195000D01*
X78130582Y-96281161D01*
X77639375Y-96609375D01*
X77440000Y-96907761D01*
X77240625Y-96609375D01*
X76749418Y-96281161D01*
X76316256Y-96195000D01*
X76023744Y-96195000D01*
X75590582Y-96281161D01*
X75099375Y-96609375D01*
X75087184Y-96627619D01*
X75078157Y-96582235D01*
X74937809Y-96372191D01*
X74727765Y-96231843D01*
X74480000Y-96182560D01*
X72780000Y-96182560D01*
X72532235Y-96231843D01*
X72322191Y-96372191D01*
X72181843Y-96582235D01*
X72132560Y-96830000D01*
X69743711Y-96830000D01*
X69716280Y-96802569D01*
X69684363Y-96789348D01*
X69707431Y-96766280D01*
X69865000Y-96385874D01*
X69865000Y-95974126D01*
X69707431Y-95593720D01*
X69416280Y-95302569D01*
X69035874Y-95145000D01*
X68624126Y-95145000D01*
X68243720Y-95302569D01*
X67952569Y-95593720D01*
X67795000Y-95974126D01*
X62940000Y-95974126D01*
X62940000Y-94164485D01*
X63064375Y-94350625D01*
X63555582Y-94678839D01*
X63988744Y-94765000D01*
X64281256Y-94765000D01*
X64714418Y-94678839D01*
X65205625Y-94350625D01*
X65482072Y-93936892D01*
X76663514Y-93936892D01*
X76909817Y-94461358D01*
X77338076Y-94851645D01*
X77748110Y-95021476D01*
X77978000Y-94900155D01*
X77978000Y-93707000D01*
X76784181Y-93707000D01*
X76663514Y-93936892D01*
X65482072Y-93936892D01*
X65533839Y-93859418D01*
X65649092Y-93280000D01*
X65533839Y-92700582D01*
X65205625Y-92209375D01*
X65183967Y-92194904D01*
X65344698Y-92128327D01*
X65523327Y-91949699D01*
X65620000Y-91716310D01*
X65620000Y-91025750D01*
X65461250Y-90867000D01*
X64262000Y-90867000D01*
X64262000Y-90887000D01*
X64008000Y-90887000D01*
X64008000Y-90867000D01*
X63988000Y-90867000D01*
X63988000Y-90613000D01*
X64008000Y-90613000D01*
X64008000Y-90593000D01*
X64262000Y-90593000D01*
X64262000Y-90613000D01*
X65461250Y-90613000D01*
X65620000Y-90454250D01*
X65620000Y-90307000D01*
X65774132Y-90307000D01*
X67936381Y-92665817D01*
G36*
X110357000Y-86473000D02*
X110377000Y-86473000D01*
X110377000Y-86727000D01*
X110357000Y-86727000D01*
X110357000Y-86747000D01*
X110103000Y-86747000D01*
X110103000Y-86727000D01*
X110083000Y-86727000D01*
X110083000Y-86473000D01*
X110103000Y-86473000D01*
X110103000Y-86453000D01*
X110357000Y-86453000D01*
X110357000Y-86473000D01*
X110357000Y-86473000D01*
G37*
X110357000Y-86473000D02*
X110377000Y-86473000D01*
X110377000Y-86727000D01*
X110357000Y-86727000D01*
X110357000Y-86747000D01*
X110103000Y-86747000D01*
X110103000Y-86727000D01*
X110083000Y-86727000D01*
X110083000Y-86473000D01*
X110103000Y-86473000D01*
X110103000Y-86453000D01*
X110357000Y-86453000D01*
X110357000Y-86473000D01*
G04 #@! TO.N,GNDA*
G36*
X82352569Y-81493720D02*
X82195000Y-81874126D01*
X82195000Y-82285874D01*
X82352569Y-82666280D01*
X82643720Y-82957431D01*
X83024126Y-83115000D01*
X83435874Y-83115000D01*
X83816280Y-82957431D01*
X84107431Y-82666280D01*
X84265000Y-82285874D01*
X84265000Y-81874126D01*
X84107431Y-81493720D01*
X83903711Y-81290000D01*
X91012689Y-81290000D01*
X90895000Y-81574126D01*
X90895000Y-81985874D01*
X91052569Y-82366280D01*
X91343720Y-82657431D01*
X91724126Y-82815000D01*
X92135874Y-82815000D01*
X92516280Y-82657431D01*
X92807431Y-82366280D01*
X92965000Y-81985874D01*
X92965000Y-81574126D01*
X92847311Y-81290000D01*
X100312689Y-81290000D01*
X100195000Y-81574126D01*
X100195000Y-81985874D01*
X100352569Y-82366280D01*
X100643720Y-82657431D01*
X101024126Y-82815000D01*
X101435874Y-82815000D01*
X101816280Y-82657431D01*
X102107431Y-82366280D01*
X102265000Y-81985874D01*
X102265000Y-81574126D01*
X102147311Y-81290000D01*
X106312689Y-81290000D01*
X106195000Y-81574126D01*
X106195000Y-81985874D01*
X106352569Y-82366280D01*
X106643720Y-82657431D01*
X107024126Y-82815000D01*
X107435874Y-82815000D01*
X107816280Y-82657431D01*
X108103000Y-82370711D01*
X108103000Y-90127394D01*
X107577394Y-90653000D01*
X99868452Y-90653000D01*
X99300447Y-90274330D01*
X99230000Y-90253000D01*
X94030000Y-90253000D01*
X93981399Y-90262667D01*
X93940197Y-90290197D01*
X93377394Y-90853000D01*
X87230000Y-90853000D01*
X87173204Y-90866408D01*
X86800020Y-91053000D01*
X77830000Y-91053000D01*
X77781399Y-91062667D01*
X77740197Y-91090197D01*
X77495000Y-91335394D01*
X77495000Y-91064126D01*
X77337431Y-90683720D01*
X77046280Y-90392569D01*
X76665874Y-90235000D01*
X76254126Y-90235000D01*
X75873720Y-90392569D01*
X75582569Y-90683720D01*
X75425000Y-91064126D01*
X75425000Y-91475874D01*
X75581210Y-91853000D01*
X68582903Y-91853000D01*
X67836061Y-91100159D01*
X73029446Y-91100159D01*
X73115852Y-91356643D01*
X73689336Y-91566458D01*
X74299460Y-91540839D01*
X74744148Y-91356643D01*
X74830554Y-91100159D01*
X73930000Y-90199605D01*
X73029446Y-91100159D01*
X67836061Y-91100159D01*
X66130161Y-89380557D01*
X66089070Y-89352863D01*
X66040000Y-89343000D01*
X65309326Y-89343000D01*
X65232765Y-89291843D01*
X65187381Y-89282816D01*
X65205625Y-89270625D01*
X65533839Y-88779418D01*
X65649092Y-88200000D01*
X65533839Y-87620582D01*
X65205625Y-87129375D01*
X65183967Y-87114904D01*
X65344698Y-87048327D01*
X65523327Y-86869699D01*
X65604336Y-86674126D01*
X67195000Y-86674126D01*
X67195000Y-87085874D01*
X67352569Y-87466280D01*
X67643720Y-87757431D01*
X68024126Y-87915000D01*
X68435874Y-87915000D01*
X68816280Y-87757431D01*
X69107431Y-87466280D01*
X69265000Y-87085874D01*
X69265000Y-86674126D01*
X69226012Y-86580000D01*
X72382560Y-86580000D01*
X72382560Y-88380000D01*
X72431843Y-88627765D01*
X72572191Y-88837809D01*
X72770114Y-88970058D01*
X72735282Y-89004890D01*
X72849839Y-89119447D01*
X72593357Y-89205852D01*
X72383542Y-89779336D01*
X72409161Y-90389460D01*
X72593357Y-90834148D01*
X72849841Y-90920554D01*
X73750395Y-90020000D01*
X73736253Y-90005858D01*
X73915858Y-89826253D01*
X73930000Y-89840395D01*
X73944143Y-89826253D01*
X74123748Y-90005858D01*
X74109605Y-90020000D01*
X75010159Y-90920554D01*
X75266643Y-90834148D01*
X75476458Y-90260664D01*
X75450839Y-89650540D01*
X75266643Y-89205852D01*
X75010161Y-89119447D01*
X75124718Y-89004890D01*
X75089886Y-88970058D01*
X75287809Y-88837809D01*
X75428157Y-88627765D01*
X75477440Y-88380000D01*
X75477440Y-87274126D01*
X79195000Y-87274126D01*
X79195000Y-87685874D01*
X79352569Y-88066280D01*
X79643720Y-88357431D01*
X80024126Y-88515000D01*
X80435874Y-88515000D01*
X80816280Y-88357431D01*
X81107431Y-88066280D01*
X81265000Y-87685874D01*
X81265000Y-87274126D01*
X81107431Y-86893720D01*
X80816280Y-86602569D01*
X80435874Y-86445000D01*
X80024126Y-86445000D01*
X79643720Y-86602569D01*
X79352569Y-86893720D01*
X79195000Y-87274126D01*
X75477440Y-87274126D01*
X75477440Y-86580000D01*
X75428157Y-86332235D01*
X75287809Y-86122191D01*
X75215876Y-86074126D01*
X87295000Y-86074126D01*
X87295000Y-86485874D01*
X87452569Y-86866280D01*
X87743720Y-87157431D01*
X88124126Y-87315000D01*
X88535874Y-87315000D01*
X88916280Y-87157431D01*
X89207431Y-86866280D01*
X89365000Y-86485874D01*
X89365000Y-86074126D01*
X89207431Y-85693720D01*
X88916280Y-85402569D01*
X88535874Y-85245000D01*
X88124126Y-85245000D01*
X87743720Y-85402569D01*
X87452569Y-85693720D01*
X87295000Y-86074126D01*
X75215876Y-86074126D01*
X75077765Y-85981843D01*
X74830000Y-85932560D01*
X73030000Y-85932560D01*
X72782235Y-85981843D01*
X72572191Y-86122191D01*
X72431843Y-86332235D01*
X72382560Y-86580000D01*
X69226012Y-86580000D01*
X69107431Y-86293720D01*
X68816280Y-86002569D01*
X68435874Y-85845000D01*
X68024126Y-85845000D01*
X67643720Y-86002569D01*
X67352569Y-86293720D01*
X67195000Y-86674126D01*
X65604336Y-86674126D01*
X65620000Y-86636310D01*
X65620000Y-85945750D01*
X65461250Y-85787000D01*
X64262000Y-85787000D01*
X64262000Y-85807000D01*
X64008000Y-85807000D01*
X64008000Y-85787000D01*
X63988000Y-85787000D01*
X63988000Y-85533000D01*
X64008000Y-85533000D01*
X64008000Y-84333750D01*
X64262000Y-84333750D01*
X64262000Y-85533000D01*
X65461250Y-85533000D01*
X65620000Y-85374250D01*
X65620000Y-84683690D01*
X65523327Y-84450301D01*
X65344698Y-84271673D01*
X65111309Y-84175000D01*
X64420750Y-84175000D01*
X64262000Y-84333750D01*
X64008000Y-84333750D01*
X63849250Y-84175000D01*
X63158691Y-84175000D01*
X62940000Y-84265585D01*
X62940000Y-81290000D01*
X82556289Y-81290000D01*
X82352569Y-81493720D01*
X82352569Y-81493720D01*
G37*
X82352569Y-81493720D02*
X82195000Y-81874126D01*
X82195000Y-82285874D01*
X82352569Y-82666280D01*
X82643720Y-82957431D01*
X83024126Y-83115000D01*
X83435874Y-83115000D01*
X83816280Y-82957431D01*
X84107431Y-82666280D01*
X84265000Y-82285874D01*
X84265000Y-81874126D01*
X84107431Y-81493720D01*
X83903711Y-81290000D01*
X91012689Y-81290000D01*
X90895000Y-81574126D01*
X90895000Y-81985874D01*
X91052569Y-82366280D01*
X91343720Y-82657431D01*
X91724126Y-82815000D01*
X92135874Y-82815000D01*
X92516280Y-82657431D01*
X92807431Y-82366280D01*
X92965000Y-81985874D01*
X92965000Y-81574126D01*
X92847311Y-81290000D01*
X100312689Y-81290000D01*
X100195000Y-81574126D01*
X100195000Y-81985874D01*
X100352569Y-82366280D01*
X100643720Y-82657431D01*
X101024126Y-82815000D01*
X101435874Y-82815000D01*
X101816280Y-82657431D01*
X102107431Y-82366280D01*
X102265000Y-81985874D01*
X102265000Y-81574126D01*
X102147311Y-81290000D01*
X106312689Y-81290000D01*
X106195000Y-81574126D01*
X106195000Y-81985874D01*
X106352569Y-82366280D01*
X106643720Y-82657431D01*
X107024126Y-82815000D01*
X107435874Y-82815000D01*
X107816280Y-82657431D01*
X108103000Y-82370711D01*
X108103000Y-90127394D01*
X107577394Y-90653000D01*
X99868452Y-90653000D01*
X99300447Y-90274330D01*
X99230000Y-90253000D01*
X94030000Y-90253000D01*
X93981399Y-90262667D01*
X93940197Y-90290197D01*
X93377394Y-90853000D01*
X87230000Y-90853000D01*
X87173204Y-90866408D01*
X86800020Y-91053000D01*
X77830000Y-91053000D01*
X77781399Y-91062667D01*
X77740197Y-91090197D01*
X77495000Y-91335394D01*
X77495000Y-91064126D01*
X77337431Y-90683720D01*
X77046280Y-90392569D01*
X76665874Y-90235000D01*
X76254126Y-90235000D01*
X75873720Y-90392569D01*
X75582569Y-90683720D01*
X75425000Y-91064126D01*
X75425000Y-91475874D01*
X75581210Y-91853000D01*
X68582903Y-91853000D01*
X67836061Y-91100159D01*
X73029446Y-91100159D01*
X73115852Y-91356643D01*
X73689336Y-91566458D01*
X74299460Y-91540839D01*
X74744148Y-91356643D01*
X74830554Y-91100159D01*
X73930000Y-90199605D01*
X73029446Y-91100159D01*
X67836061Y-91100159D01*
X66130161Y-89380557D01*
X66089070Y-89352863D01*
X66040000Y-89343000D01*
X65309326Y-89343000D01*
X65232765Y-89291843D01*
X65187381Y-89282816D01*
X65205625Y-89270625D01*
X65533839Y-88779418D01*
X65649092Y-88200000D01*
X65533839Y-87620582D01*
X65205625Y-87129375D01*
X65183967Y-87114904D01*
X65344698Y-87048327D01*
X65523327Y-86869699D01*
X65604336Y-86674126D01*
X67195000Y-86674126D01*
X67195000Y-87085874D01*
X67352569Y-87466280D01*
X67643720Y-87757431D01*
X68024126Y-87915000D01*
X68435874Y-87915000D01*
X68816280Y-87757431D01*
X69107431Y-87466280D01*
X69265000Y-87085874D01*
X69265000Y-86674126D01*
X69226012Y-86580000D01*
X72382560Y-86580000D01*
X72382560Y-88380000D01*
X72431843Y-88627765D01*
X72572191Y-88837809D01*
X72770114Y-88970058D01*
X72735282Y-89004890D01*
X72849839Y-89119447D01*
X72593357Y-89205852D01*
X72383542Y-89779336D01*
X72409161Y-90389460D01*
X72593357Y-90834148D01*
X72849841Y-90920554D01*
X73750395Y-90020000D01*
X73736253Y-90005858D01*
X73915858Y-89826253D01*
X73930000Y-89840395D01*
X73944143Y-89826253D01*
X74123748Y-90005858D01*
X74109605Y-90020000D01*
X75010159Y-90920554D01*
X75266643Y-90834148D01*
X75476458Y-90260664D01*
X75450839Y-89650540D01*
X75266643Y-89205852D01*
X75010161Y-89119447D01*
X75124718Y-89004890D01*
X75089886Y-88970058D01*
X75287809Y-88837809D01*
X75428157Y-88627765D01*
X75477440Y-88380000D01*
X75477440Y-87274126D01*
X79195000Y-87274126D01*
X79195000Y-87685874D01*
X79352569Y-88066280D01*
X79643720Y-88357431D01*
X80024126Y-88515000D01*
X80435874Y-88515000D01*
X80816280Y-88357431D01*
X81107431Y-88066280D01*
X81265000Y-87685874D01*
X81265000Y-87274126D01*
X81107431Y-86893720D01*
X80816280Y-86602569D01*
X80435874Y-86445000D01*
X80024126Y-86445000D01*
X79643720Y-86602569D01*
X79352569Y-86893720D01*
X79195000Y-87274126D01*
X75477440Y-87274126D01*
X75477440Y-86580000D01*
X75428157Y-86332235D01*
X75287809Y-86122191D01*
X75215876Y-86074126D01*
X87295000Y-86074126D01*
X87295000Y-86485874D01*
X87452569Y-86866280D01*
X87743720Y-87157431D01*
X88124126Y-87315000D01*
X88535874Y-87315000D01*
X88916280Y-87157431D01*
X89207431Y-86866280D01*
X89365000Y-86485874D01*
X89365000Y-86074126D01*
X89207431Y-85693720D01*
X88916280Y-85402569D01*
X88535874Y-85245000D01*
X88124126Y-85245000D01*
X87743720Y-85402569D01*
X87452569Y-85693720D01*
X87295000Y-86074126D01*
X75215876Y-86074126D01*
X75077765Y-85981843D01*
X74830000Y-85932560D01*
X73030000Y-85932560D01*
X72782235Y-85981843D01*
X72572191Y-86122191D01*
X72431843Y-86332235D01*
X72382560Y-86580000D01*
X69226012Y-86580000D01*
X69107431Y-86293720D01*
X68816280Y-86002569D01*
X68435874Y-85845000D01*
X68024126Y-85845000D01*
X67643720Y-86002569D01*
X67352569Y-86293720D01*
X67195000Y-86674126D01*
X65604336Y-86674126D01*
X65620000Y-86636310D01*
X65620000Y-85945750D01*
X65461250Y-85787000D01*
X64262000Y-85787000D01*
X64262000Y-85807000D01*
X64008000Y-85807000D01*
X64008000Y-85787000D01*
X63988000Y-85787000D01*
X63988000Y-85533000D01*
X64008000Y-85533000D01*
X64008000Y-84333750D01*
X64262000Y-84333750D01*
X64262000Y-85533000D01*
X65461250Y-85533000D01*
X65620000Y-85374250D01*
X65620000Y-84683690D01*
X65523327Y-84450301D01*
X65344698Y-84271673D01*
X65111309Y-84175000D01*
X64420750Y-84175000D01*
X64262000Y-84333750D01*
X64008000Y-84333750D01*
X63849250Y-84175000D01*
X63158691Y-84175000D01*
X62940000Y-84265585D01*
X62940000Y-81290000D01*
X82556289Y-81290000D01*
X82352569Y-81493720D01*
G04 #@! TD*
M02*
