G04 #@! TF.GenerationSoftware,KiCad,Pcbnew,(5.0.0-rc2-178-g3c7b91b96)*
G04 #@! TF.CreationDate,2018-10-30T10:49:57+01:00*
G04 #@! TF.ProjectId,pcb4,706362342E6B696361645F7063620000,1*
G04 #@! TF.SameCoordinates,Original*
G04 #@! TF.FileFunction,Legend,Top*
G04 #@! TF.FilePolarity,Positive*
%FSLAX46Y46*%
G04 Gerber Fmt 4.6, Leading zero omitted, Abs format (unit mm)*
G04 Created by KiCad (PCBNEW (5.0.0-rc2-178-g3c7b91b96)) date 10/30/18 10:49:57*
%MOMM*%
%LPD*%
G01*
G04 APERTURE LIST*
%ADD10C,0.120000*%
%ADD11C,0.150000*%
%ADD12C,0.125000*%
G04 APERTURE END LIST*
D10*
G04 #@! TO.C,C25*
X96258733Y-92090000D02*
X96601267Y-92090000D01*
X96258733Y-91070000D02*
X96601267Y-91070000D01*
D11*
G04 #@! TO.C,U9*
X88655000Y-91655000D02*
X87255000Y-91655000D01*
X88655000Y-96755000D02*
X92805000Y-96755000D01*
X88655000Y-91605000D02*
X92805000Y-91605000D01*
X88655000Y-96755000D02*
X88655000Y-96610000D01*
X92805000Y-96755000D02*
X92805000Y-96610000D01*
X92805000Y-91605000D02*
X92805000Y-91750000D01*
X88655000Y-91605000D02*
X88655000Y-91655000D01*
D10*
G04 #@! TO.C,C12*
X91201267Y-82470000D02*
X90858733Y-82470000D01*
X91201267Y-83490000D02*
X90858733Y-83490000D01*
G04 #@! TO.C,C24*
X91201267Y-89670000D02*
X90858733Y-89670000D01*
X91201267Y-90690000D02*
X90858733Y-90690000D01*
G04 #@! TO.C,C23*
X91201267Y-84270000D02*
X90858733Y-84270000D01*
X91201267Y-85290000D02*
X90858733Y-85290000D01*
G04 #@! TO.C,C22*
X87301267Y-90690000D02*
X86958733Y-90690000D01*
X87301267Y-89670000D02*
X86958733Y-89670000D01*
G04 #@! TO.C,C21*
X85158733Y-85290000D02*
X85501267Y-85290000D01*
X85158733Y-84270000D02*
X85501267Y-84270000D01*
G04 #@! TO.C,C20*
X80701267Y-83490000D02*
X80358733Y-83490000D01*
X80701267Y-82470000D02*
X80358733Y-82470000D01*
G04 #@! TO.C,C19*
X88840000Y-84051267D02*
X88840000Y-83708733D01*
X87820000Y-84051267D02*
X87820000Y-83708733D01*
G04 #@! TO.C,C18*
X85501267Y-88890000D02*
X85158733Y-88890000D01*
X85501267Y-87870000D02*
X85158733Y-87870000D01*
G04 #@! TO.C,C17*
X78488733Y-90742000D02*
X78831267Y-90742000D01*
X78488733Y-89722000D02*
X78831267Y-89722000D01*
G04 #@! TO.C,C16*
X106158733Y-82470000D02*
X106501267Y-82470000D01*
X106158733Y-83490000D02*
X106501267Y-83490000D01*
G04 #@! TO.C,C11*
X83958733Y-82620000D02*
X84301267Y-82620000D01*
X83958733Y-83640000D02*
X84301267Y-83640000D01*
G04 #@! TO.C,C9*
X69901267Y-91290000D02*
X69558733Y-91290000D01*
X69901267Y-90270000D02*
X69558733Y-90270000D01*
G04 #@! TO.C,C6*
X107458733Y-100890000D02*
X107801267Y-100890000D01*
X107458733Y-99870000D02*
X107801267Y-99870000D01*
G04 #@! TO.C,C15*
X101958733Y-82470000D02*
X102301267Y-82470000D01*
X101958733Y-83490000D02*
X102301267Y-83490000D01*
D11*
G04 #@! TO.C,U6*
X102155000Y-84055000D02*
X100755000Y-84055000D01*
X102155000Y-89155000D02*
X106305000Y-89155000D01*
X102155000Y-84005000D02*
X106305000Y-84005000D01*
X102155000Y-89155000D02*
X102155000Y-89010000D01*
X106305000Y-89155000D02*
X106305000Y-89010000D01*
X106305000Y-84005000D02*
X106305000Y-84150000D01*
X102155000Y-84005000D02*
X102155000Y-84055000D01*
G04 #@! TO.C,U5*
X93255000Y-88055000D02*
X93305000Y-88055000D01*
X93255000Y-83905000D02*
X93400000Y-83905000D01*
X98405000Y-83905000D02*
X98260000Y-83905000D01*
X98405000Y-88055000D02*
X98260000Y-88055000D01*
X93255000Y-88055000D02*
X93255000Y-83905000D01*
X98405000Y-88055000D02*
X98405000Y-83905000D01*
X93305000Y-88055000D02*
X93305000Y-89455000D01*
G04 #@! TO.C,U4*
X77555000Y-84055000D02*
X76155000Y-84055000D01*
X77555000Y-89155000D02*
X81705000Y-89155000D01*
X77555000Y-84005000D02*
X81705000Y-84005000D01*
X77555000Y-89155000D02*
X77555000Y-89010000D01*
X81705000Y-89155000D02*
X81705000Y-89010000D01*
X81705000Y-84005000D02*
X81705000Y-84150000D01*
X77555000Y-84005000D02*
X77555000Y-84055000D01*
G04 #@! TO.C,U3*
X66555000Y-88055000D02*
X66605000Y-88055000D01*
X66555000Y-83905000D02*
X66700000Y-83905000D01*
X71705000Y-83905000D02*
X71560000Y-83905000D01*
X71705000Y-88055000D02*
X71560000Y-88055000D01*
X66555000Y-88055000D02*
X66555000Y-83905000D01*
X71705000Y-88055000D02*
X71705000Y-83905000D01*
X66605000Y-88055000D02*
X66605000Y-89455000D01*
D10*
G04 #@! TO.C,U1*
X66020000Y-93934000D02*
X66020000Y-95194000D01*
X66020000Y-100754000D02*
X66020000Y-99494000D01*
X69780000Y-93934000D02*
X66020000Y-93934000D01*
X72030000Y-100754000D02*
X66020000Y-100754000D01*
G04 #@! TO.C,R7*
X85158733Y-87090000D02*
X85501267Y-87090000D01*
X85158733Y-86070000D02*
X85501267Y-86070000D01*
G04 #@! TO.C,R16*
X98920000Y-85851267D02*
X98920000Y-85508733D01*
X99940000Y-85851267D02*
X99940000Y-85508733D01*
G04 #@! TO.C,R9*
X91201267Y-87090000D02*
X90858733Y-87090000D01*
X91201267Y-86070000D02*
X90858733Y-86070000D01*
G04 #@! TO.C,R1*
X100458733Y-93390000D02*
X100801267Y-93390000D01*
X100458733Y-92370000D02*
X100801267Y-92370000D01*
G04 #@! TO.C,R2*
X107440000Y-91058733D02*
X107440000Y-91401267D01*
X106420000Y-91058733D02*
X106420000Y-91401267D01*
G04 #@! TO.C,R3*
X102820000Y-91058733D02*
X102820000Y-91401267D01*
X103840000Y-91058733D02*
X103840000Y-91401267D01*
G04 #@! TO.C,R4*
X105640000Y-91058733D02*
X105640000Y-91401267D01*
X104620000Y-91058733D02*
X104620000Y-91401267D01*
G04 #@! TO.C,R5*
X74740000Y-84651267D02*
X74740000Y-84308733D01*
X73720000Y-84651267D02*
X73720000Y-84308733D01*
G04 #@! TO.C,R8*
X83723267Y-89670000D02*
X83380733Y-89670000D01*
X83723267Y-90690000D02*
X83380733Y-90690000D01*
G04 #@! TO.C,R15*
X91201267Y-88890000D02*
X90858733Y-88890000D01*
X91201267Y-87870000D02*
X90858733Y-87870000D01*
G04 #@! TO.C,R6*
X77101267Y-83490000D02*
X76758733Y-83490000D01*
X77101267Y-82470000D02*
X76758733Y-82470000D01*
G04 #@! TO.C,C25*
D12*
X96044285Y-90558571D02*
X96015714Y-90582380D01*
X95930000Y-90606190D01*
X95872857Y-90606190D01*
X95787142Y-90582380D01*
X95730000Y-90534761D01*
X95701428Y-90487142D01*
X95672857Y-90391904D01*
X95672857Y-90320476D01*
X95701428Y-90225238D01*
X95730000Y-90177619D01*
X95787142Y-90130000D01*
X95872857Y-90106190D01*
X95930000Y-90106190D01*
X96015714Y-90130000D01*
X96044285Y-90153809D01*
X96272857Y-90153809D02*
X96301428Y-90130000D01*
X96358571Y-90106190D01*
X96501428Y-90106190D01*
X96558571Y-90130000D01*
X96587142Y-90153809D01*
X96615714Y-90201428D01*
X96615714Y-90249047D01*
X96587142Y-90320476D01*
X96244285Y-90606190D01*
X96615714Y-90606190D01*
X97158571Y-90106190D02*
X96872857Y-90106190D01*
X96844285Y-90344285D01*
X96872857Y-90320476D01*
X96930000Y-90296666D01*
X97072857Y-90296666D01*
X97130000Y-90320476D01*
X97158571Y-90344285D01*
X97187142Y-90391904D01*
X97187142Y-90510952D01*
X97158571Y-90558571D01*
X97130000Y-90582380D01*
X97072857Y-90606190D01*
X96930000Y-90606190D01*
X96872857Y-90582380D01*
X96844285Y-90558571D01*
G04 #@! TO.C,U9*
X85872857Y-95506190D02*
X85872857Y-95910952D01*
X85901428Y-95958571D01*
X85930000Y-95982380D01*
X85987142Y-96006190D01*
X86101428Y-96006190D01*
X86158571Y-95982380D01*
X86187142Y-95958571D01*
X86215714Y-95910952D01*
X86215714Y-95506190D01*
X86530000Y-96006190D02*
X86644285Y-96006190D01*
X86701428Y-95982380D01*
X86730000Y-95958571D01*
X86787142Y-95887142D01*
X86815714Y-95791904D01*
X86815714Y-95601428D01*
X86787142Y-95553809D01*
X86758571Y-95530000D01*
X86701428Y-95506190D01*
X86587142Y-95506190D01*
X86530000Y-95530000D01*
X86501428Y-95553809D01*
X86472857Y-95601428D01*
X86472857Y-95720476D01*
X86501428Y-95768095D01*
X86530000Y-95791904D01*
X86587142Y-95815714D01*
X86701428Y-95815714D01*
X86758571Y-95791904D01*
X86787142Y-95768095D01*
X86815714Y-95720476D01*
G04 #@! TO.C,C12*
X90644285Y-81358571D02*
X90615714Y-81382380D01*
X90530000Y-81406190D01*
X90472857Y-81406190D01*
X90387142Y-81382380D01*
X90330000Y-81334761D01*
X90301428Y-81287142D01*
X90272857Y-81191904D01*
X90272857Y-81120476D01*
X90301428Y-81025238D01*
X90330000Y-80977619D01*
X90387142Y-80930000D01*
X90472857Y-80906190D01*
X90530000Y-80906190D01*
X90615714Y-80930000D01*
X90644285Y-80953809D01*
X91215714Y-81406190D02*
X90872857Y-81406190D01*
X91044285Y-81406190D02*
X91044285Y-80906190D01*
X90987142Y-80977619D01*
X90930000Y-81025238D01*
X90872857Y-81049047D01*
X91444285Y-80953809D02*
X91472857Y-80930000D01*
X91530000Y-80906190D01*
X91672857Y-80906190D01*
X91730000Y-80930000D01*
X91758571Y-80953809D01*
X91787142Y-81001428D01*
X91787142Y-81049047D01*
X91758571Y-81120476D01*
X91415714Y-81406190D01*
X91787142Y-81406190D01*
G04 #@! TO.C,C24*
X93244285Y-90408571D02*
X93215714Y-90432380D01*
X93130000Y-90456190D01*
X93072857Y-90456190D01*
X92987142Y-90432380D01*
X92930000Y-90384761D01*
X92901428Y-90337142D01*
X92872857Y-90241904D01*
X92872857Y-90170476D01*
X92901428Y-90075238D01*
X92930000Y-90027619D01*
X92987142Y-89980000D01*
X93072857Y-89956190D01*
X93130000Y-89956190D01*
X93215714Y-89980000D01*
X93244285Y-90003809D01*
X93472857Y-90003809D02*
X93501428Y-89980000D01*
X93558571Y-89956190D01*
X93701428Y-89956190D01*
X93758571Y-89980000D01*
X93787142Y-90003809D01*
X93815714Y-90051428D01*
X93815714Y-90099047D01*
X93787142Y-90170476D01*
X93444285Y-90456190D01*
X93815714Y-90456190D01*
X94330000Y-90122857D02*
X94330000Y-90456190D01*
X94187142Y-89932380D02*
X94044285Y-90289523D01*
X94415714Y-90289523D01*
G04 #@! TO.C,C23*
X93008571Y-85165714D02*
X93032380Y-85194285D01*
X93056190Y-85280000D01*
X93056190Y-85337142D01*
X93032380Y-85422857D01*
X92984761Y-85480000D01*
X92937142Y-85508571D01*
X92841904Y-85537142D01*
X92770476Y-85537142D01*
X92675238Y-85508571D01*
X92627619Y-85480000D01*
X92580000Y-85422857D01*
X92556190Y-85337142D01*
X92556190Y-85280000D01*
X92580000Y-85194285D01*
X92603809Y-85165714D01*
X92603809Y-84937142D02*
X92580000Y-84908571D01*
X92556190Y-84851428D01*
X92556190Y-84708571D01*
X92580000Y-84651428D01*
X92603809Y-84622857D01*
X92651428Y-84594285D01*
X92699047Y-84594285D01*
X92770476Y-84622857D01*
X93056190Y-84965714D01*
X93056190Y-84594285D01*
X92556190Y-84394285D02*
X92556190Y-84022857D01*
X92746666Y-84222857D01*
X92746666Y-84137142D01*
X92770476Y-84080000D01*
X92794285Y-84051428D01*
X92841904Y-84022857D01*
X92960952Y-84022857D01*
X93008571Y-84051428D01*
X93032380Y-84080000D01*
X93056190Y-84137142D01*
X93056190Y-84308571D01*
X93032380Y-84365714D01*
X93008571Y-84394285D01*
G04 #@! TO.C,C22*
X87244285Y-89358571D02*
X87215714Y-89382380D01*
X87130000Y-89406190D01*
X87072857Y-89406190D01*
X86987142Y-89382380D01*
X86930000Y-89334761D01*
X86901428Y-89287142D01*
X86872857Y-89191904D01*
X86872857Y-89120476D01*
X86901428Y-89025238D01*
X86930000Y-88977619D01*
X86987142Y-88930000D01*
X87072857Y-88906190D01*
X87130000Y-88906190D01*
X87215714Y-88930000D01*
X87244285Y-88953809D01*
X87472857Y-88953809D02*
X87501428Y-88930000D01*
X87558571Y-88906190D01*
X87701428Y-88906190D01*
X87758571Y-88930000D01*
X87787142Y-88953809D01*
X87815714Y-89001428D01*
X87815714Y-89049047D01*
X87787142Y-89120476D01*
X87444285Y-89406190D01*
X87815714Y-89406190D01*
X88044285Y-88953809D02*
X88072857Y-88930000D01*
X88130000Y-88906190D01*
X88272857Y-88906190D01*
X88330000Y-88930000D01*
X88358571Y-88953809D01*
X88387142Y-89001428D01*
X88387142Y-89049047D01*
X88358571Y-89120476D01*
X88015714Y-89406190D01*
X88387142Y-89406190D01*
G04 #@! TO.C,C21*
X87508571Y-85165714D02*
X87532380Y-85194285D01*
X87556190Y-85280000D01*
X87556190Y-85337142D01*
X87532380Y-85422857D01*
X87484761Y-85480000D01*
X87437142Y-85508571D01*
X87341904Y-85537142D01*
X87270476Y-85537142D01*
X87175238Y-85508571D01*
X87127619Y-85480000D01*
X87080000Y-85422857D01*
X87056190Y-85337142D01*
X87056190Y-85280000D01*
X87080000Y-85194285D01*
X87103809Y-85165714D01*
X87103809Y-84937142D02*
X87080000Y-84908571D01*
X87056190Y-84851428D01*
X87056190Y-84708571D01*
X87080000Y-84651428D01*
X87103809Y-84622857D01*
X87151428Y-84594285D01*
X87199047Y-84594285D01*
X87270476Y-84622857D01*
X87556190Y-84965714D01*
X87556190Y-84594285D01*
X87556190Y-84022857D02*
X87556190Y-84365714D01*
X87556190Y-84194285D02*
X87056190Y-84194285D01*
X87127619Y-84251428D01*
X87175238Y-84308571D01*
X87199047Y-84365714D01*
G04 #@! TO.C,C20*
X80144285Y-81808571D02*
X80115714Y-81832380D01*
X80030000Y-81856190D01*
X79972857Y-81856190D01*
X79887142Y-81832380D01*
X79830000Y-81784761D01*
X79801428Y-81737142D01*
X79772857Y-81641904D01*
X79772857Y-81570476D01*
X79801428Y-81475238D01*
X79830000Y-81427619D01*
X79887142Y-81380000D01*
X79972857Y-81356190D01*
X80030000Y-81356190D01*
X80115714Y-81380000D01*
X80144285Y-81403809D01*
X80372857Y-81403809D02*
X80401428Y-81380000D01*
X80458571Y-81356190D01*
X80601428Y-81356190D01*
X80658571Y-81380000D01*
X80687142Y-81403809D01*
X80715714Y-81451428D01*
X80715714Y-81499047D01*
X80687142Y-81570476D01*
X80344285Y-81856190D01*
X80715714Y-81856190D01*
X81087142Y-81356190D02*
X81144285Y-81356190D01*
X81201428Y-81380000D01*
X81230000Y-81403809D01*
X81258571Y-81451428D01*
X81287142Y-81546666D01*
X81287142Y-81665714D01*
X81258571Y-81760952D01*
X81230000Y-81808571D01*
X81201428Y-81832380D01*
X81144285Y-81856190D01*
X81087142Y-81856190D01*
X81030000Y-81832380D01*
X81001428Y-81808571D01*
X80972857Y-81760952D01*
X80944285Y-81665714D01*
X80944285Y-81546666D01*
X80972857Y-81451428D01*
X81001428Y-81403809D01*
X81030000Y-81380000D01*
X81087142Y-81356190D01*
G04 #@! TO.C,C19*
X87408571Y-82965714D02*
X87432380Y-82994285D01*
X87456190Y-83080000D01*
X87456190Y-83137142D01*
X87432380Y-83222857D01*
X87384761Y-83280000D01*
X87337142Y-83308571D01*
X87241904Y-83337142D01*
X87170476Y-83337142D01*
X87075238Y-83308571D01*
X87027619Y-83280000D01*
X86980000Y-83222857D01*
X86956190Y-83137142D01*
X86956190Y-83080000D01*
X86980000Y-82994285D01*
X87003809Y-82965714D01*
X87456190Y-82394285D02*
X87456190Y-82737142D01*
X87456190Y-82565714D02*
X86956190Y-82565714D01*
X87027619Y-82622857D01*
X87075238Y-82680000D01*
X87099047Y-82737142D01*
X87456190Y-82108571D02*
X87456190Y-81994285D01*
X87432380Y-81937142D01*
X87408571Y-81908571D01*
X87337142Y-81851428D01*
X87241904Y-81822857D01*
X87051428Y-81822857D01*
X87003809Y-81851428D01*
X86980000Y-81880000D01*
X86956190Y-81937142D01*
X86956190Y-82051428D01*
X86980000Y-82108571D01*
X87003809Y-82137142D01*
X87051428Y-82165714D01*
X87170476Y-82165714D01*
X87218095Y-82137142D01*
X87241904Y-82108571D01*
X87265714Y-82051428D01*
X87265714Y-81937142D01*
X87241904Y-81880000D01*
X87218095Y-81851428D01*
X87170476Y-81822857D01*
G04 #@! TO.C,C18*
X85844285Y-87658571D02*
X85815714Y-87682380D01*
X85730000Y-87706190D01*
X85672857Y-87706190D01*
X85587142Y-87682380D01*
X85530000Y-87634761D01*
X85501428Y-87587142D01*
X85472857Y-87491904D01*
X85472857Y-87420476D01*
X85501428Y-87325238D01*
X85530000Y-87277619D01*
X85587142Y-87230000D01*
X85672857Y-87206190D01*
X85730000Y-87206190D01*
X85815714Y-87230000D01*
X85844285Y-87253809D01*
X86415714Y-87706190D02*
X86072857Y-87706190D01*
X86244285Y-87706190D02*
X86244285Y-87206190D01*
X86187142Y-87277619D01*
X86130000Y-87325238D01*
X86072857Y-87349047D01*
X86758571Y-87420476D02*
X86701428Y-87396666D01*
X86672857Y-87372857D01*
X86644285Y-87325238D01*
X86644285Y-87301428D01*
X86672857Y-87253809D01*
X86701428Y-87230000D01*
X86758571Y-87206190D01*
X86872857Y-87206190D01*
X86930000Y-87230000D01*
X86958571Y-87253809D01*
X86987142Y-87301428D01*
X86987142Y-87325238D01*
X86958571Y-87372857D01*
X86930000Y-87396666D01*
X86872857Y-87420476D01*
X86758571Y-87420476D01*
X86701428Y-87444285D01*
X86672857Y-87468095D01*
X86644285Y-87515714D01*
X86644285Y-87610952D01*
X86672857Y-87658571D01*
X86701428Y-87682380D01*
X86758571Y-87706190D01*
X86872857Y-87706190D01*
X86930000Y-87682380D01*
X86958571Y-87658571D01*
X86987142Y-87610952D01*
X86987142Y-87515714D01*
X86958571Y-87468095D01*
X86930000Y-87444285D01*
X86872857Y-87420476D01*
G04 #@! TO.C,C17*
X77524285Y-91460571D02*
X77495714Y-91484380D01*
X77410000Y-91508190D01*
X77352857Y-91508190D01*
X77267142Y-91484380D01*
X77210000Y-91436761D01*
X77181428Y-91389142D01*
X77152857Y-91293904D01*
X77152857Y-91222476D01*
X77181428Y-91127238D01*
X77210000Y-91079619D01*
X77267142Y-91032000D01*
X77352857Y-91008190D01*
X77410000Y-91008190D01*
X77495714Y-91032000D01*
X77524285Y-91055809D01*
X78095714Y-91508190D02*
X77752857Y-91508190D01*
X77924285Y-91508190D02*
X77924285Y-91008190D01*
X77867142Y-91079619D01*
X77810000Y-91127238D01*
X77752857Y-91151047D01*
X78295714Y-91008190D02*
X78695714Y-91008190D01*
X78438571Y-91508190D01*
G04 #@! TO.C,C16*
X105944285Y-81358571D02*
X105915714Y-81382380D01*
X105830000Y-81406190D01*
X105772857Y-81406190D01*
X105687142Y-81382380D01*
X105630000Y-81334761D01*
X105601428Y-81287142D01*
X105572857Y-81191904D01*
X105572857Y-81120476D01*
X105601428Y-81025238D01*
X105630000Y-80977619D01*
X105687142Y-80930000D01*
X105772857Y-80906190D01*
X105830000Y-80906190D01*
X105915714Y-80930000D01*
X105944285Y-80953809D01*
X106515714Y-81406190D02*
X106172857Y-81406190D01*
X106344285Y-81406190D02*
X106344285Y-80906190D01*
X106287142Y-80977619D01*
X106230000Y-81025238D01*
X106172857Y-81049047D01*
X107030000Y-80906190D02*
X106915714Y-80906190D01*
X106858571Y-80930000D01*
X106830000Y-80953809D01*
X106772857Y-81025238D01*
X106744285Y-81120476D01*
X106744285Y-81310952D01*
X106772857Y-81358571D01*
X106801428Y-81382380D01*
X106858571Y-81406190D01*
X106972857Y-81406190D01*
X107030000Y-81382380D01*
X107058571Y-81358571D01*
X107087142Y-81310952D01*
X107087142Y-81191904D01*
X107058571Y-81144285D01*
X107030000Y-81120476D01*
X106972857Y-81096666D01*
X106858571Y-81096666D01*
X106801428Y-81120476D01*
X106772857Y-81144285D01*
X106744285Y-81191904D01*
G04 #@! TO.C,C11*
X84308571Y-82015714D02*
X84332380Y-82044285D01*
X84356190Y-82130000D01*
X84356190Y-82187142D01*
X84332380Y-82272857D01*
X84284761Y-82330000D01*
X84237142Y-82358571D01*
X84141904Y-82387142D01*
X84070476Y-82387142D01*
X83975238Y-82358571D01*
X83927619Y-82330000D01*
X83880000Y-82272857D01*
X83856190Y-82187142D01*
X83856190Y-82130000D01*
X83880000Y-82044285D01*
X83903809Y-82015714D01*
X84356190Y-81444285D02*
X84356190Y-81787142D01*
X84356190Y-81615714D02*
X83856190Y-81615714D01*
X83927619Y-81672857D01*
X83975238Y-81730000D01*
X83999047Y-81787142D01*
X84356190Y-80872857D02*
X84356190Y-81215714D01*
X84356190Y-81044285D02*
X83856190Y-81044285D01*
X83927619Y-81101428D01*
X83975238Y-81158571D01*
X83999047Y-81215714D01*
G04 #@! TO.C,C9*
X69630000Y-92158571D02*
X69601428Y-92182380D01*
X69515714Y-92206190D01*
X69458571Y-92206190D01*
X69372857Y-92182380D01*
X69315714Y-92134761D01*
X69287142Y-92087142D01*
X69258571Y-91991904D01*
X69258571Y-91920476D01*
X69287142Y-91825238D01*
X69315714Y-91777619D01*
X69372857Y-91730000D01*
X69458571Y-91706190D01*
X69515714Y-91706190D01*
X69601428Y-91730000D01*
X69630000Y-91753809D01*
X69915714Y-92206190D02*
X70030000Y-92206190D01*
X70087142Y-92182380D01*
X70115714Y-92158571D01*
X70172857Y-92087142D01*
X70201428Y-91991904D01*
X70201428Y-91801428D01*
X70172857Y-91753809D01*
X70144285Y-91730000D01*
X70087142Y-91706190D01*
X69972857Y-91706190D01*
X69915714Y-91730000D01*
X69887142Y-91753809D01*
X69858571Y-91801428D01*
X69858571Y-91920476D01*
X69887142Y-91968095D01*
X69915714Y-91991904D01*
X69972857Y-92015714D01*
X70087142Y-92015714D01*
X70144285Y-91991904D01*
X70172857Y-91968095D01*
X70201428Y-91920476D01*
G04 #@! TO.C,C6*
X107530000Y-99128571D02*
X107501428Y-99152380D01*
X107415714Y-99176190D01*
X107358571Y-99176190D01*
X107272857Y-99152380D01*
X107215714Y-99104761D01*
X107187142Y-99057142D01*
X107158571Y-98961904D01*
X107158571Y-98890476D01*
X107187142Y-98795238D01*
X107215714Y-98747619D01*
X107272857Y-98700000D01*
X107358571Y-98676190D01*
X107415714Y-98676190D01*
X107501428Y-98700000D01*
X107530000Y-98723809D01*
X108044285Y-98676190D02*
X107930000Y-98676190D01*
X107872857Y-98700000D01*
X107844285Y-98723809D01*
X107787142Y-98795238D01*
X107758571Y-98890476D01*
X107758571Y-99080952D01*
X107787142Y-99128571D01*
X107815714Y-99152380D01*
X107872857Y-99176190D01*
X107987142Y-99176190D01*
X108044285Y-99152380D01*
X108072857Y-99128571D01*
X108101428Y-99080952D01*
X108101428Y-98961904D01*
X108072857Y-98914285D01*
X108044285Y-98890476D01*
X107987142Y-98866666D01*
X107872857Y-98866666D01*
X107815714Y-98890476D01*
X107787142Y-98914285D01*
X107758571Y-98961904D01*
G04 #@! TO.C,C15*
X101744285Y-81358571D02*
X101715714Y-81382380D01*
X101630000Y-81406190D01*
X101572857Y-81406190D01*
X101487142Y-81382380D01*
X101430000Y-81334761D01*
X101401428Y-81287142D01*
X101372857Y-81191904D01*
X101372857Y-81120476D01*
X101401428Y-81025238D01*
X101430000Y-80977619D01*
X101487142Y-80930000D01*
X101572857Y-80906190D01*
X101630000Y-80906190D01*
X101715714Y-80930000D01*
X101744285Y-80953809D01*
X102315714Y-81406190D02*
X101972857Y-81406190D01*
X102144285Y-81406190D02*
X102144285Y-80906190D01*
X102087142Y-80977619D01*
X102030000Y-81025238D01*
X101972857Y-81049047D01*
X102858571Y-80906190D02*
X102572857Y-80906190D01*
X102544285Y-81144285D01*
X102572857Y-81120476D01*
X102630000Y-81096666D01*
X102772857Y-81096666D01*
X102830000Y-81120476D01*
X102858571Y-81144285D01*
X102887142Y-81191904D01*
X102887142Y-81310952D01*
X102858571Y-81358571D01*
X102830000Y-81382380D01*
X102772857Y-81406190D01*
X102630000Y-81406190D01*
X102572857Y-81382380D01*
X102544285Y-81358571D01*
G04 #@! TO.C,Q1*
X73972857Y-92053809D02*
X73915714Y-92030000D01*
X73858571Y-91982380D01*
X73772857Y-91910952D01*
X73715714Y-91887142D01*
X73658571Y-91887142D01*
X73687142Y-92006190D02*
X73630000Y-91982380D01*
X73572857Y-91934761D01*
X73544285Y-91839523D01*
X73544285Y-91672857D01*
X73572857Y-91577619D01*
X73630000Y-91530000D01*
X73687142Y-91506190D01*
X73801428Y-91506190D01*
X73858571Y-91530000D01*
X73915714Y-91577619D01*
X73944285Y-91672857D01*
X73944285Y-91839523D01*
X73915714Y-91934761D01*
X73858571Y-91982380D01*
X73801428Y-92006190D01*
X73687142Y-92006190D01*
X74515714Y-92006190D02*
X74172857Y-92006190D01*
X74344285Y-92006190D02*
X74344285Y-91506190D01*
X74287142Y-91577619D01*
X74230000Y-91625238D01*
X74172857Y-91649047D01*
G04 #@! TO.C,U6*
X108122857Y-84956190D02*
X108122857Y-85360952D01*
X108151428Y-85408571D01*
X108180000Y-85432380D01*
X108237142Y-85456190D01*
X108351428Y-85456190D01*
X108408571Y-85432380D01*
X108437142Y-85408571D01*
X108465714Y-85360952D01*
X108465714Y-84956190D01*
X109008571Y-84956190D02*
X108894285Y-84956190D01*
X108837142Y-84980000D01*
X108808571Y-85003809D01*
X108751428Y-85075238D01*
X108722857Y-85170476D01*
X108722857Y-85360952D01*
X108751428Y-85408571D01*
X108780000Y-85432380D01*
X108837142Y-85456190D01*
X108951428Y-85456190D01*
X109008571Y-85432380D01*
X109037142Y-85408571D01*
X109065714Y-85360952D01*
X109065714Y-85241904D01*
X109037142Y-85194285D01*
X109008571Y-85170476D01*
X108951428Y-85146666D01*
X108837142Y-85146666D01*
X108780000Y-85170476D01*
X108751428Y-85194285D01*
X108722857Y-85241904D01*
G04 #@! TO.C,U5*
X94022857Y-81356190D02*
X94022857Y-81760952D01*
X94051428Y-81808571D01*
X94080000Y-81832380D01*
X94137142Y-81856190D01*
X94251428Y-81856190D01*
X94308571Y-81832380D01*
X94337142Y-81808571D01*
X94365714Y-81760952D01*
X94365714Y-81356190D01*
X94937142Y-81356190D02*
X94651428Y-81356190D01*
X94622857Y-81594285D01*
X94651428Y-81570476D01*
X94708571Y-81546666D01*
X94851428Y-81546666D01*
X94908571Y-81570476D01*
X94937142Y-81594285D01*
X94965714Y-81641904D01*
X94965714Y-81760952D01*
X94937142Y-81808571D01*
X94908571Y-81832380D01*
X94851428Y-81856190D01*
X94708571Y-81856190D01*
X94651428Y-81832380D01*
X94622857Y-81808571D01*
G04 #@! TO.C,U4*
X75306190Y-85087142D02*
X75710952Y-85087142D01*
X75758571Y-85058571D01*
X75782380Y-85030000D01*
X75806190Y-84972857D01*
X75806190Y-84858571D01*
X75782380Y-84801428D01*
X75758571Y-84772857D01*
X75710952Y-84744285D01*
X75306190Y-84744285D01*
X75472857Y-84201428D02*
X75806190Y-84201428D01*
X75282380Y-84344285D02*
X75639523Y-84487142D01*
X75639523Y-84115714D01*
G04 #@! TO.C,U3*
X65706190Y-88387142D02*
X66110952Y-88387142D01*
X66158571Y-88358571D01*
X66182380Y-88330000D01*
X66206190Y-88272857D01*
X66206190Y-88158571D01*
X66182380Y-88101428D01*
X66158571Y-88072857D01*
X66110952Y-88044285D01*
X65706190Y-88044285D01*
X65706190Y-87815714D02*
X65706190Y-87444285D01*
X65896666Y-87644285D01*
X65896666Y-87558571D01*
X65920476Y-87501428D01*
X65944285Y-87472857D01*
X65991904Y-87444285D01*
X66110952Y-87444285D01*
X66158571Y-87472857D01*
X66182380Y-87501428D01*
X66206190Y-87558571D01*
X66206190Y-87730000D01*
X66182380Y-87787142D01*
X66158571Y-87815714D01*
G04 #@! TO.C,U1*
X67472857Y-101270190D02*
X67472857Y-101674952D01*
X67501428Y-101722571D01*
X67530000Y-101746380D01*
X67587142Y-101770190D01*
X67701428Y-101770190D01*
X67758571Y-101746380D01*
X67787142Y-101722571D01*
X67815714Y-101674952D01*
X67815714Y-101270190D01*
X68415714Y-101770190D02*
X68072857Y-101770190D01*
X68244285Y-101770190D02*
X68244285Y-101270190D01*
X68187142Y-101341619D01*
X68130000Y-101389238D01*
X68072857Y-101413047D01*
G04 #@! TO.C,R7*
X87656190Y-86680000D02*
X87418095Y-86880000D01*
X87656190Y-87022857D02*
X87156190Y-87022857D01*
X87156190Y-86794285D01*
X87180000Y-86737142D01*
X87203809Y-86708571D01*
X87251428Y-86680000D01*
X87322857Y-86680000D01*
X87370476Y-86708571D01*
X87394285Y-86737142D01*
X87418095Y-86794285D01*
X87418095Y-87022857D01*
X87156190Y-86480000D02*
X87156190Y-86080000D01*
X87656190Y-86337142D01*
G04 #@! TO.C,R16*
X99656190Y-83215714D02*
X99418095Y-83415714D01*
X99656190Y-83558571D02*
X99156190Y-83558571D01*
X99156190Y-83330000D01*
X99180000Y-83272857D01*
X99203809Y-83244285D01*
X99251428Y-83215714D01*
X99322857Y-83215714D01*
X99370476Y-83244285D01*
X99394285Y-83272857D01*
X99418095Y-83330000D01*
X99418095Y-83558571D01*
X99656190Y-82644285D02*
X99656190Y-82987142D01*
X99656190Y-82815714D02*
X99156190Y-82815714D01*
X99227619Y-82872857D01*
X99275238Y-82930000D01*
X99299047Y-82987142D01*
X99156190Y-82130000D02*
X99156190Y-82244285D01*
X99180000Y-82301428D01*
X99203809Y-82330000D01*
X99275238Y-82387142D01*
X99370476Y-82415714D01*
X99560952Y-82415714D01*
X99608571Y-82387142D01*
X99632380Y-82358571D01*
X99656190Y-82301428D01*
X99656190Y-82187142D01*
X99632380Y-82130000D01*
X99608571Y-82101428D01*
X99560952Y-82072857D01*
X99441904Y-82072857D01*
X99394285Y-82101428D01*
X99370476Y-82130000D01*
X99346666Y-82187142D01*
X99346666Y-82301428D01*
X99370476Y-82358571D01*
X99394285Y-82387142D01*
X99441904Y-82415714D01*
G04 #@! TO.C,R9*
X89256190Y-86630000D02*
X89018095Y-86830000D01*
X89256190Y-86972857D02*
X88756190Y-86972857D01*
X88756190Y-86744285D01*
X88780000Y-86687142D01*
X88803809Y-86658571D01*
X88851428Y-86630000D01*
X88922857Y-86630000D01*
X88970476Y-86658571D01*
X88994285Y-86687142D01*
X89018095Y-86744285D01*
X89018095Y-86972857D01*
X89256190Y-86344285D02*
X89256190Y-86230000D01*
X89232380Y-86172857D01*
X89208571Y-86144285D01*
X89137142Y-86087142D01*
X89041904Y-86058571D01*
X88851428Y-86058571D01*
X88803809Y-86087142D01*
X88780000Y-86115714D01*
X88756190Y-86172857D01*
X88756190Y-86287142D01*
X88780000Y-86344285D01*
X88803809Y-86372857D01*
X88851428Y-86401428D01*
X88970476Y-86401428D01*
X89018095Y-86372857D01*
X89041904Y-86344285D01*
X89065714Y-86287142D01*
X89065714Y-86172857D01*
X89041904Y-86115714D01*
X89018095Y-86087142D01*
X88970476Y-86058571D01*
G04 #@! TO.C,R1*
X100530000Y-91906190D02*
X100330000Y-91668095D01*
X100187142Y-91906190D02*
X100187142Y-91406190D01*
X100415714Y-91406190D01*
X100472857Y-91430000D01*
X100501428Y-91453809D01*
X100530000Y-91501428D01*
X100530000Y-91572857D01*
X100501428Y-91620476D01*
X100472857Y-91644285D01*
X100415714Y-91668095D01*
X100187142Y-91668095D01*
X101101428Y-91906190D02*
X100758571Y-91906190D01*
X100930000Y-91906190D02*
X100930000Y-91406190D01*
X100872857Y-91477619D01*
X100815714Y-91525238D01*
X100758571Y-91549047D01*
G04 #@! TO.C,R2*
X106830000Y-93556190D02*
X106630000Y-93318095D01*
X106487142Y-93556190D02*
X106487142Y-93056190D01*
X106715714Y-93056190D01*
X106772857Y-93080000D01*
X106801428Y-93103809D01*
X106830000Y-93151428D01*
X106830000Y-93222857D01*
X106801428Y-93270476D01*
X106772857Y-93294285D01*
X106715714Y-93318095D01*
X106487142Y-93318095D01*
X107058571Y-93103809D02*
X107087142Y-93080000D01*
X107144285Y-93056190D01*
X107287142Y-93056190D01*
X107344285Y-93080000D01*
X107372857Y-93103809D01*
X107401428Y-93151428D01*
X107401428Y-93199047D01*
X107372857Y-93270476D01*
X107030000Y-93556190D01*
X107401428Y-93556190D01*
G04 #@! TO.C,R3*
X103230000Y-93556190D02*
X103030000Y-93318095D01*
X102887142Y-93556190D02*
X102887142Y-93056190D01*
X103115714Y-93056190D01*
X103172857Y-93080000D01*
X103201428Y-93103809D01*
X103230000Y-93151428D01*
X103230000Y-93222857D01*
X103201428Y-93270476D01*
X103172857Y-93294285D01*
X103115714Y-93318095D01*
X102887142Y-93318095D01*
X103430000Y-93056190D02*
X103801428Y-93056190D01*
X103601428Y-93246666D01*
X103687142Y-93246666D01*
X103744285Y-93270476D01*
X103772857Y-93294285D01*
X103801428Y-93341904D01*
X103801428Y-93460952D01*
X103772857Y-93508571D01*
X103744285Y-93532380D01*
X103687142Y-93556190D01*
X103515714Y-93556190D01*
X103458571Y-93532380D01*
X103430000Y-93508571D01*
G04 #@! TO.C,R4*
X105030000Y-93556190D02*
X104830000Y-93318095D01*
X104687142Y-93556190D02*
X104687142Y-93056190D01*
X104915714Y-93056190D01*
X104972857Y-93080000D01*
X105001428Y-93103809D01*
X105030000Y-93151428D01*
X105030000Y-93222857D01*
X105001428Y-93270476D01*
X104972857Y-93294285D01*
X104915714Y-93318095D01*
X104687142Y-93318095D01*
X105544285Y-93222857D02*
X105544285Y-93556190D01*
X105401428Y-93032380D02*
X105258571Y-93389523D01*
X105630000Y-93389523D01*
G04 #@! TO.C,R5*
X73256190Y-84580000D02*
X73018095Y-84780000D01*
X73256190Y-84922857D02*
X72756190Y-84922857D01*
X72756190Y-84694285D01*
X72780000Y-84637142D01*
X72803809Y-84608571D01*
X72851428Y-84580000D01*
X72922857Y-84580000D01*
X72970476Y-84608571D01*
X72994285Y-84637142D01*
X73018095Y-84694285D01*
X73018095Y-84922857D01*
X72756190Y-84037142D02*
X72756190Y-84322857D01*
X72994285Y-84351428D01*
X72970476Y-84322857D01*
X72946666Y-84265714D01*
X72946666Y-84122857D01*
X72970476Y-84065714D01*
X72994285Y-84037142D01*
X73041904Y-84008571D01*
X73160952Y-84008571D01*
X73208571Y-84037142D01*
X73232380Y-84065714D01*
X73256190Y-84122857D01*
X73256190Y-84265714D01*
X73232380Y-84322857D01*
X73208571Y-84351428D01*
G04 #@! TO.C,R8*
X82840000Y-91596190D02*
X82640000Y-91358095D01*
X82497142Y-91596190D02*
X82497142Y-91096190D01*
X82725714Y-91096190D01*
X82782857Y-91120000D01*
X82811428Y-91143809D01*
X82840000Y-91191428D01*
X82840000Y-91262857D01*
X82811428Y-91310476D01*
X82782857Y-91334285D01*
X82725714Y-91358095D01*
X82497142Y-91358095D01*
X83182857Y-91310476D02*
X83125714Y-91286666D01*
X83097142Y-91262857D01*
X83068571Y-91215238D01*
X83068571Y-91191428D01*
X83097142Y-91143809D01*
X83125714Y-91120000D01*
X83182857Y-91096190D01*
X83297142Y-91096190D01*
X83354285Y-91120000D01*
X83382857Y-91143809D01*
X83411428Y-91191428D01*
X83411428Y-91215238D01*
X83382857Y-91262857D01*
X83354285Y-91286666D01*
X83297142Y-91310476D01*
X83182857Y-91310476D01*
X83125714Y-91334285D01*
X83097142Y-91358095D01*
X83068571Y-91405714D01*
X83068571Y-91500952D01*
X83097142Y-91548571D01*
X83125714Y-91572380D01*
X83182857Y-91596190D01*
X83297142Y-91596190D01*
X83354285Y-91572380D01*
X83382857Y-91548571D01*
X83411428Y-91500952D01*
X83411428Y-91405714D01*
X83382857Y-91358095D01*
X83354285Y-91334285D01*
X83297142Y-91310476D01*
G04 #@! TO.C,R15*
X89256190Y-88565714D02*
X89018095Y-88765714D01*
X89256190Y-88908571D02*
X88756190Y-88908571D01*
X88756190Y-88680000D01*
X88780000Y-88622857D01*
X88803809Y-88594285D01*
X88851428Y-88565714D01*
X88922857Y-88565714D01*
X88970476Y-88594285D01*
X88994285Y-88622857D01*
X89018095Y-88680000D01*
X89018095Y-88908571D01*
X89256190Y-87994285D02*
X89256190Y-88337142D01*
X89256190Y-88165714D02*
X88756190Y-88165714D01*
X88827619Y-88222857D01*
X88875238Y-88280000D01*
X88899047Y-88337142D01*
X88756190Y-87451428D02*
X88756190Y-87737142D01*
X88994285Y-87765714D01*
X88970476Y-87737142D01*
X88946666Y-87680000D01*
X88946666Y-87537142D01*
X88970476Y-87480000D01*
X88994285Y-87451428D01*
X89041904Y-87422857D01*
X89160952Y-87422857D01*
X89208571Y-87451428D01*
X89232380Y-87480000D01*
X89256190Y-87537142D01*
X89256190Y-87680000D01*
X89232380Y-87737142D01*
X89208571Y-87765714D01*
G04 #@! TO.C,R6*
X76830000Y-81856190D02*
X76630000Y-81618095D01*
X76487142Y-81856190D02*
X76487142Y-81356190D01*
X76715714Y-81356190D01*
X76772857Y-81380000D01*
X76801428Y-81403809D01*
X76830000Y-81451428D01*
X76830000Y-81522857D01*
X76801428Y-81570476D01*
X76772857Y-81594285D01*
X76715714Y-81618095D01*
X76487142Y-81618095D01*
X77344285Y-81356190D02*
X77230000Y-81356190D01*
X77172857Y-81380000D01*
X77144285Y-81403809D01*
X77087142Y-81475238D01*
X77058571Y-81570476D01*
X77058571Y-81760952D01*
X77087142Y-81808571D01*
X77115714Y-81832380D01*
X77172857Y-81856190D01*
X77287142Y-81856190D01*
X77344285Y-81832380D01*
X77372857Y-81808571D01*
X77401428Y-81760952D01*
X77401428Y-81641904D01*
X77372857Y-81594285D01*
X77344285Y-81570476D01*
X77287142Y-81546666D01*
X77172857Y-81546666D01*
X77115714Y-81570476D01*
X77087142Y-81594285D01*
X77058571Y-81641904D01*
G04 #@! TD*
M02*
