M48
;DRILL file {KiCad (5.0.0-rc2-178-g3c7b91b96)} date 10/30/18 10:49:52
;FORMAT={-:-/ absolute / inch / decimal}
FMAT,2
INCH,TZ
T1C0.0157
T2C0.0354
T3C0.0394
%
G90
G05
M72
T1
X2.5563Y-3.9756
X2.6272Y-3.8339
X2.639Y-3.9874
X2.6626Y-3.5504
X2.6862Y-3.4205
X2.7098Y-3.7866
X2.7217Y-3.8457
X2.7217Y-3.9874
X2.8043Y-3.6685
X2.85Y-3.3324
X2.9815Y-3.515
X3.0102Y-3.5933
X3.1587Y-3.4441
X3.1835Y-3.5618
X3.2768Y-3.2315
X3.3476Y-3.2315
X3.4539Y-3.4618
X3.4776Y-3.2197
X3.4776Y-3.3969
X3.4858Y-3.9437
X3.5431Y-3.6843
X3.5484Y-3.2197
X3.572Y-4.0346
X3.6193Y-3.2197
X3.7374Y-4.0346
X3.7413Y-3.6606
X3.8008Y-3.9398
X3.8087Y-3.7311
X3.8087Y-3.7744
X3.8795Y-3.8846
X3.8909Y-3.4913
X3.8988Y-3.6055
X3.9028Y-3.9283
X3.9264Y-3.8613
X3.9618Y-3.763
X3.9677Y-3.9402
X3.9854Y-3.2197
X3.9933Y-3.5425
X3.9972Y-3.7276
X4.0031Y-3.7866
X4.0563Y-3.2197
X4.0563Y-3.4323
X4.0858Y-4.0228
X4.139Y-3.7157
X4.1508Y-3.2197
X4.198Y-4.0228
X4.2217Y-3.2197
X4.2689Y-3.6685
X4.2807Y-4.0228
X4.3398Y-3.9402
X4.3398Y-3.9933
X4.3634Y-3.8102
T2
X2.9106Y-3.4441
X2.9106Y-3.5441
T3
X2.525Y-3.5724
X2.525Y-3.6724
X3.3Y-3.9555
X3.4Y-3.9555
X2.9Y-3.9555
X3.Y-3.9555
X3.1Y-3.9555
X3.2Y-3.9555
X3.075Y-3.6843
X3.175Y-3.6843
X3.275Y-3.6843
X3.375Y-3.6843
X2.8988Y-3.8457
X2.9988Y-3.8457
X3.0988Y-3.8457
X3.1988Y-3.8457
X3.2988Y-3.8457
X3.3988Y-3.8457
X3.4988Y-3.8457
X3.5988Y-3.8457
X2.525Y-3.3724
X2.525Y-3.4724
X4.3398Y-3.3094
X4.3398Y-3.4094
X4.3398Y-3.5094
X4.3398Y-3.6094
T0
M30
