G04 #@! TF.GenerationSoftware,KiCad,Pcbnew,(5.0.0-rc2-178-g3c7b91b96)*
G04 #@! TF.CreationDate,2018-06-28T12:03:05+02:00*
G04 #@! TF.ProjectId,pcb2,706362322E6B696361645F7063620000,1*
G04 #@! TF.SameCoordinates,Original*
G04 #@! TF.FileFunction,Paste,Bot*
G04 #@! TF.FilePolarity,Positive*
%FSLAX46Y46*%
G04 Gerber Fmt 4.6, Leading zero omitted, Abs format (unit mm)*
G04 Created by KiCad (PCBNEW (5.0.0-rc2-178-g3c7b91b96)) date 06/28/18 12:03:05*
%MOMM*%
%LPD*%
G01*
G04 APERTURE LIST*
%ADD10R,1.200000X0.600000*%
%ADD11R,0.600000X1.200000*%
%ADD12R,2.600000X1.600000*%
%ADD13C,0.100000*%
%ADD14C,0.950000*%
%ADD15R,1.800000X1.750000*%
G04 APERTURE END LIST*
D10*
G04 #@! TO.C,U2*
X103380000Y-94580000D03*
X103380000Y-95380000D03*
X103380000Y-96180000D03*
X103380000Y-96980000D03*
X103380000Y-97780000D03*
X103380000Y-98580000D03*
X103380000Y-99380000D03*
X103380000Y-100180000D03*
D11*
X101930000Y-101630000D03*
X101130000Y-101630000D03*
X100330000Y-101630000D03*
X99530000Y-101630000D03*
X98730000Y-101630000D03*
X97930000Y-101630000D03*
X97130000Y-101630000D03*
X96330000Y-101630000D03*
D10*
X94880000Y-100180000D03*
X94880000Y-99380000D03*
X94880000Y-98580000D03*
X94880000Y-97780000D03*
X94880000Y-96980000D03*
X94880000Y-96180000D03*
X94880000Y-95380000D03*
X94880000Y-94580000D03*
D11*
X96330000Y-93130000D03*
X97130000Y-93130000D03*
X97930000Y-93130000D03*
X98730000Y-93130000D03*
X99530000Y-93130000D03*
X100330000Y-93130000D03*
X101130000Y-93130000D03*
X101930000Y-93130000D03*
G04 #@! TD*
D12*
G04 #@! TO.C,C2*
X64930000Y-99480000D03*
X68530000Y-99480000D03*
G04 #@! TD*
G04 #@! TO.C,C1*
X67930000Y-94680000D03*
X71530000Y-94680000D03*
G04 #@! TD*
D13*
G04 #@! TO.C,C8*
G36*
X111415779Y-97806144D02*
X111438834Y-97809563D01*
X111461443Y-97815227D01*
X111483387Y-97823079D01*
X111504457Y-97833044D01*
X111524448Y-97845026D01*
X111543168Y-97858910D01*
X111560438Y-97874562D01*
X111576090Y-97891832D01*
X111589974Y-97910552D01*
X111601956Y-97930543D01*
X111611921Y-97951613D01*
X111619773Y-97973557D01*
X111625437Y-97996166D01*
X111628856Y-98019221D01*
X111630000Y-98042500D01*
X111630000Y-98517500D01*
X111628856Y-98540779D01*
X111625437Y-98563834D01*
X111619773Y-98586443D01*
X111611921Y-98608387D01*
X111601956Y-98629457D01*
X111589974Y-98649448D01*
X111576090Y-98668168D01*
X111560438Y-98685438D01*
X111543168Y-98701090D01*
X111524448Y-98714974D01*
X111504457Y-98726956D01*
X111483387Y-98736921D01*
X111461443Y-98744773D01*
X111438834Y-98750437D01*
X111415779Y-98753856D01*
X111392500Y-98755000D01*
X110817500Y-98755000D01*
X110794221Y-98753856D01*
X110771166Y-98750437D01*
X110748557Y-98744773D01*
X110726613Y-98736921D01*
X110705543Y-98726956D01*
X110685552Y-98714974D01*
X110666832Y-98701090D01*
X110649562Y-98685438D01*
X110633910Y-98668168D01*
X110620026Y-98649448D01*
X110608044Y-98629457D01*
X110598079Y-98608387D01*
X110590227Y-98586443D01*
X110584563Y-98563834D01*
X110581144Y-98540779D01*
X110580000Y-98517500D01*
X110580000Y-98042500D01*
X110581144Y-98019221D01*
X110584563Y-97996166D01*
X110590227Y-97973557D01*
X110598079Y-97951613D01*
X110608044Y-97930543D01*
X110620026Y-97910552D01*
X110633910Y-97891832D01*
X110649562Y-97874562D01*
X110666832Y-97858910D01*
X110685552Y-97845026D01*
X110705543Y-97833044D01*
X110726613Y-97823079D01*
X110748557Y-97815227D01*
X110771166Y-97809563D01*
X110794221Y-97806144D01*
X110817500Y-97805000D01*
X111392500Y-97805000D01*
X111415779Y-97806144D01*
X111415779Y-97806144D01*
G37*
D14*
X111105000Y-98280000D03*
D13*
G36*
X109665779Y-97806144D02*
X109688834Y-97809563D01*
X109711443Y-97815227D01*
X109733387Y-97823079D01*
X109754457Y-97833044D01*
X109774448Y-97845026D01*
X109793168Y-97858910D01*
X109810438Y-97874562D01*
X109826090Y-97891832D01*
X109839974Y-97910552D01*
X109851956Y-97930543D01*
X109861921Y-97951613D01*
X109869773Y-97973557D01*
X109875437Y-97996166D01*
X109878856Y-98019221D01*
X109880000Y-98042500D01*
X109880000Y-98517500D01*
X109878856Y-98540779D01*
X109875437Y-98563834D01*
X109869773Y-98586443D01*
X109861921Y-98608387D01*
X109851956Y-98629457D01*
X109839974Y-98649448D01*
X109826090Y-98668168D01*
X109810438Y-98685438D01*
X109793168Y-98701090D01*
X109774448Y-98714974D01*
X109754457Y-98726956D01*
X109733387Y-98736921D01*
X109711443Y-98744773D01*
X109688834Y-98750437D01*
X109665779Y-98753856D01*
X109642500Y-98755000D01*
X109067500Y-98755000D01*
X109044221Y-98753856D01*
X109021166Y-98750437D01*
X108998557Y-98744773D01*
X108976613Y-98736921D01*
X108955543Y-98726956D01*
X108935552Y-98714974D01*
X108916832Y-98701090D01*
X108899562Y-98685438D01*
X108883910Y-98668168D01*
X108870026Y-98649448D01*
X108858044Y-98629457D01*
X108848079Y-98608387D01*
X108840227Y-98586443D01*
X108834563Y-98563834D01*
X108831144Y-98540779D01*
X108830000Y-98517500D01*
X108830000Y-98042500D01*
X108831144Y-98019221D01*
X108834563Y-97996166D01*
X108840227Y-97973557D01*
X108848079Y-97951613D01*
X108858044Y-97930543D01*
X108870026Y-97910552D01*
X108883910Y-97891832D01*
X108899562Y-97874562D01*
X108916832Y-97858910D01*
X108935552Y-97845026D01*
X108955543Y-97833044D01*
X108976613Y-97823079D01*
X108998557Y-97815227D01*
X109021166Y-97809563D01*
X109044221Y-97806144D01*
X109067500Y-97805000D01*
X109642500Y-97805000D01*
X109665779Y-97806144D01*
X109665779Y-97806144D01*
G37*
D14*
X109355000Y-98280000D03*
G04 #@! TD*
D13*
G04 #@! TO.C,C7*
G36*
X109665779Y-94806144D02*
X109688834Y-94809563D01*
X109711443Y-94815227D01*
X109733387Y-94823079D01*
X109754457Y-94833044D01*
X109774448Y-94845026D01*
X109793168Y-94858910D01*
X109810438Y-94874562D01*
X109826090Y-94891832D01*
X109839974Y-94910552D01*
X109851956Y-94930543D01*
X109861921Y-94951613D01*
X109869773Y-94973557D01*
X109875437Y-94996166D01*
X109878856Y-95019221D01*
X109880000Y-95042500D01*
X109880000Y-95517500D01*
X109878856Y-95540779D01*
X109875437Y-95563834D01*
X109869773Y-95586443D01*
X109861921Y-95608387D01*
X109851956Y-95629457D01*
X109839974Y-95649448D01*
X109826090Y-95668168D01*
X109810438Y-95685438D01*
X109793168Y-95701090D01*
X109774448Y-95714974D01*
X109754457Y-95726956D01*
X109733387Y-95736921D01*
X109711443Y-95744773D01*
X109688834Y-95750437D01*
X109665779Y-95753856D01*
X109642500Y-95755000D01*
X109067500Y-95755000D01*
X109044221Y-95753856D01*
X109021166Y-95750437D01*
X108998557Y-95744773D01*
X108976613Y-95736921D01*
X108955543Y-95726956D01*
X108935552Y-95714974D01*
X108916832Y-95701090D01*
X108899562Y-95685438D01*
X108883910Y-95668168D01*
X108870026Y-95649448D01*
X108858044Y-95629457D01*
X108848079Y-95608387D01*
X108840227Y-95586443D01*
X108834563Y-95563834D01*
X108831144Y-95540779D01*
X108830000Y-95517500D01*
X108830000Y-95042500D01*
X108831144Y-95019221D01*
X108834563Y-94996166D01*
X108840227Y-94973557D01*
X108848079Y-94951613D01*
X108858044Y-94930543D01*
X108870026Y-94910552D01*
X108883910Y-94891832D01*
X108899562Y-94874562D01*
X108916832Y-94858910D01*
X108935552Y-94845026D01*
X108955543Y-94833044D01*
X108976613Y-94823079D01*
X108998557Y-94815227D01*
X109021166Y-94809563D01*
X109044221Y-94806144D01*
X109067500Y-94805000D01*
X109642500Y-94805000D01*
X109665779Y-94806144D01*
X109665779Y-94806144D01*
G37*
D14*
X109355000Y-95280000D03*
D13*
G36*
X111415779Y-94806144D02*
X111438834Y-94809563D01*
X111461443Y-94815227D01*
X111483387Y-94823079D01*
X111504457Y-94833044D01*
X111524448Y-94845026D01*
X111543168Y-94858910D01*
X111560438Y-94874562D01*
X111576090Y-94891832D01*
X111589974Y-94910552D01*
X111601956Y-94930543D01*
X111611921Y-94951613D01*
X111619773Y-94973557D01*
X111625437Y-94996166D01*
X111628856Y-95019221D01*
X111630000Y-95042500D01*
X111630000Y-95517500D01*
X111628856Y-95540779D01*
X111625437Y-95563834D01*
X111619773Y-95586443D01*
X111611921Y-95608387D01*
X111601956Y-95629457D01*
X111589974Y-95649448D01*
X111576090Y-95668168D01*
X111560438Y-95685438D01*
X111543168Y-95701090D01*
X111524448Y-95714974D01*
X111504457Y-95726956D01*
X111483387Y-95736921D01*
X111461443Y-95744773D01*
X111438834Y-95750437D01*
X111415779Y-95753856D01*
X111392500Y-95755000D01*
X110817500Y-95755000D01*
X110794221Y-95753856D01*
X110771166Y-95750437D01*
X110748557Y-95744773D01*
X110726613Y-95736921D01*
X110705543Y-95726956D01*
X110685552Y-95714974D01*
X110666832Y-95701090D01*
X110649562Y-95685438D01*
X110633910Y-95668168D01*
X110620026Y-95649448D01*
X110608044Y-95629457D01*
X110598079Y-95608387D01*
X110590227Y-95586443D01*
X110584563Y-95563834D01*
X110581144Y-95540779D01*
X110580000Y-95517500D01*
X110580000Y-95042500D01*
X110581144Y-95019221D01*
X110584563Y-94996166D01*
X110590227Y-94973557D01*
X110598079Y-94951613D01*
X110608044Y-94930543D01*
X110620026Y-94910552D01*
X110633910Y-94891832D01*
X110649562Y-94874562D01*
X110666832Y-94858910D01*
X110685552Y-94845026D01*
X110705543Y-94833044D01*
X110726613Y-94823079D01*
X110748557Y-94815227D01*
X110771166Y-94809563D01*
X110794221Y-94806144D01*
X110817500Y-94805000D01*
X111392500Y-94805000D01*
X111415779Y-94806144D01*
X111415779Y-94806144D01*
G37*
D14*
X111105000Y-95280000D03*
G04 #@! TD*
D13*
G04 #@! TO.C,C5*
G36*
X105390779Y-101031144D02*
X105413834Y-101034563D01*
X105436443Y-101040227D01*
X105458387Y-101048079D01*
X105479457Y-101058044D01*
X105499448Y-101070026D01*
X105518168Y-101083910D01*
X105535438Y-101099562D01*
X105551090Y-101116832D01*
X105564974Y-101135552D01*
X105576956Y-101155543D01*
X105586921Y-101176613D01*
X105594773Y-101198557D01*
X105600437Y-101221166D01*
X105603856Y-101244221D01*
X105605000Y-101267500D01*
X105605000Y-101842500D01*
X105603856Y-101865779D01*
X105600437Y-101888834D01*
X105594773Y-101911443D01*
X105586921Y-101933387D01*
X105576956Y-101954457D01*
X105564974Y-101974448D01*
X105551090Y-101993168D01*
X105535438Y-102010438D01*
X105518168Y-102026090D01*
X105499448Y-102039974D01*
X105479457Y-102051956D01*
X105458387Y-102061921D01*
X105436443Y-102069773D01*
X105413834Y-102075437D01*
X105390779Y-102078856D01*
X105367500Y-102080000D01*
X104892500Y-102080000D01*
X104869221Y-102078856D01*
X104846166Y-102075437D01*
X104823557Y-102069773D01*
X104801613Y-102061921D01*
X104780543Y-102051956D01*
X104760552Y-102039974D01*
X104741832Y-102026090D01*
X104724562Y-102010438D01*
X104708910Y-101993168D01*
X104695026Y-101974448D01*
X104683044Y-101954457D01*
X104673079Y-101933387D01*
X104665227Y-101911443D01*
X104659563Y-101888834D01*
X104656144Y-101865779D01*
X104655000Y-101842500D01*
X104655000Y-101267500D01*
X104656144Y-101244221D01*
X104659563Y-101221166D01*
X104665227Y-101198557D01*
X104673079Y-101176613D01*
X104683044Y-101155543D01*
X104695026Y-101135552D01*
X104708910Y-101116832D01*
X104724562Y-101099562D01*
X104741832Y-101083910D01*
X104760552Y-101070026D01*
X104780543Y-101058044D01*
X104801613Y-101048079D01*
X104823557Y-101040227D01*
X104846166Y-101034563D01*
X104869221Y-101031144D01*
X104892500Y-101030000D01*
X105367500Y-101030000D01*
X105390779Y-101031144D01*
X105390779Y-101031144D01*
G37*
D14*
X105130000Y-101555000D03*
D13*
G36*
X105390779Y-99281144D02*
X105413834Y-99284563D01*
X105436443Y-99290227D01*
X105458387Y-99298079D01*
X105479457Y-99308044D01*
X105499448Y-99320026D01*
X105518168Y-99333910D01*
X105535438Y-99349562D01*
X105551090Y-99366832D01*
X105564974Y-99385552D01*
X105576956Y-99405543D01*
X105586921Y-99426613D01*
X105594773Y-99448557D01*
X105600437Y-99471166D01*
X105603856Y-99494221D01*
X105605000Y-99517500D01*
X105605000Y-100092500D01*
X105603856Y-100115779D01*
X105600437Y-100138834D01*
X105594773Y-100161443D01*
X105586921Y-100183387D01*
X105576956Y-100204457D01*
X105564974Y-100224448D01*
X105551090Y-100243168D01*
X105535438Y-100260438D01*
X105518168Y-100276090D01*
X105499448Y-100289974D01*
X105479457Y-100301956D01*
X105458387Y-100311921D01*
X105436443Y-100319773D01*
X105413834Y-100325437D01*
X105390779Y-100328856D01*
X105367500Y-100330000D01*
X104892500Y-100330000D01*
X104869221Y-100328856D01*
X104846166Y-100325437D01*
X104823557Y-100319773D01*
X104801613Y-100311921D01*
X104780543Y-100301956D01*
X104760552Y-100289974D01*
X104741832Y-100276090D01*
X104724562Y-100260438D01*
X104708910Y-100243168D01*
X104695026Y-100224448D01*
X104683044Y-100204457D01*
X104673079Y-100183387D01*
X104665227Y-100161443D01*
X104659563Y-100138834D01*
X104656144Y-100115779D01*
X104655000Y-100092500D01*
X104655000Y-99517500D01*
X104656144Y-99494221D01*
X104659563Y-99471166D01*
X104665227Y-99448557D01*
X104673079Y-99426613D01*
X104683044Y-99405543D01*
X104695026Y-99385552D01*
X104708910Y-99366832D01*
X104724562Y-99349562D01*
X104741832Y-99333910D01*
X104760552Y-99320026D01*
X104780543Y-99308044D01*
X104801613Y-99298079D01*
X104823557Y-99290227D01*
X104846166Y-99284563D01*
X104869221Y-99281144D01*
X104892500Y-99280000D01*
X105367500Y-99280000D01*
X105390779Y-99281144D01*
X105390779Y-99281144D01*
G37*
D14*
X105130000Y-99805000D03*
G04 #@! TD*
D13*
G04 #@! TO.C,C4*
G36*
X92565779Y-101106144D02*
X92588834Y-101109563D01*
X92611443Y-101115227D01*
X92633387Y-101123079D01*
X92654457Y-101133044D01*
X92674448Y-101145026D01*
X92693168Y-101158910D01*
X92710438Y-101174562D01*
X92726090Y-101191832D01*
X92739974Y-101210552D01*
X92751956Y-101230543D01*
X92761921Y-101251613D01*
X92769773Y-101273557D01*
X92775437Y-101296166D01*
X92778856Y-101319221D01*
X92780000Y-101342500D01*
X92780000Y-101817500D01*
X92778856Y-101840779D01*
X92775437Y-101863834D01*
X92769773Y-101886443D01*
X92761921Y-101908387D01*
X92751956Y-101929457D01*
X92739974Y-101949448D01*
X92726090Y-101968168D01*
X92710438Y-101985438D01*
X92693168Y-102001090D01*
X92674448Y-102014974D01*
X92654457Y-102026956D01*
X92633387Y-102036921D01*
X92611443Y-102044773D01*
X92588834Y-102050437D01*
X92565779Y-102053856D01*
X92542500Y-102055000D01*
X91967500Y-102055000D01*
X91944221Y-102053856D01*
X91921166Y-102050437D01*
X91898557Y-102044773D01*
X91876613Y-102036921D01*
X91855543Y-102026956D01*
X91835552Y-102014974D01*
X91816832Y-102001090D01*
X91799562Y-101985438D01*
X91783910Y-101968168D01*
X91770026Y-101949448D01*
X91758044Y-101929457D01*
X91748079Y-101908387D01*
X91740227Y-101886443D01*
X91734563Y-101863834D01*
X91731144Y-101840779D01*
X91730000Y-101817500D01*
X91730000Y-101342500D01*
X91731144Y-101319221D01*
X91734563Y-101296166D01*
X91740227Y-101273557D01*
X91748079Y-101251613D01*
X91758044Y-101230543D01*
X91770026Y-101210552D01*
X91783910Y-101191832D01*
X91799562Y-101174562D01*
X91816832Y-101158910D01*
X91835552Y-101145026D01*
X91855543Y-101133044D01*
X91876613Y-101123079D01*
X91898557Y-101115227D01*
X91921166Y-101109563D01*
X91944221Y-101106144D01*
X91967500Y-101105000D01*
X92542500Y-101105000D01*
X92565779Y-101106144D01*
X92565779Y-101106144D01*
G37*
D14*
X92255000Y-101580000D03*
D13*
G36*
X94315779Y-101106144D02*
X94338834Y-101109563D01*
X94361443Y-101115227D01*
X94383387Y-101123079D01*
X94404457Y-101133044D01*
X94424448Y-101145026D01*
X94443168Y-101158910D01*
X94460438Y-101174562D01*
X94476090Y-101191832D01*
X94489974Y-101210552D01*
X94501956Y-101230543D01*
X94511921Y-101251613D01*
X94519773Y-101273557D01*
X94525437Y-101296166D01*
X94528856Y-101319221D01*
X94530000Y-101342500D01*
X94530000Y-101817500D01*
X94528856Y-101840779D01*
X94525437Y-101863834D01*
X94519773Y-101886443D01*
X94511921Y-101908387D01*
X94501956Y-101929457D01*
X94489974Y-101949448D01*
X94476090Y-101968168D01*
X94460438Y-101985438D01*
X94443168Y-102001090D01*
X94424448Y-102014974D01*
X94404457Y-102026956D01*
X94383387Y-102036921D01*
X94361443Y-102044773D01*
X94338834Y-102050437D01*
X94315779Y-102053856D01*
X94292500Y-102055000D01*
X93717500Y-102055000D01*
X93694221Y-102053856D01*
X93671166Y-102050437D01*
X93648557Y-102044773D01*
X93626613Y-102036921D01*
X93605543Y-102026956D01*
X93585552Y-102014974D01*
X93566832Y-102001090D01*
X93549562Y-101985438D01*
X93533910Y-101968168D01*
X93520026Y-101949448D01*
X93508044Y-101929457D01*
X93498079Y-101908387D01*
X93490227Y-101886443D01*
X93484563Y-101863834D01*
X93481144Y-101840779D01*
X93480000Y-101817500D01*
X93480000Y-101342500D01*
X93481144Y-101319221D01*
X93484563Y-101296166D01*
X93490227Y-101273557D01*
X93498079Y-101251613D01*
X93508044Y-101230543D01*
X93520026Y-101210552D01*
X93533910Y-101191832D01*
X93549562Y-101174562D01*
X93566832Y-101158910D01*
X93585552Y-101145026D01*
X93605543Y-101133044D01*
X93626613Y-101123079D01*
X93648557Y-101115227D01*
X93671166Y-101109563D01*
X93694221Y-101106144D01*
X93717500Y-101105000D01*
X94292500Y-101105000D01*
X94315779Y-101106144D01*
X94315779Y-101106144D01*
G37*
D14*
X94005000Y-101580000D03*
G04 #@! TD*
D13*
G04 #@! TO.C,C3*
G36*
X106315779Y-92706144D02*
X106338834Y-92709563D01*
X106361443Y-92715227D01*
X106383387Y-92723079D01*
X106404457Y-92733044D01*
X106424448Y-92745026D01*
X106443168Y-92758910D01*
X106460438Y-92774562D01*
X106476090Y-92791832D01*
X106489974Y-92810552D01*
X106501956Y-92830543D01*
X106511921Y-92851613D01*
X106519773Y-92873557D01*
X106525437Y-92896166D01*
X106528856Y-92919221D01*
X106530000Y-92942500D01*
X106530000Y-93417500D01*
X106528856Y-93440779D01*
X106525437Y-93463834D01*
X106519773Y-93486443D01*
X106511921Y-93508387D01*
X106501956Y-93529457D01*
X106489974Y-93549448D01*
X106476090Y-93568168D01*
X106460438Y-93585438D01*
X106443168Y-93601090D01*
X106424448Y-93614974D01*
X106404457Y-93626956D01*
X106383387Y-93636921D01*
X106361443Y-93644773D01*
X106338834Y-93650437D01*
X106315779Y-93653856D01*
X106292500Y-93655000D01*
X105717500Y-93655000D01*
X105694221Y-93653856D01*
X105671166Y-93650437D01*
X105648557Y-93644773D01*
X105626613Y-93636921D01*
X105605543Y-93626956D01*
X105585552Y-93614974D01*
X105566832Y-93601090D01*
X105549562Y-93585438D01*
X105533910Y-93568168D01*
X105520026Y-93549448D01*
X105508044Y-93529457D01*
X105498079Y-93508387D01*
X105490227Y-93486443D01*
X105484563Y-93463834D01*
X105481144Y-93440779D01*
X105480000Y-93417500D01*
X105480000Y-92942500D01*
X105481144Y-92919221D01*
X105484563Y-92896166D01*
X105490227Y-92873557D01*
X105498079Y-92851613D01*
X105508044Y-92830543D01*
X105520026Y-92810552D01*
X105533910Y-92791832D01*
X105549562Y-92774562D01*
X105566832Y-92758910D01*
X105585552Y-92745026D01*
X105605543Y-92733044D01*
X105626613Y-92723079D01*
X105648557Y-92715227D01*
X105671166Y-92709563D01*
X105694221Y-92706144D01*
X105717500Y-92705000D01*
X106292500Y-92705000D01*
X106315779Y-92706144D01*
X106315779Y-92706144D01*
G37*
D14*
X106005000Y-93180000D03*
D13*
G36*
X104565779Y-92706144D02*
X104588834Y-92709563D01*
X104611443Y-92715227D01*
X104633387Y-92723079D01*
X104654457Y-92733044D01*
X104674448Y-92745026D01*
X104693168Y-92758910D01*
X104710438Y-92774562D01*
X104726090Y-92791832D01*
X104739974Y-92810552D01*
X104751956Y-92830543D01*
X104761921Y-92851613D01*
X104769773Y-92873557D01*
X104775437Y-92896166D01*
X104778856Y-92919221D01*
X104780000Y-92942500D01*
X104780000Y-93417500D01*
X104778856Y-93440779D01*
X104775437Y-93463834D01*
X104769773Y-93486443D01*
X104761921Y-93508387D01*
X104751956Y-93529457D01*
X104739974Y-93549448D01*
X104726090Y-93568168D01*
X104710438Y-93585438D01*
X104693168Y-93601090D01*
X104674448Y-93614974D01*
X104654457Y-93626956D01*
X104633387Y-93636921D01*
X104611443Y-93644773D01*
X104588834Y-93650437D01*
X104565779Y-93653856D01*
X104542500Y-93655000D01*
X103967500Y-93655000D01*
X103944221Y-93653856D01*
X103921166Y-93650437D01*
X103898557Y-93644773D01*
X103876613Y-93636921D01*
X103855543Y-93626956D01*
X103835552Y-93614974D01*
X103816832Y-93601090D01*
X103799562Y-93585438D01*
X103783910Y-93568168D01*
X103770026Y-93549448D01*
X103758044Y-93529457D01*
X103748079Y-93508387D01*
X103740227Y-93486443D01*
X103734563Y-93463834D01*
X103731144Y-93440779D01*
X103730000Y-93417500D01*
X103730000Y-92942500D01*
X103731144Y-92919221D01*
X103734563Y-92896166D01*
X103740227Y-92873557D01*
X103748079Y-92851613D01*
X103758044Y-92830543D01*
X103770026Y-92810552D01*
X103783910Y-92791832D01*
X103799562Y-92774562D01*
X103816832Y-92758910D01*
X103835552Y-92745026D01*
X103855543Y-92733044D01*
X103876613Y-92723079D01*
X103898557Y-92715227D01*
X103921166Y-92709563D01*
X103944221Y-92706144D01*
X103967500Y-92705000D01*
X104542500Y-92705000D01*
X104565779Y-92706144D01*
X104565779Y-92706144D01*
G37*
D14*
X104255000Y-93180000D03*
G04 #@! TD*
D15*
G04 #@! TO.C,Y1*
X107230000Y-95155000D03*
X107230000Y-98405000D03*
G04 #@! TD*
D13*
G04 #@! TO.C,L1*
G36*
X107265779Y-100206144D02*
X107288834Y-100209563D01*
X107311443Y-100215227D01*
X107333387Y-100223079D01*
X107354457Y-100233044D01*
X107374448Y-100245026D01*
X107393168Y-100258910D01*
X107410438Y-100274562D01*
X107426090Y-100291832D01*
X107439974Y-100310552D01*
X107451956Y-100330543D01*
X107461921Y-100351613D01*
X107469773Y-100373557D01*
X107475437Y-100396166D01*
X107478856Y-100419221D01*
X107480000Y-100442500D01*
X107480000Y-100917500D01*
X107478856Y-100940779D01*
X107475437Y-100963834D01*
X107469773Y-100986443D01*
X107461921Y-101008387D01*
X107451956Y-101029457D01*
X107439974Y-101049448D01*
X107426090Y-101068168D01*
X107410438Y-101085438D01*
X107393168Y-101101090D01*
X107374448Y-101114974D01*
X107354457Y-101126956D01*
X107333387Y-101136921D01*
X107311443Y-101144773D01*
X107288834Y-101150437D01*
X107265779Y-101153856D01*
X107242500Y-101155000D01*
X106667500Y-101155000D01*
X106644221Y-101153856D01*
X106621166Y-101150437D01*
X106598557Y-101144773D01*
X106576613Y-101136921D01*
X106555543Y-101126956D01*
X106535552Y-101114974D01*
X106516832Y-101101090D01*
X106499562Y-101085438D01*
X106483910Y-101068168D01*
X106470026Y-101049448D01*
X106458044Y-101029457D01*
X106448079Y-101008387D01*
X106440227Y-100986443D01*
X106434563Y-100963834D01*
X106431144Y-100940779D01*
X106430000Y-100917500D01*
X106430000Y-100442500D01*
X106431144Y-100419221D01*
X106434563Y-100396166D01*
X106440227Y-100373557D01*
X106448079Y-100351613D01*
X106458044Y-100330543D01*
X106470026Y-100310552D01*
X106483910Y-100291832D01*
X106499562Y-100274562D01*
X106516832Y-100258910D01*
X106535552Y-100245026D01*
X106555543Y-100233044D01*
X106576613Y-100223079D01*
X106598557Y-100215227D01*
X106621166Y-100209563D01*
X106644221Y-100206144D01*
X106667500Y-100205000D01*
X107242500Y-100205000D01*
X107265779Y-100206144D01*
X107265779Y-100206144D01*
G37*
D14*
X106955000Y-100680000D03*
D13*
G36*
X109015779Y-100206144D02*
X109038834Y-100209563D01*
X109061443Y-100215227D01*
X109083387Y-100223079D01*
X109104457Y-100233044D01*
X109124448Y-100245026D01*
X109143168Y-100258910D01*
X109160438Y-100274562D01*
X109176090Y-100291832D01*
X109189974Y-100310552D01*
X109201956Y-100330543D01*
X109211921Y-100351613D01*
X109219773Y-100373557D01*
X109225437Y-100396166D01*
X109228856Y-100419221D01*
X109230000Y-100442500D01*
X109230000Y-100917500D01*
X109228856Y-100940779D01*
X109225437Y-100963834D01*
X109219773Y-100986443D01*
X109211921Y-101008387D01*
X109201956Y-101029457D01*
X109189974Y-101049448D01*
X109176090Y-101068168D01*
X109160438Y-101085438D01*
X109143168Y-101101090D01*
X109124448Y-101114974D01*
X109104457Y-101126956D01*
X109083387Y-101136921D01*
X109061443Y-101144773D01*
X109038834Y-101150437D01*
X109015779Y-101153856D01*
X108992500Y-101155000D01*
X108417500Y-101155000D01*
X108394221Y-101153856D01*
X108371166Y-101150437D01*
X108348557Y-101144773D01*
X108326613Y-101136921D01*
X108305543Y-101126956D01*
X108285552Y-101114974D01*
X108266832Y-101101090D01*
X108249562Y-101085438D01*
X108233910Y-101068168D01*
X108220026Y-101049448D01*
X108208044Y-101029457D01*
X108198079Y-101008387D01*
X108190227Y-100986443D01*
X108184563Y-100963834D01*
X108181144Y-100940779D01*
X108180000Y-100917500D01*
X108180000Y-100442500D01*
X108181144Y-100419221D01*
X108184563Y-100396166D01*
X108190227Y-100373557D01*
X108198079Y-100351613D01*
X108208044Y-100330543D01*
X108220026Y-100310552D01*
X108233910Y-100291832D01*
X108249562Y-100274562D01*
X108266832Y-100258910D01*
X108285552Y-100245026D01*
X108305543Y-100233044D01*
X108326613Y-100223079D01*
X108348557Y-100215227D01*
X108371166Y-100209563D01*
X108394221Y-100206144D01*
X108417500Y-100205000D01*
X108992500Y-100205000D01*
X109015779Y-100206144D01*
X109015779Y-100206144D01*
G37*
D14*
X108705000Y-100680000D03*
G04 #@! TD*
M02*
