G04 #@! TF.GenerationSoftware,KiCad,Pcbnew,(5.0.0-rc2-178-g3c7b91b96)*
G04 #@! TF.CreationDate,2018-06-28T12:03:05+02:00*
G04 #@! TF.ProjectId,pcb2,706362322E6B696361645F7063620000,1*
G04 #@! TF.SameCoordinates,Original*
G04 #@! TF.FileFunction,Copper,L3,Inr,Plane*
G04 #@! TF.FilePolarity,Positive*
%FSLAX46Y46*%
G04 Gerber Fmt 4.6, Leading zero omitted, Abs format (unit mm)*
G04 Created by KiCad (PCBNEW (5.0.0-rc2-178-g3c7b91b96)) date 06/28/18 12:03:05*
%MOMM*%
%LPD*%
G01*
G04 APERTURE LIST*
G04 #@! TA.AperFunction,ViaPad*
%ADD10R,1.700000X1.700000*%
G04 #@! TD*
G04 #@! TA.AperFunction,ViaPad*
%ADD11O,1.700000X1.700000*%
G04 #@! TD*
G04 #@! TA.AperFunction,ViaPad*
%ADD12R,1.800000X1.800000*%
G04 #@! TD*
G04 #@! TA.AperFunction,ViaPad*
%ADD13C,1.800000*%
G04 #@! TD*
G04 #@! TA.AperFunction,ViaPad*
%ADD14C,0.800000*%
G04 #@! TD*
G04 #@! TA.AperFunction,Conductor*
%ADD15C,0.250000*%
G04 #@! TD*
G04 #@! TA.AperFunction,Conductor*
%ADD16C,0.254000*%
G04 #@! TD*
G04 APERTURE END LIST*
D10*
G04 #@! TO.N,/EINK_BUSY*
G04 #@! TO.C,J3*
X73630000Y-97680000D03*
D11*
G04 #@! TO.N,/EINK_RST*
X76170000Y-97680000D03*
G04 #@! TO.N,/EINK_DC*
X78710000Y-97680000D03*
G04 #@! TO.N,/EINK_CS*
X81250000Y-97680000D03*
G04 #@! TO.N,/ADC_CLK*
X83790000Y-97680000D03*
G04 #@! TO.N,/EINK_DOUT*
X86330000Y-97680000D03*
G04 #@! TO.N,GNDD*
X88870000Y-97680000D03*
G04 #@! TO.N,+3V3*
X91410000Y-97680000D03*
G04 #@! TD*
D10*
G04 #@! TO.N,/VCPRX*
G04 #@! TO.C,J5*
X87130000Y-94680000D03*
D11*
G04 #@! TO.N,/VCPTX*
X84590000Y-94680000D03*
G04 #@! TD*
D10*
G04 #@! TO.N,+3V3*
G04 #@! TO.C,J4*
X73660000Y-100470000D03*
D11*
G04 #@! TO.N,/SWCLK*
X76200000Y-100470000D03*
G04 #@! TO.N,GNDD*
X78740000Y-100470000D03*
G04 #@! TO.N,/SWDIO*
X81280000Y-100470000D03*
G04 #@! TO.N,/NRST*
X83820000Y-100470000D03*
G04 #@! TO.N,GNDD*
X86360000Y-100470000D03*
G04 #@! TD*
D10*
G04 #@! TO.N,/PB7*
G04 #@! TO.C,J6*
X110230000Y-91680000D03*
D11*
G04 #@! TO.N,/PB6*
X110230000Y-89140000D03*
G04 #@! TO.N,/PB1*
X110230000Y-86600000D03*
G04 #@! TO.N,/PB0*
X110230000Y-84060000D03*
G04 #@! TD*
G04 #@! TO.N,+4V*
G04 #@! TO.C,J1*
X64135000Y-87020000D03*
D10*
G04 #@! TO.N,GNDA*
X64135000Y-84480000D03*
G04 #@! TD*
G04 #@! TO.N,GNDD*
G04 #@! TO.C,J2*
X64330000Y-92280000D03*
D11*
G04 #@! TO.N,+5V*
X64330000Y-94820000D03*
G04 #@! TD*
D12*
G04 #@! TO.N,Net-(Q1-Pad1)*
G04 #@! TO.C,Q1*
X73930000Y-87480000D03*
D13*
G04 #@! TO.N,GNDA*
X73930000Y-90020000D03*
G04 #@! TD*
D14*
G04 #@! TO.N,Net-(R1-Pad2)*
X101530000Y-94680000D03*
G04 #@! TO.N,GNDD*
X71230000Y-93180000D03*
X64930000Y-100980000D03*
X69130000Y-101280000D03*
X94930000Y-102480000D03*
X106630000Y-102180000D03*
X108430000Y-93180000D03*
X110830000Y-96780000D03*
X94630000Y-92730000D03*
X110230000Y-101430000D03*
G04 #@! TO.N,+2V5*
X88330000Y-86280000D03*
X80230000Y-87480000D03*
X75130000Y-91980000D03*
X68230000Y-86880000D03*
G04 #@! TO.N,+4V*
X79030000Y-89280000D03*
X83230000Y-82080000D03*
X91930000Y-81780000D03*
X107230000Y-81780000D03*
X101230000Y-81780000D03*
X88630000Y-88680000D03*
G04 #@! TO.N,GNDA*
X64630000Y-88680000D03*
X67630000Y-90180000D03*
X78130000Y-93480000D03*
X76930000Y-93480000D03*
X85030000Y-82080000D03*
X88330000Y-81780000D03*
X90130000Y-81780000D03*
X103030000Y-81780000D03*
X105430000Y-81780000D03*
X75730000Y-89280000D03*
X88630000Y-92580000D03*
X103030000Y-87180000D03*
X101530000Y-89730000D03*
X98830000Y-88680000D03*
X87730000Y-87930000D03*
G04 #@! TO.N,+3V3*
X69130000Y-97680000D03*
X67030000Y-101280000D03*
X66730000Y-97380000D03*
X90730000Y-102480000D03*
X105130000Y-94380000D03*
X108730000Y-102180000D03*
G04 #@! TO.N,+5V*
X68830000Y-96180000D03*
G04 #@! TO.N,/NRST*
X110230000Y-100080000D03*
G04 #@! TO.N,/PB0*
X103332786Y-101285571D03*
G04 #@! TO.N,/SWDIO*
X96580000Y-100080000D03*
G04 #@! TO.N,/EINK_CS*
X100630000Y-95430000D03*
G04 #@! TO.N,/ADC_DIN*
X99130000Y-99780000D03*
G04 #@! TO.N,/ADC_CLK*
X99730000Y-98077752D03*
X88480000Y-99330000D03*
G04 #@! TO.N,/ADC_CS*
X103780000Y-102180000D03*
G04 #@! TO.N,/U8U~D*
X96430000Y-96930000D03*
G04 #@! TO.N,/U7U~D*
X78130000Y-95880000D03*
G04 #@! TO.N,/U7~CS*
X93280000Y-96930000D03*
G04 #@! TO.N,/U8~CS*
X96430000Y-95880000D03*
G04 #@! TO.N,/EINK_DC*
X101680000Y-96180000D03*
X89980000Y-99180000D03*
G04 #@! TO.N,/EINK_RST*
X100780000Y-100080000D03*
G04 #@! TO.N,/EINK_DOUT*
X98680000Y-98580000D03*
G04 #@! TD*
D15*
G04 #@! TO.N,+3V3*
X91129999Y-102080001D02*
X91729999Y-102080001D01*
X90730000Y-102480000D02*
X91129999Y-102080001D01*
G04 #@! TD*
D16*
G04 #@! TO.N,+4V*
G36*
X84152569Y-81493720D02*
X83995000Y-81874126D01*
X83995000Y-82285874D01*
X84152569Y-82666280D01*
X84443720Y-82957431D01*
X84824126Y-83115000D01*
X85235874Y-83115000D01*
X85616280Y-82957431D01*
X85907431Y-82666280D01*
X86065000Y-82285874D01*
X86065000Y-81874126D01*
X85907431Y-81493720D01*
X85703711Y-81290000D01*
X87412689Y-81290000D01*
X87295000Y-81574126D01*
X87295000Y-81985874D01*
X87452569Y-82366280D01*
X87743720Y-82657431D01*
X88124126Y-82815000D01*
X88535874Y-82815000D01*
X88916280Y-82657431D01*
X89207431Y-82366280D01*
X89230000Y-82311794D01*
X89252569Y-82366280D01*
X89543720Y-82657431D01*
X89924126Y-82815000D01*
X90335874Y-82815000D01*
X90716280Y-82657431D01*
X91007431Y-82366280D01*
X91165000Y-81985874D01*
X91165000Y-81574126D01*
X91047311Y-81290000D01*
X102112689Y-81290000D01*
X101995000Y-81574126D01*
X101995000Y-81985874D01*
X102152569Y-82366280D01*
X102443720Y-82657431D01*
X102824126Y-82815000D01*
X103235874Y-82815000D01*
X103616280Y-82657431D01*
X103907431Y-82366280D01*
X104065000Y-81985874D01*
X104065000Y-81574126D01*
X103947311Y-81290000D01*
X104512689Y-81290000D01*
X104395000Y-81574126D01*
X104395000Y-81985874D01*
X104552569Y-82366280D01*
X104843720Y-82657431D01*
X105224126Y-82815000D01*
X105635874Y-82815000D01*
X106016280Y-82657431D01*
X106307431Y-82366280D01*
X106465000Y-81985874D01*
X106465000Y-81574126D01*
X106347311Y-81290000D01*
X108003000Y-81290000D01*
X108003000Y-90577394D01*
X107777394Y-90803000D01*
X100330000Y-90803000D01*
X100281399Y-90812667D01*
X100240197Y-90840197D01*
X99527394Y-91553000D01*
X93880000Y-91553000D01*
X93831399Y-91562667D01*
X93790197Y-91590197D01*
X93767759Y-91620578D01*
X92453536Y-94103000D01*
X89588413Y-94103000D01*
X89082548Y-93512824D01*
X89216280Y-93457431D01*
X89507431Y-93166280D01*
X89665000Y-92785874D01*
X89665000Y-92374126D01*
X89507431Y-91993720D01*
X89216280Y-91702569D01*
X88835874Y-91545000D01*
X88424126Y-91545000D01*
X88043720Y-91702569D01*
X87752569Y-91993720D01*
X87595000Y-92374126D01*
X87595000Y-92785874D01*
X87705647Y-93053000D01*
X83230000Y-93053000D01*
X83181399Y-93062667D01*
X83140197Y-93090197D01*
X82540197Y-93690197D01*
X82512667Y-93731399D01*
X82503000Y-93780000D01*
X82503000Y-94327394D01*
X82277394Y-94553000D01*
X76082606Y-94553000D01*
X74803732Y-93274126D01*
X75895000Y-93274126D01*
X75895000Y-93685874D01*
X76052569Y-94066280D01*
X76343720Y-94357431D01*
X76724126Y-94515000D01*
X77135874Y-94515000D01*
X77516280Y-94357431D01*
X77530000Y-94343711D01*
X77543720Y-94357431D01*
X77924126Y-94515000D01*
X78335874Y-94515000D01*
X78716280Y-94357431D01*
X79007431Y-94066280D01*
X79165000Y-93685874D01*
X79165000Y-93274126D01*
X79007431Y-92893720D01*
X78716280Y-92602569D01*
X78335874Y-92445000D01*
X77924126Y-92445000D01*
X77543720Y-92602569D01*
X77530000Y-92616289D01*
X77516280Y-92602569D01*
X77135874Y-92445000D01*
X76724126Y-92445000D01*
X76343720Y-92602569D01*
X76052569Y-92893720D01*
X75895000Y-93274126D01*
X74803732Y-93274126D01*
X74619803Y-93090197D01*
X74578601Y-93062667D01*
X74530000Y-93053000D01*
X73682606Y-93053000D01*
X72519803Y-91890197D01*
X72478601Y-91862667D01*
X72430000Y-91853000D01*
X68582606Y-91853000D01*
X67912759Y-91183153D01*
X68216280Y-91057431D01*
X68507431Y-90766280D01*
X68665000Y-90385874D01*
X68665000Y-89974126D01*
X68507431Y-89593720D01*
X68216280Y-89302569D01*
X67835874Y-89145000D01*
X67424126Y-89145000D01*
X67043720Y-89302569D01*
X66752569Y-89593720D01*
X66595000Y-89974126D01*
X66595000Y-90353000D01*
X62940000Y-90353000D01*
X62940000Y-87871026D01*
X63253642Y-88215183D01*
X63629202Y-88391556D01*
X63595000Y-88474126D01*
X63595000Y-88885874D01*
X63752569Y-89266280D01*
X64043720Y-89557431D01*
X64424126Y-89715000D01*
X64835874Y-89715000D01*
X65216280Y-89557431D01*
X65507431Y-89266280D01*
X65665000Y-88885874D01*
X65665000Y-88474126D01*
X65507431Y-88093720D01*
X65308418Y-87894707D01*
X65406645Y-87786924D01*
X65576476Y-87376890D01*
X65455155Y-87147000D01*
X64262000Y-87147000D01*
X64262000Y-87167000D01*
X64008000Y-87167000D01*
X64008000Y-87147000D01*
X63988000Y-87147000D01*
X63988000Y-86893000D01*
X64008000Y-86893000D01*
X64008000Y-86873000D01*
X64262000Y-86873000D01*
X64262000Y-86893000D01*
X65455155Y-86893000D01*
X65570662Y-86674126D01*
X67195000Y-86674126D01*
X67195000Y-87085874D01*
X67352569Y-87466280D01*
X67643720Y-87757431D01*
X68024126Y-87915000D01*
X68435874Y-87915000D01*
X68816280Y-87757431D01*
X69107431Y-87466280D01*
X69265000Y-87085874D01*
X69265000Y-86674126D01*
X69226012Y-86580000D01*
X72382560Y-86580000D01*
X72382560Y-88380000D01*
X72431843Y-88627765D01*
X72572191Y-88837809D01*
X72782235Y-88978157D01*
X72797908Y-88981275D01*
X72628690Y-89150493D01*
X72395000Y-89714670D01*
X72395000Y-90325330D01*
X72628690Y-90889507D01*
X73060493Y-91321310D01*
X73624670Y-91555000D01*
X74185765Y-91555000D01*
X74095000Y-91774126D01*
X74095000Y-92185874D01*
X74252569Y-92566280D01*
X74543720Y-92857431D01*
X74924126Y-93015000D01*
X75335874Y-93015000D01*
X75716280Y-92857431D01*
X76007431Y-92566280D01*
X76165000Y-92185874D01*
X76165000Y-91774126D01*
X76007431Y-91393720D01*
X75716280Y-91102569D01*
X75335874Y-90945000D01*
X75175817Y-90945000D01*
X75231310Y-90889507D01*
X75465000Y-90325330D01*
X75465000Y-90290509D01*
X75524126Y-90315000D01*
X75935874Y-90315000D01*
X76316280Y-90157431D01*
X76607431Y-89866280D01*
X76765000Y-89485874D01*
X76765000Y-89074126D01*
X76607431Y-88693720D01*
X76316280Y-88402569D01*
X75935874Y-88245000D01*
X75524126Y-88245000D01*
X75477440Y-88264338D01*
X75477440Y-87274126D01*
X79195000Y-87274126D01*
X79195000Y-87685874D01*
X79352569Y-88066280D01*
X79643720Y-88357431D01*
X80024126Y-88515000D01*
X80435874Y-88515000D01*
X80816280Y-88357431D01*
X81107431Y-88066280D01*
X81249155Y-87724126D01*
X86695000Y-87724126D01*
X86695000Y-88135874D01*
X86852569Y-88516280D01*
X87143720Y-88807431D01*
X87524126Y-88965000D01*
X87935874Y-88965000D01*
X88316280Y-88807431D01*
X88607431Y-88516280D01*
X88624891Y-88474126D01*
X97795000Y-88474126D01*
X97795000Y-88885874D01*
X97952569Y-89266280D01*
X98243720Y-89557431D01*
X98624126Y-89715000D01*
X99035874Y-89715000D01*
X99416280Y-89557431D01*
X99449585Y-89524126D01*
X100495000Y-89524126D01*
X100495000Y-89935874D01*
X100652569Y-90316280D01*
X100943720Y-90607431D01*
X101324126Y-90765000D01*
X101735874Y-90765000D01*
X102116280Y-90607431D01*
X102407431Y-90316280D01*
X102565000Y-89935874D01*
X102565000Y-89524126D01*
X102407431Y-89143720D01*
X102116280Y-88852569D01*
X101735874Y-88695000D01*
X101324126Y-88695000D01*
X100943720Y-88852569D01*
X100652569Y-89143720D01*
X100495000Y-89524126D01*
X99449585Y-89524126D01*
X99707431Y-89266280D01*
X99865000Y-88885874D01*
X99865000Y-88474126D01*
X99707431Y-88093720D01*
X99416280Y-87802569D01*
X99035874Y-87645000D01*
X98624126Y-87645000D01*
X98243720Y-87802569D01*
X97952569Y-88093720D01*
X97795000Y-88474126D01*
X88624891Y-88474126D01*
X88765000Y-88135874D01*
X88765000Y-87724126D01*
X88607431Y-87343720D01*
X88566164Y-87302453D01*
X88916280Y-87157431D01*
X89099585Y-86974126D01*
X101995000Y-86974126D01*
X101995000Y-87385874D01*
X102152569Y-87766280D01*
X102443720Y-88057431D01*
X102824126Y-88215000D01*
X103235874Y-88215000D01*
X103616280Y-88057431D01*
X103907431Y-87766280D01*
X104065000Y-87385874D01*
X104065000Y-86974126D01*
X103907431Y-86593720D01*
X103616280Y-86302569D01*
X103235874Y-86145000D01*
X102824126Y-86145000D01*
X102443720Y-86302569D01*
X102152569Y-86593720D01*
X101995000Y-86974126D01*
X89099585Y-86974126D01*
X89207431Y-86866280D01*
X89365000Y-86485874D01*
X89365000Y-86074126D01*
X89207431Y-85693720D01*
X88916280Y-85402569D01*
X88535874Y-85245000D01*
X88124126Y-85245000D01*
X87743720Y-85402569D01*
X87452569Y-85693720D01*
X87295000Y-86074126D01*
X87295000Y-86485874D01*
X87452569Y-86866280D01*
X87493836Y-86907547D01*
X87143720Y-87052569D01*
X86852569Y-87343720D01*
X86695000Y-87724126D01*
X81249155Y-87724126D01*
X81265000Y-87685874D01*
X81265000Y-87274126D01*
X81107431Y-86893720D01*
X80816280Y-86602569D01*
X80435874Y-86445000D01*
X80024126Y-86445000D01*
X79643720Y-86602569D01*
X79352569Y-86893720D01*
X79195000Y-87274126D01*
X75477440Y-87274126D01*
X75477440Y-86580000D01*
X75428157Y-86332235D01*
X75287809Y-86122191D01*
X75077765Y-85981843D01*
X74830000Y-85932560D01*
X73030000Y-85932560D01*
X72782235Y-85981843D01*
X72572191Y-86122191D01*
X72431843Y-86332235D01*
X72382560Y-86580000D01*
X69226012Y-86580000D01*
X69107431Y-86293720D01*
X68816280Y-86002569D01*
X68435874Y-85845000D01*
X68024126Y-85845000D01*
X67643720Y-86002569D01*
X67352569Y-86293720D01*
X67195000Y-86674126D01*
X65570662Y-86674126D01*
X65576476Y-86663110D01*
X65406645Y-86253076D01*
X65129292Y-85948739D01*
X65232765Y-85928157D01*
X65442809Y-85787809D01*
X65583157Y-85577765D01*
X65632440Y-85330000D01*
X65632440Y-83630000D01*
X65583157Y-83382235D01*
X65442809Y-83172191D01*
X65232765Y-83031843D01*
X64985000Y-82982560D01*
X63285000Y-82982560D01*
X63037235Y-83031843D01*
X62940000Y-83096814D01*
X62940000Y-81290000D01*
X84356289Y-81290000D01*
X84152569Y-81493720D01*
X84152569Y-81493720D01*
G37*
X84152569Y-81493720D02*
X83995000Y-81874126D01*
X83995000Y-82285874D01*
X84152569Y-82666280D01*
X84443720Y-82957431D01*
X84824126Y-83115000D01*
X85235874Y-83115000D01*
X85616280Y-82957431D01*
X85907431Y-82666280D01*
X86065000Y-82285874D01*
X86065000Y-81874126D01*
X85907431Y-81493720D01*
X85703711Y-81290000D01*
X87412689Y-81290000D01*
X87295000Y-81574126D01*
X87295000Y-81985874D01*
X87452569Y-82366280D01*
X87743720Y-82657431D01*
X88124126Y-82815000D01*
X88535874Y-82815000D01*
X88916280Y-82657431D01*
X89207431Y-82366280D01*
X89230000Y-82311794D01*
X89252569Y-82366280D01*
X89543720Y-82657431D01*
X89924126Y-82815000D01*
X90335874Y-82815000D01*
X90716280Y-82657431D01*
X91007431Y-82366280D01*
X91165000Y-81985874D01*
X91165000Y-81574126D01*
X91047311Y-81290000D01*
X102112689Y-81290000D01*
X101995000Y-81574126D01*
X101995000Y-81985874D01*
X102152569Y-82366280D01*
X102443720Y-82657431D01*
X102824126Y-82815000D01*
X103235874Y-82815000D01*
X103616280Y-82657431D01*
X103907431Y-82366280D01*
X104065000Y-81985874D01*
X104065000Y-81574126D01*
X103947311Y-81290000D01*
X104512689Y-81290000D01*
X104395000Y-81574126D01*
X104395000Y-81985874D01*
X104552569Y-82366280D01*
X104843720Y-82657431D01*
X105224126Y-82815000D01*
X105635874Y-82815000D01*
X106016280Y-82657431D01*
X106307431Y-82366280D01*
X106465000Y-81985874D01*
X106465000Y-81574126D01*
X106347311Y-81290000D01*
X108003000Y-81290000D01*
X108003000Y-90577394D01*
X107777394Y-90803000D01*
X100330000Y-90803000D01*
X100281399Y-90812667D01*
X100240197Y-90840197D01*
X99527394Y-91553000D01*
X93880000Y-91553000D01*
X93831399Y-91562667D01*
X93790197Y-91590197D01*
X93767759Y-91620578D01*
X92453536Y-94103000D01*
X89588413Y-94103000D01*
X89082548Y-93512824D01*
X89216280Y-93457431D01*
X89507431Y-93166280D01*
X89665000Y-92785874D01*
X89665000Y-92374126D01*
X89507431Y-91993720D01*
X89216280Y-91702569D01*
X88835874Y-91545000D01*
X88424126Y-91545000D01*
X88043720Y-91702569D01*
X87752569Y-91993720D01*
X87595000Y-92374126D01*
X87595000Y-92785874D01*
X87705647Y-93053000D01*
X83230000Y-93053000D01*
X83181399Y-93062667D01*
X83140197Y-93090197D01*
X82540197Y-93690197D01*
X82512667Y-93731399D01*
X82503000Y-93780000D01*
X82503000Y-94327394D01*
X82277394Y-94553000D01*
X76082606Y-94553000D01*
X74803732Y-93274126D01*
X75895000Y-93274126D01*
X75895000Y-93685874D01*
X76052569Y-94066280D01*
X76343720Y-94357431D01*
X76724126Y-94515000D01*
X77135874Y-94515000D01*
X77516280Y-94357431D01*
X77530000Y-94343711D01*
X77543720Y-94357431D01*
X77924126Y-94515000D01*
X78335874Y-94515000D01*
X78716280Y-94357431D01*
X79007431Y-94066280D01*
X79165000Y-93685874D01*
X79165000Y-93274126D01*
X79007431Y-92893720D01*
X78716280Y-92602569D01*
X78335874Y-92445000D01*
X77924126Y-92445000D01*
X77543720Y-92602569D01*
X77530000Y-92616289D01*
X77516280Y-92602569D01*
X77135874Y-92445000D01*
X76724126Y-92445000D01*
X76343720Y-92602569D01*
X76052569Y-92893720D01*
X75895000Y-93274126D01*
X74803732Y-93274126D01*
X74619803Y-93090197D01*
X74578601Y-93062667D01*
X74530000Y-93053000D01*
X73682606Y-93053000D01*
X72519803Y-91890197D01*
X72478601Y-91862667D01*
X72430000Y-91853000D01*
X68582606Y-91853000D01*
X67912759Y-91183153D01*
X68216280Y-91057431D01*
X68507431Y-90766280D01*
X68665000Y-90385874D01*
X68665000Y-89974126D01*
X68507431Y-89593720D01*
X68216280Y-89302569D01*
X67835874Y-89145000D01*
X67424126Y-89145000D01*
X67043720Y-89302569D01*
X66752569Y-89593720D01*
X66595000Y-89974126D01*
X66595000Y-90353000D01*
X62940000Y-90353000D01*
X62940000Y-87871026D01*
X63253642Y-88215183D01*
X63629202Y-88391556D01*
X63595000Y-88474126D01*
X63595000Y-88885874D01*
X63752569Y-89266280D01*
X64043720Y-89557431D01*
X64424126Y-89715000D01*
X64835874Y-89715000D01*
X65216280Y-89557431D01*
X65507431Y-89266280D01*
X65665000Y-88885874D01*
X65665000Y-88474126D01*
X65507431Y-88093720D01*
X65308418Y-87894707D01*
X65406645Y-87786924D01*
X65576476Y-87376890D01*
X65455155Y-87147000D01*
X64262000Y-87147000D01*
X64262000Y-87167000D01*
X64008000Y-87167000D01*
X64008000Y-87147000D01*
X63988000Y-87147000D01*
X63988000Y-86893000D01*
X64008000Y-86893000D01*
X64008000Y-86873000D01*
X64262000Y-86873000D01*
X64262000Y-86893000D01*
X65455155Y-86893000D01*
X65570662Y-86674126D01*
X67195000Y-86674126D01*
X67195000Y-87085874D01*
X67352569Y-87466280D01*
X67643720Y-87757431D01*
X68024126Y-87915000D01*
X68435874Y-87915000D01*
X68816280Y-87757431D01*
X69107431Y-87466280D01*
X69265000Y-87085874D01*
X69265000Y-86674126D01*
X69226012Y-86580000D01*
X72382560Y-86580000D01*
X72382560Y-88380000D01*
X72431843Y-88627765D01*
X72572191Y-88837809D01*
X72782235Y-88978157D01*
X72797908Y-88981275D01*
X72628690Y-89150493D01*
X72395000Y-89714670D01*
X72395000Y-90325330D01*
X72628690Y-90889507D01*
X73060493Y-91321310D01*
X73624670Y-91555000D01*
X74185765Y-91555000D01*
X74095000Y-91774126D01*
X74095000Y-92185874D01*
X74252569Y-92566280D01*
X74543720Y-92857431D01*
X74924126Y-93015000D01*
X75335874Y-93015000D01*
X75716280Y-92857431D01*
X76007431Y-92566280D01*
X76165000Y-92185874D01*
X76165000Y-91774126D01*
X76007431Y-91393720D01*
X75716280Y-91102569D01*
X75335874Y-90945000D01*
X75175817Y-90945000D01*
X75231310Y-90889507D01*
X75465000Y-90325330D01*
X75465000Y-90290509D01*
X75524126Y-90315000D01*
X75935874Y-90315000D01*
X76316280Y-90157431D01*
X76607431Y-89866280D01*
X76765000Y-89485874D01*
X76765000Y-89074126D01*
X76607431Y-88693720D01*
X76316280Y-88402569D01*
X75935874Y-88245000D01*
X75524126Y-88245000D01*
X75477440Y-88264338D01*
X75477440Y-87274126D01*
X79195000Y-87274126D01*
X79195000Y-87685874D01*
X79352569Y-88066280D01*
X79643720Y-88357431D01*
X80024126Y-88515000D01*
X80435874Y-88515000D01*
X80816280Y-88357431D01*
X81107431Y-88066280D01*
X81249155Y-87724126D01*
X86695000Y-87724126D01*
X86695000Y-88135874D01*
X86852569Y-88516280D01*
X87143720Y-88807431D01*
X87524126Y-88965000D01*
X87935874Y-88965000D01*
X88316280Y-88807431D01*
X88607431Y-88516280D01*
X88624891Y-88474126D01*
X97795000Y-88474126D01*
X97795000Y-88885874D01*
X97952569Y-89266280D01*
X98243720Y-89557431D01*
X98624126Y-89715000D01*
X99035874Y-89715000D01*
X99416280Y-89557431D01*
X99449585Y-89524126D01*
X100495000Y-89524126D01*
X100495000Y-89935874D01*
X100652569Y-90316280D01*
X100943720Y-90607431D01*
X101324126Y-90765000D01*
X101735874Y-90765000D01*
X102116280Y-90607431D01*
X102407431Y-90316280D01*
X102565000Y-89935874D01*
X102565000Y-89524126D01*
X102407431Y-89143720D01*
X102116280Y-88852569D01*
X101735874Y-88695000D01*
X101324126Y-88695000D01*
X100943720Y-88852569D01*
X100652569Y-89143720D01*
X100495000Y-89524126D01*
X99449585Y-89524126D01*
X99707431Y-89266280D01*
X99865000Y-88885874D01*
X99865000Y-88474126D01*
X99707431Y-88093720D01*
X99416280Y-87802569D01*
X99035874Y-87645000D01*
X98624126Y-87645000D01*
X98243720Y-87802569D01*
X97952569Y-88093720D01*
X97795000Y-88474126D01*
X88624891Y-88474126D01*
X88765000Y-88135874D01*
X88765000Y-87724126D01*
X88607431Y-87343720D01*
X88566164Y-87302453D01*
X88916280Y-87157431D01*
X89099585Y-86974126D01*
X101995000Y-86974126D01*
X101995000Y-87385874D01*
X102152569Y-87766280D01*
X102443720Y-88057431D01*
X102824126Y-88215000D01*
X103235874Y-88215000D01*
X103616280Y-88057431D01*
X103907431Y-87766280D01*
X104065000Y-87385874D01*
X104065000Y-86974126D01*
X103907431Y-86593720D01*
X103616280Y-86302569D01*
X103235874Y-86145000D01*
X102824126Y-86145000D01*
X102443720Y-86302569D01*
X102152569Y-86593720D01*
X101995000Y-86974126D01*
X89099585Y-86974126D01*
X89207431Y-86866280D01*
X89365000Y-86485874D01*
X89365000Y-86074126D01*
X89207431Y-85693720D01*
X88916280Y-85402569D01*
X88535874Y-85245000D01*
X88124126Y-85245000D01*
X87743720Y-85402569D01*
X87452569Y-85693720D01*
X87295000Y-86074126D01*
X87295000Y-86485874D01*
X87452569Y-86866280D01*
X87493836Y-86907547D01*
X87143720Y-87052569D01*
X86852569Y-87343720D01*
X86695000Y-87724126D01*
X81249155Y-87724126D01*
X81265000Y-87685874D01*
X81265000Y-87274126D01*
X81107431Y-86893720D01*
X80816280Y-86602569D01*
X80435874Y-86445000D01*
X80024126Y-86445000D01*
X79643720Y-86602569D01*
X79352569Y-86893720D01*
X79195000Y-87274126D01*
X75477440Y-87274126D01*
X75477440Y-86580000D01*
X75428157Y-86332235D01*
X75287809Y-86122191D01*
X75077765Y-85981843D01*
X74830000Y-85932560D01*
X73030000Y-85932560D01*
X72782235Y-85981843D01*
X72572191Y-86122191D01*
X72431843Y-86332235D01*
X72382560Y-86580000D01*
X69226012Y-86580000D01*
X69107431Y-86293720D01*
X68816280Y-86002569D01*
X68435874Y-85845000D01*
X68024126Y-85845000D01*
X67643720Y-86002569D01*
X67352569Y-86293720D01*
X67195000Y-86674126D01*
X65570662Y-86674126D01*
X65576476Y-86663110D01*
X65406645Y-86253076D01*
X65129292Y-85948739D01*
X65232765Y-85928157D01*
X65442809Y-85787809D01*
X65583157Y-85577765D01*
X65632440Y-85330000D01*
X65632440Y-83630000D01*
X65583157Y-83382235D01*
X65442809Y-83172191D01*
X65232765Y-83031843D01*
X64985000Y-82982560D01*
X63285000Y-82982560D01*
X63037235Y-83031843D01*
X62940000Y-83096814D01*
X62940000Y-81290000D01*
X84356289Y-81290000D01*
X84152569Y-81493720D01*
G04 #@! TO.N,+3V3*
G36*
X108732560Y-92185049D02*
X108635874Y-92145000D01*
X108224126Y-92145000D01*
X107843720Y-92302569D01*
X107552569Y-92593720D01*
X107395000Y-92974126D01*
X107395000Y-93385874D01*
X107552569Y-93766280D01*
X107843720Y-94057431D01*
X108224126Y-94215000D01*
X108635874Y-94215000D01*
X109016280Y-94057431D01*
X109307431Y-93766280D01*
X109465000Y-93385874D01*
X109465000Y-93177440D01*
X111080000Y-93177440D01*
X111327765Y-93128157D01*
X111537809Y-92987809D01*
X111620001Y-92864802D01*
X111620001Y-96106290D01*
X111416280Y-95902569D01*
X111035874Y-95745000D01*
X110624126Y-95745000D01*
X110243720Y-95902569D01*
X109952569Y-96193720D01*
X109795000Y-96574126D01*
X109795000Y-96985874D01*
X109952569Y-97366280D01*
X110243720Y-97657431D01*
X110624126Y-97815000D01*
X111035874Y-97815000D01*
X111416280Y-97657431D01*
X111620001Y-97453710D01*
X111620001Y-102670000D01*
X107547311Y-102670000D01*
X107665000Y-102385874D01*
X107665000Y-101974126D01*
X107507431Y-101593720D01*
X107216280Y-101302569D01*
X106835874Y-101145000D01*
X106424126Y-101145000D01*
X106043720Y-101302569D01*
X105752569Y-101593720D01*
X105595000Y-101974126D01*
X105595000Y-102385874D01*
X105712689Y-102670000D01*
X104697311Y-102670000D01*
X104815000Y-102385874D01*
X104815000Y-101974126D01*
X104657431Y-101593720D01*
X104367786Y-101304075D01*
X104367786Y-101079697D01*
X104210217Y-100699291D01*
X103919066Y-100408140D01*
X103538660Y-100250571D01*
X103126912Y-100250571D01*
X102746506Y-100408140D01*
X102455355Y-100699291D01*
X102297786Y-101079697D01*
X102297786Y-101491445D01*
X102455355Y-101871851D01*
X102745000Y-102161496D01*
X102745000Y-102385874D01*
X102862689Y-102670000D01*
X95965000Y-102670000D01*
X95965000Y-102274126D01*
X95807431Y-101893720D01*
X95516280Y-101602569D01*
X95135874Y-101445000D01*
X94724126Y-101445000D01*
X94343720Y-101602569D01*
X94052569Y-101893720D01*
X93895000Y-102274126D01*
X93895000Y-102670000D01*
X62940000Y-102670000D01*
X62940000Y-100774126D01*
X63895000Y-100774126D01*
X63895000Y-101185874D01*
X64052569Y-101566280D01*
X64343720Y-101857431D01*
X64724126Y-102015000D01*
X65135874Y-102015000D01*
X65516280Y-101857431D01*
X65807431Y-101566280D01*
X65965000Y-101185874D01*
X65965000Y-101074126D01*
X68095000Y-101074126D01*
X68095000Y-101485874D01*
X68252569Y-101866280D01*
X68543720Y-102157431D01*
X68924126Y-102315000D01*
X69335874Y-102315000D01*
X69716280Y-102157431D01*
X70007431Y-101866280D01*
X70165000Y-101485874D01*
X70165000Y-101074126D01*
X70033125Y-100755750D01*
X72175000Y-100755750D01*
X72175000Y-101446309D01*
X72271673Y-101679698D01*
X72450301Y-101858327D01*
X72683690Y-101955000D01*
X73374250Y-101955000D01*
X73533000Y-101796250D01*
X73533000Y-100597000D01*
X72333750Y-100597000D01*
X72175000Y-100755750D01*
X70033125Y-100755750D01*
X70007431Y-100693720D01*
X69716280Y-100402569D01*
X69335874Y-100245000D01*
X68924126Y-100245000D01*
X68543720Y-100402569D01*
X68252569Y-100693720D01*
X68095000Y-101074126D01*
X65965000Y-101074126D01*
X65965000Y-100774126D01*
X65807431Y-100393720D01*
X65516280Y-100102569D01*
X65135874Y-99945000D01*
X64724126Y-99945000D01*
X64343720Y-100102569D01*
X64052569Y-100393720D01*
X63895000Y-100774126D01*
X62940000Y-100774126D01*
X62940000Y-95412646D01*
X63259375Y-95890625D01*
X63750582Y-96218839D01*
X64183744Y-96305000D01*
X64476256Y-96305000D01*
X64909418Y-96218839D01*
X65275656Y-95974126D01*
X67795000Y-95974126D01*
X67795000Y-96385874D01*
X67952569Y-96766280D01*
X68243720Y-97057431D01*
X68624126Y-97215000D01*
X69035874Y-97215000D01*
X69416280Y-97057431D01*
X69707431Y-96766280D01*
X69865000Y-96385874D01*
X69865000Y-95974126D01*
X69707431Y-95593720D01*
X69416280Y-95302569D01*
X69035874Y-95145000D01*
X68624126Y-95145000D01*
X68243720Y-95302569D01*
X67952569Y-95593720D01*
X67795000Y-95974126D01*
X65275656Y-95974126D01*
X65400625Y-95890625D01*
X65728839Y-95399418D01*
X65844092Y-94820000D01*
X65728839Y-94240582D01*
X65400625Y-93749375D01*
X65382381Y-93737184D01*
X65427765Y-93728157D01*
X65637809Y-93587809D01*
X65778157Y-93377765D01*
X65827440Y-93130000D01*
X65827440Y-91430000D01*
X65783083Y-91207000D01*
X66677394Y-91207000D01*
X68140197Y-92669803D01*
X68181399Y-92697333D01*
X68230000Y-92707000D01*
X70305647Y-92707000D01*
X70195000Y-92974126D01*
X70195000Y-93385874D01*
X70352569Y-93766280D01*
X70643720Y-94057431D01*
X71024126Y-94215000D01*
X71435874Y-94215000D01*
X71816280Y-94057431D01*
X72107431Y-93766280D01*
X72265000Y-93385874D01*
X72265000Y-92974126D01*
X72208771Y-92838377D01*
X73240197Y-93869803D01*
X73281399Y-93897333D01*
X73330000Y-93907000D01*
X74177394Y-93907000D01*
X75640197Y-95369803D01*
X75681399Y-95397333D01*
X75730000Y-95407000D01*
X77205647Y-95407000D01*
X77095000Y-95674126D01*
X77095000Y-96085874D01*
X77252569Y-96466280D01*
X77541758Y-96755469D01*
X77440000Y-96907761D01*
X77240625Y-96609375D01*
X76749418Y-96281161D01*
X76316256Y-96195000D01*
X76023744Y-96195000D01*
X75590582Y-96281161D01*
X75099375Y-96609375D01*
X75087184Y-96627619D01*
X75078157Y-96582235D01*
X74937809Y-96372191D01*
X74727765Y-96231843D01*
X74480000Y-96182560D01*
X72780000Y-96182560D01*
X72532235Y-96231843D01*
X72322191Y-96372191D01*
X72181843Y-96582235D01*
X72132560Y-96830000D01*
X72132560Y-98530000D01*
X72181843Y-98777765D01*
X72322191Y-98987809D01*
X72457935Y-99078511D01*
X72450301Y-99081673D01*
X72271673Y-99260302D01*
X72175000Y-99493691D01*
X72175000Y-100184250D01*
X72333750Y-100343000D01*
X73533000Y-100343000D01*
X73533000Y-100323000D01*
X73787000Y-100323000D01*
X73787000Y-100343000D01*
X73807000Y-100343000D01*
X73807000Y-100597000D01*
X73787000Y-100597000D01*
X73787000Y-101796250D01*
X73945750Y-101955000D01*
X74636310Y-101955000D01*
X74869699Y-101858327D01*
X75048327Y-101679698D01*
X75114904Y-101518967D01*
X75129375Y-101540625D01*
X75620582Y-101868839D01*
X76053744Y-101955000D01*
X76346256Y-101955000D01*
X76779418Y-101868839D01*
X77270625Y-101540625D01*
X77470000Y-101242239D01*
X77669375Y-101540625D01*
X78160582Y-101868839D01*
X78593744Y-101955000D01*
X78886256Y-101955000D01*
X79319418Y-101868839D01*
X79810625Y-101540625D01*
X80010000Y-101242239D01*
X80209375Y-101540625D01*
X80700582Y-101868839D01*
X81133744Y-101955000D01*
X81426256Y-101955000D01*
X81859418Y-101868839D01*
X82350625Y-101540625D01*
X82550000Y-101242239D01*
X82749375Y-101540625D01*
X83240582Y-101868839D01*
X83673744Y-101955000D01*
X83966256Y-101955000D01*
X84399418Y-101868839D01*
X84890625Y-101540625D01*
X85090000Y-101242239D01*
X85289375Y-101540625D01*
X85780582Y-101868839D01*
X86213744Y-101955000D01*
X86506256Y-101955000D01*
X86939418Y-101868839D01*
X87430625Y-101540625D01*
X87758839Y-101049418D01*
X87874092Y-100470000D01*
X87804022Y-100117733D01*
X87893720Y-100207431D01*
X88274126Y-100365000D01*
X88685874Y-100365000D01*
X89066280Y-100207431D01*
X89305000Y-99968711D01*
X89393720Y-100057431D01*
X89774126Y-100215000D01*
X90185874Y-100215000D01*
X90566280Y-100057431D01*
X90749585Y-99874126D01*
X95545000Y-99874126D01*
X95545000Y-100285874D01*
X95702569Y-100666280D01*
X95993720Y-100957431D01*
X96374126Y-101115000D01*
X96785874Y-101115000D01*
X97166280Y-100957431D01*
X97457431Y-100666280D01*
X97615000Y-100285874D01*
X97615000Y-99874126D01*
X97457431Y-99493720D01*
X97166280Y-99202569D01*
X96785874Y-99045000D01*
X96374126Y-99045000D01*
X95993720Y-99202569D01*
X95702569Y-99493720D01*
X95545000Y-99874126D01*
X90749585Y-99874126D01*
X90857431Y-99766280D01*
X91015000Y-99385874D01*
X91015000Y-99105691D01*
X91053110Y-99121476D01*
X91283000Y-99000155D01*
X91283000Y-97807000D01*
X91263000Y-97807000D01*
X91263000Y-97553000D01*
X91283000Y-97553000D01*
X91283000Y-96359845D01*
X91537000Y-96359845D01*
X91537000Y-97553000D01*
X91557000Y-97553000D01*
X91557000Y-97807000D01*
X91537000Y-97807000D01*
X91537000Y-99000155D01*
X91766890Y-99121476D01*
X92176924Y-98951645D01*
X92605183Y-98561358D01*
X92693112Y-98374126D01*
X97645000Y-98374126D01*
X97645000Y-98785874D01*
X97802569Y-99166280D01*
X98093720Y-99457431D01*
X98136070Y-99474973D01*
X98095000Y-99574126D01*
X98095000Y-99985874D01*
X98252569Y-100366280D01*
X98543720Y-100657431D01*
X98924126Y-100815000D01*
X99335874Y-100815000D01*
X99716280Y-100657431D01*
X99845414Y-100528297D01*
X99902569Y-100666280D01*
X100193720Y-100957431D01*
X100574126Y-101115000D01*
X100985874Y-101115000D01*
X101366280Y-100957431D01*
X101657431Y-100666280D01*
X101815000Y-100285874D01*
X101815000Y-99874126D01*
X109195000Y-99874126D01*
X109195000Y-100285874D01*
X109352569Y-100666280D01*
X109441289Y-100755000D01*
X109352569Y-100843720D01*
X109195000Y-101224126D01*
X109195000Y-101635874D01*
X109352569Y-102016280D01*
X109643720Y-102307431D01*
X110024126Y-102465000D01*
X110435874Y-102465000D01*
X110816280Y-102307431D01*
X111107431Y-102016280D01*
X111265000Y-101635874D01*
X111265000Y-101224126D01*
X111107431Y-100843720D01*
X111018711Y-100755000D01*
X111107431Y-100666280D01*
X111265000Y-100285874D01*
X111265000Y-99874126D01*
X111107431Y-99493720D01*
X110816280Y-99202569D01*
X110435874Y-99045000D01*
X110024126Y-99045000D01*
X109643720Y-99202569D01*
X109352569Y-99493720D01*
X109195000Y-99874126D01*
X101815000Y-99874126D01*
X101657431Y-99493720D01*
X101366280Y-99202569D01*
X100985874Y-99045000D01*
X100574126Y-99045000D01*
X100193720Y-99202569D01*
X100064586Y-99331703D01*
X100007431Y-99193720D01*
X99926463Y-99112752D01*
X99935874Y-99112752D01*
X100316280Y-98955183D01*
X100607431Y-98664032D01*
X100765000Y-98283626D01*
X100765000Y-97871878D01*
X100607431Y-97491472D01*
X100316280Y-97200321D01*
X99935874Y-97042752D01*
X99524126Y-97042752D01*
X99143720Y-97200321D01*
X98852569Y-97491472D01*
X98830397Y-97545000D01*
X98474126Y-97545000D01*
X98093720Y-97702569D01*
X97802569Y-97993720D01*
X97645000Y-98374126D01*
X92693112Y-98374126D01*
X92851486Y-98036892D01*
X92741415Y-97827187D01*
X93074126Y-97965000D01*
X93485874Y-97965000D01*
X93866280Y-97807431D01*
X94157431Y-97516280D01*
X94315000Y-97135874D01*
X94315000Y-96724126D01*
X94157431Y-96343720D01*
X93866280Y-96052569D01*
X93485874Y-95895000D01*
X93074126Y-95895000D01*
X92693720Y-96052569D01*
X92402569Y-96343720D01*
X92321297Y-96539927D01*
X92176924Y-96408355D01*
X91766890Y-96238524D01*
X91537000Y-96359845D01*
X91283000Y-96359845D01*
X91053110Y-96238524D01*
X90643076Y-96408355D01*
X90214817Y-96798642D01*
X90153843Y-96928478D01*
X89940625Y-96609375D01*
X89449418Y-96281161D01*
X89016256Y-96195000D01*
X88723744Y-96195000D01*
X88290582Y-96281161D01*
X87799375Y-96609375D01*
X87600000Y-96907761D01*
X87400625Y-96609375D01*
X86909418Y-96281161D01*
X86476256Y-96195000D01*
X86183744Y-96195000D01*
X85750582Y-96281161D01*
X85259375Y-96609375D01*
X85060000Y-96907761D01*
X84860625Y-96609375D01*
X84369418Y-96281161D01*
X83936256Y-96195000D01*
X83643744Y-96195000D01*
X83210582Y-96281161D01*
X82719375Y-96609375D01*
X82520000Y-96907761D01*
X82320625Y-96609375D01*
X81829418Y-96281161D01*
X81396256Y-96195000D01*
X81103744Y-96195000D01*
X80670582Y-96281161D01*
X80179375Y-96609375D01*
X79980000Y-96907761D01*
X79780625Y-96609375D01*
X79289418Y-96281161D01*
X79099738Y-96243431D01*
X79165000Y-96085874D01*
X79165000Y-95674126D01*
X79054353Y-95407000D01*
X82630000Y-95407000D01*
X82678601Y-95397333D01*
X82719803Y-95369803D01*
X83131272Y-94958334D01*
X83191161Y-95259418D01*
X83519375Y-95750625D01*
X84010582Y-96078839D01*
X84443744Y-96165000D01*
X84736256Y-96165000D01*
X85169418Y-96078839D01*
X85660625Y-95750625D01*
X85672816Y-95732381D01*
X85681843Y-95777765D01*
X85822191Y-95987809D01*
X86032235Y-96128157D01*
X86280000Y-96177440D01*
X87980000Y-96177440D01*
X88227765Y-96128157D01*
X88437809Y-95987809D01*
X88578157Y-95777765D01*
X88598771Y-95674126D01*
X95395000Y-95674126D01*
X95395000Y-96085874D01*
X95527186Y-96405000D01*
X95395000Y-96724126D01*
X95395000Y-97135874D01*
X95552569Y-97516280D01*
X95843720Y-97807431D01*
X96224126Y-97965000D01*
X96635874Y-97965000D01*
X97016280Y-97807431D01*
X97307431Y-97516280D01*
X97465000Y-97135874D01*
X97465000Y-96724126D01*
X97332814Y-96405000D01*
X97465000Y-96085874D01*
X97465000Y-95674126D01*
X97307431Y-95293720D01*
X97237837Y-95224126D01*
X99595000Y-95224126D01*
X99595000Y-95635874D01*
X99752569Y-96016280D01*
X100043720Y-96307431D01*
X100424126Y-96465000D01*
X100677775Y-96465000D01*
X100802569Y-96766280D01*
X101093720Y-97057431D01*
X101474126Y-97215000D01*
X101885874Y-97215000D01*
X102266280Y-97057431D01*
X102557431Y-96766280D01*
X102715000Y-96385874D01*
X102715000Y-95974126D01*
X102557431Y-95593720D01*
X102318711Y-95355000D01*
X102407431Y-95266280D01*
X102565000Y-94885874D01*
X102565000Y-94474126D01*
X102407431Y-94093720D01*
X102116280Y-93802569D01*
X101735874Y-93645000D01*
X101324126Y-93645000D01*
X100943720Y-93802569D01*
X100652569Y-94093720D01*
X100527775Y-94395000D01*
X100424126Y-94395000D01*
X100043720Y-94552569D01*
X99752569Y-94843720D01*
X99595000Y-95224126D01*
X97237837Y-95224126D01*
X97016280Y-95002569D01*
X96635874Y-94845000D01*
X96224126Y-94845000D01*
X95843720Y-95002569D01*
X95552569Y-95293720D01*
X95395000Y-95674126D01*
X88598771Y-95674126D01*
X88627440Y-95530000D01*
X88627440Y-94280099D01*
X89130830Y-94909336D01*
X89168739Y-94941248D01*
X89230000Y-94957000D01*
X92980000Y-94957000D01*
X93028601Y-94947333D01*
X93069803Y-94919803D01*
X93092241Y-94889422D01*
X93865365Y-93429076D01*
X94043720Y-93607431D01*
X94424126Y-93765000D01*
X94835874Y-93765000D01*
X95216280Y-93607431D01*
X95507431Y-93316280D01*
X95665000Y-92935874D01*
X95665000Y-92524126D01*
X95616485Y-92407000D01*
X99730000Y-92407000D01*
X99778601Y-92397333D01*
X99819803Y-92369803D01*
X100532606Y-91657000D01*
X107980000Y-91657000D01*
X108028601Y-91647333D01*
X108069803Y-91619803D01*
X108732560Y-90957046D01*
X108732560Y-92185049D01*
X108732560Y-92185049D01*
G37*
X108732560Y-92185049D02*
X108635874Y-92145000D01*
X108224126Y-92145000D01*
X107843720Y-92302569D01*
X107552569Y-92593720D01*
X107395000Y-92974126D01*
X107395000Y-93385874D01*
X107552569Y-93766280D01*
X107843720Y-94057431D01*
X108224126Y-94215000D01*
X108635874Y-94215000D01*
X109016280Y-94057431D01*
X109307431Y-93766280D01*
X109465000Y-93385874D01*
X109465000Y-93177440D01*
X111080000Y-93177440D01*
X111327765Y-93128157D01*
X111537809Y-92987809D01*
X111620001Y-92864802D01*
X111620001Y-96106290D01*
X111416280Y-95902569D01*
X111035874Y-95745000D01*
X110624126Y-95745000D01*
X110243720Y-95902569D01*
X109952569Y-96193720D01*
X109795000Y-96574126D01*
X109795000Y-96985874D01*
X109952569Y-97366280D01*
X110243720Y-97657431D01*
X110624126Y-97815000D01*
X111035874Y-97815000D01*
X111416280Y-97657431D01*
X111620001Y-97453710D01*
X111620001Y-102670000D01*
X107547311Y-102670000D01*
X107665000Y-102385874D01*
X107665000Y-101974126D01*
X107507431Y-101593720D01*
X107216280Y-101302569D01*
X106835874Y-101145000D01*
X106424126Y-101145000D01*
X106043720Y-101302569D01*
X105752569Y-101593720D01*
X105595000Y-101974126D01*
X105595000Y-102385874D01*
X105712689Y-102670000D01*
X104697311Y-102670000D01*
X104815000Y-102385874D01*
X104815000Y-101974126D01*
X104657431Y-101593720D01*
X104367786Y-101304075D01*
X104367786Y-101079697D01*
X104210217Y-100699291D01*
X103919066Y-100408140D01*
X103538660Y-100250571D01*
X103126912Y-100250571D01*
X102746506Y-100408140D01*
X102455355Y-100699291D01*
X102297786Y-101079697D01*
X102297786Y-101491445D01*
X102455355Y-101871851D01*
X102745000Y-102161496D01*
X102745000Y-102385874D01*
X102862689Y-102670000D01*
X95965000Y-102670000D01*
X95965000Y-102274126D01*
X95807431Y-101893720D01*
X95516280Y-101602569D01*
X95135874Y-101445000D01*
X94724126Y-101445000D01*
X94343720Y-101602569D01*
X94052569Y-101893720D01*
X93895000Y-102274126D01*
X93895000Y-102670000D01*
X62940000Y-102670000D01*
X62940000Y-100774126D01*
X63895000Y-100774126D01*
X63895000Y-101185874D01*
X64052569Y-101566280D01*
X64343720Y-101857431D01*
X64724126Y-102015000D01*
X65135874Y-102015000D01*
X65516280Y-101857431D01*
X65807431Y-101566280D01*
X65965000Y-101185874D01*
X65965000Y-101074126D01*
X68095000Y-101074126D01*
X68095000Y-101485874D01*
X68252569Y-101866280D01*
X68543720Y-102157431D01*
X68924126Y-102315000D01*
X69335874Y-102315000D01*
X69716280Y-102157431D01*
X70007431Y-101866280D01*
X70165000Y-101485874D01*
X70165000Y-101074126D01*
X70033125Y-100755750D01*
X72175000Y-100755750D01*
X72175000Y-101446309D01*
X72271673Y-101679698D01*
X72450301Y-101858327D01*
X72683690Y-101955000D01*
X73374250Y-101955000D01*
X73533000Y-101796250D01*
X73533000Y-100597000D01*
X72333750Y-100597000D01*
X72175000Y-100755750D01*
X70033125Y-100755750D01*
X70007431Y-100693720D01*
X69716280Y-100402569D01*
X69335874Y-100245000D01*
X68924126Y-100245000D01*
X68543720Y-100402569D01*
X68252569Y-100693720D01*
X68095000Y-101074126D01*
X65965000Y-101074126D01*
X65965000Y-100774126D01*
X65807431Y-100393720D01*
X65516280Y-100102569D01*
X65135874Y-99945000D01*
X64724126Y-99945000D01*
X64343720Y-100102569D01*
X64052569Y-100393720D01*
X63895000Y-100774126D01*
X62940000Y-100774126D01*
X62940000Y-95412646D01*
X63259375Y-95890625D01*
X63750582Y-96218839D01*
X64183744Y-96305000D01*
X64476256Y-96305000D01*
X64909418Y-96218839D01*
X65275656Y-95974126D01*
X67795000Y-95974126D01*
X67795000Y-96385874D01*
X67952569Y-96766280D01*
X68243720Y-97057431D01*
X68624126Y-97215000D01*
X69035874Y-97215000D01*
X69416280Y-97057431D01*
X69707431Y-96766280D01*
X69865000Y-96385874D01*
X69865000Y-95974126D01*
X69707431Y-95593720D01*
X69416280Y-95302569D01*
X69035874Y-95145000D01*
X68624126Y-95145000D01*
X68243720Y-95302569D01*
X67952569Y-95593720D01*
X67795000Y-95974126D01*
X65275656Y-95974126D01*
X65400625Y-95890625D01*
X65728839Y-95399418D01*
X65844092Y-94820000D01*
X65728839Y-94240582D01*
X65400625Y-93749375D01*
X65382381Y-93737184D01*
X65427765Y-93728157D01*
X65637809Y-93587809D01*
X65778157Y-93377765D01*
X65827440Y-93130000D01*
X65827440Y-91430000D01*
X65783083Y-91207000D01*
X66677394Y-91207000D01*
X68140197Y-92669803D01*
X68181399Y-92697333D01*
X68230000Y-92707000D01*
X70305647Y-92707000D01*
X70195000Y-92974126D01*
X70195000Y-93385874D01*
X70352569Y-93766280D01*
X70643720Y-94057431D01*
X71024126Y-94215000D01*
X71435874Y-94215000D01*
X71816280Y-94057431D01*
X72107431Y-93766280D01*
X72265000Y-93385874D01*
X72265000Y-92974126D01*
X72208771Y-92838377D01*
X73240197Y-93869803D01*
X73281399Y-93897333D01*
X73330000Y-93907000D01*
X74177394Y-93907000D01*
X75640197Y-95369803D01*
X75681399Y-95397333D01*
X75730000Y-95407000D01*
X77205647Y-95407000D01*
X77095000Y-95674126D01*
X77095000Y-96085874D01*
X77252569Y-96466280D01*
X77541758Y-96755469D01*
X77440000Y-96907761D01*
X77240625Y-96609375D01*
X76749418Y-96281161D01*
X76316256Y-96195000D01*
X76023744Y-96195000D01*
X75590582Y-96281161D01*
X75099375Y-96609375D01*
X75087184Y-96627619D01*
X75078157Y-96582235D01*
X74937809Y-96372191D01*
X74727765Y-96231843D01*
X74480000Y-96182560D01*
X72780000Y-96182560D01*
X72532235Y-96231843D01*
X72322191Y-96372191D01*
X72181843Y-96582235D01*
X72132560Y-96830000D01*
X72132560Y-98530000D01*
X72181843Y-98777765D01*
X72322191Y-98987809D01*
X72457935Y-99078511D01*
X72450301Y-99081673D01*
X72271673Y-99260302D01*
X72175000Y-99493691D01*
X72175000Y-100184250D01*
X72333750Y-100343000D01*
X73533000Y-100343000D01*
X73533000Y-100323000D01*
X73787000Y-100323000D01*
X73787000Y-100343000D01*
X73807000Y-100343000D01*
X73807000Y-100597000D01*
X73787000Y-100597000D01*
X73787000Y-101796250D01*
X73945750Y-101955000D01*
X74636310Y-101955000D01*
X74869699Y-101858327D01*
X75048327Y-101679698D01*
X75114904Y-101518967D01*
X75129375Y-101540625D01*
X75620582Y-101868839D01*
X76053744Y-101955000D01*
X76346256Y-101955000D01*
X76779418Y-101868839D01*
X77270625Y-101540625D01*
X77470000Y-101242239D01*
X77669375Y-101540625D01*
X78160582Y-101868839D01*
X78593744Y-101955000D01*
X78886256Y-101955000D01*
X79319418Y-101868839D01*
X79810625Y-101540625D01*
X80010000Y-101242239D01*
X80209375Y-101540625D01*
X80700582Y-101868839D01*
X81133744Y-101955000D01*
X81426256Y-101955000D01*
X81859418Y-101868839D01*
X82350625Y-101540625D01*
X82550000Y-101242239D01*
X82749375Y-101540625D01*
X83240582Y-101868839D01*
X83673744Y-101955000D01*
X83966256Y-101955000D01*
X84399418Y-101868839D01*
X84890625Y-101540625D01*
X85090000Y-101242239D01*
X85289375Y-101540625D01*
X85780582Y-101868839D01*
X86213744Y-101955000D01*
X86506256Y-101955000D01*
X86939418Y-101868839D01*
X87430625Y-101540625D01*
X87758839Y-101049418D01*
X87874092Y-100470000D01*
X87804022Y-100117733D01*
X87893720Y-100207431D01*
X88274126Y-100365000D01*
X88685874Y-100365000D01*
X89066280Y-100207431D01*
X89305000Y-99968711D01*
X89393720Y-100057431D01*
X89774126Y-100215000D01*
X90185874Y-100215000D01*
X90566280Y-100057431D01*
X90749585Y-99874126D01*
X95545000Y-99874126D01*
X95545000Y-100285874D01*
X95702569Y-100666280D01*
X95993720Y-100957431D01*
X96374126Y-101115000D01*
X96785874Y-101115000D01*
X97166280Y-100957431D01*
X97457431Y-100666280D01*
X97615000Y-100285874D01*
X97615000Y-99874126D01*
X97457431Y-99493720D01*
X97166280Y-99202569D01*
X96785874Y-99045000D01*
X96374126Y-99045000D01*
X95993720Y-99202569D01*
X95702569Y-99493720D01*
X95545000Y-99874126D01*
X90749585Y-99874126D01*
X90857431Y-99766280D01*
X91015000Y-99385874D01*
X91015000Y-99105691D01*
X91053110Y-99121476D01*
X91283000Y-99000155D01*
X91283000Y-97807000D01*
X91263000Y-97807000D01*
X91263000Y-97553000D01*
X91283000Y-97553000D01*
X91283000Y-96359845D01*
X91537000Y-96359845D01*
X91537000Y-97553000D01*
X91557000Y-97553000D01*
X91557000Y-97807000D01*
X91537000Y-97807000D01*
X91537000Y-99000155D01*
X91766890Y-99121476D01*
X92176924Y-98951645D01*
X92605183Y-98561358D01*
X92693112Y-98374126D01*
X97645000Y-98374126D01*
X97645000Y-98785874D01*
X97802569Y-99166280D01*
X98093720Y-99457431D01*
X98136070Y-99474973D01*
X98095000Y-99574126D01*
X98095000Y-99985874D01*
X98252569Y-100366280D01*
X98543720Y-100657431D01*
X98924126Y-100815000D01*
X99335874Y-100815000D01*
X99716280Y-100657431D01*
X99845414Y-100528297D01*
X99902569Y-100666280D01*
X100193720Y-100957431D01*
X100574126Y-101115000D01*
X100985874Y-101115000D01*
X101366280Y-100957431D01*
X101657431Y-100666280D01*
X101815000Y-100285874D01*
X101815000Y-99874126D01*
X109195000Y-99874126D01*
X109195000Y-100285874D01*
X109352569Y-100666280D01*
X109441289Y-100755000D01*
X109352569Y-100843720D01*
X109195000Y-101224126D01*
X109195000Y-101635874D01*
X109352569Y-102016280D01*
X109643720Y-102307431D01*
X110024126Y-102465000D01*
X110435874Y-102465000D01*
X110816280Y-102307431D01*
X111107431Y-102016280D01*
X111265000Y-101635874D01*
X111265000Y-101224126D01*
X111107431Y-100843720D01*
X111018711Y-100755000D01*
X111107431Y-100666280D01*
X111265000Y-100285874D01*
X111265000Y-99874126D01*
X111107431Y-99493720D01*
X110816280Y-99202569D01*
X110435874Y-99045000D01*
X110024126Y-99045000D01*
X109643720Y-99202569D01*
X109352569Y-99493720D01*
X109195000Y-99874126D01*
X101815000Y-99874126D01*
X101657431Y-99493720D01*
X101366280Y-99202569D01*
X100985874Y-99045000D01*
X100574126Y-99045000D01*
X100193720Y-99202569D01*
X100064586Y-99331703D01*
X100007431Y-99193720D01*
X99926463Y-99112752D01*
X99935874Y-99112752D01*
X100316280Y-98955183D01*
X100607431Y-98664032D01*
X100765000Y-98283626D01*
X100765000Y-97871878D01*
X100607431Y-97491472D01*
X100316280Y-97200321D01*
X99935874Y-97042752D01*
X99524126Y-97042752D01*
X99143720Y-97200321D01*
X98852569Y-97491472D01*
X98830397Y-97545000D01*
X98474126Y-97545000D01*
X98093720Y-97702569D01*
X97802569Y-97993720D01*
X97645000Y-98374126D01*
X92693112Y-98374126D01*
X92851486Y-98036892D01*
X92741415Y-97827187D01*
X93074126Y-97965000D01*
X93485874Y-97965000D01*
X93866280Y-97807431D01*
X94157431Y-97516280D01*
X94315000Y-97135874D01*
X94315000Y-96724126D01*
X94157431Y-96343720D01*
X93866280Y-96052569D01*
X93485874Y-95895000D01*
X93074126Y-95895000D01*
X92693720Y-96052569D01*
X92402569Y-96343720D01*
X92321297Y-96539927D01*
X92176924Y-96408355D01*
X91766890Y-96238524D01*
X91537000Y-96359845D01*
X91283000Y-96359845D01*
X91053110Y-96238524D01*
X90643076Y-96408355D01*
X90214817Y-96798642D01*
X90153843Y-96928478D01*
X89940625Y-96609375D01*
X89449418Y-96281161D01*
X89016256Y-96195000D01*
X88723744Y-96195000D01*
X88290582Y-96281161D01*
X87799375Y-96609375D01*
X87600000Y-96907761D01*
X87400625Y-96609375D01*
X86909418Y-96281161D01*
X86476256Y-96195000D01*
X86183744Y-96195000D01*
X85750582Y-96281161D01*
X85259375Y-96609375D01*
X85060000Y-96907761D01*
X84860625Y-96609375D01*
X84369418Y-96281161D01*
X83936256Y-96195000D01*
X83643744Y-96195000D01*
X83210582Y-96281161D01*
X82719375Y-96609375D01*
X82520000Y-96907761D01*
X82320625Y-96609375D01*
X81829418Y-96281161D01*
X81396256Y-96195000D01*
X81103744Y-96195000D01*
X80670582Y-96281161D01*
X80179375Y-96609375D01*
X79980000Y-96907761D01*
X79780625Y-96609375D01*
X79289418Y-96281161D01*
X79099738Y-96243431D01*
X79165000Y-96085874D01*
X79165000Y-95674126D01*
X79054353Y-95407000D01*
X82630000Y-95407000D01*
X82678601Y-95397333D01*
X82719803Y-95369803D01*
X83131272Y-94958334D01*
X83191161Y-95259418D01*
X83519375Y-95750625D01*
X84010582Y-96078839D01*
X84443744Y-96165000D01*
X84736256Y-96165000D01*
X85169418Y-96078839D01*
X85660625Y-95750625D01*
X85672816Y-95732381D01*
X85681843Y-95777765D01*
X85822191Y-95987809D01*
X86032235Y-96128157D01*
X86280000Y-96177440D01*
X87980000Y-96177440D01*
X88227765Y-96128157D01*
X88437809Y-95987809D01*
X88578157Y-95777765D01*
X88598771Y-95674126D01*
X95395000Y-95674126D01*
X95395000Y-96085874D01*
X95527186Y-96405000D01*
X95395000Y-96724126D01*
X95395000Y-97135874D01*
X95552569Y-97516280D01*
X95843720Y-97807431D01*
X96224126Y-97965000D01*
X96635874Y-97965000D01*
X97016280Y-97807431D01*
X97307431Y-97516280D01*
X97465000Y-97135874D01*
X97465000Y-96724126D01*
X97332814Y-96405000D01*
X97465000Y-96085874D01*
X97465000Y-95674126D01*
X97307431Y-95293720D01*
X97237837Y-95224126D01*
X99595000Y-95224126D01*
X99595000Y-95635874D01*
X99752569Y-96016280D01*
X100043720Y-96307431D01*
X100424126Y-96465000D01*
X100677775Y-96465000D01*
X100802569Y-96766280D01*
X101093720Y-97057431D01*
X101474126Y-97215000D01*
X101885874Y-97215000D01*
X102266280Y-97057431D01*
X102557431Y-96766280D01*
X102715000Y-96385874D01*
X102715000Y-95974126D01*
X102557431Y-95593720D01*
X102318711Y-95355000D01*
X102407431Y-95266280D01*
X102565000Y-94885874D01*
X102565000Y-94474126D01*
X102407431Y-94093720D01*
X102116280Y-93802569D01*
X101735874Y-93645000D01*
X101324126Y-93645000D01*
X100943720Y-93802569D01*
X100652569Y-94093720D01*
X100527775Y-94395000D01*
X100424126Y-94395000D01*
X100043720Y-94552569D01*
X99752569Y-94843720D01*
X99595000Y-95224126D01*
X97237837Y-95224126D01*
X97016280Y-95002569D01*
X96635874Y-94845000D01*
X96224126Y-94845000D01*
X95843720Y-95002569D01*
X95552569Y-95293720D01*
X95395000Y-95674126D01*
X88598771Y-95674126D01*
X88627440Y-95530000D01*
X88627440Y-94280099D01*
X89130830Y-94909336D01*
X89168739Y-94941248D01*
X89230000Y-94957000D01*
X92980000Y-94957000D01*
X93028601Y-94947333D01*
X93069803Y-94919803D01*
X93092241Y-94889422D01*
X93865365Y-93429076D01*
X94043720Y-93607431D01*
X94424126Y-93765000D01*
X94835874Y-93765000D01*
X95216280Y-93607431D01*
X95507431Y-93316280D01*
X95665000Y-92935874D01*
X95665000Y-92524126D01*
X95616485Y-92407000D01*
X99730000Y-92407000D01*
X99778601Y-92397333D01*
X99819803Y-92369803D01*
X100532606Y-91657000D01*
X107980000Y-91657000D01*
X108028601Y-91647333D01*
X108069803Y-91619803D01*
X108732560Y-90957046D01*
X108732560Y-92185049D01*
G04 #@! TD*
M02*
