G04 #@! TF.GenerationSoftware,KiCad,Pcbnew,(5.0.0-rc2-178-g3c7b91b96)*
G04 #@! TF.CreationDate,2018-07-31T16:18:19+02:00*
G04 #@! TF.ProjectId,pcb2,706362322E6B696361645F7063620000,1*
G04 #@! TF.SameCoordinates,Original*
G04 #@! TF.FileFunction,Copper,L2,Inr,Plane*
G04 #@! TF.FilePolarity,Positive*
%FSLAX46Y46*%
G04 Gerber Fmt 4.6, Leading zero omitted, Abs format (unit mm)*
G04 Created by KiCad (PCBNEW (5.0.0-rc2-178-g3c7b91b96)) date 07/31/18 16:18:19*
%MOMM*%
%LPD*%
G01*
G04 APERTURE LIST*
G04 #@! TA.AperFunction,ViaPad*
%ADD10R,1.700000X1.700000*%
G04 #@! TD*
G04 #@! TA.AperFunction,ViaPad*
%ADD11O,1.700000X1.700000*%
G04 #@! TD*
G04 #@! TA.AperFunction,ViaPad*
%ADD12R,1.800000X1.800000*%
G04 #@! TD*
G04 #@! TA.AperFunction,ViaPad*
%ADD13C,1.800000*%
G04 #@! TD*
G04 #@! TA.AperFunction,ViaPad*
%ADD14C,0.800000*%
G04 #@! TD*
G04 #@! TA.AperFunction,Conductor*
%ADD15C,0.254000*%
G04 #@! TD*
G04 APERTURE END LIST*
D10*
G04 #@! TO.N,/EINK_BUSY*
G04 #@! TO.C,J3*
X73630000Y-97680000D03*
D11*
G04 #@! TO.N,/EINK_RST*
X76170000Y-97680000D03*
G04 #@! TO.N,/EINK_DC*
X78710000Y-97680000D03*
G04 #@! TO.N,/EINK_CS*
X81250000Y-97680000D03*
G04 #@! TO.N,/ADC_CLK*
X83790000Y-97680000D03*
G04 #@! TO.N,/EINK_DOUT*
X86330000Y-97680000D03*
G04 #@! TO.N,GNDD*
X88870000Y-97680000D03*
G04 #@! TO.N,+3V3*
X91410000Y-97680000D03*
G04 #@! TD*
D10*
G04 #@! TO.N,/VCPRX*
G04 #@! TO.C,J5*
X87130000Y-94680000D03*
D11*
G04 #@! TO.N,/VCPTX*
X84590000Y-94680000D03*
G04 #@! TD*
D10*
G04 #@! TO.N,+3V3*
G04 #@! TO.C,J4*
X73660000Y-100470000D03*
D11*
G04 #@! TO.N,/SWCLK*
X76200000Y-100470000D03*
G04 #@! TO.N,GNDD*
X78740000Y-100470000D03*
G04 #@! TO.N,/SWDIO*
X81280000Y-100470000D03*
G04 #@! TO.N,/NRST*
X83820000Y-100470000D03*
G04 #@! TO.N,GNDD*
X86360000Y-100470000D03*
G04 #@! TD*
D10*
G04 #@! TO.N,/PB7*
G04 #@! TO.C,J6*
X110230000Y-91680000D03*
D11*
G04 #@! TO.N,/PB6*
X110230000Y-89140000D03*
G04 #@! TO.N,/PB1*
X110230000Y-86600000D03*
G04 #@! TO.N,/PB0*
X110230000Y-84060000D03*
G04 #@! TD*
G04 #@! TO.N,+4V*
G04 #@! TO.C,J1*
X64135000Y-87020000D03*
D10*
G04 #@! TO.N,GNDA*
X64135000Y-84480000D03*
G04 #@! TD*
G04 #@! TO.N,GNDD*
G04 #@! TO.C,J2*
X64330000Y-92280000D03*
D11*
G04 #@! TO.N,+5V*
X64330000Y-94820000D03*
G04 #@! TD*
D12*
G04 #@! TO.N,Net-(Q1-Pad1)*
G04 #@! TO.C,Q1*
X73930000Y-87480000D03*
D13*
G04 #@! TO.N,GNDA*
X73930000Y-90020000D03*
G04 #@! TD*
D14*
G04 #@! TO.N,Net-(R1-Pad2)*
X101530000Y-94680000D03*
G04 #@! TO.N,GNDD*
X71230000Y-93180000D03*
X64930000Y-100980000D03*
X69130000Y-101280000D03*
X94930000Y-102480000D03*
X106630000Y-102180000D03*
X108430000Y-93180000D03*
X110830000Y-96780000D03*
X94630000Y-92730000D03*
X110230000Y-101430000D03*
G04 #@! TO.N,+2V5*
X88330000Y-86280000D03*
X80230000Y-87480000D03*
X75130000Y-91980000D03*
X68230000Y-86880000D03*
G04 #@! TO.N,+4V*
X79030000Y-89280000D03*
X83230000Y-82080000D03*
X91930000Y-81780000D03*
X107230000Y-81780000D03*
X101230000Y-81780000D03*
X88630000Y-88680000D03*
G04 #@! TO.N,GNDA*
X64630000Y-88680000D03*
X67630000Y-90180000D03*
X78130000Y-93480000D03*
X76930000Y-93480000D03*
X85030000Y-82080000D03*
X88330000Y-81780000D03*
X90130000Y-81780000D03*
X103030000Y-81780000D03*
X105430000Y-81780000D03*
X75730000Y-89280000D03*
X88630000Y-92580000D03*
X103030000Y-87180000D03*
X101530000Y-89730000D03*
X98830000Y-88680000D03*
X87730000Y-87930000D03*
G04 #@! TO.N,+3V3*
X69130000Y-97680000D03*
X67030000Y-101280000D03*
X66730000Y-97380000D03*
X90730000Y-102480000D03*
X105130000Y-94380000D03*
X108730000Y-102180000D03*
G04 #@! TO.N,+5V*
X68830000Y-96180000D03*
G04 #@! TO.N,/NRST*
X110230000Y-100080000D03*
G04 #@! TO.N,/PB0*
X103332786Y-101285571D03*
G04 #@! TO.N,/SWDIO*
X96580000Y-100080000D03*
G04 #@! TO.N,/EINK_CS*
X100630000Y-95430000D03*
G04 #@! TO.N,/ADC_DIN*
X99130000Y-99780000D03*
G04 #@! TO.N,/ADC_CLK*
X99730000Y-98077752D03*
X88480000Y-99330000D03*
G04 #@! TO.N,/ADC_CS*
X103780000Y-102180000D03*
G04 #@! TO.N,/U8U~D*
X96430000Y-96930000D03*
G04 #@! TO.N,/U7U~D*
X78130000Y-95880000D03*
G04 #@! TO.N,/U7~CS*
X93280000Y-96930000D03*
G04 #@! TO.N,/U8~CS*
X96430000Y-95880000D03*
G04 #@! TO.N,/EINK_DC*
X101680000Y-96180000D03*
X89980000Y-99180000D03*
G04 #@! TO.N,/EINK_RST*
X100780000Y-100080000D03*
G04 #@! TO.N,/EINK_DOUT*
X98680000Y-98580000D03*
G04 #@! TD*
D15*
G04 #@! TO.N,GNDD*
G36*
X108732560Y-92530000D02*
X108781843Y-92777765D01*
X108922191Y-92987809D01*
X109132235Y-93128157D01*
X109380000Y-93177440D01*
X111080000Y-93177440D01*
X111327765Y-93128157D01*
X111537809Y-92987809D01*
X111620001Y-92864802D01*
X111620001Y-102670000D01*
X109647311Y-102670000D01*
X109765000Y-102385874D01*
X109765000Y-101974126D01*
X109607431Y-101593720D01*
X109316280Y-101302569D01*
X108935874Y-101145000D01*
X108524126Y-101145000D01*
X108143720Y-101302569D01*
X107852569Y-101593720D01*
X107695000Y-101974126D01*
X107695000Y-102385874D01*
X107812689Y-102670000D01*
X104697311Y-102670000D01*
X104815000Y-102385874D01*
X104815000Y-101974126D01*
X104657431Y-101593720D01*
X104367786Y-101304075D01*
X104367786Y-101079697D01*
X104210217Y-100699291D01*
X103919066Y-100408140D01*
X103538660Y-100250571D01*
X103126912Y-100250571D01*
X102746506Y-100408140D01*
X102455355Y-100699291D01*
X102297786Y-101079697D01*
X102297786Y-101491445D01*
X102455355Y-101871851D01*
X102745000Y-102161496D01*
X102745000Y-102385874D01*
X102862689Y-102670000D01*
X91765000Y-102670000D01*
X91765000Y-102274126D01*
X91607431Y-101893720D01*
X91316280Y-101602569D01*
X90935874Y-101445000D01*
X90524126Y-101445000D01*
X90143720Y-101602569D01*
X89852569Y-101893720D01*
X89695000Y-102274126D01*
X89695000Y-102670000D01*
X62940000Y-102670000D01*
X62940000Y-101074126D01*
X65995000Y-101074126D01*
X65995000Y-101485874D01*
X66152569Y-101866280D01*
X66443720Y-102157431D01*
X66824126Y-102315000D01*
X67235874Y-102315000D01*
X67616280Y-102157431D01*
X67907431Y-101866280D01*
X68065000Y-101485874D01*
X68065000Y-101074126D01*
X67907431Y-100693720D01*
X67616280Y-100402569D01*
X67235874Y-100245000D01*
X66824126Y-100245000D01*
X66443720Y-100402569D01*
X66152569Y-100693720D01*
X65995000Y-101074126D01*
X62940000Y-101074126D01*
X62940000Y-97174126D01*
X65695000Y-97174126D01*
X65695000Y-97585874D01*
X65852569Y-97966280D01*
X66143720Y-98257431D01*
X66524126Y-98415000D01*
X66935874Y-98415000D01*
X67316280Y-98257431D01*
X67607431Y-97966280D01*
X67765000Y-97585874D01*
X67765000Y-97174126D01*
X67607431Y-96793720D01*
X67316280Y-96502569D01*
X66935874Y-96345000D01*
X66524126Y-96345000D01*
X66143720Y-96502569D01*
X65852569Y-96793720D01*
X65695000Y-97174126D01*
X62940000Y-97174126D01*
X62940000Y-95412646D01*
X63259375Y-95890625D01*
X63750582Y-96218839D01*
X64183744Y-96305000D01*
X64476256Y-96305000D01*
X64909418Y-96218839D01*
X65275656Y-95974126D01*
X67795000Y-95974126D01*
X67795000Y-96385874D01*
X67952569Y-96766280D01*
X68243720Y-97057431D01*
X68275637Y-97070652D01*
X68252569Y-97093720D01*
X68095000Y-97474126D01*
X68095000Y-97885874D01*
X68252569Y-98266280D01*
X68543720Y-98557431D01*
X68924126Y-98715000D01*
X69335874Y-98715000D01*
X69716280Y-98557431D01*
X70007431Y-98266280D01*
X70165000Y-97885874D01*
X70165000Y-97474126D01*
X70007431Y-97093720D01*
X69716280Y-96802569D01*
X69684363Y-96789348D01*
X69707431Y-96766280D01*
X69865000Y-96385874D01*
X69865000Y-95974126D01*
X69707431Y-95593720D01*
X69416280Y-95302569D01*
X69035874Y-95145000D01*
X68624126Y-95145000D01*
X68243720Y-95302569D01*
X67952569Y-95593720D01*
X67795000Y-95974126D01*
X65275656Y-95974126D01*
X65400625Y-95890625D01*
X65728839Y-95399418D01*
X65844092Y-94820000D01*
X65728839Y-94240582D01*
X65400625Y-93749375D01*
X65378967Y-93734904D01*
X65539698Y-93668327D01*
X65718327Y-93489699D01*
X65815000Y-93256310D01*
X65815000Y-92565750D01*
X65656250Y-92407000D01*
X64457000Y-92407000D01*
X64457000Y-92427000D01*
X64203000Y-92427000D01*
X64203000Y-92407000D01*
X64183000Y-92407000D01*
X64183000Y-92153000D01*
X64203000Y-92153000D01*
X64203000Y-92133000D01*
X64457000Y-92133000D01*
X64457000Y-92153000D01*
X65656250Y-92153000D01*
X65815000Y-91994250D01*
X65815000Y-91303690D01*
X65774950Y-91207000D01*
X66677394Y-91207000D01*
X68140197Y-92669803D01*
X68181399Y-92697333D01*
X68230000Y-92707000D01*
X72077394Y-92707000D01*
X73240197Y-93869803D01*
X73281399Y-93897333D01*
X73330000Y-93907000D01*
X74177394Y-93907000D01*
X75640197Y-95369803D01*
X75681399Y-95397333D01*
X75730000Y-95407000D01*
X77205647Y-95407000D01*
X77095000Y-95674126D01*
X77095000Y-96085874D01*
X77252569Y-96466280D01*
X77541758Y-96755469D01*
X77440000Y-96907761D01*
X77240625Y-96609375D01*
X76749418Y-96281161D01*
X76316256Y-96195000D01*
X76023744Y-96195000D01*
X75590582Y-96281161D01*
X75099375Y-96609375D01*
X75087184Y-96627619D01*
X75078157Y-96582235D01*
X74937809Y-96372191D01*
X74727765Y-96231843D01*
X74480000Y-96182560D01*
X72780000Y-96182560D01*
X72532235Y-96231843D01*
X72322191Y-96372191D01*
X72181843Y-96582235D01*
X72132560Y-96830000D01*
X72132560Y-98530000D01*
X72181843Y-98777765D01*
X72322191Y-98987809D01*
X72467681Y-99085023D01*
X72352191Y-99162191D01*
X72211843Y-99372235D01*
X72162560Y-99620000D01*
X72162560Y-101320000D01*
X72211843Y-101567765D01*
X72352191Y-101777809D01*
X72562235Y-101918157D01*
X72810000Y-101967440D01*
X74510000Y-101967440D01*
X74757765Y-101918157D01*
X74967809Y-101777809D01*
X75108157Y-101567765D01*
X75117184Y-101522381D01*
X75129375Y-101540625D01*
X75620582Y-101868839D01*
X76053744Y-101955000D01*
X76346256Y-101955000D01*
X76779418Y-101868839D01*
X77270625Y-101540625D01*
X77483843Y-101221522D01*
X77544817Y-101351358D01*
X77973076Y-101741645D01*
X78383110Y-101911476D01*
X78613000Y-101790155D01*
X78613000Y-100597000D01*
X78593000Y-100597000D01*
X78593000Y-100343000D01*
X78613000Y-100343000D01*
X78613000Y-100323000D01*
X78867000Y-100323000D01*
X78867000Y-100343000D01*
X78887000Y-100343000D01*
X78887000Y-100597000D01*
X78867000Y-100597000D01*
X78867000Y-101790155D01*
X79096890Y-101911476D01*
X79506924Y-101741645D01*
X79935183Y-101351358D01*
X79996157Y-101221522D01*
X80209375Y-101540625D01*
X80700582Y-101868839D01*
X81133744Y-101955000D01*
X81426256Y-101955000D01*
X81859418Y-101868839D01*
X82350625Y-101540625D01*
X82550000Y-101242239D01*
X82749375Y-101540625D01*
X83240582Y-101868839D01*
X83673744Y-101955000D01*
X83966256Y-101955000D01*
X84399418Y-101868839D01*
X84890625Y-101540625D01*
X85103843Y-101221522D01*
X85164817Y-101351358D01*
X85593076Y-101741645D01*
X86003110Y-101911476D01*
X86233000Y-101790155D01*
X86233000Y-100597000D01*
X86487000Y-100597000D01*
X86487000Y-101790155D01*
X86716890Y-101911476D01*
X87126924Y-101741645D01*
X87555183Y-101351358D01*
X87801486Y-100826892D01*
X87680819Y-100597000D01*
X86487000Y-100597000D01*
X86233000Y-100597000D01*
X86213000Y-100597000D01*
X86213000Y-100343000D01*
X86233000Y-100343000D01*
X86233000Y-100323000D01*
X86487000Y-100323000D01*
X86487000Y-100343000D01*
X87680819Y-100343000D01*
X87800767Y-100114478D01*
X87893720Y-100207431D01*
X88274126Y-100365000D01*
X88685874Y-100365000D01*
X89066280Y-100207431D01*
X89305000Y-99968711D01*
X89393720Y-100057431D01*
X89774126Y-100215000D01*
X90185874Y-100215000D01*
X90566280Y-100057431D01*
X90749585Y-99874126D01*
X95545000Y-99874126D01*
X95545000Y-100285874D01*
X95702569Y-100666280D01*
X95993720Y-100957431D01*
X96374126Y-101115000D01*
X96785874Y-101115000D01*
X97166280Y-100957431D01*
X97457431Y-100666280D01*
X97615000Y-100285874D01*
X97615000Y-99874126D01*
X97457431Y-99493720D01*
X97166280Y-99202569D01*
X96785874Y-99045000D01*
X96374126Y-99045000D01*
X95993720Y-99202569D01*
X95702569Y-99493720D01*
X95545000Y-99874126D01*
X90749585Y-99874126D01*
X90857431Y-99766280D01*
X91015000Y-99385874D01*
X91015000Y-99115522D01*
X91263744Y-99165000D01*
X91556256Y-99165000D01*
X91989418Y-99078839D01*
X92480625Y-98750625D01*
X92732193Y-98374126D01*
X97645000Y-98374126D01*
X97645000Y-98785874D01*
X97802569Y-99166280D01*
X98093720Y-99457431D01*
X98136070Y-99474973D01*
X98095000Y-99574126D01*
X98095000Y-99985874D01*
X98252569Y-100366280D01*
X98543720Y-100657431D01*
X98924126Y-100815000D01*
X99335874Y-100815000D01*
X99716280Y-100657431D01*
X99845414Y-100528297D01*
X99902569Y-100666280D01*
X100193720Y-100957431D01*
X100574126Y-101115000D01*
X100985874Y-101115000D01*
X101366280Y-100957431D01*
X101657431Y-100666280D01*
X101815000Y-100285874D01*
X101815000Y-99874126D01*
X109195000Y-99874126D01*
X109195000Y-100285874D01*
X109352569Y-100666280D01*
X109643720Y-100957431D01*
X110024126Y-101115000D01*
X110435874Y-101115000D01*
X110816280Y-100957431D01*
X111107431Y-100666280D01*
X111265000Y-100285874D01*
X111265000Y-99874126D01*
X111107431Y-99493720D01*
X110816280Y-99202569D01*
X110435874Y-99045000D01*
X110024126Y-99045000D01*
X109643720Y-99202569D01*
X109352569Y-99493720D01*
X109195000Y-99874126D01*
X101815000Y-99874126D01*
X101657431Y-99493720D01*
X101366280Y-99202569D01*
X100985874Y-99045000D01*
X100574126Y-99045000D01*
X100193720Y-99202569D01*
X100064586Y-99331703D01*
X100007431Y-99193720D01*
X99926463Y-99112752D01*
X99935874Y-99112752D01*
X100316280Y-98955183D01*
X100607431Y-98664032D01*
X100765000Y-98283626D01*
X100765000Y-97871878D01*
X100607431Y-97491472D01*
X100316280Y-97200321D01*
X99935874Y-97042752D01*
X99524126Y-97042752D01*
X99143720Y-97200321D01*
X98852569Y-97491472D01*
X98830397Y-97545000D01*
X98474126Y-97545000D01*
X98093720Y-97702569D01*
X97802569Y-97993720D01*
X97645000Y-98374126D01*
X92732193Y-98374126D01*
X92808839Y-98259418D01*
X92883138Y-97885890D01*
X93074126Y-97965000D01*
X93485874Y-97965000D01*
X93866280Y-97807431D01*
X94157431Y-97516280D01*
X94315000Y-97135874D01*
X94315000Y-96724126D01*
X94157431Y-96343720D01*
X93866280Y-96052569D01*
X93485874Y-95895000D01*
X93074126Y-95895000D01*
X92693720Y-96052569D01*
X92402569Y-96343720D01*
X92333305Y-96510939D01*
X91989418Y-96281161D01*
X91556256Y-96195000D01*
X91263744Y-96195000D01*
X90830582Y-96281161D01*
X90339375Y-96609375D01*
X90126157Y-96928478D01*
X90065183Y-96798642D01*
X89636924Y-96408355D01*
X89226890Y-96238524D01*
X88997000Y-96359845D01*
X88997000Y-97553000D01*
X89017000Y-97553000D01*
X89017000Y-97807000D01*
X88997000Y-97807000D01*
X88997000Y-97827000D01*
X88743000Y-97827000D01*
X88743000Y-97807000D01*
X88723000Y-97807000D01*
X88723000Y-97553000D01*
X88743000Y-97553000D01*
X88743000Y-96359845D01*
X88513110Y-96238524D01*
X88103076Y-96408355D01*
X87674817Y-96798642D01*
X87613843Y-96928478D01*
X87400625Y-96609375D01*
X86909418Y-96281161D01*
X86476256Y-96195000D01*
X86183744Y-96195000D01*
X85750582Y-96281161D01*
X85259375Y-96609375D01*
X85060000Y-96907761D01*
X84860625Y-96609375D01*
X84369418Y-96281161D01*
X83936256Y-96195000D01*
X83643744Y-96195000D01*
X83210582Y-96281161D01*
X82719375Y-96609375D01*
X82520000Y-96907761D01*
X82320625Y-96609375D01*
X81829418Y-96281161D01*
X81396256Y-96195000D01*
X81103744Y-96195000D01*
X80670582Y-96281161D01*
X80179375Y-96609375D01*
X79980000Y-96907761D01*
X79780625Y-96609375D01*
X79289418Y-96281161D01*
X79099738Y-96243431D01*
X79165000Y-96085874D01*
X79165000Y-95674126D01*
X79054353Y-95407000D01*
X82630000Y-95407000D01*
X82678601Y-95397333D01*
X82719803Y-95369803D01*
X83131272Y-94958334D01*
X83191161Y-95259418D01*
X83519375Y-95750625D01*
X84010582Y-96078839D01*
X84443744Y-96165000D01*
X84736256Y-96165000D01*
X85169418Y-96078839D01*
X85660625Y-95750625D01*
X85672816Y-95732381D01*
X85681843Y-95777765D01*
X85822191Y-95987809D01*
X86032235Y-96128157D01*
X86280000Y-96177440D01*
X87980000Y-96177440D01*
X88227765Y-96128157D01*
X88437809Y-95987809D01*
X88578157Y-95777765D01*
X88598771Y-95674126D01*
X95395000Y-95674126D01*
X95395000Y-96085874D01*
X95527186Y-96405000D01*
X95395000Y-96724126D01*
X95395000Y-97135874D01*
X95552569Y-97516280D01*
X95843720Y-97807431D01*
X96224126Y-97965000D01*
X96635874Y-97965000D01*
X97016280Y-97807431D01*
X97307431Y-97516280D01*
X97465000Y-97135874D01*
X97465000Y-96724126D01*
X97332814Y-96405000D01*
X97465000Y-96085874D01*
X97465000Y-95674126D01*
X97307431Y-95293720D01*
X97237837Y-95224126D01*
X99595000Y-95224126D01*
X99595000Y-95635874D01*
X99752569Y-96016280D01*
X100043720Y-96307431D01*
X100424126Y-96465000D01*
X100677775Y-96465000D01*
X100802569Y-96766280D01*
X101093720Y-97057431D01*
X101474126Y-97215000D01*
X101885874Y-97215000D01*
X102266280Y-97057431D01*
X102557431Y-96766280D01*
X102715000Y-96385874D01*
X102715000Y-95974126D01*
X102557431Y-95593720D01*
X102318711Y-95355000D01*
X102407431Y-95266280D01*
X102565000Y-94885874D01*
X102565000Y-94474126D01*
X102440737Y-94174126D01*
X104095000Y-94174126D01*
X104095000Y-94585874D01*
X104252569Y-94966280D01*
X104543720Y-95257431D01*
X104924126Y-95415000D01*
X105335874Y-95415000D01*
X105716280Y-95257431D01*
X106007431Y-94966280D01*
X106165000Y-94585874D01*
X106165000Y-94174126D01*
X106007431Y-93793720D01*
X105716280Y-93502569D01*
X105335874Y-93345000D01*
X104924126Y-93345000D01*
X104543720Y-93502569D01*
X104252569Y-93793720D01*
X104095000Y-94174126D01*
X102440737Y-94174126D01*
X102407431Y-94093720D01*
X102116280Y-93802569D01*
X101735874Y-93645000D01*
X101324126Y-93645000D01*
X100943720Y-93802569D01*
X100652569Y-94093720D01*
X100527775Y-94395000D01*
X100424126Y-94395000D01*
X100043720Y-94552569D01*
X99752569Y-94843720D01*
X99595000Y-95224126D01*
X97237837Y-95224126D01*
X97016280Y-95002569D01*
X96635874Y-94845000D01*
X96224126Y-94845000D01*
X95843720Y-95002569D01*
X95552569Y-95293720D01*
X95395000Y-95674126D01*
X88598771Y-95674126D01*
X88627440Y-95530000D01*
X88627440Y-94280099D01*
X89130830Y-94909336D01*
X89168739Y-94941248D01*
X89230000Y-94957000D01*
X92980000Y-94957000D01*
X93028601Y-94947333D01*
X93069803Y-94919803D01*
X93092241Y-94889422D01*
X94406464Y-92407000D01*
X99730000Y-92407000D01*
X99778601Y-92397333D01*
X99819803Y-92369803D01*
X100532606Y-91657000D01*
X107980000Y-91657000D01*
X108028601Y-91647333D01*
X108069803Y-91619803D01*
X108732560Y-90957046D01*
X108732560Y-92530000D01*
X108732560Y-92530000D01*
G37*
X108732560Y-92530000D02*
X108781843Y-92777765D01*
X108922191Y-92987809D01*
X109132235Y-93128157D01*
X109380000Y-93177440D01*
X111080000Y-93177440D01*
X111327765Y-93128157D01*
X111537809Y-92987809D01*
X111620001Y-92864802D01*
X111620001Y-102670000D01*
X109647311Y-102670000D01*
X109765000Y-102385874D01*
X109765000Y-101974126D01*
X109607431Y-101593720D01*
X109316280Y-101302569D01*
X108935874Y-101145000D01*
X108524126Y-101145000D01*
X108143720Y-101302569D01*
X107852569Y-101593720D01*
X107695000Y-101974126D01*
X107695000Y-102385874D01*
X107812689Y-102670000D01*
X104697311Y-102670000D01*
X104815000Y-102385874D01*
X104815000Y-101974126D01*
X104657431Y-101593720D01*
X104367786Y-101304075D01*
X104367786Y-101079697D01*
X104210217Y-100699291D01*
X103919066Y-100408140D01*
X103538660Y-100250571D01*
X103126912Y-100250571D01*
X102746506Y-100408140D01*
X102455355Y-100699291D01*
X102297786Y-101079697D01*
X102297786Y-101491445D01*
X102455355Y-101871851D01*
X102745000Y-102161496D01*
X102745000Y-102385874D01*
X102862689Y-102670000D01*
X91765000Y-102670000D01*
X91765000Y-102274126D01*
X91607431Y-101893720D01*
X91316280Y-101602569D01*
X90935874Y-101445000D01*
X90524126Y-101445000D01*
X90143720Y-101602569D01*
X89852569Y-101893720D01*
X89695000Y-102274126D01*
X89695000Y-102670000D01*
X62940000Y-102670000D01*
X62940000Y-101074126D01*
X65995000Y-101074126D01*
X65995000Y-101485874D01*
X66152569Y-101866280D01*
X66443720Y-102157431D01*
X66824126Y-102315000D01*
X67235874Y-102315000D01*
X67616280Y-102157431D01*
X67907431Y-101866280D01*
X68065000Y-101485874D01*
X68065000Y-101074126D01*
X67907431Y-100693720D01*
X67616280Y-100402569D01*
X67235874Y-100245000D01*
X66824126Y-100245000D01*
X66443720Y-100402569D01*
X66152569Y-100693720D01*
X65995000Y-101074126D01*
X62940000Y-101074126D01*
X62940000Y-97174126D01*
X65695000Y-97174126D01*
X65695000Y-97585874D01*
X65852569Y-97966280D01*
X66143720Y-98257431D01*
X66524126Y-98415000D01*
X66935874Y-98415000D01*
X67316280Y-98257431D01*
X67607431Y-97966280D01*
X67765000Y-97585874D01*
X67765000Y-97174126D01*
X67607431Y-96793720D01*
X67316280Y-96502569D01*
X66935874Y-96345000D01*
X66524126Y-96345000D01*
X66143720Y-96502569D01*
X65852569Y-96793720D01*
X65695000Y-97174126D01*
X62940000Y-97174126D01*
X62940000Y-95412646D01*
X63259375Y-95890625D01*
X63750582Y-96218839D01*
X64183744Y-96305000D01*
X64476256Y-96305000D01*
X64909418Y-96218839D01*
X65275656Y-95974126D01*
X67795000Y-95974126D01*
X67795000Y-96385874D01*
X67952569Y-96766280D01*
X68243720Y-97057431D01*
X68275637Y-97070652D01*
X68252569Y-97093720D01*
X68095000Y-97474126D01*
X68095000Y-97885874D01*
X68252569Y-98266280D01*
X68543720Y-98557431D01*
X68924126Y-98715000D01*
X69335874Y-98715000D01*
X69716280Y-98557431D01*
X70007431Y-98266280D01*
X70165000Y-97885874D01*
X70165000Y-97474126D01*
X70007431Y-97093720D01*
X69716280Y-96802569D01*
X69684363Y-96789348D01*
X69707431Y-96766280D01*
X69865000Y-96385874D01*
X69865000Y-95974126D01*
X69707431Y-95593720D01*
X69416280Y-95302569D01*
X69035874Y-95145000D01*
X68624126Y-95145000D01*
X68243720Y-95302569D01*
X67952569Y-95593720D01*
X67795000Y-95974126D01*
X65275656Y-95974126D01*
X65400625Y-95890625D01*
X65728839Y-95399418D01*
X65844092Y-94820000D01*
X65728839Y-94240582D01*
X65400625Y-93749375D01*
X65378967Y-93734904D01*
X65539698Y-93668327D01*
X65718327Y-93489699D01*
X65815000Y-93256310D01*
X65815000Y-92565750D01*
X65656250Y-92407000D01*
X64457000Y-92407000D01*
X64457000Y-92427000D01*
X64203000Y-92427000D01*
X64203000Y-92407000D01*
X64183000Y-92407000D01*
X64183000Y-92153000D01*
X64203000Y-92153000D01*
X64203000Y-92133000D01*
X64457000Y-92133000D01*
X64457000Y-92153000D01*
X65656250Y-92153000D01*
X65815000Y-91994250D01*
X65815000Y-91303690D01*
X65774950Y-91207000D01*
X66677394Y-91207000D01*
X68140197Y-92669803D01*
X68181399Y-92697333D01*
X68230000Y-92707000D01*
X72077394Y-92707000D01*
X73240197Y-93869803D01*
X73281399Y-93897333D01*
X73330000Y-93907000D01*
X74177394Y-93907000D01*
X75640197Y-95369803D01*
X75681399Y-95397333D01*
X75730000Y-95407000D01*
X77205647Y-95407000D01*
X77095000Y-95674126D01*
X77095000Y-96085874D01*
X77252569Y-96466280D01*
X77541758Y-96755469D01*
X77440000Y-96907761D01*
X77240625Y-96609375D01*
X76749418Y-96281161D01*
X76316256Y-96195000D01*
X76023744Y-96195000D01*
X75590582Y-96281161D01*
X75099375Y-96609375D01*
X75087184Y-96627619D01*
X75078157Y-96582235D01*
X74937809Y-96372191D01*
X74727765Y-96231843D01*
X74480000Y-96182560D01*
X72780000Y-96182560D01*
X72532235Y-96231843D01*
X72322191Y-96372191D01*
X72181843Y-96582235D01*
X72132560Y-96830000D01*
X72132560Y-98530000D01*
X72181843Y-98777765D01*
X72322191Y-98987809D01*
X72467681Y-99085023D01*
X72352191Y-99162191D01*
X72211843Y-99372235D01*
X72162560Y-99620000D01*
X72162560Y-101320000D01*
X72211843Y-101567765D01*
X72352191Y-101777809D01*
X72562235Y-101918157D01*
X72810000Y-101967440D01*
X74510000Y-101967440D01*
X74757765Y-101918157D01*
X74967809Y-101777809D01*
X75108157Y-101567765D01*
X75117184Y-101522381D01*
X75129375Y-101540625D01*
X75620582Y-101868839D01*
X76053744Y-101955000D01*
X76346256Y-101955000D01*
X76779418Y-101868839D01*
X77270625Y-101540625D01*
X77483843Y-101221522D01*
X77544817Y-101351358D01*
X77973076Y-101741645D01*
X78383110Y-101911476D01*
X78613000Y-101790155D01*
X78613000Y-100597000D01*
X78593000Y-100597000D01*
X78593000Y-100343000D01*
X78613000Y-100343000D01*
X78613000Y-100323000D01*
X78867000Y-100323000D01*
X78867000Y-100343000D01*
X78887000Y-100343000D01*
X78887000Y-100597000D01*
X78867000Y-100597000D01*
X78867000Y-101790155D01*
X79096890Y-101911476D01*
X79506924Y-101741645D01*
X79935183Y-101351358D01*
X79996157Y-101221522D01*
X80209375Y-101540625D01*
X80700582Y-101868839D01*
X81133744Y-101955000D01*
X81426256Y-101955000D01*
X81859418Y-101868839D01*
X82350625Y-101540625D01*
X82550000Y-101242239D01*
X82749375Y-101540625D01*
X83240582Y-101868839D01*
X83673744Y-101955000D01*
X83966256Y-101955000D01*
X84399418Y-101868839D01*
X84890625Y-101540625D01*
X85103843Y-101221522D01*
X85164817Y-101351358D01*
X85593076Y-101741645D01*
X86003110Y-101911476D01*
X86233000Y-101790155D01*
X86233000Y-100597000D01*
X86487000Y-100597000D01*
X86487000Y-101790155D01*
X86716890Y-101911476D01*
X87126924Y-101741645D01*
X87555183Y-101351358D01*
X87801486Y-100826892D01*
X87680819Y-100597000D01*
X86487000Y-100597000D01*
X86233000Y-100597000D01*
X86213000Y-100597000D01*
X86213000Y-100343000D01*
X86233000Y-100343000D01*
X86233000Y-100323000D01*
X86487000Y-100323000D01*
X86487000Y-100343000D01*
X87680819Y-100343000D01*
X87800767Y-100114478D01*
X87893720Y-100207431D01*
X88274126Y-100365000D01*
X88685874Y-100365000D01*
X89066280Y-100207431D01*
X89305000Y-99968711D01*
X89393720Y-100057431D01*
X89774126Y-100215000D01*
X90185874Y-100215000D01*
X90566280Y-100057431D01*
X90749585Y-99874126D01*
X95545000Y-99874126D01*
X95545000Y-100285874D01*
X95702569Y-100666280D01*
X95993720Y-100957431D01*
X96374126Y-101115000D01*
X96785874Y-101115000D01*
X97166280Y-100957431D01*
X97457431Y-100666280D01*
X97615000Y-100285874D01*
X97615000Y-99874126D01*
X97457431Y-99493720D01*
X97166280Y-99202569D01*
X96785874Y-99045000D01*
X96374126Y-99045000D01*
X95993720Y-99202569D01*
X95702569Y-99493720D01*
X95545000Y-99874126D01*
X90749585Y-99874126D01*
X90857431Y-99766280D01*
X91015000Y-99385874D01*
X91015000Y-99115522D01*
X91263744Y-99165000D01*
X91556256Y-99165000D01*
X91989418Y-99078839D01*
X92480625Y-98750625D01*
X92732193Y-98374126D01*
X97645000Y-98374126D01*
X97645000Y-98785874D01*
X97802569Y-99166280D01*
X98093720Y-99457431D01*
X98136070Y-99474973D01*
X98095000Y-99574126D01*
X98095000Y-99985874D01*
X98252569Y-100366280D01*
X98543720Y-100657431D01*
X98924126Y-100815000D01*
X99335874Y-100815000D01*
X99716280Y-100657431D01*
X99845414Y-100528297D01*
X99902569Y-100666280D01*
X100193720Y-100957431D01*
X100574126Y-101115000D01*
X100985874Y-101115000D01*
X101366280Y-100957431D01*
X101657431Y-100666280D01*
X101815000Y-100285874D01*
X101815000Y-99874126D01*
X109195000Y-99874126D01*
X109195000Y-100285874D01*
X109352569Y-100666280D01*
X109643720Y-100957431D01*
X110024126Y-101115000D01*
X110435874Y-101115000D01*
X110816280Y-100957431D01*
X111107431Y-100666280D01*
X111265000Y-100285874D01*
X111265000Y-99874126D01*
X111107431Y-99493720D01*
X110816280Y-99202569D01*
X110435874Y-99045000D01*
X110024126Y-99045000D01*
X109643720Y-99202569D01*
X109352569Y-99493720D01*
X109195000Y-99874126D01*
X101815000Y-99874126D01*
X101657431Y-99493720D01*
X101366280Y-99202569D01*
X100985874Y-99045000D01*
X100574126Y-99045000D01*
X100193720Y-99202569D01*
X100064586Y-99331703D01*
X100007431Y-99193720D01*
X99926463Y-99112752D01*
X99935874Y-99112752D01*
X100316280Y-98955183D01*
X100607431Y-98664032D01*
X100765000Y-98283626D01*
X100765000Y-97871878D01*
X100607431Y-97491472D01*
X100316280Y-97200321D01*
X99935874Y-97042752D01*
X99524126Y-97042752D01*
X99143720Y-97200321D01*
X98852569Y-97491472D01*
X98830397Y-97545000D01*
X98474126Y-97545000D01*
X98093720Y-97702569D01*
X97802569Y-97993720D01*
X97645000Y-98374126D01*
X92732193Y-98374126D01*
X92808839Y-98259418D01*
X92883138Y-97885890D01*
X93074126Y-97965000D01*
X93485874Y-97965000D01*
X93866280Y-97807431D01*
X94157431Y-97516280D01*
X94315000Y-97135874D01*
X94315000Y-96724126D01*
X94157431Y-96343720D01*
X93866280Y-96052569D01*
X93485874Y-95895000D01*
X93074126Y-95895000D01*
X92693720Y-96052569D01*
X92402569Y-96343720D01*
X92333305Y-96510939D01*
X91989418Y-96281161D01*
X91556256Y-96195000D01*
X91263744Y-96195000D01*
X90830582Y-96281161D01*
X90339375Y-96609375D01*
X90126157Y-96928478D01*
X90065183Y-96798642D01*
X89636924Y-96408355D01*
X89226890Y-96238524D01*
X88997000Y-96359845D01*
X88997000Y-97553000D01*
X89017000Y-97553000D01*
X89017000Y-97807000D01*
X88997000Y-97807000D01*
X88997000Y-97827000D01*
X88743000Y-97827000D01*
X88743000Y-97807000D01*
X88723000Y-97807000D01*
X88723000Y-97553000D01*
X88743000Y-97553000D01*
X88743000Y-96359845D01*
X88513110Y-96238524D01*
X88103076Y-96408355D01*
X87674817Y-96798642D01*
X87613843Y-96928478D01*
X87400625Y-96609375D01*
X86909418Y-96281161D01*
X86476256Y-96195000D01*
X86183744Y-96195000D01*
X85750582Y-96281161D01*
X85259375Y-96609375D01*
X85060000Y-96907761D01*
X84860625Y-96609375D01*
X84369418Y-96281161D01*
X83936256Y-96195000D01*
X83643744Y-96195000D01*
X83210582Y-96281161D01*
X82719375Y-96609375D01*
X82520000Y-96907761D01*
X82320625Y-96609375D01*
X81829418Y-96281161D01*
X81396256Y-96195000D01*
X81103744Y-96195000D01*
X80670582Y-96281161D01*
X80179375Y-96609375D01*
X79980000Y-96907761D01*
X79780625Y-96609375D01*
X79289418Y-96281161D01*
X79099738Y-96243431D01*
X79165000Y-96085874D01*
X79165000Y-95674126D01*
X79054353Y-95407000D01*
X82630000Y-95407000D01*
X82678601Y-95397333D01*
X82719803Y-95369803D01*
X83131272Y-94958334D01*
X83191161Y-95259418D01*
X83519375Y-95750625D01*
X84010582Y-96078839D01*
X84443744Y-96165000D01*
X84736256Y-96165000D01*
X85169418Y-96078839D01*
X85660625Y-95750625D01*
X85672816Y-95732381D01*
X85681843Y-95777765D01*
X85822191Y-95987809D01*
X86032235Y-96128157D01*
X86280000Y-96177440D01*
X87980000Y-96177440D01*
X88227765Y-96128157D01*
X88437809Y-95987809D01*
X88578157Y-95777765D01*
X88598771Y-95674126D01*
X95395000Y-95674126D01*
X95395000Y-96085874D01*
X95527186Y-96405000D01*
X95395000Y-96724126D01*
X95395000Y-97135874D01*
X95552569Y-97516280D01*
X95843720Y-97807431D01*
X96224126Y-97965000D01*
X96635874Y-97965000D01*
X97016280Y-97807431D01*
X97307431Y-97516280D01*
X97465000Y-97135874D01*
X97465000Y-96724126D01*
X97332814Y-96405000D01*
X97465000Y-96085874D01*
X97465000Y-95674126D01*
X97307431Y-95293720D01*
X97237837Y-95224126D01*
X99595000Y-95224126D01*
X99595000Y-95635874D01*
X99752569Y-96016280D01*
X100043720Y-96307431D01*
X100424126Y-96465000D01*
X100677775Y-96465000D01*
X100802569Y-96766280D01*
X101093720Y-97057431D01*
X101474126Y-97215000D01*
X101885874Y-97215000D01*
X102266280Y-97057431D01*
X102557431Y-96766280D01*
X102715000Y-96385874D01*
X102715000Y-95974126D01*
X102557431Y-95593720D01*
X102318711Y-95355000D01*
X102407431Y-95266280D01*
X102565000Y-94885874D01*
X102565000Y-94474126D01*
X102440737Y-94174126D01*
X104095000Y-94174126D01*
X104095000Y-94585874D01*
X104252569Y-94966280D01*
X104543720Y-95257431D01*
X104924126Y-95415000D01*
X105335874Y-95415000D01*
X105716280Y-95257431D01*
X106007431Y-94966280D01*
X106165000Y-94585874D01*
X106165000Y-94174126D01*
X106007431Y-93793720D01*
X105716280Y-93502569D01*
X105335874Y-93345000D01*
X104924126Y-93345000D01*
X104543720Y-93502569D01*
X104252569Y-93793720D01*
X104095000Y-94174126D01*
X102440737Y-94174126D01*
X102407431Y-94093720D01*
X102116280Y-93802569D01*
X101735874Y-93645000D01*
X101324126Y-93645000D01*
X100943720Y-93802569D01*
X100652569Y-94093720D01*
X100527775Y-94395000D01*
X100424126Y-94395000D01*
X100043720Y-94552569D01*
X99752569Y-94843720D01*
X99595000Y-95224126D01*
X97237837Y-95224126D01*
X97016280Y-95002569D01*
X96635874Y-94845000D01*
X96224126Y-94845000D01*
X95843720Y-95002569D01*
X95552569Y-95293720D01*
X95395000Y-95674126D01*
X88598771Y-95674126D01*
X88627440Y-95530000D01*
X88627440Y-94280099D01*
X89130830Y-94909336D01*
X89168739Y-94941248D01*
X89230000Y-94957000D01*
X92980000Y-94957000D01*
X93028601Y-94947333D01*
X93069803Y-94919803D01*
X93092241Y-94889422D01*
X94406464Y-92407000D01*
X99730000Y-92407000D01*
X99778601Y-92397333D01*
X99819803Y-92369803D01*
X100532606Y-91657000D01*
X107980000Y-91657000D01*
X108028601Y-91647333D01*
X108069803Y-91619803D01*
X108732560Y-90957046D01*
X108732560Y-92530000D01*
G04 #@! TO.N,GNDA*
G36*
X82352569Y-81493720D02*
X82195000Y-81874126D01*
X82195000Y-82285874D01*
X82352569Y-82666280D01*
X82643720Y-82957431D01*
X83024126Y-83115000D01*
X83435874Y-83115000D01*
X83816280Y-82957431D01*
X84107431Y-82666280D01*
X84265000Y-82285874D01*
X84265000Y-81874126D01*
X84107431Y-81493720D01*
X83903711Y-81290000D01*
X91012689Y-81290000D01*
X90895000Y-81574126D01*
X90895000Y-81985874D01*
X91052569Y-82366280D01*
X91343720Y-82657431D01*
X91724126Y-82815000D01*
X92135874Y-82815000D01*
X92516280Y-82657431D01*
X92807431Y-82366280D01*
X92965000Y-81985874D01*
X92965000Y-81574126D01*
X92847311Y-81290000D01*
X100312689Y-81290000D01*
X100195000Y-81574126D01*
X100195000Y-81985874D01*
X100352569Y-82366280D01*
X100643720Y-82657431D01*
X101024126Y-82815000D01*
X101435874Y-82815000D01*
X101816280Y-82657431D01*
X102107431Y-82366280D01*
X102265000Y-81985874D01*
X102265000Y-81574126D01*
X102147311Y-81290000D01*
X106312689Y-81290000D01*
X106195000Y-81574126D01*
X106195000Y-81985874D01*
X106352569Y-82366280D01*
X106643720Y-82657431D01*
X107024126Y-82815000D01*
X107435874Y-82815000D01*
X107816280Y-82657431D01*
X108003000Y-82470711D01*
X108003000Y-90577394D01*
X107777394Y-90803000D01*
X100330000Y-90803000D01*
X100281399Y-90812667D01*
X100240197Y-90840197D01*
X99527394Y-91553000D01*
X93880000Y-91553000D01*
X93831399Y-91562667D01*
X93790197Y-91590197D01*
X93767759Y-91620578D01*
X92453536Y-94103000D01*
X89588413Y-94103000D01*
X88726426Y-93097349D01*
X88687457Y-93066740D01*
X88630000Y-93053000D01*
X83230000Y-93053000D01*
X83181399Y-93062667D01*
X83140197Y-93090197D01*
X82540197Y-93690197D01*
X82512667Y-93731399D01*
X82503000Y-93780000D01*
X82503000Y-94327394D01*
X82277394Y-94553000D01*
X76082606Y-94553000D01*
X74619803Y-93090197D01*
X74578601Y-93062667D01*
X74530000Y-93053000D01*
X73682606Y-93053000D01*
X72519803Y-91890197D01*
X72478601Y-91862667D01*
X72430000Y-91853000D01*
X68582606Y-91853000D01*
X67119803Y-90390197D01*
X67078601Y-90362667D01*
X67030000Y-90353000D01*
X62940000Y-90353000D01*
X62940000Y-87904485D01*
X63064375Y-88090625D01*
X63555582Y-88418839D01*
X63988744Y-88505000D01*
X64281256Y-88505000D01*
X64714418Y-88418839D01*
X65205625Y-88090625D01*
X65533839Y-87599418D01*
X65649092Y-87020000D01*
X65580294Y-86674126D01*
X67195000Y-86674126D01*
X67195000Y-87085874D01*
X67352569Y-87466280D01*
X67643720Y-87757431D01*
X68024126Y-87915000D01*
X68435874Y-87915000D01*
X68816280Y-87757431D01*
X69107431Y-87466280D01*
X69265000Y-87085874D01*
X69265000Y-86674126D01*
X69226012Y-86580000D01*
X72382560Y-86580000D01*
X72382560Y-88380000D01*
X72431843Y-88627765D01*
X72572191Y-88837809D01*
X72770114Y-88970058D01*
X72735282Y-89004890D01*
X72849839Y-89119447D01*
X72593357Y-89205852D01*
X72383542Y-89779336D01*
X72409161Y-90389460D01*
X72593357Y-90834148D01*
X72849841Y-90920554D01*
X73750395Y-90020000D01*
X73736253Y-90005858D01*
X73915858Y-89826253D01*
X73930000Y-89840395D01*
X73944143Y-89826253D01*
X74123748Y-90005858D01*
X74109605Y-90020000D01*
X74123748Y-90034143D01*
X73944143Y-90213748D01*
X73930000Y-90199605D01*
X73029446Y-91100159D01*
X73115852Y-91356643D01*
X73689336Y-91566458D01*
X74189722Y-91545447D01*
X74095000Y-91774126D01*
X74095000Y-92185874D01*
X74252569Y-92566280D01*
X74543720Y-92857431D01*
X74924126Y-93015000D01*
X75335874Y-93015000D01*
X75716280Y-92857431D01*
X76007431Y-92566280D01*
X76165000Y-92185874D01*
X76165000Y-91774126D01*
X76007431Y-91393720D01*
X75716280Y-91102569D01*
X75335874Y-90945000D01*
X75034608Y-90945000D01*
X75010161Y-90920553D01*
X75266643Y-90834148D01*
X75476458Y-90260664D01*
X75450839Y-89650540D01*
X75266643Y-89205852D01*
X75010161Y-89119447D01*
X75055482Y-89074126D01*
X77995000Y-89074126D01*
X77995000Y-89485874D01*
X78152569Y-89866280D01*
X78443720Y-90157431D01*
X78824126Y-90315000D01*
X79235874Y-90315000D01*
X79616280Y-90157431D01*
X79907431Y-89866280D01*
X80065000Y-89485874D01*
X80065000Y-89074126D01*
X79907431Y-88693720D01*
X79616280Y-88402569D01*
X79235874Y-88245000D01*
X78824126Y-88245000D01*
X78443720Y-88402569D01*
X78152569Y-88693720D01*
X77995000Y-89074126D01*
X75055482Y-89074126D01*
X75124718Y-89004890D01*
X75089886Y-88970058D01*
X75287809Y-88837809D01*
X75428157Y-88627765D01*
X75477440Y-88380000D01*
X75477440Y-87274126D01*
X79195000Y-87274126D01*
X79195000Y-87685874D01*
X79352569Y-88066280D01*
X79643720Y-88357431D01*
X80024126Y-88515000D01*
X80435874Y-88515000D01*
X80534552Y-88474126D01*
X87595000Y-88474126D01*
X87595000Y-88885874D01*
X87752569Y-89266280D01*
X88043720Y-89557431D01*
X88424126Y-89715000D01*
X88835874Y-89715000D01*
X89216280Y-89557431D01*
X89507431Y-89266280D01*
X89665000Y-88885874D01*
X89665000Y-88474126D01*
X89507431Y-88093720D01*
X89216280Y-87802569D01*
X88835874Y-87645000D01*
X88424126Y-87645000D01*
X88043720Y-87802569D01*
X87752569Y-88093720D01*
X87595000Y-88474126D01*
X80534552Y-88474126D01*
X80816280Y-88357431D01*
X81107431Y-88066280D01*
X81265000Y-87685874D01*
X81265000Y-87274126D01*
X81107431Y-86893720D01*
X80816280Y-86602569D01*
X80435874Y-86445000D01*
X80024126Y-86445000D01*
X79643720Y-86602569D01*
X79352569Y-86893720D01*
X79195000Y-87274126D01*
X75477440Y-87274126D01*
X75477440Y-86580000D01*
X75428157Y-86332235D01*
X75287809Y-86122191D01*
X75215876Y-86074126D01*
X87295000Y-86074126D01*
X87295000Y-86485874D01*
X87452569Y-86866280D01*
X87743720Y-87157431D01*
X88124126Y-87315000D01*
X88535874Y-87315000D01*
X88916280Y-87157431D01*
X89207431Y-86866280D01*
X89365000Y-86485874D01*
X89365000Y-86074126D01*
X89207431Y-85693720D01*
X88916280Y-85402569D01*
X88535874Y-85245000D01*
X88124126Y-85245000D01*
X87743720Y-85402569D01*
X87452569Y-85693720D01*
X87295000Y-86074126D01*
X75215876Y-86074126D01*
X75077765Y-85981843D01*
X74830000Y-85932560D01*
X73030000Y-85932560D01*
X72782235Y-85981843D01*
X72572191Y-86122191D01*
X72431843Y-86332235D01*
X72382560Y-86580000D01*
X69226012Y-86580000D01*
X69107431Y-86293720D01*
X68816280Y-86002569D01*
X68435874Y-85845000D01*
X68024126Y-85845000D01*
X67643720Y-86002569D01*
X67352569Y-86293720D01*
X67195000Y-86674126D01*
X65580294Y-86674126D01*
X65533839Y-86440582D01*
X65205625Y-85949375D01*
X65183967Y-85934904D01*
X65344698Y-85868327D01*
X65523327Y-85689699D01*
X65620000Y-85456310D01*
X65620000Y-84765750D01*
X65461250Y-84607000D01*
X64262000Y-84607000D01*
X64262000Y-84627000D01*
X64008000Y-84627000D01*
X64008000Y-84607000D01*
X63988000Y-84607000D01*
X63988000Y-84353000D01*
X64008000Y-84353000D01*
X64008000Y-83153750D01*
X64262000Y-83153750D01*
X64262000Y-84353000D01*
X65461250Y-84353000D01*
X65620000Y-84194250D01*
X65620000Y-83503690D01*
X65523327Y-83270301D01*
X65344698Y-83091673D01*
X65111309Y-82995000D01*
X64420750Y-82995000D01*
X64262000Y-83153750D01*
X64008000Y-83153750D01*
X63849250Y-82995000D01*
X63158691Y-82995000D01*
X62940000Y-83085585D01*
X62940000Y-81290000D01*
X82556289Y-81290000D01*
X82352569Y-81493720D01*
X82352569Y-81493720D01*
G37*
X82352569Y-81493720D02*
X82195000Y-81874126D01*
X82195000Y-82285874D01*
X82352569Y-82666280D01*
X82643720Y-82957431D01*
X83024126Y-83115000D01*
X83435874Y-83115000D01*
X83816280Y-82957431D01*
X84107431Y-82666280D01*
X84265000Y-82285874D01*
X84265000Y-81874126D01*
X84107431Y-81493720D01*
X83903711Y-81290000D01*
X91012689Y-81290000D01*
X90895000Y-81574126D01*
X90895000Y-81985874D01*
X91052569Y-82366280D01*
X91343720Y-82657431D01*
X91724126Y-82815000D01*
X92135874Y-82815000D01*
X92516280Y-82657431D01*
X92807431Y-82366280D01*
X92965000Y-81985874D01*
X92965000Y-81574126D01*
X92847311Y-81290000D01*
X100312689Y-81290000D01*
X100195000Y-81574126D01*
X100195000Y-81985874D01*
X100352569Y-82366280D01*
X100643720Y-82657431D01*
X101024126Y-82815000D01*
X101435874Y-82815000D01*
X101816280Y-82657431D01*
X102107431Y-82366280D01*
X102265000Y-81985874D01*
X102265000Y-81574126D01*
X102147311Y-81290000D01*
X106312689Y-81290000D01*
X106195000Y-81574126D01*
X106195000Y-81985874D01*
X106352569Y-82366280D01*
X106643720Y-82657431D01*
X107024126Y-82815000D01*
X107435874Y-82815000D01*
X107816280Y-82657431D01*
X108003000Y-82470711D01*
X108003000Y-90577394D01*
X107777394Y-90803000D01*
X100330000Y-90803000D01*
X100281399Y-90812667D01*
X100240197Y-90840197D01*
X99527394Y-91553000D01*
X93880000Y-91553000D01*
X93831399Y-91562667D01*
X93790197Y-91590197D01*
X93767759Y-91620578D01*
X92453536Y-94103000D01*
X89588413Y-94103000D01*
X88726426Y-93097349D01*
X88687457Y-93066740D01*
X88630000Y-93053000D01*
X83230000Y-93053000D01*
X83181399Y-93062667D01*
X83140197Y-93090197D01*
X82540197Y-93690197D01*
X82512667Y-93731399D01*
X82503000Y-93780000D01*
X82503000Y-94327394D01*
X82277394Y-94553000D01*
X76082606Y-94553000D01*
X74619803Y-93090197D01*
X74578601Y-93062667D01*
X74530000Y-93053000D01*
X73682606Y-93053000D01*
X72519803Y-91890197D01*
X72478601Y-91862667D01*
X72430000Y-91853000D01*
X68582606Y-91853000D01*
X67119803Y-90390197D01*
X67078601Y-90362667D01*
X67030000Y-90353000D01*
X62940000Y-90353000D01*
X62940000Y-87904485D01*
X63064375Y-88090625D01*
X63555582Y-88418839D01*
X63988744Y-88505000D01*
X64281256Y-88505000D01*
X64714418Y-88418839D01*
X65205625Y-88090625D01*
X65533839Y-87599418D01*
X65649092Y-87020000D01*
X65580294Y-86674126D01*
X67195000Y-86674126D01*
X67195000Y-87085874D01*
X67352569Y-87466280D01*
X67643720Y-87757431D01*
X68024126Y-87915000D01*
X68435874Y-87915000D01*
X68816280Y-87757431D01*
X69107431Y-87466280D01*
X69265000Y-87085874D01*
X69265000Y-86674126D01*
X69226012Y-86580000D01*
X72382560Y-86580000D01*
X72382560Y-88380000D01*
X72431843Y-88627765D01*
X72572191Y-88837809D01*
X72770114Y-88970058D01*
X72735282Y-89004890D01*
X72849839Y-89119447D01*
X72593357Y-89205852D01*
X72383542Y-89779336D01*
X72409161Y-90389460D01*
X72593357Y-90834148D01*
X72849841Y-90920554D01*
X73750395Y-90020000D01*
X73736253Y-90005858D01*
X73915858Y-89826253D01*
X73930000Y-89840395D01*
X73944143Y-89826253D01*
X74123748Y-90005858D01*
X74109605Y-90020000D01*
X74123748Y-90034143D01*
X73944143Y-90213748D01*
X73930000Y-90199605D01*
X73029446Y-91100159D01*
X73115852Y-91356643D01*
X73689336Y-91566458D01*
X74189722Y-91545447D01*
X74095000Y-91774126D01*
X74095000Y-92185874D01*
X74252569Y-92566280D01*
X74543720Y-92857431D01*
X74924126Y-93015000D01*
X75335874Y-93015000D01*
X75716280Y-92857431D01*
X76007431Y-92566280D01*
X76165000Y-92185874D01*
X76165000Y-91774126D01*
X76007431Y-91393720D01*
X75716280Y-91102569D01*
X75335874Y-90945000D01*
X75034608Y-90945000D01*
X75010161Y-90920553D01*
X75266643Y-90834148D01*
X75476458Y-90260664D01*
X75450839Y-89650540D01*
X75266643Y-89205852D01*
X75010161Y-89119447D01*
X75055482Y-89074126D01*
X77995000Y-89074126D01*
X77995000Y-89485874D01*
X78152569Y-89866280D01*
X78443720Y-90157431D01*
X78824126Y-90315000D01*
X79235874Y-90315000D01*
X79616280Y-90157431D01*
X79907431Y-89866280D01*
X80065000Y-89485874D01*
X80065000Y-89074126D01*
X79907431Y-88693720D01*
X79616280Y-88402569D01*
X79235874Y-88245000D01*
X78824126Y-88245000D01*
X78443720Y-88402569D01*
X78152569Y-88693720D01*
X77995000Y-89074126D01*
X75055482Y-89074126D01*
X75124718Y-89004890D01*
X75089886Y-88970058D01*
X75287809Y-88837809D01*
X75428157Y-88627765D01*
X75477440Y-88380000D01*
X75477440Y-87274126D01*
X79195000Y-87274126D01*
X79195000Y-87685874D01*
X79352569Y-88066280D01*
X79643720Y-88357431D01*
X80024126Y-88515000D01*
X80435874Y-88515000D01*
X80534552Y-88474126D01*
X87595000Y-88474126D01*
X87595000Y-88885874D01*
X87752569Y-89266280D01*
X88043720Y-89557431D01*
X88424126Y-89715000D01*
X88835874Y-89715000D01*
X89216280Y-89557431D01*
X89507431Y-89266280D01*
X89665000Y-88885874D01*
X89665000Y-88474126D01*
X89507431Y-88093720D01*
X89216280Y-87802569D01*
X88835874Y-87645000D01*
X88424126Y-87645000D01*
X88043720Y-87802569D01*
X87752569Y-88093720D01*
X87595000Y-88474126D01*
X80534552Y-88474126D01*
X80816280Y-88357431D01*
X81107431Y-88066280D01*
X81265000Y-87685874D01*
X81265000Y-87274126D01*
X81107431Y-86893720D01*
X80816280Y-86602569D01*
X80435874Y-86445000D01*
X80024126Y-86445000D01*
X79643720Y-86602569D01*
X79352569Y-86893720D01*
X79195000Y-87274126D01*
X75477440Y-87274126D01*
X75477440Y-86580000D01*
X75428157Y-86332235D01*
X75287809Y-86122191D01*
X75215876Y-86074126D01*
X87295000Y-86074126D01*
X87295000Y-86485874D01*
X87452569Y-86866280D01*
X87743720Y-87157431D01*
X88124126Y-87315000D01*
X88535874Y-87315000D01*
X88916280Y-87157431D01*
X89207431Y-86866280D01*
X89365000Y-86485874D01*
X89365000Y-86074126D01*
X89207431Y-85693720D01*
X88916280Y-85402569D01*
X88535874Y-85245000D01*
X88124126Y-85245000D01*
X87743720Y-85402569D01*
X87452569Y-85693720D01*
X87295000Y-86074126D01*
X75215876Y-86074126D01*
X75077765Y-85981843D01*
X74830000Y-85932560D01*
X73030000Y-85932560D01*
X72782235Y-85981843D01*
X72572191Y-86122191D01*
X72431843Y-86332235D01*
X72382560Y-86580000D01*
X69226012Y-86580000D01*
X69107431Y-86293720D01*
X68816280Y-86002569D01*
X68435874Y-85845000D01*
X68024126Y-85845000D01*
X67643720Y-86002569D01*
X67352569Y-86293720D01*
X67195000Y-86674126D01*
X65580294Y-86674126D01*
X65533839Y-86440582D01*
X65205625Y-85949375D01*
X65183967Y-85934904D01*
X65344698Y-85868327D01*
X65523327Y-85689699D01*
X65620000Y-85456310D01*
X65620000Y-84765750D01*
X65461250Y-84607000D01*
X64262000Y-84607000D01*
X64262000Y-84627000D01*
X64008000Y-84627000D01*
X64008000Y-84607000D01*
X63988000Y-84607000D01*
X63988000Y-84353000D01*
X64008000Y-84353000D01*
X64008000Y-83153750D01*
X64262000Y-83153750D01*
X64262000Y-84353000D01*
X65461250Y-84353000D01*
X65620000Y-84194250D01*
X65620000Y-83503690D01*
X65523327Y-83270301D01*
X65344698Y-83091673D01*
X65111309Y-82995000D01*
X64420750Y-82995000D01*
X64262000Y-83153750D01*
X64008000Y-83153750D01*
X63849250Y-82995000D01*
X63158691Y-82995000D01*
X62940000Y-83085585D01*
X62940000Y-81290000D01*
X82556289Y-81290000D01*
X82352569Y-81493720D01*
G04 #@! TD*
M02*
