G04 #@! TF.GenerationSoftware,KiCad,Pcbnew,(5.0.0-rc2-178-g3c7b91b96)*
G04 #@! TF.CreationDate,2018-07-31T16:18:19+02:00*
G04 #@! TF.ProjectId,pcb2,706362322E6B696361645F7063620000,1*
G04 #@! TF.SameCoordinates,Original*
G04 #@! TF.FileFunction,Legend,Top*
G04 #@! TF.FilePolarity,Positive*
%FSLAX46Y46*%
G04 Gerber Fmt 4.6, Leading zero omitted, Abs format (unit mm)*
G04 Created by KiCad (PCBNEW (5.0.0-rc2-178-g3c7b91b96)) date 07/31/18 16:18:19*
%MOMM*%
%LPD*%
G01*
G04 APERTURE LIST*
%ADD10C,0.120000*%
%ADD11C,0.150000*%
%ADD12C,0.125000*%
G04 APERTURE END LIST*
D10*
G04 #@! TO.C,C12*
X91201267Y-82470000D02*
X90858733Y-82470000D01*
X91201267Y-83490000D02*
X90858733Y-83490000D01*
G04 #@! TO.C,C24*
X98701267Y-91140000D02*
X98358733Y-91140000D01*
X98701267Y-90120000D02*
X98358733Y-90120000D01*
G04 #@! TO.C,C23*
X91201267Y-84270000D02*
X90858733Y-84270000D01*
X91201267Y-85290000D02*
X90858733Y-85290000D01*
G04 #@! TO.C,C22*
X85501267Y-92340000D02*
X85158733Y-92340000D01*
X85501267Y-91320000D02*
X85158733Y-91320000D01*
G04 #@! TO.C,C21*
X85158733Y-85290000D02*
X85501267Y-85290000D01*
X85158733Y-84270000D02*
X85501267Y-84270000D01*
G04 #@! TO.C,C20*
X80701267Y-83490000D02*
X80358733Y-83490000D01*
X80701267Y-82470000D02*
X80358733Y-82470000D01*
G04 #@! TO.C,C19*
X88840000Y-84051267D02*
X88840000Y-83708733D01*
X87820000Y-84051267D02*
X87820000Y-83708733D01*
G04 #@! TO.C,C18*
X85501267Y-88890000D02*
X85158733Y-88890000D01*
X85501267Y-87870000D02*
X85158733Y-87870000D01*
G04 #@! TO.C,C17*
X76120000Y-91208733D02*
X76120000Y-91551267D01*
X77140000Y-91208733D02*
X77140000Y-91551267D01*
G04 #@! TO.C,C16*
X106158733Y-82470000D02*
X106501267Y-82470000D01*
X106158733Y-83490000D02*
X106501267Y-83490000D01*
G04 #@! TO.C,C13*
X77920000Y-91208733D02*
X77920000Y-91551267D01*
X78940000Y-91208733D02*
X78940000Y-91551267D01*
G04 #@! TO.C,C11*
X83958733Y-82620000D02*
X84301267Y-82620000D01*
X83958733Y-83640000D02*
X84301267Y-83640000D01*
G04 #@! TO.C,C10*
X64801267Y-89070000D02*
X64458733Y-89070000D01*
X64801267Y-90090000D02*
X64458733Y-90090000D01*
G04 #@! TO.C,C9*
X69901267Y-91290000D02*
X69558733Y-91290000D01*
X69901267Y-90270000D02*
X69558733Y-90270000D01*
G04 #@! TO.C,C6*
X106158733Y-100890000D02*
X106501267Y-100890000D01*
X106158733Y-99870000D02*
X106501267Y-99870000D01*
G04 #@! TO.C,C14*
X87520000Y-90608733D02*
X87520000Y-90951267D01*
X88540000Y-90608733D02*
X88540000Y-90951267D01*
G04 #@! TO.C,C15*
X101958733Y-82470000D02*
X102301267Y-82470000D01*
X101958733Y-83490000D02*
X102301267Y-83490000D01*
D11*
G04 #@! TO.C,U6*
X102155000Y-84055000D02*
X100755000Y-84055000D01*
X102155000Y-89155000D02*
X106305000Y-89155000D01*
X102155000Y-84005000D02*
X106305000Y-84005000D01*
X102155000Y-89155000D02*
X102155000Y-89010000D01*
X106305000Y-89155000D02*
X106305000Y-89010000D01*
X106305000Y-84005000D02*
X106305000Y-84150000D01*
X102155000Y-84005000D02*
X102155000Y-84055000D01*
G04 #@! TO.C,U5*
X93255000Y-88055000D02*
X93305000Y-88055000D01*
X93255000Y-83905000D02*
X93400000Y-83905000D01*
X98405000Y-83905000D02*
X98260000Y-83905000D01*
X98405000Y-88055000D02*
X98260000Y-88055000D01*
X93255000Y-88055000D02*
X93255000Y-83905000D01*
X98405000Y-88055000D02*
X98405000Y-83905000D01*
X93305000Y-88055000D02*
X93305000Y-89455000D01*
G04 #@! TO.C,U4*
X77555000Y-84055000D02*
X76155000Y-84055000D01*
X77555000Y-89155000D02*
X81705000Y-89155000D01*
X77555000Y-84005000D02*
X81705000Y-84005000D01*
X77555000Y-89155000D02*
X77555000Y-89010000D01*
X81705000Y-89155000D02*
X81705000Y-89010000D01*
X81705000Y-84005000D02*
X81705000Y-84150000D01*
X77555000Y-84005000D02*
X77555000Y-84055000D01*
G04 #@! TO.C,U3*
X66555000Y-88055000D02*
X66605000Y-88055000D01*
X66555000Y-83905000D02*
X66700000Y-83905000D01*
X71705000Y-83905000D02*
X71560000Y-83905000D01*
X71705000Y-88055000D02*
X71560000Y-88055000D01*
X66555000Y-88055000D02*
X66555000Y-83905000D01*
X71705000Y-88055000D02*
X71705000Y-83905000D01*
X66605000Y-88055000D02*
X66605000Y-89455000D01*
D10*
G04 #@! TO.C,U1*
X66020000Y-94870000D02*
X66020000Y-96130000D01*
X66020000Y-101690000D02*
X66020000Y-100430000D01*
X69780000Y-94870000D02*
X66020000Y-94870000D01*
X72030000Y-101690000D02*
X66020000Y-101690000D01*
G04 #@! TO.C,U8*
X91930000Y-89320000D02*
X89480000Y-89320000D01*
X90130000Y-92540000D02*
X91930000Y-92540000D01*
G04 #@! TO.C,U7*
X80530000Y-92990000D02*
X82330000Y-92990000D01*
X82330000Y-89770000D02*
X79880000Y-89770000D01*
G04 #@! TO.C,R7*
X85158733Y-87090000D02*
X85501267Y-87090000D01*
X85158733Y-86070000D02*
X85501267Y-86070000D01*
G04 #@! TO.C,R10*
X91201267Y-86940000D02*
X90858733Y-86940000D01*
X91201267Y-85920000D02*
X90858733Y-85920000D01*
G04 #@! TO.C,R11*
X92440000Y-94701267D02*
X92440000Y-94358733D01*
X91420000Y-94701267D02*
X91420000Y-94358733D01*
G04 #@! TO.C,R12*
X81220000Y-95151267D02*
X81220000Y-94808733D01*
X82240000Y-95151267D02*
X82240000Y-94808733D01*
G04 #@! TO.C,R14*
X80440000Y-95151267D02*
X80440000Y-94808733D01*
X79420000Y-95151267D02*
X79420000Y-94808733D01*
G04 #@! TO.C,R16*
X98920000Y-85851267D02*
X98920000Y-85508733D01*
X99940000Y-85851267D02*
X99940000Y-85508733D01*
G04 #@! TO.C,R13*
X90790000Y-94701267D02*
X90790000Y-94358733D01*
X89770000Y-94701267D02*
X89770000Y-94358733D01*
G04 #@! TO.C,R9*
X91201267Y-88740000D02*
X90858733Y-88740000D01*
X91201267Y-87720000D02*
X90858733Y-87720000D01*
G04 #@! TO.C,R1*
X100458733Y-93390000D02*
X100801267Y-93390000D01*
X100458733Y-92370000D02*
X100801267Y-92370000D01*
G04 #@! TO.C,R2*
X107440000Y-91058733D02*
X107440000Y-91401267D01*
X106420000Y-91058733D02*
X106420000Y-91401267D01*
G04 #@! TO.C,R3*
X102820000Y-91058733D02*
X102820000Y-91401267D01*
X103840000Y-91058733D02*
X103840000Y-91401267D01*
G04 #@! TO.C,R4*
X105640000Y-91058733D02*
X105640000Y-91401267D01*
X104620000Y-91058733D02*
X104620000Y-91401267D01*
G04 #@! TO.C,R5*
X74740000Y-84651267D02*
X74740000Y-84308733D01*
X73720000Y-84651267D02*
X73720000Y-84308733D01*
G04 #@! TO.C,R8*
X85501267Y-89670000D02*
X85158733Y-89670000D01*
X85501267Y-90690000D02*
X85158733Y-90690000D01*
G04 #@! TO.C,R15*
X94758733Y-91140000D02*
X95101267Y-91140000D01*
X94758733Y-90120000D02*
X95101267Y-90120000D01*
G04 #@! TO.C,R6*
X77101267Y-83490000D02*
X76758733Y-83490000D01*
X77101267Y-82470000D02*
X76758733Y-82470000D01*
G04 #@! TO.C,C12*
D12*
X90644285Y-81358571D02*
X90615714Y-81382380D01*
X90530000Y-81406190D01*
X90472857Y-81406190D01*
X90387142Y-81382380D01*
X90330000Y-81334761D01*
X90301428Y-81287142D01*
X90272857Y-81191904D01*
X90272857Y-81120476D01*
X90301428Y-81025238D01*
X90330000Y-80977619D01*
X90387142Y-80930000D01*
X90472857Y-80906190D01*
X90530000Y-80906190D01*
X90615714Y-80930000D01*
X90644285Y-80953809D01*
X91215714Y-81406190D02*
X90872857Y-81406190D01*
X91044285Y-81406190D02*
X91044285Y-80906190D01*
X90987142Y-80977619D01*
X90930000Y-81025238D01*
X90872857Y-81049047D01*
X91444285Y-80953809D02*
X91472857Y-80930000D01*
X91530000Y-80906190D01*
X91672857Y-80906190D01*
X91730000Y-80930000D01*
X91758571Y-80953809D01*
X91787142Y-81001428D01*
X91787142Y-81049047D01*
X91758571Y-81120476D01*
X91415714Y-81406190D01*
X91787142Y-81406190D01*
G04 #@! TO.C,C24*
X98144285Y-92008571D02*
X98115714Y-92032380D01*
X98030000Y-92056190D01*
X97972857Y-92056190D01*
X97887142Y-92032380D01*
X97830000Y-91984761D01*
X97801428Y-91937142D01*
X97772857Y-91841904D01*
X97772857Y-91770476D01*
X97801428Y-91675238D01*
X97830000Y-91627619D01*
X97887142Y-91580000D01*
X97972857Y-91556190D01*
X98030000Y-91556190D01*
X98115714Y-91580000D01*
X98144285Y-91603809D01*
X98372857Y-91603809D02*
X98401428Y-91580000D01*
X98458571Y-91556190D01*
X98601428Y-91556190D01*
X98658571Y-91580000D01*
X98687142Y-91603809D01*
X98715714Y-91651428D01*
X98715714Y-91699047D01*
X98687142Y-91770476D01*
X98344285Y-92056190D01*
X98715714Y-92056190D01*
X99230000Y-91722857D02*
X99230000Y-92056190D01*
X99087142Y-91532380D02*
X98944285Y-91889523D01*
X99315714Y-91889523D01*
G04 #@! TO.C,C23*
X93158571Y-85165714D02*
X93182380Y-85194285D01*
X93206190Y-85280000D01*
X93206190Y-85337142D01*
X93182380Y-85422857D01*
X93134761Y-85480000D01*
X93087142Y-85508571D01*
X92991904Y-85537142D01*
X92920476Y-85537142D01*
X92825238Y-85508571D01*
X92777619Y-85480000D01*
X92730000Y-85422857D01*
X92706190Y-85337142D01*
X92706190Y-85280000D01*
X92730000Y-85194285D01*
X92753809Y-85165714D01*
X92753809Y-84937142D02*
X92730000Y-84908571D01*
X92706190Y-84851428D01*
X92706190Y-84708571D01*
X92730000Y-84651428D01*
X92753809Y-84622857D01*
X92801428Y-84594285D01*
X92849047Y-84594285D01*
X92920476Y-84622857D01*
X93206190Y-84965714D01*
X93206190Y-84594285D01*
X92706190Y-84394285D02*
X92706190Y-84022857D01*
X92896666Y-84222857D01*
X92896666Y-84137142D01*
X92920476Y-84080000D01*
X92944285Y-84051428D01*
X92991904Y-84022857D01*
X93110952Y-84022857D01*
X93158571Y-84051428D01*
X93182380Y-84080000D01*
X93206190Y-84137142D01*
X93206190Y-84308571D01*
X93182380Y-84365714D01*
X93158571Y-84394285D01*
G04 #@! TO.C,C22*
X84944285Y-93208571D02*
X84915714Y-93232380D01*
X84830000Y-93256190D01*
X84772857Y-93256190D01*
X84687142Y-93232380D01*
X84630000Y-93184761D01*
X84601428Y-93137142D01*
X84572857Y-93041904D01*
X84572857Y-92970476D01*
X84601428Y-92875238D01*
X84630000Y-92827619D01*
X84687142Y-92780000D01*
X84772857Y-92756190D01*
X84830000Y-92756190D01*
X84915714Y-92780000D01*
X84944285Y-92803809D01*
X85172857Y-92803809D02*
X85201428Y-92780000D01*
X85258571Y-92756190D01*
X85401428Y-92756190D01*
X85458571Y-92780000D01*
X85487142Y-92803809D01*
X85515714Y-92851428D01*
X85515714Y-92899047D01*
X85487142Y-92970476D01*
X85144285Y-93256190D01*
X85515714Y-93256190D01*
X85744285Y-92803809D02*
X85772857Y-92780000D01*
X85830000Y-92756190D01*
X85972857Y-92756190D01*
X86030000Y-92780000D01*
X86058571Y-92803809D01*
X86087142Y-92851428D01*
X86087142Y-92899047D01*
X86058571Y-92970476D01*
X85715714Y-93256190D01*
X86087142Y-93256190D01*
G04 #@! TO.C,C21*
X86408571Y-83515714D02*
X86432380Y-83544285D01*
X86456190Y-83630000D01*
X86456190Y-83687142D01*
X86432380Y-83772857D01*
X86384761Y-83830000D01*
X86337142Y-83858571D01*
X86241904Y-83887142D01*
X86170476Y-83887142D01*
X86075238Y-83858571D01*
X86027619Y-83830000D01*
X85980000Y-83772857D01*
X85956190Y-83687142D01*
X85956190Y-83630000D01*
X85980000Y-83544285D01*
X86003809Y-83515714D01*
X86003809Y-83287142D02*
X85980000Y-83258571D01*
X85956190Y-83201428D01*
X85956190Y-83058571D01*
X85980000Y-83001428D01*
X86003809Y-82972857D01*
X86051428Y-82944285D01*
X86099047Y-82944285D01*
X86170476Y-82972857D01*
X86456190Y-83315714D01*
X86456190Y-82944285D01*
X86456190Y-82372857D02*
X86456190Y-82715714D01*
X86456190Y-82544285D02*
X85956190Y-82544285D01*
X86027619Y-82601428D01*
X86075238Y-82658571D01*
X86099047Y-82715714D01*
G04 #@! TO.C,C20*
X80144285Y-81808571D02*
X80115714Y-81832380D01*
X80030000Y-81856190D01*
X79972857Y-81856190D01*
X79887142Y-81832380D01*
X79830000Y-81784761D01*
X79801428Y-81737142D01*
X79772857Y-81641904D01*
X79772857Y-81570476D01*
X79801428Y-81475238D01*
X79830000Y-81427619D01*
X79887142Y-81380000D01*
X79972857Y-81356190D01*
X80030000Y-81356190D01*
X80115714Y-81380000D01*
X80144285Y-81403809D01*
X80372857Y-81403809D02*
X80401428Y-81380000D01*
X80458571Y-81356190D01*
X80601428Y-81356190D01*
X80658571Y-81380000D01*
X80687142Y-81403809D01*
X80715714Y-81451428D01*
X80715714Y-81499047D01*
X80687142Y-81570476D01*
X80344285Y-81856190D01*
X80715714Y-81856190D01*
X81087142Y-81356190D02*
X81144285Y-81356190D01*
X81201428Y-81380000D01*
X81230000Y-81403809D01*
X81258571Y-81451428D01*
X81287142Y-81546666D01*
X81287142Y-81665714D01*
X81258571Y-81760952D01*
X81230000Y-81808571D01*
X81201428Y-81832380D01*
X81144285Y-81856190D01*
X81087142Y-81856190D01*
X81030000Y-81832380D01*
X81001428Y-81808571D01*
X80972857Y-81760952D01*
X80944285Y-81665714D01*
X80944285Y-81546666D01*
X80972857Y-81451428D01*
X81001428Y-81403809D01*
X81030000Y-81380000D01*
X81087142Y-81356190D01*
G04 #@! TO.C,C19*
X87458571Y-84115714D02*
X87482380Y-84144285D01*
X87506190Y-84230000D01*
X87506190Y-84287142D01*
X87482380Y-84372857D01*
X87434761Y-84430000D01*
X87387142Y-84458571D01*
X87291904Y-84487142D01*
X87220476Y-84487142D01*
X87125238Y-84458571D01*
X87077619Y-84430000D01*
X87030000Y-84372857D01*
X87006190Y-84287142D01*
X87006190Y-84230000D01*
X87030000Y-84144285D01*
X87053809Y-84115714D01*
X87506190Y-83544285D02*
X87506190Y-83887142D01*
X87506190Y-83715714D02*
X87006190Y-83715714D01*
X87077619Y-83772857D01*
X87125238Y-83830000D01*
X87149047Y-83887142D01*
X87506190Y-83258571D02*
X87506190Y-83144285D01*
X87482380Y-83087142D01*
X87458571Y-83058571D01*
X87387142Y-83001428D01*
X87291904Y-82972857D01*
X87101428Y-82972857D01*
X87053809Y-83001428D01*
X87030000Y-83030000D01*
X87006190Y-83087142D01*
X87006190Y-83201428D01*
X87030000Y-83258571D01*
X87053809Y-83287142D01*
X87101428Y-83315714D01*
X87220476Y-83315714D01*
X87268095Y-83287142D01*
X87291904Y-83258571D01*
X87315714Y-83201428D01*
X87315714Y-83087142D01*
X87291904Y-83030000D01*
X87268095Y-83001428D01*
X87220476Y-82972857D01*
G04 #@! TO.C,C18*
X87185247Y-87677504D02*
X87172408Y-87712409D01*
X87110082Y-87775886D01*
X87060595Y-87804458D01*
X86974459Y-87826695D01*
X86901163Y-87814027D01*
X86852610Y-87787074D01*
X86780247Y-87718881D01*
X86744533Y-87657022D01*
X86721657Y-87560257D01*
X86722591Y-87504732D01*
X86748269Y-87434922D01*
X86810595Y-87371445D01*
X86860082Y-87342873D01*
X86946218Y-87320636D01*
X86982866Y-87326970D01*
X87703928Y-87433029D02*
X87407005Y-87604458D01*
X87555467Y-87518743D02*
X87305467Y-87085731D01*
X87291694Y-87176161D01*
X87266016Y-87245972D01*
X87228434Y-87295163D01*
X87857994Y-87014165D02*
X87796602Y-87022116D01*
X87759954Y-87015782D01*
X87711401Y-86988829D01*
X87699496Y-86968209D01*
X87700430Y-86912684D01*
X87713269Y-86877779D01*
X87750851Y-86828588D01*
X87849825Y-86771445D01*
X87911217Y-86763493D01*
X87947866Y-86769827D01*
X87996419Y-86796781D01*
X88008323Y-86817400D01*
X88007389Y-86872925D01*
X87994551Y-86907831D01*
X87956968Y-86957022D01*
X87857994Y-87014165D01*
X87820411Y-87063356D01*
X87807573Y-87098261D01*
X87806639Y-87153786D01*
X87854258Y-87236265D01*
X87902811Y-87263218D01*
X87939459Y-87269552D01*
X88000851Y-87261600D01*
X88099825Y-87204458D01*
X88137408Y-87155267D01*
X88150247Y-87120361D01*
X88151181Y-87064836D01*
X88103562Y-86982358D01*
X88055008Y-86955404D01*
X88018360Y-86949070D01*
X87956968Y-86957022D01*
G04 #@! TO.C,C17*
X75758571Y-91015714D02*
X75782380Y-91044285D01*
X75806190Y-91130000D01*
X75806190Y-91187142D01*
X75782380Y-91272857D01*
X75734761Y-91330000D01*
X75687142Y-91358571D01*
X75591904Y-91387142D01*
X75520476Y-91387142D01*
X75425238Y-91358571D01*
X75377619Y-91330000D01*
X75330000Y-91272857D01*
X75306190Y-91187142D01*
X75306190Y-91130000D01*
X75330000Y-91044285D01*
X75353809Y-91015714D01*
X75806190Y-90444285D02*
X75806190Y-90787142D01*
X75806190Y-90615714D02*
X75306190Y-90615714D01*
X75377619Y-90672857D01*
X75425238Y-90730000D01*
X75449047Y-90787142D01*
X75306190Y-90244285D02*
X75306190Y-89844285D01*
X75806190Y-90101428D01*
G04 #@! TO.C,C16*
X105944285Y-81358571D02*
X105915714Y-81382380D01*
X105830000Y-81406190D01*
X105772857Y-81406190D01*
X105687142Y-81382380D01*
X105630000Y-81334761D01*
X105601428Y-81287142D01*
X105572857Y-81191904D01*
X105572857Y-81120476D01*
X105601428Y-81025238D01*
X105630000Y-80977619D01*
X105687142Y-80930000D01*
X105772857Y-80906190D01*
X105830000Y-80906190D01*
X105915714Y-80930000D01*
X105944285Y-80953809D01*
X106515714Y-81406190D02*
X106172857Y-81406190D01*
X106344285Y-81406190D02*
X106344285Y-80906190D01*
X106287142Y-80977619D01*
X106230000Y-81025238D01*
X106172857Y-81049047D01*
X107030000Y-80906190D02*
X106915714Y-80906190D01*
X106858571Y-80930000D01*
X106830000Y-80953809D01*
X106772857Y-81025238D01*
X106744285Y-81120476D01*
X106744285Y-81310952D01*
X106772857Y-81358571D01*
X106801428Y-81382380D01*
X106858571Y-81406190D01*
X106972857Y-81406190D01*
X107030000Y-81382380D01*
X107058571Y-81358571D01*
X107087142Y-81310952D01*
X107087142Y-81191904D01*
X107058571Y-81144285D01*
X107030000Y-81120476D01*
X106972857Y-81096666D01*
X106858571Y-81096666D01*
X106801428Y-81120476D01*
X106772857Y-81144285D01*
X106744285Y-81191904D01*
G04 #@! TO.C,C13*
X79058571Y-94315714D02*
X79082380Y-94344285D01*
X79106190Y-94430000D01*
X79106190Y-94487142D01*
X79082380Y-94572857D01*
X79034761Y-94630000D01*
X78987142Y-94658571D01*
X78891904Y-94687142D01*
X78820476Y-94687142D01*
X78725238Y-94658571D01*
X78677619Y-94630000D01*
X78630000Y-94572857D01*
X78606190Y-94487142D01*
X78606190Y-94430000D01*
X78630000Y-94344285D01*
X78653809Y-94315714D01*
X79106190Y-93744285D02*
X79106190Y-94087142D01*
X79106190Y-93915714D02*
X78606190Y-93915714D01*
X78677619Y-93972857D01*
X78725238Y-94030000D01*
X78749047Y-94087142D01*
X78606190Y-93544285D02*
X78606190Y-93172857D01*
X78796666Y-93372857D01*
X78796666Y-93287142D01*
X78820476Y-93230000D01*
X78844285Y-93201428D01*
X78891904Y-93172857D01*
X79010952Y-93172857D01*
X79058571Y-93201428D01*
X79082380Y-93230000D01*
X79106190Y-93287142D01*
X79106190Y-93458571D01*
X79082380Y-93515714D01*
X79058571Y-93544285D01*
G04 #@! TO.C,C11*
X84308571Y-82015714D02*
X84332380Y-82044285D01*
X84356190Y-82130000D01*
X84356190Y-82187142D01*
X84332380Y-82272857D01*
X84284761Y-82330000D01*
X84237142Y-82358571D01*
X84141904Y-82387142D01*
X84070476Y-82387142D01*
X83975238Y-82358571D01*
X83927619Y-82330000D01*
X83880000Y-82272857D01*
X83856190Y-82187142D01*
X83856190Y-82130000D01*
X83880000Y-82044285D01*
X83903809Y-82015714D01*
X84356190Y-81444285D02*
X84356190Y-81787142D01*
X84356190Y-81615714D02*
X83856190Y-81615714D01*
X83927619Y-81672857D01*
X83975238Y-81730000D01*
X83999047Y-81787142D01*
X84356190Y-80872857D02*
X84356190Y-81215714D01*
X84356190Y-81044285D02*
X83856190Y-81044285D01*
X83927619Y-81101428D01*
X83975238Y-81158571D01*
X83999047Y-81215714D01*
G04 #@! TO.C,C10*
X64244285Y-90958571D02*
X64215714Y-90982380D01*
X64130000Y-91006190D01*
X64072857Y-91006190D01*
X63987142Y-90982380D01*
X63930000Y-90934761D01*
X63901428Y-90887142D01*
X63872857Y-90791904D01*
X63872857Y-90720476D01*
X63901428Y-90625238D01*
X63930000Y-90577619D01*
X63987142Y-90530000D01*
X64072857Y-90506190D01*
X64130000Y-90506190D01*
X64215714Y-90530000D01*
X64244285Y-90553809D01*
X64815714Y-91006190D02*
X64472857Y-91006190D01*
X64644285Y-91006190D02*
X64644285Y-90506190D01*
X64587142Y-90577619D01*
X64530000Y-90625238D01*
X64472857Y-90649047D01*
X65187142Y-90506190D02*
X65244285Y-90506190D01*
X65301428Y-90530000D01*
X65330000Y-90553809D01*
X65358571Y-90601428D01*
X65387142Y-90696666D01*
X65387142Y-90815714D01*
X65358571Y-90910952D01*
X65330000Y-90958571D01*
X65301428Y-90982380D01*
X65244285Y-91006190D01*
X65187142Y-91006190D01*
X65130000Y-90982380D01*
X65101428Y-90958571D01*
X65072857Y-90910952D01*
X65044285Y-90815714D01*
X65044285Y-90696666D01*
X65072857Y-90601428D01*
X65101428Y-90553809D01*
X65130000Y-90530000D01*
X65187142Y-90506190D01*
G04 #@! TO.C,C9*
X69630000Y-92158571D02*
X69601428Y-92182380D01*
X69515714Y-92206190D01*
X69458571Y-92206190D01*
X69372857Y-92182380D01*
X69315714Y-92134761D01*
X69287142Y-92087142D01*
X69258571Y-91991904D01*
X69258571Y-91920476D01*
X69287142Y-91825238D01*
X69315714Y-91777619D01*
X69372857Y-91730000D01*
X69458571Y-91706190D01*
X69515714Y-91706190D01*
X69601428Y-91730000D01*
X69630000Y-91753809D01*
X69915714Y-92206190D02*
X70030000Y-92206190D01*
X70087142Y-92182380D01*
X70115714Y-92158571D01*
X70172857Y-92087142D01*
X70201428Y-91991904D01*
X70201428Y-91801428D01*
X70172857Y-91753809D01*
X70144285Y-91730000D01*
X70087142Y-91706190D01*
X69972857Y-91706190D01*
X69915714Y-91730000D01*
X69887142Y-91753809D01*
X69858571Y-91801428D01*
X69858571Y-91920476D01*
X69887142Y-91968095D01*
X69915714Y-91991904D01*
X69972857Y-92015714D01*
X70087142Y-92015714D01*
X70144285Y-91991904D01*
X70172857Y-91968095D01*
X70201428Y-91920476D01*
G04 #@! TO.C,C6*
X106230000Y-99128571D02*
X106201428Y-99152380D01*
X106115714Y-99176190D01*
X106058571Y-99176190D01*
X105972857Y-99152380D01*
X105915714Y-99104761D01*
X105887142Y-99057142D01*
X105858571Y-98961904D01*
X105858571Y-98890476D01*
X105887142Y-98795238D01*
X105915714Y-98747619D01*
X105972857Y-98700000D01*
X106058571Y-98676190D01*
X106115714Y-98676190D01*
X106201428Y-98700000D01*
X106230000Y-98723809D01*
X106744285Y-98676190D02*
X106630000Y-98676190D01*
X106572857Y-98700000D01*
X106544285Y-98723809D01*
X106487142Y-98795238D01*
X106458571Y-98890476D01*
X106458571Y-99080952D01*
X106487142Y-99128571D01*
X106515714Y-99152380D01*
X106572857Y-99176190D01*
X106687142Y-99176190D01*
X106744285Y-99152380D01*
X106772857Y-99128571D01*
X106801428Y-99080952D01*
X106801428Y-98961904D01*
X106772857Y-98914285D01*
X106744285Y-98890476D01*
X106687142Y-98866666D01*
X106572857Y-98866666D01*
X106515714Y-98890476D01*
X106487142Y-98914285D01*
X106458571Y-98961904D01*
G04 #@! TO.C,C14*
X87035247Y-93377504D02*
X87022408Y-93412409D01*
X86960082Y-93475886D01*
X86910595Y-93504458D01*
X86824459Y-93526695D01*
X86751163Y-93514027D01*
X86702610Y-93487074D01*
X86630247Y-93418881D01*
X86594533Y-93357022D01*
X86571657Y-93260257D01*
X86572591Y-93204732D01*
X86598269Y-93134922D01*
X86660595Y-93071445D01*
X86710082Y-93042873D01*
X86796218Y-93020636D01*
X86832866Y-93026970D01*
X87553928Y-93133029D02*
X87257005Y-93304458D01*
X87405467Y-93218743D02*
X87155467Y-92785731D01*
X87141694Y-92876161D01*
X87116016Y-92945972D01*
X87078434Y-92995163D01*
X87832646Y-92587211D02*
X87999313Y-92875886D01*
X87613690Y-92493682D02*
X87668543Y-92874406D01*
X87990210Y-92688691D01*
G04 #@! TO.C,C15*
X101744285Y-81358571D02*
X101715714Y-81382380D01*
X101630000Y-81406190D01*
X101572857Y-81406190D01*
X101487142Y-81382380D01*
X101430000Y-81334761D01*
X101401428Y-81287142D01*
X101372857Y-81191904D01*
X101372857Y-81120476D01*
X101401428Y-81025238D01*
X101430000Y-80977619D01*
X101487142Y-80930000D01*
X101572857Y-80906190D01*
X101630000Y-80906190D01*
X101715714Y-80930000D01*
X101744285Y-80953809D01*
X102315714Y-81406190D02*
X101972857Y-81406190D01*
X102144285Y-81406190D02*
X102144285Y-80906190D01*
X102087142Y-80977619D01*
X102030000Y-81025238D01*
X101972857Y-81049047D01*
X102858571Y-80906190D02*
X102572857Y-80906190D01*
X102544285Y-81144285D01*
X102572857Y-81120476D01*
X102630000Y-81096666D01*
X102772857Y-81096666D01*
X102830000Y-81120476D01*
X102858571Y-81144285D01*
X102887142Y-81191904D01*
X102887142Y-81310952D01*
X102858571Y-81358571D01*
X102830000Y-81382380D01*
X102772857Y-81406190D01*
X102630000Y-81406190D01*
X102572857Y-81382380D01*
X102544285Y-81358571D01*
G04 #@! TO.C,Q1*
X73753809Y-91887142D02*
X73730000Y-91944285D01*
X73682380Y-92001428D01*
X73610952Y-92087142D01*
X73587142Y-92144285D01*
X73587142Y-92201428D01*
X73706190Y-92172857D02*
X73682380Y-92230000D01*
X73634761Y-92287142D01*
X73539523Y-92315714D01*
X73372857Y-92315714D01*
X73277619Y-92287142D01*
X73230000Y-92230000D01*
X73206190Y-92172857D01*
X73206190Y-92058571D01*
X73230000Y-92001428D01*
X73277619Y-91944285D01*
X73372857Y-91915714D01*
X73539523Y-91915714D01*
X73634761Y-91944285D01*
X73682380Y-92001428D01*
X73706190Y-92058571D01*
X73706190Y-92172857D01*
X73706190Y-91344285D02*
X73706190Y-91687142D01*
X73706190Y-91515714D02*
X73206190Y-91515714D01*
X73277619Y-91572857D01*
X73325238Y-91630000D01*
X73349047Y-91687142D01*
G04 #@! TO.C,U6*
X108122857Y-84956190D02*
X108122857Y-85360952D01*
X108151428Y-85408571D01*
X108180000Y-85432380D01*
X108237142Y-85456190D01*
X108351428Y-85456190D01*
X108408571Y-85432380D01*
X108437142Y-85408571D01*
X108465714Y-85360952D01*
X108465714Y-84956190D01*
X109008571Y-84956190D02*
X108894285Y-84956190D01*
X108837142Y-84980000D01*
X108808571Y-85003809D01*
X108751428Y-85075238D01*
X108722857Y-85170476D01*
X108722857Y-85360952D01*
X108751428Y-85408571D01*
X108780000Y-85432380D01*
X108837142Y-85456190D01*
X108951428Y-85456190D01*
X109008571Y-85432380D01*
X109037142Y-85408571D01*
X109065714Y-85360952D01*
X109065714Y-85241904D01*
X109037142Y-85194285D01*
X109008571Y-85170476D01*
X108951428Y-85146666D01*
X108837142Y-85146666D01*
X108780000Y-85170476D01*
X108751428Y-85194285D01*
X108722857Y-85241904D01*
G04 #@! TO.C,U5*
X94022857Y-81356190D02*
X94022857Y-81760952D01*
X94051428Y-81808571D01*
X94080000Y-81832380D01*
X94137142Y-81856190D01*
X94251428Y-81856190D01*
X94308571Y-81832380D01*
X94337142Y-81808571D01*
X94365714Y-81760952D01*
X94365714Y-81356190D01*
X94937142Y-81356190D02*
X94651428Y-81356190D01*
X94622857Y-81594285D01*
X94651428Y-81570476D01*
X94708571Y-81546666D01*
X94851428Y-81546666D01*
X94908571Y-81570476D01*
X94937142Y-81594285D01*
X94965714Y-81641904D01*
X94965714Y-81760952D01*
X94937142Y-81808571D01*
X94908571Y-81832380D01*
X94851428Y-81856190D01*
X94708571Y-81856190D01*
X94651428Y-81832380D01*
X94622857Y-81808571D01*
G04 #@! TO.C,U4*
X75306190Y-85087142D02*
X75710952Y-85087142D01*
X75758571Y-85058571D01*
X75782380Y-85030000D01*
X75806190Y-84972857D01*
X75806190Y-84858571D01*
X75782380Y-84801428D01*
X75758571Y-84772857D01*
X75710952Y-84744285D01*
X75306190Y-84744285D01*
X75472857Y-84201428D02*
X75806190Y-84201428D01*
X75282380Y-84344285D02*
X75639523Y-84487142D01*
X75639523Y-84115714D01*
G04 #@! TO.C,U3*
X65706190Y-88387142D02*
X66110952Y-88387142D01*
X66158571Y-88358571D01*
X66182380Y-88330000D01*
X66206190Y-88272857D01*
X66206190Y-88158571D01*
X66182380Y-88101428D01*
X66158571Y-88072857D01*
X66110952Y-88044285D01*
X65706190Y-88044285D01*
X65706190Y-87815714D02*
X65706190Y-87444285D01*
X65896666Y-87644285D01*
X65896666Y-87558571D01*
X65920476Y-87501428D01*
X65944285Y-87472857D01*
X65991904Y-87444285D01*
X66110952Y-87444285D01*
X66158571Y-87472857D01*
X66182380Y-87501428D01*
X66206190Y-87558571D01*
X66206190Y-87730000D01*
X66182380Y-87787142D01*
X66158571Y-87815714D01*
G04 #@! TO.C,U1*
X67472857Y-102206190D02*
X67472857Y-102610952D01*
X67501428Y-102658571D01*
X67530000Y-102682380D01*
X67587142Y-102706190D01*
X67701428Y-102706190D01*
X67758571Y-102682380D01*
X67787142Y-102658571D01*
X67815714Y-102610952D01*
X67815714Y-102206190D01*
X68415714Y-102706190D02*
X68072857Y-102706190D01*
X68244285Y-102706190D02*
X68244285Y-102206190D01*
X68187142Y-102277619D01*
X68130000Y-102325238D01*
X68072857Y-102349047D01*
G04 #@! TO.C,U8*
X92822857Y-92606190D02*
X92822857Y-93010952D01*
X92851428Y-93058571D01*
X92880000Y-93082380D01*
X92937142Y-93106190D01*
X93051428Y-93106190D01*
X93108571Y-93082380D01*
X93137142Y-93058571D01*
X93165714Y-93010952D01*
X93165714Y-92606190D01*
X93537142Y-92820476D02*
X93480000Y-92796666D01*
X93451428Y-92772857D01*
X93422857Y-92725238D01*
X93422857Y-92701428D01*
X93451428Y-92653809D01*
X93480000Y-92630000D01*
X93537142Y-92606190D01*
X93651428Y-92606190D01*
X93708571Y-92630000D01*
X93737142Y-92653809D01*
X93765714Y-92701428D01*
X93765714Y-92725238D01*
X93737142Y-92772857D01*
X93708571Y-92796666D01*
X93651428Y-92820476D01*
X93537142Y-92820476D01*
X93480000Y-92844285D01*
X93451428Y-92868095D01*
X93422857Y-92915714D01*
X93422857Y-93010952D01*
X93451428Y-93058571D01*
X93480000Y-93082380D01*
X93537142Y-93106190D01*
X93651428Y-93106190D01*
X93708571Y-93082380D01*
X93737142Y-93058571D01*
X93765714Y-93010952D01*
X93765714Y-92915714D01*
X93737142Y-92868095D01*
X93708571Y-92844285D01*
X93651428Y-92820476D01*
G04 #@! TO.C,U7*
X82772857Y-93056190D02*
X82772857Y-93460952D01*
X82801428Y-93508571D01*
X82830000Y-93532380D01*
X82887142Y-93556190D01*
X83001428Y-93556190D01*
X83058571Y-93532380D01*
X83087142Y-93508571D01*
X83115714Y-93460952D01*
X83115714Y-93056190D01*
X83344285Y-93056190D02*
X83744285Y-93056190D01*
X83487142Y-93556190D01*
G04 #@! TO.C,R7*
X87506190Y-86380000D02*
X87268095Y-86580000D01*
X87506190Y-86722857D02*
X87006190Y-86722857D01*
X87006190Y-86494285D01*
X87030000Y-86437142D01*
X87053809Y-86408571D01*
X87101428Y-86380000D01*
X87172857Y-86380000D01*
X87220476Y-86408571D01*
X87244285Y-86437142D01*
X87268095Y-86494285D01*
X87268095Y-86722857D01*
X87006190Y-86180000D02*
X87006190Y-85780000D01*
X87506190Y-86037142D01*
G04 #@! TO.C,R10*
X89306190Y-86815714D02*
X89068095Y-87015714D01*
X89306190Y-87158571D02*
X88806190Y-87158571D01*
X88806190Y-86930000D01*
X88830000Y-86872857D01*
X88853809Y-86844285D01*
X88901428Y-86815714D01*
X88972857Y-86815714D01*
X89020476Y-86844285D01*
X89044285Y-86872857D01*
X89068095Y-86930000D01*
X89068095Y-87158571D01*
X89306190Y-86244285D02*
X89306190Y-86587142D01*
X89306190Y-86415714D02*
X88806190Y-86415714D01*
X88877619Y-86472857D01*
X88925238Y-86530000D01*
X88949047Y-86587142D01*
X88806190Y-85872857D02*
X88806190Y-85815714D01*
X88830000Y-85758571D01*
X88853809Y-85730000D01*
X88901428Y-85701428D01*
X88996666Y-85672857D01*
X89115714Y-85672857D01*
X89210952Y-85701428D01*
X89258571Y-85730000D01*
X89282380Y-85758571D01*
X89306190Y-85815714D01*
X89306190Y-85872857D01*
X89282380Y-85930000D01*
X89258571Y-85958571D01*
X89210952Y-85987142D01*
X89115714Y-86015714D01*
X88996666Y-86015714D01*
X88901428Y-85987142D01*
X88853809Y-85958571D01*
X88830000Y-85930000D01*
X88806190Y-85872857D01*
G04 #@! TO.C,R11*
X93356190Y-94915714D02*
X93118095Y-95115714D01*
X93356190Y-95258571D02*
X92856190Y-95258571D01*
X92856190Y-95030000D01*
X92880000Y-94972857D01*
X92903809Y-94944285D01*
X92951428Y-94915714D01*
X93022857Y-94915714D01*
X93070476Y-94944285D01*
X93094285Y-94972857D01*
X93118095Y-95030000D01*
X93118095Y-95258571D01*
X93356190Y-94344285D02*
X93356190Y-94687142D01*
X93356190Y-94515714D02*
X92856190Y-94515714D01*
X92927619Y-94572857D01*
X92975238Y-94630000D01*
X92999047Y-94687142D01*
X93356190Y-93772857D02*
X93356190Y-94115714D01*
X93356190Y-93944285D02*
X92856190Y-93944285D01*
X92927619Y-94001428D01*
X92975238Y-94058571D01*
X92999047Y-94115714D01*
G04 #@! TO.C,R12*
X83006190Y-95815714D02*
X82768095Y-96015714D01*
X83006190Y-96158571D02*
X82506190Y-96158571D01*
X82506190Y-95930000D01*
X82530000Y-95872857D01*
X82553809Y-95844285D01*
X82601428Y-95815714D01*
X82672857Y-95815714D01*
X82720476Y-95844285D01*
X82744285Y-95872857D01*
X82768095Y-95930000D01*
X82768095Y-96158571D01*
X83006190Y-95244285D02*
X83006190Y-95587142D01*
X83006190Y-95415714D02*
X82506190Y-95415714D01*
X82577619Y-95472857D01*
X82625238Y-95530000D01*
X82649047Y-95587142D01*
X82553809Y-95015714D02*
X82530000Y-94987142D01*
X82506190Y-94930000D01*
X82506190Y-94787142D01*
X82530000Y-94730000D01*
X82553809Y-94701428D01*
X82601428Y-94672857D01*
X82649047Y-94672857D01*
X82720476Y-94701428D01*
X83006190Y-95044285D01*
X83006190Y-94672857D01*
G04 #@! TO.C,R14*
X79106190Y-96265714D02*
X78868095Y-96465714D01*
X79106190Y-96608571D02*
X78606190Y-96608571D01*
X78606190Y-96380000D01*
X78630000Y-96322857D01*
X78653809Y-96294285D01*
X78701428Y-96265714D01*
X78772857Y-96265714D01*
X78820476Y-96294285D01*
X78844285Y-96322857D01*
X78868095Y-96380000D01*
X78868095Y-96608571D01*
X79106190Y-95694285D02*
X79106190Y-96037142D01*
X79106190Y-95865714D02*
X78606190Y-95865714D01*
X78677619Y-95922857D01*
X78725238Y-95980000D01*
X78749047Y-96037142D01*
X78772857Y-95180000D02*
X79106190Y-95180000D01*
X78582380Y-95322857D02*
X78939523Y-95465714D01*
X78939523Y-95094285D01*
G04 #@! TO.C,R16*
X99656190Y-83215714D02*
X99418095Y-83415714D01*
X99656190Y-83558571D02*
X99156190Y-83558571D01*
X99156190Y-83330000D01*
X99180000Y-83272857D01*
X99203809Y-83244285D01*
X99251428Y-83215714D01*
X99322857Y-83215714D01*
X99370476Y-83244285D01*
X99394285Y-83272857D01*
X99418095Y-83330000D01*
X99418095Y-83558571D01*
X99656190Y-82644285D02*
X99656190Y-82987142D01*
X99656190Y-82815714D02*
X99156190Y-82815714D01*
X99227619Y-82872857D01*
X99275238Y-82930000D01*
X99299047Y-82987142D01*
X99156190Y-82130000D02*
X99156190Y-82244285D01*
X99180000Y-82301428D01*
X99203809Y-82330000D01*
X99275238Y-82387142D01*
X99370476Y-82415714D01*
X99560952Y-82415714D01*
X99608571Y-82387142D01*
X99632380Y-82358571D01*
X99656190Y-82301428D01*
X99656190Y-82187142D01*
X99632380Y-82130000D01*
X99608571Y-82101428D01*
X99560952Y-82072857D01*
X99441904Y-82072857D01*
X99394285Y-82101428D01*
X99370476Y-82130000D01*
X99346666Y-82187142D01*
X99346666Y-82301428D01*
X99370476Y-82358571D01*
X99394285Y-82387142D01*
X99441904Y-82415714D01*
G04 #@! TO.C,R13*
X89306190Y-94915714D02*
X89068095Y-95115714D01*
X89306190Y-95258571D02*
X88806190Y-95258571D01*
X88806190Y-95030000D01*
X88830000Y-94972857D01*
X88853809Y-94944285D01*
X88901428Y-94915714D01*
X88972857Y-94915714D01*
X89020476Y-94944285D01*
X89044285Y-94972857D01*
X89068095Y-95030000D01*
X89068095Y-95258571D01*
X89306190Y-94344285D02*
X89306190Y-94687142D01*
X89306190Y-94515714D02*
X88806190Y-94515714D01*
X88877619Y-94572857D01*
X88925238Y-94630000D01*
X88949047Y-94687142D01*
X88806190Y-94144285D02*
X88806190Y-93772857D01*
X88996666Y-93972857D01*
X88996666Y-93887142D01*
X89020476Y-93830000D01*
X89044285Y-93801428D01*
X89091904Y-93772857D01*
X89210952Y-93772857D01*
X89258571Y-93801428D01*
X89282380Y-93830000D01*
X89306190Y-93887142D01*
X89306190Y-94058571D01*
X89282380Y-94115714D01*
X89258571Y-94144285D01*
G04 #@! TO.C,R9*
X88680000Y-88006190D02*
X88480000Y-87768095D01*
X88337142Y-88006190D02*
X88337142Y-87506190D01*
X88565714Y-87506190D01*
X88622857Y-87530000D01*
X88651428Y-87553809D01*
X88680000Y-87601428D01*
X88680000Y-87672857D01*
X88651428Y-87720476D01*
X88622857Y-87744285D01*
X88565714Y-87768095D01*
X88337142Y-87768095D01*
X88965714Y-88006190D02*
X89080000Y-88006190D01*
X89137142Y-87982380D01*
X89165714Y-87958571D01*
X89222857Y-87887142D01*
X89251428Y-87791904D01*
X89251428Y-87601428D01*
X89222857Y-87553809D01*
X89194285Y-87530000D01*
X89137142Y-87506190D01*
X89022857Y-87506190D01*
X88965714Y-87530000D01*
X88937142Y-87553809D01*
X88908571Y-87601428D01*
X88908571Y-87720476D01*
X88937142Y-87768095D01*
X88965714Y-87791904D01*
X89022857Y-87815714D01*
X89137142Y-87815714D01*
X89194285Y-87791904D01*
X89222857Y-87768095D01*
X89251428Y-87720476D01*
G04 #@! TO.C,R1*
X101430000Y-91906190D02*
X101230000Y-91668095D01*
X101087142Y-91906190D02*
X101087142Y-91406190D01*
X101315714Y-91406190D01*
X101372857Y-91430000D01*
X101401428Y-91453809D01*
X101430000Y-91501428D01*
X101430000Y-91572857D01*
X101401428Y-91620476D01*
X101372857Y-91644285D01*
X101315714Y-91668095D01*
X101087142Y-91668095D01*
X102001428Y-91906190D02*
X101658571Y-91906190D01*
X101830000Y-91906190D02*
X101830000Y-91406190D01*
X101772857Y-91477619D01*
X101715714Y-91525238D01*
X101658571Y-91549047D01*
G04 #@! TO.C,R2*
X106830000Y-93556190D02*
X106630000Y-93318095D01*
X106487142Y-93556190D02*
X106487142Y-93056190D01*
X106715714Y-93056190D01*
X106772857Y-93080000D01*
X106801428Y-93103809D01*
X106830000Y-93151428D01*
X106830000Y-93222857D01*
X106801428Y-93270476D01*
X106772857Y-93294285D01*
X106715714Y-93318095D01*
X106487142Y-93318095D01*
X107058571Y-93103809D02*
X107087142Y-93080000D01*
X107144285Y-93056190D01*
X107287142Y-93056190D01*
X107344285Y-93080000D01*
X107372857Y-93103809D01*
X107401428Y-93151428D01*
X107401428Y-93199047D01*
X107372857Y-93270476D01*
X107030000Y-93556190D01*
X107401428Y-93556190D01*
G04 #@! TO.C,R3*
X103230000Y-93556190D02*
X103030000Y-93318095D01*
X102887142Y-93556190D02*
X102887142Y-93056190D01*
X103115714Y-93056190D01*
X103172857Y-93080000D01*
X103201428Y-93103809D01*
X103230000Y-93151428D01*
X103230000Y-93222857D01*
X103201428Y-93270476D01*
X103172857Y-93294285D01*
X103115714Y-93318095D01*
X102887142Y-93318095D01*
X103430000Y-93056190D02*
X103801428Y-93056190D01*
X103601428Y-93246666D01*
X103687142Y-93246666D01*
X103744285Y-93270476D01*
X103772857Y-93294285D01*
X103801428Y-93341904D01*
X103801428Y-93460952D01*
X103772857Y-93508571D01*
X103744285Y-93532380D01*
X103687142Y-93556190D01*
X103515714Y-93556190D01*
X103458571Y-93532380D01*
X103430000Y-93508571D01*
G04 #@! TO.C,R4*
X105030000Y-93556190D02*
X104830000Y-93318095D01*
X104687142Y-93556190D02*
X104687142Y-93056190D01*
X104915714Y-93056190D01*
X104972857Y-93080000D01*
X105001428Y-93103809D01*
X105030000Y-93151428D01*
X105030000Y-93222857D01*
X105001428Y-93270476D01*
X104972857Y-93294285D01*
X104915714Y-93318095D01*
X104687142Y-93318095D01*
X105544285Y-93222857D02*
X105544285Y-93556190D01*
X105401428Y-93032380D02*
X105258571Y-93389523D01*
X105630000Y-93389523D01*
G04 #@! TO.C,R5*
X73256190Y-84580000D02*
X73018095Y-84780000D01*
X73256190Y-84922857D02*
X72756190Y-84922857D01*
X72756190Y-84694285D01*
X72780000Y-84637142D01*
X72803809Y-84608571D01*
X72851428Y-84580000D01*
X72922857Y-84580000D01*
X72970476Y-84608571D01*
X72994285Y-84637142D01*
X73018095Y-84694285D01*
X73018095Y-84922857D01*
X72756190Y-84037142D02*
X72756190Y-84322857D01*
X72994285Y-84351428D01*
X72970476Y-84322857D01*
X72946666Y-84265714D01*
X72946666Y-84122857D01*
X72970476Y-84065714D01*
X72994285Y-84037142D01*
X73041904Y-84008571D01*
X73160952Y-84008571D01*
X73208571Y-84037142D01*
X73232380Y-84065714D01*
X73256190Y-84122857D01*
X73256190Y-84265714D01*
X73232380Y-84322857D01*
X73208571Y-84351428D01*
G04 #@! TO.C,R8*
X87369230Y-89510651D02*
X87059450Y-89483714D01*
X87126793Y-89753088D02*
X86773240Y-89399534D01*
X86934864Y-89237910D01*
X86992106Y-89214340D01*
X87029145Y-89210972D01*
X87083020Y-89224441D01*
X87133527Y-89274949D01*
X87146996Y-89328824D01*
X87143629Y-89365862D01*
X87120059Y-89423104D01*
X86958434Y-89584729D01*
X87409636Y-89066184D02*
X87352394Y-89089754D01*
X87315355Y-89093121D01*
X87261480Y-89079653D01*
X87244644Y-89062817D01*
X87231175Y-89008942D01*
X87234543Y-88971903D01*
X87258113Y-88914661D01*
X87338925Y-88833849D01*
X87396167Y-88810279D01*
X87433206Y-88806911D01*
X87487081Y-88820380D01*
X87503917Y-88837216D01*
X87517385Y-88891091D01*
X87514018Y-88928130D01*
X87490448Y-88985372D01*
X87409636Y-89066184D01*
X87386066Y-89123426D01*
X87382698Y-89160465D01*
X87396167Y-89214340D01*
X87463511Y-89281683D01*
X87517385Y-89295152D01*
X87554424Y-89291785D01*
X87611666Y-89268214D01*
X87692478Y-89187402D01*
X87716049Y-89130160D01*
X87719416Y-89093121D01*
X87705947Y-89039246D01*
X87638604Y-88971903D01*
X87584729Y-88958434D01*
X87547690Y-88961801D01*
X87490448Y-88985372D01*
G04 #@! TO.C,R15*
X94544285Y-92056190D02*
X94344285Y-91818095D01*
X94201428Y-92056190D02*
X94201428Y-91556190D01*
X94430000Y-91556190D01*
X94487142Y-91580000D01*
X94515714Y-91603809D01*
X94544285Y-91651428D01*
X94544285Y-91722857D01*
X94515714Y-91770476D01*
X94487142Y-91794285D01*
X94430000Y-91818095D01*
X94201428Y-91818095D01*
X95115714Y-92056190D02*
X94772857Y-92056190D01*
X94944285Y-92056190D02*
X94944285Y-91556190D01*
X94887142Y-91627619D01*
X94830000Y-91675238D01*
X94772857Y-91699047D01*
X95658571Y-91556190D02*
X95372857Y-91556190D01*
X95344285Y-91794285D01*
X95372857Y-91770476D01*
X95430000Y-91746666D01*
X95572857Y-91746666D01*
X95630000Y-91770476D01*
X95658571Y-91794285D01*
X95687142Y-91841904D01*
X95687142Y-91960952D01*
X95658571Y-92008571D01*
X95630000Y-92032380D01*
X95572857Y-92056190D01*
X95430000Y-92056190D01*
X95372857Y-92032380D01*
X95344285Y-92008571D01*
G04 #@! TO.C,R6*
X76830000Y-81856190D02*
X76630000Y-81618095D01*
X76487142Y-81856190D02*
X76487142Y-81356190D01*
X76715714Y-81356190D01*
X76772857Y-81380000D01*
X76801428Y-81403809D01*
X76830000Y-81451428D01*
X76830000Y-81522857D01*
X76801428Y-81570476D01*
X76772857Y-81594285D01*
X76715714Y-81618095D01*
X76487142Y-81618095D01*
X77344285Y-81356190D02*
X77230000Y-81356190D01*
X77172857Y-81380000D01*
X77144285Y-81403809D01*
X77087142Y-81475238D01*
X77058571Y-81570476D01*
X77058571Y-81760952D01*
X77087142Y-81808571D01*
X77115714Y-81832380D01*
X77172857Y-81856190D01*
X77287142Y-81856190D01*
X77344285Y-81832380D01*
X77372857Y-81808571D01*
X77401428Y-81760952D01*
X77401428Y-81641904D01*
X77372857Y-81594285D01*
X77344285Y-81570476D01*
X77287142Y-81546666D01*
X77172857Y-81546666D01*
X77115714Y-81570476D01*
X77087142Y-81594285D01*
X77058571Y-81641904D01*
G04 #@! TD*
M02*
