G04 #@! TF.GenerationSoftware,KiCad,Pcbnew,(5.0.0-rc2-178-g3c7b91b96)*
G04 #@! TF.CreationDate,2018-07-31T16:18:19+02:00*
G04 #@! TF.ProjectId,pcb2,706362322E6B696361645F7063620000,1*
G04 #@! TF.SameCoordinates,Original*
G04 #@! TF.FileFunction,Copper,L1,Top,Signal*
G04 #@! TF.FilePolarity,Positive*
%FSLAX46Y46*%
G04 Gerber Fmt 4.6, Leading zero omitted, Abs format (unit mm)*
G04 Created by KiCad (PCBNEW (5.0.0-rc2-178-g3c7b91b96)) date 07/31/18 16:18:19*
%MOMM*%
%LPD*%
G01*
G04 APERTURE LIST*
G04 #@! TA.AperFunction,ComponentPad*
%ADD10R,1.700000X1.700000*%
G04 #@! TD*
G04 #@! TA.AperFunction,ComponentPad*
%ADD11O,1.700000X1.700000*%
G04 #@! TD*
G04 #@! TA.AperFunction,Conductor*
%ADD12C,0.100000*%
G04 #@! TD*
G04 #@! TA.AperFunction,SMDPad,CuDef*
%ADD13C,0.950000*%
G04 #@! TD*
G04 #@! TA.AperFunction,ComponentPad*
%ADD14R,1.800000X1.800000*%
G04 #@! TD*
G04 #@! TA.AperFunction,ComponentPad*
%ADD15C,1.800000*%
G04 #@! TD*
G04 #@! TA.AperFunction,SMDPad,CuDef*
%ADD16R,1.550000X0.600000*%
G04 #@! TD*
G04 #@! TA.AperFunction,SMDPad,CuDef*
%ADD17R,0.600000X1.550000*%
G04 #@! TD*
G04 #@! TA.AperFunction,SMDPad,CuDef*
%ADD18R,2.000000X3.800000*%
G04 #@! TD*
G04 #@! TA.AperFunction,SMDPad,CuDef*
%ADD19R,2.000000X1.500000*%
G04 #@! TD*
G04 #@! TA.AperFunction,SMDPad,CuDef*
%ADD20R,1.060000X0.650000*%
G04 #@! TD*
G04 #@! TA.AperFunction,ViaPad*
%ADD21C,0.800000*%
G04 #@! TD*
G04 #@! TA.AperFunction,Conductor*
%ADD22C,0.250000*%
G04 #@! TD*
G04 #@! TA.AperFunction,Conductor*
%ADD23C,0.400000*%
G04 #@! TD*
G04 APERTURE END LIST*
D10*
G04 #@! TO.P,J3,1*
G04 #@! TO.N,/EINK_BUSY*
X73630000Y-97680000D03*
D11*
G04 #@! TO.P,J3,2*
G04 #@! TO.N,/EINK_RST*
X76170000Y-97680000D03*
G04 #@! TO.P,J3,3*
G04 #@! TO.N,/EINK_DC*
X78710000Y-97680000D03*
G04 #@! TO.P,J3,4*
G04 #@! TO.N,/EINK_CS*
X81250000Y-97680000D03*
G04 #@! TO.P,J3,5*
G04 #@! TO.N,/ADC_CLK*
X83790000Y-97680000D03*
G04 #@! TO.P,J3,6*
G04 #@! TO.N,/EINK_DOUT*
X86330000Y-97680000D03*
G04 #@! TO.P,J3,7*
G04 #@! TO.N,GNDD*
X88870000Y-97680000D03*
G04 #@! TO.P,J3,8*
G04 #@! TO.N,+3V3*
X91410000Y-97680000D03*
G04 #@! TD*
D10*
G04 #@! TO.P,J5,1*
G04 #@! TO.N,/VCPRX*
X87130000Y-94680000D03*
D11*
G04 #@! TO.P,J5,2*
G04 #@! TO.N,/VCPTX*
X84590000Y-94680000D03*
G04 #@! TD*
D10*
G04 #@! TO.P,J4,1*
G04 #@! TO.N,+3V3*
X73660000Y-100470000D03*
D11*
G04 #@! TO.P,J4,2*
G04 #@! TO.N,/SWCLK*
X76200000Y-100470000D03*
G04 #@! TO.P,J4,3*
G04 #@! TO.N,GNDD*
X78740000Y-100470000D03*
G04 #@! TO.P,J4,4*
G04 #@! TO.N,/SWDIO*
X81280000Y-100470000D03*
G04 #@! TO.P,J4,5*
G04 #@! TO.N,/NRST*
X83820000Y-100470000D03*
G04 #@! TO.P,J4,6*
G04 #@! TO.N,GNDD*
X86360000Y-100470000D03*
G04 #@! TD*
D10*
G04 #@! TO.P,J6,1*
G04 #@! TO.N,/PB7*
X110230000Y-91680000D03*
D11*
G04 #@! TO.P,J6,2*
G04 #@! TO.N,/PB6*
X110230000Y-89140000D03*
G04 #@! TO.P,J6,3*
G04 #@! TO.N,/PB1*
X110230000Y-86600000D03*
G04 #@! TO.P,J6,4*
G04 #@! TO.N,/PB0*
X110230000Y-84060000D03*
G04 #@! TD*
D12*
G04 #@! TO.N,GNDA*
G04 #@! TO.C,C12*
G36*
X90465779Y-82506144D02*
X90488834Y-82509563D01*
X90511443Y-82515227D01*
X90533387Y-82523079D01*
X90554457Y-82533044D01*
X90574448Y-82545026D01*
X90593168Y-82558910D01*
X90610438Y-82574562D01*
X90626090Y-82591832D01*
X90639974Y-82610552D01*
X90651956Y-82630543D01*
X90661921Y-82651613D01*
X90669773Y-82673557D01*
X90675437Y-82696166D01*
X90678856Y-82719221D01*
X90680000Y-82742500D01*
X90680000Y-83217500D01*
X90678856Y-83240779D01*
X90675437Y-83263834D01*
X90669773Y-83286443D01*
X90661921Y-83308387D01*
X90651956Y-83329457D01*
X90639974Y-83349448D01*
X90626090Y-83368168D01*
X90610438Y-83385438D01*
X90593168Y-83401090D01*
X90574448Y-83414974D01*
X90554457Y-83426956D01*
X90533387Y-83436921D01*
X90511443Y-83444773D01*
X90488834Y-83450437D01*
X90465779Y-83453856D01*
X90442500Y-83455000D01*
X89867500Y-83455000D01*
X89844221Y-83453856D01*
X89821166Y-83450437D01*
X89798557Y-83444773D01*
X89776613Y-83436921D01*
X89755543Y-83426956D01*
X89735552Y-83414974D01*
X89716832Y-83401090D01*
X89699562Y-83385438D01*
X89683910Y-83368168D01*
X89670026Y-83349448D01*
X89658044Y-83329457D01*
X89648079Y-83308387D01*
X89640227Y-83286443D01*
X89634563Y-83263834D01*
X89631144Y-83240779D01*
X89630000Y-83217500D01*
X89630000Y-82742500D01*
X89631144Y-82719221D01*
X89634563Y-82696166D01*
X89640227Y-82673557D01*
X89648079Y-82651613D01*
X89658044Y-82630543D01*
X89670026Y-82610552D01*
X89683910Y-82591832D01*
X89699562Y-82574562D01*
X89716832Y-82558910D01*
X89735552Y-82545026D01*
X89755543Y-82533044D01*
X89776613Y-82523079D01*
X89798557Y-82515227D01*
X89821166Y-82509563D01*
X89844221Y-82506144D01*
X89867500Y-82505000D01*
X90442500Y-82505000D01*
X90465779Y-82506144D01*
X90465779Y-82506144D01*
G37*
D13*
G04 #@! TD*
G04 #@! TO.P,C12,2*
G04 #@! TO.N,GNDA*
X90155000Y-82980000D03*
D12*
G04 #@! TO.N,+4V*
G04 #@! TO.C,C12*
G36*
X92215779Y-82506144D02*
X92238834Y-82509563D01*
X92261443Y-82515227D01*
X92283387Y-82523079D01*
X92304457Y-82533044D01*
X92324448Y-82545026D01*
X92343168Y-82558910D01*
X92360438Y-82574562D01*
X92376090Y-82591832D01*
X92389974Y-82610552D01*
X92401956Y-82630543D01*
X92411921Y-82651613D01*
X92419773Y-82673557D01*
X92425437Y-82696166D01*
X92428856Y-82719221D01*
X92430000Y-82742500D01*
X92430000Y-83217500D01*
X92428856Y-83240779D01*
X92425437Y-83263834D01*
X92419773Y-83286443D01*
X92411921Y-83308387D01*
X92401956Y-83329457D01*
X92389974Y-83349448D01*
X92376090Y-83368168D01*
X92360438Y-83385438D01*
X92343168Y-83401090D01*
X92324448Y-83414974D01*
X92304457Y-83426956D01*
X92283387Y-83436921D01*
X92261443Y-83444773D01*
X92238834Y-83450437D01*
X92215779Y-83453856D01*
X92192500Y-83455000D01*
X91617500Y-83455000D01*
X91594221Y-83453856D01*
X91571166Y-83450437D01*
X91548557Y-83444773D01*
X91526613Y-83436921D01*
X91505543Y-83426956D01*
X91485552Y-83414974D01*
X91466832Y-83401090D01*
X91449562Y-83385438D01*
X91433910Y-83368168D01*
X91420026Y-83349448D01*
X91408044Y-83329457D01*
X91398079Y-83308387D01*
X91390227Y-83286443D01*
X91384563Y-83263834D01*
X91381144Y-83240779D01*
X91380000Y-83217500D01*
X91380000Y-82742500D01*
X91381144Y-82719221D01*
X91384563Y-82696166D01*
X91390227Y-82673557D01*
X91398079Y-82651613D01*
X91408044Y-82630543D01*
X91420026Y-82610552D01*
X91433910Y-82591832D01*
X91449562Y-82574562D01*
X91466832Y-82558910D01*
X91485552Y-82545026D01*
X91505543Y-82533044D01*
X91526613Y-82523079D01*
X91548557Y-82515227D01*
X91571166Y-82509563D01*
X91594221Y-82506144D01*
X91617500Y-82505000D01*
X92192500Y-82505000D01*
X92215779Y-82506144D01*
X92215779Y-82506144D01*
G37*
D13*
G04 #@! TD*
G04 #@! TO.P,C12,1*
G04 #@! TO.N,+4V*
X91905000Y-82980000D03*
D12*
G04 #@! TO.N,Net-(C24-Pad1)*
G04 #@! TO.C,C24*
G36*
X99715779Y-90156144D02*
X99738834Y-90159563D01*
X99761443Y-90165227D01*
X99783387Y-90173079D01*
X99804457Y-90183044D01*
X99824448Y-90195026D01*
X99843168Y-90208910D01*
X99860438Y-90224562D01*
X99876090Y-90241832D01*
X99889974Y-90260552D01*
X99901956Y-90280543D01*
X99911921Y-90301613D01*
X99919773Y-90323557D01*
X99925437Y-90346166D01*
X99928856Y-90369221D01*
X99930000Y-90392500D01*
X99930000Y-90867500D01*
X99928856Y-90890779D01*
X99925437Y-90913834D01*
X99919773Y-90936443D01*
X99911921Y-90958387D01*
X99901956Y-90979457D01*
X99889974Y-90999448D01*
X99876090Y-91018168D01*
X99860438Y-91035438D01*
X99843168Y-91051090D01*
X99824448Y-91064974D01*
X99804457Y-91076956D01*
X99783387Y-91086921D01*
X99761443Y-91094773D01*
X99738834Y-91100437D01*
X99715779Y-91103856D01*
X99692500Y-91105000D01*
X99117500Y-91105000D01*
X99094221Y-91103856D01*
X99071166Y-91100437D01*
X99048557Y-91094773D01*
X99026613Y-91086921D01*
X99005543Y-91076956D01*
X98985552Y-91064974D01*
X98966832Y-91051090D01*
X98949562Y-91035438D01*
X98933910Y-91018168D01*
X98920026Y-90999448D01*
X98908044Y-90979457D01*
X98898079Y-90958387D01*
X98890227Y-90936443D01*
X98884563Y-90913834D01*
X98881144Y-90890779D01*
X98880000Y-90867500D01*
X98880000Y-90392500D01*
X98881144Y-90369221D01*
X98884563Y-90346166D01*
X98890227Y-90323557D01*
X98898079Y-90301613D01*
X98908044Y-90280543D01*
X98920026Y-90260552D01*
X98933910Y-90241832D01*
X98949562Y-90224562D01*
X98966832Y-90208910D01*
X98985552Y-90195026D01*
X99005543Y-90183044D01*
X99026613Y-90173079D01*
X99048557Y-90165227D01*
X99071166Y-90159563D01*
X99094221Y-90156144D01*
X99117500Y-90155000D01*
X99692500Y-90155000D01*
X99715779Y-90156144D01*
X99715779Y-90156144D01*
G37*
D13*
G04 #@! TD*
G04 #@! TO.P,C24,1*
G04 #@! TO.N,Net-(C24-Pad1)*
X99405000Y-90630000D03*
D12*
G04 #@! TO.N,Net-(C23-Pad1)*
G04 #@! TO.C,C24*
G36*
X97965779Y-90156144D02*
X97988834Y-90159563D01*
X98011443Y-90165227D01*
X98033387Y-90173079D01*
X98054457Y-90183044D01*
X98074448Y-90195026D01*
X98093168Y-90208910D01*
X98110438Y-90224562D01*
X98126090Y-90241832D01*
X98139974Y-90260552D01*
X98151956Y-90280543D01*
X98161921Y-90301613D01*
X98169773Y-90323557D01*
X98175437Y-90346166D01*
X98178856Y-90369221D01*
X98180000Y-90392500D01*
X98180000Y-90867500D01*
X98178856Y-90890779D01*
X98175437Y-90913834D01*
X98169773Y-90936443D01*
X98161921Y-90958387D01*
X98151956Y-90979457D01*
X98139974Y-90999448D01*
X98126090Y-91018168D01*
X98110438Y-91035438D01*
X98093168Y-91051090D01*
X98074448Y-91064974D01*
X98054457Y-91076956D01*
X98033387Y-91086921D01*
X98011443Y-91094773D01*
X97988834Y-91100437D01*
X97965779Y-91103856D01*
X97942500Y-91105000D01*
X97367500Y-91105000D01*
X97344221Y-91103856D01*
X97321166Y-91100437D01*
X97298557Y-91094773D01*
X97276613Y-91086921D01*
X97255543Y-91076956D01*
X97235552Y-91064974D01*
X97216832Y-91051090D01*
X97199562Y-91035438D01*
X97183910Y-91018168D01*
X97170026Y-90999448D01*
X97158044Y-90979457D01*
X97148079Y-90958387D01*
X97140227Y-90936443D01*
X97134563Y-90913834D01*
X97131144Y-90890779D01*
X97130000Y-90867500D01*
X97130000Y-90392500D01*
X97131144Y-90369221D01*
X97134563Y-90346166D01*
X97140227Y-90323557D01*
X97148079Y-90301613D01*
X97158044Y-90280543D01*
X97170026Y-90260552D01*
X97183910Y-90241832D01*
X97199562Y-90224562D01*
X97216832Y-90208910D01*
X97235552Y-90195026D01*
X97255543Y-90183044D01*
X97276613Y-90173079D01*
X97298557Y-90165227D01*
X97321166Y-90159563D01*
X97344221Y-90156144D01*
X97367500Y-90155000D01*
X97942500Y-90155000D01*
X97965779Y-90156144D01*
X97965779Y-90156144D01*
G37*
D13*
G04 #@! TD*
G04 #@! TO.P,C24,2*
G04 #@! TO.N,Net-(C23-Pad1)*
X97655000Y-90630000D03*
D12*
G04 #@! TO.N,+2V5*
G04 #@! TO.C,C23*
G36*
X90465779Y-84306144D02*
X90488834Y-84309563D01*
X90511443Y-84315227D01*
X90533387Y-84323079D01*
X90554457Y-84333044D01*
X90574448Y-84345026D01*
X90593168Y-84358910D01*
X90610438Y-84374562D01*
X90626090Y-84391832D01*
X90639974Y-84410552D01*
X90651956Y-84430543D01*
X90661921Y-84451613D01*
X90669773Y-84473557D01*
X90675437Y-84496166D01*
X90678856Y-84519221D01*
X90680000Y-84542500D01*
X90680000Y-85017500D01*
X90678856Y-85040779D01*
X90675437Y-85063834D01*
X90669773Y-85086443D01*
X90661921Y-85108387D01*
X90651956Y-85129457D01*
X90639974Y-85149448D01*
X90626090Y-85168168D01*
X90610438Y-85185438D01*
X90593168Y-85201090D01*
X90574448Y-85214974D01*
X90554457Y-85226956D01*
X90533387Y-85236921D01*
X90511443Y-85244773D01*
X90488834Y-85250437D01*
X90465779Y-85253856D01*
X90442500Y-85255000D01*
X89867500Y-85255000D01*
X89844221Y-85253856D01*
X89821166Y-85250437D01*
X89798557Y-85244773D01*
X89776613Y-85236921D01*
X89755543Y-85226956D01*
X89735552Y-85214974D01*
X89716832Y-85201090D01*
X89699562Y-85185438D01*
X89683910Y-85168168D01*
X89670026Y-85149448D01*
X89658044Y-85129457D01*
X89648079Y-85108387D01*
X89640227Y-85086443D01*
X89634563Y-85063834D01*
X89631144Y-85040779D01*
X89630000Y-85017500D01*
X89630000Y-84542500D01*
X89631144Y-84519221D01*
X89634563Y-84496166D01*
X89640227Y-84473557D01*
X89648079Y-84451613D01*
X89658044Y-84430543D01*
X89670026Y-84410552D01*
X89683910Y-84391832D01*
X89699562Y-84374562D01*
X89716832Y-84358910D01*
X89735552Y-84345026D01*
X89755543Y-84333044D01*
X89776613Y-84323079D01*
X89798557Y-84315227D01*
X89821166Y-84309563D01*
X89844221Y-84306144D01*
X89867500Y-84305000D01*
X90442500Y-84305000D01*
X90465779Y-84306144D01*
X90465779Y-84306144D01*
G37*
D13*
G04 #@! TD*
G04 #@! TO.P,C23,2*
G04 #@! TO.N,+2V5*
X90155000Y-84780000D03*
D12*
G04 #@! TO.N,Net-(C23-Pad1)*
G04 #@! TO.C,C23*
G36*
X92215779Y-84306144D02*
X92238834Y-84309563D01*
X92261443Y-84315227D01*
X92283387Y-84323079D01*
X92304457Y-84333044D01*
X92324448Y-84345026D01*
X92343168Y-84358910D01*
X92360438Y-84374562D01*
X92376090Y-84391832D01*
X92389974Y-84410552D01*
X92401956Y-84430543D01*
X92411921Y-84451613D01*
X92419773Y-84473557D01*
X92425437Y-84496166D01*
X92428856Y-84519221D01*
X92430000Y-84542500D01*
X92430000Y-85017500D01*
X92428856Y-85040779D01*
X92425437Y-85063834D01*
X92419773Y-85086443D01*
X92411921Y-85108387D01*
X92401956Y-85129457D01*
X92389974Y-85149448D01*
X92376090Y-85168168D01*
X92360438Y-85185438D01*
X92343168Y-85201090D01*
X92324448Y-85214974D01*
X92304457Y-85226956D01*
X92283387Y-85236921D01*
X92261443Y-85244773D01*
X92238834Y-85250437D01*
X92215779Y-85253856D01*
X92192500Y-85255000D01*
X91617500Y-85255000D01*
X91594221Y-85253856D01*
X91571166Y-85250437D01*
X91548557Y-85244773D01*
X91526613Y-85236921D01*
X91505543Y-85226956D01*
X91485552Y-85214974D01*
X91466832Y-85201090D01*
X91449562Y-85185438D01*
X91433910Y-85168168D01*
X91420026Y-85149448D01*
X91408044Y-85129457D01*
X91398079Y-85108387D01*
X91390227Y-85086443D01*
X91384563Y-85063834D01*
X91381144Y-85040779D01*
X91380000Y-85017500D01*
X91380000Y-84542500D01*
X91381144Y-84519221D01*
X91384563Y-84496166D01*
X91390227Y-84473557D01*
X91398079Y-84451613D01*
X91408044Y-84430543D01*
X91420026Y-84410552D01*
X91433910Y-84391832D01*
X91449562Y-84374562D01*
X91466832Y-84358910D01*
X91485552Y-84345026D01*
X91505543Y-84333044D01*
X91526613Y-84323079D01*
X91548557Y-84315227D01*
X91571166Y-84309563D01*
X91594221Y-84306144D01*
X91617500Y-84305000D01*
X92192500Y-84305000D01*
X92215779Y-84306144D01*
X92215779Y-84306144D01*
G37*
D13*
G04 #@! TD*
G04 #@! TO.P,C23,1*
G04 #@! TO.N,Net-(C23-Pad1)*
X91905000Y-84780000D03*
D12*
G04 #@! TO.N,Net-(C21-Pad1)*
G04 #@! TO.C,C22*
G36*
X86515779Y-91356144D02*
X86538834Y-91359563D01*
X86561443Y-91365227D01*
X86583387Y-91373079D01*
X86604457Y-91383044D01*
X86624448Y-91395026D01*
X86643168Y-91408910D01*
X86660438Y-91424562D01*
X86676090Y-91441832D01*
X86689974Y-91460552D01*
X86701956Y-91480543D01*
X86711921Y-91501613D01*
X86719773Y-91523557D01*
X86725437Y-91546166D01*
X86728856Y-91569221D01*
X86730000Y-91592500D01*
X86730000Y-92067500D01*
X86728856Y-92090779D01*
X86725437Y-92113834D01*
X86719773Y-92136443D01*
X86711921Y-92158387D01*
X86701956Y-92179457D01*
X86689974Y-92199448D01*
X86676090Y-92218168D01*
X86660438Y-92235438D01*
X86643168Y-92251090D01*
X86624448Y-92264974D01*
X86604457Y-92276956D01*
X86583387Y-92286921D01*
X86561443Y-92294773D01*
X86538834Y-92300437D01*
X86515779Y-92303856D01*
X86492500Y-92305000D01*
X85917500Y-92305000D01*
X85894221Y-92303856D01*
X85871166Y-92300437D01*
X85848557Y-92294773D01*
X85826613Y-92286921D01*
X85805543Y-92276956D01*
X85785552Y-92264974D01*
X85766832Y-92251090D01*
X85749562Y-92235438D01*
X85733910Y-92218168D01*
X85720026Y-92199448D01*
X85708044Y-92179457D01*
X85698079Y-92158387D01*
X85690227Y-92136443D01*
X85684563Y-92113834D01*
X85681144Y-92090779D01*
X85680000Y-92067500D01*
X85680000Y-91592500D01*
X85681144Y-91569221D01*
X85684563Y-91546166D01*
X85690227Y-91523557D01*
X85698079Y-91501613D01*
X85708044Y-91480543D01*
X85720026Y-91460552D01*
X85733910Y-91441832D01*
X85749562Y-91424562D01*
X85766832Y-91408910D01*
X85785552Y-91395026D01*
X85805543Y-91383044D01*
X85826613Y-91373079D01*
X85848557Y-91365227D01*
X85871166Y-91359563D01*
X85894221Y-91356144D01*
X85917500Y-91355000D01*
X86492500Y-91355000D01*
X86515779Y-91356144D01*
X86515779Y-91356144D01*
G37*
D13*
G04 #@! TD*
G04 #@! TO.P,C22,1*
G04 #@! TO.N,Net-(C21-Pad1)*
X86205000Y-91830000D03*
D12*
G04 #@! TO.N,Net-(C20-Pad1)*
G04 #@! TO.C,C22*
G36*
X84765779Y-91356144D02*
X84788834Y-91359563D01*
X84811443Y-91365227D01*
X84833387Y-91373079D01*
X84854457Y-91383044D01*
X84874448Y-91395026D01*
X84893168Y-91408910D01*
X84910438Y-91424562D01*
X84926090Y-91441832D01*
X84939974Y-91460552D01*
X84951956Y-91480543D01*
X84961921Y-91501613D01*
X84969773Y-91523557D01*
X84975437Y-91546166D01*
X84978856Y-91569221D01*
X84980000Y-91592500D01*
X84980000Y-92067500D01*
X84978856Y-92090779D01*
X84975437Y-92113834D01*
X84969773Y-92136443D01*
X84961921Y-92158387D01*
X84951956Y-92179457D01*
X84939974Y-92199448D01*
X84926090Y-92218168D01*
X84910438Y-92235438D01*
X84893168Y-92251090D01*
X84874448Y-92264974D01*
X84854457Y-92276956D01*
X84833387Y-92286921D01*
X84811443Y-92294773D01*
X84788834Y-92300437D01*
X84765779Y-92303856D01*
X84742500Y-92305000D01*
X84167500Y-92305000D01*
X84144221Y-92303856D01*
X84121166Y-92300437D01*
X84098557Y-92294773D01*
X84076613Y-92286921D01*
X84055543Y-92276956D01*
X84035552Y-92264974D01*
X84016832Y-92251090D01*
X83999562Y-92235438D01*
X83983910Y-92218168D01*
X83970026Y-92199448D01*
X83958044Y-92179457D01*
X83948079Y-92158387D01*
X83940227Y-92136443D01*
X83934563Y-92113834D01*
X83931144Y-92090779D01*
X83930000Y-92067500D01*
X83930000Y-91592500D01*
X83931144Y-91569221D01*
X83934563Y-91546166D01*
X83940227Y-91523557D01*
X83948079Y-91501613D01*
X83958044Y-91480543D01*
X83970026Y-91460552D01*
X83983910Y-91441832D01*
X83999562Y-91424562D01*
X84016832Y-91408910D01*
X84035552Y-91395026D01*
X84055543Y-91383044D01*
X84076613Y-91373079D01*
X84098557Y-91365227D01*
X84121166Y-91359563D01*
X84144221Y-91356144D01*
X84167500Y-91355000D01*
X84742500Y-91355000D01*
X84765779Y-91356144D01*
X84765779Y-91356144D01*
G37*
D13*
G04 #@! TD*
G04 #@! TO.P,C22,2*
G04 #@! TO.N,Net-(C20-Pad1)*
X84455000Y-91830000D03*
D12*
G04 #@! TO.N,Net-(C20-Pad2)*
G04 #@! TO.C,C21*
G36*
X86515779Y-84306144D02*
X86538834Y-84309563D01*
X86561443Y-84315227D01*
X86583387Y-84323079D01*
X86604457Y-84333044D01*
X86624448Y-84345026D01*
X86643168Y-84358910D01*
X86660438Y-84374562D01*
X86676090Y-84391832D01*
X86689974Y-84410552D01*
X86701956Y-84430543D01*
X86711921Y-84451613D01*
X86719773Y-84473557D01*
X86725437Y-84496166D01*
X86728856Y-84519221D01*
X86730000Y-84542500D01*
X86730000Y-85017500D01*
X86728856Y-85040779D01*
X86725437Y-85063834D01*
X86719773Y-85086443D01*
X86711921Y-85108387D01*
X86701956Y-85129457D01*
X86689974Y-85149448D01*
X86676090Y-85168168D01*
X86660438Y-85185438D01*
X86643168Y-85201090D01*
X86624448Y-85214974D01*
X86604457Y-85226956D01*
X86583387Y-85236921D01*
X86561443Y-85244773D01*
X86538834Y-85250437D01*
X86515779Y-85253856D01*
X86492500Y-85255000D01*
X85917500Y-85255000D01*
X85894221Y-85253856D01*
X85871166Y-85250437D01*
X85848557Y-85244773D01*
X85826613Y-85236921D01*
X85805543Y-85226956D01*
X85785552Y-85214974D01*
X85766832Y-85201090D01*
X85749562Y-85185438D01*
X85733910Y-85168168D01*
X85720026Y-85149448D01*
X85708044Y-85129457D01*
X85698079Y-85108387D01*
X85690227Y-85086443D01*
X85684563Y-85063834D01*
X85681144Y-85040779D01*
X85680000Y-85017500D01*
X85680000Y-84542500D01*
X85681144Y-84519221D01*
X85684563Y-84496166D01*
X85690227Y-84473557D01*
X85698079Y-84451613D01*
X85708044Y-84430543D01*
X85720026Y-84410552D01*
X85733910Y-84391832D01*
X85749562Y-84374562D01*
X85766832Y-84358910D01*
X85785552Y-84345026D01*
X85805543Y-84333044D01*
X85826613Y-84323079D01*
X85848557Y-84315227D01*
X85871166Y-84309563D01*
X85894221Y-84306144D01*
X85917500Y-84305000D01*
X86492500Y-84305000D01*
X86515779Y-84306144D01*
X86515779Y-84306144D01*
G37*
D13*
G04 #@! TD*
G04 #@! TO.P,C21,2*
G04 #@! TO.N,Net-(C20-Pad2)*
X86205000Y-84780000D03*
D12*
G04 #@! TO.N,Net-(C21-Pad1)*
G04 #@! TO.C,C21*
G36*
X84765779Y-84306144D02*
X84788834Y-84309563D01*
X84811443Y-84315227D01*
X84833387Y-84323079D01*
X84854457Y-84333044D01*
X84874448Y-84345026D01*
X84893168Y-84358910D01*
X84910438Y-84374562D01*
X84926090Y-84391832D01*
X84939974Y-84410552D01*
X84951956Y-84430543D01*
X84961921Y-84451613D01*
X84969773Y-84473557D01*
X84975437Y-84496166D01*
X84978856Y-84519221D01*
X84980000Y-84542500D01*
X84980000Y-85017500D01*
X84978856Y-85040779D01*
X84975437Y-85063834D01*
X84969773Y-85086443D01*
X84961921Y-85108387D01*
X84951956Y-85129457D01*
X84939974Y-85149448D01*
X84926090Y-85168168D01*
X84910438Y-85185438D01*
X84893168Y-85201090D01*
X84874448Y-85214974D01*
X84854457Y-85226956D01*
X84833387Y-85236921D01*
X84811443Y-85244773D01*
X84788834Y-85250437D01*
X84765779Y-85253856D01*
X84742500Y-85255000D01*
X84167500Y-85255000D01*
X84144221Y-85253856D01*
X84121166Y-85250437D01*
X84098557Y-85244773D01*
X84076613Y-85236921D01*
X84055543Y-85226956D01*
X84035552Y-85214974D01*
X84016832Y-85201090D01*
X83999562Y-85185438D01*
X83983910Y-85168168D01*
X83970026Y-85149448D01*
X83958044Y-85129457D01*
X83948079Y-85108387D01*
X83940227Y-85086443D01*
X83934563Y-85063834D01*
X83931144Y-85040779D01*
X83930000Y-85017500D01*
X83930000Y-84542500D01*
X83931144Y-84519221D01*
X83934563Y-84496166D01*
X83940227Y-84473557D01*
X83948079Y-84451613D01*
X83958044Y-84430543D01*
X83970026Y-84410552D01*
X83983910Y-84391832D01*
X83999562Y-84374562D01*
X84016832Y-84358910D01*
X84035552Y-84345026D01*
X84055543Y-84333044D01*
X84076613Y-84323079D01*
X84098557Y-84315227D01*
X84121166Y-84309563D01*
X84144221Y-84306144D01*
X84167500Y-84305000D01*
X84742500Y-84305000D01*
X84765779Y-84306144D01*
X84765779Y-84306144D01*
G37*
D13*
G04 #@! TD*
G04 #@! TO.P,C21,1*
G04 #@! TO.N,Net-(C21-Pad1)*
X84455000Y-84780000D03*
D12*
G04 #@! TO.N,Net-(C20-Pad1)*
G04 #@! TO.C,C20*
G36*
X81715779Y-82506144D02*
X81738834Y-82509563D01*
X81761443Y-82515227D01*
X81783387Y-82523079D01*
X81804457Y-82533044D01*
X81824448Y-82545026D01*
X81843168Y-82558910D01*
X81860438Y-82574562D01*
X81876090Y-82591832D01*
X81889974Y-82610552D01*
X81901956Y-82630543D01*
X81911921Y-82651613D01*
X81919773Y-82673557D01*
X81925437Y-82696166D01*
X81928856Y-82719221D01*
X81930000Y-82742500D01*
X81930000Y-83217500D01*
X81928856Y-83240779D01*
X81925437Y-83263834D01*
X81919773Y-83286443D01*
X81911921Y-83308387D01*
X81901956Y-83329457D01*
X81889974Y-83349448D01*
X81876090Y-83368168D01*
X81860438Y-83385438D01*
X81843168Y-83401090D01*
X81824448Y-83414974D01*
X81804457Y-83426956D01*
X81783387Y-83436921D01*
X81761443Y-83444773D01*
X81738834Y-83450437D01*
X81715779Y-83453856D01*
X81692500Y-83455000D01*
X81117500Y-83455000D01*
X81094221Y-83453856D01*
X81071166Y-83450437D01*
X81048557Y-83444773D01*
X81026613Y-83436921D01*
X81005543Y-83426956D01*
X80985552Y-83414974D01*
X80966832Y-83401090D01*
X80949562Y-83385438D01*
X80933910Y-83368168D01*
X80920026Y-83349448D01*
X80908044Y-83329457D01*
X80898079Y-83308387D01*
X80890227Y-83286443D01*
X80884563Y-83263834D01*
X80881144Y-83240779D01*
X80880000Y-83217500D01*
X80880000Y-82742500D01*
X80881144Y-82719221D01*
X80884563Y-82696166D01*
X80890227Y-82673557D01*
X80898079Y-82651613D01*
X80908044Y-82630543D01*
X80920026Y-82610552D01*
X80933910Y-82591832D01*
X80949562Y-82574562D01*
X80966832Y-82558910D01*
X80985552Y-82545026D01*
X81005543Y-82533044D01*
X81026613Y-82523079D01*
X81048557Y-82515227D01*
X81071166Y-82509563D01*
X81094221Y-82506144D01*
X81117500Y-82505000D01*
X81692500Y-82505000D01*
X81715779Y-82506144D01*
X81715779Y-82506144D01*
G37*
D13*
G04 #@! TD*
G04 #@! TO.P,C20,1*
G04 #@! TO.N,Net-(C20-Pad1)*
X81405000Y-82980000D03*
D12*
G04 #@! TO.N,Net-(C20-Pad2)*
G04 #@! TO.C,C20*
G36*
X79965779Y-82506144D02*
X79988834Y-82509563D01*
X80011443Y-82515227D01*
X80033387Y-82523079D01*
X80054457Y-82533044D01*
X80074448Y-82545026D01*
X80093168Y-82558910D01*
X80110438Y-82574562D01*
X80126090Y-82591832D01*
X80139974Y-82610552D01*
X80151956Y-82630543D01*
X80161921Y-82651613D01*
X80169773Y-82673557D01*
X80175437Y-82696166D01*
X80178856Y-82719221D01*
X80180000Y-82742500D01*
X80180000Y-83217500D01*
X80178856Y-83240779D01*
X80175437Y-83263834D01*
X80169773Y-83286443D01*
X80161921Y-83308387D01*
X80151956Y-83329457D01*
X80139974Y-83349448D01*
X80126090Y-83368168D01*
X80110438Y-83385438D01*
X80093168Y-83401090D01*
X80074448Y-83414974D01*
X80054457Y-83426956D01*
X80033387Y-83436921D01*
X80011443Y-83444773D01*
X79988834Y-83450437D01*
X79965779Y-83453856D01*
X79942500Y-83455000D01*
X79367500Y-83455000D01*
X79344221Y-83453856D01*
X79321166Y-83450437D01*
X79298557Y-83444773D01*
X79276613Y-83436921D01*
X79255543Y-83426956D01*
X79235552Y-83414974D01*
X79216832Y-83401090D01*
X79199562Y-83385438D01*
X79183910Y-83368168D01*
X79170026Y-83349448D01*
X79158044Y-83329457D01*
X79148079Y-83308387D01*
X79140227Y-83286443D01*
X79134563Y-83263834D01*
X79131144Y-83240779D01*
X79130000Y-83217500D01*
X79130000Y-82742500D01*
X79131144Y-82719221D01*
X79134563Y-82696166D01*
X79140227Y-82673557D01*
X79148079Y-82651613D01*
X79158044Y-82630543D01*
X79170026Y-82610552D01*
X79183910Y-82591832D01*
X79199562Y-82574562D01*
X79216832Y-82558910D01*
X79235552Y-82545026D01*
X79255543Y-82533044D01*
X79276613Y-82523079D01*
X79298557Y-82515227D01*
X79321166Y-82509563D01*
X79344221Y-82506144D01*
X79367500Y-82505000D01*
X79942500Y-82505000D01*
X79965779Y-82506144D01*
X79965779Y-82506144D01*
G37*
D13*
G04 #@! TD*
G04 #@! TO.P,C20,2*
G04 #@! TO.N,Net-(C20-Pad2)*
X79655000Y-82980000D03*
D12*
G04 #@! TO.N,GNDA*
G04 #@! TO.C,C19*
G36*
X88590779Y-82481144D02*
X88613834Y-82484563D01*
X88636443Y-82490227D01*
X88658387Y-82498079D01*
X88679457Y-82508044D01*
X88699448Y-82520026D01*
X88718168Y-82533910D01*
X88735438Y-82549562D01*
X88751090Y-82566832D01*
X88764974Y-82585552D01*
X88776956Y-82605543D01*
X88786921Y-82626613D01*
X88794773Y-82648557D01*
X88800437Y-82671166D01*
X88803856Y-82694221D01*
X88805000Y-82717500D01*
X88805000Y-83292500D01*
X88803856Y-83315779D01*
X88800437Y-83338834D01*
X88794773Y-83361443D01*
X88786921Y-83383387D01*
X88776956Y-83404457D01*
X88764974Y-83424448D01*
X88751090Y-83443168D01*
X88735438Y-83460438D01*
X88718168Y-83476090D01*
X88699448Y-83489974D01*
X88679457Y-83501956D01*
X88658387Y-83511921D01*
X88636443Y-83519773D01*
X88613834Y-83525437D01*
X88590779Y-83528856D01*
X88567500Y-83530000D01*
X88092500Y-83530000D01*
X88069221Y-83528856D01*
X88046166Y-83525437D01*
X88023557Y-83519773D01*
X88001613Y-83511921D01*
X87980543Y-83501956D01*
X87960552Y-83489974D01*
X87941832Y-83476090D01*
X87924562Y-83460438D01*
X87908910Y-83443168D01*
X87895026Y-83424448D01*
X87883044Y-83404457D01*
X87873079Y-83383387D01*
X87865227Y-83361443D01*
X87859563Y-83338834D01*
X87856144Y-83315779D01*
X87855000Y-83292500D01*
X87855000Y-82717500D01*
X87856144Y-82694221D01*
X87859563Y-82671166D01*
X87865227Y-82648557D01*
X87873079Y-82626613D01*
X87883044Y-82605543D01*
X87895026Y-82585552D01*
X87908910Y-82566832D01*
X87924562Y-82549562D01*
X87941832Y-82533910D01*
X87960552Y-82520026D01*
X87980543Y-82508044D01*
X88001613Y-82498079D01*
X88023557Y-82490227D01*
X88046166Y-82484563D01*
X88069221Y-82481144D01*
X88092500Y-82480000D01*
X88567500Y-82480000D01*
X88590779Y-82481144D01*
X88590779Y-82481144D01*
G37*
D13*
G04 #@! TD*
G04 #@! TO.P,C19,2*
G04 #@! TO.N,GNDA*
X88330000Y-83005000D03*
D12*
G04 #@! TO.N,+2V5*
G04 #@! TO.C,C19*
G36*
X88590779Y-84231144D02*
X88613834Y-84234563D01*
X88636443Y-84240227D01*
X88658387Y-84248079D01*
X88679457Y-84258044D01*
X88699448Y-84270026D01*
X88718168Y-84283910D01*
X88735438Y-84299562D01*
X88751090Y-84316832D01*
X88764974Y-84335552D01*
X88776956Y-84355543D01*
X88786921Y-84376613D01*
X88794773Y-84398557D01*
X88800437Y-84421166D01*
X88803856Y-84444221D01*
X88805000Y-84467500D01*
X88805000Y-85042500D01*
X88803856Y-85065779D01*
X88800437Y-85088834D01*
X88794773Y-85111443D01*
X88786921Y-85133387D01*
X88776956Y-85154457D01*
X88764974Y-85174448D01*
X88751090Y-85193168D01*
X88735438Y-85210438D01*
X88718168Y-85226090D01*
X88699448Y-85239974D01*
X88679457Y-85251956D01*
X88658387Y-85261921D01*
X88636443Y-85269773D01*
X88613834Y-85275437D01*
X88590779Y-85278856D01*
X88567500Y-85280000D01*
X88092500Y-85280000D01*
X88069221Y-85278856D01*
X88046166Y-85275437D01*
X88023557Y-85269773D01*
X88001613Y-85261921D01*
X87980543Y-85251956D01*
X87960552Y-85239974D01*
X87941832Y-85226090D01*
X87924562Y-85210438D01*
X87908910Y-85193168D01*
X87895026Y-85174448D01*
X87883044Y-85154457D01*
X87873079Y-85133387D01*
X87865227Y-85111443D01*
X87859563Y-85088834D01*
X87856144Y-85065779D01*
X87855000Y-85042500D01*
X87855000Y-84467500D01*
X87856144Y-84444221D01*
X87859563Y-84421166D01*
X87865227Y-84398557D01*
X87873079Y-84376613D01*
X87883044Y-84355543D01*
X87895026Y-84335552D01*
X87908910Y-84316832D01*
X87924562Y-84299562D01*
X87941832Y-84283910D01*
X87960552Y-84270026D01*
X87980543Y-84258044D01*
X88001613Y-84248079D01*
X88023557Y-84240227D01*
X88046166Y-84234563D01*
X88069221Y-84231144D01*
X88092500Y-84230000D01*
X88567500Y-84230000D01*
X88590779Y-84231144D01*
X88590779Y-84231144D01*
G37*
D13*
G04 #@! TD*
G04 #@! TO.P,C19,1*
G04 #@! TO.N,+2V5*
X88330000Y-84755000D03*
D12*
G04 #@! TO.N,GNDA*
G04 #@! TO.C,C18*
G36*
X86515779Y-87906144D02*
X86538834Y-87909563D01*
X86561443Y-87915227D01*
X86583387Y-87923079D01*
X86604457Y-87933044D01*
X86624448Y-87945026D01*
X86643168Y-87958910D01*
X86660438Y-87974562D01*
X86676090Y-87991832D01*
X86689974Y-88010552D01*
X86701956Y-88030543D01*
X86711921Y-88051613D01*
X86719773Y-88073557D01*
X86725437Y-88096166D01*
X86728856Y-88119221D01*
X86730000Y-88142500D01*
X86730000Y-88617500D01*
X86728856Y-88640779D01*
X86725437Y-88663834D01*
X86719773Y-88686443D01*
X86711921Y-88708387D01*
X86701956Y-88729457D01*
X86689974Y-88749448D01*
X86676090Y-88768168D01*
X86660438Y-88785438D01*
X86643168Y-88801090D01*
X86624448Y-88814974D01*
X86604457Y-88826956D01*
X86583387Y-88836921D01*
X86561443Y-88844773D01*
X86538834Y-88850437D01*
X86515779Y-88853856D01*
X86492500Y-88855000D01*
X85917500Y-88855000D01*
X85894221Y-88853856D01*
X85871166Y-88850437D01*
X85848557Y-88844773D01*
X85826613Y-88836921D01*
X85805543Y-88826956D01*
X85785552Y-88814974D01*
X85766832Y-88801090D01*
X85749562Y-88785438D01*
X85733910Y-88768168D01*
X85720026Y-88749448D01*
X85708044Y-88729457D01*
X85698079Y-88708387D01*
X85690227Y-88686443D01*
X85684563Y-88663834D01*
X85681144Y-88640779D01*
X85680000Y-88617500D01*
X85680000Y-88142500D01*
X85681144Y-88119221D01*
X85684563Y-88096166D01*
X85690227Y-88073557D01*
X85698079Y-88051613D01*
X85708044Y-88030543D01*
X85720026Y-88010552D01*
X85733910Y-87991832D01*
X85749562Y-87974562D01*
X85766832Y-87958910D01*
X85785552Y-87945026D01*
X85805543Y-87933044D01*
X85826613Y-87923079D01*
X85848557Y-87915227D01*
X85871166Y-87909563D01*
X85894221Y-87906144D01*
X85917500Y-87905000D01*
X86492500Y-87905000D01*
X86515779Y-87906144D01*
X86515779Y-87906144D01*
G37*
D13*
G04 #@! TD*
G04 #@! TO.P,C18,1*
G04 #@! TO.N,GNDA*
X86205000Y-88380000D03*
D12*
G04 #@! TO.N,+2V5*
G04 #@! TO.C,C18*
G36*
X84765779Y-87906144D02*
X84788834Y-87909563D01*
X84811443Y-87915227D01*
X84833387Y-87923079D01*
X84854457Y-87933044D01*
X84874448Y-87945026D01*
X84893168Y-87958910D01*
X84910438Y-87974562D01*
X84926090Y-87991832D01*
X84939974Y-88010552D01*
X84951956Y-88030543D01*
X84961921Y-88051613D01*
X84969773Y-88073557D01*
X84975437Y-88096166D01*
X84978856Y-88119221D01*
X84980000Y-88142500D01*
X84980000Y-88617500D01*
X84978856Y-88640779D01*
X84975437Y-88663834D01*
X84969773Y-88686443D01*
X84961921Y-88708387D01*
X84951956Y-88729457D01*
X84939974Y-88749448D01*
X84926090Y-88768168D01*
X84910438Y-88785438D01*
X84893168Y-88801090D01*
X84874448Y-88814974D01*
X84854457Y-88826956D01*
X84833387Y-88836921D01*
X84811443Y-88844773D01*
X84788834Y-88850437D01*
X84765779Y-88853856D01*
X84742500Y-88855000D01*
X84167500Y-88855000D01*
X84144221Y-88853856D01*
X84121166Y-88850437D01*
X84098557Y-88844773D01*
X84076613Y-88836921D01*
X84055543Y-88826956D01*
X84035552Y-88814974D01*
X84016832Y-88801090D01*
X83999562Y-88785438D01*
X83983910Y-88768168D01*
X83970026Y-88749448D01*
X83958044Y-88729457D01*
X83948079Y-88708387D01*
X83940227Y-88686443D01*
X83934563Y-88663834D01*
X83931144Y-88640779D01*
X83930000Y-88617500D01*
X83930000Y-88142500D01*
X83931144Y-88119221D01*
X83934563Y-88096166D01*
X83940227Y-88073557D01*
X83948079Y-88051613D01*
X83958044Y-88030543D01*
X83970026Y-88010552D01*
X83983910Y-87991832D01*
X83999562Y-87974562D01*
X84016832Y-87958910D01*
X84035552Y-87945026D01*
X84055543Y-87933044D01*
X84076613Y-87923079D01*
X84098557Y-87915227D01*
X84121166Y-87909563D01*
X84144221Y-87906144D01*
X84167500Y-87905000D01*
X84742500Y-87905000D01*
X84765779Y-87906144D01*
X84765779Y-87906144D01*
G37*
D13*
G04 #@! TD*
G04 #@! TO.P,C18,2*
G04 #@! TO.N,+2V5*
X84455000Y-88380000D03*
D12*
G04 #@! TO.N,GNDA*
G04 #@! TO.C,C17*
G36*
X76890779Y-91731144D02*
X76913834Y-91734563D01*
X76936443Y-91740227D01*
X76958387Y-91748079D01*
X76979457Y-91758044D01*
X76999448Y-91770026D01*
X77018168Y-91783910D01*
X77035438Y-91799562D01*
X77051090Y-91816832D01*
X77064974Y-91835552D01*
X77076956Y-91855543D01*
X77086921Y-91876613D01*
X77094773Y-91898557D01*
X77100437Y-91921166D01*
X77103856Y-91944221D01*
X77105000Y-91967500D01*
X77105000Y-92542500D01*
X77103856Y-92565779D01*
X77100437Y-92588834D01*
X77094773Y-92611443D01*
X77086921Y-92633387D01*
X77076956Y-92654457D01*
X77064974Y-92674448D01*
X77051090Y-92693168D01*
X77035438Y-92710438D01*
X77018168Y-92726090D01*
X76999448Y-92739974D01*
X76979457Y-92751956D01*
X76958387Y-92761921D01*
X76936443Y-92769773D01*
X76913834Y-92775437D01*
X76890779Y-92778856D01*
X76867500Y-92780000D01*
X76392500Y-92780000D01*
X76369221Y-92778856D01*
X76346166Y-92775437D01*
X76323557Y-92769773D01*
X76301613Y-92761921D01*
X76280543Y-92751956D01*
X76260552Y-92739974D01*
X76241832Y-92726090D01*
X76224562Y-92710438D01*
X76208910Y-92693168D01*
X76195026Y-92674448D01*
X76183044Y-92654457D01*
X76173079Y-92633387D01*
X76165227Y-92611443D01*
X76159563Y-92588834D01*
X76156144Y-92565779D01*
X76155000Y-92542500D01*
X76155000Y-91967500D01*
X76156144Y-91944221D01*
X76159563Y-91921166D01*
X76165227Y-91898557D01*
X76173079Y-91876613D01*
X76183044Y-91855543D01*
X76195026Y-91835552D01*
X76208910Y-91816832D01*
X76224562Y-91799562D01*
X76241832Y-91783910D01*
X76260552Y-91770026D01*
X76280543Y-91758044D01*
X76301613Y-91748079D01*
X76323557Y-91740227D01*
X76346166Y-91734563D01*
X76369221Y-91731144D01*
X76392500Y-91730000D01*
X76867500Y-91730000D01*
X76890779Y-91731144D01*
X76890779Y-91731144D01*
G37*
D13*
G04 #@! TD*
G04 #@! TO.P,C17,2*
G04 #@! TO.N,GNDA*
X76630000Y-92255000D03*
D12*
G04 #@! TO.N,+2V5*
G04 #@! TO.C,C17*
G36*
X76890779Y-89981144D02*
X76913834Y-89984563D01*
X76936443Y-89990227D01*
X76958387Y-89998079D01*
X76979457Y-90008044D01*
X76999448Y-90020026D01*
X77018168Y-90033910D01*
X77035438Y-90049562D01*
X77051090Y-90066832D01*
X77064974Y-90085552D01*
X77076956Y-90105543D01*
X77086921Y-90126613D01*
X77094773Y-90148557D01*
X77100437Y-90171166D01*
X77103856Y-90194221D01*
X77105000Y-90217500D01*
X77105000Y-90792500D01*
X77103856Y-90815779D01*
X77100437Y-90838834D01*
X77094773Y-90861443D01*
X77086921Y-90883387D01*
X77076956Y-90904457D01*
X77064974Y-90924448D01*
X77051090Y-90943168D01*
X77035438Y-90960438D01*
X77018168Y-90976090D01*
X76999448Y-90989974D01*
X76979457Y-91001956D01*
X76958387Y-91011921D01*
X76936443Y-91019773D01*
X76913834Y-91025437D01*
X76890779Y-91028856D01*
X76867500Y-91030000D01*
X76392500Y-91030000D01*
X76369221Y-91028856D01*
X76346166Y-91025437D01*
X76323557Y-91019773D01*
X76301613Y-91011921D01*
X76280543Y-91001956D01*
X76260552Y-90989974D01*
X76241832Y-90976090D01*
X76224562Y-90960438D01*
X76208910Y-90943168D01*
X76195026Y-90924448D01*
X76183044Y-90904457D01*
X76173079Y-90883387D01*
X76165227Y-90861443D01*
X76159563Y-90838834D01*
X76156144Y-90815779D01*
X76155000Y-90792500D01*
X76155000Y-90217500D01*
X76156144Y-90194221D01*
X76159563Y-90171166D01*
X76165227Y-90148557D01*
X76173079Y-90126613D01*
X76183044Y-90105543D01*
X76195026Y-90085552D01*
X76208910Y-90066832D01*
X76224562Y-90049562D01*
X76241832Y-90033910D01*
X76260552Y-90020026D01*
X76280543Y-90008044D01*
X76301613Y-89998079D01*
X76323557Y-89990227D01*
X76346166Y-89984563D01*
X76369221Y-89981144D01*
X76392500Y-89980000D01*
X76867500Y-89980000D01*
X76890779Y-89981144D01*
X76890779Y-89981144D01*
G37*
D13*
G04 #@! TD*
G04 #@! TO.P,C17,1*
G04 #@! TO.N,+2V5*
X76630000Y-90505000D03*
D12*
G04 #@! TO.N,GNDA*
G04 #@! TO.C,C16*
G36*
X105765779Y-82506144D02*
X105788834Y-82509563D01*
X105811443Y-82515227D01*
X105833387Y-82523079D01*
X105854457Y-82533044D01*
X105874448Y-82545026D01*
X105893168Y-82558910D01*
X105910438Y-82574562D01*
X105926090Y-82591832D01*
X105939974Y-82610552D01*
X105951956Y-82630543D01*
X105961921Y-82651613D01*
X105969773Y-82673557D01*
X105975437Y-82696166D01*
X105978856Y-82719221D01*
X105980000Y-82742500D01*
X105980000Y-83217500D01*
X105978856Y-83240779D01*
X105975437Y-83263834D01*
X105969773Y-83286443D01*
X105961921Y-83308387D01*
X105951956Y-83329457D01*
X105939974Y-83349448D01*
X105926090Y-83368168D01*
X105910438Y-83385438D01*
X105893168Y-83401090D01*
X105874448Y-83414974D01*
X105854457Y-83426956D01*
X105833387Y-83436921D01*
X105811443Y-83444773D01*
X105788834Y-83450437D01*
X105765779Y-83453856D01*
X105742500Y-83455000D01*
X105167500Y-83455000D01*
X105144221Y-83453856D01*
X105121166Y-83450437D01*
X105098557Y-83444773D01*
X105076613Y-83436921D01*
X105055543Y-83426956D01*
X105035552Y-83414974D01*
X105016832Y-83401090D01*
X104999562Y-83385438D01*
X104983910Y-83368168D01*
X104970026Y-83349448D01*
X104958044Y-83329457D01*
X104948079Y-83308387D01*
X104940227Y-83286443D01*
X104934563Y-83263834D01*
X104931144Y-83240779D01*
X104930000Y-83217500D01*
X104930000Y-82742500D01*
X104931144Y-82719221D01*
X104934563Y-82696166D01*
X104940227Y-82673557D01*
X104948079Y-82651613D01*
X104958044Y-82630543D01*
X104970026Y-82610552D01*
X104983910Y-82591832D01*
X104999562Y-82574562D01*
X105016832Y-82558910D01*
X105035552Y-82545026D01*
X105055543Y-82533044D01*
X105076613Y-82523079D01*
X105098557Y-82515227D01*
X105121166Y-82509563D01*
X105144221Y-82506144D01*
X105167500Y-82505000D01*
X105742500Y-82505000D01*
X105765779Y-82506144D01*
X105765779Y-82506144D01*
G37*
D13*
G04 #@! TD*
G04 #@! TO.P,C16,1*
G04 #@! TO.N,GNDA*
X105455000Y-82980000D03*
D12*
G04 #@! TO.N,+4V*
G04 #@! TO.C,C16*
G36*
X107515779Y-82506144D02*
X107538834Y-82509563D01*
X107561443Y-82515227D01*
X107583387Y-82523079D01*
X107604457Y-82533044D01*
X107624448Y-82545026D01*
X107643168Y-82558910D01*
X107660438Y-82574562D01*
X107676090Y-82591832D01*
X107689974Y-82610552D01*
X107701956Y-82630543D01*
X107711921Y-82651613D01*
X107719773Y-82673557D01*
X107725437Y-82696166D01*
X107728856Y-82719221D01*
X107730000Y-82742500D01*
X107730000Y-83217500D01*
X107728856Y-83240779D01*
X107725437Y-83263834D01*
X107719773Y-83286443D01*
X107711921Y-83308387D01*
X107701956Y-83329457D01*
X107689974Y-83349448D01*
X107676090Y-83368168D01*
X107660438Y-83385438D01*
X107643168Y-83401090D01*
X107624448Y-83414974D01*
X107604457Y-83426956D01*
X107583387Y-83436921D01*
X107561443Y-83444773D01*
X107538834Y-83450437D01*
X107515779Y-83453856D01*
X107492500Y-83455000D01*
X106917500Y-83455000D01*
X106894221Y-83453856D01*
X106871166Y-83450437D01*
X106848557Y-83444773D01*
X106826613Y-83436921D01*
X106805543Y-83426956D01*
X106785552Y-83414974D01*
X106766832Y-83401090D01*
X106749562Y-83385438D01*
X106733910Y-83368168D01*
X106720026Y-83349448D01*
X106708044Y-83329457D01*
X106698079Y-83308387D01*
X106690227Y-83286443D01*
X106684563Y-83263834D01*
X106681144Y-83240779D01*
X106680000Y-83217500D01*
X106680000Y-82742500D01*
X106681144Y-82719221D01*
X106684563Y-82696166D01*
X106690227Y-82673557D01*
X106698079Y-82651613D01*
X106708044Y-82630543D01*
X106720026Y-82610552D01*
X106733910Y-82591832D01*
X106749562Y-82574562D01*
X106766832Y-82558910D01*
X106785552Y-82545026D01*
X106805543Y-82533044D01*
X106826613Y-82523079D01*
X106848557Y-82515227D01*
X106871166Y-82509563D01*
X106894221Y-82506144D01*
X106917500Y-82505000D01*
X107492500Y-82505000D01*
X107515779Y-82506144D01*
X107515779Y-82506144D01*
G37*
D13*
G04 #@! TD*
G04 #@! TO.P,C16,2*
G04 #@! TO.N,+4V*
X107205000Y-82980000D03*
D12*
G04 #@! TO.N,GNDA*
G04 #@! TO.C,C13*
G36*
X78690779Y-91731144D02*
X78713834Y-91734563D01*
X78736443Y-91740227D01*
X78758387Y-91748079D01*
X78779457Y-91758044D01*
X78799448Y-91770026D01*
X78818168Y-91783910D01*
X78835438Y-91799562D01*
X78851090Y-91816832D01*
X78864974Y-91835552D01*
X78876956Y-91855543D01*
X78886921Y-91876613D01*
X78894773Y-91898557D01*
X78900437Y-91921166D01*
X78903856Y-91944221D01*
X78905000Y-91967500D01*
X78905000Y-92542500D01*
X78903856Y-92565779D01*
X78900437Y-92588834D01*
X78894773Y-92611443D01*
X78886921Y-92633387D01*
X78876956Y-92654457D01*
X78864974Y-92674448D01*
X78851090Y-92693168D01*
X78835438Y-92710438D01*
X78818168Y-92726090D01*
X78799448Y-92739974D01*
X78779457Y-92751956D01*
X78758387Y-92761921D01*
X78736443Y-92769773D01*
X78713834Y-92775437D01*
X78690779Y-92778856D01*
X78667500Y-92780000D01*
X78192500Y-92780000D01*
X78169221Y-92778856D01*
X78146166Y-92775437D01*
X78123557Y-92769773D01*
X78101613Y-92761921D01*
X78080543Y-92751956D01*
X78060552Y-92739974D01*
X78041832Y-92726090D01*
X78024562Y-92710438D01*
X78008910Y-92693168D01*
X77995026Y-92674448D01*
X77983044Y-92654457D01*
X77973079Y-92633387D01*
X77965227Y-92611443D01*
X77959563Y-92588834D01*
X77956144Y-92565779D01*
X77955000Y-92542500D01*
X77955000Y-91967500D01*
X77956144Y-91944221D01*
X77959563Y-91921166D01*
X77965227Y-91898557D01*
X77973079Y-91876613D01*
X77983044Y-91855543D01*
X77995026Y-91835552D01*
X78008910Y-91816832D01*
X78024562Y-91799562D01*
X78041832Y-91783910D01*
X78060552Y-91770026D01*
X78080543Y-91758044D01*
X78101613Y-91748079D01*
X78123557Y-91740227D01*
X78146166Y-91734563D01*
X78169221Y-91731144D01*
X78192500Y-91730000D01*
X78667500Y-91730000D01*
X78690779Y-91731144D01*
X78690779Y-91731144D01*
G37*
D13*
G04 #@! TD*
G04 #@! TO.P,C13,2*
G04 #@! TO.N,GNDA*
X78430000Y-92255000D03*
D12*
G04 #@! TO.N,+4V*
G04 #@! TO.C,C13*
G36*
X78690779Y-89981144D02*
X78713834Y-89984563D01*
X78736443Y-89990227D01*
X78758387Y-89998079D01*
X78779457Y-90008044D01*
X78799448Y-90020026D01*
X78818168Y-90033910D01*
X78835438Y-90049562D01*
X78851090Y-90066832D01*
X78864974Y-90085552D01*
X78876956Y-90105543D01*
X78886921Y-90126613D01*
X78894773Y-90148557D01*
X78900437Y-90171166D01*
X78903856Y-90194221D01*
X78905000Y-90217500D01*
X78905000Y-90792500D01*
X78903856Y-90815779D01*
X78900437Y-90838834D01*
X78894773Y-90861443D01*
X78886921Y-90883387D01*
X78876956Y-90904457D01*
X78864974Y-90924448D01*
X78851090Y-90943168D01*
X78835438Y-90960438D01*
X78818168Y-90976090D01*
X78799448Y-90989974D01*
X78779457Y-91001956D01*
X78758387Y-91011921D01*
X78736443Y-91019773D01*
X78713834Y-91025437D01*
X78690779Y-91028856D01*
X78667500Y-91030000D01*
X78192500Y-91030000D01*
X78169221Y-91028856D01*
X78146166Y-91025437D01*
X78123557Y-91019773D01*
X78101613Y-91011921D01*
X78080543Y-91001956D01*
X78060552Y-90989974D01*
X78041832Y-90976090D01*
X78024562Y-90960438D01*
X78008910Y-90943168D01*
X77995026Y-90924448D01*
X77983044Y-90904457D01*
X77973079Y-90883387D01*
X77965227Y-90861443D01*
X77959563Y-90838834D01*
X77956144Y-90815779D01*
X77955000Y-90792500D01*
X77955000Y-90217500D01*
X77956144Y-90194221D01*
X77959563Y-90171166D01*
X77965227Y-90148557D01*
X77973079Y-90126613D01*
X77983044Y-90105543D01*
X77995026Y-90085552D01*
X78008910Y-90066832D01*
X78024562Y-90049562D01*
X78041832Y-90033910D01*
X78060552Y-90020026D01*
X78080543Y-90008044D01*
X78101613Y-89998079D01*
X78123557Y-89990227D01*
X78146166Y-89984563D01*
X78169221Y-89981144D01*
X78192500Y-89980000D01*
X78667500Y-89980000D01*
X78690779Y-89981144D01*
X78690779Y-89981144D01*
G37*
D13*
G04 #@! TD*
G04 #@! TO.P,C13,1*
G04 #@! TO.N,+4V*
X78430000Y-90505000D03*
D12*
G04 #@! TO.N,+4V*
G04 #@! TO.C,C11*
G36*
X83565779Y-82656144D02*
X83588834Y-82659563D01*
X83611443Y-82665227D01*
X83633387Y-82673079D01*
X83654457Y-82683044D01*
X83674448Y-82695026D01*
X83693168Y-82708910D01*
X83710438Y-82724562D01*
X83726090Y-82741832D01*
X83739974Y-82760552D01*
X83751956Y-82780543D01*
X83761921Y-82801613D01*
X83769773Y-82823557D01*
X83775437Y-82846166D01*
X83778856Y-82869221D01*
X83780000Y-82892500D01*
X83780000Y-83367500D01*
X83778856Y-83390779D01*
X83775437Y-83413834D01*
X83769773Y-83436443D01*
X83761921Y-83458387D01*
X83751956Y-83479457D01*
X83739974Y-83499448D01*
X83726090Y-83518168D01*
X83710438Y-83535438D01*
X83693168Y-83551090D01*
X83674448Y-83564974D01*
X83654457Y-83576956D01*
X83633387Y-83586921D01*
X83611443Y-83594773D01*
X83588834Y-83600437D01*
X83565779Y-83603856D01*
X83542500Y-83605000D01*
X82967500Y-83605000D01*
X82944221Y-83603856D01*
X82921166Y-83600437D01*
X82898557Y-83594773D01*
X82876613Y-83586921D01*
X82855543Y-83576956D01*
X82835552Y-83564974D01*
X82816832Y-83551090D01*
X82799562Y-83535438D01*
X82783910Y-83518168D01*
X82770026Y-83499448D01*
X82758044Y-83479457D01*
X82748079Y-83458387D01*
X82740227Y-83436443D01*
X82734563Y-83413834D01*
X82731144Y-83390779D01*
X82730000Y-83367500D01*
X82730000Y-82892500D01*
X82731144Y-82869221D01*
X82734563Y-82846166D01*
X82740227Y-82823557D01*
X82748079Y-82801613D01*
X82758044Y-82780543D01*
X82770026Y-82760552D01*
X82783910Y-82741832D01*
X82799562Y-82724562D01*
X82816832Y-82708910D01*
X82835552Y-82695026D01*
X82855543Y-82683044D01*
X82876613Y-82673079D01*
X82898557Y-82665227D01*
X82921166Y-82659563D01*
X82944221Y-82656144D01*
X82967500Y-82655000D01*
X83542500Y-82655000D01*
X83565779Y-82656144D01*
X83565779Y-82656144D01*
G37*
D13*
G04 #@! TD*
G04 #@! TO.P,C11,1*
G04 #@! TO.N,+4V*
X83255000Y-83130000D03*
D12*
G04 #@! TO.N,GNDA*
G04 #@! TO.C,C11*
G36*
X85315779Y-82656144D02*
X85338834Y-82659563D01*
X85361443Y-82665227D01*
X85383387Y-82673079D01*
X85404457Y-82683044D01*
X85424448Y-82695026D01*
X85443168Y-82708910D01*
X85460438Y-82724562D01*
X85476090Y-82741832D01*
X85489974Y-82760552D01*
X85501956Y-82780543D01*
X85511921Y-82801613D01*
X85519773Y-82823557D01*
X85525437Y-82846166D01*
X85528856Y-82869221D01*
X85530000Y-82892500D01*
X85530000Y-83367500D01*
X85528856Y-83390779D01*
X85525437Y-83413834D01*
X85519773Y-83436443D01*
X85511921Y-83458387D01*
X85501956Y-83479457D01*
X85489974Y-83499448D01*
X85476090Y-83518168D01*
X85460438Y-83535438D01*
X85443168Y-83551090D01*
X85424448Y-83564974D01*
X85404457Y-83576956D01*
X85383387Y-83586921D01*
X85361443Y-83594773D01*
X85338834Y-83600437D01*
X85315779Y-83603856D01*
X85292500Y-83605000D01*
X84717500Y-83605000D01*
X84694221Y-83603856D01*
X84671166Y-83600437D01*
X84648557Y-83594773D01*
X84626613Y-83586921D01*
X84605543Y-83576956D01*
X84585552Y-83564974D01*
X84566832Y-83551090D01*
X84549562Y-83535438D01*
X84533910Y-83518168D01*
X84520026Y-83499448D01*
X84508044Y-83479457D01*
X84498079Y-83458387D01*
X84490227Y-83436443D01*
X84484563Y-83413834D01*
X84481144Y-83390779D01*
X84480000Y-83367500D01*
X84480000Y-82892500D01*
X84481144Y-82869221D01*
X84484563Y-82846166D01*
X84490227Y-82823557D01*
X84498079Y-82801613D01*
X84508044Y-82780543D01*
X84520026Y-82760552D01*
X84533910Y-82741832D01*
X84549562Y-82724562D01*
X84566832Y-82708910D01*
X84585552Y-82695026D01*
X84605543Y-82683044D01*
X84626613Y-82673079D01*
X84648557Y-82665227D01*
X84671166Y-82659563D01*
X84694221Y-82656144D01*
X84717500Y-82655000D01*
X85292500Y-82655000D01*
X85315779Y-82656144D01*
X85315779Y-82656144D01*
G37*
D13*
G04 #@! TD*
G04 #@! TO.P,C11,2*
G04 #@! TO.N,GNDA*
X85005000Y-83130000D03*
D12*
G04 #@! TO.N,GNDA*
G04 #@! TO.C,C10*
G36*
X64065779Y-89106144D02*
X64088834Y-89109563D01*
X64111443Y-89115227D01*
X64133387Y-89123079D01*
X64154457Y-89133044D01*
X64174448Y-89145026D01*
X64193168Y-89158910D01*
X64210438Y-89174562D01*
X64226090Y-89191832D01*
X64239974Y-89210552D01*
X64251956Y-89230543D01*
X64261921Y-89251613D01*
X64269773Y-89273557D01*
X64275437Y-89296166D01*
X64278856Y-89319221D01*
X64280000Y-89342500D01*
X64280000Y-89817500D01*
X64278856Y-89840779D01*
X64275437Y-89863834D01*
X64269773Y-89886443D01*
X64261921Y-89908387D01*
X64251956Y-89929457D01*
X64239974Y-89949448D01*
X64226090Y-89968168D01*
X64210438Y-89985438D01*
X64193168Y-90001090D01*
X64174448Y-90014974D01*
X64154457Y-90026956D01*
X64133387Y-90036921D01*
X64111443Y-90044773D01*
X64088834Y-90050437D01*
X64065779Y-90053856D01*
X64042500Y-90055000D01*
X63467500Y-90055000D01*
X63444221Y-90053856D01*
X63421166Y-90050437D01*
X63398557Y-90044773D01*
X63376613Y-90036921D01*
X63355543Y-90026956D01*
X63335552Y-90014974D01*
X63316832Y-90001090D01*
X63299562Y-89985438D01*
X63283910Y-89968168D01*
X63270026Y-89949448D01*
X63258044Y-89929457D01*
X63248079Y-89908387D01*
X63240227Y-89886443D01*
X63234563Y-89863834D01*
X63231144Y-89840779D01*
X63230000Y-89817500D01*
X63230000Y-89342500D01*
X63231144Y-89319221D01*
X63234563Y-89296166D01*
X63240227Y-89273557D01*
X63248079Y-89251613D01*
X63258044Y-89230543D01*
X63270026Y-89210552D01*
X63283910Y-89191832D01*
X63299562Y-89174562D01*
X63316832Y-89158910D01*
X63335552Y-89145026D01*
X63355543Y-89133044D01*
X63376613Y-89123079D01*
X63398557Y-89115227D01*
X63421166Y-89109563D01*
X63444221Y-89106144D01*
X63467500Y-89105000D01*
X64042500Y-89105000D01*
X64065779Y-89106144D01*
X64065779Y-89106144D01*
G37*
D13*
G04 #@! TD*
G04 #@! TO.P,C10,2*
G04 #@! TO.N,GNDA*
X63755000Y-89580000D03*
D12*
G04 #@! TO.N,+2V5*
G04 #@! TO.C,C10*
G36*
X65815779Y-89106144D02*
X65838834Y-89109563D01*
X65861443Y-89115227D01*
X65883387Y-89123079D01*
X65904457Y-89133044D01*
X65924448Y-89145026D01*
X65943168Y-89158910D01*
X65960438Y-89174562D01*
X65976090Y-89191832D01*
X65989974Y-89210552D01*
X66001956Y-89230543D01*
X66011921Y-89251613D01*
X66019773Y-89273557D01*
X66025437Y-89296166D01*
X66028856Y-89319221D01*
X66030000Y-89342500D01*
X66030000Y-89817500D01*
X66028856Y-89840779D01*
X66025437Y-89863834D01*
X66019773Y-89886443D01*
X66011921Y-89908387D01*
X66001956Y-89929457D01*
X65989974Y-89949448D01*
X65976090Y-89968168D01*
X65960438Y-89985438D01*
X65943168Y-90001090D01*
X65924448Y-90014974D01*
X65904457Y-90026956D01*
X65883387Y-90036921D01*
X65861443Y-90044773D01*
X65838834Y-90050437D01*
X65815779Y-90053856D01*
X65792500Y-90055000D01*
X65217500Y-90055000D01*
X65194221Y-90053856D01*
X65171166Y-90050437D01*
X65148557Y-90044773D01*
X65126613Y-90036921D01*
X65105543Y-90026956D01*
X65085552Y-90014974D01*
X65066832Y-90001090D01*
X65049562Y-89985438D01*
X65033910Y-89968168D01*
X65020026Y-89949448D01*
X65008044Y-89929457D01*
X64998079Y-89908387D01*
X64990227Y-89886443D01*
X64984563Y-89863834D01*
X64981144Y-89840779D01*
X64980000Y-89817500D01*
X64980000Y-89342500D01*
X64981144Y-89319221D01*
X64984563Y-89296166D01*
X64990227Y-89273557D01*
X64998079Y-89251613D01*
X65008044Y-89230543D01*
X65020026Y-89210552D01*
X65033910Y-89191832D01*
X65049562Y-89174562D01*
X65066832Y-89158910D01*
X65085552Y-89145026D01*
X65105543Y-89133044D01*
X65126613Y-89123079D01*
X65148557Y-89115227D01*
X65171166Y-89109563D01*
X65194221Y-89106144D01*
X65217500Y-89105000D01*
X65792500Y-89105000D01*
X65815779Y-89106144D01*
X65815779Y-89106144D01*
G37*
D13*
G04 #@! TD*
G04 #@! TO.P,C10,1*
G04 #@! TO.N,+2V5*
X65505000Y-89580000D03*
D12*
G04 #@! TO.N,+4V*
G04 #@! TO.C,C9*
G36*
X70915779Y-90306144D02*
X70938834Y-90309563D01*
X70961443Y-90315227D01*
X70983387Y-90323079D01*
X71004457Y-90333044D01*
X71024448Y-90345026D01*
X71043168Y-90358910D01*
X71060438Y-90374562D01*
X71076090Y-90391832D01*
X71089974Y-90410552D01*
X71101956Y-90430543D01*
X71111921Y-90451613D01*
X71119773Y-90473557D01*
X71125437Y-90496166D01*
X71128856Y-90519221D01*
X71130000Y-90542500D01*
X71130000Y-91017500D01*
X71128856Y-91040779D01*
X71125437Y-91063834D01*
X71119773Y-91086443D01*
X71111921Y-91108387D01*
X71101956Y-91129457D01*
X71089974Y-91149448D01*
X71076090Y-91168168D01*
X71060438Y-91185438D01*
X71043168Y-91201090D01*
X71024448Y-91214974D01*
X71004457Y-91226956D01*
X70983387Y-91236921D01*
X70961443Y-91244773D01*
X70938834Y-91250437D01*
X70915779Y-91253856D01*
X70892500Y-91255000D01*
X70317500Y-91255000D01*
X70294221Y-91253856D01*
X70271166Y-91250437D01*
X70248557Y-91244773D01*
X70226613Y-91236921D01*
X70205543Y-91226956D01*
X70185552Y-91214974D01*
X70166832Y-91201090D01*
X70149562Y-91185438D01*
X70133910Y-91168168D01*
X70120026Y-91149448D01*
X70108044Y-91129457D01*
X70098079Y-91108387D01*
X70090227Y-91086443D01*
X70084563Y-91063834D01*
X70081144Y-91040779D01*
X70080000Y-91017500D01*
X70080000Y-90542500D01*
X70081144Y-90519221D01*
X70084563Y-90496166D01*
X70090227Y-90473557D01*
X70098079Y-90451613D01*
X70108044Y-90430543D01*
X70120026Y-90410552D01*
X70133910Y-90391832D01*
X70149562Y-90374562D01*
X70166832Y-90358910D01*
X70185552Y-90345026D01*
X70205543Y-90333044D01*
X70226613Y-90323079D01*
X70248557Y-90315227D01*
X70271166Y-90309563D01*
X70294221Y-90306144D01*
X70317500Y-90305000D01*
X70892500Y-90305000D01*
X70915779Y-90306144D01*
X70915779Y-90306144D01*
G37*
D13*
G04 #@! TD*
G04 #@! TO.P,C9,1*
G04 #@! TO.N,+4V*
X70605000Y-90780000D03*
D12*
G04 #@! TO.N,GNDA*
G04 #@! TO.C,C9*
G36*
X69165779Y-90306144D02*
X69188834Y-90309563D01*
X69211443Y-90315227D01*
X69233387Y-90323079D01*
X69254457Y-90333044D01*
X69274448Y-90345026D01*
X69293168Y-90358910D01*
X69310438Y-90374562D01*
X69326090Y-90391832D01*
X69339974Y-90410552D01*
X69351956Y-90430543D01*
X69361921Y-90451613D01*
X69369773Y-90473557D01*
X69375437Y-90496166D01*
X69378856Y-90519221D01*
X69380000Y-90542500D01*
X69380000Y-91017500D01*
X69378856Y-91040779D01*
X69375437Y-91063834D01*
X69369773Y-91086443D01*
X69361921Y-91108387D01*
X69351956Y-91129457D01*
X69339974Y-91149448D01*
X69326090Y-91168168D01*
X69310438Y-91185438D01*
X69293168Y-91201090D01*
X69274448Y-91214974D01*
X69254457Y-91226956D01*
X69233387Y-91236921D01*
X69211443Y-91244773D01*
X69188834Y-91250437D01*
X69165779Y-91253856D01*
X69142500Y-91255000D01*
X68567500Y-91255000D01*
X68544221Y-91253856D01*
X68521166Y-91250437D01*
X68498557Y-91244773D01*
X68476613Y-91236921D01*
X68455543Y-91226956D01*
X68435552Y-91214974D01*
X68416832Y-91201090D01*
X68399562Y-91185438D01*
X68383910Y-91168168D01*
X68370026Y-91149448D01*
X68358044Y-91129457D01*
X68348079Y-91108387D01*
X68340227Y-91086443D01*
X68334563Y-91063834D01*
X68331144Y-91040779D01*
X68330000Y-91017500D01*
X68330000Y-90542500D01*
X68331144Y-90519221D01*
X68334563Y-90496166D01*
X68340227Y-90473557D01*
X68348079Y-90451613D01*
X68358044Y-90430543D01*
X68370026Y-90410552D01*
X68383910Y-90391832D01*
X68399562Y-90374562D01*
X68416832Y-90358910D01*
X68435552Y-90345026D01*
X68455543Y-90333044D01*
X68476613Y-90323079D01*
X68498557Y-90315227D01*
X68521166Y-90309563D01*
X68544221Y-90306144D01*
X68567500Y-90305000D01*
X69142500Y-90305000D01*
X69165779Y-90306144D01*
X69165779Y-90306144D01*
G37*
D13*
G04 #@! TD*
G04 #@! TO.P,C9,2*
G04 #@! TO.N,GNDA*
X68855000Y-90780000D03*
D12*
G04 #@! TO.N,GNDD*
G04 #@! TO.C,C6*
G36*
X107515779Y-99906144D02*
X107538834Y-99909563D01*
X107561443Y-99915227D01*
X107583387Y-99923079D01*
X107604457Y-99933044D01*
X107624448Y-99945026D01*
X107643168Y-99958910D01*
X107660438Y-99974562D01*
X107676090Y-99991832D01*
X107689974Y-100010552D01*
X107701956Y-100030543D01*
X107711921Y-100051613D01*
X107719773Y-100073557D01*
X107725437Y-100096166D01*
X107728856Y-100119221D01*
X107730000Y-100142500D01*
X107730000Y-100617500D01*
X107728856Y-100640779D01*
X107725437Y-100663834D01*
X107719773Y-100686443D01*
X107711921Y-100708387D01*
X107701956Y-100729457D01*
X107689974Y-100749448D01*
X107676090Y-100768168D01*
X107660438Y-100785438D01*
X107643168Y-100801090D01*
X107624448Y-100814974D01*
X107604457Y-100826956D01*
X107583387Y-100836921D01*
X107561443Y-100844773D01*
X107538834Y-100850437D01*
X107515779Y-100853856D01*
X107492500Y-100855000D01*
X106917500Y-100855000D01*
X106894221Y-100853856D01*
X106871166Y-100850437D01*
X106848557Y-100844773D01*
X106826613Y-100836921D01*
X106805543Y-100826956D01*
X106785552Y-100814974D01*
X106766832Y-100801090D01*
X106749562Y-100785438D01*
X106733910Y-100768168D01*
X106720026Y-100749448D01*
X106708044Y-100729457D01*
X106698079Y-100708387D01*
X106690227Y-100686443D01*
X106684563Y-100663834D01*
X106681144Y-100640779D01*
X106680000Y-100617500D01*
X106680000Y-100142500D01*
X106681144Y-100119221D01*
X106684563Y-100096166D01*
X106690227Y-100073557D01*
X106698079Y-100051613D01*
X106708044Y-100030543D01*
X106720026Y-100010552D01*
X106733910Y-99991832D01*
X106749562Y-99974562D01*
X106766832Y-99958910D01*
X106785552Y-99945026D01*
X106805543Y-99933044D01*
X106826613Y-99923079D01*
X106848557Y-99915227D01*
X106871166Y-99909563D01*
X106894221Y-99906144D01*
X106917500Y-99905000D01*
X107492500Y-99905000D01*
X107515779Y-99906144D01*
X107515779Y-99906144D01*
G37*
D13*
G04 #@! TD*
G04 #@! TO.P,C6,2*
G04 #@! TO.N,GNDD*
X107205000Y-100380000D03*
D12*
G04 #@! TO.N,/NRST*
G04 #@! TO.C,C6*
G36*
X105765779Y-99906144D02*
X105788834Y-99909563D01*
X105811443Y-99915227D01*
X105833387Y-99923079D01*
X105854457Y-99933044D01*
X105874448Y-99945026D01*
X105893168Y-99958910D01*
X105910438Y-99974562D01*
X105926090Y-99991832D01*
X105939974Y-100010552D01*
X105951956Y-100030543D01*
X105961921Y-100051613D01*
X105969773Y-100073557D01*
X105975437Y-100096166D01*
X105978856Y-100119221D01*
X105980000Y-100142500D01*
X105980000Y-100617500D01*
X105978856Y-100640779D01*
X105975437Y-100663834D01*
X105969773Y-100686443D01*
X105961921Y-100708387D01*
X105951956Y-100729457D01*
X105939974Y-100749448D01*
X105926090Y-100768168D01*
X105910438Y-100785438D01*
X105893168Y-100801090D01*
X105874448Y-100814974D01*
X105854457Y-100826956D01*
X105833387Y-100836921D01*
X105811443Y-100844773D01*
X105788834Y-100850437D01*
X105765779Y-100853856D01*
X105742500Y-100855000D01*
X105167500Y-100855000D01*
X105144221Y-100853856D01*
X105121166Y-100850437D01*
X105098557Y-100844773D01*
X105076613Y-100836921D01*
X105055543Y-100826956D01*
X105035552Y-100814974D01*
X105016832Y-100801090D01*
X104999562Y-100785438D01*
X104983910Y-100768168D01*
X104970026Y-100749448D01*
X104958044Y-100729457D01*
X104948079Y-100708387D01*
X104940227Y-100686443D01*
X104934563Y-100663834D01*
X104931144Y-100640779D01*
X104930000Y-100617500D01*
X104930000Y-100142500D01*
X104931144Y-100119221D01*
X104934563Y-100096166D01*
X104940227Y-100073557D01*
X104948079Y-100051613D01*
X104958044Y-100030543D01*
X104970026Y-100010552D01*
X104983910Y-99991832D01*
X104999562Y-99974562D01*
X105016832Y-99958910D01*
X105035552Y-99945026D01*
X105055543Y-99933044D01*
X105076613Y-99923079D01*
X105098557Y-99915227D01*
X105121166Y-99909563D01*
X105144221Y-99906144D01*
X105167500Y-99905000D01*
X105742500Y-99905000D01*
X105765779Y-99906144D01*
X105765779Y-99906144D01*
G37*
D13*
G04 #@! TD*
G04 #@! TO.P,C6,1*
G04 #@! TO.N,/NRST*
X105455000Y-100380000D03*
D12*
G04 #@! TO.N,GNDA*
G04 #@! TO.C,C14*
G36*
X88290779Y-91131144D02*
X88313834Y-91134563D01*
X88336443Y-91140227D01*
X88358387Y-91148079D01*
X88379457Y-91158044D01*
X88399448Y-91170026D01*
X88418168Y-91183910D01*
X88435438Y-91199562D01*
X88451090Y-91216832D01*
X88464974Y-91235552D01*
X88476956Y-91255543D01*
X88486921Y-91276613D01*
X88494773Y-91298557D01*
X88500437Y-91321166D01*
X88503856Y-91344221D01*
X88505000Y-91367500D01*
X88505000Y-91942500D01*
X88503856Y-91965779D01*
X88500437Y-91988834D01*
X88494773Y-92011443D01*
X88486921Y-92033387D01*
X88476956Y-92054457D01*
X88464974Y-92074448D01*
X88451090Y-92093168D01*
X88435438Y-92110438D01*
X88418168Y-92126090D01*
X88399448Y-92139974D01*
X88379457Y-92151956D01*
X88358387Y-92161921D01*
X88336443Y-92169773D01*
X88313834Y-92175437D01*
X88290779Y-92178856D01*
X88267500Y-92180000D01*
X87792500Y-92180000D01*
X87769221Y-92178856D01*
X87746166Y-92175437D01*
X87723557Y-92169773D01*
X87701613Y-92161921D01*
X87680543Y-92151956D01*
X87660552Y-92139974D01*
X87641832Y-92126090D01*
X87624562Y-92110438D01*
X87608910Y-92093168D01*
X87595026Y-92074448D01*
X87583044Y-92054457D01*
X87573079Y-92033387D01*
X87565227Y-92011443D01*
X87559563Y-91988834D01*
X87556144Y-91965779D01*
X87555000Y-91942500D01*
X87555000Y-91367500D01*
X87556144Y-91344221D01*
X87559563Y-91321166D01*
X87565227Y-91298557D01*
X87573079Y-91276613D01*
X87583044Y-91255543D01*
X87595026Y-91235552D01*
X87608910Y-91216832D01*
X87624562Y-91199562D01*
X87641832Y-91183910D01*
X87660552Y-91170026D01*
X87680543Y-91158044D01*
X87701613Y-91148079D01*
X87723557Y-91140227D01*
X87746166Y-91134563D01*
X87769221Y-91131144D01*
X87792500Y-91130000D01*
X88267500Y-91130000D01*
X88290779Y-91131144D01*
X88290779Y-91131144D01*
G37*
D13*
G04 #@! TD*
G04 #@! TO.P,C14,2*
G04 #@! TO.N,GNDA*
X88030000Y-91655000D03*
D12*
G04 #@! TO.N,+4V*
G04 #@! TO.C,C14*
G36*
X88290779Y-89381144D02*
X88313834Y-89384563D01*
X88336443Y-89390227D01*
X88358387Y-89398079D01*
X88379457Y-89408044D01*
X88399448Y-89420026D01*
X88418168Y-89433910D01*
X88435438Y-89449562D01*
X88451090Y-89466832D01*
X88464974Y-89485552D01*
X88476956Y-89505543D01*
X88486921Y-89526613D01*
X88494773Y-89548557D01*
X88500437Y-89571166D01*
X88503856Y-89594221D01*
X88505000Y-89617500D01*
X88505000Y-90192500D01*
X88503856Y-90215779D01*
X88500437Y-90238834D01*
X88494773Y-90261443D01*
X88486921Y-90283387D01*
X88476956Y-90304457D01*
X88464974Y-90324448D01*
X88451090Y-90343168D01*
X88435438Y-90360438D01*
X88418168Y-90376090D01*
X88399448Y-90389974D01*
X88379457Y-90401956D01*
X88358387Y-90411921D01*
X88336443Y-90419773D01*
X88313834Y-90425437D01*
X88290779Y-90428856D01*
X88267500Y-90430000D01*
X87792500Y-90430000D01*
X87769221Y-90428856D01*
X87746166Y-90425437D01*
X87723557Y-90419773D01*
X87701613Y-90411921D01*
X87680543Y-90401956D01*
X87660552Y-90389974D01*
X87641832Y-90376090D01*
X87624562Y-90360438D01*
X87608910Y-90343168D01*
X87595026Y-90324448D01*
X87583044Y-90304457D01*
X87573079Y-90283387D01*
X87565227Y-90261443D01*
X87559563Y-90238834D01*
X87556144Y-90215779D01*
X87555000Y-90192500D01*
X87555000Y-89617500D01*
X87556144Y-89594221D01*
X87559563Y-89571166D01*
X87565227Y-89548557D01*
X87573079Y-89526613D01*
X87583044Y-89505543D01*
X87595026Y-89485552D01*
X87608910Y-89466832D01*
X87624562Y-89449562D01*
X87641832Y-89433910D01*
X87660552Y-89420026D01*
X87680543Y-89408044D01*
X87701613Y-89398079D01*
X87723557Y-89390227D01*
X87746166Y-89384563D01*
X87769221Y-89381144D01*
X87792500Y-89380000D01*
X88267500Y-89380000D01*
X88290779Y-89381144D01*
X88290779Y-89381144D01*
G37*
D13*
G04 #@! TD*
G04 #@! TO.P,C14,1*
G04 #@! TO.N,+4V*
X88030000Y-89905000D03*
D12*
G04 #@! TO.N,+4V*
G04 #@! TO.C,C15*
G36*
X101565779Y-82506144D02*
X101588834Y-82509563D01*
X101611443Y-82515227D01*
X101633387Y-82523079D01*
X101654457Y-82533044D01*
X101674448Y-82545026D01*
X101693168Y-82558910D01*
X101710438Y-82574562D01*
X101726090Y-82591832D01*
X101739974Y-82610552D01*
X101751956Y-82630543D01*
X101761921Y-82651613D01*
X101769773Y-82673557D01*
X101775437Y-82696166D01*
X101778856Y-82719221D01*
X101780000Y-82742500D01*
X101780000Y-83217500D01*
X101778856Y-83240779D01*
X101775437Y-83263834D01*
X101769773Y-83286443D01*
X101761921Y-83308387D01*
X101751956Y-83329457D01*
X101739974Y-83349448D01*
X101726090Y-83368168D01*
X101710438Y-83385438D01*
X101693168Y-83401090D01*
X101674448Y-83414974D01*
X101654457Y-83426956D01*
X101633387Y-83436921D01*
X101611443Y-83444773D01*
X101588834Y-83450437D01*
X101565779Y-83453856D01*
X101542500Y-83455000D01*
X100967500Y-83455000D01*
X100944221Y-83453856D01*
X100921166Y-83450437D01*
X100898557Y-83444773D01*
X100876613Y-83436921D01*
X100855543Y-83426956D01*
X100835552Y-83414974D01*
X100816832Y-83401090D01*
X100799562Y-83385438D01*
X100783910Y-83368168D01*
X100770026Y-83349448D01*
X100758044Y-83329457D01*
X100748079Y-83308387D01*
X100740227Y-83286443D01*
X100734563Y-83263834D01*
X100731144Y-83240779D01*
X100730000Y-83217500D01*
X100730000Y-82742500D01*
X100731144Y-82719221D01*
X100734563Y-82696166D01*
X100740227Y-82673557D01*
X100748079Y-82651613D01*
X100758044Y-82630543D01*
X100770026Y-82610552D01*
X100783910Y-82591832D01*
X100799562Y-82574562D01*
X100816832Y-82558910D01*
X100835552Y-82545026D01*
X100855543Y-82533044D01*
X100876613Y-82523079D01*
X100898557Y-82515227D01*
X100921166Y-82509563D01*
X100944221Y-82506144D01*
X100967500Y-82505000D01*
X101542500Y-82505000D01*
X101565779Y-82506144D01*
X101565779Y-82506144D01*
G37*
D13*
G04 #@! TD*
G04 #@! TO.P,C15,1*
G04 #@! TO.N,+4V*
X101255000Y-82980000D03*
D12*
G04 #@! TO.N,GNDA*
G04 #@! TO.C,C15*
G36*
X103315779Y-82506144D02*
X103338834Y-82509563D01*
X103361443Y-82515227D01*
X103383387Y-82523079D01*
X103404457Y-82533044D01*
X103424448Y-82545026D01*
X103443168Y-82558910D01*
X103460438Y-82574562D01*
X103476090Y-82591832D01*
X103489974Y-82610552D01*
X103501956Y-82630543D01*
X103511921Y-82651613D01*
X103519773Y-82673557D01*
X103525437Y-82696166D01*
X103528856Y-82719221D01*
X103530000Y-82742500D01*
X103530000Y-83217500D01*
X103528856Y-83240779D01*
X103525437Y-83263834D01*
X103519773Y-83286443D01*
X103511921Y-83308387D01*
X103501956Y-83329457D01*
X103489974Y-83349448D01*
X103476090Y-83368168D01*
X103460438Y-83385438D01*
X103443168Y-83401090D01*
X103424448Y-83414974D01*
X103404457Y-83426956D01*
X103383387Y-83436921D01*
X103361443Y-83444773D01*
X103338834Y-83450437D01*
X103315779Y-83453856D01*
X103292500Y-83455000D01*
X102717500Y-83455000D01*
X102694221Y-83453856D01*
X102671166Y-83450437D01*
X102648557Y-83444773D01*
X102626613Y-83436921D01*
X102605543Y-83426956D01*
X102585552Y-83414974D01*
X102566832Y-83401090D01*
X102549562Y-83385438D01*
X102533910Y-83368168D01*
X102520026Y-83349448D01*
X102508044Y-83329457D01*
X102498079Y-83308387D01*
X102490227Y-83286443D01*
X102484563Y-83263834D01*
X102481144Y-83240779D01*
X102480000Y-83217500D01*
X102480000Y-82742500D01*
X102481144Y-82719221D01*
X102484563Y-82696166D01*
X102490227Y-82673557D01*
X102498079Y-82651613D01*
X102508044Y-82630543D01*
X102520026Y-82610552D01*
X102533910Y-82591832D01*
X102549562Y-82574562D01*
X102566832Y-82558910D01*
X102585552Y-82545026D01*
X102605543Y-82533044D01*
X102626613Y-82523079D01*
X102648557Y-82515227D01*
X102671166Y-82509563D01*
X102694221Y-82506144D01*
X102717500Y-82505000D01*
X103292500Y-82505000D01*
X103315779Y-82506144D01*
X103315779Y-82506144D01*
G37*
D13*
G04 #@! TD*
G04 #@! TO.P,C15,2*
G04 #@! TO.N,GNDA*
X103005000Y-82980000D03*
D11*
G04 #@! TO.P,J1,2*
G04 #@! TO.N,+4V*
X64135000Y-87020000D03*
D10*
G04 #@! TO.P,J1,1*
G04 #@! TO.N,GNDA*
X64135000Y-84480000D03*
G04 #@! TD*
G04 #@! TO.P,J2,1*
G04 #@! TO.N,GNDD*
X64330000Y-92280000D03*
D11*
G04 #@! TO.P,J2,2*
G04 #@! TO.N,+5V*
X64330000Y-94820000D03*
G04 #@! TD*
D14*
G04 #@! TO.P,Q1,1*
G04 #@! TO.N,Net-(Q1-Pad1)*
X73930000Y-87480000D03*
D15*
G04 #@! TO.P,Q1,2*
G04 #@! TO.N,GNDA*
X73930000Y-90020000D03*
G04 #@! TD*
D16*
G04 #@! TO.P,U6,8*
G04 #@! TO.N,+4V*
X106930000Y-84675000D03*
G04 #@! TO.P,U6,7*
G04 #@! TO.N,/MCU_CLK*
X106930000Y-85945000D03*
G04 #@! TO.P,U6,6*
G04 #@! TO.N,/MCU_DOUT*
X106930000Y-87215000D03*
G04 #@! TO.P,U6,5*
G04 #@! TO.N,/MCU_CS*
X106930000Y-88485000D03*
G04 #@! TO.P,U6,4*
G04 #@! TO.N,GNDA*
X101530000Y-88485000D03*
G04 #@! TO.P,U6,3*
X101530000Y-87215000D03*
G04 #@! TO.P,U6,2*
G04 #@! TO.N,Net-(R16-Pad1)*
X101530000Y-85945000D03*
G04 #@! TO.P,U6,1*
G04 #@! TO.N,+4V*
X101530000Y-84675000D03*
G04 #@! TD*
D17*
G04 #@! TO.P,U5,1*
G04 #@! TO.N,Net-(C24-Pad1)*
X93925000Y-88680000D03*
G04 #@! TO.P,U5,2*
G04 #@! TO.N,Net-(C23-Pad1)*
X95195000Y-88680000D03*
G04 #@! TO.P,U5,3*
G04 #@! TO.N,Net-(R10-Pad1)*
X96465000Y-88680000D03*
G04 #@! TO.P,U5,4*
G04 #@! TO.N,GNDA*
X97735000Y-88680000D03*
G04 #@! TO.P,U5,5*
G04 #@! TO.N,Net-(C24-Pad1)*
X97735000Y-83280000D03*
G04 #@! TO.P,U5,6*
G04 #@! TO.N,Net-(R16-Pad2)*
X96465000Y-83280000D03*
G04 #@! TO.P,U5,7*
X95195000Y-83280000D03*
G04 #@! TO.P,U5,8*
G04 #@! TO.N,+4V*
X93925000Y-83280000D03*
G04 #@! TD*
D16*
G04 #@! TO.P,U4,8*
G04 #@! TO.N,+4V*
X82330000Y-84675000D03*
G04 #@! TO.P,U4,7*
G04 #@! TO.N,Net-(C21-Pad1)*
X82330000Y-85945000D03*
G04 #@! TO.P,U4,6*
G04 #@! TO.N,Net-(C20-Pad1)*
X82330000Y-87215000D03*
G04 #@! TO.P,U4,5*
G04 #@! TO.N,+2V5*
X82330000Y-88485000D03*
G04 #@! TO.P,U4,4*
G04 #@! TO.N,GNDA*
X76930000Y-88485000D03*
G04 #@! TO.P,U4,3*
G04 #@! TO.N,+2V5*
X76930000Y-87215000D03*
G04 #@! TO.P,U4,2*
G04 #@! TO.N,Net-(Q1-Pad1)*
X76930000Y-85945000D03*
G04 #@! TO.P,U4,1*
G04 #@! TO.N,Net-(R5-Pad2)*
X76930000Y-84675000D03*
G04 #@! TD*
D17*
G04 #@! TO.P,U3,1*
G04 #@! TO.N,+2V5*
X67225000Y-88680000D03*
G04 #@! TO.P,U3,2*
G04 #@! TO.N,GNDA*
X68495000Y-88680000D03*
G04 #@! TO.P,U3,3*
G04 #@! TO.N,+4V*
X69765000Y-88680000D03*
G04 #@! TO.P,U3,4*
G04 #@! TO.N,Net-(U3-Pad4)*
X71035000Y-88680000D03*
G04 #@! TO.P,U3,5*
G04 #@! TO.N,Net-(U3-Pad5)*
X71035000Y-83280000D03*
G04 #@! TO.P,U3,6*
G04 #@! TO.N,Net-(U3-Pad6)*
X69765000Y-83280000D03*
G04 #@! TO.P,U3,7*
G04 #@! TO.N,Net-(U3-Pad7)*
X68495000Y-83280000D03*
G04 #@! TO.P,U3,8*
G04 #@! TO.N,Net-(U3-Pad8)*
X67225000Y-83280000D03*
G04 #@! TD*
D18*
G04 #@! TO.P,U1,2*
G04 #@! TO.N,+3V3*
X64780000Y-98280000D03*
D19*
X71080000Y-98280000D03*
G04 #@! TO.P,U1,3*
G04 #@! TO.N,+5V*
X71080000Y-95980000D03*
G04 #@! TO.P,U1,1*
G04 #@! TO.N,GNDD*
X71080000Y-100580000D03*
G04 #@! TD*
D20*
G04 #@! TO.P,U8,5*
G04 #@! TO.N,Net-(C24-Pad1)*
X92130000Y-90930000D03*
G04 #@! TO.P,U8,6*
G04 #@! TO.N,Net-(C23-Pad1)*
X92130000Y-89980000D03*
G04 #@! TO.P,U8,4*
G04 #@! TO.N,Net-(R11-Pad2)*
X92130000Y-91880000D03*
G04 #@! TO.P,U8,3*
G04 #@! TO.N,Net-(R13-Pad2)*
X89930000Y-91880000D03*
G04 #@! TO.P,U8,2*
G04 #@! TO.N,GNDA*
X89930000Y-90930000D03*
G04 #@! TO.P,U8,1*
G04 #@! TO.N,+4V*
X89930000Y-89980000D03*
G04 #@! TD*
G04 #@! TO.P,U7,1*
G04 #@! TO.N,+4V*
X80330000Y-90430000D03*
G04 #@! TO.P,U7,2*
G04 #@! TO.N,GNDA*
X80330000Y-91380000D03*
G04 #@! TO.P,U7,3*
G04 #@! TO.N,Net-(R14-Pad2)*
X80330000Y-92330000D03*
G04 #@! TO.P,U7,4*
G04 #@! TO.N,Net-(R12-Pad2)*
X82530000Y-92330000D03*
G04 #@! TO.P,U7,6*
G04 #@! TO.N,Net-(C20-Pad1)*
X82530000Y-90430000D03*
G04 #@! TO.P,U7,5*
G04 #@! TO.N,Net-(C21-Pad1)*
X82530000Y-91380000D03*
G04 #@! TD*
D12*
G04 #@! TO.N,Net-(C20-Pad2)*
G04 #@! TO.C,R7*
G36*
X86515779Y-86106144D02*
X86538834Y-86109563D01*
X86561443Y-86115227D01*
X86583387Y-86123079D01*
X86604457Y-86133044D01*
X86624448Y-86145026D01*
X86643168Y-86158910D01*
X86660438Y-86174562D01*
X86676090Y-86191832D01*
X86689974Y-86210552D01*
X86701956Y-86230543D01*
X86711921Y-86251613D01*
X86719773Y-86273557D01*
X86725437Y-86296166D01*
X86728856Y-86319221D01*
X86730000Y-86342500D01*
X86730000Y-86817500D01*
X86728856Y-86840779D01*
X86725437Y-86863834D01*
X86719773Y-86886443D01*
X86711921Y-86908387D01*
X86701956Y-86929457D01*
X86689974Y-86949448D01*
X86676090Y-86968168D01*
X86660438Y-86985438D01*
X86643168Y-87001090D01*
X86624448Y-87014974D01*
X86604457Y-87026956D01*
X86583387Y-87036921D01*
X86561443Y-87044773D01*
X86538834Y-87050437D01*
X86515779Y-87053856D01*
X86492500Y-87055000D01*
X85917500Y-87055000D01*
X85894221Y-87053856D01*
X85871166Y-87050437D01*
X85848557Y-87044773D01*
X85826613Y-87036921D01*
X85805543Y-87026956D01*
X85785552Y-87014974D01*
X85766832Y-87001090D01*
X85749562Y-86985438D01*
X85733910Y-86968168D01*
X85720026Y-86949448D01*
X85708044Y-86929457D01*
X85698079Y-86908387D01*
X85690227Y-86886443D01*
X85684563Y-86863834D01*
X85681144Y-86840779D01*
X85680000Y-86817500D01*
X85680000Y-86342500D01*
X85681144Y-86319221D01*
X85684563Y-86296166D01*
X85690227Y-86273557D01*
X85698079Y-86251613D01*
X85708044Y-86230543D01*
X85720026Y-86210552D01*
X85733910Y-86191832D01*
X85749562Y-86174562D01*
X85766832Y-86158910D01*
X85785552Y-86145026D01*
X85805543Y-86133044D01*
X85826613Y-86123079D01*
X85848557Y-86115227D01*
X85871166Y-86109563D01*
X85894221Y-86106144D01*
X85917500Y-86105000D01*
X86492500Y-86105000D01*
X86515779Y-86106144D01*
X86515779Y-86106144D01*
G37*
D13*
G04 #@! TD*
G04 #@! TO.P,R7,2*
G04 #@! TO.N,Net-(C20-Pad2)*
X86205000Y-86580000D03*
D12*
G04 #@! TO.N,+2V5*
G04 #@! TO.C,R7*
G36*
X84765779Y-86106144D02*
X84788834Y-86109563D01*
X84811443Y-86115227D01*
X84833387Y-86123079D01*
X84854457Y-86133044D01*
X84874448Y-86145026D01*
X84893168Y-86158910D01*
X84910438Y-86174562D01*
X84926090Y-86191832D01*
X84939974Y-86210552D01*
X84951956Y-86230543D01*
X84961921Y-86251613D01*
X84969773Y-86273557D01*
X84975437Y-86296166D01*
X84978856Y-86319221D01*
X84980000Y-86342500D01*
X84980000Y-86817500D01*
X84978856Y-86840779D01*
X84975437Y-86863834D01*
X84969773Y-86886443D01*
X84961921Y-86908387D01*
X84951956Y-86929457D01*
X84939974Y-86949448D01*
X84926090Y-86968168D01*
X84910438Y-86985438D01*
X84893168Y-87001090D01*
X84874448Y-87014974D01*
X84854457Y-87026956D01*
X84833387Y-87036921D01*
X84811443Y-87044773D01*
X84788834Y-87050437D01*
X84765779Y-87053856D01*
X84742500Y-87055000D01*
X84167500Y-87055000D01*
X84144221Y-87053856D01*
X84121166Y-87050437D01*
X84098557Y-87044773D01*
X84076613Y-87036921D01*
X84055543Y-87026956D01*
X84035552Y-87014974D01*
X84016832Y-87001090D01*
X83999562Y-86985438D01*
X83983910Y-86968168D01*
X83970026Y-86949448D01*
X83958044Y-86929457D01*
X83948079Y-86908387D01*
X83940227Y-86886443D01*
X83934563Y-86863834D01*
X83931144Y-86840779D01*
X83930000Y-86817500D01*
X83930000Y-86342500D01*
X83931144Y-86319221D01*
X83934563Y-86296166D01*
X83940227Y-86273557D01*
X83948079Y-86251613D01*
X83958044Y-86230543D01*
X83970026Y-86210552D01*
X83983910Y-86191832D01*
X83999562Y-86174562D01*
X84016832Y-86158910D01*
X84035552Y-86145026D01*
X84055543Y-86133044D01*
X84076613Y-86123079D01*
X84098557Y-86115227D01*
X84121166Y-86109563D01*
X84144221Y-86106144D01*
X84167500Y-86105000D01*
X84742500Y-86105000D01*
X84765779Y-86106144D01*
X84765779Y-86106144D01*
G37*
D13*
G04 #@! TD*
G04 #@! TO.P,R7,1*
G04 #@! TO.N,+2V5*
X84455000Y-86580000D03*
D12*
G04 #@! TO.N,Net-(R10-Pad1)*
G04 #@! TO.C,R10*
G36*
X92215779Y-85956144D02*
X92238834Y-85959563D01*
X92261443Y-85965227D01*
X92283387Y-85973079D01*
X92304457Y-85983044D01*
X92324448Y-85995026D01*
X92343168Y-86008910D01*
X92360438Y-86024562D01*
X92376090Y-86041832D01*
X92389974Y-86060552D01*
X92401956Y-86080543D01*
X92411921Y-86101613D01*
X92419773Y-86123557D01*
X92425437Y-86146166D01*
X92428856Y-86169221D01*
X92430000Y-86192500D01*
X92430000Y-86667500D01*
X92428856Y-86690779D01*
X92425437Y-86713834D01*
X92419773Y-86736443D01*
X92411921Y-86758387D01*
X92401956Y-86779457D01*
X92389974Y-86799448D01*
X92376090Y-86818168D01*
X92360438Y-86835438D01*
X92343168Y-86851090D01*
X92324448Y-86864974D01*
X92304457Y-86876956D01*
X92283387Y-86886921D01*
X92261443Y-86894773D01*
X92238834Y-86900437D01*
X92215779Y-86903856D01*
X92192500Y-86905000D01*
X91617500Y-86905000D01*
X91594221Y-86903856D01*
X91571166Y-86900437D01*
X91548557Y-86894773D01*
X91526613Y-86886921D01*
X91505543Y-86876956D01*
X91485552Y-86864974D01*
X91466832Y-86851090D01*
X91449562Y-86835438D01*
X91433910Y-86818168D01*
X91420026Y-86799448D01*
X91408044Y-86779457D01*
X91398079Y-86758387D01*
X91390227Y-86736443D01*
X91384563Y-86713834D01*
X91381144Y-86690779D01*
X91380000Y-86667500D01*
X91380000Y-86192500D01*
X91381144Y-86169221D01*
X91384563Y-86146166D01*
X91390227Y-86123557D01*
X91398079Y-86101613D01*
X91408044Y-86080543D01*
X91420026Y-86060552D01*
X91433910Y-86041832D01*
X91449562Y-86024562D01*
X91466832Y-86008910D01*
X91485552Y-85995026D01*
X91505543Y-85983044D01*
X91526613Y-85973079D01*
X91548557Y-85965227D01*
X91571166Y-85959563D01*
X91594221Y-85956144D01*
X91617500Y-85955000D01*
X92192500Y-85955000D01*
X92215779Y-85956144D01*
X92215779Y-85956144D01*
G37*
D13*
G04 #@! TD*
G04 #@! TO.P,R10,1*
G04 #@! TO.N,Net-(R10-Pad1)*
X91905000Y-86430000D03*
D12*
G04 #@! TO.N,+2V5*
G04 #@! TO.C,R10*
G36*
X90465779Y-85956144D02*
X90488834Y-85959563D01*
X90511443Y-85965227D01*
X90533387Y-85973079D01*
X90554457Y-85983044D01*
X90574448Y-85995026D01*
X90593168Y-86008910D01*
X90610438Y-86024562D01*
X90626090Y-86041832D01*
X90639974Y-86060552D01*
X90651956Y-86080543D01*
X90661921Y-86101613D01*
X90669773Y-86123557D01*
X90675437Y-86146166D01*
X90678856Y-86169221D01*
X90680000Y-86192500D01*
X90680000Y-86667500D01*
X90678856Y-86690779D01*
X90675437Y-86713834D01*
X90669773Y-86736443D01*
X90661921Y-86758387D01*
X90651956Y-86779457D01*
X90639974Y-86799448D01*
X90626090Y-86818168D01*
X90610438Y-86835438D01*
X90593168Y-86851090D01*
X90574448Y-86864974D01*
X90554457Y-86876956D01*
X90533387Y-86886921D01*
X90511443Y-86894773D01*
X90488834Y-86900437D01*
X90465779Y-86903856D01*
X90442500Y-86905000D01*
X89867500Y-86905000D01*
X89844221Y-86903856D01*
X89821166Y-86900437D01*
X89798557Y-86894773D01*
X89776613Y-86886921D01*
X89755543Y-86876956D01*
X89735552Y-86864974D01*
X89716832Y-86851090D01*
X89699562Y-86835438D01*
X89683910Y-86818168D01*
X89670026Y-86799448D01*
X89658044Y-86779457D01*
X89648079Y-86758387D01*
X89640227Y-86736443D01*
X89634563Y-86713834D01*
X89631144Y-86690779D01*
X89630000Y-86667500D01*
X89630000Y-86192500D01*
X89631144Y-86169221D01*
X89634563Y-86146166D01*
X89640227Y-86123557D01*
X89648079Y-86101613D01*
X89658044Y-86080543D01*
X89670026Y-86060552D01*
X89683910Y-86041832D01*
X89699562Y-86024562D01*
X89716832Y-86008910D01*
X89735552Y-85995026D01*
X89755543Y-85983044D01*
X89776613Y-85973079D01*
X89798557Y-85965227D01*
X89821166Y-85959563D01*
X89844221Y-85956144D01*
X89867500Y-85955000D01*
X90442500Y-85955000D01*
X90465779Y-85956144D01*
X90465779Y-85956144D01*
G37*
D13*
G04 #@! TD*
G04 #@! TO.P,R10,2*
G04 #@! TO.N,+2V5*
X90155000Y-86430000D03*
D12*
G04 #@! TO.N,Net-(R11-Pad2)*
G04 #@! TO.C,R11*
G36*
X92190779Y-93131144D02*
X92213834Y-93134563D01*
X92236443Y-93140227D01*
X92258387Y-93148079D01*
X92279457Y-93158044D01*
X92299448Y-93170026D01*
X92318168Y-93183910D01*
X92335438Y-93199562D01*
X92351090Y-93216832D01*
X92364974Y-93235552D01*
X92376956Y-93255543D01*
X92386921Y-93276613D01*
X92394773Y-93298557D01*
X92400437Y-93321166D01*
X92403856Y-93344221D01*
X92405000Y-93367500D01*
X92405000Y-93942500D01*
X92403856Y-93965779D01*
X92400437Y-93988834D01*
X92394773Y-94011443D01*
X92386921Y-94033387D01*
X92376956Y-94054457D01*
X92364974Y-94074448D01*
X92351090Y-94093168D01*
X92335438Y-94110438D01*
X92318168Y-94126090D01*
X92299448Y-94139974D01*
X92279457Y-94151956D01*
X92258387Y-94161921D01*
X92236443Y-94169773D01*
X92213834Y-94175437D01*
X92190779Y-94178856D01*
X92167500Y-94180000D01*
X91692500Y-94180000D01*
X91669221Y-94178856D01*
X91646166Y-94175437D01*
X91623557Y-94169773D01*
X91601613Y-94161921D01*
X91580543Y-94151956D01*
X91560552Y-94139974D01*
X91541832Y-94126090D01*
X91524562Y-94110438D01*
X91508910Y-94093168D01*
X91495026Y-94074448D01*
X91483044Y-94054457D01*
X91473079Y-94033387D01*
X91465227Y-94011443D01*
X91459563Y-93988834D01*
X91456144Y-93965779D01*
X91455000Y-93942500D01*
X91455000Y-93367500D01*
X91456144Y-93344221D01*
X91459563Y-93321166D01*
X91465227Y-93298557D01*
X91473079Y-93276613D01*
X91483044Y-93255543D01*
X91495026Y-93235552D01*
X91508910Y-93216832D01*
X91524562Y-93199562D01*
X91541832Y-93183910D01*
X91560552Y-93170026D01*
X91580543Y-93158044D01*
X91601613Y-93148079D01*
X91623557Y-93140227D01*
X91646166Y-93134563D01*
X91669221Y-93131144D01*
X91692500Y-93130000D01*
X92167500Y-93130000D01*
X92190779Y-93131144D01*
X92190779Y-93131144D01*
G37*
D13*
G04 #@! TD*
G04 #@! TO.P,R11,2*
G04 #@! TO.N,Net-(R11-Pad2)*
X91930000Y-93655000D03*
D12*
G04 #@! TO.N,/U8~CS*
G04 #@! TO.C,R11*
G36*
X92190779Y-94881144D02*
X92213834Y-94884563D01*
X92236443Y-94890227D01*
X92258387Y-94898079D01*
X92279457Y-94908044D01*
X92299448Y-94920026D01*
X92318168Y-94933910D01*
X92335438Y-94949562D01*
X92351090Y-94966832D01*
X92364974Y-94985552D01*
X92376956Y-95005543D01*
X92386921Y-95026613D01*
X92394773Y-95048557D01*
X92400437Y-95071166D01*
X92403856Y-95094221D01*
X92405000Y-95117500D01*
X92405000Y-95692500D01*
X92403856Y-95715779D01*
X92400437Y-95738834D01*
X92394773Y-95761443D01*
X92386921Y-95783387D01*
X92376956Y-95804457D01*
X92364974Y-95824448D01*
X92351090Y-95843168D01*
X92335438Y-95860438D01*
X92318168Y-95876090D01*
X92299448Y-95889974D01*
X92279457Y-95901956D01*
X92258387Y-95911921D01*
X92236443Y-95919773D01*
X92213834Y-95925437D01*
X92190779Y-95928856D01*
X92167500Y-95930000D01*
X91692500Y-95930000D01*
X91669221Y-95928856D01*
X91646166Y-95925437D01*
X91623557Y-95919773D01*
X91601613Y-95911921D01*
X91580543Y-95901956D01*
X91560552Y-95889974D01*
X91541832Y-95876090D01*
X91524562Y-95860438D01*
X91508910Y-95843168D01*
X91495026Y-95824448D01*
X91483044Y-95804457D01*
X91473079Y-95783387D01*
X91465227Y-95761443D01*
X91459563Y-95738834D01*
X91456144Y-95715779D01*
X91455000Y-95692500D01*
X91455000Y-95117500D01*
X91456144Y-95094221D01*
X91459563Y-95071166D01*
X91465227Y-95048557D01*
X91473079Y-95026613D01*
X91483044Y-95005543D01*
X91495026Y-94985552D01*
X91508910Y-94966832D01*
X91524562Y-94949562D01*
X91541832Y-94933910D01*
X91560552Y-94920026D01*
X91580543Y-94908044D01*
X91601613Y-94898079D01*
X91623557Y-94890227D01*
X91646166Y-94884563D01*
X91669221Y-94881144D01*
X91692500Y-94880000D01*
X92167500Y-94880000D01*
X92190779Y-94881144D01*
X92190779Y-94881144D01*
G37*
D13*
G04 #@! TD*
G04 #@! TO.P,R11,1*
G04 #@! TO.N,/U8~CS*
X91930000Y-95405000D03*
D12*
G04 #@! TO.N,/U7~CS*
G04 #@! TO.C,R12*
G36*
X81990779Y-95331144D02*
X82013834Y-95334563D01*
X82036443Y-95340227D01*
X82058387Y-95348079D01*
X82079457Y-95358044D01*
X82099448Y-95370026D01*
X82118168Y-95383910D01*
X82135438Y-95399562D01*
X82151090Y-95416832D01*
X82164974Y-95435552D01*
X82176956Y-95455543D01*
X82186921Y-95476613D01*
X82194773Y-95498557D01*
X82200437Y-95521166D01*
X82203856Y-95544221D01*
X82205000Y-95567500D01*
X82205000Y-96142500D01*
X82203856Y-96165779D01*
X82200437Y-96188834D01*
X82194773Y-96211443D01*
X82186921Y-96233387D01*
X82176956Y-96254457D01*
X82164974Y-96274448D01*
X82151090Y-96293168D01*
X82135438Y-96310438D01*
X82118168Y-96326090D01*
X82099448Y-96339974D01*
X82079457Y-96351956D01*
X82058387Y-96361921D01*
X82036443Y-96369773D01*
X82013834Y-96375437D01*
X81990779Y-96378856D01*
X81967500Y-96380000D01*
X81492500Y-96380000D01*
X81469221Y-96378856D01*
X81446166Y-96375437D01*
X81423557Y-96369773D01*
X81401613Y-96361921D01*
X81380543Y-96351956D01*
X81360552Y-96339974D01*
X81341832Y-96326090D01*
X81324562Y-96310438D01*
X81308910Y-96293168D01*
X81295026Y-96274448D01*
X81283044Y-96254457D01*
X81273079Y-96233387D01*
X81265227Y-96211443D01*
X81259563Y-96188834D01*
X81256144Y-96165779D01*
X81255000Y-96142500D01*
X81255000Y-95567500D01*
X81256144Y-95544221D01*
X81259563Y-95521166D01*
X81265227Y-95498557D01*
X81273079Y-95476613D01*
X81283044Y-95455543D01*
X81295026Y-95435552D01*
X81308910Y-95416832D01*
X81324562Y-95399562D01*
X81341832Y-95383910D01*
X81360552Y-95370026D01*
X81380543Y-95358044D01*
X81401613Y-95348079D01*
X81423557Y-95340227D01*
X81446166Y-95334563D01*
X81469221Y-95331144D01*
X81492500Y-95330000D01*
X81967500Y-95330000D01*
X81990779Y-95331144D01*
X81990779Y-95331144D01*
G37*
D13*
G04 #@! TD*
G04 #@! TO.P,R12,1*
G04 #@! TO.N,/U7~CS*
X81730000Y-95855000D03*
D12*
G04 #@! TO.N,Net-(R12-Pad2)*
G04 #@! TO.C,R12*
G36*
X81990779Y-93581144D02*
X82013834Y-93584563D01*
X82036443Y-93590227D01*
X82058387Y-93598079D01*
X82079457Y-93608044D01*
X82099448Y-93620026D01*
X82118168Y-93633910D01*
X82135438Y-93649562D01*
X82151090Y-93666832D01*
X82164974Y-93685552D01*
X82176956Y-93705543D01*
X82186921Y-93726613D01*
X82194773Y-93748557D01*
X82200437Y-93771166D01*
X82203856Y-93794221D01*
X82205000Y-93817500D01*
X82205000Y-94392500D01*
X82203856Y-94415779D01*
X82200437Y-94438834D01*
X82194773Y-94461443D01*
X82186921Y-94483387D01*
X82176956Y-94504457D01*
X82164974Y-94524448D01*
X82151090Y-94543168D01*
X82135438Y-94560438D01*
X82118168Y-94576090D01*
X82099448Y-94589974D01*
X82079457Y-94601956D01*
X82058387Y-94611921D01*
X82036443Y-94619773D01*
X82013834Y-94625437D01*
X81990779Y-94628856D01*
X81967500Y-94630000D01*
X81492500Y-94630000D01*
X81469221Y-94628856D01*
X81446166Y-94625437D01*
X81423557Y-94619773D01*
X81401613Y-94611921D01*
X81380543Y-94601956D01*
X81360552Y-94589974D01*
X81341832Y-94576090D01*
X81324562Y-94560438D01*
X81308910Y-94543168D01*
X81295026Y-94524448D01*
X81283044Y-94504457D01*
X81273079Y-94483387D01*
X81265227Y-94461443D01*
X81259563Y-94438834D01*
X81256144Y-94415779D01*
X81255000Y-94392500D01*
X81255000Y-93817500D01*
X81256144Y-93794221D01*
X81259563Y-93771166D01*
X81265227Y-93748557D01*
X81273079Y-93726613D01*
X81283044Y-93705543D01*
X81295026Y-93685552D01*
X81308910Y-93666832D01*
X81324562Y-93649562D01*
X81341832Y-93633910D01*
X81360552Y-93620026D01*
X81380543Y-93608044D01*
X81401613Y-93598079D01*
X81423557Y-93590227D01*
X81446166Y-93584563D01*
X81469221Y-93581144D01*
X81492500Y-93580000D01*
X81967500Y-93580000D01*
X81990779Y-93581144D01*
X81990779Y-93581144D01*
G37*
D13*
G04 #@! TD*
G04 #@! TO.P,R12,2*
G04 #@! TO.N,Net-(R12-Pad2)*
X81730000Y-94105000D03*
D12*
G04 #@! TO.N,Net-(R14-Pad2)*
G04 #@! TO.C,R14*
G36*
X80190779Y-93581144D02*
X80213834Y-93584563D01*
X80236443Y-93590227D01*
X80258387Y-93598079D01*
X80279457Y-93608044D01*
X80299448Y-93620026D01*
X80318168Y-93633910D01*
X80335438Y-93649562D01*
X80351090Y-93666832D01*
X80364974Y-93685552D01*
X80376956Y-93705543D01*
X80386921Y-93726613D01*
X80394773Y-93748557D01*
X80400437Y-93771166D01*
X80403856Y-93794221D01*
X80405000Y-93817500D01*
X80405000Y-94392500D01*
X80403856Y-94415779D01*
X80400437Y-94438834D01*
X80394773Y-94461443D01*
X80386921Y-94483387D01*
X80376956Y-94504457D01*
X80364974Y-94524448D01*
X80351090Y-94543168D01*
X80335438Y-94560438D01*
X80318168Y-94576090D01*
X80299448Y-94589974D01*
X80279457Y-94601956D01*
X80258387Y-94611921D01*
X80236443Y-94619773D01*
X80213834Y-94625437D01*
X80190779Y-94628856D01*
X80167500Y-94630000D01*
X79692500Y-94630000D01*
X79669221Y-94628856D01*
X79646166Y-94625437D01*
X79623557Y-94619773D01*
X79601613Y-94611921D01*
X79580543Y-94601956D01*
X79560552Y-94589974D01*
X79541832Y-94576090D01*
X79524562Y-94560438D01*
X79508910Y-94543168D01*
X79495026Y-94524448D01*
X79483044Y-94504457D01*
X79473079Y-94483387D01*
X79465227Y-94461443D01*
X79459563Y-94438834D01*
X79456144Y-94415779D01*
X79455000Y-94392500D01*
X79455000Y-93817500D01*
X79456144Y-93794221D01*
X79459563Y-93771166D01*
X79465227Y-93748557D01*
X79473079Y-93726613D01*
X79483044Y-93705543D01*
X79495026Y-93685552D01*
X79508910Y-93666832D01*
X79524562Y-93649562D01*
X79541832Y-93633910D01*
X79560552Y-93620026D01*
X79580543Y-93608044D01*
X79601613Y-93598079D01*
X79623557Y-93590227D01*
X79646166Y-93584563D01*
X79669221Y-93581144D01*
X79692500Y-93580000D01*
X80167500Y-93580000D01*
X80190779Y-93581144D01*
X80190779Y-93581144D01*
G37*
D13*
G04 #@! TD*
G04 #@! TO.P,R14,2*
G04 #@! TO.N,Net-(R14-Pad2)*
X79930000Y-94105000D03*
D12*
G04 #@! TO.N,/U7U~D*
G04 #@! TO.C,R14*
G36*
X80190779Y-95331144D02*
X80213834Y-95334563D01*
X80236443Y-95340227D01*
X80258387Y-95348079D01*
X80279457Y-95358044D01*
X80299448Y-95370026D01*
X80318168Y-95383910D01*
X80335438Y-95399562D01*
X80351090Y-95416832D01*
X80364974Y-95435552D01*
X80376956Y-95455543D01*
X80386921Y-95476613D01*
X80394773Y-95498557D01*
X80400437Y-95521166D01*
X80403856Y-95544221D01*
X80405000Y-95567500D01*
X80405000Y-96142500D01*
X80403856Y-96165779D01*
X80400437Y-96188834D01*
X80394773Y-96211443D01*
X80386921Y-96233387D01*
X80376956Y-96254457D01*
X80364974Y-96274448D01*
X80351090Y-96293168D01*
X80335438Y-96310438D01*
X80318168Y-96326090D01*
X80299448Y-96339974D01*
X80279457Y-96351956D01*
X80258387Y-96361921D01*
X80236443Y-96369773D01*
X80213834Y-96375437D01*
X80190779Y-96378856D01*
X80167500Y-96380000D01*
X79692500Y-96380000D01*
X79669221Y-96378856D01*
X79646166Y-96375437D01*
X79623557Y-96369773D01*
X79601613Y-96361921D01*
X79580543Y-96351956D01*
X79560552Y-96339974D01*
X79541832Y-96326090D01*
X79524562Y-96310438D01*
X79508910Y-96293168D01*
X79495026Y-96274448D01*
X79483044Y-96254457D01*
X79473079Y-96233387D01*
X79465227Y-96211443D01*
X79459563Y-96188834D01*
X79456144Y-96165779D01*
X79455000Y-96142500D01*
X79455000Y-95567500D01*
X79456144Y-95544221D01*
X79459563Y-95521166D01*
X79465227Y-95498557D01*
X79473079Y-95476613D01*
X79483044Y-95455543D01*
X79495026Y-95435552D01*
X79508910Y-95416832D01*
X79524562Y-95399562D01*
X79541832Y-95383910D01*
X79560552Y-95370026D01*
X79580543Y-95358044D01*
X79601613Y-95348079D01*
X79623557Y-95340227D01*
X79646166Y-95334563D01*
X79669221Y-95331144D01*
X79692500Y-95330000D01*
X80167500Y-95330000D01*
X80190779Y-95331144D01*
X80190779Y-95331144D01*
G37*
D13*
G04 #@! TD*
G04 #@! TO.P,R14,1*
G04 #@! TO.N,/U7U~D*
X79930000Y-95855000D03*
D12*
G04 #@! TO.N,Net-(R16-Pad1)*
G04 #@! TO.C,R16*
G36*
X99690779Y-86031144D02*
X99713834Y-86034563D01*
X99736443Y-86040227D01*
X99758387Y-86048079D01*
X99779457Y-86058044D01*
X99799448Y-86070026D01*
X99818168Y-86083910D01*
X99835438Y-86099562D01*
X99851090Y-86116832D01*
X99864974Y-86135552D01*
X99876956Y-86155543D01*
X99886921Y-86176613D01*
X99894773Y-86198557D01*
X99900437Y-86221166D01*
X99903856Y-86244221D01*
X99905000Y-86267500D01*
X99905000Y-86842500D01*
X99903856Y-86865779D01*
X99900437Y-86888834D01*
X99894773Y-86911443D01*
X99886921Y-86933387D01*
X99876956Y-86954457D01*
X99864974Y-86974448D01*
X99851090Y-86993168D01*
X99835438Y-87010438D01*
X99818168Y-87026090D01*
X99799448Y-87039974D01*
X99779457Y-87051956D01*
X99758387Y-87061921D01*
X99736443Y-87069773D01*
X99713834Y-87075437D01*
X99690779Y-87078856D01*
X99667500Y-87080000D01*
X99192500Y-87080000D01*
X99169221Y-87078856D01*
X99146166Y-87075437D01*
X99123557Y-87069773D01*
X99101613Y-87061921D01*
X99080543Y-87051956D01*
X99060552Y-87039974D01*
X99041832Y-87026090D01*
X99024562Y-87010438D01*
X99008910Y-86993168D01*
X98995026Y-86974448D01*
X98983044Y-86954457D01*
X98973079Y-86933387D01*
X98965227Y-86911443D01*
X98959563Y-86888834D01*
X98956144Y-86865779D01*
X98955000Y-86842500D01*
X98955000Y-86267500D01*
X98956144Y-86244221D01*
X98959563Y-86221166D01*
X98965227Y-86198557D01*
X98973079Y-86176613D01*
X98983044Y-86155543D01*
X98995026Y-86135552D01*
X99008910Y-86116832D01*
X99024562Y-86099562D01*
X99041832Y-86083910D01*
X99060552Y-86070026D01*
X99080543Y-86058044D01*
X99101613Y-86048079D01*
X99123557Y-86040227D01*
X99146166Y-86034563D01*
X99169221Y-86031144D01*
X99192500Y-86030000D01*
X99667500Y-86030000D01*
X99690779Y-86031144D01*
X99690779Y-86031144D01*
G37*
D13*
G04 #@! TD*
G04 #@! TO.P,R16,1*
G04 #@! TO.N,Net-(R16-Pad1)*
X99430000Y-86555000D03*
D12*
G04 #@! TO.N,Net-(R16-Pad2)*
G04 #@! TO.C,R16*
G36*
X99690779Y-84281144D02*
X99713834Y-84284563D01*
X99736443Y-84290227D01*
X99758387Y-84298079D01*
X99779457Y-84308044D01*
X99799448Y-84320026D01*
X99818168Y-84333910D01*
X99835438Y-84349562D01*
X99851090Y-84366832D01*
X99864974Y-84385552D01*
X99876956Y-84405543D01*
X99886921Y-84426613D01*
X99894773Y-84448557D01*
X99900437Y-84471166D01*
X99903856Y-84494221D01*
X99905000Y-84517500D01*
X99905000Y-85092500D01*
X99903856Y-85115779D01*
X99900437Y-85138834D01*
X99894773Y-85161443D01*
X99886921Y-85183387D01*
X99876956Y-85204457D01*
X99864974Y-85224448D01*
X99851090Y-85243168D01*
X99835438Y-85260438D01*
X99818168Y-85276090D01*
X99799448Y-85289974D01*
X99779457Y-85301956D01*
X99758387Y-85311921D01*
X99736443Y-85319773D01*
X99713834Y-85325437D01*
X99690779Y-85328856D01*
X99667500Y-85330000D01*
X99192500Y-85330000D01*
X99169221Y-85328856D01*
X99146166Y-85325437D01*
X99123557Y-85319773D01*
X99101613Y-85311921D01*
X99080543Y-85301956D01*
X99060552Y-85289974D01*
X99041832Y-85276090D01*
X99024562Y-85260438D01*
X99008910Y-85243168D01*
X98995026Y-85224448D01*
X98983044Y-85204457D01*
X98973079Y-85183387D01*
X98965227Y-85161443D01*
X98959563Y-85138834D01*
X98956144Y-85115779D01*
X98955000Y-85092500D01*
X98955000Y-84517500D01*
X98956144Y-84494221D01*
X98959563Y-84471166D01*
X98965227Y-84448557D01*
X98973079Y-84426613D01*
X98983044Y-84405543D01*
X98995026Y-84385552D01*
X99008910Y-84366832D01*
X99024562Y-84349562D01*
X99041832Y-84333910D01*
X99060552Y-84320026D01*
X99080543Y-84308044D01*
X99101613Y-84298079D01*
X99123557Y-84290227D01*
X99146166Y-84284563D01*
X99169221Y-84281144D01*
X99192500Y-84280000D01*
X99667500Y-84280000D01*
X99690779Y-84281144D01*
X99690779Y-84281144D01*
G37*
D13*
G04 #@! TD*
G04 #@! TO.P,R16,2*
G04 #@! TO.N,Net-(R16-Pad2)*
X99430000Y-84805000D03*
D12*
G04 #@! TO.N,Net-(R13-Pad2)*
G04 #@! TO.C,R13*
G36*
X90540779Y-93131144D02*
X90563834Y-93134563D01*
X90586443Y-93140227D01*
X90608387Y-93148079D01*
X90629457Y-93158044D01*
X90649448Y-93170026D01*
X90668168Y-93183910D01*
X90685438Y-93199562D01*
X90701090Y-93216832D01*
X90714974Y-93235552D01*
X90726956Y-93255543D01*
X90736921Y-93276613D01*
X90744773Y-93298557D01*
X90750437Y-93321166D01*
X90753856Y-93344221D01*
X90755000Y-93367500D01*
X90755000Y-93942500D01*
X90753856Y-93965779D01*
X90750437Y-93988834D01*
X90744773Y-94011443D01*
X90736921Y-94033387D01*
X90726956Y-94054457D01*
X90714974Y-94074448D01*
X90701090Y-94093168D01*
X90685438Y-94110438D01*
X90668168Y-94126090D01*
X90649448Y-94139974D01*
X90629457Y-94151956D01*
X90608387Y-94161921D01*
X90586443Y-94169773D01*
X90563834Y-94175437D01*
X90540779Y-94178856D01*
X90517500Y-94180000D01*
X90042500Y-94180000D01*
X90019221Y-94178856D01*
X89996166Y-94175437D01*
X89973557Y-94169773D01*
X89951613Y-94161921D01*
X89930543Y-94151956D01*
X89910552Y-94139974D01*
X89891832Y-94126090D01*
X89874562Y-94110438D01*
X89858910Y-94093168D01*
X89845026Y-94074448D01*
X89833044Y-94054457D01*
X89823079Y-94033387D01*
X89815227Y-94011443D01*
X89809563Y-93988834D01*
X89806144Y-93965779D01*
X89805000Y-93942500D01*
X89805000Y-93367500D01*
X89806144Y-93344221D01*
X89809563Y-93321166D01*
X89815227Y-93298557D01*
X89823079Y-93276613D01*
X89833044Y-93255543D01*
X89845026Y-93235552D01*
X89858910Y-93216832D01*
X89874562Y-93199562D01*
X89891832Y-93183910D01*
X89910552Y-93170026D01*
X89930543Y-93158044D01*
X89951613Y-93148079D01*
X89973557Y-93140227D01*
X89996166Y-93134563D01*
X90019221Y-93131144D01*
X90042500Y-93130000D01*
X90517500Y-93130000D01*
X90540779Y-93131144D01*
X90540779Y-93131144D01*
G37*
D13*
G04 #@! TD*
G04 #@! TO.P,R13,2*
G04 #@! TO.N,Net-(R13-Pad2)*
X90280000Y-93655000D03*
D12*
G04 #@! TO.N,/U8U~D*
G04 #@! TO.C,R13*
G36*
X90540779Y-94881144D02*
X90563834Y-94884563D01*
X90586443Y-94890227D01*
X90608387Y-94898079D01*
X90629457Y-94908044D01*
X90649448Y-94920026D01*
X90668168Y-94933910D01*
X90685438Y-94949562D01*
X90701090Y-94966832D01*
X90714974Y-94985552D01*
X90726956Y-95005543D01*
X90736921Y-95026613D01*
X90744773Y-95048557D01*
X90750437Y-95071166D01*
X90753856Y-95094221D01*
X90755000Y-95117500D01*
X90755000Y-95692500D01*
X90753856Y-95715779D01*
X90750437Y-95738834D01*
X90744773Y-95761443D01*
X90736921Y-95783387D01*
X90726956Y-95804457D01*
X90714974Y-95824448D01*
X90701090Y-95843168D01*
X90685438Y-95860438D01*
X90668168Y-95876090D01*
X90649448Y-95889974D01*
X90629457Y-95901956D01*
X90608387Y-95911921D01*
X90586443Y-95919773D01*
X90563834Y-95925437D01*
X90540779Y-95928856D01*
X90517500Y-95930000D01*
X90042500Y-95930000D01*
X90019221Y-95928856D01*
X89996166Y-95925437D01*
X89973557Y-95919773D01*
X89951613Y-95911921D01*
X89930543Y-95901956D01*
X89910552Y-95889974D01*
X89891832Y-95876090D01*
X89874562Y-95860438D01*
X89858910Y-95843168D01*
X89845026Y-95824448D01*
X89833044Y-95804457D01*
X89823079Y-95783387D01*
X89815227Y-95761443D01*
X89809563Y-95738834D01*
X89806144Y-95715779D01*
X89805000Y-95692500D01*
X89805000Y-95117500D01*
X89806144Y-95094221D01*
X89809563Y-95071166D01*
X89815227Y-95048557D01*
X89823079Y-95026613D01*
X89833044Y-95005543D01*
X89845026Y-94985552D01*
X89858910Y-94966832D01*
X89874562Y-94949562D01*
X89891832Y-94933910D01*
X89910552Y-94920026D01*
X89930543Y-94908044D01*
X89951613Y-94898079D01*
X89973557Y-94890227D01*
X89996166Y-94884563D01*
X90019221Y-94881144D01*
X90042500Y-94880000D01*
X90517500Y-94880000D01*
X90540779Y-94881144D01*
X90540779Y-94881144D01*
G37*
D13*
G04 #@! TD*
G04 #@! TO.P,R13,1*
G04 #@! TO.N,/U8U~D*
X90280000Y-95405000D03*
D12*
G04 #@! TO.N,Net-(C23-Pad1)*
G04 #@! TO.C,R9*
G36*
X92215779Y-87756144D02*
X92238834Y-87759563D01*
X92261443Y-87765227D01*
X92283387Y-87773079D01*
X92304457Y-87783044D01*
X92324448Y-87795026D01*
X92343168Y-87808910D01*
X92360438Y-87824562D01*
X92376090Y-87841832D01*
X92389974Y-87860552D01*
X92401956Y-87880543D01*
X92411921Y-87901613D01*
X92419773Y-87923557D01*
X92425437Y-87946166D01*
X92428856Y-87969221D01*
X92430000Y-87992500D01*
X92430000Y-88467500D01*
X92428856Y-88490779D01*
X92425437Y-88513834D01*
X92419773Y-88536443D01*
X92411921Y-88558387D01*
X92401956Y-88579457D01*
X92389974Y-88599448D01*
X92376090Y-88618168D01*
X92360438Y-88635438D01*
X92343168Y-88651090D01*
X92324448Y-88664974D01*
X92304457Y-88676956D01*
X92283387Y-88686921D01*
X92261443Y-88694773D01*
X92238834Y-88700437D01*
X92215779Y-88703856D01*
X92192500Y-88705000D01*
X91617500Y-88705000D01*
X91594221Y-88703856D01*
X91571166Y-88700437D01*
X91548557Y-88694773D01*
X91526613Y-88686921D01*
X91505543Y-88676956D01*
X91485552Y-88664974D01*
X91466832Y-88651090D01*
X91449562Y-88635438D01*
X91433910Y-88618168D01*
X91420026Y-88599448D01*
X91408044Y-88579457D01*
X91398079Y-88558387D01*
X91390227Y-88536443D01*
X91384563Y-88513834D01*
X91381144Y-88490779D01*
X91380000Y-88467500D01*
X91380000Y-87992500D01*
X91381144Y-87969221D01*
X91384563Y-87946166D01*
X91390227Y-87923557D01*
X91398079Y-87901613D01*
X91408044Y-87880543D01*
X91420026Y-87860552D01*
X91433910Y-87841832D01*
X91449562Y-87824562D01*
X91466832Y-87808910D01*
X91485552Y-87795026D01*
X91505543Y-87783044D01*
X91526613Y-87773079D01*
X91548557Y-87765227D01*
X91571166Y-87759563D01*
X91594221Y-87756144D01*
X91617500Y-87755000D01*
X92192500Y-87755000D01*
X92215779Y-87756144D01*
X92215779Y-87756144D01*
G37*
D13*
G04 #@! TD*
G04 #@! TO.P,R9,1*
G04 #@! TO.N,Net-(C23-Pad1)*
X91905000Y-88230000D03*
D12*
G04 #@! TO.N,Net-(C21-Pad1)*
G04 #@! TO.C,R9*
G36*
X90465779Y-87756144D02*
X90488834Y-87759563D01*
X90511443Y-87765227D01*
X90533387Y-87773079D01*
X90554457Y-87783044D01*
X90574448Y-87795026D01*
X90593168Y-87808910D01*
X90610438Y-87824562D01*
X90626090Y-87841832D01*
X90639974Y-87860552D01*
X90651956Y-87880543D01*
X90661921Y-87901613D01*
X90669773Y-87923557D01*
X90675437Y-87946166D01*
X90678856Y-87969221D01*
X90680000Y-87992500D01*
X90680000Y-88467500D01*
X90678856Y-88490779D01*
X90675437Y-88513834D01*
X90669773Y-88536443D01*
X90661921Y-88558387D01*
X90651956Y-88579457D01*
X90639974Y-88599448D01*
X90626090Y-88618168D01*
X90610438Y-88635438D01*
X90593168Y-88651090D01*
X90574448Y-88664974D01*
X90554457Y-88676956D01*
X90533387Y-88686921D01*
X90511443Y-88694773D01*
X90488834Y-88700437D01*
X90465779Y-88703856D01*
X90442500Y-88705000D01*
X89867500Y-88705000D01*
X89844221Y-88703856D01*
X89821166Y-88700437D01*
X89798557Y-88694773D01*
X89776613Y-88686921D01*
X89755543Y-88676956D01*
X89735552Y-88664974D01*
X89716832Y-88651090D01*
X89699562Y-88635438D01*
X89683910Y-88618168D01*
X89670026Y-88599448D01*
X89658044Y-88579457D01*
X89648079Y-88558387D01*
X89640227Y-88536443D01*
X89634563Y-88513834D01*
X89631144Y-88490779D01*
X89630000Y-88467500D01*
X89630000Y-87992500D01*
X89631144Y-87969221D01*
X89634563Y-87946166D01*
X89640227Y-87923557D01*
X89648079Y-87901613D01*
X89658044Y-87880543D01*
X89670026Y-87860552D01*
X89683910Y-87841832D01*
X89699562Y-87824562D01*
X89716832Y-87808910D01*
X89735552Y-87795026D01*
X89755543Y-87783044D01*
X89776613Y-87773079D01*
X89798557Y-87765227D01*
X89821166Y-87759563D01*
X89844221Y-87756144D01*
X89867500Y-87755000D01*
X90442500Y-87755000D01*
X90465779Y-87756144D01*
X90465779Y-87756144D01*
G37*
D13*
G04 #@! TD*
G04 #@! TO.P,R9,2*
G04 #@! TO.N,Net-(C21-Pad1)*
X90155000Y-88230000D03*
D12*
G04 #@! TO.N,Net-(R1-Pad2)*
G04 #@! TO.C,R1*
G36*
X101815779Y-92406144D02*
X101838834Y-92409563D01*
X101861443Y-92415227D01*
X101883387Y-92423079D01*
X101904457Y-92433044D01*
X101924448Y-92445026D01*
X101943168Y-92458910D01*
X101960438Y-92474562D01*
X101976090Y-92491832D01*
X101989974Y-92510552D01*
X102001956Y-92530543D01*
X102011921Y-92551613D01*
X102019773Y-92573557D01*
X102025437Y-92596166D01*
X102028856Y-92619221D01*
X102030000Y-92642500D01*
X102030000Y-93117500D01*
X102028856Y-93140779D01*
X102025437Y-93163834D01*
X102019773Y-93186443D01*
X102011921Y-93208387D01*
X102001956Y-93229457D01*
X101989974Y-93249448D01*
X101976090Y-93268168D01*
X101960438Y-93285438D01*
X101943168Y-93301090D01*
X101924448Y-93314974D01*
X101904457Y-93326956D01*
X101883387Y-93336921D01*
X101861443Y-93344773D01*
X101838834Y-93350437D01*
X101815779Y-93353856D01*
X101792500Y-93355000D01*
X101217500Y-93355000D01*
X101194221Y-93353856D01*
X101171166Y-93350437D01*
X101148557Y-93344773D01*
X101126613Y-93336921D01*
X101105543Y-93326956D01*
X101085552Y-93314974D01*
X101066832Y-93301090D01*
X101049562Y-93285438D01*
X101033910Y-93268168D01*
X101020026Y-93249448D01*
X101008044Y-93229457D01*
X100998079Y-93208387D01*
X100990227Y-93186443D01*
X100984563Y-93163834D01*
X100981144Y-93140779D01*
X100980000Y-93117500D01*
X100980000Y-92642500D01*
X100981144Y-92619221D01*
X100984563Y-92596166D01*
X100990227Y-92573557D01*
X100998079Y-92551613D01*
X101008044Y-92530543D01*
X101020026Y-92510552D01*
X101033910Y-92491832D01*
X101049562Y-92474562D01*
X101066832Y-92458910D01*
X101085552Y-92445026D01*
X101105543Y-92433044D01*
X101126613Y-92423079D01*
X101148557Y-92415227D01*
X101171166Y-92409563D01*
X101194221Y-92406144D01*
X101217500Y-92405000D01*
X101792500Y-92405000D01*
X101815779Y-92406144D01*
X101815779Y-92406144D01*
G37*
D13*
G04 #@! TD*
G04 #@! TO.P,R1,2*
G04 #@! TO.N,Net-(R1-Pad2)*
X101505000Y-92880000D03*
D12*
G04 #@! TO.N,GNDD*
G04 #@! TO.C,R1*
G36*
X100065779Y-92406144D02*
X100088834Y-92409563D01*
X100111443Y-92415227D01*
X100133387Y-92423079D01*
X100154457Y-92433044D01*
X100174448Y-92445026D01*
X100193168Y-92458910D01*
X100210438Y-92474562D01*
X100226090Y-92491832D01*
X100239974Y-92510552D01*
X100251956Y-92530543D01*
X100261921Y-92551613D01*
X100269773Y-92573557D01*
X100275437Y-92596166D01*
X100278856Y-92619221D01*
X100280000Y-92642500D01*
X100280000Y-93117500D01*
X100278856Y-93140779D01*
X100275437Y-93163834D01*
X100269773Y-93186443D01*
X100261921Y-93208387D01*
X100251956Y-93229457D01*
X100239974Y-93249448D01*
X100226090Y-93268168D01*
X100210438Y-93285438D01*
X100193168Y-93301090D01*
X100174448Y-93314974D01*
X100154457Y-93326956D01*
X100133387Y-93336921D01*
X100111443Y-93344773D01*
X100088834Y-93350437D01*
X100065779Y-93353856D01*
X100042500Y-93355000D01*
X99467500Y-93355000D01*
X99444221Y-93353856D01*
X99421166Y-93350437D01*
X99398557Y-93344773D01*
X99376613Y-93336921D01*
X99355543Y-93326956D01*
X99335552Y-93314974D01*
X99316832Y-93301090D01*
X99299562Y-93285438D01*
X99283910Y-93268168D01*
X99270026Y-93249448D01*
X99258044Y-93229457D01*
X99248079Y-93208387D01*
X99240227Y-93186443D01*
X99234563Y-93163834D01*
X99231144Y-93140779D01*
X99230000Y-93117500D01*
X99230000Y-92642500D01*
X99231144Y-92619221D01*
X99234563Y-92596166D01*
X99240227Y-92573557D01*
X99248079Y-92551613D01*
X99258044Y-92530543D01*
X99270026Y-92510552D01*
X99283910Y-92491832D01*
X99299562Y-92474562D01*
X99316832Y-92458910D01*
X99335552Y-92445026D01*
X99355543Y-92433044D01*
X99376613Y-92423079D01*
X99398557Y-92415227D01*
X99421166Y-92409563D01*
X99444221Y-92406144D01*
X99467500Y-92405000D01*
X100042500Y-92405000D01*
X100065779Y-92406144D01*
X100065779Y-92406144D01*
G37*
D13*
G04 #@! TD*
G04 #@! TO.P,R1,1*
G04 #@! TO.N,GNDD*
X99755000Y-92880000D03*
D12*
G04 #@! TO.N,/MCU_CS*
G04 #@! TO.C,R2*
G36*
X107190779Y-89831144D02*
X107213834Y-89834563D01*
X107236443Y-89840227D01*
X107258387Y-89848079D01*
X107279457Y-89858044D01*
X107299448Y-89870026D01*
X107318168Y-89883910D01*
X107335438Y-89899562D01*
X107351090Y-89916832D01*
X107364974Y-89935552D01*
X107376956Y-89955543D01*
X107386921Y-89976613D01*
X107394773Y-89998557D01*
X107400437Y-90021166D01*
X107403856Y-90044221D01*
X107405000Y-90067500D01*
X107405000Y-90642500D01*
X107403856Y-90665779D01*
X107400437Y-90688834D01*
X107394773Y-90711443D01*
X107386921Y-90733387D01*
X107376956Y-90754457D01*
X107364974Y-90774448D01*
X107351090Y-90793168D01*
X107335438Y-90810438D01*
X107318168Y-90826090D01*
X107299448Y-90839974D01*
X107279457Y-90851956D01*
X107258387Y-90861921D01*
X107236443Y-90869773D01*
X107213834Y-90875437D01*
X107190779Y-90878856D01*
X107167500Y-90880000D01*
X106692500Y-90880000D01*
X106669221Y-90878856D01*
X106646166Y-90875437D01*
X106623557Y-90869773D01*
X106601613Y-90861921D01*
X106580543Y-90851956D01*
X106560552Y-90839974D01*
X106541832Y-90826090D01*
X106524562Y-90810438D01*
X106508910Y-90793168D01*
X106495026Y-90774448D01*
X106483044Y-90754457D01*
X106473079Y-90733387D01*
X106465227Y-90711443D01*
X106459563Y-90688834D01*
X106456144Y-90665779D01*
X106455000Y-90642500D01*
X106455000Y-90067500D01*
X106456144Y-90044221D01*
X106459563Y-90021166D01*
X106465227Y-89998557D01*
X106473079Y-89976613D01*
X106483044Y-89955543D01*
X106495026Y-89935552D01*
X106508910Y-89916832D01*
X106524562Y-89899562D01*
X106541832Y-89883910D01*
X106560552Y-89870026D01*
X106580543Y-89858044D01*
X106601613Y-89848079D01*
X106623557Y-89840227D01*
X106646166Y-89834563D01*
X106669221Y-89831144D01*
X106692500Y-89830000D01*
X107167500Y-89830000D01*
X107190779Y-89831144D01*
X107190779Y-89831144D01*
G37*
D13*
G04 #@! TD*
G04 #@! TO.P,R2,1*
G04 #@! TO.N,/MCU_CS*
X106930000Y-90355000D03*
D12*
G04 #@! TO.N,/ADC_CS*
G04 #@! TO.C,R2*
G36*
X107190779Y-91581144D02*
X107213834Y-91584563D01*
X107236443Y-91590227D01*
X107258387Y-91598079D01*
X107279457Y-91608044D01*
X107299448Y-91620026D01*
X107318168Y-91633910D01*
X107335438Y-91649562D01*
X107351090Y-91666832D01*
X107364974Y-91685552D01*
X107376956Y-91705543D01*
X107386921Y-91726613D01*
X107394773Y-91748557D01*
X107400437Y-91771166D01*
X107403856Y-91794221D01*
X107405000Y-91817500D01*
X107405000Y-92392500D01*
X107403856Y-92415779D01*
X107400437Y-92438834D01*
X107394773Y-92461443D01*
X107386921Y-92483387D01*
X107376956Y-92504457D01*
X107364974Y-92524448D01*
X107351090Y-92543168D01*
X107335438Y-92560438D01*
X107318168Y-92576090D01*
X107299448Y-92589974D01*
X107279457Y-92601956D01*
X107258387Y-92611921D01*
X107236443Y-92619773D01*
X107213834Y-92625437D01*
X107190779Y-92628856D01*
X107167500Y-92630000D01*
X106692500Y-92630000D01*
X106669221Y-92628856D01*
X106646166Y-92625437D01*
X106623557Y-92619773D01*
X106601613Y-92611921D01*
X106580543Y-92601956D01*
X106560552Y-92589974D01*
X106541832Y-92576090D01*
X106524562Y-92560438D01*
X106508910Y-92543168D01*
X106495026Y-92524448D01*
X106483044Y-92504457D01*
X106473079Y-92483387D01*
X106465227Y-92461443D01*
X106459563Y-92438834D01*
X106456144Y-92415779D01*
X106455000Y-92392500D01*
X106455000Y-91817500D01*
X106456144Y-91794221D01*
X106459563Y-91771166D01*
X106465227Y-91748557D01*
X106473079Y-91726613D01*
X106483044Y-91705543D01*
X106495026Y-91685552D01*
X106508910Y-91666832D01*
X106524562Y-91649562D01*
X106541832Y-91633910D01*
X106560552Y-91620026D01*
X106580543Y-91608044D01*
X106601613Y-91598079D01*
X106623557Y-91590227D01*
X106646166Y-91584563D01*
X106669221Y-91581144D01*
X106692500Y-91580000D01*
X107167500Y-91580000D01*
X107190779Y-91581144D01*
X107190779Y-91581144D01*
G37*
D13*
G04 #@! TD*
G04 #@! TO.P,R2,2*
G04 #@! TO.N,/ADC_CS*
X106930000Y-92105000D03*
D12*
G04 #@! TO.N,/ADC_CLK*
G04 #@! TO.C,R3*
G36*
X103590779Y-91581144D02*
X103613834Y-91584563D01*
X103636443Y-91590227D01*
X103658387Y-91598079D01*
X103679457Y-91608044D01*
X103699448Y-91620026D01*
X103718168Y-91633910D01*
X103735438Y-91649562D01*
X103751090Y-91666832D01*
X103764974Y-91685552D01*
X103776956Y-91705543D01*
X103786921Y-91726613D01*
X103794773Y-91748557D01*
X103800437Y-91771166D01*
X103803856Y-91794221D01*
X103805000Y-91817500D01*
X103805000Y-92392500D01*
X103803856Y-92415779D01*
X103800437Y-92438834D01*
X103794773Y-92461443D01*
X103786921Y-92483387D01*
X103776956Y-92504457D01*
X103764974Y-92524448D01*
X103751090Y-92543168D01*
X103735438Y-92560438D01*
X103718168Y-92576090D01*
X103699448Y-92589974D01*
X103679457Y-92601956D01*
X103658387Y-92611921D01*
X103636443Y-92619773D01*
X103613834Y-92625437D01*
X103590779Y-92628856D01*
X103567500Y-92630000D01*
X103092500Y-92630000D01*
X103069221Y-92628856D01*
X103046166Y-92625437D01*
X103023557Y-92619773D01*
X103001613Y-92611921D01*
X102980543Y-92601956D01*
X102960552Y-92589974D01*
X102941832Y-92576090D01*
X102924562Y-92560438D01*
X102908910Y-92543168D01*
X102895026Y-92524448D01*
X102883044Y-92504457D01*
X102873079Y-92483387D01*
X102865227Y-92461443D01*
X102859563Y-92438834D01*
X102856144Y-92415779D01*
X102855000Y-92392500D01*
X102855000Y-91817500D01*
X102856144Y-91794221D01*
X102859563Y-91771166D01*
X102865227Y-91748557D01*
X102873079Y-91726613D01*
X102883044Y-91705543D01*
X102895026Y-91685552D01*
X102908910Y-91666832D01*
X102924562Y-91649562D01*
X102941832Y-91633910D01*
X102960552Y-91620026D01*
X102980543Y-91608044D01*
X103001613Y-91598079D01*
X103023557Y-91590227D01*
X103046166Y-91584563D01*
X103069221Y-91581144D01*
X103092500Y-91580000D01*
X103567500Y-91580000D01*
X103590779Y-91581144D01*
X103590779Y-91581144D01*
G37*
D13*
G04 #@! TD*
G04 #@! TO.P,R3,2*
G04 #@! TO.N,/ADC_CLK*
X103330000Y-92105000D03*
D12*
G04 #@! TO.N,/MCU_CLK*
G04 #@! TO.C,R3*
G36*
X103590779Y-89831144D02*
X103613834Y-89834563D01*
X103636443Y-89840227D01*
X103658387Y-89848079D01*
X103679457Y-89858044D01*
X103699448Y-89870026D01*
X103718168Y-89883910D01*
X103735438Y-89899562D01*
X103751090Y-89916832D01*
X103764974Y-89935552D01*
X103776956Y-89955543D01*
X103786921Y-89976613D01*
X103794773Y-89998557D01*
X103800437Y-90021166D01*
X103803856Y-90044221D01*
X103805000Y-90067500D01*
X103805000Y-90642500D01*
X103803856Y-90665779D01*
X103800437Y-90688834D01*
X103794773Y-90711443D01*
X103786921Y-90733387D01*
X103776956Y-90754457D01*
X103764974Y-90774448D01*
X103751090Y-90793168D01*
X103735438Y-90810438D01*
X103718168Y-90826090D01*
X103699448Y-90839974D01*
X103679457Y-90851956D01*
X103658387Y-90861921D01*
X103636443Y-90869773D01*
X103613834Y-90875437D01*
X103590779Y-90878856D01*
X103567500Y-90880000D01*
X103092500Y-90880000D01*
X103069221Y-90878856D01*
X103046166Y-90875437D01*
X103023557Y-90869773D01*
X103001613Y-90861921D01*
X102980543Y-90851956D01*
X102960552Y-90839974D01*
X102941832Y-90826090D01*
X102924562Y-90810438D01*
X102908910Y-90793168D01*
X102895026Y-90774448D01*
X102883044Y-90754457D01*
X102873079Y-90733387D01*
X102865227Y-90711443D01*
X102859563Y-90688834D01*
X102856144Y-90665779D01*
X102855000Y-90642500D01*
X102855000Y-90067500D01*
X102856144Y-90044221D01*
X102859563Y-90021166D01*
X102865227Y-89998557D01*
X102873079Y-89976613D01*
X102883044Y-89955543D01*
X102895026Y-89935552D01*
X102908910Y-89916832D01*
X102924562Y-89899562D01*
X102941832Y-89883910D01*
X102960552Y-89870026D01*
X102980543Y-89858044D01*
X103001613Y-89848079D01*
X103023557Y-89840227D01*
X103046166Y-89834563D01*
X103069221Y-89831144D01*
X103092500Y-89830000D01*
X103567500Y-89830000D01*
X103590779Y-89831144D01*
X103590779Y-89831144D01*
G37*
D13*
G04 #@! TD*
G04 #@! TO.P,R3,1*
G04 #@! TO.N,/MCU_CLK*
X103330000Y-90355000D03*
D12*
G04 #@! TO.N,/MCU_DOUT*
G04 #@! TO.C,R4*
G36*
X105390779Y-89831144D02*
X105413834Y-89834563D01*
X105436443Y-89840227D01*
X105458387Y-89848079D01*
X105479457Y-89858044D01*
X105499448Y-89870026D01*
X105518168Y-89883910D01*
X105535438Y-89899562D01*
X105551090Y-89916832D01*
X105564974Y-89935552D01*
X105576956Y-89955543D01*
X105586921Y-89976613D01*
X105594773Y-89998557D01*
X105600437Y-90021166D01*
X105603856Y-90044221D01*
X105605000Y-90067500D01*
X105605000Y-90642500D01*
X105603856Y-90665779D01*
X105600437Y-90688834D01*
X105594773Y-90711443D01*
X105586921Y-90733387D01*
X105576956Y-90754457D01*
X105564974Y-90774448D01*
X105551090Y-90793168D01*
X105535438Y-90810438D01*
X105518168Y-90826090D01*
X105499448Y-90839974D01*
X105479457Y-90851956D01*
X105458387Y-90861921D01*
X105436443Y-90869773D01*
X105413834Y-90875437D01*
X105390779Y-90878856D01*
X105367500Y-90880000D01*
X104892500Y-90880000D01*
X104869221Y-90878856D01*
X104846166Y-90875437D01*
X104823557Y-90869773D01*
X104801613Y-90861921D01*
X104780543Y-90851956D01*
X104760552Y-90839974D01*
X104741832Y-90826090D01*
X104724562Y-90810438D01*
X104708910Y-90793168D01*
X104695026Y-90774448D01*
X104683044Y-90754457D01*
X104673079Y-90733387D01*
X104665227Y-90711443D01*
X104659563Y-90688834D01*
X104656144Y-90665779D01*
X104655000Y-90642500D01*
X104655000Y-90067500D01*
X104656144Y-90044221D01*
X104659563Y-90021166D01*
X104665227Y-89998557D01*
X104673079Y-89976613D01*
X104683044Y-89955543D01*
X104695026Y-89935552D01*
X104708910Y-89916832D01*
X104724562Y-89899562D01*
X104741832Y-89883910D01*
X104760552Y-89870026D01*
X104780543Y-89858044D01*
X104801613Y-89848079D01*
X104823557Y-89840227D01*
X104846166Y-89834563D01*
X104869221Y-89831144D01*
X104892500Y-89830000D01*
X105367500Y-89830000D01*
X105390779Y-89831144D01*
X105390779Y-89831144D01*
G37*
D13*
G04 #@! TD*
G04 #@! TO.P,R4,1*
G04 #@! TO.N,/MCU_DOUT*
X105130000Y-90355000D03*
D12*
G04 #@! TO.N,/ADC_DIN*
G04 #@! TO.C,R4*
G36*
X105390779Y-91581144D02*
X105413834Y-91584563D01*
X105436443Y-91590227D01*
X105458387Y-91598079D01*
X105479457Y-91608044D01*
X105499448Y-91620026D01*
X105518168Y-91633910D01*
X105535438Y-91649562D01*
X105551090Y-91666832D01*
X105564974Y-91685552D01*
X105576956Y-91705543D01*
X105586921Y-91726613D01*
X105594773Y-91748557D01*
X105600437Y-91771166D01*
X105603856Y-91794221D01*
X105605000Y-91817500D01*
X105605000Y-92392500D01*
X105603856Y-92415779D01*
X105600437Y-92438834D01*
X105594773Y-92461443D01*
X105586921Y-92483387D01*
X105576956Y-92504457D01*
X105564974Y-92524448D01*
X105551090Y-92543168D01*
X105535438Y-92560438D01*
X105518168Y-92576090D01*
X105499448Y-92589974D01*
X105479457Y-92601956D01*
X105458387Y-92611921D01*
X105436443Y-92619773D01*
X105413834Y-92625437D01*
X105390779Y-92628856D01*
X105367500Y-92630000D01*
X104892500Y-92630000D01*
X104869221Y-92628856D01*
X104846166Y-92625437D01*
X104823557Y-92619773D01*
X104801613Y-92611921D01*
X104780543Y-92601956D01*
X104760552Y-92589974D01*
X104741832Y-92576090D01*
X104724562Y-92560438D01*
X104708910Y-92543168D01*
X104695026Y-92524448D01*
X104683044Y-92504457D01*
X104673079Y-92483387D01*
X104665227Y-92461443D01*
X104659563Y-92438834D01*
X104656144Y-92415779D01*
X104655000Y-92392500D01*
X104655000Y-91817500D01*
X104656144Y-91794221D01*
X104659563Y-91771166D01*
X104665227Y-91748557D01*
X104673079Y-91726613D01*
X104683044Y-91705543D01*
X104695026Y-91685552D01*
X104708910Y-91666832D01*
X104724562Y-91649562D01*
X104741832Y-91633910D01*
X104760552Y-91620026D01*
X104780543Y-91608044D01*
X104801613Y-91598079D01*
X104823557Y-91590227D01*
X104846166Y-91584563D01*
X104869221Y-91581144D01*
X104892500Y-91580000D01*
X105367500Y-91580000D01*
X105390779Y-91581144D01*
X105390779Y-91581144D01*
G37*
D13*
G04 #@! TD*
G04 #@! TO.P,R4,2*
G04 #@! TO.N,/ADC_DIN*
X105130000Y-92105000D03*
D12*
G04 #@! TO.N,Net-(R5-Pad2)*
G04 #@! TO.C,R5*
G36*
X74490779Y-83081144D02*
X74513834Y-83084563D01*
X74536443Y-83090227D01*
X74558387Y-83098079D01*
X74579457Y-83108044D01*
X74599448Y-83120026D01*
X74618168Y-83133910D01*
X74635438Y-83149562D01*
X74651090Y-83166832D01*
X74664974Y-83185552D01*
X74676956Y-83205543D01*
X74686921Y-83226613D01*
X74694773Y-83248557D01*
X74700437Y-83271166D01*
X74703856Y-83294221D01*
X74705000Y-83317500D01*
X74705000Y-83892500D01*
X74703856Y-83915779D01*
X74700437Y-83938834D01*
X74694773Y-83961443D01*
X74686921Y-83983387D01*
X74676956Y-84004457D01*
X74664974Y-84024448D01*
X74651090Y-84043168D01*
X74635438Y-84060438D01*
X74618168Y-84076090D01*
X74599448Y-84089974D01*
X74579457Y-84101956D01*
X74558387Y-84111921D01*
X74536443Y-84119773D01*
X74513834Y-84125437D01*
X74490779Y-84128856D01*
X74467500Y-84130000D01*
X73992500Y-84130000D01*
X73969221Y-84128856D01*
X73946166Y-84125437D01*
X73923557Y-84119773D01*
X73901613Y-84111921D01*
X73880543Y-84101956D01*
X73860552Y-84089974D01*
X73841832Y-84076090D01*
X73824562Y-84060438D01*
X73808910Y-84043168D01*
X73795026Y-84024448D01*
X73783044Y-84004457D01*
X73773079Y-83983387D01*
X73765227Y-83961443D01*
X73759563Y-83938834D01*
X73756144Y-83915779D01*
X73755000Y-83892500D01*
X73755000Y-83317500D01*
X73756144Y-83294221D01*
X73759563Y-83271166D01*
X73765227Y-83248557D01*
X73773079Y-83226613D01*
X73783044Y-83205543D01*
X73795026Y-83185552D01*
X73808910Y-83166832D01*
X73824562Y-83149562D01*
X73841832Y-83133910D01*
X73860552Y-83120026D01*
X73880543Y-83108044D01*
X73901613Y-83098079D01*
X73923557Y-83090227D01*
X73946166Y-83084563D01*
X73969221Y-83081144D01*
X73992500Y-83080000D01*
X74467500Y-83080000D01*
X74490779Y-83081144D01*
X74490779Y-83081144D01*
G37*
D13*
G04 #@! TD*
G04 #@! TO.P,R5,2*
G04 #@! TO.N,Net-(R5-Pad2)*
X74230000Y-83605000D03*
D12*
G04 #@! TO.N,Net-(Q1-Pad1)*
G04 #@! TO.C,R5*
G36*
X74490779Y-84831144D02*
X74513834Y-84834563D01*
X74536443Y-84840227D01*
X74558387Y-84848079D01*
X74579457Y-84858044D01*
X74599448Y-84870026D01*
X74618168Y-84883910D01*
X74635438Y-84899562D01*
X74651090Y-84916832D01*
X74664974Y-84935552D01*
X74676956Y-84955543D01*
X74686921Y-84976613D01*
X74694773Y-84998557D01*
X74700437Y-85021166D01*
X74703856Y-85044221D01*
X74705000Y-85067500D01*
X74705000Y-85642500D01*
X74703856Y-85665779D01*
X74700437Y-85688834D01*
X74694773Y-85711443D01*
X74686921Y-85733387D01*
X74676956Y-85754457D01*
X74664974Y-85774448D01*
X74651090Y-85793168D01*
X74635438Y-85810438D01*
X74618168Y-85826090D01*
X74599448Y-85839974D01*
X74579457Y-85851956D01*
X74558387Y-85861921D01*
X74536443Y-85869773D01*
X74513834Y-85875437D01*
X74490779Y-85878856D01*
X74467500Y-85880000D01*
X73992500Y-85880000D01*
X73969221Y-85878856D01*
X73946166Y-85875437D01*
X73923557Y-85869773D01*
X73901613Y-85861921D01*
X73880543Y-85851956D01*
X73860552Y-85839974D01*
X73841832Y-85826090D01*
X73824562Y-85810438D01*
X73808910Y-85793168D01*
X73795026Y-85774448D01*
X73783044Y-85754457D01*
X73773079Y-85733387D01*
X73765227Y-85711443D01*
X73759563Y-85688834D01*
X73756144Y-85665779D01*
X73755000Y-85642500D01*
X73755000Y-85067500D01*
X73756144Y-85044221D01*
X73759563Y-85021166D01*
X73765227Y-84998557D01*
X73773079Y-84976613D01*
X73783044Y-84955543D01*
X73795026Y-84935552D01*
X73808910Y-84916832D01*
X73824562Y-84899562D01*
X73841832Y-84883910D01*
X73860552Y-84870026D01*
X73880543Y-84858044D01*
X73901613Y-84848079D01*
X73923557Y-84840227D01*
X73946166Y-84834563D01*
X73969221Y-84831144D01*
X73992500Y-84830000D01*
X74467500Y-84830000D01*
X74490779Y-84831144D01*
X74490779Y-84831144D01*
G37*
D13*
G04 #@! TD*
G04 #@! TO.P,R5,1*
G04 #@! TO.N,Net-(Q1-Pad1)*
X74230000Y-85355000D03*
D12*
G04 #@! TO.N,Net-(C20-Pad1)*
G04 #@! TO.C,R8*
G36*
X84765779Y-89706144D02*
X84788834Y-89709563D01*
X84811443Y-89715227D01*
X84833387Y-89723079D01*
X84854457Y-89733044D01*
X84874448Y-89745026D01*
X84893168Y-89758910D01*
X84910438Y-89774562D01*
X84926090Y-89791832D01*
X84939974Y-89810552D01*
X84951956Y-89830543D01*
X84961921Y-89851613D01*
X84969773Y-89873557D01*
X84975437Y-89896166D01*
X84978856Y-89919221D01*
X84980000Y-89942500D01*
X84980000Y-90417500D01*
X84978856Y-90440779D01*
X84975437Y-90463834D01*
X84969773Y-90486443D01*
X84961921Y-90508387D01*
X84951956Y-90529457D01*
X84939974Y-90549448D01*
X84926090Y-90568168D01*
X84910438Y-90585438D01*
X84893168Y-90601090D01*
X84874448Y-90614974D01*
X84854457Y-90626956D01*
X84833387Y-90636921D01*
X84811443Y-90644773D01*
X84788834Y-90650437D01*
X84765779Y-90653856D01*
X84742500Y-90655000D01*
X84167500Y-90655000D01*
X84144221Y-90653856D01*
X84121166Y-90650437D01*
X84098557Y-90644773D01*
X84076613Y-90636921D01*
X84055543Y-90626956D01*
X84035552Y-90614974D01*
X84016832Y-90601090D01*
X83999562Y-90585438D01*
X83983910Y-90568168D01*
X83970026Y-90549448D01*
X83958044Y-90529457D01*
X83948079Y-90508387D01*
X83940227Y-90486443D01*
X83934563Y-90463834D01*
X83931144Y-90440779D01*
X83930000Y-90417500D01*
X83930000Y-89942500D01*
X83931144Y-89919221D01*
X83934563Y-89896166D01*
X83940227Y-89873557D01*
X83948079Y-89851613D01*
X83958044Y-89830543D01*
X83970026Y-89810552D01*
X83983910Y-89791832D01*
X83999562Y-89774562D01*
X84016832Y-89758910D01*
X84035552Y-89745026D01*
X84055543Y-89733044D01*
X84076613Y-89723079D01*
X84098557Y-89715227D01*
X84121166Y-89709563D01*
X84144221Y-89706144D01*
X84167500Y-89705000D01*
X84742500Y-89705000D01*
X84765779Y-89706144D01*
X84765779Y-89706144D01*
G37*
D13*
G04 #@! TD*
G04 #@! TO.P,R8,2*
G04 #@! TO.N,Net-(C20-Pad1)*
X84455000Y-90180000D03*
D12*
G04 #@! TO.N,Net-(C21-Pad1)*
G04 #@! TO.C,R8*
G36*
X86515779Y-89706144D02*
X86538834Y-89709563D01*
X86561443Y-89715227D01*
X86583387Y-89723079D01*
X86604457Y-89733044D01*
X86624448Y-89745026D01*
X86643168Y-89758910D01*
X86660438Y-89774562D01*
X86676090Y-89791832D01*
X86689974Y-89810552D01*
X86701956Y-89830543D01*
X86711921Y-89851613D01*
X86719773Y-89873557D01*
X86725437Y-89896166D01*
X86728856Y-89919221D01*
X86730000Y-89942500D01*
X86730000Y-90417500D01*
X86728856Y-90440779D01*
X86725437Y-90463834D01*
X86719773Y-90486443D01*
X86711921Y-90508387D01*
X86701956Y-90529457D01*
X86689974Y-90549448D01*
X86676090Y-90568168D01*
X86660438Y-90585438D01*
X86643168Y-90601090D01*
X86624448Y-90614974D01*
X86604457Y-90626956D01*
X86583387Y-90636921D01*
X86561443Y-90644773D01*
X86538834Y-90650437D01*
X86515779Y-90653856D01*
X86492500Y-90655000D01*
X85917500Y-90655000D01*
X85894221Y-90653856D01*
X85871166Y-90650437D01*
X85848557Y-90644773D01*
X85826613Y-90636921D01*
X85805543Y-90626956D01*
X85785552Y-90614974D01*
X85766832Y-90601090D01*
X85749562Y-90585438D01*
X85733910Y-90568168D01*
X85720026Y-90549448D01*
X85708044Y-90529457D01*
X85698079Y-90508387D01*
X85690227Y-90486443D01*
X85684563Y-90463834D01*
X85681144Y-90440779D01*
X85680000Y-90417500D01*
X85680000Y-89942500D01*
X85681144Y-89919221D01*
X85684563Y-89896166D01*
X85690227Y-89873557D01*
X85698079Y-89851613D01*
X85708044Y-89830543D01*
X85720026Y-89810552D01*
X85733910Y-89791832D01*
X85749562Y-89774562D01*
X85766832Y-89758910D01*
X85785552Y-89745026D01*
X85805543Y-89733044D01*
X85826613Y-89723079D01*
X85848557Y-89715227D01*
X85871166Y-89709563D01*
X85894221Y-89706144D01*
X85917500Y-89705000D01*
X86492500Y-89705000D01*
X86515779Y-89706144D01*
X86515779Y-89706144D01*
G37*
D13*
G04 #@! TD*
G04 #@! TO.P,R8,1*
G04 #@! TO.N,Net-(C21-Pad1)*
X86205000Y-90180000D03*
D12*
G04 #@! TO.N,Net-(C23-Pad1)*
G04 #@! TO.C,R15*
G36*
X96115779Y-90156144D02*
X96138834Y-90159563D01*
X96161443Y-90165227D01*
X96183387Y-90173079D01*
X96204457Y-90183044D01*
X96224448Y-90195026D01*
X96243168Y-90208910D01*
X96260438Y-90224562D01*
X96276090Y-90241832D01*
X96289974Y-90260552D01*
X96301956Y-90280543D01*
X96311921Y-90301613D01*
X96319773Y-90323557D01*
X96325437Y-90346166D01*
X96328856Y-90369221D01*
X96330000Y-90392500D01*
X96330000Y-90867500D01*
X96328856Y-90890779D01*
X96325437Y-90913834D01*
X96319773Y-90936443D01*
X96311921Y-90958387D01*
X96301956Y-90979457D01*
X96289974Y-90999448D01*
X96276090Y-91018168D01*
X96260438Y-91035438D01*
X96243168Y-91051090D01*
X96224448Y-91064974D01*
X96204457Y-91076956D01*
X96183387Y-91086921D01*
X96161443Y-91094773D01*
X96138834Y-91100437D01*
X96115779Y-91103856D01*
X96092500Y-91105000D01*
X95517500Y-91105000D01*
X95494221Y-91103856D01*
X95471166Y-91100437D01*
X95448557Y-91094773D01*
X95426613Y-91086921D01*
X95405543Y-91076956D01*
X95385552Y-91064974D01*
X95366832Y-91051090D01*
X95349562Y-91035438D01*
X95333910Y-91018168D01*
X95320026Y-90999448D01*
X95308044Y-90979457D01*
X95298079Y-90958387D01*
X95290227Y-90936443D01*
X95284563Y-90913834D01*
X95281144Y-90890779D01*
X95280000Y-90867500D01*
X95280000Y-90392500D01*
X95281144Y-90369221D01*
X95284563Y-90346166D01*
X95290227Y-90323557D01*
X95298079Y-90301613D01*
X95308044Y-90280543D01*
X95320026Y-90260552D01*
X95333910Y-90241832D01*
X95349562Y-90224562D01*
X95366832Y-90208910D01*
X95385552Y-90195026D01*
X95405543Y-90183044D01*
X95426613Y-90173079D01*
X95448557Y-90165227D01*
X95471166Y-90159563D01*
X95494221Y-90156144D01*
X95517500Y-90155000D01*
X96092500Y-90155000D01*
X96115779Y-90156144D01*
X96115779Y-90156144D01*
G37*
D13*
G04 #@! TD*
G04 #@! TO.P,R15,2*
G04 #@! TO.N,Net-(C23-Pad1)*
X95805000Y-90630000D03*
D12*
G04 #@! TO.N,Net-(C24-Pad1)*
G04 #@! TO.C,R15*
G36*
X94365779Y-90156144D02*
X94388834Y-90159563D01*
X94411443Y-90165227D01*
X94433387Y-90173079D01*
X94454457Y-90183044D01*
X94474448Y-90195026D01*
X94493168Y-90208910D01*
X94510438Y-90224562D01*
X94526090Y-90241832D01*
X94539974Y-90260552D01*
X94551956Y-90280543D01*
X94561921Y-90301613D01*
X94569773Y-90323557D01*
X94575437Y-90346166D01*
X94578856Y-90369221D01*
X94580000Y-90392500D01*
X94580000Y-90867500D01*
X94578856Y-90890779D01*
X94575437Y-90913834D01*
X94569773Y-90936443D01*
X94561921Y-90958387D01*
X94551956Y-90979457D01*
X94539974Y-90999448D01*
X94526090Y-91018168D01*
X94510438Y-91035438D01*
X94493168Y-91051090D01*
X94474448Y-91064974D01*
X94454457Y-91076956D01*
X94433387Y-91086921D01*
X94411443Y-91094773D01*
X94388834Y-91100437D01*
X94365779Y-91103856D01*
X94342500Y-91105000D01*
X93767500Y-91105000D01*
X93744221Y-91103856D01*
X93721166Y-91100437D01*
X93698557Y-91094773D01*
X93676613Y-91086921D01*
X93655543Y-91076956D01*
X93635552Y-91064974D01*
X93616832Y-91051090D01*
X93599562Y-91035438D01*
X93583910Y-91018168D01*
X93570026Y-90999448D01*
X93558044Y-90979457D01*
X93548079Y-90958387D01*
X93540227Y-90936443D01*
X93534563Y-90913834D01*
X93531144Y-90890779D01*
X93530000Y-90867500D01*
X93530000Y-90392500D01*
X93531144Y-90369221D01*
X93534563Y-90346166D01*
X93540227Y-90323557D01*
X93548079Y-90301613D01*
X93558044Y-90280543D01*
X93570026Y-90260552D01*
X93583910Y-90241832D01*
X93599562Y-90224562D01*
X93616832Y-90208910D01*
X93635552Y-90195026D01*
X93655543Y-90183044D01*
X93676613Y-90173079D01*
X93698557Y-90165227D01*
X93721166Y-90159563D01*
X93744221Y-90156144D01*
X93767500Y-90155000D01*
X94342500Y-90155000D01*
X94365779Y-90156144D01*
X94365779Y-90156144D01*
G37*
D13*
G04 #@! TD*
G04 #@! TO.P,R15,1*
G04 #@! TO.N,Net-(C24-Pad1)*
X94055000Y-90630000D03*
D12*
G04 #@! TO.N,Net-(C20-Pad2)*
G04 #@! TO.C,R6*
G36*
X78115779Y-82506144D02*
X78138834Y-82509563D01*
X78161443Y-82515227D01*
X78183387Y-82523079D01*
X78204457Y-82533044D01*
X78224448Y-82545026D01*
X78243168Y-82558910D01*
X78260438Y-82574562D01*
X78276090Y-82591832D01*
X78289974Y-82610552D01*
X78301956Y-82630543D01*
X78311921Y-82651613D01*
X78319773Y-82673557D01*
X78325437Y-82696166D01*
X78328856Y-82719221D01*
X78330000Y-82742500D01*
X78330000Y-83217500D01*
X78328856Y-83240779D01*
X78325437Y-83263834D01*
X78319773Y-83286443D01*
X78311921Y-83308387D01*
X78301956Y-83329457D01*
X78289974Y-83349448D01*
X78276090Y-83368168D01*
X78260438Y-83385438D01*
X78243168Y-83401090D01*
X78224448Y-83414974D01*
X78204457Y-83426956D01*
X78183387Y-83436921D01*
X78161443Y-83444773D01*
X78138834Y-83450437D01*
X78115779Y-83453856D01*
X78092500Y-83455000D01*
X77517500Y-83455000D01*
X77494221Y-83453856D01*
X77471166Y-83450437D01*
X77448557Y-83444773D01*
X77426613Y-83436921D01*
X77405543Y-83426956D01*
X77385552Y-83414974D01*
X77366832Y-83401090D01*
X77349562Y-83385438D01*
X77333910Y-83368168D01*
X77320026Y-83349448D01*
X77308044Y-83329457D01*
X77298079Y-83308387D01*
X77290227Y-83286443D01*
X77284563Y-83263834D01*
X77281144Y-83240779D01*
X77280000Y-83217500D01*
X77280000Y-82742500D01*
X77281144Y-82719221D01*
X77284563Y-82696166D01*
X77290227Y-82673557D01*
X77298079Y-82651613D01*
X77308044Y-82630543D01*
X77320026Y-82610552D01*
X77333910Y-82591832D01*
X77349562Y-82574562D01*
X77366832Y-82558910D01*
X77385552Y-82545026D01*
X77405543Y-82533044D01*
X77426613Y-82523079D01*
X77448557Y-82515227D01*
X77471166Y-82509563D01*
X77494221Y-82506144D01*
X77517500Y-82505000D01*
X78092500Y-82505000D01*
X78115779Y-82506144D01*
X78115779Y-82506144D01*
G37*
D13*
G04 #@! TD*
G04 #@! TO.P,R6,1*
G04 #@! TO.N,Net-(C20-Pad2)*
X77805000Y-82980000D03*
D12*
G04 #@! TO.N,Net-(R5-Pad2)*
G04 #@! TO.C,R6*
G36*
X76365779Y-82506144D02*
X76388834Y-82509563D01*
X76411443Y-82515227D01*
X76433387Y-82523079D01*
X76454457Y-82533044D01*
X76474448Y-82545026D01*
X76493168Y-82558910D01*
X76510438Y-82574562D01*
X76526090Y-82591832D01*
X76539974Y-82610552D01*
X76551956Y-82630543D01*
X76561921Y-82651613D01*
X76569773Y-82673557D01*
X76575437Y-82696166D01*
X76578856Y-82719221D01*
X76580000Y-82742500D01*
X76580000Y-83217500D01*
X76578856Y-83240779D01*
X76575437Y-83263834D01*
X76569773Y-83286443D01*
X76561921Y-83308387D01*
X76551956Y-83329457D01*
X76539974Y-83349448D01*
X76526090Y-83368168D01*
X76510438Y-83385438D01*
X76493168Y-83401090D01*
X76474448Y-83414974D01*
X76454457Y-83426956D01*
X76433387Y-83436921D01*
X76411443Y-83444773D01*
X76388834Y-83450437D01*
X76365779Y-83453856D01*
X76342500Y-83455000D01*
X75767500Y-83455000D01*
X75744221Y-83453856D01*
X75721166Y-83450437D01*
X75698557Y-83444773D01*
X75676613Y-83436921D01*
X75655543Y-83426956D01*
X75635552Y-83414974D01*
X75616832Y-83401090D01*
X75599562Y-83385438D01*
X75583910Y-83368168D01*
X75570026Y-83349448D01*
X75558044Y-83329457D01*
X75548079Y-83308387D01*
X75540227Y-83286443D01*
X75534563Y-83263834D01*
X75531144Y-83240779D01*
X75530000Y-83217500D01*
X75530000Y-82742500D01*
X75531144Y-82719221D01*
X75534563Y-82696166D01*
X75540227Y-82673557D01*
X75548079Y-82651613D01*
X75558044Y-82630543D01*
X75570026Y-82610552D01*
X75583910Y-82591832D01*
X75599562Y-82574562D01*
X75616832Y-82558910D01*
X75635552Y-82545026D01*
X75655543Y-82533044D01*
X75676613Y-82523079D01*
X75698557Y-82515227D01*
X75721166Y-82509563D01*
X75744221Y-82506144D01*
X75767500Y-82505000D01*
X76342500Y-82505000D01*
X76365779Y-82506144D01*
X76365779Y-82506144D01*
G37*
D13*
G04 #@! TD*
G04 #@! TO.P,R6,2*
G04 #@! TO.N,Net-(R5-Pad2)*
X76055000Y-82980000D03*
D21*
G04 #@! TO.N,Net-(R1-Pad2)*
X101530000Y-94680000D03*
G04 #@! TO.N,GNDD*
X71230000Y-93180000D03*
X64930000Y-100980000D03*
X69130000Y-101280000D03*
X94930000Y-102480000D03*
X106630000Y-102180000D03*
X108430000Y-93180000D03*
X110830000Y-96780000D03*
X94630000Y-92730000D03*
X110230000Y-101430000D03*
G04 #@! TO.N,+2V5*
X88330000Y-86280000D03*
X80230000Y-87480000D03*
X75130000Y-91980000D03*
X68230000Y-86880000D03*
G04 #@! TO.N,+4V*
X79030000Y-89280000D03*
X83230000Y-82080000D03*
X91930000Y-81780000D03*
X107230000Y-81780000D03*
X101230000Y-81780000D03*
X88630000Y-88680000D03*
G04 #@! TO.N,GNDA*
X64630000Y-88680000D03*
X67630000Y-90180000D03*
X78130000Y-93480000D03*
X76930000Y-93480000D03*
X85030000Y-82080000D03*
X88330000Y-81780000D03*
X90130000Y-81780000D03*
X103030000Y-81780000D03*
X105430000Y-81780000D03*
X75730000Y-89280000D03*
X88630000Y-92580000D03*
X103030000Y-87180000D03*
X101530000Y-89730000D03*
X98830000Y-88680000D03*
X87730000Y-87930000D03*
G04 #@! TO.N,+3V3*
X69130000Y-97680000D03*
X67030000Y-101280000D03*
X66730000Y-97380000D03*
X90730000Y-102480000D03*
X105130000Y-94380000D03*
X108730000Y-102180000D03*
G04 #@! TO.N,+5V*
X68830000Y-96180000D03*
G04 #@! TO.N,/NRST*
X110230000Y-100080000D03*
G04 #@! TO.N,/PB0*
X103332786Y-101285571D03*
G04 #@! TO.N,/SWDIO*
X96580000Y-100080000D03*
G04 #@! TO.N,/EINK_CS*
X100630000Y-95430000D03*
G04 #@! TO.N,/ADC_DIN*
X99130000Y-99780000D03*
G04 #@! TO.N,/ADC_CLK*
X99730000Y-98077752D03*
X88480000Y-99330000D03*
G04 #@! TO.N,/ADC_CS*
X103780000Y-102180000D03*
G04 #@! TO.N,/U8U~D*
X96430000Y-96930000D03*
G04 #@! TO.N,/U7U~D*
X78130000Y-95880000D03*
G04 #@! TO.N,/U7~CS*
X93280000Y-96930000D03*
G04 #@! TO.N,/U8~CS*
X96430000Y-95880000D03*
G04 #@! TO.N,/EINK_DC*
X101680000Y-96180000D03*
X89980000Y-99180000D03*
G04 #@! TO.N,/EINK_RST*
X100780000Y-100080000D03*
G04 #@! TO.N,/EINK_DOUT*
X98680000Y-98580000D03*
G04 #@! TD*
D22*
G04 #@! TO.N,Net-(C20-Pad2)*
X77805000Y-82980000D02*
X79655000Y-82980000D01*
X86505000Y-86580000D02*
X86505000Y-84780000D01*
X80154072Y-82480928D02*
X79655000Y-82980000D01*
X81280001Y-81354999D02*
X80154072Y-82480928D01*
X85378001Y-81354999D02*
X81280001Y-81354999D01*
X86505000Y-82481998D02*
X85378001Y-81354999D01*
X86505000Y-84780000D02*
X86505000Y-82481998D01*
G04 #@! TO.N,Net-(R5-Pad2)*
X74855000Y-82980000D02*
X74230000Y-83605000D01*
X76055000Y-82980000D02*
X74855000Y-82980000D01*
X76930000Y-83855000D02*
X76055000Y-82980000D01*
X76930000Y-84675000D02*
X76930000Y-83855000D01*
G04 #@! TO.N,Net-(C23-Pad1)*
X91405928Y-87880928D02*
X91905000Y-88380000D01*
X91054990Y-87529990D02*
X91405928Y-87880928D01*
X91054990Y-85630010D02*
X91054990Y-87529990D01*
X91905000Y-84780000D02*
X91054990Y-85630010D01*
X91905000Y-89905000D02*
X92130000Y-90130000D01*
X91905000Y-88380000D02*
X91905000Y-89905000D01*
X92404072Y-87880928D02*
X91905000Y-88380000D01*
X92705001Y-87579999D02*
X92404072Y-87880928D01*
X95119999Y-87579999D02*
X92705001Y-87579999D01*
X95195000Y-87655000D02*
X95119999Y-87579999D01*
X95195000Y-88680000D02*
X95195000Y-87655000D01*
X97655000Y-90630000D02*
X95805000Y-90630000D01*
X95195000Y-90020000D02*
X95805000Y-90630000D01*
X95195000Y-88680000D02*
X95195000Y-90020000D01*
G04 #@! TO.N,Net-(C24-Pad1)*
X92910000Y-91080000D02*
X92130000Y-91080000D01*
X92985001Y-91004999D02*
X92910000Y-91080000D01*
X92985001Y-89069999D02*
X92985001Y-91004999D01*
X93375000Y-88680000D02*
X92985001Y-89069999D01*
X93925000Y-88680000D02*
X93375000Y-88680000D01*
X99405000Y-90780000D02*
X98975510Y-90780000D01*
X97735000Y-83280000D02*
X97735000Y-82805000D01*
X94055000Y-88810000D02*
X93925000Y-88680000D01*
X94055000Y-90630000D02*
X94055000Y-88810000D01*
X94554072Y-91129072D02*
X94055000Y-90630000D01*
X94855010Y-91430010D02*
X94554072Y-91129072D01*
X98604990Y-91430010D02*
X94855010Y-91430010D01*
X99405000Y-90630000D02*
X98604990Y-91430010D01*
X97735000Y-84305000D02*
X97735000Y-83280000D01*
X99904072Y-90130928D02*
X99904072Y-88254072D01*
X99405000Y-90630000D02*
X99904072Y-90130928D01*
X99904072Y-88254072D02*
X99130000Y-87480000D01*
X99130000Y-87480000D02*
X98530000Y-87480000D01*
X98530000Y-87480000D02*
X97735000Y-86685000D01*
X97735000Y-86685000D02*
X97735000Y-84305000D01*
G04 #@! TO.N,Net-(C21-Pad1)*
X83590000Y-85945000D02*
X84755000Y-84780000D01*
X82330000Y-85945000D02*
X83590000Y-85945000D01*
X86205000Y-90180000D02*
X86205000Y-91830000D01*
X83604990Y-91674990D02*
X83604990Y-92354990D01*
X82530000Y-91380000D02*
X83310000Y-91380000D01*
X83310000Y-91380000D02*
X83604990Y-91674990D01*
X85705928Y-92329072D02*
X86205000Y-91830000D01*
X85404990Y-92630010D02*
X85705928Y-92329072D01*
X83880010Y-92630010D02*
X85404990Y-92630010D01*
X83604990Y-92354990D02*
X83880010Y-92630010D01*
X84954072Y-85279072D02*
X84455000Y-84780000D01*
X85305010Y-85630010D02*
X84954072Y-85279072D01*
X86205000Y-90180000D02*
X85305010Y-89280010D01*
X88930001Y-87005001D02*
X87304999Y-87005001D01*
X90155000Y-88230000D02*
X88930001Y-87005001D01*
X85505020Y-87380010D02*
X85305010Y-87180000D01*
X86929990Y-87380010D02*
X85505020Y-87380010D01*
X87304999Y-87005001D02*
X86929990Y-87380010D01*
X85305010Y-89280010D02*
X85305010Y-87180000D01*
X85305010Y-87180000D02*
X85305010Y-85630010D01*
G04 #@! TO.N,Net-(C20-Pad1)*
X81855000Y-87215000D02*
X82330000Y-87215000D01*
X81229999Y-86589999D02*
X81855000Y-87215000D01*
X81405000Y-83555000D02*
X81229999Y-83730001D01*
X81405000Y-82980000D02*
X81405000Y-83555000D01*
X82580000Y-90480000D02*
X82530000Y-90430000D01*
X84705000Y-90205000D02*
X84430000Y-90480000D01*
X84455000Y-91830000D02*
X84455000Y-90180000D01*
X82780000Y-90180000D02*
X82530000Y-90430000D01*
X84455000Y-90180000D02*
X82780000Y-90180000D01*
X79504999Y-87131999D02*
X80206998Y-86430000D01*
X79504999Y-88184999D02*
X79504999Y-87131999D01*
X82530000Y-90430000D02*
X81750000Y-90430000D01*
X81229999Y-86430000D02*
X81229999Y-86589999D01*
X80206998Y-86430000D02*
X81229999Y-86430000D01*
X81750000Y-90430000D02*
X79504999Y-88184999D01*
X81229999Y-83730001D02*
X81229999Y-86430000D01*
G04 #@! TO.N,Net-(Q1-Pad1)*
X74230000Y-87480000D02*
X73930000Y-87780000D01*
X74230000Y-85355000D02*
X74230000Y-87480000D01*
X74820000Y-85945000D02*
X74230000Y-85355000D01*
X76930000Y-85945000D02*
X74820000Y-85945000D01*
G04 #@! TO.N,Net-(R1-Pad2)*
X101505000Y-94655000D02*
X101530000Y-94680000D01*
X101505000Y-92880000D02*
X101505000Y-94655000D01*
D23*
G04 #@! TO.N,GNDD*
X70380000Y-101280000D02*
X71080000Y-100580000D01*
X69130000Y-101280000D02*
X70380000Y-101280000D01*
D22*
X94780000Y-92880000D02*
X94630000Y-92730000D01*
X99755000Y-92880000D02*
X94780000Y-92880000D01*
X86570000Y-100680000D02*
X86360000Y-100470000D01*
X109180000Y-100380000D02*
X110230000Y-101430000D01*
X107205000Y-100380000D02*
X109180000Y-100380000D01*
G04 #@! TO.N,Net-(R13-Pad2)*
X89930000Y-92030000D02*
X89725000Y-92030000D01*
X90430000Y-92530000D02*
X89930000Y-92030000D01*
X90430000Y-93805000D02*
X90430000Y-92530000D01*
G04 #@! TO.N,Net-(R16-Pad1)*
X100040000Y-85945000D02*
X99430000Y-86555000D01*
X101530000Y-85945000D02*
X100040000Y-85945000D01*
G04 #@! TO.N,Net-(R16-Pad2)*
X96465000Y-83755000D02*
X96465000Y-83280000D01*
X96465000Y-83280000D02*
X95195000Y-83280000D01*
X99430000Y-84180000D02*
X99430000Y-84805000D01*
X99430000Y-83314998D02*
X99430000Y-84180000D01*
X98295001Y-82179999D02*
X99430000Y-83314998D01*
X97090001Y-82179999D02*
X98295001Y-82179999D01*
X96465000Y-82805000D02*
X97090001Y-82179999D01*
X96465000Y-83280000D02*
X96465000Y-82805000D01*
G04 #@! TO.N,Net-(R14-Pad2)*
X80530000Y-92530000D02*
X80330000Y-92330000D01*
X79930000Y-92730000D02*
X80330000Y-92330000D01*
X79930000Y-94105000D02*
X79930000Y-92730000D01*
G04 #@! TO.N,Net-(R12-Pad2)*
X82330000Y-92530000D02*
X82530000Y-92330000D01*
X81730000Y-93130000D02*
X82530000Y-92330000D01*
X81730000Y-94105000D02*
X81730000Y-93130000D01*
G04 #@! TO.N,Net-(R11-Pad2)*
X91905000Y-92030000D02*
X92130000Y-92030000D01*
X92230000Y-92130000D02*
X92130000Y-92030000D01*
X92230000Y-93805000D02*
X92230000Y-92130000D01*
G04 #@! TO.N,Net-(R10-Pad1)*
X96465000Y-88205000D02*
X96465000Y-88680000D01*
X94840000Y-86580000D02*
X96465000Y-88205000D01*
X91905000Y-86580000D02*
X94840000Y-86580000D01*
G04 #@! TO.N,+2V5*
X77129072Y-90005928D02*
X76630000Y-90505000D01*
X78030001Y-89104999D02*
X77129072Y-90005928D01*
X78030001Y-87290001D02*
X78030001Y-89104999D01*
X77955000Y-87215000D02*
X78030001Y-87290001D01*
X76930000Y-87215000D02*
X77955000Y-87215000D01*
X84650000Y-88485000D02*
X84755000Y-88380000D01*
X82330000Y-88485000D02*
X84650000Y-88485000D01*
X84755000Y-88380000D02*
X84755000Y-86580000D01*
X90155000Y-86580000D02*
X90155000Y-84780000D01*
X88355000Y-84780000D02*
X88330000Y-84755000D01*
X90155000Y-84780000D02*
X88355000Y-84780000D01*
X88330000Y-84755000D02*
X88330000Y-86280000D01*
X82330000Y-88485000D02*
X81235000Y-88485000D01*
X81235000Y-88485000D02*
X80230000Y-87480000D01*
X76630000Y-90505000D02*
X76605000Y-90505000D01*
X76605000Y-90505000D02*
X75130000Y-91980000D01*
D23*
X67225000Y-87885000D02*
X67225000Y-88680000D01*
X68230000Y-86880000D02*
X67225000Y-87885000D01*
X66325000Y-89580000D02*
X67225000Y-88680000D01*
X65505000Y-89580000D02*
X66325000Y-89580000D01*
D22*
G04 #@! TO.N,+4V*
X78505000Y-90430000D02*
X78430000Y-90505000D01*
X80330000Y-90430000D02*
X78505000Y-90430000D01*
X83255000Y-83750000D02*
X82330000Y-84675000D01*
X83255000Y-82980000D02*
X83255000Y-83750000D01*
X107205000Y-84400000D02*
X106930000Y-84675000D01*
X107205000Y-82980000D02*
X107205000Y-84400000D01*
X101255000Y-84400000D02*
X101530000Y-84675000D01*
X101255000Y-82980000D02*
X101255000Y-84400000D01*
X93625000Y-82980000D02*
X93925000Y-83280000D01*
X91905000Y-82980000D02*
X93625000Y-82980000D01*
X88105000Y-90130000D02*
X88030000Y-90205000D01*
D23*
X69765000Y-89940000D02*
X70605000Y-90780000D01*
X69765000Y-88680000D02*
X69765000Y-89940000D01*
D22*
X78430000Y-89880000D02*
X79030000Y-89280000D01*
X78430000Y-90505000D02*
X78430000Y-89880000D01*
X83255000Y-82105000D02*
X83230000Y-82080000D01*
X83255000Y-83130000D02*
X83255000Y-82105000D01*
X91905000Y-81805000D02*
X91930000Y-81780000D01*
X91905000Y-82980000D02*
X91905000Y-81805000D01*
X101255000Y-81805000D02*
X101230000Y-81780000D01*
X101255000Y-82980000D02*
X101255000Y-81805000D01*
X107205000Y-81805000D02*
X107230000Y-81780000D01*
X107205000Y-82980000D02*
X107205000Y-81805000D01*
X88255000Y-90130000D02*
X88030000Y-89905000D01*
X89930000Y-90130000D02*
X88255000Y-90130000D01*
X88030000Y-89280000D02*
X88630000Y-88680000D01*
X88030000Y-89905000D02*
X88030000Y-89280000D01*
D23*
X69765000Y-88680000D02*
X69765000Y-86315000D01*
X69765000Y-86315000D02*
X68830000Y-85380000D01*
X68830000Y-85380000D02*
X67330000Y-85380000D01*
X65690000Y-87020000D02*
X64135000Y-87020000D01*
X67330000Y-85380000D02*
X65690000Y-87020000D01*
D22*
G04 #@! TO.N,GNDA*
X63755000Y-89555000D02*
X64630000Y-88680000D01*
X63755000Y-89580000D02*
X63755000Y-89555000D01*
D23*
X68495000Y-90420000D02*
X68855000Y-90780000D01*
X68495000Y-88680000D02*
X68495000Y-90420000D01*
X68230000Y-90780000D02*
X67630000Y-90180000D01*
X68855000Y-90780000D02*
X68230000Y-90780000D01*
D22*
X78430000Y-93180000D02*
X78130000Y-93480000D01*
X78430000Y-92255000D02*
X78430000Y-93180000D01*
X76630000Y-93180000D02*
X76930000Y-93480000D01*
X76630000Y-92255000D02*
X76630000Y-93180000D01*
X79305000Y-91380000D02*
X78430000Y-92255000D01*
X80330000Y-91380000D02*
X79305000Y-91380000D01*
X85005000Y-82105000D02*
X85030000Y-82080000D01*
X85005000Y-83130000D02*
X85005000Y-82105000D01*
X88330000Y-83005000D02*
X88330000Y-81780000D01*
X90155000Y-81805000D02*
X90130000Y-81780000D01*
X90155000Y-82980000D02*
X90155000Y-81805000D01*
X103005000Y-81805000D02*
X103030000Y-81780000D01*
X103005000Y-82980000D02*
X103005000Y-81805000D01*
X105455000Y-81805000D02*
X105430000Y-81780000D01*
X105455000Y-82980000D02*
X105455000Y-81805000D01*
X101335000Y-88680000D02*
X101530000Y-88485000D01*
X76525000Y-88485000D02*
X75730000Y-89280000D01*
X76930000Y-88485000D02*
X76525000Y-88485000D01*
X88605000Y-91080000D02*
X88030000Y-91655000D01*
X89930000Y-91080000D02*
X88605000Y-91080000D01*
X88030000Y-91980000D02*
X88630000Y-92580000D01*
X88030000Y-91655000D02*
X88030000Y-91980000D01*
X102995000Y-87215000D02*
X103030000Y-87180000D01*
X101530000Y-87215000D02*
X102995000Y-87215000D01*
X101530000Y-88485000D02*
X101530000Y-89580000D01*
X97735000Y-88680000D02*
X98530000Y-88680000D01*
X87280000Y-88380000D02*
X87730000Y-87930000D01*
X86205000Y-88380000D02*
X87280000Y-88380000D01*
D23*
G04 #@! TO.N,+3V3*
X65830000Y-98280000D02*
X66730000Y-97380000D01*
X64780000Y-98280000D02*
X65830000Y-98280000D01*
X69730000Y-98280000D02*
X69130000Y-97680000D01*
X71080000Y-98280000D02*
X69730000Y-98280000D01*
D22*
G04 #@! TO.N,+5V*
X70880000Y-96180000D02*
X71080000Y-95980000D01*
D23*
X68830000Y-96180000D02*
X70880000Y-96180000D01*
D22*
G04 #@! TO.N,/NRST*
X108379999Y-99680001D02*
X108054997Y-99354999D01*
X109830001Y-99680001D02*
X108379999Y-99680001D01*
X110230000Y-100080000D02*
X109830001Y-99680001D01*
X105905001Y-99354999D02*
X106030000Y-99354999D01*
X105455000Y-99805000D02*
X105905001Y-99354999D01*
X105455000Y-100380000D02*
X105455000Y-99805000D01*
X106030000Y-99354999D02*
X108054997Y-99354999D01*
X100431999Y-99354999D02*
X106030000Y-99354999D01*
X100054999Y-99928003D02*
X100054999Y-99731999D01*
X90011920Y-101280000D02*
X98703002Y-101280000D01*
X89196909Y-102095011D02*
X90011920Y-101280000D01*
X98703002Y-101280000D02*
X100054999Y-99928003D01*
X83820000Y-100470000D02*
X82644999Y-99294999D01*
X80565001Y-99294999D02*
X80104999Y-99755001D01*
X80104999Y-99755001D02*
X80104999Y-101034001D01*
X80104999Y-101034001D02*
X81166009Y-102095011D01*
X100054999Y-99731999D02*
X100431999Y-99354999D01*
X81166009Y-102095011D02*
X89196909Y-102095011D01*
X82644999Y-99294999D02*
X80565001Y-99294999D01*
G04 #@! TO.N,/PB0*
X111079999Y-84909999D02*
X110230000Y-84060000D01*
X111555001Y-85385001D02*
X111079999Y-84909999D01*
X111555001Y-101814411D02*
X111555001Y-85385001D01*
X110464411Y-102905001D02*
X111555001Y-101814411D01*
X103431999Y-102905001D02*
X110464411Y-102905001D01*
X102880000Y-102353002D02*
X103431999Y-102905001D01*
X102880000Y-101738357D02*
X102880000Y-102353002D01*
X103332786Y-101285571D02*
X102880000Y-101738357D01*
G04 #@! TO.N,/SWDIO*
X81280000Y-100470000D02*
X82455001Y-101645001D01*
X89010509Y-101645001D02*
X89825510Y-100830000D01*
X82455001Y-101645001D02*
X89010509Y-101645001D01*
X89825510Y-100830000D02*
X92080000Y-100830000D01*
X95830000Y-100830000D02*
X92080000Y-100830000D01*
X96580000Y-100080000D02*
X95830000Y-100830000D01*
G04 #@! TO.N,/EINK_CS*
X98080000Y-95430000D02*
X100630000Y-95430000D01*
X97605011Y-95904989D02*
X98080000Y-95430000D01*
X92775510Y-96030000D02*
X94206995Y-96030000D01*
X94206995Y-96030000D02*
X96081999Y-97905004D01*
X92775510Y-96030000D02*
X92475510Y-96330000D01*
X92475510Y-96330000D02*
X89830000Y-96330000D01*
X80730010Y-95534480D02*
X80730010Y-97160010D01*
X81259500Y-95004990D02*
X80730010Y-95534480D01*
X80730010Y-97160010D02*
X81250000Y-97680000D01*
X83050511Y-95855001D02*
X82200500Y-95004990D01*
X89355001Y-95855001D02*
X83050511Y-95855001D01*
X82200500Y-95004990D02*
X81259500Y-95004990D01*
X89830000Y-96330000D02*
X89355001Y-95855001D01*
X97605011Y-96827991D02*
X97605011Y-95904989D01*
X96527998Y-97905004D02*
X97605011Y-96827991D01*
X96081999Y-97905004D02*
X96527998Y-97905004D01*
G04 #@! TO.N,/MCU_DOUT*
X106455000Y-87215000D02*
X106930000Y-87215000D01*
X105130000Y-88540000D02*
X106455000Y-87215000D01*
X105130000Y-90505000D02*
X105130000Y-88540000D01*
G04 #@! TO.N,/ADC_DIN*
X105629072Y-92754072D02*
X105130000Y-92255000D01*
X105855001Y-92980001D02*
X105629072Y-92754072D01*
X105855001Y-95304999D02*
X105855001Y-92980001D01*
X102280000Y-98880000D02*
X105855001Y-95304999D01*
X99130000Y-99780000D02*
X100030000Y-98880000D01*
X100030000Y-98880000D02*
X102280000Y-98880000D01*
G04 #@! TO.N,/ADC_CLK*
X100394321Y-98077752D02*
X99730000Y-98077752D01*
X100596569Y-98280000D02*
X100394321Y-98077752D01*
X102130000Y-98280000D02*
X100596569Y-98280000D01*
X103330000Y-92255000D02*
X103330000Y-97080000D01*
X103330000Y-97080000D02*
X102130000Y-98280000D01*
X88879999Y-99729999D02*
X88480000Y-99330000D01*
X89055001Y-99905001D02*
X88879999Y-99729999D01*
X99730000Y-98077752D02*
X99330001Y-97677753D01*
X99330001Y-97677753D02*
X98380152Y-97677753D01*
X98380152Y-97677753D02*
X97177905Y-98880000D01*
X97177905Y-98880000D02*
X93221822Y-98880000D01*
X93221822Y-98880000D02*
X92196821Y-99905001D01*
X92196821Y-99905001D02*
X89055001Y-99905001D01*
G04 #@! TO.N,/MCU_CLK*
X106455000Y-85945000D02*
X106930000Y-85945000D01*
X103330000Y-89070000D02*
X106455000Y-85945000D01*
X103330000Y-90505000D02*
X103330000Y-89070000D01*
G04 #@! TO.N,/MCU_CS*
X106930000Y-90505000D02*
X106930000Y-88485000D01*
G04 #@! TO.N,/ADC_CS*
X109778003Y-102155001D02*
X109078001Y-101454999D01*
X110578001Y-102155001D02*
X109778003Y-102155001D01*
X110955001Y-101778001D02*
X110578001Y-102155001D01*
X110955001Y-99005001D02*
X110955001Y-101778001D01*
X106930000Y-94980000D02*
X110955001Y-99005001D01*
X106930000Y-92255000D02*
X106930000Y-94980000D01*
X104505001Y-101454999D02*
X103780000Y-102180000D01*
X109078001Y-101454999D02*
X104505001Y-101454999D01*
G04 #@! TO.N,/U8U~D*
X96357001Y-97180003D02*
X96430000Y-97180003D01*
X96829999Y-96530001D02*
X96430000Y-96930000D01*
X97155002Y-96204998D02*
X96829999Y-96530001D01*
X90280000Y-95405000D02*
X91130010Y-94554990D01*
X92404990Y-94554990D02*
X92954990Y-95104990D01*
X92954990Y-95104990D02*
X96727992Y-95104990D01*
X96727992Y-95104990D02*
X97155002Y-95532000D01*
X91130010Y-94554990D02*
X92404990Y-94554990D01*
X97155002Y-95532000D02*
X97155002Y-96204998D01*
G04 #@! TO.N,/U7U~D*
X79930000Y-95855000D02*
X78155000Y-95855000D01*
X78155000Y-95855000D02*
X78130000Y-95880000D01*
G04 #@! TO.N,/U7~CS*
X82229072Y-96354072D02*
X81730000Y-95855000D01*
X89217662Y-96354072D02*
X82229072Y-96354072D01*
X90845999Y-98855001D02*
X90045001Y-98054003D01*
X90045001Y-97181411D02*
X89217662Y-96354072D01*
X91974001Y-98855001D02*
X90845999Y-98855001D01*
X90045001Y-98054003D02*
X90045001Y-97181411D01*
X93280000Y-97549002D02*
X91974001Y-98855001D01*
X93280000Y-96930000D02*
X93280000Y-97549002D01*
G04 #@! TO.N,/U8~CS*
X92230000Y-95555000D02*
X95805000Y-95555000D01*
X95864315Y-95880000D02*
X96430000Y-95880000D01*
X95805000Y-95820685D02*
X95864315Y-95880000D01*
X95805000Y-95555000D02*
X95805000Y-95820685D01*
G04 #@! TO.N,/EINK_DC*
X100780000Y-97080000D02*
X101680000Y-96180000D01*
X89980000Y-99180000D02*
X90105011Y-99305011D01*
X90105011Y-99305011D02*
X92160401Y-99305011D01*
X92160401Y-99305011D02*
X93035412Y-98430000D01*
X93035412Y-98430000D02*
X96639412Y-98430000D01*
X96639412Y-98430000D02*
X97989412Y-97080000D01*
X97989412Y-97080000D02*
X100780000Y-97080000D01*
G04 #@! TO.N,/EINK_RST*
X99105001Y-101754999D02*
X99604990Y-101255010D01*
X75024999Y-98825001D02*
X75024999Y-101034001D01*
X76170000Y-97680000D02*
X75024999Y-98825001D01*
X76536019Y-102545021D02*
X89383309Y-102545021D01*
X89383309Y-102545021D02*
X90173331Y-101754999D01*
X99604990Y-101255010D02*
X100780000Y-100080000D01*
X75024999Y-101034001D02*
X76536019Y-102545021D01*
X90173331Y-101754999D02*
X99105001Y-101754999D01*
G04 #@! TO.N,/EINK_DOUT*
X98680000Y-98580000D02*
X98114315Y-98580000D01*
X98114315Y-98580000D02*
X97364305Y-99330010D01*
X97364305Y-99330010D02*
X95829990Y-99330010D01*
X87535001Y-98885001D02*
X86330000Y-97680000D01*
X87535001Y-99458003D02*
X87535001Y-98885001D01*
X95829990Y-99330010D02*
X94804989Y-100355011D01*
X94804989Y-100355011D02*
X88432009Y-100355011D01*
X88432009Y-100355011D02*
X87535001Y-99458003D01*
G04 #@! TD*
M02*
