G04 #@! TF.GenerationSoftware,KiCad,Pcbnew,(5.0.0-rc2-178-g3c7b91b96)*
G04 #@! TF.CreationDate,2018-08-09T18:01:17+02:00*
G04 #@! TF.ProjectId,pcb3,706362332E6B696361645F7063620000,rev?*
G04 #@! TF.SameCoordinates,Original*
G04 #@! TF.FileFunction,Legend,Top*
G04 #@! TF.FilePolarity,Positive*
%FSLAX46Y46*%
G04 Gerber Fmt 4.6, Leading zero omitted, Abs format (unit mm)*
G04 Created by KiCad (PCBNEW (5.0.0-rc2-178-g3c7b91b96)) date 08/09/18 18:01:17*
%MOMM*%
%LPD*%
G01*
G04 APERTURE LIST*
%ADD10C,0.200000*%
%ADD11C,0.127000*%
%ADD12C,0.120000*%
%ADD13C,0.150000*%
%ADD14C,0.050000*%
G04 APERTURE END LIST*
D10*
X112450571Y-65635047D02*
X112450571Y-65301714D01*
X112974380Y-65158857D02*
X112974380Y-65635047D01*
X111974380Y-65635047D01*
X111974380Y-65158857D01*
X111974380Y-64254095D02*
X111974380Y-64730285D01*
X112450571Y-64777904D01*
X112402952Y-64730285D01*
X112355333Y-64635047D01*
X112355333Y-64396952D01*
X112402952Y-64301714D01*
X112450571Y-64254095D01*
X112545809Y-64206476D01*
X112783904Y-64206476D01*
X112879142Y-64254095D01*
X112926761Y-64301714D01*
X112974380Y-64396952D01*
X112974380Y-64635047D01*
X112926761Y-64730285D01*
X112879142Y-64777904D01*
X111974380Y-63920761D02*
X112974380Y-63587428D01*
X111974380Y-63254095D01*
X107957904Y-69350000D02*
X107862666Y-69302380D01*
X107719809Y-69302380D01*
X107576952Y-69350000D01*
X107481714Y-69445238D01*
X107434095Y-69540476D01*
X107386476Y-69730952D01*
X107386476Y-69873809D01*
X107434095Y-70064285D01*
X107481714Y-70159523D01*
X107576952Y-70254761D01*
X107719809Y-70302380D01*
X107815047Y-70302380D01*
X107957904Y-70254761D01*
X108005523Y-70207142D01*
X108005523Y-69873809D01*
X107815047Y-69873809D01*
X111061523Y-82002380D02*
X110585333Y-82002380D01*
X110537714Y-82478571D01*
X110585333Y-82430952D01*
X110680571Y-82383333D01*
X110918666Y-82383333D01*
X111013904Y-82430952D01*
X111061523Y-82478571D01*
X111109142Y-82573809D01*
X111109142Y-82811904D01*
X111061523Y-82907142D01*
X111013904Y-82954761D01*
X110918666Y-83002380D01*
X110680571Y-83002380D01*
X110585333Y-82954761D01*
X110537714Y-82907142D01*
X111394857Y-82002380D02*
X111728190Y-83002380D01*
X112061523Y-82002380D01*
X108148380Y-66008095D02*
X107148380Y-66008095D01*
X107148380Y-65627142D01*
X107196000Y-65531904D01*
X107243619Y-65484285D01*
X107338857Y-65436666D01*
X107481714Y-65436666D01*
X107576952Y-65484285D01*
X107624571Y-65531904D01*
X107672190Y-65627142D01*
X107672190Y-66008095D01*
X108148380Y-65008095D02*
X107148380Y-65008095D01*
X107148380Y-64770000D01*
X107196000Y-64627142D01*
X107291238Y-64531904D01*
X107386476Y-64484285D01*
X107576952Y-64436666D01*
X107719809Y-64436666D01*
X107910285Y-64484285D01*
X108005523Y-64531904D01*
X108100761Y-64627142D01*
X108148380Y-64770000D01*
X108148380Y-65008095D01*
X107243619Y-64055714D02*
X107196000Y-64008095D01*
X107148380Y-63912857D01*
X107148380Y-63674761D01*
X107196000Y-63579523D01*
X107243619Y-63531904D01*
X107338857Y-63484285D01*
X107434095Y-63484285D01*
X107576952Y-63531904D01*
X108148380Y-64103333D01*
X108148380Y-63484285D01*
X127095428Y-70302380D02*
X127000190Y-70254761D01*
X126952571Y-70207142D01*
X126904952Y-70111904D01*
X126904952Y-69826190D01*
X126952571Y-69730952D01*
X127000190Y-69683333D01*
X127095428Y-69635714D01*
X127238285Y-69635714D01*
X127333523Y-69683333D01*
X127381142Y-69730952D01*
X127428761Y-69826190D01*
X127428761Y-70111904D01*
X127381142Y-70207142D01*
X127333523Y-70254761D01*
X127238285Y-70302380D01*
X127095428Y-70302380D01*
X128285904Y-69635714D02*
X128285904Y-70302380D01*
X127857333Y-69635714D02*
X127857333Y-70159523D01*
X127904952Y-70254761D01*
X128000190Y-70302380D01*
X128143047Y-70302380D01*
X128238285Y-70254761D01*
X128285904Y-70207142D01*
X128619238Y-69635714D02*
X129000190Y-69635714D01*
X128762095Y-69302380D02*
X128762095Y-70159523D01*
X128809714Y-70254761D01*
X128904952Y-70302380D01*
X129000190Y-70302380D01*
X129333523Y-69921428D02*
X130095428Y-69921428D01*
X129714476Y-70302380D02*
X129714476Y-69540476D01*
X127508095Y-71890000D02*
X127412857Y-71842380D01*
X127270000Y-71842380D01*
X127127142Y-71890000D01*
X127031904Y-71985238D01*
X126984285Y-72080476D01*
X126936666Y-72270952D01*
X126936666Y-72413809D01*
X126984285Y-72604285D01*
X127031904Y-72699523D01*
X127127142Y-72794761D01*
X127270000Y-72842380D01*
X127365238Y-72842380D01*
X127508095Y-72794761D01*
X127555714Y-72747142D01*
X127555714Y-72413809D01*
X127365238Y-72413809D01*
X127984285Y-72842380D02*
X127984285Y-71842380D01*
X128555714Y-72842380D01*
X128555714Y-71842380D01*
X129031904Y-72842380D02*
X129031904Y-71842380D01*
X129270000Y-71842380D01*
X129412857Y-71890000D01*
X129508095Y-71985238D01*
X129555714Y-72080476D01*
X129603333Y-72270952D01*
X129603333Y-72413809D01*
X129555714Y-72604285D01*
X129508095Y-72699523D01*
X129412857Y-72794761D01*
X129270000Y-72842380D01*
X129031904Y-72842380D01*
D11*
G04 #@! TO.C,J6*
X160203887Y-81632153D02*
X159513682Y-83636652D01*
X164429761Y-69359320D02*
X161558250Y-77698795D01*
X149679671Y-64280458D02*
X164429761Y-69359320D01*
X146808159Y-72619931D02*
X149679671Y-64280458D01*
X144763592Y-78557788D02*
X145453796Y-76553289D01*
X159513682Y-83636652D02*
X144763592Y-78557788D01*
D12*
G04 #@! TO.C,C1*
X113540000Y-73488733D02*
X113540000Y-73831267D01*
X112520000Y-73488733D02*
X112520000Y-73831267D01*
G04 #@! TO.C,J4*
X111065000Y-71180000D02*
X113725000Y-71180000D01*
X111065000Y-68580000D02*
X111065000Y-71180000D01*
X113725000Y-68580000D02*
X113725000Y-71180000D01*
X111065000Y-68580000D02*
X113725000Y-68580000D01*
X111065000Y-67310000D02*
X111065000Y-65980000D01*
X111065000Y-65980000D02*
X112395000Y-65980000D01*
D13*
G04 #@! TO.C,U1*
X114265000Y-71925000D02*
X114315000Y-71925000D01*
X114265000Y-67775000D02*
X114410000Y-67775000D01*
X119415000Y-67775000D02*
X119270000Y-67775000D01*
X119415000Y-71925000D02*
X119270000Y-71925000D01*
X114265000Y-71925000D02*
X114265000Y-67775000D01*
X119415000Y-71925000D02*
X119415000Y-67775000D01*
X114315000Y-71925000D02*
X114315000Y-73325000D01*
D12*
G04 #@! TO.C,J2*
X120590000Y-65980000D02*
X120590000Y-68640000D01*
X128270000Y-65980000D02*
X120590000Y-65980000D01*
X128270000Y-68640000D02*
X120590000Y-68640000D01*
X128270000Y-65980000D02*
X128270000Y-68640000D01*
X129540000Y-65980000D02*
X130870000Y-65980000D01*
X130870000Y-65980000D02*
X130870000Y-67310000D01*
G04 #@! TO.C,J3*
X130870000Y-76260000D02*
X130870000Y-73600000D01*
X123190000Y-76260000D02*
X130870000Y-76260000D01*
X123190000Y-73600000D02*
X130870000Y-73600000D01*
X123190000Y-76260000D02*
X123190000Y-73600000D01*
X121920000Y-76260000D02*
X120590000Y-76260000D01*
X120590000Y-76260000D02*
X120590000Y-74930000D01*
G04 #@! TO.C,R2*
X116463230Y-77323126D02*
X116463230Y-76980592D01*
X115443230Y-77323126D02*
X115443230Y-76980592D01*
G04 #@! TO.C,R1*
X116463230Y-80790592D02*
X116463230Y-81133126D01*
X115443230Y-80790592D02*
X115443230Y-81133126D01*
G04 #@! TO.C,J6*
D14*
X151964411Y-81993517D02*
X151731092Y-82671123D01*
X151639255Y-82791089D01*
X151517798Y-82850328D01*
X151366723Y-82848838D01*
X151276375Y-82817728D01*
X152822712Y-82289053D02*
X152642017Y-82226835D01*
X152536115Y-82240900D01*
X152475386Y-82270519D01*
X152338375Y-82374931D01*
X152230983Y-82540071D01*
X152106547Y-82901461D01*
X152120611Y-83007363D01*
X152150231Y-83068091D01*
X152225024Y-83144374D01*
X152405718Y-83206593D01*
X152511620Y-83192528D01*
X152572349Y-83162909D01*
X152648632Y-83088116D01*
X152726404Y-82862247D01*
X152712340Y-82756345D01*
X152682721Y-82695617D01*
X152607928Y-82619334D01*
X152427233Y-82557116D01*
X152321331Y-82571180D01*
X152260603Y-82600800D01*
X152184320Y-82675592D01*
X150805965Y-62502790D02*
X150541695Y-63270284D01*
X150555751Y-63376123D01*
X150585353Y-63436815D01*
X150660101Y-63513052D01*
X150840688Y-63575233D01*
X150946527Y-63561177D01*
X151007219Y-63531575D01*
X151083456Y-63456827D01*
X151347725Y-62689333D01*
X151443140Y-63732175D02*
X151563035Y-63823957D01*
X151788769Y-63901684D01*
X151894608Y-63887627D01*
X151955300Y-63858026D01*
X152031537Y-63783278D01*
X152062627Y-63692984D01*
X152048571Y-63587146D01*
X152018970Y-63526454D01*
X151944221Y-63450216D01*
X151779180Y-63342889D01*
X151704432Y-63266651D01*
X151674830Y-63205959D01*
X151660774Y-63100121D01*
X151691865Y-63009827D01*
X151768102Y-62935079D01*
X151828794Y-62905478D01*
X151934632Y-62891422D01*
X152160366Y-62969148D01*
X152280261Y-63060930D01*
X152862701Y-63715975D02*
X152982596Y-63807757D01*
X153012197Y-63868449D01*
X153026253Y-63974288D01*
X152979618Y-64109728D01*
X152903380Y-64184476D01*
X152842688Y-64214078D01*
X152736850Y-64228134D01*
X152375676Y-64103772D01*
X152702127Y-63155691D01*
X153018154Y-63264508D01*
X153092902Y-63340745D01*
X153122503Y-63401437D01*
X153136559Y-63507276D01*
X153105469Y-63597569D01*
X153029232Y-63672317D01*
X152968540Y-63701919D01*
X152862701Y-63715975D01*
X152546674Y-63607158D01*
X153448119Y-64069049D02*
X154170466Y-64317773D01*
X154545696Y-64547974D02*
X154997163Y-64703426D01*
X154362131Y-64787763D02*
X155004609Y-63948499D01*
X154994185Y-65005397D01*
X155434574Y-64753040D02*
X156156922Y-65001764D01*
X156454425Y-65457699D02*
X156574320Y-65549481D01*
X156800054Y-65627207D01*
X156905892Y-65613151D01*
X156966584Y-65583550D01*
X157042822Y-65508801D01*
X157073912Y-65418508D01*
X157059856Y-65312669D01*
X157030255Y-65251977D01*
X156955506Y-65175740D01*
X156790465Y-65068412D01*
X156715717Y-64992175D01*
X156686115Y-64931483D01*
X156672059Y-64825645D01*
X156703150Y-64735351D01*
X156779387Y-64660603D01*
X156840079Y-64631002D01*
X156945917Y-64616945D01*
X157171651Y-64694672D01*
X157291546Y-64786454D01*
X157511323Y-65468122D02*
X158233670Y-65716846D01*
X158796933Y-65254301D02*
X159102536Y-66420016D01*
X159428986Y-65471935D02*
X158470482Y-66202382D01*
X159588072Y-66183204D02*
X160310419Y-66431928D01*
X160873681Y-65969383D02*
X161179285Y-67135097D01*
X161505735Y-66187017D02*
X160547231Y-66917464D01*
X161664821Y-66898286D02*
X162387168Y-67147010D01*
X162905283Y-66668920D02*
X163447044Y-66855463D01*
X162849713Y-67710272D02*
X163176164Y-66762191D01*
X163436620Y-67912360D02*
X163763071Y-66964279D01*
X163607618Y-67415747D02*
X164149379Y-67602290D01*
X163978381Y-68098904D02*
X164304831Y-67150823D01*
G04 #@! TO.C,C1*
D13*
X111863142Y-73572666D02*
X111910761Y-73620285D01*
X111958380Y-73763142D01*
X111958380Y-73858380D01*
X111910761Y-74001238D01*
X111815523Y-74096476D01*
X111720285Y-74144095D01*
X111529809Y-74191714D01*
X111386952Y-74191714D01*
X111196476Y-74144095D01*
X111101238Y-74096476D01*
X111006000Y-74001238D01*
X110958380Y-73858380D01*
X110958380Y-73763142D01*
X111006000Y-73620285D01*
X111053619Y-73572666D01*
X111958380Y-72620285D02*
X111958380Y-73191714D01*
X111958380Y-72906000D02*
X110958380Y-72906000D01*
X111101238Y-73001238D01*
X111196476Y-73096476D01*
X111244095Y-73191714D01*
G04 #@! TO.C,J4*
X113498380Y-65103333D02*
X114212666Y-65103333D01*
X114355523Y-65150952D01*
X114450761Y-65246190D01*
X114498380Y-65389047D01*
X114498380Y-65484285D01*
X113831714Y-64198571D02*
X114498380Y-64198571D01*
X113450761Y-64436666D02*
X114165047Y-64674761D01*
X114165047Y-64055714D01*
G04 #@! TO.C,U1*
X119848380Y-70611904D02*
X120657904Y-70611904D01*
X120753142Y-70564285D01*
X120800761Y-70516666D01*
X120848380Y-70421428D01*
X120848380Y-70230952D01*
X120800761Y-70135714D01*
X120753142Y-70088095D01*
X120657904Y-70040476D01*
X119848380Y-70040476D01*
X120848380Y-69040476D02*
X120848380Y-69611904D01*
X120848380Y-69326190D02*
X119848380Y-69326190D01*
X119991238Y-69421428D01*
X120086476Y-69516666D01*
X120134095Y-69611904D01*
G04 #@! TO.C,J2*
X124936666Y-69302380D02*
X124936666Y-70016666D01*
X124889047Y-70159523D01*
X124793809Y-70254761D01*
X124650952Y-70302380D01*
X124555714Y-70302380D01*
X125365238Y-69397619D02*
X125412857Y-69350000D01*
X125508095Y-69302380D01*
X125746190Y-69302380D01*
X125841428Y-69350000D01*
X125889047Y-69397619D01*
X125936666Y-69492857D01*
X125936666Y-69588095D01*
X125889047Y-69730952D01*
X125317619Y-70302380D01*
X125936666Y-70302380D01*
G04 #@! TO.C,J3*
X124936666Y-71842380D02*
X124936666Y-72556666D01*
X124889047Y-72699523D01*
X124793809Y-72794761D01*
X124650952Y-72842380D01*
X124555714Y-72842380D01*
X125317619Y-71842380D02*
X125936666Y-71842380D01*
X125603333Y-72223333D01*
X125746190Y-72223333D01*
X125841428Y-72270952D01*
X125889047Y-72318571D01*
X125936666Y-72413809D01*
X125936666Y-72651904D01*
X125889047Y-72747142D01*
X125841428Y-72794761D01*
X125746190Y-72842380D01*
X125460476Y-72842380D01*
X125365238Y-72794761D01*
X125317619Y-72747142D01*
G04 #@! TO.C,R2*
X118016563Y-77452380D02*
X117683230Y-76976190D01*
X117445134Y-77452380D02*
X117445134Y-76452380D01*
X117826087Y-76452380D01*
X117921325Y-76500000D01*
X117968944Y-76547619D01*
X118016563Y-76642857D01*
X118016563Y-76785714D01*
X117968944Y-76880952D01*
X117921325Y-76928571D01*
X117826087Y-76976190D01*
X117445134Y-76976190D01*
X118397515Y-76547619D02*
X118445134Y-76500000D01*
X118540372Y-76452380D01*
X118778468Y-76452380D01*
X118873706Y-76500000D01*
X118921325Y-76547619D01*
X118968944Y-76642857D01*
X118968944Y-76738095D01*
X118921325Y-76880952D01*
X118349896Y-77452380D01*
X118968944Y-77452380D01*
G04 #@! TO.C,R1*
X118373333Y-81452380D02*
X118040000Y-80976190D01*
X117801904Y-81452380D02*
X117801904Y-80452380D01*
X118182857Y-80452380D01*
X118278095Y-80500000D01*
X118325714Y-80547619D01*
X118373333Y-80642857D01*
X118373333Y-80785714D01*
X118325714Y-80880952D01*
X118278095Y-80928571D01*
X118182857Y-80976190D01*
X117801904Y-80976190D01*
X119325714Y-81452380D02*
X118754285Y-81452380D01*
X119040000Y-81452380D02*
X119040000Y-80452380D01*
X118944761Y-80595238D01*
X118849523Y-80690476D01*
X118754285Y-80738095D01*
G04 #@! TD*
M02*
