G04 #@! TF.GenerationSoftware,KiCad,Pcbnew,(5.0.0-rc2-178-g3c7b91b96)*
G04 #@! TF.CreationDate,2018-08-09T16:31:39+02:00*
G04 #@! TF.ProjectId,pcb3,706362332E6B696361645F7063620000,rev?*
G04 #@! TF.SameCoordinates,Original*
G04 #@! TF.FileFunction,Copper,L1,Top,Signal*
G04 #@! TF.FilePolarity,Positive*
%FSLAX46Y46*%
G04 Gerber Fmt 4.6, Leading zero omitted, Abs format (unit mm)*
G04 Created by KiCad (PCBNEW (5.0.0-rc2-178-g3c7b91b96)) date 08/09/18 16:31:39*
%MOMM*%
%LPD*%
G01*
G04 APERTURE LIST*
G04 #@! TA.AperFunction,Conductor*
%ADD10C,0.100000*%
G04 #@! TD*
G04 #@! TA.AperFunction,SMDPad,CuDef*
%ADD11C,0.950000*%
G04 #@! TD*
G04 #@! TA.AperFunction,ComponentPad*
%ADD12R,1.700000X1.700000*%
G04 #@! TD*
G04 #@! TA.AperFunction,ComponentPad*
%ADD13O,1.700000X1.700000*%
G04 #@! TD*
G04 #@! TA.AperFunction,SMDPad,CuDef*
%ADD14R,0.600000X1.550000*%
G04 #@! TD*
G04 #@! TA.AperFunction,ViaPad*
%ADD15C,0.800000*%
G04 #@! TD*
G04 #@! TA.AperFunction,Conductor*
%ADD16C,0.250000*%
G04 #@! TD*
G04 APERTURE END LIST*
D10*
G04 #@! TO.N,/5V*
G04 #@! TO.C,C1*
G36*
X113290779Y-72261144D02*
X113313834Y-72264563D01*
X113336443Y-72270227D01*
X113358387Y-72278079D01*
X113379457Y-72288044D01*
X113399448Y-72300026D01*
X113418168Y-72313910D01*
X113435438Y-72329562D01*
X113451090Y-72346832D01*
X113464974Y-72365552D01*
X113476956Y-72385543D01*
X113486921Y-72406613D01*
X113494773Y-72428557D01*
X113500437Y-72451166D01*
X113503856Y-72474221D01*
X113505000Y-72497500D01*
X113505000Y-73072500D01*
X113503856Y-73095779D01*
X113500437Y-73118834D01*
X113494773Y-73141443D01*
X113486921Y-73163387D01*
X113476956Y-73184457D01*
X113464974Y-73204448D01*
X113451090Y-73223168D01*
X113435438Y-73240438D01*
X113418168Y-73256090D01*
X113399448Y-73269974D01*
X113379457Y-73281956D01*
X113358387Y-73291921D01*
X113336443Y-73299773D01*
X113313834Y-73305437D01*
X113290779Y-73308856D01*
X113267500Y-73310000D01*
X112792500Y-73310000D01*
X112769221Y-73308856D01*
X112746166Y-73305437D01*
X112723557Y-73299773D01*
X112701613Y-73291921D01*
X112680543Y-73281956D01*
X112660552Y-73269974D01*
X112641832Y-73256090D01*
X112624562Y-73240438D01*
X112608910Y-73223168D01*
X112595026Y-73204448D01*
X112583044Y-73184457D01*
X112573079Y-73163387D01*
X112565227Y-73141443D01*
X112559563Y-73118834D01*
X112556144Y-73095779D01*
X112555000Y-73072500D01*
X112555000Y-72497500D01*
X112556144Y-72474221D01*
X112559563Y-72451166D01*
X112565227Y-72428557D01*
X112573079Y-72406613D01*
X112583044Y-72385543D01*
X112595026Y-72365552D01*
X112608910Y-72346832D01*
X112624562Y-72329562D01*
X112641832Y-72313910D01*
X112660552Y-72300026D01*
X112680543Y-72288044D01*
X112701613Y-72278079D01*
X112723557Y-72270227D01*
X112746166Y-72264563D01*
X112769221Y-72261144D01*
X112792500Y-72260000D01*
X113267500Y-72260000D01*
X113290779Y-72261144D01*
X113290779Y-72261144D01*
G37*
D11*
G04 #@! TD*
G04 #@! TO.P,C1,1*
G04 #@! TO.N,/5V*
X113030000Y-72785000D03*
D10*
G04 #@! TO.N,/G*
G04 #@! TO.C,C1*
G36*
X113290779Y-74011144D02*
X113313834Y-74014563D01*
X113336443Y-74020227D01*
X113358387Y-74028079D01*
X113379457Y-74038044D01*
X113399448Y-74050026D01*
X113418168Y-74063910D01*
X113435438Y-74079562D01*
X113451090Y-74096832D01*
X113464974Y-74115552D01*
X113476956Y-74135543D01*
X113486921Y-74156613D01*
X113494773Y-74178557D01*
X113500437Y-74201166D01*
X113503856Y-74224221D01*
X113505000Y-74247500D01*
X113505000Y-74822500D01*
X113503856Y-74845779D01*
X113500437Y-74868834D01*
X113494773Y-74891443D01*
X113486921Y-74913387D01*
X113476956Y-74934457D01*
X113464974Y-74954448D01*
X113451090Y-74973168D01*
X113435438Y-74990438D01*
X113418168Y-75006090D01*
X113399448Y-75019974D01*
X113379457Y-75031956D01*
X113358387Y-75041921D01*
X113336443Y-75049773D01*
X113313834Y-75055437D01*
X113290779Y-75058856D01*
X113267500Y-75060000D01*
X112792500Y-75060000D01*
X112769221Y-75058856D01*
X112746166Y-75055437D01*
X112723557Y-75049773D01*
X112701613Y-75041921D01*
X112680543Y-75031956D01*
X112660552Y-75019974D01*
X112641832Y-75006090D01*
X112624562Y-74990438D01*
X112608910Y-74973168D01*
X112595026Y-74954448D01*
X112583044Y-74934457D01*
X112573079Y-74913387D01*
X112565227Y-74891443D01*
X112559563Y-74868834D01*
X112556144Y-74845779D01*
X112555000Y-74822500D01*
X112555000Y-74247500D01*
X112556144Y-74224221D01*
X112559563Y-74201166D01*
X112565227Y-74178557D01*
X112573079Y-74156613D01*
X112583044Y-74135543D01*
X112595026Y-74115552D01*
X112608910Y-74096832D01*
X112624562Y-74079562D01*
X112641832Y-74063910D01*
X112660552Y-74050026D01*
X112680543Y-74038044D01*
X112701613Y-74028079D01*
X112723557Y-74020227D01*
X112746166Y-74014563D01*
X112769221Y-74011144D01*
X112792500Y-74010000D01*
X113267500Y-74010000D01*
X113290779Y-74011144D01*
X113290779Y-74011144D01*
G37*
D11*
G04 #@! TD*
G04 #@! TO.P,C1,2*
G04 #@! TO.N,/G*
X113030000Y-74535000D03*
D12*
G04 #@! TO.P,J4,1*
G04 #@! TO.N,Net-(J1-Pad2)*
X112395000Y-67310000D03*
D13*
G04 #@! TO.P,J4,2*
G04 #@! TO.N,/G*
X112395000Y-69850000D03*
G04 #@! TD*
D14*
G04 #@! TO.P,U1,1*
G04 #@! TO.N,Net-(J2-Pad1)*
X114935000Y-72550000D03*
G04 #@! TO.P,U1,2*
G04 #@! TO.N,Net-(R1-Pad1)*
X116205000Y-72550000D03*
G04 #@! TO.P,U1,3*
G04 #@! TO.N,/PD2*
X117475000Y-72550000D03*
G04 #@! TO.P,U1,4*
G04 #@! TO.N,/G*
X118745000Y-72550000D03*
G04 #@! TO.P,U1,5*
G04 #@! TO.N,/PD2*
X118745000Y-67150000D03*
G04 #@! TO.P,U1,6*
G04 #@! TO.N,Net-(R1-Pad1)*
X117475000Y-67150000D03*
G04 #@! TO.P,U1,7*
G04 #@! TO.N,Net-(J2-Pad3)*
X116205000Y-67150000D03*
G04 #@! TO.P,U1,8*
G04 #@! TO.N,/5V*
X114935000Y-67150000D03*
G04 #@! TD*
D12*
G04 #@! TO.P,J2,1*
G04 #@! TO.N,Net-(J2-Pad1)*
X129540000Y-67310000D03*
D13*
G04 #@! TO.P,J2,2*
X127000000Y-67310000D03*
G04 #@! TO.P,J2,3*
G04 #@! TO.N,Net-(J2-Pad3)*
X124460000Y-67310000D03*
G04 #@! TO.P,J2,4*
X121920000Y-67310000D03*
G04 #@! TD*
D12*
G04 #@! TO.P,J3,1*
G04 #@! TO.N,/G*
X121920000Y-74930000D03*
D13*
G04 #@! TO.P,J3,2*
X124460000Y-74930000D03*
G04 #@! TO.P,J3,3*
X127000000Y-74930000D03*
G04 #@! TO.P,J3,4*
X129540000Y-74930000D03*
G04 #@! TD*
D12*
G04 #@! TO.P,J1,1*
G04 #@! TO.N,/PD2*
X109220000Y-64770000D03*
D13*
G04 #@! TO.P,J1,2*
G04 #@! TO.N,Net-(J1-Pad2)*
X109220000Y-67310000D03*
G04 #@! TO.P,J1,3*
G04 #@! TO.N,/G*
X109220000Y-69850000D03*
G04 #@! TO.P,J1,4*
G04 #@! TO.N,Net-(J1-Pad4)*
X109220000Y-72390000D03*
G04 #@! TO.P,J1,5*
G04 #@! TO.N,Net-(J1-Pad5)*
X109220000Y-74930000D03*
G04 #@! TO.P,J1,6*
G04 #@! TO.N,Net-(J1-Pad6)*
X109220000Y-77470000D03*
G04 #@! TO.P,J1,7*
G04 #@! TO.N,Net-(J1-Pad7)*
X109220000Y-80010000D03*
G04 #@! TO.P,J1,8*
G04 #@! TO.N,/5V*
X109220000Y-82550000D03*
G04 #@! TD*
D10*
G04 #@! TO.N,/G*
G04 #@! TO.C,R2*
G36*
X116214009Y-75753003D02*
X116237064Y-75756422D01*
X116259673Y-75762086D01*
X116281617Y-75769938D01*
X116302687Y-75779903D01*
X116322678Y-75791885D01*
X116341398Y-75805769D01*
X116358668Y-75821421D01*
X116374320Y-75838691D01*
X116388204Y-75857411D01*
X116400186Y-75877402D01*
X116410151Y-75898472D01*
X116418003Y-75920416D01*
X116423667Y-75943025D01*
X116427086Y-75966080D01*
X116428230Y-75989359D01*
X116428230Y-76564359D01*
X116427086Y-76587638D01*
X116423667Y-76610693D01*
X116418003Y-76633302D01*
X116410151Y-76655246D01*
X116400186Y-76676316D01*
X116388204Y-76696307D01*
X116374320Y-76715027D01*
X116358668Y-76732297D01*
X116341398Y-76747949D01*
X116322678Y-76761833D01*
X116302687Y-76773815D01*
X116281617Y-76783780D01*
X116259673Y-76791632D01*
X116237064Y-76797296D01*
X116214009Y-76800715D01*
X116190730Y-76801859D01*
X115715730Y-76801859D01*
X115692451Y-76800715D01*
X115669396Y-76797296D01*
X115646787Y-76791632D01*
X115624843Y-76783780D01*
X115603773Y-76773815D01*
X115583782Y-76761833D01*
X115565062Y-76747949D01*
X115547792Y-76732297D01*
X115532140Y-76715027D01*
X115518256Y-76696307D01*
X115506274Y-76676316D01*
X115496309Y-76655246D01*
X115488457Y-76633302D01*
X115482793Y-76610693D01*
X115479374Y-76587638D01*
X115478230Y-76564359D01*
X115478230Y-75989359D01*
X115479374Y-75966080D01*
X115482793Y-75943025D01*
X115488457Y-75920416D01*
X115496309Y-75898472D01*
X115506274Y-75877402D01*
X115518256Y-75857411D01*
X115532140Y-75838691D01*
X115547792Y-75821421D01*
X115565062Y-75805769D01*
X115583782Y-75791885D01*
X115603773Y-75779903D01*
X115624843Y-75769938D01*
X115646787Y-75762086D01*
X115669396Y-75756422D01*
X115692451Y-75753003D01*
X115715730Y-75751859D01*
X116190730Y-75751859D01*
X116214009Y-75753003D01*
X116214009Y-75753003D01*
G37*
D11*
G04 #@! TD*
G04 #@! TO.P,R2,2*
G04 #@! TO.N,/G*
X115953230Y-76276859D03*
D10*
G04 #@! TO.N,Net-(R1-Pad1)*
G04 #@! TO.C,R2*
G36*
X116214009Y-77503003D02*
X116237064Y-77506422D01*
X116259673Y-77512086D01*
X116281617Y-77519938D01*
X116302687Y-77529903D01*
X116322678Y-77541885D01*
X116341398Y-77555769D01*
X116358668Y-77571421D01*
X116374320Y-77588691D01*
X116388204Y-77607411D01*
X116400186Y-77627402D01*
X116410151Y-77648472D01*
X116418003Y-77670416D01*
X116423667Y-77693025D01*
X116427086Y-77716080D01*
X116428230Y-77739359D01*
X116428230Y-78314359D01*
X116427086Y-78337638D01*
X116423667Y-78360693D01*
X116418003Y-78383302D01*
X116410151Y-78405246D01*
X116400186Y-78426316D01*
X116388204Y-78446307D01*
X116374320Y-78465027D01*
X116358668Y-78482297D01*
X116341398Y-78497949D01*
X116322678Y-78511833D01*
X116302687Y-78523815D01*
X116281617Y-78533780D01*
X116259673Y-78541632D01*
X116237064Y-78547296D01*
X116214009Y-78550715D01*
X116190730Y-78551859D01*
X115715730Y-78551859D01*
X115692451Y-78550715D01*
X115669396Y-78547296D01*
X115646787Y-78541632D01*
X115624843Y-78533780D01*
X115603773Y-78523815D01*
X115583782Y-78511833D01*
X115565062Y-78497949D01*
X115547792Y-78482297D01*
X115532140Y-78465027D01*
X115518256Y-78446307D01*
X115506274Y-78426316D01*
X115496309Y-78405246D01*
X115488457Y-78383302D01*
X115482793Y-78360693D01*
X115479374Y-78337638D01*
X115478230Y-78314359D01*
X115478230Y-77739359D01*
X115479374Y-77716080D01*
X115482793Y-77693025D01*
X115488457Y-77670416D01*
X115496309Y-77648472D01*
X115506274Y-77627402D01*
X115518256Y-77607411D01*
X115532140Y-77588691D01*
X115547792Y-77571421D01*
X115565062Y-77555769D01*
X115583782Y-77541885D01*
X115603773Y-77529903D01*
X115624843Y-77519938D01*
X115646787Y-77512086D01*
X115669396Y-77506422D01*
X115692451Y-77503003D01*
X115715730Y-77501859D01*
X116190730Y-77501859D01*
X116214009Y-77503003D01*
X116214009Y-77503003D01*
G37*
D11*
G04 #@! TD*
G04 #@! TO.P,R2,1*
G04 #@! TO.N,Net-(R1-Pad1)*
X115953230Y-78026859D03*
D10*
G04 #@! TO.N,Net-(R1-Pad1)*
G04 #@! TO.C,R1*
G36*
X116214009Y-79563003D02*
X116237064Y-79566422D01*
X116259673Y-79572086D01*
X116281617Y-79579938D01*
X116302687Y-79589903D01*
X116322678Y-79601885D01*
X116341398Y-79615769D01*
X116358668Y-79631421D01*
X116374320Y-79648691D01*
X116388204Y-79667411D01*
X116400186Y-79687402D01*
X116410151Y-79708472D01*
X116418003Y-79730416D01*
X116423667Y-79753025D01*
X116427086Y-79776080D01*
X116428230Y-79799359D01*
X116428230Y-80374359D01*
X116427086Y-80397638D01*
X116423667Y-80420693D01*
X116418003Y-80443302D01*
X116410151Y-80465246D01*
X116400186Y-80486316D01*
X116388204Y-80506307D01*
X116374320Y-80525027D01*
X116358668Y-80542297D01*
X116341398Y-80557949D01*
X116322678Y-80571833D01*
X116302687Y-80583815D01*
X116281617Y-80593780D01*
X116259673Y-80601632D01*
X116237064Y-80607296D01*
X116214009Y-80610715D01*
X116190730Y-80611859D01*
X115715730Y-80611859D01*
X115692451Y-80610715D01*
X115669396Y-80607296D01*
X115646787Y-80601632D01*
X115624843Y-80593780D01*
X115603773Y-80583815D01*
X115583782Y-80571833D01*
X115565062Y-80557949D01*
X115547792Y-80542297D01*
X115532140Y-80525027D01*
X115518256Y-80506307D01*
X115506274Y-80486316D01*
X115496309Y-80465246D01*
X115488457Y-80443302D01*
X115482793Y-80420693D01*
X115479374Y-80397638D01*
X115478230Y-80374359D01*
X115478230Y-79799359D01*
X115479374Y-79776080D01*
X115482793Y-79753025D01*
X115488457Y-79730416D01*
X115496309Y-79708472D01*
X115506274Y-79687402D01*
X115518256Y-79667411D01*
X115532140Y-79648691D01*
X115547792Y-79631421D01*
X115565062Y-79615769D01*
X115583782Y-79601885D01*
X115603773Y-79589903D01*
X115624843Y-79579938D01*
X115646787Y-79572086D01*
X115669396Y-79566422D01*
X115692451Y-79563003D01*
X115715730Y-79561859D01*
X116190730Y-79561859D01*
X116214009Y-79563003D01*
X116214009Y-79563003D01*
G37*
D11*
G04 #@! TD*
G04 #@! TO.P,R1,1*
G04 #@! TO.N,Net-(R1-Pad1)*
X115953230Y-80086859D03*
D10*
G04 #@! TO.N,/5V*
G04 #@! TO.C,R1*
G36*
X116214009Y-81313003D02*
X116237064Y-81316422D01*
X116259673Y-81322086D01*
X116281617Y-81329938D01*
X116302687Y-81339903D01*
X116322678Y-81351885D01*
X116341398Y-81365769D01*
X116358668Y-81381421D01*
X116374320Y-81398691D01*
X116388204Y-81417411D01*
X116400186Y-81437402D01*
X116410151Y-81458472D01*
X116418003Y-81480416D01*
X116423667Y-81503025D01*
X116427086Y-81526080D01*
X116428230Y-81549359D01*
X116428230Y-82124359D01*
X116427086Y-82147638D01*
X116423667Y-82170693D01*
X116418003Y-82193302D01*
X116410151Y-82215246D01*
X116400186Y-82236316D01*
X116388204Y-82256307D01*
X116374320Y-82275027D01*
X116358668Y-82292297D01*
X116341398Y-82307949D01*
X116322678Y-82321833D01*
X116302687Y-82333815D01*
X116281617Y-82343780D01*
X116259673Y-82351632D01*
X116237064Y-82357296D01*
X116214009Y-82360715D01*
X116190730Y-82361859D01*
X115715730Y-82361859D01*
X115692451Y-82360715D01*
X115669396Y-82357296D01*
X115646787Y-82351632D01*
X115624843Y-82343780D01*
X115603773Y-82333815D01*
X115583782Y-82321833D01*
X115565062Y-82307949D01*
X115547792Y-82292297D01*
X115532140Y-82275027D01*
X115518256Y-82256307D01*
X115506274Y-82236316D01*
X115496309Y-82215246D01*
X115488457Y-82193302D01*
X115482793Y-82170693D01*
X115479374Y-82147638D01*
X115478230Y-82124359D01*
X115478230Y-81549359D01*
X115479374Y-81526080D01*
X115482793Y-81503025D01*
X115488457Y-81480416D01*
X115496309Y-81458472D01*
X115506274Y-81437402D01*
X115518256Y-81417411D01*
X115532140Y-81398691D01*
X115547792Y-81381421D01*
X115565062Y-81365769D01*
X115583782Y-81351885D01*
X115603773Y-81339903D01*
X115624843Y-81329938D01*
X115646787Y-81322086D01*
X115669396Y-81316422D01*
X115692451Y-81313003D01*
X115715730Y-81311859D01*
X116190730Y-81311859D01*
X116214009Y-81313003D01*
X116214009Y-81313003D01*
G37*
D11*
G04 #@! TD*
G04 #@! TO.P,R1,2*
G04 #@! TO.N,/5V*
X115953230Y-81836859D03*
D15*
G04 #@! TO.N,Net-(R1-Pad1)*
X114300000Y-77470000D03*
X115570000Y-69850000D03*
G04 #@! TO.N,/PD2*
X118110000Y-65405000D03*
G04 #@! TD*
D16*
G04 #@! TO.N,Net-(J2-Pad1)*
X129540000Y-67310000D02*
X127000000Y-67310000D01*
X114935000Y-72075000D02*
X114935000Y-72550000D01*
X123919990Y-64229990D02*
X116745010Y-64229990D01*
X127000000Y-67310000D02*
X123919990Y-64229990D01*
X116745010Y-64229990D02*
X115579999Y-65395001D01*
X114385000Y-71525000D02*
X114935000Y-72075000D01*
X115579999Y-65395001D02*
X115579999Y-68165003D01*
X115579999Y-68165003D02*
X114385000Y-69360002D01*
X114385000Y-69360002D02*
X114385000Y-71525000D01*
G04 #@! TO.N,Net-(J2-Pad3)*
X121070001Y-66460001D02*
X121920000Y-67310000D01*
X119289999Y-64679999D02*
X121070001Y-66460001D01*
X116205000Y-66236998D02*
X117761999Y-64679999D01*
X116205000Y-67150000D02*
X116205000Y-66236998D01*
X121920000Y-67310000D02*
X124460000Y-67310000D01*
X117761999Y-64679999D02*
X119289999Y-64679999D01*
G04 #@! TO.N,/5V*
X112700089Y-82550000D02*
X109220000Y-82550000D01*
X115953230Y-81836859D02*
X115240089Y-82550000D01*
X115240089Y-82550000D02*
X112700089Y-82550000D01*
X107950000Y-81280000D02*
X109220000Y-82550000D01*
X107950000Y-69380998D02*
X107950000Y-81280000D01*
X108655999Y-68674999D02*
X107950000Y-69380998D01*
X113885001Y-68674999D02*
X108655999Y-68674999D01*
X114935000Y-67625000D02*
X113885001Y-68674999D01*
X114935000Y-67150000D02*
X114935000Y-67625000D01*
X113885001Y-71304999D02*
X113885001Y-68674999D01*
X113030000Y-72160000D02*
X113885001Y-71304999D01*
X113030000Y-72785000D02*
X113030000Y-72160000D01*
G04 #@! TO.N,Net-(R1-Pad1)*
X115953230Y-78026859D02*
X115953230Y-80086859D01*
X115953230Y-78026859D02*
X114856859Y-78026859D01*
X114856859Y-78026859D02*
X114300000Y-77470000D01*
X116205000Y-70485000D02*
X115570000Y-69850000D01*
X116205000Y-72550000D02*
X116205000Y-70485000D01*
X115969999Y-69450001D02*
X115570000Y-69850000D01*
X117475000Y-67945000D02*
X115969999Y-69450001D01*
X117475000Y-67150000D02*
X117475000Y-67945000D01*
G04 #@! TO.N,/G*
X118745000Y-73485089D02*
X118745000Y-72550000D01*
X115953230Y-76276859D02*
X118745000Y-73485089D01*
X121920000Y-74930000D02*
X124460000Y-74930000D01*
X124460000Y-74930000D02*
X127000000Y-74930000D01*
X127000000Y-74930000D02*
X129540000Y-74930000D01*
X118745000Y-73025000D02*
X118745000Y-72550000D01*
X120650000Y-74930000D02*
X118745000Y-73025000D01*
X121920000Y-74930000D02*
X120650000Y-74930000D01*
X112395000Y-69850000D02*
X109220000Y-69850000D01*
X114771859Y-76276859D02*
X113030000Y-74535000D01*
X115953230Y-76276859D02*
X114771859Y-76276859D01*
X109220000Y-70725000D02*
X109220000Y-69850000D01*
X113030000Y-74535000D02*
X109220000Y-70725000D01*
G04 #@! TO.N,/PD2*
X117475000Y-71525000D02*
X117475000Y-72550000D01*
X117475000Y-69445000D02*
X117475000Y-71525000D01*
X118745000Y-68175000D02*
X117475000Y-69445000D01*
X118745000Y-67150000D02*
X118745000Y-68175000D01*
X118745000Y-67150000D02*
X118745000Y-66040000D01*
X118745000Y-66040000D02*
X118110000Y-65405000D01*
G04 #@! TO.N,Net-(J1-Pad2)*
X112395000Y-67310000D02*
X109220000Y-67310000D01*
G04 #@! TD*
M02*
